<?xml version="1.0" encoding="utf-8"?>
<!-- Generator: Adobe Illustrator 17.0.0, SVG Export Plug-In . SVG Version: 6.00 Build 0)  -->
<!DOCTYPE svg PUBLIC "-//W3C//DTD SVG 1.1//EN" "http://www.w3.org/Graphics/SVG/1.1/DTD/svg11.dtd">
<svg version="1.1" id="图层_1" xmlns="http://www.w3.org/2000/svg" xmlns:xlink="http://www.w3.org/1999/xlink" x="0px" y="0px"
	 width="401px" height="225px" viewBox="0 0 401 225" enable-background="new 0 0 401 225" xml:space="preserve">
<g transform="translate(216.75,119.35)">
	<path fill="#FFFC00" d="M83.45,28.2l8.35,10.3l4.95,3.8c1-1.9,2.15-3.35,3.45-4.35c1.2-1.033,3-1.033,5.4,0
		c2.833,1.233,4.7,1.75,5.6,1.55c0.867-0.4,1.35-0.867,1.45-1.4l0.1-1.85c0.067-0.367,0.333-0.933,0.8-1.7l1.2-1.9l0.5-1
		c0.4-5.333-0.65-9.783-3.15-13.35c-3.767,0.433-8.433,1.717-14,3.85L83.45,28.2z M-74.1,43.7c2.633,0.833,6.567,1.217,11.8,1.15
		c-0.167-3.233-0.433-5.933-0.8-8.1L-74.1,43.7z M-103-34.05l-1.45,0.9l-0.35,0.45l1.3-0.85l0.4-0.35L-103-34.05z M-101.2-37.35
		l0.75-0.8c-0.933,0.467-1.467,0.817-1.6,1.05l-0.35,0.2l3.1-0.85l-0.1-0.1l0.1-0.1h-0.2L-99.7-38l-0.4,0.15l-0.35,0.3l-0.2-0.1
		C-100.683-37.583-100.867-37.483-101.2-37.35z M-175.7-20.9v-0.2l-5-0.15l-0.75,0.15l-0.7-0.05l-2.5,0.55l7.6,0.1
		c2.733-0.067,3.75-0.2,3.05-0.4H-175.7z M-190.7-10.35l-0.35-0.05l-4,0.35l2.95,0.15l0.6-0.05c0.267-0.033,0.133-0.067-0.4-0.1
		c-0.533,0-0.667-0.033-0.4-0.1L-190.7-10.35z M-187.45-9.6l-2-0.45l-2.3,0.2L-187.45-9.6z M-187.8-11.2l0.55,0.1l1.15-0.05
		l0.05-0.1L-187.8-11.2l1.95-0.1v0.05l3.55-0.15l-2.75-0.45l-4.05,0.4l1.25,0.25H-187.8z M-192.55-10.7l-0.8-0.15l-2,0.55
		L-192.55-10.7z M-192.6-12.95l-0.85-0.1l-2.45,0.35l5.4,1l4.25-0.5l-3.7-0.95L-192.6-12.95z M-188.15-17.8l0.05-0.3l9.1,0.8
		l0.8-0.05l0.6-0.45l-2.5-0.25l-0.85,0.05l-1.15,0.25l0.9-0.25l-0.85,0.05v-0.15l-0.7-0.05l-1.05,0.05
		c-0.2-0.033-0.15-0.083,0.15-0.15l0.05-0.05l-1.05-0.2l-8.8,0.4l7.15,0.65v-0.15L-188.15-17.8z M-187.4-14.3l0.05-0.25l4.75,0.65
		l3.35-0.15c-3.567-0.067-4.683-0.25-3.35-0.55l0.1-0.05l-3.05-0.5l-2.85,0.1l-1.6-0.2l-2.65,0.2l6.85,1.2l0.05-0.15L-187.4-14.3z
		 M-190.8-15.55v-0.15l-3.45,0.35l0.35,0.1L-190.8-15.55z M-189.5-16.25l-0.55-0.1h0.2l-6.55-0.45l-1.8-0.3l-1.35,0.05l-2.8,1
		l6.3,0.6l0.05-0.05l-0.2-0.15l0.55,0.1L-189.5-16.25z M-185.75-20.4v-0.05l-0.9,0.15l2.55,0.15l0.05-0.15L-185.75-20.4z
		 M-204.3-15.1l2.4-0.05c0.267,0,0.133-0.05-0.4-0.15c-0.533-0.1-0.667-0.167-0.4-0.2l1.95,0.1l-2.6-0.25L-204.3-15.1l-2.3,1.35
		l3-1.9l-2.3-0.05c-0.367-0.033-0.367-0.1,0-0.2l0.95-0.1h-0.85l-1.15,0.4l1-0.4l-1.75,0.05l-1.35,0.4l0.15-0.2l0.35-0.15l-6.5,0.8
		l-1.7,1.35l1.45-1.3l-0.55,0.1l0.6-0.15c1.367-1.067,2.717-1.933,4.05-2.6l-1.8,0.45l2.15-0.6c2.5-1.233,5.383-2.067,8.65-2.5
		l-2.75-0.15c2.467-0.4,6-0.467,10.6-0.2l-0.6-0.2l7.6,0.55l1.6-0.3v-0.05l0.25,0.05l3.2-0.7l-4.2-0.3v-0.25l1.45,0.15l-8.85-1.15
		l-7.8-0.15l-0.9-0.15c-4.033,0.333-7.25,0.833-9.65,1.5c3.133-1,6.633-1.583,10.5-1.75l25.25,0.95l24.25-3.55
		c-0.333-0.033-0.4-0.083-0.2-0.15l19.4-3.1c2-0.333,4.183-0.85,6.55-1.55V-31l0.75-0.15l1.2-0.4l0.05,0.1
		c0,0.067,0.433-0.033,1.3-0.3l0.05,0.1c2-0.7,3.283-1.183,3.85-1.45l0.05,0.15c1.333-0.433,2.183-0.8,2.55-1.1l0.05,0.15
		c0-0.1,0.2-0.233,0.6-0.4l8.35-3.45c1.333-0.467,2.417-0.917,3.25-1.35l-0.35,0.5l0.6,0.05l1.1-0.4l0.45-0.1l0.8-0.35l2.3-0.45
		v-0.1c0.3-0.633,0.683-0.967,1.15-1l0.5-0.2l-0.1-0.1h0.1l0.1-0.05l0.1,0.1h0.1l0.1,0.1l0.1-0.1l0.1-0.15l0.1,0.1l0.1-0.1l0.1-0.05
		v-0.05l0.1-0.2l0.65-0.25c0.033,0.033,0.067,0.017,0.1-0.05L-96-41.6c2.3-1.4,5-3.417,8.1-6.05l7.6-6.4
		c6.233-4.767,12.8-7.35,19.7-7.75c3.833-0.2,8.633,0.317,14.4,1.55l13.95,2.9l26.5,1.75c4.533,0.367,9.1,0.25,13.7-0.35
		c4.733-0.633,9.033-1.7,12.9-3.2c1.3-0.5,4-1.883,8.1-4.15c3.367-1.833,6.367-3.1,9-3.8l2.4-0.5c0.8-0.567,1.867-0.733,3.2-0.5
		l3-0.05c0.333-0.333,0.167-0.667-0.5-1s-0.833-0.667-0.5-1c0.233,0,0.583-0.15,1.05-0.45c0.533-0.4,0.983-0.65,1.35-0.75l0.9-0.1
		l3.7,0.3c1.533-1.167,1.567-2.1,0.1-2.8c-1.767-0.867-2.6-1.433-2.5-1.7l-0.4-0.4c-0.067-0.133,0.033-0.333,0.3-0.6l0.65,0.3
		c1.333,0.767,2.767,0.867,4.3,0.3l2.8-1.05l0.9-0.2c4.467,0.2,8.1-0.133,10.9-1l2.2-0.8l1.75-0.05c0.4-1.233,0.15-1.95-0.75-2.15
		l-2.25-0.2l-2.4,0.35l1.15-0.3l0.9-0.35l7.6-2.15l0.95-0.5c0.267-0.1,0.917-0.767,1.95-2c0.733-0.867,1.683-1.1,2.85-0.7
		c-0.733-0.733-1.733-1.017-3-0.85l-3-0.15c1.567-1.133,3.417-2.117,5.55-2.95l1-0.4c0.933-0.433,2.35-0.8,4.25-1.1
		c1.867-0.267,3.183-0.6,3.95-1c0.633-0.3,1.183-0.717,1.65-1.25L91.5-94.6c-2.767,0.5-5.417,0.317-7.95-0.55
		c2.467,0.633,5.183,0.483,8.15-0.45l0.9-0.25c2.133-0.167,3.95-0.7,5.45-1.6l0.8-0.6l1.05-1.6c0.367-0.7,0.567-1.417,0.6-2.15
		l2.65,0.35c0.733-1.933,1.967-3.483,3.7-4.65c1.867-1.233,3.75-1.65,5.65-1.25h1l6.1-0.9l1.9,1c-0.467-1.933-0.7-4.05-0.7-6.35
		c0-2.6,0.333-4.517,1-5.75c0.8,0.633,1.783,1.967,2.95,4c0.967,1.633,2.05,2.65,3.25,3.05l1.1-0.5c0.467-0.3,0.7-0.133,0.7,0.5
		c0.733,0.067,1.05-0.483,0.95-1.65c-0.133-1.667-0.167-2.583-0.1-2.75c0.433-0.6,0.817,0.133,1.15,2.2c0.4,2.467,0.917,3.8,1.55,4
		c0.8-0.1,1.933,0.917,3.4,3.05c0.3-0.167,0.7-0.017,1.2,0.45c0.533,0.5,1,1.167,1.4,2l1,2.25l0.85,0.25
		c0.4-0.067,1.033,0.483,1.9,1.65c0.667,0.9,1.15,0.933,1.45,0.1c0.233,0.5,1.033,1.4,2.4,2.7c1.033,1.033,1.617,2.133,1.75,3.3
		c2.133,2.467,3.75,4.2,4.85,5.2l2.5,2.6l6.7,9.85c2.567,4.5,6.05,9.033,10.45,13.6c3.1,2.433,5.1,4.167,6,5.2
		c1.533,1.7,2.733,3.9,3.6,6.6l0.45,2.05c0.067,0.933-0.05,1.55-0.35,1.85c-0.467,0.467-0.667,1.333-0.6,2.6
		c0.1,1.267-0.017,2.083-0.35,2.45l-1.45,2.05c-0.567,0.767-1.217,1.2-1.95,1.3l-6.85,1.2l-5.9-0.55
		c-0.833-0.767-1.4-1.517-1.7-2.25l-0.6-0.9l-0.55-0.55l-1.9-1.2c-0.9-0.433-1.533-0.783-1.9-1.05l-5.9-3.45
		c-1.367-0.6-2.933-1.433-4.7-2.5c-1.5-0.9-2.733-1.5-3.7-1.8l-11-2.7c-1.833-0.333-3.65-0.883-5.45-1.65
		c-0.967-0.367-3.083-1.433-6.35-3.2l-3.8-0.05c-2.3,0.4-4.367,2.183-6.2,5.35l-3.5,7.05l-1.8,5.35l-4.95,9.5
		c-2.067,3.9-3.367,7.217-3.9,9.95c-0.2,1.1-0.233,2.6-0.1,4.5c0.167,2.067,0.2,3.533,0.1,4.4c-0.133,1.033-0.583,2.633-1.35,4.8
		c-0.733,2.167-1.167,3.8-1.3,4.9L94.45,3l9.45,1.75c4.033,0.733,7.267,1.45,9.7,2.15l0.9,0.35l0.05-0.1l4.15,2.1
		c1.1,0.633,2,1.4,2.7,2.3c1.3,1.6,2.367,3.783,3.2,6.55c0.333,1.1,0.133,2.6-0.6,4.5c-0.833,2.2-1.25,3.833-1.25,4.9l-0.35,9.75
		l0.4,3.95c-0.1,1.1-0.333,2.1-0.7,3c-0.367,0.833-0.75,1.333-1.15,1.5l-6,0.65c-1.4,0.167-3.433,0.8-6.1,1.9
		c-0.167,0.067-1.567,0.9-4.2,2.5c-2.533,1.567-4.467,2.583-5.8,3.05l-0.45,0.9c-0.667,1.733-2,2.783-4,3.15
		c-1.1,0.467-2.733,0.933-4.9,1.4l-4.9,1.2c-1.633,0.533-4.6,1.9-8.9,4.1l-8.95,4.55c-0.967,0.467-1.783,0.617-2.45,0.45
		c-1.9-0.533-4.5-1.7-7.8-3.5c-3.067-1.7-5.167-2.65-6.3-2.85L45,62.45l-8.45-2.8c0.367-1.2,1.1-2.35,2.2-3.45
		c1.3-1.333,2.9-2.6,4.8-3.8c2.333-1.467,4.367-2.3,6.1-2.5c1.4,0.733,2.75,2.217,4.05,4.45c1.333,2.333,2.633,3.867,3.9,4.6
		c1.267,0.467,2.317,0.167,3.15-0.9c1.2-1.533,1.917-2.35,2.15-2.45c3.4,1.033,7.567,0.95,12.5-0.25c4.667-1.1,8.267-2.733,10.8-4.9
		c-1.333-0.733-3.483-1.6-6.45-2.6L73,45.3l-10.9-5.8c-2.733-1.567-4.867-2.617-6.4-3.15c-2.367-0.733-5.283-1.917-8.75-3.55
		l-5.9-2.7c-16.8-1.067-29.617-2.233-38.45-3.5c-13.967-2-25.417-5-34.35-9l-3.15-1.45c0,3.567-0.083,6.533-0.25,8.9
		c-0.267,3.567-0.783,7.1-1.55,10.6l-1.5,4.3c-0.933,2.7-1.417,4.317-1.45,4.85c-0.2,4.9,1.4,9.9,4.8,15
		c3.1,4.633,7.2,8.683,12.3,12.15L-19,74.6l5.25,2.65c2.4,1.133,4.017,2.117,4.85,2.95c0.7,0.7,1.2,1.867,1.5,3.5
		c0.3,1.533,0.85,2.633,1.65,3.3c4.367,3.667,7.683,6.867,9.95,9.6c2.967,3.567,3.783,5.983,2.45,7.25c-1.5,1.4-4.4,1.867-8.7,1.4
		c-4.233-0.467-7.233-1.533-9-3.2V93.2c-0.633-2-1.383-2.75-2.25-2.25c-1.6,0.967-2.617,1.417-3.05,1.35l-2.5-3.6
		c-1-1.567-1.9-2.733-2.7-3.5l-8.05-6.55c-1.733-1.7-3.517-3.05-5.35-4.05l-0.3,5.1c-3.333,0.7-6.583-0.267-9.75-2.9
		c-2.633-2.233-4.7-5.1-6.2-8.6c-0.033-0.867,0.3-1.683,1-2.45l-6.65-4.45c-2-1.7-3.417-3.583-4.25-5.65
		c-5.333-1.1-10.8-1.8-16.4-2.1l-10.45-2.6c-1.4-0.267-2.5-0.733-3.3-1.4h-0.25l-2.35-3.05c-0.633-1.133-0.867-2.267-0.7-3.4
		c0.233-1.567,1.683-3.333,4.35-5.3c3.033-2.2,4.683-3.517,4.95-3.95c1.2-2,2.117-4.033,2.75-6.1c0.733-2.333,0.917-4.117,0.55-5.35
		c-0.5-1.7-1.517-3-3.05-3.9c-2.1-1.2-3.433-2.15-4-2.85l-1.7-1.3c-2-1.567-4.483-4.85-7.45-9.85c-2.833-4.8-4.783-8.883-5.85-12.25
		V-8.6l-0.1,0.45c-1-3.4-1.05-7.683-0.15-12.85c-5.867,5.733-11.15,9.767-15.85,12.1l-2.05,0.85c-6.8,4.2-13.5,6.117-20.1,5.75
		l-23.325-3.15L-182.65-5.5l-1.9-0.35l-7.85-0.5l1.35,0.05c0.333,0,0.183-0.05-0.45-0.15c-0.6-0.133-0.75-0.2-0.45-0.2l6.5,0.4V-6.4
		l-7.4-0.45c-3.267-0.3-4.183-0.483-2.75-0.55l11.65,0.65l-0.55-0.15l12.05-0.45V-7.5l-1.85,0.2l-0.05-0.3h0.15l-9.4-0.95l-0.7-0.2
		l-7.65,1l2.35-0.55c0.267-0.067,0.133-0.083-0.4-0.05c-0.567,0-0.717-0.033-0.45-0.1L-185.5-9l-1.05-0.05L-193.7-8
		c-0.367,0.067-0.383,0.017-0.05-0.15c1.067-0.433,2.6-0.8,4.6-1.1l-2.6-0.2c-0.733-0.033-1.033-0.117-0.9-0.25L-193-9.75
		l-0.85,0.15l0.65-0.15l-3.15-0.2c-1.833,0.733-3.483,1.633-4.95,2.7c1.4-1.133,2.917-2.033,4.55-2.7l-6.3-0.3l6.7,0.1l2.5-0.8
		l-0.95-0.2c0.033-0.067-0.567-0.267-1.8-0.6l-2.4-0.35l-3.75,0.95l3.35-1l-6.45-0.45h2.75c0.3,0,0.15-0.05-0.45-0.15
		c-0.633-0.1-0.783-0.167-0.45-0.2l5.5,0.55l0.35-0.1l-9.6-0.95l10.85,0.75l0.4-0.1l5-0.65l-3.3-0.6l-1.3-0.45l-1.6,0.35l1.45-0.4
		h-0.1l-1.05-0.2l-2.05,0.25l1.05-0.35L-204.3-15.1z M-205.05-16.2l2.3,0.15l2.25-0.95L-205.05-16.2z M-204.4-16.4
		c0.3-0.067,0.15-0.083-0.45-0.05c-0.6,0.067-0.767,0.05-0.5-0.05l6.1-0.9h0.1v-0.15c-2.433,0.133-4.8,0.533-7.1,1.2l-0.6,0.15h1.6
		L-204.4-16.4z M-202.65-18.3l-0.85-0.2l-6.7,0.6c-1.8,0.8-3.4,1.717-4.8,2.75l7-1c2.5-1.1,5.567-1.717,9.2-1.85L-202.65-18.3z"/>
</g>
</svg>
