<?xml version="1.0"?>
<!DOCTYPE svg PUBLIC "-//W3C//DTD SVG 1.1//EN" "http://www.w3.org/Graphics/SVG/1.1/DTD/svg11.dtd">
<svg version='1.1' width='432px' height='245px' xmlns='http://www.w3.org/2000/svg' xmlns:xlink='http://www.w3.org/1999/xlink'>
	<g transform="translate(222.75,107.392)">
		<path d="M -115.95 -31.85 Q -115.85 -31.65 -114.2 -32.55 L -113.9 -33.35 L -114.4 -33 L -114.6 -32.65 Z M -112.75 -41.45 L -114.85 -40.65 L -114.4 -40.6 Z M -116.9 -39.55 L -117.2 -39.35 L -116.9 -39.35 L -116.25 -39.65 Z M -108.5 -44.05 L -108.4 -44.2 L -114.5 -43.05 L -116.45 -42.35 Z M -200.4 -24.05 L -201.05 -23.65 L -200.75 -23.7 L -200 -24.1 Z M -192.85 -20.8 L -193.35 -20.6 L -194.8 -20.35 L -198.3 -18.9 L -193.45 -20 L -191.25 -20.95 Z M -194.25 -18.95 L -194.3 -19.05 L -199.65 -16.1 L -199.75 -16 L -198.45 -16.35 L -198.15 -16.55 L -198.55 -16.45 Q -199.25 -16.15 -198.9 -16.4 Q -198.3 -16.85 -194.25 -18.95 Z M -204.6 -20.65 L -200.75 -21.35 L -196.1 -23.35 L -197.1 -23.2 L -197.1 -23.4 L -195.15 -23.7 L -200.95 -23.2 L -204.6 -20.65 L -203.05 -21.8 Q -202.75 -22.05 -203.4 -21.7 L -203.8 -21.6 L -201.7 -23.1 L -202 -23.05 L -206.15 -20.2 L -204.8 -20.45 L -205.4 -20.5 Z M -191.95 -23.1 L -189.1 -24.15 L -194.35 -23.55 L -199.3 -21.6 L -194.35 -22.35 L -194.35 -22.5 L -196.05 -22.25 L -196.1 -22.5 Z M -183.1 -19.55 L -183.1 -19.7 L -184.75 -19.4 L -184.8 -19.7 L -176.9 -21 Q -172.3 -21.8 -173.35 -21.95 L -175 -21.7 L -175.05 -21.9 L -185.75 -20.4 L -185.8 -20.6 L -184.55 -20.8 L -189.35 -20.35 L -191.9 -19.35 L -193.4 -18.95 L -198.25 -16.4 L -193.15 -17.55 L -193.7 -17.6 Z M -187.05 -23.75 L -186.95 -23.8 L -186.95 -23.9 L -187.4 -23.8 L -187.45 -23.95 L -190 -23.35 Z M -190.7 -25.15 L -188 -25.85 L -199 -24.35 L -199.95 -23.8 Z M -187.55 -28.65 L -190.6 -27.8 Q -186.25 -28.6 -187.05 -28.75 Z M -198 -27.2 L -198.05 -27.4 L -196.25 -27.75 L -199.55 -27.3 L -199.6 -27.3 L -204.7 -24.15 L -198.4 -25.8 L -194.3 -27.85 Z M -184.9 -37.9 L -185 -37.9 L -185.75 -37.4 Q -183.3 -38 -184.05 -38.05 Z M -185.3 -34.8 L -183.65 -35.1 L -183.55 -35.15 L -183.4 -35.15 L -178.25 -36.1 L -178.55 -36.1 L -183 -35.5 L -183.45 -35.2 L -183.15 -35.45 L -184.4 -35.25 Z M -171.85 -41.85 L -166.7 -43.1 Q -164.15 -43.7 -164.75 -43.8 L -165.95 -43.6 L -166 -43.8 Q -169.55 -43.35 -173.8 -42.1 L -173.9 -42.25 L -172.1 -42.85 L -175.15 -42.15 Q -176.55 -41.85 -179.2 -40.65 L -177.35 -40.9 Q -177.9 -40.95 -177.55 -41.1 L -176.6 -41.3 Z M -213.25 -24.2 Q -213.95 -23.7 -214.1 -23.85 L -216.75 -21.95 Q -211.3 -24.5 -206.05 -26.1 Q -201.75 -28.25 -195.7 -30 L -195.75 -30.15 L -197.4 -29.65 L -197.5 -29.9 L -187.5 -33.05 Q -193.8 -31.95 -198.6 -30.45 L -198.65 -30.6 L -197.35 -31 L -200.4 -30.3 Q -202.5 -29.8 -206.1 -28.15 Q -210.05 -26.3 -213.25 -24.2 Z M -211.85 -22.05 Q -211.464 -22.3256 -211.05 -22.6 Q -211.821 -22.149 -212.6 -21.7 L -214.1 -20.75 L -212.6 -21.15 L -211 -22.3 Q -210.65 -22.55 -211.4 -22.15 Q -212.2 -21.8 -211.85 -22.05 Z M -206.5 -20.1 L -206.45 -20.2 L -206.35 -20.25 L -207.15 -20.1 L -206.35 -20.3 L -202.95 -22.85 L -208.05 -21.85 L -211.65 -18.9 Z M -207.55 -22.55 L -207.3 -22.75 L -209.6 -21.9 Z M -206.65 -22.95 L -206.9 -22.75 L -205.3 -23.25 L -205.35 -23.4 Z M -203.05 -23.3 L -204.5 -23.15 L -206.1 -22.7 L -202.1 -23.45 L -201.7 -23.7 Z M -203 -31 L -204.725 -30.175 Q -203.834 -30.5686 -202.95 -30.9 Z M -206.65 -25.05 L -206.75 -25.15 Q -207.576 -24.6514 -208.4 -24.15 Q -207.573 -24.6035 -206.65 -25.05 Z M -204.1 -25.6 Q -204.2 -25.75 -205.75 -25.15 Q -209.35 -23.5 -212.55 -21.15 L -206.25 -23.5 L -205.95 -23.75 L -201.2 -26.85 Z M -208.25 -25 L -208.4 -24.9 L -211 -24 L -211.75 -23.9 L -217.15 -21.6 L -220.65 -18.6 L -214.8 -20.55 Q -211.9 -22.9 -207.45 -25.25 Z M -201.45 -30.55 Q -194.511 -33.0461 -185.325 -34.8 Q -185.531 -34.7656 -185.25 -35 L -185.1 -35.1 L -191.8 -33.7 Q -196.4 -33 -200.6 -31.25 L -202.1 -30.9 Q -204.6 -30 -209.05 -27.6 L -207.05 -28.75 Q -206.7 -28.95 -207.45 -28.65 Q -208.15 -28.4 -207.85 -28.6 Q -207.079 -29.032 -206.325 -29.425 L -208.55 -28.35 Q -211.6 -26.9 -210.75 -27.55 Q -207.25 -29.75 -202.05 -31.85 L -202.5 -31.8 Q -197.9 -33.75 -193 -35.15 L -193 -35.25 L -194.5 -34.8 L -194.6 -35.05 L -186.45 -37.25 L -185.55 -37.8 L -185.6 -37.8 L -185.65 -38 Q -190.65 -37.1 -195.6 -35.65 L -195.65 -35.85 L -194.5 -36.15 L -197.25 -35.6 Q -199 -35.25 -202.4 -33.9 L -209 -30.9 Q -209.65 -30.55 -209.8 -30.7 L -217.4 -26.25 Q -203.9 -35.9 -182 -40.05 L -181.15 -40.2 Q -173.1 -44.2 -163.15 -45.65 L -161.3 -46.05 L -159.4 -46.2 Q -160.5 -46.35 -158.8 -46.5 Q -150.45 -47.25 -142.15 -46.3 L -136.1 -45.8 L -136.1 -45.95 L -134.3 -45.8 L -134.3 -45.65 L -133.1 -45.55 L -133.15 -45.4 L -129.55 -45.3 L -129.55 -45.2 Q -127.75 -45.05 -127.15 -45.2 L -127.15 -45.05 L -126.55 -45.2 L -115.95 -45.45 L -116.35 -45.15 Q -116.6 -44.95 -115.9 -44.95 L -107.9 -45 L -105.3 -48.4 Q -104.35 -49.55 -101.55 -51.2 L -97.55 -52.85 L -87.25 -55.2 Q -78.75 -57.3 -71.1 -57.7 L -58.15 -57 L -50.9 -56 Q -40.95 -52.85 -33.8 -51.6 Q -25.4 -50.15 -15.55 -50.25 L 4.55 -50.25 L 22.4 -51.95 Q 31.8 -53.3 40.85 -56.95 Q 41.85 -57.35 46.2 -57.95 Q 48.85 -58.45 43.75 -58.85 L 41.85 -58.85 L 38.5 -57.9 Q 35.8 -57.3 35.15 -58.85 Q 37 -58.9 39.5 -59.95 Q 42.3 -61.1 43.6 -61.3 L 47.45 -61.8 L 50.45 -62.7 Q 49.6 -64.75 47.55 -65.55 L 52.35 -65 Q 53.1 -64.9 51.25 -67.2 L 52.9 -66.9 Q 53.8 -66.25 54.35 -66.25 L 59.15 -66.75 L 63.8 -66.5 L 59.05 -67.85 Q 55.95 -68.6 53.3 -71.3 Q 56.05 -70.25 62.85 -70.25 L 72.05 -69.55 Q 72.1 -70.55 69.15 -71.65 Q 65.95 -72.85 65.75 -73.2 L 74.35 -74.6 L 86.75 -73.2 Q 87.55 -73.2 87.6 -74.05 Q 87.65 -74.9 86.75 -75.1 L 82.35 -75 Q 79.55 -74.8 79.1 -76.05 Q 79.85 -75.7 80.4 -75.7 L 82 -76.05 Q 84.25 -76.85 86.6 -77.05 L 91.55 -77 L 94.25 -77.3 Q 94.1 -78.3 92.15 -78.7 Q 90 -79.15 89.65 -79.9 Q 91.55 -79.55 94 -80.65 L 96.3 -81.8 Q 96.35 -82.5 94.25 -82.3 L 89.65 -81.8 L 86.9 -82.45 Q 85.6 -83.05 85.8 -84.65 Q 88.55 -82.85 92.4 -84.45 Q 94.55 -85.35 98.2 -87.35 Q 94.95 -88.9 94.4 -90.4 L 96.6 -89.7 L 104.2 -88.75 Q 108.75 -88.35 109.45 -89.5 Q 108.35 -89.65 106.45 -93.4 Q 109.45 -92.1 109.7 -93.25 L 108.6 -94.15 L 110.65 -94.2 Q 110.7 -94.6 110.15 -95.4 Q 109.85 -95.9 110.65 -96.15 Q 111.95 -96.05 113.85 -94.75 Q 115.7 -93.5 116.2 -92.5 Q 115.6 -94.05 114.45 -95.8 Q 113.05 -97.8 111.6 -99 Q 113.85 -99.8 117.6 -98.45 Q 121 -97.25 124.35 -94.85 Q 127.1 -92.9 129.5 -92.1 Q 126.25 -97.15 124.8 -100.95 Q 122.75 -106.2 124.9 -107.35 Q 126 -107.95 134.6 -99.9 L 134.95 -100.75 Q 136.55 -100.5 138 -99.3 L 140.4 -96.95 L 140.3 -98.05 Q 141.2 -97.95 141.85 -97.1 L 142.9 -95.75 L 145.1 -95.45 L 145.2 -98.45 Q 145.5 -100 147 -99 Q 147.95 -98.35 148.9 -97.05 L 150.45 -94.75 L 151.4 -94.6 Q 152.1 -94.8 153.9 -93.1 Q 155.25 -91.85 155.5 -93.3 Q 156.05 -92.5 158.65 -90.7 Q 160.7 -89.3 161.25 -87.4 L 170.85 -80.1 L 180.2 -70.35 Q 185.6 -63.65 194.3 -57.2 Q 200.2 -53.95 202 -52.5 Q 205.05 -50.05 207.25 -45.8 L 208.1 -43.6 Q 208.5 -42.05 208.05 -41.45 Q 207.35 -40.55 207.85 -38.45 Q 208.4 -36.35 207.95 -35.65 L 206.75 -33.1 Q 206 -31.65 204.75 -31.3 L 197.4 -28.7 L 190.7 -28.2 Q 189.05 -29.35 188.4 -30.4 L 187.55 -31.3 L 186.85 -31.8 L 174.95 -36.35 Q 172.55 -36.95 169.25 -38.25 Q 166.55 -39.35 164.8 -39.6 L 152.05 -40.5 Q 146.1 -40.65 140 -43.35 L 136.7 -43.1 Q 135.6 -42.8 134.55 -41.65 L 127.65 -36.15 Q 123.9 -31.95 120.4 -28.6 Q 114.85 -23.05 112.55 -21.55 Q 109.15 -19.2 107.4 -16.7 Q 105.2 -13.5 104.95 -9.15 L 104.8 -3.9 Q 104.7 -0.7 104.95 1.35 Q 105.65 7.3 104.25 12.8 Q 102.85 18.3 100 20.85 Q 96.4 30.95 94.8 33.65 Q 93.25 36.25 89.7 38.5 Q 88.45 39.9 85.7 41.85 L 81.95 44.6 L 80.1 50.35 Q 79.2 53.7 78.95 56.5 L 78 63 Q 77.35 67.7 77.45 71.65 Q 77.35 72.6 77.6 77.5 Q 77.75 81.15 76.9 84.25 L 76.3 87.4 L 75.7 94.35 Q 75.3 97.15 75.3 101.05 Q 75.55 105.1 75.95 106.6 L 78.2 118.1 Q 78.9 121.05 81.3 124.3 L 82.2 125.05 L 84.05 127.15 Q 87.3 131.45 87.7 132.75 Q 88.45 134.75 86.6 135.95 Q 85.05 137 82.2 137.1 Q 78.45 137.25 77.05 137.05 Q 74.7 136.75 72.85 135.4 Q 70.4 133.65 70.3 131.3 Q 70.2 128.95 72.35 125.5 Q 72.15 120.1 67.4 119.35 Q 66.4 117 66.35 113.75 L 66.2 92.25 L 65.8 89.15 L 64.05 83.1 Q 62.5 78.05 62.55 76.1 Q 62.75 66.5 62.45 62.3 L 60.95 50.5 L 58.5 41.2 L 57.75 40.8 L 46.35 54.55 L 42.5 58.6 Q 40.45 60.75 38.55 63.95 Q 37.55 69.5 33.35 73.45 L 33.3 73.45 L 30.85 75.45 Q 26.15 79.2 19.25 82 Q 10.6 85.5 7.5 87.3 L 5.05 88.45 Q 3.65 89.1 2.7 89.85 Q -1.45 93.2 -3.85 94.65 Q -7.9 96.95 -11.45 97 Q -12.5 97 -15.15 96 Q -17.75 95.05 -19.25 95.15 Q -21.35 95.25 -26.9 97.3 Q -31.7 99.05 -34.85 98.5 Q -34.8 94.45 -34.2 91.9 Q -33.45 88.85 -31.4 85.55 Q -29.95 83.15 -24.85 82.85 Q -23.3 82.75 -21.5 85.3 Q -19.65 88 -17.5 88.2 Q -15.75 88.95 -15.6 87.3 Q -15.45 85.25 -14.7 85.15 L -3.25 82.05 Q 1.1 80.7 5.5 78.85 Q 14.2 75.25 16.9 72.15 L 21.1 67.1 L 25.8 59.45 L 28.15 52.65 Q 29.35 48.8 31.05 45.7 L 35 37.2 L 35.75 34.75 L 26.2 32.05 L 25.85 32.1 L 25.9 32 Q 20.15 30.7 14.15 30.6 L 4.55 29.1 L -9.85 25.75 Q -17.1 23.95 -23.2 21.85 L -50.65 11.9 L -53.4 11.6 Q -58.5 15.3 -67.1 20.25 Q -76.65 25.85 -82.1 27.95 L -90.5 30.7 Q -98.2 33.15 -104.5 35.55 Q -115.65 37.15 -124 36.65 L -133.5 35.05 Q -140.85 35.8 -147.65 42 Q -153.85 47.65 -157.85 56 L -159.95 59.9 L -161.8 65.5 Q -162.95 69.3 -164 70.7 Q -164.9 71.9 -167.2 72.75 Q -169.45 73.5 -170.25 74.85 Q -174.8 82.2 -178.3 86.15 Q -182.95 91.3 -185.1 89.6 Q -187.5 87.7 -187.75 81.2 Q -188 74.8 -185.95 71.85 L -177.2 70.55 Q -174.35 69.15 -175.3 67.95 Q -177.1 65.75 -177.1 65.15 L -173.4 61.75 Q -171.1 59.7 -170.1 57.85 Q -175.15 60.85 -179.65 62.1 Q -183.7 63.2 -189.9 63.45 Q -191.65 58.65 -188.45 53.4 Q -185.7 49 -180.85 46 Q -179.45 45.75 -177.5 47.25 Q -175.75 48.6 -173.45 47.6 Q -172.8 47.1 -173.4 45.65 Q -174.1 43.95 -173.4 42.8 L -170.45 39.15 Q -168 36.35 -166.9 34.25 Q -164.2 29.25 -161.55 22.15 L -159.35 15.95 Q -158.35 13.7 -157.35 10.5 L -155.5 5.5 Q -154.1 1.7 -153.3 0.05 Q -151.95 -2.7 -149.7 -3.4 Q -147.45 -4.1 -143.1 -1.75 Q -138.1 0.95 -137.4 1.05 L -129.1 1.4 Q -123.8 1.4 -122.25 0.55 L -120.55 -0.15 Q -121.45 -3.85 -119.6 -11.95 L -117.85 -21.3 L -114.9 -30.6 L -115.95 -30 Q -120.1 -27.75 -125.85 -26.2 Q -131.1 -24.85 -136.2 -24.4 L -139.8 -24.35 Q -151.8 -21.9 -176.75 -18.75 L -182 -18 Q -186.4 -17.9 -191.85 -16.7 L -193.5 -16.6 L -201.5 -14.6 L -199.15 -15.35 L -200 -15.3 Q -200.25 -15.3 -200 -15.4 L -199.8 -15.45 L -199.5 -15.65 L -200.85 -15.3 L -201.15 -15.25 Q -202.15 -14.65 -201.75 -15.05 L -203.4 -14.75 Q -203.85 -14.7 -203.3 -14.9 L -200.9 -15.7 Q -197.95 -17.8 -194.75 -19.3 L -195.2 -19.2 L -196.25 -18.65 L -195.25 -19.2 L -200.05 -18.05 L -201.4 -17.35 L -200.3 -18 L -200.7 -17.85 L -201.55 -17.8 L -202.35 -17.45 L -208.2 -13.05 L -203.25 -17.1 L -203.05 -17.3 L -202.85 -17.45 L -210.5 -14.85 Q -206.9 -16.45 -202.2 -17.85 L -197.65 -20.5 L -203.45 -19.6 L -203.6 -19.65 L -209.45 -16.1 Q -207 -18 -204.05 -19.65 L -205.2 -19.5 Q -208.65 -18.9 -211.95 -17.95 L -211.05 -18.25 Q -210.65 -18.35 -211.5 -18.25 Q -212.35 -18.1 -211.95 -18.25 L -206.1 -19.65 L -206.1 -19.8 L -212.35 -18.3 L -212.6 -18.05 L -212.4 -18.3 L -212.8 -18.15 Q -216.65 -17.2 -215.35 -17.8 L -211.8 -18.85 L -208.55 -21.75 L -209.15 -21.6 L -211.3 -20.75 L -209.55 -21.5 L -212.6 -20.75 L -213.5 -20.7 L -220.8 -18.45 L -221.8 -17.55 L -220.95 -18.4 L -222.75 -17.8 L -220.8 -18.55 L -217.9 -21.3 L -219.35 -20.6 L -217.6 -21.5 Q -210.95 -27 -201.45 -30.55 Z" fill="#FAF643"/>
	</g>
</svg>
