<?xml version="1.0"?>
<!DOCTYPE svg PUBLIC "-//W3C//DTD SVG 1.1//EN" "http://www.w3.org/Graphics/SVG/1.1/DTD/svg11.dtd">
<svg version='1.1' width='404px' height='223px' xmlns='http://www.w3.org/2000/svg' xmlns:xlink='http://www.w3.org/1999/xlink'>
	<g transform="translate(212.65,107.893)">
		<path d="M -198.3 -15.35 L -201.575 -15.025 L -198.5 -15.2 Z M -198.65 -14.9 L -199.3 -14.45 L -194.45 -14.05 L -194.05 -14.15 L -194 -14.15 L -193.5 -14.2 L -194.05 -14.4 Z M -197.9 -15.3 L -198.1 -15.2 L -196.15 -15 L -196.15 -15.15 Z M -200.6 -13.55 L -198.55 -13.6 L -198.45 -13.65 L -200.05 -13.95 L -200.6 -13.55 L -200.65 -13.55 L -202.6 -12.2 L -200.25 -14 L -200.35 -14 L -200.95 -14.1 Q -202.95 -14.15 -202.25 -14.3 L -204.8 -14.3 L -205.5 -14.15 L -205.35 -14.3 L -211.05 -13.35 L -212.65 -11.9 L -211.25 -13.3 L -211.8 -13.15 L -211.2 -13.35 L -208.4 -15.6 L -209 -15.4 L -208.3 -15.65 Q -205.6 -17.4 -202.65 -18.1 L -200.75 -18.3 Q -202.3 -18.65 -201.3 -18.65 L -192.15 -17.9 L -192.55 -17.95 L -191.65 -17.9 L -182.95 -18.3 L -182.95 -18.5 Q -180.25 -18.6 -175.65 -20.5 Q -170.9 -22.45 -172.6 -22.25 L -174.1 -21.6 L -174.15 -21.8 Q -177.95 -20 -182.4 -19.45 L -186.35 -18.85 L -183.75 -19.3 L -183.85 -19.3 L -183.85 -19.5 L -182 -19.75 L -181.95 -19.8 L -190.7 -19.85 L -197.85 -20.5 Q -198.65 -20.6 -198.65 -20.8 L -203.55 -21.15 L -207.85 -19.85 L -206 -20.6 L -203 -21.4 L -188.5 -20.2 Q -183.7 -20.1 -179.6 -21.2 Q -177.95 -21.6 -175.45 -22.75 L -171 -24.75 L -170.3 -25 L -157.65 -32.1 L -153.65 -33.95 Q -154.15 -33.9 -153.9 -34.05 L -153.05 -34.45 Q -144.25 -36.95 -133.7 -37.3 L -126.7 -37.65 L -126.7 -37.8 L -124.65 -37.9 L -124.6 -37.75 L -123.25 -37.75 L -123.2 -37.65 L -119.15 -38.05 L -119.1 -37.9 L -116.4 -38.3 L -116.4 -38.15 L -115.75 -38.4 L -103.15 -39.95 L -103.65 -39.6 Q -103.95 -39.4 -103.1 -39.4 L -98.55 -39 Q -96.55 -42.35 -92.8 -45.2 Q -87.6 -49 -81.55 -50.9 L -69.45 -54.65 Q -62.25 -56.7 -56.75 -57.1 Q -48.25 -57.7 -36.75 -56 L -15.15 -52.65 L 16.6 -49.8 L 24.7 -49.5 L 29.55 -49.75 Q 37.85 -50.25 48.25 -53.6 Q 62.55 -58.2 65.35 -58.85 Q 64.45 -59.7 61.4 -60.2 Q 58.35 -60.7 57.4 -61.5 L 65.075 -61.5 Q 64.9102 -61.5598 64.85 -61.8 Q 64.7 -62.25 65.35 -62.4 L 67.95 -62.65 Q 69.85 -63.15 69.8 -65.05 Q 65.8 -66.05 63.6 -67.7 Q 65.55 -68.1 69.65 -66.55 Q 72.65 -65.4 74.2 -67.7 Q 73.95 -68.45 71.9 -68.5 Q 69.9 -68.55 69.8 -69.5 Q 70.8 -69.65 76.55 -69.4 Q 80.8 -69.2 82.2 -70.35 Q 80.2 -70.4 79.4 -72 Q 78.8 -73.15 78.65 -75.7 Q 79.45 -74.5 80.8 -73.3 Q 82.25 -72 83.85 -71.25 L 81.3 -74.15 L 82.15 -74 Q 82.45 -74.7 81.65 -75.3 L 79.2 -76.65 L 78.3 -77.8 L 83.95 -77.45 Q 84.25 -78.25 86.7 -78.25 Q 89.05 -78.2 89.25 -79.2 Q 88.65 -80.7 86 -80.75 L 83.05 -81 Q 84.35 -82.15 85.35 -82.3 L 85.2 -82.35 L 90.5 -82.8 L 89.25 -84.55 L 84.25 -84.8 Q 81.95 -85.4 81.3 -87.2 Q 83 -85.9 85 -85.6 Q 87.2 -85.25 89.25 -86.3 Q 91.6 -84.55 93.3 -82.35 L 93.8 -82.25 Q 94.4 -84.2 93.55 -85.75 L 92.4 -87.2 L 91.7 -87.65 L 91.95 -87.8 L 90.95 -88.9 Q 90.65 -89.45 91.05 -89.85 Q 93 -89.7 93.85 -87.75 L 92.6 -91.3 Q 95 -89.9 96.7 -89.65 L 99.5 -89.05 Q 97.05 -91.25 91.9 -92.5 L 94.4 -92.6 L 96.5 -91.85 L 95.4 -93.45 L 91.05 -94.25 Q 91.6 -95.2 92.7 -95.2 L 94.8 -94.8 L 94.5 -95.75 L 96.55 -94.5 Q 97.05 -94.6 97.25 -95.15 L 95.3 -96 Q 93.95 -96.65 95.45 -96.9 L 97.15 -96.5 Q 97.25 -97.15 100.1 -95.45 Q 100.15 -96.15 99.75 -96.75 L 98.5 -98.3 Q 99.7 -98.2 101.5 -96.95 Q 103.25 -95.75 103.7 -94.8 Q 103.05 -96.55 101.8 -98.3 L 99.15 -98.6 Q 97.7 -98.85 97.25 -99.55 L 99.15 -99.95 L 100.65 -99.8 L 99.45 -101 L 102.55 -101.15 L 100.65 -102 Q 99.5 -102.5 99 -103.1 Q 102.9 -103.5 104.8 -100.6 Q 108.25 -99.35 111.5 -97 L 112.15 -96.55 Q 112.65 -96.9 111.9 -97.85 Q 110.75 -99.2 110.55 -100 L 112.95 -97.6 Q 114.6 -95.85 114.55 -95.1 L 115.45 -94.7 L 120 -94.7 L 118.2 -97.4 Q 115.75 -105.75 118.35 -107.85 Q 118.95 -108.3 123.75 -104 Q 128.5 -99.75 129.1 -98.4 Q 129.4 -97.75 130.25 -97.5 L 131.15 -97.4 L 131.25 -100.3 Q 131.5 -101.75 132.95 -100.8 L 134.75 -98.9 L 136.25 -96.7 L 137.15 -96.55 Q 137.8 -96.75 139.45 -95.15 Q 140.75 -93.9 141 -95.3 Q 141.5 -94.6 143.95 -92.85 Q 145.9 -91.45 146.4 -89.7 Q 150.15 -86.45 152.4 -85 L 155.5 -82.65 L 164.25 -73.35 Q 169.45 -66.9 177.55 -60.8 Q 183.15 -57.65 184.85 -56.3 Q 187.7 -54 189.75 -49.95 L 190.55 -47.85 Q 190.9 -46.35 190.5 -45.8 Q 189.85 -44.95 190.3 -42.95 Q 190.8 -40.95 190.4 -40.3 L 189.2 -37.85 Q 188.5 -36.55 187.35 -36.2 Q 181.85 -34.2 180.3 -33.75 L 174 -33.35 Q 172.45 -34.35 171.8 -35.45 L 171 -36.3 L 170.35 -36.8 L 159.1 -41.15 Q 156.85 -41.75 153.7 -43 Q 151.1 -44.05 149.45 -44.3 L 137.4 -45.25 Q 131.65 -45.45 126 -48.05 L 125.7 -48.05 L 125.65 -47.35 Q 116.25 -29.55 111.75 -18.95 Q 110.5 -16 106.95 -11.7 L 98.85 -3.1 Q 95.75 -0.2 94.55 2.2 Q 94.35 2.6 93.9 6.75 Q 93.5 11.05 90.7 17.15 Q 93.85 17.75 99.35 19.8 Q 105.35 22 108.1 22.65 L 122.1 24.85 L 124 25.8 Q 125.2 26.6 126.15 28.1 L 126.75 28.85 L 126.75 29.15 L 127.2 30.1 Q 127.5 30.8 127.15 32.75 L 126.6 35.2 L 126.55 35.35 Q 126.15 38.85 126.1 40.35 Q 126 43.6 127.5 53.2 L 132.7 56.85 Q 138.45 60.35 144.05 64.4 L 145.15 65.05 Q 147.2 66.3 150.65 67.55 L 154 68.85 Q 156.1 69.7 158.3 71.7 L 164 76.25 L 170.75 79.35 Q 176.25 82.05 175.65 83.6 Q 174.35 87.2 169.2 88.85 Q 164.35 90.45 160.35 89.2 Q 158.1 88.6 157.35 84.75 Q 156.45 80.2 155.45 79.2 L 153.15 79.15 Q 152 80.2 151.3 80.5 Q 150.65 80.8 148.6 79.95 Q 146.5 79 145 77.6 Q 143.15 75.9 141.15 73.4 Q 133.85 66.3 127 63.8 L 121.6 69.25 Q 118.2 72.25 117.35 73.75 Q 115.35 78.3 114.95 78.4 L 112.4 82.15 L 109.5 85.45 Q 108.05 84.35 107 82.25 Q 105.75 79.75 105 76.5 Q 104.05 72.45 104.6 69.85 Q 106.3 68.3 110.2 67.55 Q 114.15 66.8 115.8 65.35 Q 116.65 64.3 116.5 63.3 L 115.65 61.6 Q 114.45 61.15 110.6 58.85 L 107.15 56.5 L 105 54.45 Q 101.15 52.15 91.95 48.4 Q 82.3 44.5 78.35 42.3 L 75.35 40.55 Q 70.6 41.6 64.6 41.75 L 58.45 41.45 Q 54 39.25 49.8 35.4 L 31.95 34.65 L 18.45 33.2 Q 5.55 31.55 -5.05 26.85 Q -14.9 22.5 -24.9 14.6 Q -27.65 13.05 -29.9 12.1 L -33.2 10.9 Q -34.65 17.25 -42.45 28.8 L -60 55.55 Q -58.5 56.35 -58.5 58.2 Q -57.8 63.9 -51.1 71.1 L -39.3 83.1 Q -37 85.25 -33.2 89.7 L -30.85 93.3 Q -27.5 95.95 -24.35 99.55 Q -19.9 104.6 -17.9 109.4 Q -21.85 112.65 -27.85 111.4 Q -32.9 110.3 -37.35 106.7 Q -38.05 105.5 -37.3 103.1 Q -36.65 101.05 -38.35 99.2 L -40.5 99.25 Q -42.15 99.9 -43.4 99.65 Q -44.55 99.4 -46.95 96.3 Q -49.85 92.55 -52.6 86.8 L -53.4 85.55 Q -56.45 80.75 -61.35 74.95 L -65.75 70 L -68.85 65.3 Q -70.55 62.35 -71.55 60.95 Q -73.25 58.55 -73.6 56.65 L -74.1 54.7 L -73.85 54.8 L -74.55 53.35 Q -75.25 51.25 -73.5 48 Q -77.4 50.2 -79.85 51.3 Q -83.5 52.9 -88.3 54.35 L -95.95 55.75 Q -103.55 57.15 -105 57.8 Q -109.85 60.05 -112.4 66.35 Q -114.35 71.1 -115.35 79.3 L -115.35 79.5 Q -114.85 86.5 -113.7 89.2 L -111.95 92.8 Q -111.6 93.85 -110.05 95.95 L -105.85 103.05 Q -102.55 109 -101.8 113.85 Q -106.35 116.1 -111.95 113.45 Q -116.6 111.25 -120.15 106.7 Q -120.55 105.35 -119.25 103.25 Q -118.1 101.35 -119.35 99.15 Q -119.95 98.5 -121.4 98.7 L -124.35 98.45 Q -125.5 97.95 -125.8 93.3 Q -126.05 89.1 -125.55 85.8 L -125.15 83.45 Q -124.65 79 -124.7 75.85 Q -124.75 73.05 -124.45 70.85 Q -124.5 58.75 -123.75 54 Q -122.55 46.3 -116 42.55 Q -109.9 39.3 -108.35 38.1 Q -106.7 36.85 -101.45 30.8 Q -99.7 27.1 -98.8 24.4 Q -97.15 19.4 -98.3 13.8 Q -98.9 10.5 -99.2 5.85 L -99.25 5.75 L -99.35 5.8 Q -102.1 -5.9 -102.75 -13.1 Q -103.25 -19.1 -102.45 -24.5 L -101.9 -28.25 L -104.35 -26.6 Q -108.3 -24 -113.45 -21.5 Q -118.4 -19.05 -123 -17.45 L -125.6 -16.7 Q -133.6 -12.8 -142.25 -9.55 Q -151.7 -6.1 -163.85 -5.15 L -169.8 -4.8 Q -174.7 -5.2 -180.2 -5.05 L -181.95 -5.35 L -190.55 -5.35 L -187.95 -5.45 Q -187.55 -5.45 -188.4 -5.55 Q -189.25 -5.65 -188.8 -5.7 L -182.8 -5.7 L -182.8 -5.8 L -192.25 -6.05 Q -192.95 -6.15 -192.25 -6.2 L -190.45 -6.25 L -190.3 -6.35 L -184.15 -8.4 L -188.8 -8.45 Q -189.65 -8.45 -189.65 -8.65 L -191.15 -8.65 L -197.15 -6.2 Q -194.4 -7.4 -191.7 -8.65 L -199.15 -8.8 L -191.15 -8.9 L -190.55 -9.1 L -191.85 -9.25 L -192.6 -9.2 L -192.45 -9.4 L -192.25 -9.4 L -193.7 -9.8 L -196.6 -10.3 L -197.275 -10.125 Q -197.039 -10.2236 -196.8 -10.35 L -202.35 -11.05 L -199.8 -10.9 Q -199.35 -10.9 -200.2 -11.1 Q -200.644 -11.2109 -200.725 -11.25 L -204.05 -11.7 Q -204.65 -11.8 -204.05 -11.9 L -199.85 -11.75 L -195.45 -11 L -195.3 -11.1 L -195.75 -11.2 L -195.25 -11.1 L -194.95 -11.25 Q -193.55 -12.15 -190.65 -12.25 L -191.95 -12.45 Q -191.95 -12.55 -192.4 -12.7 L -196.2 -13.3 L -196.3 -13.3 L -197.35 -13.5 Z M -185.65 -12.9 L -187.2 -13.2 L -188.75 -13.25 L -183.7 -12.4 L -183.5 -12.4 L -183.5 -12.5 L -185 -12.75 L -185 -12.9 Z M -191.9 -13.8 L -191.15 -13.65 L -188 -13.55 L -188 -13.7 Z M -188 -15.6 L -187.65 -15.5 L -183.85 -15.75 L -183.85 -15.9 L -185.6 -15.75 L -185.6 -16.05 L -183.5 -16.2 L -192.55 -16.4 L -187.85 -15.5 L -187.7 -15.5 Z M -202.8 -14.9 L -204.05 -14.55 L -199.6 -14.5 L -199 -14.9 L -201.8 -14.7 L -201.15 -14.85 Q -200.75 -14.95 -201.55 -14.9 Q -202.23 -14.9 -202.075 -14.975 Z M -207.7 -15.8 L -211 -13.4 Q -208.1 -14.35 -205 -14.5 Q -202.45 -16.05 -197.55 -15.75 L -197.4 -15.8 L -197.35 -15.8 L -195.9 -16.4 L -199.2 -16.65 L -200 -16.85 Q -204.5 -16.75 -207.7 -15.8 Z M 90.5 -80.55 Q 89.3 -81.35 87.4 -81.85 L 89.3 -80.4 Q 90.55 -79.3 91.45 -78.85 L 91.9 -79.75 Z M -196.85 -15.75 L -189.95 -15.45 L -195.2 -16.3 Z M 113.2 44.85 L 118.25 47.65 Q 118.95 40.9 117.4 36.1 Q 113.75 35.75 105.7 36.95 L 112.8 44.7 Z M -103.3 -29.3 L -103.3 -29.25 L -103.7 -29.05 L -104.5 -28.45 L -101.65 -29.65 L -101.5 -30.5 Z M -159.05 -29.25 Q -158.45 -29.7 -158.85 -29.65 L -160.1 -29 L -160.2 -29.2 L -161.45 -28.55 Z M -175.7 -8.05 Q -180.35 -7.85 -181.2 -8.05 L -181.6 -8.1 L -188.05 -6.3 L -181.25 -6.25 L -181.95 -6.4 L -170.75 -6.6 L -170.75 -6.75 L -172.45 -6.65 L -172.5 -6.95 L -164.25 -7.55 Q -159.3 -8.1 -160.55 -8.35 L -162.25 -8.15 L -162.3 -8.35 L -173.35 -7.85 L -173.4 -8.05 L -172.425 -8.075 Z M -184.4 -12.9 L -179.45 -12.65 L -174.7 -13.05 Q -174.05 -13.2 -174.55 -13.35 L -176 -13.2 L -176.05 -13.4 Z M -186.8 -6.85 Q -187.55 -6.75 -187.2 -6.9 L -182.6 -8.2 L -183 -8.25 L -189.9 -6.25 L -188.1 -6.3 L -186.4 -6.85 Q -186.05 -7 -186.8 -6.85 Z M -183.85 -10.05 L -183.8 -10.3 L -180.4 -10.25 L -182.9 -10.5 L -183.75 -10.7 L -186.25 -10.05 L -182.7 -10 Z M -183.45 -9.9 L -183.45 -9.95 L -184.05 -9.9 Z M -196.1 -10.65 L -198.6 -10.975 L -196.3 -10.6 Z M -193.55 -10.8 L -193.8 -10.85 L -187.45 -10.1 L -184.65 -10.9 L -188.5 -11.8 L -189.55 -11.85 L -190.3 -12 L -192.65 -11.8 L -195 -11.05 L -195.2 -10.95 L -192.8 -10.55 Q -193.55 -10.7 -193.55 -10.8 Z M -194.55 -10.25 L -194.5 -10.4 L -195.85 -10.65 L -196.1 -10.55 Z M -194.1 -13.45 L -194.05 -13.55 L -194.6 -13.65 L -195 -13.55 Z" fill="#FAF643"/>
	</g>
</svg>
