<?xml version="1.0"?>
<!DOCTYPE svg PUBLIC "-//W3C//DTD SVG 1.1//EN" "http://www.w3.org/Graphics/SVG/1.1/DTD/svg11.dtd">
<svg version='1.1' width='429px' height='243px' xmlns='http://www.w3.org/2000/svg' xmlns:xlink='http://www.w3.org/1999/xlink'>
	<g transform="translate(224.4,103.939)">
		<path d="M -141.1 36.75 Q -136.35 33.85 -133.65 31.8 Q -129.75 28.85 -127.2 25.75 Q -136.3 27.25 -139.6 29.4 Q -143.7 32.1 -146.4 39.6 Z M -116.1 -42.4 L -114.4 -43.25 L -116.55 -42.45 Z M -117.95 -41.45 L -118.6 -41.35 L -118.9 -41.15 L -118.55 -41.15 Z M -110.55 -45.8 L -110.45 -45.9 L -116.15 -44.85 Q -117 -44.75 -118.1 -44.15 Z M -195.9 -20.75 L -195.95 -20.85 L -201.3 -17.9 L -201.45 -17.8 L -200.1 -18.15 L -199.8 -18.35 Q -199.5 -18.6 -200.2 -18.3 Q -200.9 -18 -200.6 -18.2 Q -199.4 -19.05 -195.9 -20.75 Z M -192.9 -22.75 L -194.5 -22.6 L -195 -22.4 L -196.45 -22.15 L -199.95 -20.7 L -195.15 -21.8 Z M -187.45 -22.2 L -187.45 -22.4 L -186.2 -22.6 L -191 -22.15 L -193.6 -21.15 L -195.05 -20.75 L -199.95 -18.2 L -195.05 -19.35 L -195.4 -19.4 L -184.75 -21.4 L -184.8 -21.5 L -186.45 -21.25 L -186.45 -21.5 L -178.55 -22.85 Q -174 -23.65 -175 -23.75 L -176.65 -23.5 L -176.7 -23.7 Z M -193.65 -24.9 L -190.75 -25.95 L -196.05 -25.35 L -200.95 -23.4 L -196 -24.15 L -196 -24.3 L -197.75 -24.05 L -197.75 -24.3 Z M -191.7 -25.15 L -188.7 -25.55 L -188.6 -25.6 L -188.65 -25.7 L -189.05 -25.6 L -189.1 -25.75 Z M -188.75 -30.55 L -189.2 -30.5 L -192.25 -29.6 Q -187.9 -30.4 -188.75 -30.55 Z M -201.2 -29.1 L -201.3 -29.1 L -206.4 -25.95 L -200.05 -27.6 L -196 -29.7 L -199.7 -29 L -199.7 -29.2 L -197.7 -29.6 Z M -200.7 -26.15 L -201.6 -25.6 L -192.35 -26.95 L -189.7 -27.65 Z M -186.6 -39.7 L -186.65 -39.7 L -187.45 -39.2 Q -184.75 -39.8 -185.75 -39.9 Z M -179.9 -37.9 L -180.2 -37.9 L -184.65 -37.3 L -185.1 -37 L -184.8 -37.25 L -186.05 -37.05 L -186.9 -36.6 L -185.3 -36.9 L -185.2 -36.95 L -185.1 -36.95 Z M -167.65 -45.4 L -167.65 -45.6 Q -171.15 -45.15 -175.5 -43.9 L -175.55 -44.1 L -173.75 -44.65 L -176.8 -43.95 L -180.9 -42.45 L -179 -42.7 Q -179.55 -42.75 -179.2 -42.9 L -178.25 -43.1 L -173.5 -43.65 L -168.35 -44.9 Q -165.8 -45.5 -166.45 -45.6 Z M -206.25 -22.45 L -202.45 -23.15 L -197.75 -25.15 L -198.75 -25.05 L -198.8 -25.25 L -197.25 -25.45 L -202.6 -25 L -206.25 -22.45 L -204.75 -23.65 Q -204.45 -23.85 -205.1 -23.5 Q -205.75 -23.15 -205.5 -23.4 L -203.4 -24.9 L -203.65 -24.85 L -207.85 -22 L -206.55 -22.25 L -207.05 -22.3 Z M -208 -22.1 L -204.6 -24.7 L -209.75 -23.65 L -213.35 -20.7 L -208.2 -21.9 Z M -203.75 -25.25 L -203.4 -25.5 L -204.7 -25.1 L -206.15 -24.95 L -207.75 -24.5 Z M -206.95 -25.05 L -207 -25.2 L -208.3 -24.75 L -208.6 -24.55 Z M -208.35 -26.85 L -208.4 -26.95 L -209.725 -26.15 Q -209.051 -26.5121 -208.35 -26.85 Z M -213.5 -23.9 L -215.75 -22.55 L -214.3 -22.95 L -214.25 -23 L -213.9 -23.05 Q -211.45 -24.15 -207.9 -25.3 L -207.6 -25.55 L -202.9 -28.65 L -205.8 -27.4 L -207.45 -26.95 L -214.2 -23.05 L -212.65 -24.1 Q -212.3 -24.35 -213.05 -24 Q -213.85 -23.6 -213.5 -23.9 Z M -212.65 -25.8 L -213.45 -25.7 L -218.8 -23.4 L -222.35 -20.4 L -216.45 -22.35 Q -213.65 -24.65 -209.15 -27.05 L -209.9 -26.8 L -210.2 -26.65 L -209.95 -26.8 Z M -214.95 -26 Q -215.65 -25.5 -215.8 -25.65 L -218.4 -23.75 Q -213.55 -26.15 -207.7 -27.9 Q -203.45 -30 -197.4 -31.8 L -197.4 -31.95 L -199.1 -31.45 L -199.15 -31.7 L -189.15 -34.85 L -189.2 -34.85 Q -195.5 -33.75 -200.25 -32.25 L -200.3 -32.4 L -199 -32.85 L -202.05 -32.1 Q -204.2 -31.6 -207.8 -29.95 Q -211.8 -28.1 -214.95 -26 Z M 76.25 -74.75 Q 76.8 -74.75 77.8 -75.1 Q 80.1 -75.9 82.45 -76.1 L 87.4 -76.05 L 90.05 -76.35 Q 89.9 -77.4 87.95 -77.75 Q 85.8 -78.2 85.45 -78.95 Q 87.35 -78.6 89.85 -79.7 Q 91.1 -80.25 92.15 -80.85 Q 92.2 -81.55 90.1 -81.35 L 85.45 -80.85 L 82.75 -81.5 Q 81.45 -82.1 81.65 -83.7 Q 84.4 -81.9 88.25 -83.5 Q 90.4 -84.4 94.05 -86.4 Q 90.8 -87.95 90.25 -89.45 L 92.45 -88.75 L 100.05 -87.8 Q 104.6 -87.4 105.3 -88.55 Q 104.2 -88.7 102.3 -92.45 Q 105.3 -91.15 105.55 -92.3 L 104.45 -93.2 L 106.5 -93.25 Q 106.55 -93.65 106 -94.45 Q 105.7 -94.95 106.5 -95.2 Q 107.8 -95.1 109.7 -93.8 Q 111.311 -92.6678 111.85 -91.775 L 110.25 -94.8 Q 108.95 -96.8 107.45 -98.05 Q 109.7 -98.85 113.45 -97.5 Q 116.85 -96.3 120.2 -93.9 Q 122.9 -91.95 124 -91.65 L 125.75 -91.3 Q 119.45 -102.05 122.75 -103.9 Q 123.65 -104.4 130.2 -98.55 L 130.8 -99.8 Q 132.4 -99.55 133.85 -98.35 L 136.25 -95.95 Q 136 -96.4 136.15 -97.1 Q 137 -97 137.7 -96.15 L 138.75 -94.8 L 140.95 -94.5 L 141.05 -97.5 Q 141.35 -99.05 142.85 -98.05 L 144.75 -96.1 L 146.3 -93.8 L 147.25 -93.65 Q 147.95 -93.85 149.7 -92.15 Q 151.05 -90.9 151.3 -92.35 Q 151.85 -91.6 154.5 -89.75 Q 156.55 -88.35 157.05 -86.45 Q 160.95 -83.1 163.45 -81.55 L 169.2 -76.75 L 176 -69.35 Q 181.75 -62.4 190.15 -56.2 Q 196 -53.05 197.85 -51.55 Q 200.9 -49.1 203.1 -44.85 L 203.95 -42.65 Q 204.3 -41.1 203.85 -40.5 Q 203.2 -39.6 203.7 -37.5 Q 204.25 -35.4 203.8 -34.7 L 202.6 -32.15 Q 201.85 -30.7 200.6 -30.35 Q 194.8 -28.2 193.2 -27.75 L 186.55 -27.25 Q 184.95 -28.35 184.25 -29.45 L 183.4 -30.35 L 182.7 -30.85 L 170.8 -35.35 Q 168.35 -35.95 165.1 -37.3 L 160.65 -38.65 L 147.9 -39.55 Q 141.95 -39.7 135.85 -42.4 L 132.55 -42.15 Q 131.45 -41.85 130.4 -40.7 L 123.5 -35.2 Q 119.75 -30.95 116.2 -27.6 Q 110.7 -22.1 108.4 -20.6 Q 104.95 -18.2 103.25 -15.75 Q 101.05 -12.55 100.75 -8.2 L 100.6 -2.9 Q 100.5 0.25 100.75 2.35 Q 101.45 8.3 100.1 13.75 Q 98.7 19.25 95.8 21.8 Q 92.25 31.9 90.65 34.6 Q 89.1 37.2 85.55 39.45 Q 85.15 41.45 82.95 48.1 Q 81.1 53.65 80.8 57.45 L 79.85 63.95 Q 79.2 68.65 79.3 72.6 Q 79.2 73.55 79.45 78.45 Q 79.6 82.1 78.75 85.2 L 78.15 88.35 L 77.55 95.35 Q 77.15 98.1 77.15 102 Q 77.4 106.05 77.8 107.55 L 80 119.05 Q 80.75 121.95 83.15 125.25 L 84.05 126 L 85.9 128.1 Q 89.15 132.4 89.55 133.7 Q 90.3 135.75 88.45 136.9 Q 86.9 137.95 84 138.05 Q 80.4 138.25 78.9 138.05 Q 76.55 137.75 74.7 136.4 Q 72.25 134.65 72.15 132.25 Q 72.05 129.9 74.15 126.45 Q 74.05 121.1 69.25 120.3 Q 68.25 117.95 68.2 114.7 L 68.05 93.2 L 67.6 90.1 Q 67.5 89.35 64.6 83.9 Q 61.75 78.65 61.8 76.8 Q 61.95 70.4 63 63.15 Q 63.7 58.3 63.05 52.95 L 62.8 51.45 Q 60.65 50.95 59.8 47.8 Q 59.35 45.85 56.6 43.6 L 44.2 58.5 L 40.35 62.55 Q 38.3 64.7 36.4 67.9 Q 35.7 72 33.35 76.15 Q 30.9 80.55 28.3 81.8 L 17.7 90.7 Q 11.2 95.95 7.15 99.9 L 3.15 103.55 Q -0.1 107.85 -2.05 109.75 Q -5.4 113 -8.85 113.9 Q -9.85 114.15 -12.7 113.85 L -16.85 114 Q -18.8 114.65 -23.75 117.95 Q -27.95 120.8 -31.15 121.05 Q -32.15 117.1 -32.15 114.5 Q -32.2 111.3 -31 107.65 Q -30.2 105.1 -25.25 103.4 Q -23.8 102.95 -21.45 105 Q -19 107.15 -16.85 106.85 Q -14.95 107.15 -15.25 105.5 Q -15.6 103.5 -14.9 103.2 L -4.55 97.4 Q -1.5 95.65 3.2 92.2 Q 10.75 86.55 12.6 82.9 L 16.45 74.85 L 23.65 63.4 L 26 56.6 Q 27.2 52.75 28.9 49.65 L 33.05 40.65 Q 33.7 38.95 33.75 37.25 Q 28.25 34.5 22 33.05 L 21.7 33.05 L 21.75 32.95 Q 16 31.65 10 31.55 L 0.4 30.05 L -14 26.7 Q -21.25 24.9 -27.35 22.8 L -54.8 12.85 Q -61.4 11.55 -67.5 13.8 Q -72.95 15.85 -79.4 20.3 L -87.1 25.75 L -94.2 29.85 Q -101.6 34.05 -108.1 37.45 Q -109.6 38.25 -114.9 41.2 L -122.95 45.35 Q -125.25 46.45 -130.15 49.45 L -137.25 53.95 Q -140.4 56.05 -143.7 59.45 L -157.05 72.4 L -162.6 81.95 L -166.25 85.1 Q -167.6 86.05 -169.25 86.8 Q -170.35 88.2 -171.45 88.75 L -173.9 90.05 Q -174.8 90.55 -176.25 90.5 L -179.35 90.3 L -184.1 96.4 Q -187 99.8 -190.8 100.8 L -191.75 100.95 L -192.7 100.8 Q -196.8 98.85 -195.75 91.25 Q -194.7 83.55 -189.85 83.6 Q -189 83.6 -187.25 84.3 L -184.1 84.55 Q -182.6 84 -182.75 82.3 Q -182.95 79.95 -182.2 78.8 Q -182.1 78.65 -180.1 78 Q -177.7 77.2 -175.25 75.45 Q -174.85 71.35 -173.35 68.6 Q -171.45 67.15 -169.6 67.3 L -166.9 67.65 L -165.15 65.55 L -166.25 65 Q -167.1 64.7 -167.35 64.45 Q -168.7 63.25 -168.35 62.25 L -165.95 58.15 Q -160.25 47.75 -156.3 25.75 L -154.65 16.7 Q -154.2 13.9 -153.6 12.75 Q -151.75 9.6 -149.9 8.7 Q -149.1 8.3 -145.7 7.75 L -140.8 7.2 Q -138.6 6.95 -134.65 5.65 Q -127.9 3.4 -125.3 1.6 L -124.85 -4 L -121.95 -20.6 L -118.25 -31.5 Q -122.35 -29.35 -127.9 -27.9 Q -133 -26.6 -137.85 -26.2 L -141.45 -26.15 Q -154.2 -23.65 -178.45 -20.55 L -193.5 -18.5 L -195.2 -18.45 L -203.2 -16.45 L -200.8 -17.15 L -201.7 -17.1 Q -201.9 -17.1 -201.7 -17.2 L -201.5 -17.25 L -201.2 -17.45 L -202.5 -17.1 L -202.8 -17.05 L -203.55 -16.65 L -203.4 -16.9 L -205.1 -16.55 Q -205.55 -16.5 -205 -16.7 L -202.55 -17.5 L -196.45 -21.1 L -196.85 -21 L -198.25 -20.3 L -196.95 -21 L -201.7 -19.85 L -203.1 -19.15 L -201.95 -19.8 L -202.35 -19.7 L -203.2 -19.6 L -204.05 -19.25 L -208 -16.35 L -204.9 -18.9 L -204.75 -19.1 L -204.5 -19.25 L -212.2 -16.7 Q -208.45 -18.25 -203.9 -19.65 L -203.7 -19.75 L -199.35 -22.3 L -205.1 -21.4 L -205.25 -21.45 L -211.15 -17.9 L -205.75 -21.45 L -206.85 -21.3 L -215.15 -19.3 L -212.7 -20.05 Q -212.35 -20.15 -213.15 -20.05 Q -214 -19.95 -213.6 -20.1 L -207.75 -21.45 L -207.8 -21.6 L -214 -20.1 L -214.25 -19.85 L -214.05 -20.1 L -214.45 -19.95 Q -218.45 -19 -217.05 -19.6 L -213.45 -20.65 L -210.2 -23.55 L -210.8 -23.4 L -212.95 -22.55 L -211.25 -23.3 L -214.25 -22.55 L -215.15 -22.5 L -222.5 -20.25 L -223.45 -19.35 L -222.6 -20.25 L -224.4 -19.6 L -222.5 -20.35 L -219.55 -23.1 L -221 -22.4 L -219.25 -23.3 Q -212.65 -28.8 -203.1 -32.35 Q -196.25 -34.85 -187.15 -36.55 L -186.95 -36.8 L -186.8 -36.9 L -193.45 -35.5 Q -198.2 -34.75 -202.3 -33.05 L -203.8 -32.7 Q -206.6 -31.65 -210.7 -29.4 L -208.7 -30.55 Q -208.35 -30.75 -209.1 -30.45 Q -209.8 -30.2 -209.5 -30.4 Q -207.05 -31.75 -204.65 -32.7 L -204.7 -32.85 L -210.25 -30.15 Q -213.5 -28.55 -212.45 -29.35 Q -208.75 -31.6 -203.75 -33.65 L -204.15 -33.6 Q -199.55 -35.55 -194.65 -36.95 L -194.7 -37.05 L -196.2 -36.6 L -196.25 -36.85 L -188.1 -39.05 L -187.2 -39.6 L -187.25 -39.6 L -187.3 -39.8 Q -192.5 -38.9 -197.25 -37.45 L -197.3 -37.65 L -195.05 -38.35 L -198.9 -37.4 Q -200.7 -37.05 -204.1 -35.7 Q -207.55 -34.35 -210.7 -32.7 Q -211.45 -32.25 -211.45 -32.5 L -219.05 -28.05 Q -205.45 -37.8 -183.7 -41.85 L -182.85 -42 Q -174.65 -46 -164.8 -47.45 L -162.95 -47.85 L -161.1 -48 Q -162.1 -48.15 -160.45 -48.3 Q -152.1 -49.05 -143.8 -48.1 L -137.8 -47.65 L -137.8 -47.75 L -136 -47.6 L -136 -47.45 L -134.8 -47.35 L -134.8 -47.2 L -131.2 -47.15 L -131.2 -47 Q -129.45 -46.85 -128.85 -47 L -128.85 -46.85 L -128.25 -47 L -117.6 -47.3 L -118 -46.95 Q -118.25 -46.75 -117.55 -46.75 L -109.75 -46.8 L -107.15 -49.35 L -105.7 -50.25 L -101.7 -51.9 L -91.4 -54.25 Q -82.9 -56.35 -75.25 -56.75 L -62.3 -56.05 L -55.05 -55.05 Q -45.15 -51.85 -37.95 -50.6 Q -29.55 -49.15 -19.7 -49.3 L 0.4 -49.3 L 18.25 -50.95 Q 27.65 -52.3 36.7 -56 L 42.05 -57 Q 44.65 -57.5 39.6 -57.9 L 37.65 -57.9 L 34.35 -56.9 Q 31.7 -56.3 31 -57.9 Q 32.85 -57.95 35.35 -59 Q 38.15 -60.15 39.45 -60.35 L 43.3 -60.85 L 46.3 -61.7 Q 45.5 -63.8 43.4 -64.6 L 48.2 -64 Q 48.95 -63.9 47.1 -66.25 Q 47.9 -66.45 48.75 -65.9 Q 49.65 -65.3 50.2 -65.3 L 55 -65.8 L 59.65 -65.55 L 54.9 -66.9 Q 51.8 -67.65 49.15 -70.3 Q 51.9 -69.25 58.7 -69.3 L 67.9 -68.6 Q 67.95 -69.6 65 -70.7 Q 61.75 -71.9 61.55 -72.25 L 70.2 -73.65 L 82.6 -72.25 Q 83.35 -72.25 83.4 -73.1 Q 83.45 -73.95 82.6 -74.15 L 78.2 -74.05 Q 75.35 -73.85 74.95 -75.1 Q 75.7 -74.75 76.25 -74.75 Z" fill="#FAF643"/>
	</g>
</svg>
