<?xml version="1.0" encoding="utf-8"?>
<!-- Generator: Adobe Illustrator 17.0.0, SVG Export Plug-In . SVG Version: 6.00 Build 0)  -->
<!DOCTYPE svg PUBLIC "-//W3C//DTD SVG 1.1//EN" "http://www.w3.org/Graphics/SVG/1.1/DTD/svg11.dtd">
<svg version="1.1" id="图层_1" xmlns="http://www.w3.org/2000/svg" xmlns:xlink="http://www.w3.org/1999/xlink" x="0px" y="0px"
	 width="408px" height="245px" viewBox="0 0 408 245" enable-background="new 0 0 408 245" xml:space="preserve">
<g transform="translate(219.3,125.089)">
	<path fill="#FFFC00" d="M-61.45,41.6c0.067-4.267-0.117-7.367-0.55-9.3c-0.567-2.633-1.717-4.533-3.45-5.7
		c-0.9,0.633-1.683,1.25-2.35,1.85c-1.067,1.133-2.85,2.667-5.35,4.6l-5.15,4.3c0.167,1.933,2.1,4.6,5.8,8
		c2.6,2.367,5.75,4.833,9.45,7.4l1.15-4.2C-61.633,47.017-61.483,44.7-61.45,41.6z M-106-34.7l1.25-0.9l0.4-1.45l-0.5,1.1L-106-34.7
		z M-106.05-44.2l-0.75,0.35c-0.267,0-0.6,0.2-1,0.6l0.75-0.15l1.2-0.8C-105.85-44.2-106.05-44.2-106.05-44.2z M-156.5-38.7
		c0.1-0.033,0.083-0.1-0.05-0.2l-1.25-0.05v-0.2l-3.1-0.35L-156.5-38.7z M-98.35-49.75l0.5-0.55l-8.6,1.05L-98.35-49.75z
		 M-199.7-23.7l0.25-0.05l3.95-0.75c1.633-0.833,3.25-1.533,4.85-2.1h-0.05l-0.05-0.2l1.05-0.15l0.15-0.05l-6.05,0.55l-3.85,2.7
		l1.85-1.45l-0.4,0.15c-0.467,0.233-0.6,0.267-0.4,0.1l1.95-1.4l-0.3,0.05l-2.35,1.65c-0.8,0.567-1.383,0.95-1.75,1.15L-199.7-23.7
		l-1.2,0.25l-0.4,0.2l2.2-0.4L-199.7-23.7z M-188.1-22.25l-0.05-0.1c-2.067,0.967-4.017,2.017-5.85,3.15l-0.55,0.35l1.45-0.4
		l0.75-0.45c0.233-0.133,0.083-0.1-0.45,0.1c-0.5,0.233-0.65,0.267-0.45,0.1C-191.517-20.4-189.8-21.317-188.1-22.25z M-189.5-23.7
		l-0.05-0.15l-5.65,2.5l0.7-0.15L-189.5-23.7z M-186.85-24l-0.2,0.05l-1.55,0.25c-1.033,0.333-2.467,0.917-4.3,1.75l4.85-1.1
		l2.6-1.05l-1.1,0.1H-186.85z M-185.6-22.65l-1.6,0.4c-1.6,0.633-3.5,1.617-5.7,2.95l6.05-1.35h-0.6
		c4.567-0.967,8.433-1.483,11.6-1.55v-0.15l-1.8,0.05v-0.25c1.433-0.233,3.817-0.25,7.15-0.05l-4-0.9l-4.15,0.15v-0.25l1.4-0.1
		l-6.45,0.3L-185.6-22.65z M-187.75-25.8v-0.05l-1.85,0.25l-0.05-0.25l3.5-0.55l2.7-0.95l-5.25,0.5l-5.25,2.1l5.9-0.9L-187.75-25.8z
		 M-183.3-31.9l-2.45,0.8l5-0.65L-183.3-31.9z M-193.6-27.7l-1.05,0.65l9.4-1.4h0.2l2.35-0.7L-193.6-27.7z M-198.75-26.6l-2.35,0.7
		l4.25-0.8l0.4-0.3l-0.7,0.25L-198.75-26.6z M-199.05-27.6l-0.6,0.2l-0.3,0.2l1.3-0.35L-199.05-27.6l6.05-1.6l4.35-2.15l-2.95,0.5
		v-0.1l-4.15,1.1l-3.85,2.4L-199.05-27.6z M-201.6-26.2l-0.3,0.2l2.3-0.7l-0.05-0.15L-201.6-26.2z M-180.6-27.2l-1-0.1l-3.05,0.8
		l1.6-0.05L-180.6-27.2z M-179.3-28.5l-0.75-0.2l-0.75,0.15L-179.3-28.5z M-180.1-32.15l-1.1-0.05v-0.2l-0.8,0.1l-0.8,0.25
		l3.15,0.15l0.45-0.05h-0.15L-180.1-32.15z M-180.25-35.75l-0.35-0.05l-1.25,0.2l1.55,0.05
		C-180.033-35.55-180.017-35.617-180.25-35.75z M-181.8-37.55l2.45,0.3l5-0.35l-5.65-0.25l-2.65,0.4L-181.8-37.55z M-180.95-40.75
		l-1.05,0.8l5.15-0.85l-1.75,0.05V-41L-180.95-40.75z M-171.2-41.8l2.35,0.7c-0.367-0.167-0.417-0.25-0.15-0.25l2.8,0.65l-0.85-0.3
		l-7.05-1.7l-3.9,0.4l-0.4,0.15l4.4-0.05L-171.2-41.8z M-203.15-25l-3.75,3.1l5.45-1.3l0.15-0.15l-2.05,0.45l2.05-0.5l0.05-0.05
		l3.45-2.65L-203.15-25z M-208.3-24.2l0.9-0.25l6.25-2.35l0.3-0.2l-1.25,0.4l1.25-0.45l3.2-2.15l-4.45,1.55
		C-204.067-26.783-206.133-25.633-208.3-24.2z M-203.1-27.55l-0.05-0.1c-2.367,1.2-4.483,2.433-6.35,3.7l-0.25,0.15l1.3-0.35
		l0.7-0.45c0.267-0.167,0.117-0.117-0.45,0.15c-0.533,0.267-0.683,0.3-0.45,0.1L-203.1-27.55z M-202.95-28.35l0.35-0.2l-3.2,1.1
		l-0.85,0.1l-7.05,3.05l-3.8,3.15l6.6-2.3c2.533-1.933,5.45-3.65,8.75-5.15l-0.4,0.05L-202.95-28.35z M-204.7-25.1l0.85-0.2
		l1.35-0.5l0.25-0.2L-204.7-25.1z M-210.15-26.65c-0.5,0.367-0.8,0.5-0.9,0.4l-2.4,1.75c4.433-2.267,9.25-4.133,14.45-5.6
		c1.967-0.8,4.4-1.617,7.3-2.45l0.1-0.1l0.35-0.15v-0.05l-1.8,0.5l-0.1-0.25l3.9-1.15l4.25-1.9l-9.3,2.45l-0.05-0.2l2.7-0.8
		l-4.6,1.15c-1.5,0.333-3.55,1.083-6.15,2.25C-205.233-29.533-207.817-28.15-210.15-26.65z M73.65,67.6c4.8-2.033,7.1-4.7,6.9-8
		c-4.767-4.533-10.433-8.2-17-11c-3.5,3.933-6.083,7.183-7.75,9.75c-2.533,3.9-4.283,7.983-5.25,12.25c1.9-0.133,3.633-0.5,5.2-1.1
		c0.933-0.4,2.767-0.4,5.5,0C65.183,70.067,69.317,69.433,73.65,67.6z M42.4,43.4c1.567-5.967,1.95-11.567,1.15-16.8
		c-3.267-1.3-7.5-2.317-12.7-3.05l-20.6-1.1C4.417,21.917-2.767,19.933-11.3,16.5c-11-4.433-18.05-7.067-21.15-7.9
		c-1.1,2.733-2.133,6.417-3.1,11.05l-1.9,9.95l-1.75,6.7c-1.533,8.933-2.017,14.667-1.45,17.2c0.8,3.767,4.117,7.783,9.95,12.05
		c5.567,4.1,10.983,7.767,16.25,11c2.9,1.8,5.233,3.65,7,5.55l9.1,10.7c1.167,2.4,1.917,4.467,2.25,6.2l0.65,5.6
		c4.967-1.1,5.817-3.567,2.55-7.4c0.267-0.867,0.583-1.433,0.95-1.7c0.167-0.133,0.9-0.483,2.2-1.05
		c4.067-2.633,7.35-5.217,9.85-7.75l7.65-8.7c0.5-2.633,1.283-4.65,2.35-6.05c1.067-1.433,3.033-3.083,5.9-4.95L42.4,43.4z
		 M76.3-84.5c0.4-0.1,0.7-0.25,0.9-0.45c-0.6,0-1.267,0.233-2,0.7L76.3-84.5z M107.8-124.2c-0.1-0.867,0.467-1.1,1.7-0.7l2.25,1.1
		l6.9,5.05c1.667,1.2,2.85,2.233,3.55,3.1l0.65-0.15l-0.2-2.85c0.1-0.967,0.65-1.183,1.65-0.65c0.667,0.333,1.333,0.883,2,1.65
		l1.7,2.05l0.9,0.05c0.433-0.2,1.25,0.183,2.45,1.15c0.933,0.733,1.433,0.633,1.5-0.3c0.4,0.433,1.467,1.15,3.2,2.15
		c1.4,0.767,2.317,1.717,2.75,2.85c2.733,1.9,4.9,3.25,6.5,4.05l5.9,4l7.1,6.35c4.067,4.067,8.917,7.767,14.55,11.1
		c3.9,1.667,6.467,2.917,7.7,3.75c2.033,1.333,3.883,3.267,5.55,5.8l0.95,2c0.367,0.933,0.433,1.6,0.2,2
		c-0.367,0.633-0.333,1.583,0.1,2.85c0.467,1.3,0.583,2.183,0.35,2.65l-0.9,2.55c-0.4,0.933-0.967,1.567-1.7,1.9l-6.7,3.15
		c-1.333,0.533-3.433,0.883-6.3,1.05c-1.067-0.6-1.867-1.233-2.4-1.9l-0.85-0.75l-0.7-0.45l-11.65-3.15l-9.9-2.1
		c-3.333-0.167-7.367-0.083-12.1,0.25c-3.8,0.3-7.683-0.217-11.65-1.55l-0.3,0.05v0.7c-1.5,3.733-2.733,8.683-3.7,14.85
		c-0.967,6.233-2.067,10.95-3.3,14.15c-1.133,2.967-3.6,6.7-7.4,11.2c-3.967,4.633-6.5,8.233-7.6,10.8c-0.8,1.867-1.267,4.5-1.4,7.9
		c-0.167,4.2-0.367,6.9-0.6,8.1c-1.067,5.333-3.117,10.1-6.15,14.3c-3.2,4.4-7.15,7.633-11.85,9.7c0.067,4.4,1.9,9.917,5.5,16.55
		c4.7,8.567,7.283,13.533,7.75,14.9c0.833,2.5,0.683,5.467-0.45,8.9c-1.067,3.233-2.283,5.033-3.65,5.4
		c-0.7,0.2-4.95,1.967-12.75,5.3c-6.8,2.867-11.933,4.517-15.4,4.95c-2.7,0.333-5.417,0.083-8.15-0.75
		c-2.333-0.733-5.3-0.683-8.9,0.15c-7.6,1.833-15.917,9.367-24.95,22.6c-0.767,1.2-1.167,2.133-1.2,2.8l1.15,6.8
		c0.333,2.1,0.017,4.233-0.95,6.4c-4.667-0.4-8.233-1.133-10.7-2.2c-2.233-0.967-4.333-2.567-6.3-4.8
		c-0.8-0.833-0.783-1.95,0.05-3.35l1.95-3.65c-4.133-0.533-7.55-1.283-10.25-2.25c-3.267-1.167-5.85-2.75-7.75-4.75
		c-0.567-1.7-0.433-3.25,0.4-4.65c0.767-1.367,0.967-2.483,0.6-3.35c-0.4-0.9-0.883-1.083-1.45-0.55l-1.55,1.55
		c-1.067,0.567-1.85,0.633-2.35,0.2l-3.1-3.55c-5.333-5.833-14.517-12.383-27.55-19.65l0.95,7.15c0.4,2.967,0.383,5.067-0.05,6.3
		c-0.6,2.8-1.45,5.083-2.55,6.85c-1.433,2.167-3.55,4.067-6.35,5.7c-2.867-1.833-4.95-5.067-6.25-9.7
		c-1.4-5.067-0.65-8.833,2.25-11.3c1.167-0.933,1.65-1.817,1.45-2.65c-0.333-1.167-2.4-1.5-6.2-1c-0.433,0.067-1.217-0.667-2.35-2.2
		l-1.95-2.7c-3.1-3.333-8.15-7.5-15.15-12.5c-6.533-4.7-11.467-9.017-14.8-12.95c-0.867-1.033-1.233-2.083-1.1-3.15
		c0.133-1,0.783-2.517,1.95-4.55l5.9-5.5c4.867-4.467,8.617-8.733,11.25-12.8l-8.25-7.25c-2.5-2.133-5.367-5.533-8.6-10.2l-2.6-4.1
		c-0.9-1.6-1.417-2.75-1.55-3.45c-0.2-1.033-0.783-2.883-1.75-5.55c-0.6-1.767-1-3.55-1.2-5.35l-0.05-3.1c0-2.233,0.3-4.7,0.9-7.4
		c-2.533,2.5-5.6,4.817-9.2,6.95c-3.6,2.1-7.1,3.65-10.5,4.65l-1.85,0.5c-6.833,3.6-13.333,5.117-19.5,4.55
		c-2.933-0.267-6.783-0.9-11.55-1.9l-11-2.05l-5.75-0.35c-2.9-0.4-6.4-0.167-10.5,0.7l-1.85,0.1l-8.7,2.1l2.6-0.75
		c0.3-0.1,0.15-0.1-0.45,0c-0.6,0.067-0.767,0.05-0.5-0.05l6.1-1.45v-0.15l-5.9,1.4l-0.35,0.25l0.3-0.25l-1.8,0.5
		c-0.6,0.333-0.767,0.367-0.5,0.1c-1.567,0.333-2.05,0.367-1.45,0.1l2.2-0.7c1.733-1.233,3.917-2.5,6.55-3.8l-0.45,0.1l-1.05,0.5
		l1-0.5l-5.05,1.2l-1.15,0.6l0.8-0.45c-0.5,0.1-0.8,0.1-0.9,0l-0.3,0.05l-0.85,0.4l-6.15,4.65l5.45-4.4
		c-0.267,0.1-0.233,0.05,0.1-0.15l-7.95,2.65c2.867-1.233,5.767-2.283,8.7-3.15l4.75-2.8l-5.4,0.9l-0.65-0.05l-6.3,3.8
		c2.067-1.5,4-2.75,5.8-3.75l-0.75,0.05l-7.65,1.8l1.3-0.45c0.3-0.067,0.15-0.067-0.45,0c-0.633,0.1-0.8,0.1-0.5,0l6.3-1.5V-23
		l-7.1,1.7l-0.25,0.25l0.2-0.25l-0.1,0.05l-2.7,0.6c-0.533,0.067-0.55,0.017-0.05-0.15l3.5-1.1l3.4-3l-0.8,0.2l-1.8,0.7l1.4-0.6
		l-2.7,0.6l-0.95,0.1l-0.45,0.1l-1.05,0.75l0.9-0.7l-1.45,0.4c-1.5,1-1.983,1.233-1.45,0.7l0.6-0.4l-6.25,1.95l-1.7,1.6l1.55-1.55
		l-0.75,0.25l0.8-0.3l3.15-2.8l-0.4,0.2l0.45-0.25c4.267-3.433,9.083-6.217,14.45-8.35c3.467-1.333,7.117-2.5,10.95-3.5l5.05-1.45
		l-5.7,0.5l-6.85,2.15c-2.233,0.867-4.283,1.783-6.15,2.75l0.9-0.5l-0.4,0.1c-0.533,0.2-0.683,0.217-0.45,0.05l5.2-2.4l-0.05-0.15
		l-5.95,2.8c-1.033,0.533-1.783,0.883-2.25,1.05c-0.433,0.167-0.467,0.117-0.1-0.15c1.6-1.033,4.6-2.517,9-4.45l-0.1-0.05
		c4.1-1.733,7.5-2.8,10.2-3.2v-0.15l-1.65,0.35l-0.05-0.3l6.15-1.05l0.95-0.8l-8.1,1.15l-0.05-0.2l1.6-0.35l-3.45,0.5l-5.55,1.85
		l-7.05,3.15c-0.467,0.233-0.75,0.3-0.85,0.2l-8.1,4.75c10.733-7.533,21.933-11.683,33.6-12.45l1.15-0.6l2.65-0.55l6.15,1.2
		c4.933,1.067,9.85,1.583,14.75,1.55l3.7-0.15c-0.3-0.067-0.35-0.133-0.15-0.2l17.35-1.9l6.1-1.15l-0.05-0.1l1.85-0.4l0.05,0.1
		l1.2-0.2l0.05,0.1l3.6-1.05l0.05,0.1l2.35-0.75l0.05,0.1l0.55-0.3l10.55-3.4l9.7-0.8l0.25-0.35c3.2-3.633,8.617-7.217,16.25-10.75
		c10.933-5.033,21.833-6.967,32.7-5.8c6,0.633,15.367,2.833,28.1,6.6c11.833,3.5,20.433,5.35,25.8,5.55c3.5,0.2,5.833,0.25,7,0.15
		l14.6-2.2l15.1-3.3c1.467,0.233,3.467-0.067,6-0.9c2.767-0.933,4.683-1.383,5.75-1.35l5.65-0.55l-1.4-0.6
		c-0.5-0.167-1.017-0.483-1.55-0.95l-2-2.25c-0.133-0.567-0.75-0.833-1.85-0.8c-1.033,0.067-1.55-0.25-1.55-0.95
		c0.633,0.633,2.1,0.983,4.4,1.05l0.95,0.1c1,0.067,1.883-0.317,2.65-1.15l-2,0.2l-1-0.3c-0.3,0.333-0.8,0.233-1.5-0.3
		c-0.633-0.467-1.133-0.333-1.5,0.4c0-1.567,1.15-2.15,3.45-1.75l0.55,0.75l-0.05-0.9l-0.2-0.8c-1.2-1-1.45-1.65-0.75-1.95
		c0.567-0.267,1.25-0.267,2.05,0l0.8-0.15c1.333-0.067,2.867-0.5,4.6-1.3L69-77.8l-0.4,0.1l-0.65,0.05l-4.75-0.3
		c1.933-1.9,3.867-2.967,5.8-3.2h1c1.367,0.4,2.483,0.267,3.35-0.4l0.7-0.65c-0.2-0.7-0.167-1.2,0.1-1.5l-1.6-0.05l-0.8,0.1L71-83.7
		l-0.8-0.2l0.55-0.65l0.7-0.4l1.9,0.1l1.85-0.9c-0.467-0.067-1.067-0.467-1.8-1.2c-0.733-0.733-1.3-1.133-1.7-1.2l-0.4-0.8l-0.1-0.8
		l0.55,0.55c1.733,1.667,3.65,1.933,5.75,0.8c2.633-1.433,4.183-2.1,4.65-2l0.75-0.45l1.25-1.25l0.55-0.85
		c0.333-0.333,0.5-0.667,0.5-1l-1.55,0.05c-0.833-0.267-2.333,0.55-4.5,2.45c-1.8,1.567-3.45,1.4-4.95-0.5
		c1.867,1.5,3.65,1.367,5.35-0.4c1.933-2.033,3.35-2.933,4.25-2.7l4.4-1.85l1-0.05c-0.767-0.767-1.817-1.033-3.15-0.8L84.5-97.3
		c-3.033,0.167-5.167,0.117-6.4-0.15c-1.267-0.267,0.183-0.417,4.35-0.45l-1.25-0.05c0-0.7,0.5-1.017,1.5-0.95
		c1.067,0.067,1.617-0.167,1.65-0.7l0.9-0.45c0.933-0.9,1.967-1.483,3.1-1.75l3.05-0.25l-3.1-0.8c-1.2-0.033-2.25,0.5-3.15,1.6
		l-0.5,0.6L84.2-99.9c0-0.4,0.05-0.75,0.15-1.05l0.35-0.9l0.5-0.75l2.65-2.55l0.7-0.5l1.4-0.25l-0.9-0.65c1.133,0.4,2.8,0.6,5,0.6
		c-0.833-0.033-1.567-0.233-2.2-0.6c-0.433-0.267-0.983-0.733-1.65-1.4c1.467,0.367,2.817,0.25,4.05-0.35l0.9-0.5l5.5-1.95
		c2.033-0.733,3.8-1.033,5.3-0.9l0.85,0.2l2.55-0.3l0.85-0.25l0.05-0.85c0.033-0.567-0.05-1.1-0.25-1.6l-1.45-3.9
		C108.383-118.95,108.133-120.9,107.8-124.2z"/>
</g>
</svg>
