<?xml version="1.0" encoding="utf-8"?>
<!-- Generator: Adobe Illustrator 17.0.0, SVG Export Plug-In . SVG Version: 6.00 Build 0)  -->
<!DOCTYPE svg PUBLIC "-//W3C//DTD SVG 1.1//EN" "http://www.w3.org/Graphics/SVG/1.1/DTD/svg11.dtd">
<svg version="1.1" id="图层_1" xmlns="http://www.w3.org/2000/svg" xmlns:xlink="http://www.w3.org/1999/xlink" x="0px" y="0px"
	 width="398px" height="247px" viewBox="0 0 398 247" enable-background="new 0 0 398 247" xml:space="preserve">
<g transform="translate(212.65,116.85)">
	<path fill="#FFFC00" d="M-102.5-26.9l-1.25,0.85l1.2-0.45l0.1-0.45L-102.5-26.9z M-175.5-11.9l0.95-0.3l-3.35-0.1L-175.5-11.9z
		 M-179.1-12.55l0.45-0.05l-3.9-0.45l3.85,0.6v-0.1l1.25,0.05l-1.05-0.1L-179.1-12.55z M-183.3-5.85V-6l-1.2-0.05L-183.3-5.85z
		 M-187.4-10.7v-0.15l-4.2-0.15l0.3,0.1L-187.4-10.7z M-184.4-9.15l0.05-0.25l2,0.4l4.65,0.35c-2.2-0.367-3.25-0.667-3.15-0.9
		l-0.8-0.15l-3.45-0.2l-1.55-0.4l-3.5-0.25l4.85,1.4l1,0.05L-184.4-9.15z M-184.35-7.35l-2.95,0.25l-0.85-0.05l-0.5,0.05l1.75,0.45
		l5.2,0.3l-0.75-0.15l0.85,0.05L-184.35-7.35z M-201.25-12.05l0.65,0.05l1.8-0.15l0.95-0.45L-201.25-12.05z M-192.95-8.25l-0.5-0.15
		l0.5,0.2V-8.25l3.7,1l3.8-0.45L-189.8-9l-3.65,0.55L-192.95-8.25z M-194.8-8.15l0.7,0.25l0.05-0.15l-0.5-0.15L-194.8-8.15z
		 M-194.55-12.75l-2.55,0.1l-1.3,0.5c2.033-0.067,3.867,0.217,5.5,0.85h0.15l-0.05-0.05l0.15,0.05c1.333-0.167,3.533-0.133,6.6,0.1
		l-0.5-0.15h0.2l-2.25-0.75L-194.55-12.75z M-194.75-14.5l2.2,0.55l1.75-0.1L-194.75-14.5z M-195.4-13.1v-0.1l-0.4,0.1H-195.4z
		 M-196.75-13l0.45-0.2l-6.05,1l-0.6,0.15h1.55l0.85-0.25c0.267-0.1,0.117-0.1-0.45,0c-0.6,0.1-0.767,0.1-0.5,0L-196.75-13z
		 M-184.65-13.1v-0.2l-4.55-0.25l6.3,0.85v-0.15L-184.65-13.1z M-185.45-15.6l2.95,0.5v-0.05c2.333,0.067,4.933,0.033,7.8-0.1
		c3.133-0.133,4.317-0.3,3.55-0.5l-1.65,0.05v-0.2h-4.2l-1.05,0.1l-0.7-0.1L-185.45-15.6l5.1-0.4l-2.9-0.1v-0.25l1.05,0.05
		l-15.5-1.6c-0.5-0.067-0.75-0.167-0.75-0.3l-2.2-0.3c-0.833-0.133-1.783-0.133-2.85,0l-4.65,0.95l5.05-1.2l15.05,1.3
		c6.433,0.433,12.433,0.417,18-0.05c5.5-1.133,10.75-2.65,15.75-4.55c0.433-0.133,0.75-0.283,0.95-0.45l0.9-0.45l1.95-0.65
		c-0.333,0.033-0.417,0-0.25-0.1l0.8-0.4l24.1-9.05l-0.05-0.1l2-0.65l0.05,0.1l1.5-0.4l0.05,0.15l4.05-1.2l0.05,0.15l2.75-0.8
		l0.05,0.15c-0.03-0.101,0.187-0.201,0.65-0.3l2.8-0.7l9.95-1.1c0,0.033-0.167,0.15-0.5,0.35c-0.2,0.133-0.017,0.2,0.55,0.2l4.5,0.4
		l1.2-1.85C-88.017-44.917-82.6-48.7-80-50.1c6.133-3.3,13.133-5.167,21-5.6l28.1,0.85l26.6,1.75c4.5,0.367,9.05,0.25,13.65-0.35
		c4.767-0.633,9.067-1.7,12.9-3.2c2.6-1,6.317-2.9,11.15-5.7c4.633-2.267,9.483-3.317,14.55-3.15c0.4-0.667,0.267-1.483-0.4-2.45
		c-0.5-0.667-0.367-1.033,0.4-1.1l5.75-0.4c1.733-0.533,2.767-1.583,3.1-3.15c-0.067-0.867-0.85-1.4-2.35-1.6
		c-1.7-0.2-2.683-0.55-2.95-1.05c1.467-0.633,3.383-0.95,5.75-0.95s4.283,0.317,5.75,0.95c0.133-0.467-0.067-1.167-0.6-2.1
		c-0.267-0.433,0.233-0.617,1.5-0.55c2.3,0.9,4.25,1.4,5.85,1.5c2.2,0.167,4.083-0.333,5.65-1.5c0.267-0.933-0.267-1.633-1.6-2.1
		c-1.833-0.6-3.017-1.267-3.55-2l8.7-0.3c0.333-0.833,2.183-1.833,5.55-3c2.333-0.8,2.483-2.183,0.45-4.15l-2.25-1.7
		c-1.033-0.7-1.7-1.3-2-1.8l5.75,0.35c0.167,0.033,0.567-0.117,1.2-0.45l7.25-0.8L96-93.6l-0.85-0.35c-1.567-0.7-2.6-1.333-3.1-1.9
		l2.15,0.6l3.35-0.35c1.067-0.367,1.833-0.7,2.3-1l1.9-1.6l2.45-1.1c-1.367-0.9-3.333-1.2-5.9-0.9c0.767-1.167,2.167-1.783,4.2-1.85
		c2-0.033,3.533,0.5,4.6,1.6l1.25-0.45l-0.6-0.7l-2.3-0.1c-0.633-0.067-0.667-0.217-0.1-0.45l1.15-0.15c0.567-0.7,1.25-0.9,2.05-0.6
		l0.15-0.9c-0.6-0.267-0.817-0.833-0.65-1.7l0.8,0.2l0.15-1l1.4,1.35l0.7,0.2c-0.4-1.333-0.983-2.567-1.75-3.7l0.3-1.25
		c1.767,0.133,3.833,1.083,6.2,2.85c1.2-1.2,2.05-1.683,2.55-1.45l0.25,0.15c0.033,0.733,0.533,1.383,1.5,1.95
		c0.533,0.333,1.45,0.817,2.75,1.45c-0.467-1.933-0.7-4.05-0.7-6.35c0-2.6,0.35-4.517,1.05-5.75c0.767,0.633,1.75,1.967,2.95,4
		c0.967,1.633,2.05,2.65,3.25,3.05l1.1-0.5c0.433-0.3,0.65-0.133,0.65,0.5c0.733,0.067,1.067-0.483,1-1.65
		c-0.133-1.633-0.167-2.55-0.1-2.75c0.4-0.6,0.767,0.133,1.1,2.2c0.433,2.467,0.95,3.8,1.55,4c0.833-0.067,1.967,0.95,3.4,3.05
		c0.333-0.167,0.75-0.017,1.25,0.45c0.5,0.5,0.95,1.167,1.35,2l1.05,2.25l0.8,0.25c0.433-0.067,1.083,0.483,1.95,1.65
		c0.633,0.9,1.1,0.933,1.4,0.1c0.233,0.467,1.033,1.367,2.4,2.7c1.067,1.033,1.65,2.133,1.75,3.3c2.033,2.367,3.65,4.1,4.85,5.2
		l2.5,2.6l6.75,9.85c2.633,4.6,6.1,9.133,10.4,13.6c3.133,2.433,5.15,4.167,6.05,5.2c1.533,1.7,2.733,3.9,3.6,6.6l0.4,2.05
		c0.067,0.933-0.05,1.55-0.35,1.85c-0.467,0.467-0.667,1.333-0.6,2.6c0.1,1.3,0,2.133-0.3,2.5l-1.45,2.05
		c-0.567,0.733-1.233,1.15-2,1.25l-6.8,1.2l-5.9-0.55c-0.833-0.767-1.417-1.517-1.75-2.25c-0.2-0.533-0.567-1.017-1.1-1.45
		l-9.75-5.7c-1.367-0.6-2.933-1.433-4.7-2.5c-1.5-0.9-2.733-1.5-3.7-1.8l-11-2.7c-1.867-0.333-3.683-0.883-5.45-1.65
		c-1.2-0.467-3.3-1.533-6.3-3.2c-1.633-0.167-2.9-0.167-3.8,0c-2.367,0.367-4.433,2.133-6.2,5.3l-3.55,7.1
		c-0.267,0.533-0.567,1.4-0.9,2.6l-0.9,2.7l-4.95,9.55c-2.067,3.9-3.367,7.217-3.9,9.95c-0.2,1.1-0.233,2.583-0.1,4.45
		c0.167,2.067,0.2,3.533,0.1,4.4c-0.1,1.033-0.533,2.633-1.3,4.8s-1.217,3.817-1.35,4.95L96.3,1.85c-0.033,0.567,0.217,1,0.75,1.3
		l4.15,2.7c2,1.467,5.25,3.4,9.75,5.8c4.833,2.6,8.283,4.6,10.35,6c0.733,0.233,1.817,0.9,3.25,2l3.15,2.2
		c2.333,1.167,4.017,2.867,5.05,5.1l1.5,4.05c0.567,2,1.117,3.6,1.65,4.8c1.833,4.2,3.65,9.133,5.45,14.8l2.05,5.65
		c0.7,2.167,0.833,3.683,0.4,4.55c-0.333,1.433-1.167,2.933-2.5,4.5c-1.7,2-3.033,4.033-4,6.1l-2.1,7.1
		c-1.267,3.867-2.45,5.683-3.55,5.45c-2.5-0.533-4.533-2.4-6.1-5.6c-1.5-3.067-2.033-5.983-1.6-8.75c0.2-1.533,1.533-2.733,4-3.6
		c2.867-1,4.583-1.883,5.15-2.65c0.367-0.9,0.417-1.583,0.15-2.05l-1.2-1.4c-0.133-0.2-0.017-1.167,0.35-2.9
		c0.433-1.933,0.533-3.45,0.3-4.55l-0.15-1.05c-0.833-3.967-1.983-7.4-3.45-10.3c-1.867-3.6-4.333-6.583-7.4-8.95l-1.75-2.1
		c-0.633-0.767-1.967-1.4-4-1.9l-7.7-0.7c4.633,2,7.017,3.167,7.15,3.5c0.667,0.567,1.15,1.283,1.45,2.15
		c0.733,2.067,0.717,4.15-0.05,6.25c-0.933,0.967-2.483,2.083-4.65,3.35c-2.9,1.7-4.55,2.7-4.95,3c-1.4,1-3.817,3.2-7.25,6.6
		l-7.15,7.05c-0.833,0.7-1.583,1.067-2.25,1.1c-1.967,0.1-4.783-0.217-8.45-0.95c-3.467-0.7-5.767-0.983-6.9-0.85l-5.15,0.85
		l-4.55,0.2l-4.35-0.35c-0.033-1.133,0.3-2.433,1-3.9c0.867-1.667,2.017-3.35,3.45-5.05c1.8-2.133,3.5-3.567,5.1-4.3
		c1.533,0.267,3.267,1.283,5.2,3.05c1.967,1.833,3.667,2.9,5.1,3.2c1.333,0.067,2.233-0.533,2.7-1.8c0.7-1.767,1.15-2.75,1.35-2.95
		c2.867-0.033,6.1-0.967,9.7-2.8c3.3-1.667,6.133-3.7,8.5-6.1c-1.667-0.867-4.3-1.417-7.9-1.65l-9-0.8l-12-2.75
		c-3.067-0.767-5.4-1.2-7-1.3c-3.267-0.133-7.05-0.783-11.35-1.95c-3.667-1-5.767-1.75-6.3-2.25l-1.85-2.1
		c-0.467,0.367-1.267,0.783-2.4,1.25c-10.5,3.533-22.333,4-35.5,1.4L-7.3,24.4c-7.433-1.867-13.633-3.167-18.6-3.9
		c-0.367,2.7-1.467,6.083-3.3,10.15l-6.15,12.55c-0.4,0.8-0.867,2.45-1.4,4.95l-0.8,4.85c-0.033,0.733-0.183,1.433-0.45,2.1l0.1,1.1
		c0.2,3.8,2.367,8.25,6.5,13.35l10.9,12.75l0.55,0.55L-8.9,89.9c3.933,2.633,6.9,5.25,8.9,7.85c-1.933,2.8-4.95,4.317-9.05,4.55
		c-3.467,0.2-6.95-0.467-10.45-2c-0.633-0.667-0.917-1.817-0.85-3.45c0.033-1.467-0.65-2.65-2.05-3.55c-0.567-0.2-1.25,0-2.05,0.6
		c-0.967,0.733-1.867,1.133-2.7,1.2c-0.667,0.067-1.65-0.833-2.95-2.7c-1.133-1.6-2.2-3.45-3.2-5.55h-0.05l-1.35-3
		c-1.833-3.333-4.25-7.05-7.25-11.15l-4-5.2l-5.2-9.45c-1.133-1.9-1.733-3.5-1.8-4.8l-0.05-0.1c-0.633-1.467-0.317-3.717,0.95-6.75
		c1.433-3.5,2.15-5.483,2.15-5.95c0-0.8-0.083-1.617-0.25-2.45l-2.2,2.05l-4.65,6.3c-1.8,2.267-4.017,4.617-6.65,7.05l-5.55,5
		c-3.633,3.3-5.8,5.383-6.5,6.25c-2.9,3.567-3.917,8.417-3.05,14.55c0.533,4.033,2.167,9.583,4.9,16.65l1.35,4.2l2.8,5.2
		c1.333,2.3,2.1,4.033,2.3,5.2c0.133,0.767,0.1,1.8-0.1,3.1c-0.1,0.767,0.167,1.5,0.8,2.2c3.8,4.167,6.083,7.083,6.85,8.75
		c1.4,2.867,0.367,4.617-3.1,5.25c-2.733,0.5-5.65,0.45-8.75-0.15c-3.833-0.733-5.967-2.133-6.4-4.2l0.3-3
		c0.1-0.667,0.5-1.5,1.2-2.5c0.633-2,0.45-3.05-0.55-3.15c-1.867-0.133-2.967-0.35-3.3-0.65l0.05-4.35c0.1-1.833,0.033-3.3-0.2-4.4
		c-0.167-0.8-0.65-2.467-1.45-5l-1.45-5.05c-0.567-2.733-1.433-5.233-2.6-7.5c-1.5-2.833-2.417-4.733-2.75-5.7
		c-3.567-7.233-5.833-12.383-6.8-15.45c-1.533-4.967-0.9-9.533,1.9-13.7l4.95-7.35c0.633-1.2,1.633-4.4,3-9.6
		c-0.033-2.7-0.183-5-0.45-6.9c-0.467-3.467-1.867-6.717-4.2-9.75c-1.567-2.033-3.567-5.3-6-9.8c-2.3-4.2-3.667-6.967-4.1-8.3
		c-0.3-1.067-0.783-2.567-1.45-4.5c-0.467-1.667-0.717-3.183-0.75-4.55c-1.6-5.667-1.683-11.917-0.25-18.75l-17.75,12.25l-2.2,1.3
		l-5.7,5.05c-3.1,2.3-6.75,4.117-10.95,5.45c-3.567,1.1-7.467,1.75-11.7,1.95c-3.5,0.2-7.367,0.1-11.6-0.3l-5.95-0.6
		c-3.167-0.767-6.717-1.35-10.65-1.75c0-0.133-0.583-0.3-1.75-0.5l-8.9-0.85l2.65,0.15c0.3,0,0.167-0.05-0.4-0.15
		c-0.6-0.133-0.75-0.2-0.45-0.2l6.25,0.6V-2.3l-7.1-0.7c-2.9-0.267-3.783-0.433-2.65-0.5l11.35,1c-0.433-0.067-0.65-0.15-0.65-0.25
		l11.6,1.35v-0.15l-1.8-0.2l0.05-0.2l-9.4-1.5l-2.95-0.85l-4.85,0.55l2.35-0.4c0.233-0.033,0.1-0.067-0.4-0.1
		c-0.533,0-0.667-0.033-0.4-0.1l2.3-0.25l-0.3-0.1l-5.15,0.65c-0.3,0.033-0.317-0.017-0.05-0.15l4-0.8L-188-5.5h-0.1l-0.9-0.2
		l-1.2,0.1l1.2-0.2h-0.15l-3.2-0.2l-2.6,1.3l2.2-1.3l-6.35-0.2h6.75l0.75-0.3l-3.85-1.5l-3.2,0.85l2.95-0.9l-6.35-0.45h2.75
		c0.3,0,0.15-0.05-0.45-0.15c-0.6-0.067-0.75-0.117-0.45-0.15l5.1,0.55l0.25-0.05l-9.05-0.9c-0.6-0.1-0.6-0.15,0-0.15
		c3.8-0.2,6.933,0.033,9.4,0.7l-2-0.6l2.65,0.7l3.4-0.6l-1.25-0.4l-1.3-0.8l-1.05,0.25l0.95-0.25l-0.05-0.05l-0.75-0.3l-1.85,0.3
		c-0.233,0.067-0.217,0.017,0.05-0.15l1-0.35l-5.7-0.25l2.25-0.15c0.233-0.033,0.167-0.067-0.2-0.1l-0.7-0.15h-0.6
		c-0.408,0.191-0.808,0.408-1.2,0.65l0.95-0.7l-0.95-0.05c-1.467,0.067-1.867,0.017-1.2-0.15h-0.05l-0.7,0.25l0.65-0.25h-1.55
		l-1.4,0.4l0.15-0.2l0.3-0.15L-211-11l-1.65,1.35l1.4-1.3l-0.5,0.1l0.55-0.15c1.267-1.033,2.583-1.883,3.95-2.55l-1.7,0.4l1.95-0.5
		c1.867-0.9,4-1.6,6.4-2.1c-1.267-0.267-1.45-0.367-0.55-0.3l1.55,0.15l8.8-0.25l5.15,0.55C-185.65-15.6-185.45-15.6-185.45-15.6z
		 M-190.9-15.05l-0.55-0.15l-1.4-0.15l7,0.5l-1.3-0.35l-4.35-0.55c-2.1-0.133-4.133-0.117-6.1,0.05L-190.9-15.05z M-210.9-11.05
		l6.75-0.95c2.633-1.167,5.867-1.717,9.7-1.65l0.1-0.05c-0.133,0-0.2-0.033-0.2-0.1h0.85l-6.15-0.7l-6.45,0.75L-210.9-11.05z
		 M-203.2-14.95l-2.65,1.05l6.85-0.85l1.35-0.05l-2-0.2l2.45,0.2c0.267,0.033,0.133-0.017-0.4-0.15s-0.667-0.2-0.4-0.2l5.7,0.55
		v-0.15l-7.1-0.75l-2.8,0.5L-203.2-14.95z"/>
</g>
</svg>
