<?xml version="1.0" encoding="utf-8"?>
<!-- Generator: Adobe Illustrator 17.0.0, SVG Export Plug-In . SVG Version: 6.00 Build 0)  -->
<!DOCTYPE svg PUBLIC "-//W3C//DTD SVG 1.1//EN" "http://www.w3.org/Graphics/SVG/1.1/DTD/svg11.dtd">
<svg version="1.1" id="图层_1" xmlns="http://www.w3.org/2000/svg" xmlns:xlink="http://www.w3.org/1999/xlink" x="0px" y="0px"
	 width="402px" height="233px" viewBox="0 0 402 233" enable-background="new 0 0 402 233" xml:space="preserve">
<g transform="translate(210.55,110.337)">
	<path fill="#FFFC00" d="M-162.95-4l4.2,0.2c2,0.067,2.683-0.017,2.05-0.25L-162.95-4z M-181.6-8.45h0.4v-0.1l-1.2-0.1L-181.6-8.45z
		 M-173.4-14.45l0.95-0.35l-3.35-0.05L-173.4-14.45z M-180.45-15.65l3.85,0.65v-0.1h2.3l-2.1-0.05l-0.6,0.05l0.45-0.1L-180.45-15.65
		z M-169.05-18.3l-1.65,0.05v-0.25l-4.2,0.05l-1.05,0.1l-0.7-0.15l-6.75,0.35l3,0.45v-0.05c2.267,0.1,4.867,0.083,7.8-0.05
		C-169.467-17.933-168.283-18.1-169.05-18.3z M-190.85-10.85l-0.5-0.1l0.5,0.2V-10.85l3.7,1.05l3.8-0.45l-4.35-1.3l-3.65,0.55
		L-190.85-10.85z M-185.2-9.65l-0.85-0.1l-0.5,0.1l1.75,0.45l5,0.3l-0.55-0.2l0.85,0.05l-0.9-0.2l-1.85-0.65L-185.2-9.65z
		 M-192.75-10.85l-4.075-0.4L-193-10.8L-192.75-10.85z M-192.45-10.75l-0.25,0.05l0.7,0.25l0.05-0.15L-192.45-10.75z M-196.7-14.75
		l0.95-0.45l-3.4,0.6L-196.7-14.75z M-193.3-15.65v-0.1l-0.4,0.1H-193.3z M-198.225-13.7l2.175-0.2c0.267-0.033,0.2-0.067-0.2-0.1
		l-1.3-0.15L-198.225-13.7l-2.375,1.55l2.8-2l-0.95-0.05c-1.467,0.067-1.867,0.017-1.2-0.15l0.05-0.05h-0.1l-0.7,0.25l0.65-0.25
		h-1.55l-1.25,0.2l0.3-0.15l-6.35,0.8l-1.65,1.3l1.4-1.25l-0.5,0.1l0.6-0.15l3.9-2.55l-1.7,0.4l1.95-0.55
		c2.1-0.967,4.233-1.65,6.4-2.05c-1.1-0.233-1.283-0.35-0.55-0.35l1.55,0.15l8.8-0.25l5.15,0.6l5.3-0.4l-2.95-0.15l0.05-0.2
		l1.35,0.05l-15.8-1.65c-0.5-0.067-0.75-0.167-0.75-0.3l-2.2-0.3h-2.85l-4.65,0.95l5.05-1.2l15.05,1.3
		c6.367,0.433,12.367,0.433,18,0c5.2-1.067,10.45-2.583,15.75-4.55c0.433-0.133,0.75-0.283,0.95-0.45l0.9-0.45l1.95-0.7
		c-0.333,0.033-0.417,0-0.25-0.1l0.8-0.4c8.1-3.267,13.933-5.483,17.5-6.65l6.6-2.35l-0.05-0.15l0.8-0.2l1.2-0.45l0.05,0.15l1.5-0.4
		l0.05,0.15l4.05-1.2l0.05,0.1l2.75-0.75l0.05,0.1l0.65-0.25l6.75-1.35l5.55-0.4c0.8-1.7,1.7-2.933,2.7-3.7
		c2.033-1.433,3.683-2.45,4.95-3.05c3.633-1.733,7.467-3.217,11.5-4.45l12.1-3.75c4.8-1.367,9.033-2.183,12.7-2.45
		c5.667-0.4,12.333-0.033,20,1.1l21.6,3.35l31.75,2.85l8.1,0.3l4.85-0.25c5.533-0.333,11.767-1.617,18.7-3.85
		c9.533-3.067,15.233-4.817,17.1-5.25c-0.6-0.567-1.917-1.017-3.95-1.35s-3.367-0.767-4-1.3h7.675c-0.11-0.04-0.185-0.14-0.225-0.3
		c-0.1-0.3,0.067-0.5,0.5-0.6l2.6-0.25c1.267-0.333,1.883-1.133,1.85-2.4c-2.667-0.667-4.733-1.55-6.2-2.65
		c1.3-0.267,3.317,0.117,6.05,1.15c2,0.767,3.517,0.383,4.55-1.15c-0.167-0.5-0.933-0.767-2.3-0.8c-1.333-0.033-2.033-0.367-2.1-1
		c0.667-0.1,2.917-0.067,6.75,0.1c2.833,0.133,4.717-0.183,5.65-0.95c-1.333-0.033-2.267-0.583-2.8-1.65c-0.4-0.767-0.65-2-0.75-3.7
		c0.533,0.8,1.25,1.6,2.15,2.4c0.967,0.867,1.983,1.55,3.05,2.05l-2.55-2.9l0.85,0.15c0.2-0.467,0.033-0.9-0.5-1.3l-2.45-1.35
		l-0.9-1.15l5.65,0.35c0.2-0.533,1.117-0.8,2.75-0.8c1.567,0.033,2.417-0.283,2.55-0.95c-0.4-1-1.483-1.517-3.25-1.55l-2.95-0.25
		c0.867-0.767,1.633-1.2,2.3-1.3L85.55-83l5.3-0.45L89.6-85.2l-5-0.25c-1.533-0.4-2.517-1.2-2.95-2.4c1.133,0.867,2.367,1.4,3.7,1.6
		c1.467,0.233,2.883,0,4.25-0.7c1.567,1.167,2.917,2.483,4.05,3.95l0.5,0.1c0.4-1.3,0.317-2.467-0.25-3.5l-1.15-1.45
		c-0.333-0.367-0.567-0.517-0.7-0.45c0.033-0.1,0.117-0.15,0.25-0.15l-1-1.1c-0.2-0.367-0.167-0.683,0.1-0.95
		c1.3,0.1,2.233,0.8,2.8,2.1l-1.25-3.55c1.6,0.933,2.967,1.483,4.1,1.65l2.8,0.6c-1.633-1.467-4.167-2.617-7.6-3.45l2.5-0.1
		l2.1,0.75l-1.1-1.6l-4.35-0.8c0.367-0.633,0.917-0.95,1.65-0.95l2.1,0.4l-0.3-0.95c0.7,0.433,1.383,0.85,2.05,1.25l0.7-0.65
		l-1.95-0.85c-0.9-0.433-0.85-0.733,0.15-0.9l1.7,0.4c0.067-0.433,1.05-0.083,2.95,1.05l-0.35-1.3l-1.25-1.55
		c0.8,0.067,1.8,0.517,3,1.35c1.167,0.8,1.9,1.517,2.2,2.15c-0.433-1.167-1.067-2.333-1.9-3.5l-2.65-0.3
		c-0.967-0.167-1.6-0.483-1.9-0.95l1.9-0.4l1.5,0.15l-1.2-1.2l3.1-0.15l-1.9-0.85c-0.767-0.333-1.317-0.7-1.65-1.1
		c2.6-0.267,4.533,0.567,5.8,2.5c2.3,0.833,4.533,2.033,6.7,3.6l0.65,0.45c0.333-0.233,0.25-0.667-0.25-1.3
		c-0.767-0.9-1.217-1.617-1.35-2.15l2.4,2.4c0.879,0.932,1.395,1.648,1.55,2.15l-0.05-0.35c-0.2-0.533-0.25-0.783-0.15-0.75
		l0.75,0.45l2.2-0.55l1.4-0.05l-1.65-7.35c-0.333-2.567-0.033-4.433,0.9-5.6c0.233-0.333,2.483,1.583,6.75,5.75l6.35,6.35l0.15-2.8
		c0.233-0.933,0.833-1.083,1.8-0.45l1.8,1.9l1.5,2.2l0.9,0.15c0.433-0.133,1.2,0.333,2.3,1.4c0.867,0.833,1.383,0.783,1.55-0.15
		c0.333,0.467,1.317,1.283,2.95,2.45c1.3,0.933,2.117,1.983,2.45,3.15c2.5,2.167,4.5,3.733,6,4.7l3.1,2.35l8.75,9.3
		c3.467,4.3,7.9,8.483,13.3,12.55c3.733,2.1,6.167,3.6,7.3,4.5c1.9,1.533,3.533,3.65,4.9,6.35l0.8,2.1
		c0.233,1,0.217,1.683-0.05,2.05c-0.433,0.567-0.5,1.517-0.2,2.85c0.333,1.333,0.367,2.217,0.1,2.65l-1.2,2.45
		c-0.467,0.867-1.083,1.417-1.85,1.65l-7.05,2.45l-6.3,0.4c-1.033-0.667-1.767-1.367-2.2-2.1l-0.8-0.85l-0.65-0.5l-11.25-4.35
		c-1.5-0.4-3.3-1.017-5.4-1.85c-1.733-0.7-3.15-1.133-4.25-1.3l-12.05-0.95c-3.833-0.133-7.633-1.067-11.4-2.8h-0.3L126-48
		c-6.267,11.867-10.9,21.333-13.9,28.4c-0.833,1.967-2.433,4.383-4.8,7.25l-8.1,8.6c-2.067,1.933-3.5,3.7-4.3,5.3
		c-0.067,0.1-0.283,1.75-0.65,4.95c-0.4,3.2-1.767,7.183-4.1,11.95l5.8,2.55c2.3,1,4.283,1.75,5.95,2.25l13.85,3.05l2.35,1.45
		c1,0.9,1.817,2.267,2.45,4.1c0.2,0.6-0.117,2.283-0.95,5.05l-0.8,2.5l1.8,0.5c2.4,0.567,4.817,1.717,7.25,3.45l14.25,11.9l5.85,4
		l2.5,2.15c1.167,1,2.233,2.367,3.2,4.1c1.333,2.4,2.65,4.433,3.95,6.1l5.45,5.05c2.9,2.9,4,4.783,3.3,5.65
		c-1.6,1.967-4.2,2.933-7.8,2.9c-3.4-0.033-6.233-0.867-8.5-2.5c-1.3-0.867-1.783-2.583-1.45-5.15c0.4-3.033,0.383-4.967-0.05-5.8
		c-0.6-0.733-1.317-1-2.15-0.8l-2.2,0.65c-0.5,0.067-1.283-0.383-2.35-1.35c-1.167-1.033-2.067-2.15-2.7-3.35l-3.9-6.7
		c-4.5-3.867-9.3-6.15-14.4-6.85l-5.4-1.6l-1.55,13.5c-0.167,1.1-0.5,1.867-1,2.3c-1.467,1.3-3.867,2.817-7.2,4.55
		c-3.133,1.633-5.1,2.867-5.9,3.7c-2.033,2.567-3.183,3.867-3.45,3.9l-7.05,5.45c-0.733-0.867-1.283-2.1-1.65-3.7
		c-0.4-1.8-0.567-3.833-0.5-6.1c0.067-2.733,0.5-4.9,1.3-6.5c1.367-0.733,3.35-1.017,5.95-0.85c2.667,0.167,4.65-0.083,5.95-0.75
		c1.067-0.8,1.4-1.833,1-3.1c-0.6-1.833-0.883-2.883-0.85-3.15c1.633-1.333,3.133-3.217,4.5-5.65c1.267-2.233,2.283-4.683,3.05-7.35
		l-0.15-0.3c-3.733-1-8.783-1.667-15.15-2l-16.2-0.5l-6.2-6.5l-1.05,0.15L57.85,39.6l-6.65-0.7c-2.3-1.333-3.617-2.65-3.95-3.95
		l-28.45-2.4c-8.6-1.1-16.433-3.217-23.5-6.35c-6.567-2.9-13.183-6.983-19.85-12.25c-1.833-1.033-3.5-1.867-5-2.5
		c-1.267-0.567-2.467-0.983-3.6-1.25c-1.733,3.4-4.383,7.067-7.95,11l-2.45,3.55l-3,10.8c-1.167,4.167-2.017,7.567-2.55,10.2
		l-1.4,5.45c-0.667,2.733-0.933,4.467-0.8,5.2c0.267,1.567,0.333,2.6,0.2,3.1c0.167,0.6,0.217,1.167,0.15,1.7
		c-0.1,4.033,2,9.083,6.3,15.15l5.6,7.45c2.2,2.933,3.833,5.383,4.9,7.35l0.4,1.55l6.65,7.15c3.133,3.567,5.317,6.867,6.55,9.9
		c-2.633,2.167-5.95,2.833-9.95,2c-3.367-0.733-6.533-2.3-9.5-4.7c-0.467-0.8-0.45-2,0.05-3.6c0.433-1.367,0.083-2.667-1.05-3.9
		l-2.1,0.05c-1.133,0.433-2.117,0.567-2.95,0.4c-0.767-0.133-1.583-1.55-2.45-4.25c-0.767-2.4-1.283-4.75-1.55-7.05
		c-1.567-3.4-3.667-7.233-6.3-11.5l-3.5-5.4L-64.3,62c-0.8-1.567-1.267-3.033-1.4-4.4c-0.967-1.233-1.183-3.233-0.65-6
		c0.6-3.2,0.833-5.05,0.7-5.55l-6.6,4.25c-2.433,1.433-5.333,2.833-8.7,4.2l-7,2.7c-4.6,1.767-7.367,2.933-8.3,3.5
		c-3.967,2.333-6.65,6.517-8.05,12.55c-0.9,3.933-1.35,9.7-1.35,17.3l-0.2,4.4l0.05,0.55c1.7,3.567,2.617,5.967,2.75,7.2
		c0.1,0.8,0,1.833-0.3,3.1c-0.167,0.767,0.033,1.517,0.6,2.25c3.467,4.433,5.533,7.517,6.2,9.25c1.167,2.967,0,4.633-3.5,5
		c-2.733,0.3-5.633,0.033-8.7-0.8c-3.767-1.033-5.783-2.6-6.05-4.7l0.5-2.9c0.167-0.667,0.633-1.483,1.4-2.45
		c0.767-1.933,0.65-2.983-0.35-3.15c-1.833-0.267-2.9-0.567-3.2-0.9l1.3-18.95c0.467-2.767,0.55-5.417,0.25-7.95
		c-0.4-3.133-0.567-5.233-0.5-6.3c-0.767-8.033-1.05-13.633-0.85-16.8c0.333-5.2,2.533-9.25,6.6-12.15c3.867-2.5,6.3-4.2,7.3-5.1
		c1-0.933,3.067-3.567,6.2-7.9c0.9-2.567,1.567-4.783,2-6.65c0.8-3.433,0.65-6.967-0.45-10.6c-0.6-1.967-1.217-5.05-1.85-9.25
		l-5.35-15.85c-1.2-4.567-1.567-9.817-1.1-15.75l-15.75,11l-2.2,1.25l-0.1,0.15l-5.6,4.95c-3.267,2.367-6.917,4.167-10.95,5.4
		c-3.567,1.1-7.467,1.767-11.7,2c-3.467,0.167-7.333,0.067-11.6-0.3l-16.65-2.4l-1.7-0.45l-8.9-0.85l2.65,0.1
		c0.3,0,0.167-0.05-0.4-0.15c-0.6-0.133-0.75-0.2-0.45-0.2l6.25,0.6v-0.1l-9.75-1.05c-0.467-0.1-0.467-0.167,0-0.2l11.4,1l-0.7-0.25
		l11.6,1.4V-4.1l-1.8-0.2l0.05-0.25L-178.6-6l-2.95-0.85l-4.85,0.55l2.35-0.4c0.267-0.033,0.133-0.067-0.4-0.1
		c-0.533,0-0.667-0.033-0.4-0.1l2.3-0.25l-0.3-0.1L-188-6.6c-0.3,0.033-0.317-0.017-0.05-0.15l4-0.85l-1.85-0.5h-0.1l-0.9-0.2
		l-1.2,0.1l1.2-0.15l-0.15-0.05l-3.2-0.15c-1.1,0.433-2.7,1.283-4.8,2.55c1.567-1.1,3.033-1.967,4.4-2.6L-197-8.75h6.75l0.75-0.35
		l-3.85-1.45l-3.2,0.85l2.95-0.9l-5.1-0.45l1.5-0.05c0.3,0,0.15-0.05-0.45-0.15c-0.541-0.06-0.716-0.11-0.525-0.15l-3.625-0.35
		c-0.567-0.1-0.567-0.167,0-0.2c4.1-0.133,7.283,0.117,9.55,0.75l-2.15-0.65l2.65,0.7l3.4-0.6l-1.25-0.35l-1.35-0.8l-1,0.2
		l0.95-0.25h-0.05l-0.75-0.3l-1.85,0.3c-0.233,0.067-0.217,0.017,0.05-0.15l1-0.35L-198.225-13.7z M-200.25-14.8l-0.6,0.2h1.55
		l0.85-0.25c0.267-0.1,0.117-0.1-0.45,0c-0.6,0.067-0.767,0.05-0.5-0.05l4.75-0.7l0.45-0.15L-200.25-14.8z M-183-12.5l-1.55-0.35
		l-3.5-0.25l4.85,1.35l0.9,0.05l0.05-0.3l2,0.45l4.65,0.35c-2.167-0.433-3.217-0.733-3.15-0.9l-0.8-0.2L-183-12.5z M-182.55-15.7
		v-0.15l-4.55-0.25l6.3,0.85v-0.15L-182.55-15.7z M-190.8-13.85h0.15l-0.05-0.05h0.15c1.533-0.167,3.733-0.117,6.6,0.15l-0.5-0.2
		l0.2,0.05l-2.25-0.8l-4.2-0.3l-1.75-0.3l-2.55,0.05l-1.3,0.5C-194.1-14.75-192.267-14.45-190.8-13.85z M-190.2-17.15v-0.15
		l-7.1-0.8l-2.8,0.55l-1,0.05l-2.65,1l6.85-0.85h1.35l-2-0.25l2.45,0.25c0.233,0,0.1-0.067-0.4-0.2c-0.533-0.133-0.667-0.2-0.4-0.2
		L-190.2-17.15z M-188.7-16.6l-0.75-0.15l-3.2-0.3l1.1,0.2l1.1,0.35L-188.7-16.6z M-189-17.6c-0.233-0.033-0.35-0.1-0.35-0.2
		l5.6,0.35l-1.3-0.3l-4.35-0.55c-2.067-0.167-4.1-0.167-6.1,0L-189-17.6z M-204.2-16.3c-1.633,0.7-3.167,1.583-4.6,2.65l6.75-0.9
		c2.5-1.133,5.733-1.7,9.7-1.7h0.1l-0.2-0.1h0.85l-5.3-0.55l-0.85-0.2L-204.2-16.3z M90.85-81.2c-0.8-0.533-1.833-0.967-3.1-1.3
		l4.05,3l0.45-0.9L90.85-81.2z"/>
</g>
</svg>
