<?xml version="1.0" encoding="utf-8"?>
<!-- Generator: Adobe Illustrator 17.0.0, SVG Export Plug-In . SVG Version: 6.00 Build 0)  -->
<!DOCTYPE svg PUBLIC "-//W3C//DTD SVG 1.1//EN" "http://www.w3.org/Graphics/SVG/1.1/DTD/svg11.dtd">
<svg version="1.1" id="图层_1" xmlns="http://www.w3.org/2000/svg" xmlns:xlink="http://www.w3.org/1999/xlink" x="0px" y="0px"
	 width="408px" height="239px" viewBox="0 0 408 239" enable-background="new 0 0 408 239" xml:space="preserve">
<g transform="translate(216.1,107.979)">
	<path fill="#FFFC00" d="M-169.25-5.5l4.95,0.3c2,0.033,2.683-0.05,2.05-0.25l-0.35-0.05H-169.25z M-178.95-15.9l0.95-0.3
		l-3.35-0.05L-178.95-15.9z M-182.15-16.4v-0.1h1.8l-1.6-0.1l-0.6,0.05l0.45-0.05l-3.9-0.45L-182.15-16.4z M-185.35-10.3
		c-0.367-0.033-0.55-0.1-0.55-0.2l0.85,0.05l-0.9-0.2l-1.85-0.65l-2.95,0.25l-0.85-0.1l-0.5,0.1l1.75,0.45L-185.35-10.3z
		 M-186.75-9.85V-10l-1.2-0.05l0.8,0.2H-186.75z M-196-17.9l1.75-0.15l-3.95-0.45L-196-17.9z M-193.1-12.95h-0.15l-3.65,0.55
		l4.2,1.2l3.8-0.45L-193.1-12.95z M-198.85-17.15l-0.4,0.1l0.4-0.05V-17.15z M-190-15.35h0.2l-2.25-0.75l-5.95-0.65l-2.55,0.1
		l-1.3,0.5c2.067-0.067,3.9,0.233,5.5,0.9l0.15-0.05h0.1c1.333-0.167,3.533-0.133,6.6,0.1L-190-15.35z M-187.85-13.15l0.05-0.25
		l2,0.45l4.65,0.35c-2.2-0.433-3.25-0.733-3.15-0.9l-0.8-0.2l-3.45-0.2l-1.55-0.4l-3.5-0.2l4.85,1.35l1,0.05L-187.85-13.15z
		 M-190.85-14.7v-0.15l-4.2-0.1l0.3,0.05L-190.85-14.7z M-188.1-17.1v-0.15l-4.55-0.3l6.3,0.85v-0.1L-188.1-17.1z M-189.3-18.85
		l-1.3-0.3l-4.35-0.55c-2.067-0.167-4.1-0.167-6.1,0l6.7,0.65l-0.55-0.15l-0.4-0.05L-189.3-18.85z M-185.95-19.1v-0.05
		c2.333,0.067,4.933,0.033,7.8-0.1c3.133-0.133,4.317-0.3,3.55-0.5l-1.65,0.05v-0.2h-4.2l-1.05,0.15l-0.7-0.15l-6.75,0.35
		L-185.95-19.1z M-203.3-18.5l-6.45,0.8l-4.6,2.65c2.067-0.533,4.317-0.85,6.75-0.95c2.5-1.1,5.733-1.65,9.7-1.65l0.1-0.05
		c-0.133,0-0.2-0.033-0.2-0.1h0.85L-203.3-18.5z M-203.8-15.1l2.2-0.2c0.233-0.033,0.167-0.067-0.2-0.1l-0.7-0.15h-0.6L-203.8-15.1
		l-2.35,1.55l2.8-2l-0.95-0.05c-1.367,0-1.767-0.067-1.2-0.2h-0.05l-0.7,0.25l0.65-0.25h-1.55l-1.25,0.2l0.3-0.15l-6.35,0.75
		l-1.65,1.35l1.4-1.3l-0.5,0.1l0.6-0.15l3.9-2.55l-1.7,0.4l1.95-0.5c1.933-0.933,4.067-1.617,6.4-2.05
		c-0.833-0.233-1.017-0.35-0.55-0.35l1.55,0.15l8.8-0.25l5.15,0.55l5.3-0.35l-2.9-0.15v-0.2l2.1,0.05l-16.55-1.65
		c-0.5-0.067-0.75-0.167-0.75-0.3l-2.2-0.3c-0.833-0.133-1.783-0.133-2.85,0l-4.65,0.95l5.05-1.2l15.05,1.3
		c6.433,0.433,12.433,0.417,18-0.05c5.5-1.133,10.75-2.65,15.75-4.55l3.8-1.55c-0.333,0.033-0.417,0-0.25-0.1l0.8-0.4l24.1-9
		l-0.05-0.15l0.8-0.2l1.2-0.45l0.05,0.15l1.5-0.4l0.05,0.15l4.05-1.25l0.05,0.15l2.75-0.8l0.05,0.1l0.65-0.25l2.8-0.65l9.95-1.15
		l-0.5,0.35c-0.2,0.133-0.017,0.217,0.55,0.25l2.75,0.15l0.05-0.1c1-1.633,2.567-2.833,4.7-3.6c0.733-0.3,1.617-0.733,2.65-1.3
		l2.65-1.35c3.633-1.733,7.467-3.217,11.5-4.45l12.1-3.75c4.8-1.367,9.033-2.183,12.7-2.45c5.667-0.4,12.333-0.033,20,1.1l21.6,3.35
		l31.75,2.85l8.1,0.3L30-50.75c5.533-0.333,11.767-1.617,18.7-3.85c9.533-3.067,15.233-4.817,17.1-5.25
		c-0.6-0.567-1.917-1.017-3.95-1.35s-3.367-0.767-4-1.3h7.675c-0.11-0.04-0.185-0.14-0.225-0.3c-0.1-0.3,0.067-0.5,0.5-0.6l2.6-0.25
		c1.267-0.333,1.883-1.133,1.85-2.4c-2.667-0.667-4.733-1.55-6.2-2.65c1.3-0.267,3.317,0.117,6.05,1.15
		c2,0.767,3.517,0.383,4.55-1.15c-0.167-0.5-0.933-0.767-2.3-0.8c-1.333-0.033-2.033-0.367-2.1-1c0.667-0.1,2.917-0.067,6.75,0.1
		c2.833,0.133,4.717-0.183,5.65-0.95c-1.333-0.033-2.267-0.583-2.8-1.65c-0.4-0.767-0.65-2-0.75-3.7c1.233,1.9,2.967,3.383,5.2,4.45
		l-2.55-2.9L82.6-75c0.2-0.467,0.033-0.9-0.5-1.3l-2.45-1.35l-0.9-1.15l5.65,0.35c0.2-0.533,1.117-0.8,2.75-0.8
		c1.567,0.033,2.417-0.283,2.55-0.95c-0.4-1-1.483-1.517-3.25-1.55L83.5-82c0.867-0.767,1.633-1.2,2.3-1.3l-0.15-0.05l5.3-0.45
		c-0.567-0.633-0.983-1.217-1.25-1.75l-5-0.25c-1.533-0.4-2.517-1.2-2.95-2.4c1.133,0.867,2.367,1.4,3.7,1.6
		c1.467,0.233,2.883,0,4.25-0.7c1.567,1.167,2.917,2.483,4.05,3.95l0.5,0.1c0.4-1.3,0.317-2.467-0.25-3.5l-1.15-1.45l-0.7-0.45
		c0.033-0.1,0.117-0.15,0.25-0.15l-1-1.1c-0.2-0.367-0.167-0.683,0.1-0.95c1.3,0.1,2.233,0.8,2.8,2.1l-1.25-3.55
		c1.6,0.933,2.983,1.483,4.15,1.65l2.75,0.6c-1.633-1.467-4.167-2.617-7.6-3.45l2.5-0.1l2.1,0.75l-1.1-1.6l-4.35-0.8
		c0.367-0.633,0.917-0.95,1.65-0.95l2.1,0.4l-0.3-0.95L97-95.5c0.333-0.067,0.567-0.283,0.7-0.65L95.75-97
		c-0.9-0.433-0.85-0.733,0.15-0.9l1.7,0.4c0.067-0.433,1.05-0.083,2.95,1.05l-0.35-1.3l-1.25-1.55c0.8,0.067,1.8,0.517,3,1.35
		c1.167,0.8,1.9,1.517,2.2,2.15c-0.433-1.167-1.067-2.333-1.9-3.5l-2.65-0.3c-0.967-0.167-1.6-0.483-1.9-0.95l1.9-0.4l1.5,0.15
		l-1.2-1.2l3.15-0.15L101.1-103c-0.767-0.333-1.317-0.7-1.65-1.1c2.6-0.267,4.533,0.567,5.8,2.5c2.3,0.833,4.533,2.033,6.7,3.6
		l0.65,0.45c0.333-0.233,0.25-0.667-0.25-1.3c-0.767-0.9-1.217-1.617-1.35-2.15l2.4,2.4c0.879,0.932,1.395,1.648,1.55,2.15
		l-0.05-0.35c-0.2-0.5-0.25-0.733-0.15-0.7c0.333,0.033,0.617,0.183,0.85,0.45l1.1,0.15l1.15-0.1c0.8-0.033,1.167-0.217,1.1-0.55
		c-0.533-3.8-0.817-6.25-0.85-7.35c-0.067-1.8,0.233-2.817,0.9-3.05s2.35,0.95,5.05,3.55c2.5,2.433,4.133,4.267,4.9,5.5
		c0.6,0.967,1.517,1.317,2.75,1.05l0.05-3.15c0.167-1.167,0.717-1.433,1.65-0.8l1.8,1.9l1.5,2.2l0.9,0.15
		c0.433-0.133,1.2,0.333,2.3,1.4c0.867,0.833,1.383,0.783,1.55-0.15c0.333,0.467,1.317,1.283,2.95,2.45
		c1.3,0.933,2.117,1.983,2.45,3.15c2.5,2.167,4.5,3.733,6,4.7l3.1,2.35l8.75,9.3c3.467,4.3,7.9,8.483,13.3,12.55l7.3,4.5
		c1.9,1.533,3.533,3.65,4.9,6.35l0.8,2.1c0.233,1,0.217,1.683-0.05,2.05c-0.433,0.567-0.5,1.517-0.2,2.85
		c0.333,1.333,0.367,2.217,0.1,2.65l-1.2,2.45c-0.467,0.867-1.083,1.417-1.85,1.65c-3.667,1.333-6.017,2.15-7.05,2.45l-6.3,0.4
		c-1.033-0.667-1.767-1.367-2.2-2.1l-0.8-0.85l-0.65-0.5L154.15-44c-1.733-0.7-3.15-1.133-4.25-1.3l-12.05-0.95
		c-3.833-0.133-7.633-1.067-11.4-2.8h-0.3l-0.05,0.7c-6.267,11.867-10.9,21.333-13.9,28.4c-0.833,1.967-2.433,4.383-4.8,7.25
		l-8.1,8.6c-2.067,1.933-3.483,3.7-4.25,5.3l-0.8,5.55c-0.567,3.667-2.4,8.417-5.5,14.25c-0.633,1.2-1.6,2.417-2.9,3.65l8.7,4.95
		c3.967,2.133,6.95,3.867,8.95,5.2c0.7,0.133,1.867,0.65,3.5,1.55l3.6,2.05c2.233,1.2,4.3,2.9,6.2,5.1l5.4,7.65
		c2.533,3.133,5.4,7.067,8.6,11.8l7.05,8.25c0.9,0.933,1.35,1.567,1.35,1.9c0.333,1.4,0.267,3.117-0.2,5.15
		c-0.567,2.533-0.817,4.95-0.75,7.25c0.033,0.6,0.5,3.017,1.4,7.25c0.633,4.033,0.4,6.2-0.7,6.5c-2.433,0.667-5.1-0.067-8-2.2
		c-2.733-2.033-4.533-4.383-5.4-7.05c-0.533-1.433,0.1-3.1,1.9-5c2.133-2.233,3.267-3.817,3.4-4.75c-0.067-0.967-0.483-1.6-1.25-1.9
		l-2.2-0.75c-0.3-0.167-0.633-0.983-1-2.45l-1.3-4.05l-0.3-0.7c-2.067-4.433-4.217-8.033-6.45-10.8
		c-3.067-3.733-6.667-6.433-10.8-8.1c-0.8-0.333-1.633-0.8-2.5-1.4l-7.2-4.65l-1.35-0.2l1.1,1.05c1.367,1.7,2.05,3.65,2.05,5.85
		c-0.667,1.4-2.133,3.433-4.4,6.1l-2.5,3.15c-1,1.4-2.533,4.283-4.6,8.65L83.8,79.1c-0.533,0.967-1.1,1.567-1.7,1.8
		c-1.833,0.733-4.6,1.383-8.3,1.95c-3.5,0.533-5.767,1.05-6.8,1.55c-2.8,1.767-4.317,2.617-4.55,2.55l-4.2,1.7L54,89.8
		c-0.4-1.133-0.517-2.467-0.35-4c0.233-1.867,0.75-3.85,1.55-5.95c0.967-2.567,2.083-4.467,3.35-5.7c1.533-0.267,3.5,0.1,5.9,1.1
		c2.5,1.033,4.467,1.467,5.9,1.3c1.267-0.4,1.917-1.283,1.95-2.65c0.033-1.9,0.117-2.983,0.25-3.25c2.667-0.967,5.35-2.867,8.05-5.7
		c2.5-2.633,4.483-5.467,5.95-8.5c-1.667-1.033-4.367-1.7-8.1-2l-9.4-0.8L57,50.95c-3.033-0.767-5.367-1.2-7-1.3
		c-3.267-0.133-7.033-0.783-11.3-1.95c-3.667-1-5.767-1.75-6.3-2.25c-2.333-2.233-3.25-4.2-2.75-5.9c1.1-1.767,1.75-3.2,1.95-4.3
		c0.033-0.4,0.183-0.967,0.45-1.7c-1.467-0.467-3.533-0.767-6.2-0.9L18.9,32.2c-8.6-1.1-16.433-3.217-23.5-6.35
		c-6.567-2.9-13.183-6.983-19.85-12.25c-1.833-1.033-3.5-1.867-5-2.5c-2.467-1.1-4.667-1.65-6.6-1.65
		c0.267,4.733-0.183,9.283-1.35,13.65c0.233,3.133-0.583,6.983-2.45,11.55c-0.733,1.833-3.1,6.75-7.1,14.75l-2.7,4.9
		c-1.367,2.467-2.083,4.067-2.15,4.8l-0.45,3.1c-0.6,3.567,0.367,8,2.9,13.3c1.433,3.033,3.883,7.6,7.35,13.7
		c1.267,1.633,2.683,3.95,4.25,6.95l7.05,11.1c2.467,4.067,4.05,7.7,4.75,10.9c-2.933,1.733-6.317,1.833-10.15,0.3
		c-3.2-1.3-6.067-3.383-8.6-6.25c-0.3-0.867-0.067-2.033,0.7-3.5c0.667-1.3,0.533-2.65-0.4-4.05c-0.433-0.4-1.133-0.5-2.1-0.3
		l-2.95-0.05c-0.933-0.333-1.917-1.667-2.95-4c-1.2-2.667-2.017-5.8-2.45-9.4l-0.25-1c-1.067-3.667-2.617-7.817-4.65-12.45
		l-2.8-5.95l-3-10.35c-0.733-2.067-0.967-3.85-0.7-5.35v-1.25l-0.05-0.1l0.05,0.05c0.2-1,1.067-2.4,2.6-4.2
		c1.433-1.7,2.15-2.917,2.15-3.65L-61.8,44l-2.65,1.55l-5.85,5.2c-2.2,1.8-4.85,3.617-7.95,5.45l-6.55,3.75
		c-4.267,2.467-6.817,4.033-7.65,4.7c-3.6,2.867-5.633,7.4-6.1,13.6c-0.3,4.033,0.117,9.8,1.25,17.3l0.45,4.4l1.65,5.65
		c0.8,2.533,1.183,4.383,1.15,5.55c-0.033,0.8-0.283,1.817-0.75,3.05c-0.267,0.733-0.167,1.5,0.3,2.3
		c2.8,4.833,4.417,8.15,4.85,9.95c0.733,3.133-0.667,4.65-4.2,4.55c-2.733-0.1-5.567-0.767-8.5-2c-3.6-1.567-5.383-3.4-5.35-5.5
		l0.95-2.85c0.233-0.633,0.8-1.367,1.7-2.2c1.033-1.833,1.067-2.9,0.1-3.2c-1.8-0.533-2.817-0.967-3.05-1.3l0.95-4.25
		c0.467-1.8,0.717-3.25,0.75-4.35c0.033-0.8-0.083-2.533-0.35-5.2l-0.35-5.2c0.033-2.8-0.283-5.433-0.95-7.9
		c-0.867-3.033-1.35-5.083-1.45-6.15c-1.967-7.833-3.083-13.35-3.35-16.55c-0.467-5.167,1.117-9.5,4.75-13l6.4-6.15
		c0.867-1.033,2.517-3.933,4.95-8.7c0.533-2.667,0.867-4.95,1-6.85c0.3-3.5-0.367-6.983-2-10.45l-4.95-10.15
		c-2.2-4.567-3.433-7.6-3.7-9.1c-0.533-2.767-0.983-6.75-1.35-11.95c-0.433-6.4-0.45-11.65-0.05-15.75l-16.5,11.45l-2.2,1.3
		l-0.1,0.15l-1.05,1.05c-1.233,1.233-2.75,2.533-4.55,3.9c-3.267,2.367-6.917,4.167-10.95,5.4c-3.567,1.1-7.467,1.75-11.7,1.95
		c-3.5,0.2-7.367,0.1-11.6-0.3l-5.95-0.6c-3.2-0.767-6.75-1.35-10.65-1.75l-1.75-0.5l-8.45-0.8l2.2,0.1c0.3,0,0.167-0.05-0.4-0.15
		c-0.6-0.133-0.75-0.2-0.45-0.2l6.25,0.6V-6.3l-9.75-1c-0.467-0.1-0.467-0.167,0-0.2l11.4,1l-0.7-0.25l11.6,1.4V-5.5l-1.8-0.2
		l0.05-0.25l-9.4-1.45l-2.95-0.9l-4.05,0.45l1.55-0.25c0.267-0.033,0.133-0.067-0.4-0.1c-0.533,0-0.667-0.033-0.4-0.1l2.3-0.25
		l-0.3-0.1l-5.15,0.6c-0.3,0.067-0.317,0.017-0.05-0.15l4-0.8l-1.85-0.5h-0.1l-0.9-0.2l-1.2,0.1l1.2-0.15l-0.15-0.05l-3.2-0.2
		l-4.8,2.6c1.567-1.1,3.033-1.967,4.4-2.6l-6.35-0.2l6.75,0.05l0.75-0.35l-3.85-1.5l-3.2,0.9l2.95-0.95l-6.35-0.4l2.75-0.05
		c0.3,0,0.15-0.05-0.45-0.15c-0.6-0.067-0.75-0.117-0.45-0.15l5.1,0.6l0.25-0.1l-9.05-0.9c-0.567-0.1-0.567-0.15,0-0.15l9.5,0.7
		l-2.1-0.6l2.65,0.7l3.4-0.6l-1.25-0.4c-0.033-0.1-0.233-0.217-0.6-0.35l-0.7-0.4l-1.05,0.2l0.95-0.25l-0.05-0.05l-0.75-0.25
		l-1.85,0.3c-0.267,0.033-0.25-0.033,0.05-0.2l1-0.35L-203.8-15.1z M-204.7-16.05l0.65,0.05l1.8-0.15l0.95-0.45L-204.7-16.05z
		 M-205.65-18.95l-1,0.05l-2.65,1l6.85-0.85h1.35l-2-0.25l2.45,0.25c0.3,0,0.167-0.067-0.4-0.2c-0.5-0.133-0.633-0.2-0.4-0.2
		l5.7,0.6v-0.15l-7.1-0.8L-205.65-18.95z M90.85-81.6c-0.8-0.533-1.833-0.967-3.1-1.3l4.05,3l0.45-0.9L90.85-81.6z"/>
</g>
</svg>
