<?xml version="1.0" encoding="utf-8"?>
<!-- Generator: Adobe Illustrator 17.0.0, SVG Export Plug-In . SVG Version: 6.00 Build 0)  -->
<!DOCTYPE svg PUBLIC "-//W3C//DTD SVG 1.1//EN" "http://www.w3.org/Graphics/SVG/1.1/DTD/svg11.dtd">
<svg version="1.1" id="图层_1" xmlns="http://www.w3.org/2000/svg" xmlns:xlink="http://www.w3.org/1999/xlink" x="0px" y="0px"
	 width="432px" height="245px" viewBox="0 0 432 245" enable-background="new 0 0 432 245" xml:space="preserve">
<g transform="translate(222.75,107.392)">
	<path fill="#FFFC00" d="M-115.95-31.85c0.067,0.133,0.65-0.1,1.75-0.7l0.3-0.8l-0.5,0.35l-0.2,0.35L-115.95-31.85z M-112.75-41.45
		l-2.1,0.8l0.45,0.05L-112.75-41.45z M-116.9-39.55l-0.3,0.2h0.3l0.65-0.3L-116.9-39.55z M-108.5-44.05l0.1-0.15l-6.1,1.15
		l-1.95,0.7L-108.5-44.05z M-200.4-24.05l-0.65,0.4l0.3-0.05l0.75-0.4L-200.4-24.05z M-192.85-20.8l-0.5,0.2l-1.45,0.25l-3.5,1.45
		l4.85-1.1l2.2-0.95L-192.85-20.8z M-194.25-18.95l-0.05-0.1l-5.35,2.95l-0.1,0.1l1.3-0.35l0.3-0.2l-0.4,0.1
		c-0.467,0.2-0.583,0.217-0.35,0.05C-198.5-16.7-196.95-17.55-194.25-18.95z M-204.6-20.65l3.85-0.7l4.65-2l-1,0.15v-0.2l1.95-0.3
		l-5.8,0.5L-204.6-20.65l1.55-1.15c0.2-0.167,0.083-0.133-0.35,0.1l-0.4,0.1l2.1-1.5l-0.3,0.05l-4.15,2.85l1.35-0.25l-0.6-0.05
		L-204.6-20.65z M-191.95-23.1l2.85-1.05l-5.25,0.6l-4.95,1.95l4.95-0.75v-0.15l-1.7,0.25l-0.05-0.25L-191.95-23.1z M-183.1-19.55
		v-0.15l-1.65,0.3l-0.05-0.3l7.9-1.3c3.067-0.533,4.25-0.85,3.55-0.95L-175-21.7l-0.05-0.2l-10.7,1.5l-0.05-0.2l1.25-0.2l-4.8,0.45
		l-2.55,1l-1.5,0.4l-4.85,2.55l5.1-1.15l-0.55-0.05L-183.1-19.55z M-187.05-23.75l0.1-0.05v-0.1l-0.45,0.1l-0.05-0.15l-2.55,0.6
		L-187.05-23.75z M-190.7-25.15l2.7-0.7l-11,1.5l-0.95,0.55L-190.7-25.15z M-187.55-28.65l-3.05,0.85
		c2.9-0.533,4.083-0.85,3.55-0.95L-187.55-28.65z M-198-27.2l-0.05-0.2l1.8-0.35l-3.3,0.45h-0.05l-5.1,3.15l6.3-1.65l4.1-2.05
		L-198-27.2z M-184.9-37.9h-0.1l-0.75,0.5c1.633-0.4,2.2-0.617,1.7-0.65L-184.9-37.9z M-185.3-34.8l1.65-0.3l0.1-0.05h0.15
		l5.15-0.95h-0.3l-4.45,0.6l-0.45,0.3l0.3-0.25l-1.25,0.2L-185.3-34.8z M-171.85-41.85l5.15-1.25c1.7-0.4,2.35-0.633,1.95-0.7
		l-1.2,0.2l-0.05-0.2c-2.367,0.3-4.967,0.867-7.8,1.7l-0.1-0.15l1.8-0.6l-3.05,0.7c-0.933,0.2-2.283,0.7-4.05,1.5l1.85-0.25
		c-0.367-0.033-0.433-0.1-0.2-0.2l0.95-0.2L-171.85-41.85z M-213.25-24.2c-0.467,0.333-0.75,0.45-0.85,0.35l-2.65,1.9
		c3.633-1.7,7.2-3.083,10.7-4.15c2.867-1.433,6.317-2.733,10.35-3.9l-0.05-0.15l-1.65,0.5l-0.1-0.25l10-3.15
		c-4.2,0.733-7.9,1.6-11.1,2.6l-0.05-0.15l1.3-0.4l-3.05,0.7c-1.4,0.333-3.3,1.05-5.7,2.15
		C-208.733-26.917-211.117-25.6-213.25-24.2z M-211.85-22.05c0.257-0.184,0.524-0.367,0.8-0.55c-0.514,0.301-1.031,0.601-1.55,0.9
		l-1.5,0.95l1.5-0.4l1.6-1.15c0.233-0.167,0.1-0.117-0.4,0.15C-211.933-21.917-212.083-21.883-211.85-22.05z M-206.5-20.1l0.05-0.1
		l0.1-0.05l-0.8,0.15l0.8-0.2l3.4-2.55l-5.1,1l-3.6,2.95L-206.5-20.1z M-207.55-22.55l0.25-0.2l-2.3,0.85L-207.55-22.55z
		 M-206.65-22.95l-0.25,0.2l1.6-0.5l-0.05-0.15L-206.65-22.95z M-203.05-23.3l-1.45,0.15l-1.6,0.45l4-0.75l0.4-0.25L-203.05-23.3z
		 M-203-31l-1.725,0.825c0.594-0.262,1.186-0.504,1.775-0.725L-203-31z M-206.65-25.05l-0.1-0.1c-0.551,0.332-1.101,0.666-1.65,1
		C-207.849-24.452-207.265-24.752-206.65-25.05z M-204.1-25.6c-0.067-0.1-0.617,0.05-1.65,0.45c-2.4,1.1-4.667,2.433-6.8,4l6.3-2.35
		l0.3-0.25l4.75-3.1L-204.1-25.6z M-208.25-25l-0.15,0.1L-211-24l-0.75,0.1l-5.4,2.3l-3.5,3l5.85-1.95
		c1.933-1.567,4.383-3.133,7.35-4.7L-208.25-25z M-201.45-30.55c4.626-1.664,10.001-3.081,16.125-4.25
		c-0.137,0.023-0.112-0.044,0.075-0.2l0.15-0.1l-6.7,1.4c-3.067,0.467-6,1.283-8.8,2.45l-1.5,0.35c-1.667,0.6-3.983,1.7-6.95,3.3
		l2-1.15c0.233-0.133,0.1-0.1-0.4,0.1c-0.467,0.167-0.6,0.183-0.4,0.05c0.514-0.288,1.022-0.563,1.525-0.825l-2.225,1.075
		c-2.033,0.967-2.767,1.233-2.2,0.8c2.333-1.467,5.233-2.9,8.7-4.3l-0.45,0.05c3.067-1.3,6.233-2.417,9.5-3.35v-0.1l-1.5,0.45
		l-0.1-0.25l8.15-2.2l0.9-0.55h-0.05l-0.05-0.2c-3.333,0.6-6.65,1.383-9.95,2.35l-0.05-0.2l1.15-0.3l-2.75,0.55
		c-1.167,0.233-2.883,0.8-5.15,1.7l-6.6,3c-0.433,0.233-0.7,0.3-0.8,0.2l-7.6,4.45c9-6.433,20.8-11.033,35.4-13.8l0.85-0.15
		c5.367-2.667,11.367-4.483,18-5.45l1.85-0.4l1.9-0.15c-0.733-0.1-0.533-0.2,0.6-0.3c5.567-0.5,11.117-0.433,16.65,0.2l6.05,0.5
		v-0.15l1.8,0.15v0.15l1.2,0.1l-0.05,0.15l3.6,0.1v0.1c1.2,0.1,2,0.1,2.4,0v0.15l0.6-0.15l10.6-0.25l-0.4,0.3
		c-0.167,0.133-0.017,0.2,0.45,0.2l8-0.05l2.6-3.4c0.633-0.767,1.883-1.7,3.75-2.8l4-1.65l10.3-2.35
		c5.667-1.4,11.05-2.233,16.15-2.5l12.95,0.7l7.25,1c6.633,2.1,12.333,3.567,17.1,4.4c5.6,0.967,11.683,1.417,18.25,1.35h20.1
		l17.85-1.7c6.267-0.9,12.417-2.567,18.45-5c0.667-0.267,2.45-0.6,5.35-1c1.767-0.333,0.95-0.633-2.45-0.9h-1.9L38.5-57.9
		c-1.8,0.4-2.917,0.083-3.35-0.95c1.233-0.033,2.683-0.4,4.35-1.1c1.867-0.767,3.233-1.217,4.1-1.35l3.85-0.5l3-0.9
		c-0.567-1.367-1.533-2.317-2.9-2.85l4.8,0.55c0.5,0.067,0.133-0.667-1.1-2.2l1.65,0.3c0.6,0.433,1.083,0.65,1.45,0.65l4.8-0.5
		l4.65,0.25l-4.75-1.35c-2.067-0.5-3.983-1.65-5.75-3.45c1.833,0.7,5.017,1.05,9.55,1.05l9.2,0.7c0.033-0.667-0.933-1.367-2.9-2.1
		c-2.133-0.8-3.267-1.317-3.4-1.55l8.6-1.4l12.4,1.4c0.533,0,0.817-0.283,0.85-0.85s-0.25-0.917-0.85-1.05l-4.4,0.1
		c-1.867,0.133-2.95-0.217-3.25-1.05c0.5,0.233,0.933,0.35,1.3,0.35l1.6-0.35c1.5-0.533,3.033-0.867,4.6-1L91.55-77l2.7-0.3
		c-0.1-0.667-0.8-1.133-2.1-1.4c-1.433-0.3-2.267-0.7-2.5-1.2c1.267,0.233,2.717-0.017,4.35-0.75l2.3-1.15
		c0.033-0.467-0.65-0.633-2.05-0.5l-4.6,0.5l-2.75-0.65c-0.867-0.4-1.233-1.133-1.1-2.2c1.833,1.2,4.033,1.267,6.6,0.2
		c1.433-0.6,3.367-1.567,5.8-2.9c-2.167-1.033-3.433-2.05-3.8-3.05l2.2,0.7l7.6,0.95c3.033,0.267,4.783,0.017,5.25-0.75
		c-0.733-0.1-1.733-1.4-3-3.9c2,0.867,3.083,0.917,3.25,0.15l-1.1-0.9l2.05-0.05c0.033-0.267-0.133-0.667-0.5-1.2
		c-0.2-0.333-0.033-0.583,0.5-0.75c0.867,0.067,1.933,0.533,3.2,1.4c1.233,0.833,2.017,1.583,2.35,2.25
		c-0.4-1.033-0.983-2.133-1.75-3.3c-0.933-1.333-1.883-2.4-2.85-3.2c1.5-0.533,3.5-0.35,6,0.55c2.267,0.8,4.517,2,6.75,3.6
		c1.833,1.3,3.55,2.217,5.15,2.75c-2.167-3.367-3.733-6.317-4.7-8.85c-1.367-3.5-1.333-5.633,0.1-6.4
		c0.733-0.4,3.967,2.083,9.7,7.45l0.35-0.85c1.067,0.167,2.083,0.65,3.05,1.45l2.4,2.35l-0.1-1.1c0.6,0.067,1.117,0.383,1.55,0.95
		l1.05,1.35l2.2,0.3l0.1-3c0.2-1.033,0.8-1.217,1.8-0.55c0.633,0.433,1.267,1.083,1.9,1.95l1.55,2.3l0.95,0.15
		c0.467-0.133,1.3,0.367,2.5,1.5c0.9,0.833,1.433,0.767,1.6-0.2c0.367,0.533,1.417,1.4,3.15,2.6c1.367,0.933,2.233,2.033,2.6,3.3
		l9.6,7.3l9.35,9.75c3.6,4.467,8.3,8.85,14.1,13.15c3.933,2.167,6.5,3.733,7.7,4.7c2.033,1.633,3.783,3.867,5.25,6.7l0.85,2.2
		c0.267,1.033,0.25,1.75-0.05,2.15c-0.467,0.6-0.533,1.6-0.2,3c0.367,1.4,0.4,2.333,0.1,2.8l-1.2,2.55c-0.5,0.967-1.167,1.567-2,1.8
		l-7.35,2.6l-6.7,0.5c-1.1-0.767-1.867-1.5-2.3-2.2l-0.85-0.9l-0.7-0.5l-11.9-4.55c-1.6-0.4-3.5-1.033-5.7-1.9
		c-1.8-0.733-3.283-1.183-4.45-1.35l-12.75-0.9c-3.967-0.1-7.983-1.05-12.05-2.85l-3.3,0.25c-0.733,0.2-1.45,0.683-2.15,1.45
		l-6.9,5.5c-2.5,2.8-4.917,5.317-7.25,7.55c-3.7,3.7-6.317,6.05-7.85,7.05c-2.267,1.567-3.983,3.183-5.15,4.85
		c-1.467,2.133-2.283,4.65-2.45,7.55L104.8-3.9c-0.067,2.133-0.017,3.883,0.15,5.25c0.467,3.967,0.233,7.783-0.7,11.45
		s-2.35,6.35-4.25,8.05c-2.4,6.733-4.133,11-5.2,12.8c-1.033,1.733-2.733,3.35-5.1,4.85c-0.833,0.933-2.167,2.05-4,3.35l-3.75,2.75
		l-1.85,5.75c-0.6,2.233-0.983,4.283-1.15,6.15L78,63c-0.433,3.133-0.617,6.017-0.55,8.65c-0.067,0.633-0.017,2.583,0.15,5.85
		c0.1,2.433-0.133,4.683-0.7,6.75l-0.6,3.15l-0.6,6.95c-0.267,1.867-0.4,4.1-0.4,6.7c0.167,2.7,0.383,4.55,0.65,5.55l2.25,11.5
		c0.467,1.967,1.5,4.033,3.1,6.2l0.9,0.75l1.85,2.1c2.167,2.867,3.383,4.733,3.65,5.6c0.5,1.333,0.133,2.4-1.1,3.2
		c-1.033,0.7-2.5,1.083-4.4,1.15c-2.5,0.1-4.217,0.083-5.15-0.05c-1.567-0.2-2.967-0.75-4.2-1.65c-1.633-1.167-2.483-2.533-2.55-4.1
		s0.617-3.5,2.05-5.8c-0.133-3.6-1.783-5.65-4.95-6.15c-0.667-1.567-1.017-3.433-1.05-5.6l-0.15-21.5l-0.4-3.1l-1.75-6.05
		c-1.033-3.367-1.533-5.7-1.5-7c0.133-6.4,0.1-11-0.1-13.8l-1.5-11.8l-2.45-9.3l-0.75-0.4l-11.4,13.75L42.5,58.6
		c-1.367,1.433-2.683,3.217-3.95,5.35c-0.667,3.7-2.4,6.867-5.2,9.5H33.3l-2.45,2c-3.133,2.5-7,4.683-11.6,6.55
		c-5.767,2.333-9.683,4.1-11.75,5.3l-2.45,1.15c-0.933,0.433-1.717,0.9-2.35,1.4c-2.767,2.233-4.95,3.833-6.55,4.8
		c-2.7,1.533-5.233,2.317-7.6,2.35c-0.7,0-1.933-0.333-3.7-1c-1.733-0.633-3.1-0.917-4.1-0.85c-1.4,0.067-3.95,0.783-7.65,2.15
		c-3.2,1.167-5.85,1.567-7.95,1.2c0.033-2.7,0.25-4.9,0.65-6.6c0.5-2.033,1.433-4.15,2.8-6.35c0.967-1.6,3.15-2.5,6.55-2.7
		c1.033-0.067,2.15,0.75,3.35,2.45c1.233,1.8,2.567,2.767,4,2.9c1.167,0.5,1.8,0.2,1.9-0.9c0.1-1.367,0.4-2.083,0.9-2.15l11.45-3.1
		c2.9-0.9,5.817-1.967,8.75-3.2c5.8-2.4,9.6-4.633,11.4-6.7l4.2-5.05l4.7-7.65l2.35-6.8c0.8-2.567,1.767-4.883,2.9-6.95L35,37.2
		l0.75-2.45l-9.55-2.7l-0.35,0.05L25.9,32c-3.833-0.867-7.75-1.333-11.75-1.4l-9.6-1.5l-14.4-3.35c-4.833-1.2-9.283-2.5-13.35-3.9
		l-27.45-9.95l-2.75-0.3c-3.4,2.467-7.967,5.35-13.7,8.65c-6.367,3.733-11.367,6.3-15,7.7l-8.4,2.75c-5.133,1.633-9.8,3.25-14,4.85
		c-7.433,1.067-13.933,1.433-19.5,1.1l-9.5-1.6c-4.9,0.5-9.617,2.817-14.15,6.95c-4.133,3.767-7.533,8.433-10.2,14l-2.1,3.9
		l-1.85,5.6c-0.767,2.533-1.5,4.267-2.2,5.2c-0.6,0.8-1.667,1.483-3.2,2.05c-1.5,0.5-2.517,1.2-3.05,2.1
		c-3.033,4.9-5.717,8.667-8.05,11.3c-3.1,3.433-5.367,4.583-6.8,3.45c-1.6-1.267-2.483-4.067-2.65-8.4
		c-0.167-4.267,0.433-7.383,1.8-9.35l8.75-1.3c1.9-0.933,2.533-1.8,1.9-2.6c-1.2-1.467-1.8-2.4-1.8-2.8l3.7-3.4
		c1.533-1.367,2.633-2.667,3.3-3.9c-3.367,2-6.55,3.417-9.55,4.25c-2.7,0.733-6.117,1.183-10.25,1.35
		c-1.167-3.2-0.683-6.55,1.45-10.05c1.833-2.933,4.367-5.4,7.6-7.4c0.933-0.167,2.05,0.25,3.35,1.25
		c1.167,0.9,2.517,1.017,4.05,0.35c0.433-0.333,0.45-0.983,0.05-1.95c-0.467-1.133-0.467-2.083,0-2.85l2.95-3.65
		c1.633-1.867,2.817-3.5,3.55-4.9c1.8-3.333,3.583-7.367,5.35-12.1l2.2-6.2c0.667-1.5,1.333-3.317,2-5.45l1.85-5
		c0.933-2.533,1.667-4.35,2.2-5.45c0.9-1.833,2.1-2.983,3.6-3.45s3.7,0.083,6.6,1.65c3.333,1.8,5.233,2.733,5.7,2.8l8.3,0.35
		c3.533,0,5.817-0.283,6.85-0.85l1.7-0.7c-0.6-2.467-0.283-6.4,0.95-11.8l1.75-9.35l2.95-9.3l-1.05,0.6
		c-2.767,1.5-6.067,2.767-9.9,3.8c-3.5,0.9-6.95,1.5-10.35,1.8l-3.6,0.05c-8,1.633-20.317,3.5-36.95,5.6L-182-18
		c-2.933,0.067-6.217,0.5-9.85,1.3l-1.65,0.1l-8,2l2.35-0.75L-200-15.3c-0.167,0-0.167-0.033,0-0.1l0.2-0.05l0.3-0.2l-1.35,0.35
		l-0.3,0.05c-0.667,0.4-0.867,0.467-0.6,0.2l-1.65,0.3c-0.3,0.033-0.267-0.017,0.1-0.15l2.4-0.8c1.967-1.4,4.017-2.6,6.15-3.6
		l-0.45,0.1l-1.05,0.55l1-0.55l-4.8,1.15l-1.35,0.7l1.1-0.65l-0.4,0.15l-0.85,0.05l-0.8,0.35l-5.85,4.4l4.95-4.05l0.2-0.2l0.2-0.15
		l-7.65,2.6c2.4-1.067,5.167-2.067,8.3-3l4.55-2.65l-5.8,0.9l-0.15-0.05l-5.85,3.55c1.633-1.267,3.433-2.45,5.4-3.55l-1.15,0.15
		c-2.3,0.4-4.55,0.917-6.75,1.55l0.9-0.3c0.267-0.067,0.117-0.067-0.45,0c-0.567,0.1-0.717,0.1-0.45,0l5.85-1.4v-0.15l-6.25,1.5
		l-0.25,0.25l0.2-0.25l-0.4,0.15c-2.567,0.633-3.417,0.75-2.55,0.35l3.55-1.05l3.25-2.9l-0.6,0.15l-2.15,0.85l1.75-0.75l-3.05,0.75
		l-0.9,0.05l-7.3,2.25l-1,0.9l0.85-0.85l-1.8,0.6l1.95-0.75l2.9-2.75l-1.45,0.7l1.75-0.9
		C-213.167-25.167-207.783-28.183-201.45-30.55z"/>
</g>
</svg>
