<?xml version="1.0"?>
<!DOCTYPE svg PUBLIC "-//W3C//DTD SVG 1.1//EN" "http://www.w3.org/Graphics/SVG/1.1/DTD/svg11.dtd">
<svg version='1.1' width='399px' height='228px' xmlns='http://www.w3.org/2000/svg' xmlns:xlink='http://www.w3.org/1999/xlink'>
	<g transform="translate(214.55,122.405)">
		<path d="M -100.85 -34.35 L -100.75 -34.5 L -102.2 -33.6 L -102.55 -33.15 Q -101.9 -33.55 -101.3 -34 Z M -99.3 -37.65 L -99.05 -38.15 L -99.8 -37.55 L -100.2 -37.35 Z M -173.45 -21.35 L -173.45 -21.55 L -178.45 -21.7 L -179.2 -21.55 L -179.95 -21.6 L -182.4 -21.05 L -174.85 -20.95 Q -170.7 -21.05 -171.8 -21.35 Z M -190.35 -11.15 L -191.1 -11.3 L -193.1 -10.75 Z M -189.25 -10.4 Q -188.85 -10.45 -189.65 -10.5 Q -190.45 -10.5 -190.05 -10.6 L -188.45 -10.8 L -188.85 -10.85 L -192.8 -10.5 L -189.85 -10.35 Z M -185.2 -10.05 L -187.2 -10.5 L -189.5 -10.3 Z M -185.55 -11.65 L -185 -11.55 L -183.85 -11.6 L -183.85 -11.7 L -185.55 -11.65 L -183.65 -11.75 L -183.65 -11.7 L -180.05 -11.85 L -182.8 -12.3 L -186.85 -11.9 L -185.6 -11.65 Z M -200.5 -16.5 L -198.25 -17.45 L -202.85 -16.65 Z M -202.05 -15.55 L -199.65 -15.6 Q -199.25 -15.6 -200.05 -15.75 Q -200.85 -15.9 -200.45 -15.95 L -198.5 -15.85 L -201.1 -16.1 L -202.05 -15.55 L -204.4 -14.2 L -201.4 -16.1 L -203.65 -16.15 Q -204.2 -16.2 -203.65 -16.35 L -202.75 -16.45 L -203.55 -16.45 L -204.7 -16.05 L -203.7 -16.45 L -205.45 -16.4 L -206.8 -16 L -206.65 -16.2 L -206.3 -16.35 L -212.8 -15.55 L -214.55 -14.2 L -213.05 -15.5 L -213.65 -15.4 L -213 -15.55 Q -210.95 -17.15 -208.95 -18.15 L -210.75 -17.7 L -208.6 -18.35 Q -204.9 -20.15 -199.95 -20.8 L -202.7 -20.95 Q -199 -21.6 -192.1 -21.15 L -192.7 -21.35 L -185.1 -20.8 L -183.5 -21.1 L -183.5 -21.15 L -183.3 -21.1 L -180.05 -21.8 L -184.25 -22.1 L -184.25 -22.35 L -182.25 -22.2 L -191.65 -23.35 L -199.5 -23.5 L -200.35 -23.65 Q -206.4 -23.15 -210 -22.15 Q -205.35 -23.65 -199.5 -23.9 L -174.25 -22.95 L -150 -26.5 Q -150.5 -26.55 -150.2 -26.65 L -139.55 -28.65 L -130.8 -29.75 L -124.25 -31.3 L -124.3 -31.45 L -123.55 -31.6 L -122.3 -32 L -122.25 -31.9 L -120.95 -32.2 L -120.9 -32.1 Q -117.9 -33.15 -117.05 -33.55 L -117 -33.4 Q -115.05 -34.05 -114.45 -34.5 L -114.4 -34.35 L -113.8 -34.75 L -105.45 -38.2 Q -103.45 -38.9 -102.2 -39.55 L -102.55 -39.05 L -102 -39 L -100.85 -39.4 L -100.4 -39.5 L -99.6 -39.85 L -98.15 -40.2 L -98.1 -40.25 L -97.35 -40.55 L -97.2 -40.65 Q -96.7 -41.35 -96.2 -41.4 L -95.65 -41.6 L -95.75 -41.7 L -95.55 -41.75 L -95.5 -41.65 L -95.45 -41.65 Q -92.05 -43.75 -87.4 -47.7 L -79.8 -54.05 Q -70.45 -61.2 -60.15 -61.8 Q -54.4 -62.1 -45.75 -60.25 L -31.8 -57.35 L -5.25 -55.6 Q 1.55 -55.05 8.45 -55.95 Q 15.55 -56.9 21.35 -59.15 Q 23.3 -59.9 29.65 -63.4 Q 34.8 -66.25 38.9 -67.2 L 40.1 -67.45 L 43.5 -67.7 Q 45.95 -67.6 47 -68.15 Q 47.45 -68.6 46.15 -69.65 Q 44.9 -70.6 46 -71.15 L 50.95 -71.1 Q 53.45 -71.1 54.75 -72.95 L 55.4 -74 L 56.3 -74.25 Q 56.65 -74.5 56 -75.15 Q 54 -75.15 53.2 -74.4 L 52.5 -74.05 L 51.85 -73.9 L 51.1 -74 Q 49.85 -75.25 49.95 -75.65 Q 50.05 -76.05 51.15 -75.95 L 52.1 -75.85 L 56.7 -76.25 L 57.75 -76.45 Q 59.2 -77.6 60.85 -78 L 61.95 -78.2 Q 63.3 -78.6 67 -78.2 Q 70.45 -77.85 72.2 -78.7 L 73 -79.15 Q 73 -79.5 73.95 -79.9 L 74.65 -80.25 Q 74.85 -81.45 73.9 -81.95 L 72.5 -82.4 L 71.35 -82.1 L 69.55 -82.25 Q 68.65 -82.5 68 -83.15 L 71 -83.3 L 71.7 -83.45 Q 76.55 -84.2 80.1 -86 L 81 -86.5 Q 81 -86.9 81.6 -87.1 L 82.85 -87.6 L 83.5 -87.75 L 84.35 -88.1 L 85.1 -88.75 L 84.95 -89.95 L 84.3 -90.15 L 83.1 -90.05 L 79.55 -88.55 Q 77.55 -87.6 76 -88.15 Q 78.25 -88.15 80.05 -89 Q 81.45 -89.65 83.3 -91.25 L 84.1 -92 Q 88.85 -94.6 95 -96.15 L 92.5 -96.5 L 90.5 -96.2 Q 91.35 -96.35 92.5 -97.15 Q 94 -98.15 95 -98.15 L 95.6 -98.3 L 96.6 -98.05 L 97.7 -98.2 L 100.45 -99.25 Q 101 -99.5 101 -100.15 Q 101 -101.95 99.85 -102.2 Q 102.65 -103.1 103.7 -103.1 L 106.5 -103.15 L 107.25 -102.75 L 108 -102.15 L 106.85 -103.35 Q 106.3 -103.2 106.1 -103.8 L 105.9 -105.05 L 108.3 -105.85 Q 111.5 -107 115.75 -110.1 L 116.75 -110.75 Q 117.25 -110.95 117.55 -110.75 L 117.75 -110.5 L 117.95 -108.4 Q 118.1 -107.5 118.7 -106.75 Q 117.85 -110.15 118.15 -115.6 Q 118.5 -121.95 120.45 -122.4 Q 121.15 -122.55 123.55 -118.2 Q 126.4 -113 128.05 -111.5 L 128.2 -113.75 Q 128.35 -116.65 129.4 -117.7 Q 130.1 -118.6 131.4 -115 Q 132.95 -110.8 133.85 -110.5 Q 135.05 -110.65 137.25 -107.45 Q 137.7 -107.7 138.45 -107 L 139.85 -105 L 140.85 -102.75 L 141.7 -102.5 Q 142.3 -102.6 143.6 -100.85 Q 144.6 -99.5 145.05 -100.75 Q 145.4 -100 147.45 -98.05 Q 149 -96.5 149.2 -94.75 L 156.55 -86.95 L 163.25 -77.1 Q 167.1 -70.35 173.7 -63.5 L 179.7 -58.3 Q 182 -55.75 183.3 -51.7 L 183.75 -49.65 Q 183.85 -48.25 183.4 -47.8 Q 182.7 -47.1 182.8 -45.2 Q 182.95 -43.3 182.45 -42.75 L 181 -40.7 Q 180.15 -39.55 179.05 -39.4 L 172.2 -38.2 L 166.3 -38.75 Q 165.05 -39.9 164.6 -41 L 164 -41.9 L 163.45 -42.45 L 161.55 -43.65 Q 160.2 -44.3 159.65 -44.7 L 156.25 -46.7 Q 153.95 -48.05 153.75 -48.15 Q 151.7 -49.05 149.05 -50.65 Q 146.8 -52 145.35 -52.45 L 134.35 -55.15 Q 131.6 -55.65 128.9 -56.8 Q 127.45 -57.35 122.55 -60 L 118.75 -60.05 Q 115.3 -59.45 112.55 -54.7 L 109.05 -47.65 L 107.25 -42.3 L 102.3 -32.8 Q 99.2 -26.95 98.4 -22.85 Q 98.1 -21.2 98.3 -18.35 Q 98.55 -15.25 98.4 -13.95 Q 98.2 -12.4 97.05 -9.15 Q 95.95 -5.9 95.75 -4.25 L 94.75 4.65 Q 94.05 9.55 93.1 12.6 Q 96.4 16 101.95 20.6 L 114.8 31.05 Q 116.25 32.35 117 33.85 Q 118.45 36.75 118.75 40.95 Q 118.9 42.75 117.35 45.2 Q 115.4 48.35 115 49.75 Q 113.85 53.95 113.35 61.1 L 112.55 73.7 Q 108.95 76.45 108.05 77.5 Q 107.05 78.6 104.4 83.05 Q 103.95 83.8 101.6 89.9 Q 99.15 95.45 97.5 94.95 Q 93.9 93.8 92 88.75 Q 90.25 83.95 91.3 79.9 Q 91.85 77.6 95.65 76.7 Q 100.15 75.65 101.05 74.6 Q 102 72.9 101.05 71.05 Q 99.85 68.75 100.15 66.65 Q 105.45 56.4 106.4 53.55 Q 109.35 44.85 106.35 38.3 Q 100.65 35.5 90.2 34.1 L 71.85 32.1 Q 72.85 35.5 73.35 41.7 Q 73.9 48.75 74.5 51.55 Q 74.85 53.3 76.5 57 Q 77.8 60.8 77.15 64.85 L 75.35 70.15 Q 74.15 72.05 70.25 74.05 Q 65.75 76.15 63.95 77.2 Q 61.7 78.5 56.15 83.15 L 48.45 89.6 Q 47.15 90.6 46.15 90.55 Q 43.15 90.4 37.8 88.85 Q 32.7 87.4 31 87.45 L 25.75 87.9 L 21.25 87.7 L 16.9 87 Q 17.05 85.2 18.25 83.2 Q 19.7 80.8 22.1 78.45 Q 25.05 75.5 27.55 74.6 Q 29.8 75.2 32.5 78.1 Q 35.2 81.05 37.3 81.7 Q 39.25 81.95 40.15 80.1 Q 41.4 77.5 41.7 77.25 Q 48.2 77.75 56.3 72.95 Q 64.25 68.25 64.75 64 Q 65.1 60.65 61.45 55.7 Q 56.8 50.05 55 47.15 L 48.95 36.4 Q 46.75 32.2 45.25 30.3 Q 16.35 28.55 2.95 26.6 Q -20.3 23.25 -34.45 16.15 Q -34.45 21.5 -34.7 25.05 Q -35.1 30.4 -36.25 35.65 L -37.75 39.95 Q -39.15 44 -39.2 44.8 Q -39.5 52.15 -34.4 59.8 Q -29.75 66.75 -22.05 71.95 L -18.5 74.6 L -13.25 77.25 Q -9.65 78.95 -8.4 80.2 Q -7.35 81.25 -6.9 83.7 Q -6.45 86 -5.25 87 Q 1.3 92.5 4.7 96.6 Q 9.15 101.95 7.15 103.85 Q 4.9 105.95 -1.55 105.25 Q -7.9 104.55 -10.55 102.05 L -10.55 93.2 Q -11.5 90.2 -12.8 90.95 Q -15.2 92.4 -15.85 92.3 L -18.65 88.15 Q -20.35 85.6 -22.05 84.35 Q -19.85 89.8 -19.3 94.4 Q -18.8 98.6 -19.4 104.7 Q -24.4 105.75 -29.1 101.8 Q -33.1 98.45 -35.35 93.2 Q -35.35 91.85 -33.6 90.1 Q -32.05 88.55 -32.7 86.1 Q -33.1 85.35 -34.6 85.75 Q -36.35 86.25 -37.4 85.4 L -40.6 81.9 Q -43 79.1 -44.9 77.7 Q -49.45 74.3 -56.1 70.6 L -61.9 67.5 Q -64 66.25 -67 64.7 Q -69.95 63.25 -71.65 62.2 L -76.75 59.2 Q -79.25 57.45 -79.65 55.1 Q -80 52.8 -77 48.85 Q -73.65 44.35 -73.45 43.6 Q -72.1 38.3 -71.6 35.35 Q -70.7 30 -71.65 28.55 Q -73.4 25.9 -75.75 23.9 L -90.25 14.35 Q -93.25 12 -97.7 4.5 Q -101.95 -2.7 -103.55 -7.75 Q -105.05 -12.5 -104.05 -19.5 Q -111.55 -12.5 -117.85 -9.35 L -119.95 -8.5 Q -130.05 -2.2 -140 -2.75 L -152.2 -4.65 L -163.4 -5.9 L -180.45 -5.95 L -182.3 -6.3 L -191.6 -6.85 L -188.8 -6.75 Q -188.35 -6.75 -189.25 -6.9 Q -190.2 -7.1 -189.7 -7.1 L -183.2 -6.7 L -183.2 -6.85 L -190.65 -7.3 Q -195.45 -7.75 -193.35 -7.85 L -181.7 -7.2 L -182.25 -7.35 L -170.2 -7.8 L -170.25 -7.95 L -172.05 -7.75 L -172.1 -8.05 L -171.95 -8.05 L -181.35 -9 L -182.05 -9.2 L -189.75 -8.2 L -187.35 -8.75 Q -186.95 -8.85 -187.75 -8.8 Q -188.6 -8.8 -188.2 -8.9 L -183.3 -9.45 L -184.35 -9.5 L -191.5 -8.45 Q -192.05 -8.4 -191.55 -8.65 L -186.9 -9.7 L -189.5 -9.9 Q -190.45 -9.95 -190.45 -10.15 L -190.75 -10.2 L -191.65 -10.05 L -190.95 -10.2 L -194.1 -10.4 Q -196.85 -9.3 -199.05 -7.7 Q -196.95 -9.4 -194.5 -10.4 L -200.8 -10.7 L -194.1 -10.6 L -191.6 -11.4 L -192.55 -11.6 Q -192.5 -11.7 -194.35 -12.2 L -196.8 -12.55 L -200.5 -11.6 L -197.15 -12.6 L -203.65 -13.05 L -200.85 -13.05 Q -200.4 -13.05 -201.3 -13.2 Q -202.25 -13.35 -201.75 -13.4 L -196.25 -12.85 L -195.9 -12.95 L -205.5 -13.9 L -194.7 -13.2 L -194.3 -13.25 L -194.25 -13.25 L -189.25 -13.9 L -192.6 -14.5 Q -192.55 -14.65 -193.85 -14.95 L -195.45 -14.6 L -194 -15 L -194.15 -15 L -195.15 -15.2 L -197.2 -14.75 Q -197.65 -14.7 -197.2 -14.95 L -196.15 -15.3 Z M -199.6 -20.4 L -198.55 -20.45 L -198.45 -20.5 Z M -184.05 -17.9 L -184.05 -18.05 L -185.9 -18.25 L -185.85 -18.55 L -176.75 -17.75 L -175.95 -17.8 L -175.35 -18.25 L -177.85 -18.5 L -178.7 -18.45 L -179.85 -18.2 L -178.95 -18.45 L -179.8 -18.4 L -179.85 -18.55 L -180.55 -18.6 Q -182.8 -18.3 -181.45 -18.7 L -181.35 -18.75 L -182.4 -18.95 L -191.2 -18.55 Z M -190.35 -13.4 L -191.2 -13.5 L -193.65 -13.15 L -188.25 -12.15 L -184 -12.65 L -187.7 -13.6 Z M -187.75 -15.7 L -190.4 -15.5 L -183.55 -14.3 L -183.55 -14.45 L -185.15 -14.75 L -185.1 -15 L -180.35 -14.35 L -177 -14.5 Q -182.35 -14.6 -180.35 -15.05 L -180.25 -15.1 L -183.3 -15.6 L -186.15 -15.5 Z M -191.65 -15.7 L -188.55 -16 L -188.55 -16.15 L -192 -15.8 Z M -187.8 -16.8 L -187.6 -16.8 L -194.2 -17.25 L -196 -17.55 L -197.35 -17.5 L -200.15 -16.5 L -193.8 -15.9 L -193.75 -15.95 L -194 -16.1 L -193.45 -16 L -187.25 -16.7 Z M -183.5 -20.85 L -183.5 -20.9 L -184.4 -20.75 L -181.85 -20.6 L -181.85 -20.75 Z M -208 -18.35 Q -210.7 -17.1 -212.75 -15.6 L -205.8 -16.6 Q -201.95 -18.25 -196.55 -18.45 L -200.4 -18.75 L -201.25 -18.95 Z M -202.6 -16.9 Q -203.5 -16.8 -203.1 -16.95 L -197.05 -17.85 L -196.9 -17.9 L -196.9 -18 Q -200.55 -17.8 -204 -16.8 L -204.6 -16.65 L -203 -16.65 L -202.15 -16.85 Q -201.7 -16.95 -202.6 -16.9 Z" fill="#FAF643"/>
	</g>
</svg>
