<?xml version="1.0" encoding="utf-8"?>
<!-- Generator: Adobe Illustrator 17.0.0, SVG Export Plug-In . SVG Version: 6.00 Build 0)  -->
<!DOCTYPE svg PUBLIC "-//W3C//DTD SVG 1.1//EN" "http://www.w3.org/Graphics/SVG/1.1/DTD/svg11.dtd">
<svg version="1.1" id="图层_1" xmlns="http://www.w3.org/2000/svg" xmlns:xlink="http://www.w3.org/1999/xlink" x="0px" y="0px"
	 width="429px" height="243px" viewBox="0 0 429 243" enable-background="new 0 0 429 243" xml:space="preserve">
<g transform="translate(224.4,103.939)">
	<path fill="#FFFC00" d="M-141.1,36.75c3.167-1.933,5.65-3.583,7.45-4.95c2.6-1.967,4.75-3.983,6.45-6.05
		c-6.067,1-10.2,2.217-12.4,3.65c-2.733,1.8-5,5.2-6.8,10.2L-141.1,36.75z M-116.1-42.4l1.7-0.85l-2.15,0.8L-116.1-42.4z
		 M-117.95-41.45l-0.65,0.1l-0.3,0.2h0.35L-117.95-41.45z M-110.55-45.8l0.1-0.1l-5.7,1.05c-0.567,0.067-1.217,0.3-1.95,0.7
		L-110.55-45.8z M-195.9-20.75l-0.05-0.1l-5.35,2.95l-0.15,0.1l1.35-0.35l0.3-0.2c0.2-0.167,0.067-0.15-0.4,0.05
		c-0.467,0.2-0.6,0.233-0.4,0.1C-199.8-18.767-198.233-19.617-195.9-20.75z M-192.9-22.75l-1.6,0.15l-0.5,0.2l-1.45,0.25l-3.5,1.45
		l4.8-1.1L-192.9-22.75z M-187.45-22.2v-0.2l1.25-0.2l-4.8,0.45l-2.6,1l-1.45,0.4l-4.9,2.55l4.9-1.15l-0.35-0.05l10.65-2l-0.05-0.1
		l-1.65,0.25v-0.25l7.9-1.35c3.033-0.533,4.217-0.833,3.55-0.9l-1.65,0.25l-0.05-0.2L-187.45-22.2z M-193.65-24.9l2.9-1.05l-5.3,0.6
		l-4.9,1.95l4.95-0.75v-0.15l-1.75,0.25v-0.25L-193.65-24.9z M-191.7-25.15l3-0.4l0.1-0.05l-0.05-0.1l-0.4,0.1l-0.05-0.15
		L-191.7-25.15z M-188.75-30.55l-0.45,0.05l-3.05,0.9C-189.35-30.133-188.183-30.45-188.75-30.55z M-201.2-29.1h-0.1l-5.1,3.15
		l6.35-1.65l4.05-2.1l-3.7,0.7v-0.2l2-0.4L-201.2-29.1z M-200.7-26.15l-0.9,0.55l9.25-1.35l2.65-0.7L-200.7-26.15z M-186.6-39.7
		h-0.05l-0.8,0.5c1.8-0.4,2.367-0.633,1.7-0.7L-186.6-39.7z M-179.9-37.9h-0.3l-4.45,0.6l-0.45,0.3l0.3-0.25l-1.25,0.2l-0.85,0.45
		l1.6-0.3l0.1-0.05h0.1L-179.9-37.9z M-167.65-45.4v-0.2c-2.333,0.3-4.95,0.867-7.85,1.7l-0.05-0.2l1.8-0.55l-3.05,0.7l-4.1,1.5
		l1.9-0.25c-0.367-0.033-0.433-0.1-0.2-0.2l0.95-0.2l4.75-0.55l5.15-1.25c1.7-0.4,2.333-0.633,1.9-0.7L-167.65-45.4z M-206.25-22.45
		l3.8-0.7l4.7-2l-1,0.1l-0.05-0.2l1.55-0.2L-202.6-25L-206.25-22.45l1.5-1.2c0.2-0.133,0.083-0.083-0.35,0.15s-0.567,0.267-0.4,0.1
		l2.1-1.5l-0.25,0.05l-4.2,2.85l1.3-0.25l-0.5-0.05L-206.25-22.45z M-208-22.1l3.4-2.6l-5.15,1.05l-3.6,2.95l5.15-1.2L-208-22.1z
		 M-203.75-25.25l0.35-0.25l-1.3,0.4l-1.45,0.15l-1.6,0.45L-203.75-25.25z M-206.95-25.05L-207-25.2l-1.3,0.45l-0.3,0.2
		L-206.95-25.05z M-208.35-26.85l-0.05-0.1l-1.325,0.8C-209.276-26.391-208.817-26.625-208.35-26.85z M-213.5-23.9l-2.25,1.35
		l1.45-0.4l0.05-0.05l0.35-0.05c1.633-0.733,3.633-1.483,6-2.25l0.3-0.25l4.7-3.1l-2.9,1.25l-1.65,0.45l-6.75,3.9l1.55-1.05
		c0.233-0.167,0.1-0.133-0.4,0.1C-213.583-23.733-213.733-23.7-213.5-23.9z M-212.65-25.8l-0.8,0.1l-5.35,2.3l-3.55,3l5.9-1.95
		c1.867-1.533,4.3-3.1,7.3-4.7l-0.75,0.25l-0.3,0.15l0.25-0.15L-212.65-25.8z M-214.95-26c-0.467,0.333-0.75,0.45-0.85,0.35
		l-2.6,1.9c3.233-1.6,6.8-2.983,10.7-4.15c2.833-1.4,6.267-2.7,10.3-3.9v-0.15l-1.7,0.5l-0.05-0.25l10-3.15h-0.05
		c-4.2,0.733-7.883,1.6-11.05,2.6l-0.05-0.15l1.3-0.45l-3.05,0.75c-1.433,0.333-3.35,1.05-5.75,2.15
		C-210.467-28.717-212.85-27.4-214.95-26z M76.25-74.75c0.367,0,0.883-0.117,1.55-0.35c1.533-0.533,3.083-0.867,4.65-1l4.95,0.05
		l2.65-0.3c-0.1-0.7-0.8-1.167-2.1-1.4c-1.433-0.3-2.267-0.7-2.5-1.2c1.267,0.233,2.733-0.017,4.4-0.75
		c0.833-0.367,1.6-0.75,2.3-1.15c0.033-0.467-0.65-0.633-2.05-0.5l-4.65,0.5l-2.7-0.65c-0.867-0.4-1.233-1.133-1.1-2.2
		c1.833,1.2,4.033,1.267,6.6,0.2c1.433-0.6,3.367-1.567,5.8-2.9c-2.167-1.033-3.433-2.05-3.8-3.05l2.2,0.7l7.6,0.95
		c3.033,0.267,4.783,0.017,5.25-0.75c-0.733-0.1-1.733-1.4-3-3.9c2,0.867,3.083,0.917,3.25,0.15l-1.1-0.9l2.05-0.05
		c0.033-0.267-0.133-0.667-0.5-1.2c-0.2-0.333-0.033-0.583,0.5-0.75c0.867,0.067,1.933,0.533,3.2,1.4
		c1.074,0.755,1.791,1.43,2.15,2.025l-1.6-3.025c-0.867-1.333-1.8-2.417-2.8-3.25c1.5-0.533,3.5-0.35,6,0.55
		c2.267,0.8,4.517,2,6.75,3.6c1.8,1.3,3.067,2.05,3.8,2.25l1.75,0.35c-4.2-7.167-5.2-11.367-3-12.6c0.6-0.333,3.083,1.45,7.45,5.35
		l0.6-1.25c1.067,0.167,2.083,0.65,3.05,1.45l2.4,2.4c-0.167-0.3-0.2-0.683-0.1-1.15c0.567,0.067,1.083,0.383,1.55,0.95l1.05,1.35
		l2.2,0.3l0.1-3c0.2-1.033,0.8-1.217,1.8-0.55l1.9,1.95l1.55,2.3l0.95,0.15c0.467-0.133,1.283,0.367,2.45,1.5
		c0.9,0.833,1.433,0.767,1.6-0.2c0.367,0.5,1.433,1.367,3.2,2.6c1.367,0.933,2.217,2.033,2.55,3.3c2.6,2.233,4.733,3.867,6.4,4.9
		l5.75,4.8l6.8,7.4c3.833,4.633,8.55,9.017,14.15,13.15c3.9,2.1,6.467,3.65,7.7,4.65c2.033,1.633,3.783,3.867,5.25,6.7l0.85,2.2
		c0.233,1.033,0.2,1.75-0.1,2.15c-0.433,0.6-0.483,1.6-0.15,3c0.367,1.4,0.4,2.333,0.1,2.8l-1.2,2.55c-0.5,0.967-1.167,1.567-2,1.8
		c-3.867,1.433-6.333,2.3-7.4,2.6l-6.65,0.5c-1.067-0.733-1.833-1.467-2.3-2.2l-0.85-0.9l-0.7-0.5l-11.9-4.5
		c-1.633-0.4-3.533-1.05-5.7-1.95l-4.45-1.35l-12.75-0.9c-3.967-0.1-7.983-1.05-12.05-2.85l-3.3,0.25
		c-0.733,0.2-1.45,0.683-2.15,1.45l-6.9,5.5c-2.5,2.833-4.933,5.367-7.3,7.6c-3.667,3.667-6.267,6-7.8,7
		c-2.3,1.6-4.017,3.217-5.15,4.85c-1.467,2.133-2.3,4.65-2.5,7.55l-0.15,5.3c-0.067,2.1-0.017,3.85,0.15,5.25
		c0.467,3.967,0.25,7.767-0.65,11.4c-0.933,3.667-2.367,6.35-4.3,8.05c-2.367,6.733-4.083,11-5.15,12.8
		c-1.033,1.733-2.733,3.35-5.1,4.85c-0.267,1.333-1.133,4.217-2.6,8.65c-1.233,3.7-1.95,6.817-2.15,9.35l-0.95,6.5
		c-0.433,3.133-0.617,6.017-0.55,8.65c-0.067,0.633-0.017,2.583,0.15,5.85c0.1,2.433-0.133,4.683-0.7,6.75l-0.6,3.15l-0.6,7
		c-0.267,1.833-0.4,4.05-0.4,6.65c0.167,2.7,0.383,4.55,0.65,5.55l2.2,11.5c0.5,1.933,1.55,4,3.15,6.2l0.9,0.75l1.85,2.1
		c2.167,2.867,3.383,4.733,3.65,5.6c0.5,1.367,0.133,2.433-1.1,3.2c-1.033,0.7-2.517,1.083-4.45,1.15c-2.4,0.133-4.1,0.133-5.1,0
		c-1.567-0.2-2.967-0.75-4.2-1.65c-1.633-1.167-2.483-2.55-2.55-4.15c-0.067-1.567,0.6-3.5,2-5.8c-0.067-3.567-1.7-5.617-4.9-6.15
		c-0.667-1.567-1.017-3.433-1.05-5.6l-0.15-21.5l-0.45-3.1c-0.067-0.5-1.067-2.567-3-6.2c-1.9-3.5-2.833-5.867-2.8-7.1
		c0.1-4.267,0.5-8.817,1.2-13.65c0.467-3.233,0.483-6.633,0.05-10.2l-0.25-1.5c-1.433-0.333-2.433-1.55-3-3.65
		c-0.3-1.3-1.367-2.7-3.2-4.2L44.2,58.5l-3.85,4.05c-1.367,1.433-2.683,3.217-3.95,5.35c-0.467,2.733-1.483,5.483-3.05,8.25
		c-1.633,2.933-3.317,4.817-5.05,5.65l-10.6,8.9c-4.333,3.5-7.85,6.567-10.55,9.2l-4,3.65c-2.167,2.867-3.9,4.933-5.2,6.2
		c-2.233,2.167-4.5,3.55-6.8,4.15c-0.667,0.167-1.95,0.15-3.85-0.05l-4.15,0.15c-1.3,0.433-3.6,1.75-6.9,3.95
		c-2.8,1.9-5.267,2.933-7.4,3.1c-0.667-2.633-1-4.817-1-6.55c-0.033-2.133,0.35-4.417,1.15-6.85c0.533-1.7,2.45-3.117,5.75-4.25
		c0.967-0.3,2.233,0.233,3.8,1.6c1.633,1.433,3.167,2.05,4.6,1.85c1.267,0.2,1.8-0.25,1.6-1.35c-0.233-1.333-0.117-2.1,0.35-2.3
		l10.35-5.8c2.033-1.167,4.617-2.9,7.75-5.2c5.033-3.767,8.167-6.867,9.4-9.3l3.85-8.05l7.2-11.45L26,56.6
		c0.8-2.567,1.767-4.883,2.9-6.95l4.15-9c0.433-1.133,0.667-2.267,0.7-3.4c-3.667-1.833-7.583-3.233-11.75-4.2h-0.3l0.05-0.1
		C17.917,32.083,14,31.617,10,31.55l-9.6-1.5L-14,26.7c-4.833-1.2-9.283-2.5-13.35-3.9l-27.45-9.95c-4.4-0.867-8.633-0.55-12.7,0.95
		c-3.633,1.367-7.6,3.533-11.9,6.5l-7.7,5.45l-7.1,4.1c-4.933,2.8-9.567,5.333-13.9,7.6c-1,0.533-3.267,1.783-6.8,3.75l-8.05,4.15
		c-1.533,0.733-3.933,2.1-7.2,4.1l-7.1,4.5c-2.1,1.4-4.25,3.233-6.45,5.5l-13.35,12.95l-5.55,9.55l-3.65,3.15
		c-0.9,0.633-1.9,1.2-3,1.7c-0.733,0.933-1.467,1.583-2.2,1.95l-2.45,1.3c-0.6,0.333-1.383,0.483-2.35,0.45l-3.1-0.2l-4.75,6.1
		c-1.933,2.267-4.167,3.733-6.7,4.4l-0.95,0.15l-0.95-0.15c-2.733-1.3-3.75-4.483-3.05-9.55c0.7-5.133,2.667-7.683,5.9-7.65
		c0.567,0,1.433,0.233,2.6,0.7l3.15,0.25c1-0.367,1.45-1.117,1.35-2.25c-0.133-1.567,0.05-2.733,0.55-3.5
		c0.067-0.1,0.767-0.367,2.1-0.8c1.6-0.533,3.217-1.383,4.85-2.55c0.267-2.733,0.9-5.017,1.9-6.85c1.267-0.967,2.517-1.4,3.75-1.3
		l2.7,0.35l1.75-2.1l-1.1-0.55c-0.567-0.2-0.933-0.383-1.1-0.55c-0.9-0.8-1.233-1.533-1-2.2l2.4-4.1
		c3.8-6.933,7.017-17.733,9.65-32.4l1.65-9.05c0.3-1.867,0.65-3.183,1.05-3.95c1.233-2.1,2.467-3.45,3.7-4.05
		c0.533-0.267,1.933-0.583,4.2-0.95l4.9-0.55c1.467-0.167,3.517-0.683,6.15-1.55c4.5-1.5,7.617-2.85,9.35-4.05l0.45-5.6l2.9-16.6
		l3.7-10.9c-2.733,1.433-5.95,2.633-9.65,3.6c-3.4,0.867-6.717,1.433-9.95,1.7l-3.6,0.05c-8.5,1.667-20.833,3.533-37,5.6
		l-15.05,2.05l-1.7,0.05l-8,2l2.4-0.7l-0.9,0.05c-0.133,0-0.133-0.033,0-0.1l0.2-0.05l0.3-0.2l-1.3,0.35l-0.3,0.05l-0.75,0.4
		l0.15-0.25l-1.7,0.35c-0.3,0.033-0.267-0.017,0.1-0.15l2.45-0.8l6.1-3.6l-0.4,0.1l-1.4,0.7l1.3-0.7l-4.75,1.15l-1.4,0.7l1.15-0.65
		l-0.4,0.1l-0.85,0.1l-0.85,0.35l-3.95,2.9l3.1-2.55l0.15-0.2l0.25-0.15l-7.7,2.55c2.5-1.033,5.267-2.017,8.3-2.95l0.2-0.1
		l4.35-2.55l-5.75,0.9l-0.15-0.05l-5.9,3.55l5.4-3.55l-1.1,0.15l-8.3,2l2.45-0.75c0.233-0.067,0.083-0.067-0.45,0
		c-0.567,0.067-0.717,0.05-0.45-0.05l5.85-1.35l-0.05-0.15l-6.2,1.5l-0.25,0.25l0.2-0.25l-0.4,0.15
		c-2.667,0.633-3.533,0.75-2.6,0.35l3.6-1.05l3.25-2.9l-0.6,0.15l-2.15,0.85l1.7-0.75l-3,0.75l-0.9,0.05l-7.35,2.25l-0.95,0.9
		l0.85-0.9l-1.8,0.65l1.9-0.75l2.95-2.75l-1.45,0.7l1.75-0.9c4.4-3.667,9.783-6.683,16.15-9.05c4.567-1.667,9.883-3.067,15.95-4.2
		l0.2-0.25l0.15-0.1l-6.65,1.4c-3.167,0.5-6.117,1.317-8.85,2.45l-1.5,0.35c-1.867,0.7-4.167,1.8-6.9,3.3l2-1.15
		c0.233-0.133,0.1-0.1-0.4,0.1c-0.467,0.167-0.6,0.183-0.4,0.05c1.633-0.9,3.25-1.667,4.85-2.3l-0.05-0.15l-5.55,2.7
		c-2.167,1.067-2.9,1.333-2.2,0.8c2.467-1.5,5.367-2.933,8.7-4.3l-0.4,0.05c3.067-1.3,6.233-2.417,9.5-3.35l-0.05-0.1l-1.5,0.45
		l-0.05-0.25l8.15-2.2l0.9-0.55h-0.05l-0.05-0.2c-3.467,0.6-6.783,1.383-9.95,2.35l-0.05-0.2l2.25-0.7l-3.85,0.95
		c-1.2,0.233-2.933,0.8-5.2,1.7c-2.3,0.9-4.5,1.9-6.6,3c-0.5,0.3-0.75,0.367-0.75,0.2l-7.6,4.45c9.067-6.5,20.85-11.1,35.35-13.8
		l0.85-0.15c5.467-2.667,11.483-4.483,18.05-5.45l1.85-0.4l1.85-0.15c-0.667-0.1-0.45-0.2,0.65-0.3
		c5.567-0.5,11.117-0.433,16.65,0.2l6,0.45v-0.1l1.8,0.15v0.15l1.2,0.1v0.15l3.6,0.05V-47c1.167,0.1,1.95,0.1,2.35,0v0.15l0.6-0.15
		l10.65-0.3l-0.4,0.35c-0.167,0.133-0.017,0.2,0.45,0.2l7.8-0.05l2.6-2.55l1.45-0.9l4-1.65l10.3-2.35
		c5.667-1.4,11.05-2.233,16.15-2.5l12.95,0.7l7.25,1c6.6,2.133,12.3,3.617,17.1,4.45c5.6,0.967,11.683,1.4,18.25,1.3H0.4l17.85-1.65
		c6.267-0.9,12.417-2.583,18.45-5.05l5.35-1c1.733-0.333,0.917-0.633-2.45-0.9h-1.95l-3.3,1c-1.767,0.4-2.883,0.067-3.35-1
		c1.233-0.033,2.683-0.4,4.35-1.1c1.867-0.767,3.233-1.217,4.1-1.35l3.85-0.5l3-0.85c-0.533-1.4-1.5-2.367-2.9-2.9l4.8,0.6
		c0.5,0.067,0.133-0.683-1.1-2.25c0.533-0.133,1.083-0.017,1.65,0.35c0.6,0.4,1.083,0.6,1.45,0.6l4.8-0.5l4.65,0.25L54.9-66.9
		c-2.067-0.5-3.983-1.633-5.75-3.4c1.833,0.7,5.017,1.033,9.55,1l9.2,0.7c0.033-0.667-0.933-1.367-2.9-2.1
		c-2.167-0.8-3.317-1.317-3.45-1.55l8.65-1.4l12.4,1.4c0.5,0,0.767-0.283,0.8-0.85c0.033-0.567-0.233-0.917-0.8-1.05l-4.4,0.1
		c-1.9,0.133-2.983-0.217-3.25-1.05C75.45-74.867,75.883-74.75,76.25-74.75z"/>
</g>
</svg>
