<?xml version="1.0" encoding="utf-8"?>
<!-- Generator: Adobe Illustrator 17.0.0, SVG Export Plug-In . SVG Version: 6.00 Build 0)  -->
<!DOCTYPE svg PUBLIC "-//W3C//DTD SVG 1.1//EN" "http://www.w3.org/Graphics/SVG/1.1/DTD/svg11.dtd">
<svg version="1.1" id="图层_1" xmlns="http://www.w3.org/2000/svg" xmlns:xlink="http://www.w3.org/1999/xlink" x="0px" y="0px"
	 width="428px" height="223px" viewBox="0 0 428 223" enable-background="new 0 0 428 223" xml:space="preserve">
<g transform="translate(226.35,106.3)">
	<path fill="#BDF109" d="M-197.9-18.75l-1.525,0.65c0.587-0.226,1.262-0.459,2.025-0.7L-197.9-18.75z M-197.15-19.65l-2.8-0.2
		l-4.5,1.1l6-0.45L-197.15-19.65z M-202.5-16.3l1.85-0.95c0.233-0.133,0.1-0.117-0.4,0.05c-0.5,0.133-0.633,0.133-0.4,0
		c0.133-0.078,0.283-0.161,0.45-0.25l-3.2,1.35L-202.5-16.3l7.7-0.35l-0.7-0.15l11.5,0.1v-0.15l-1.75-0.05v-0.25l10.6-0.35v-0.25
		l-11.45-0.35v-0.25l2.35,0.05l-11.9-0.55C-197.75-18.417-199.867-17.567-202.5-16.3z M-196.8-19.6l-0.25-0.05l-1.35,0.45h0.35
		L-196.8-19.6z M-197.25-21.7l-1.5,0.45h0.85l0.9-0.15h-0.25V-21.7l2.35,0.05l7.45-0.55v-0.1H-189v-0.05l-6.35,0.1L-197.25-21.7z
		 M-200-24.9l-1.6,0.1l-3.4,0.85l7.8-0.2v-0.1h-1.55v-0.25c8.333-0.333,11.917-0.667,10.75-1l-1.55,0.1v-0.2l-6.3,0.2l0.1-0.05
		h-2.05L-200-24.9z M-199.6-28.5l-4.475,1.15c1.977-0.453,4.069-0.853,6.275-1.2v-0.15l-1.8,0.3V-28.5z M-172.85-39.35l-0.1-0.2
		l-5.2,1.45l4.9-0.75c1.633-0.567,2.217-0.867,1.75-0.9L-172.85-39.35z M-214.7-22.8l0.15-0.05c0.267-0.167,0.033-0.133-0.7,0.1
		l-0.35,0.4L-214.7-22.8z M-212.95-23.1l-0.6-0.15l-0.9,0.4l1.75-0.1C-212.467-22.983-212.55-23.033-212.95-23.1z M-214.35-20.4
		l4.65-0.2l0.2-0.15L-214.35-20.4l-3.9,0.25l0.25-0.15l0.95-0.25l1.15-1.6l-0.95,0.5l1-0.6l0.4-0.4c-0.2,0.033-0.2,0,0-0.1l0.15-0.1
		l0.2-0.25l-1.25,0.6c-2.267,1.133-3.1,1.45-2.5,0.95l3-1.65h-0.2l-7.8,1.85l-2.5,1.9l2.1-1.75l0.2-0.1
		c2.333-1.8,4.867-3.317,7.6-4.55c-2.2,0.467-4.483,1.4-6.85,2.8c2.867-1.8,5.483-2.883,7.85-3.25l2.5-1.05l-0.85,0.1l1.05-0.15
		l0.7-0.25l-0.3-0.05l0.15-0.05l0.5-0.05l0.55-0.2l-4.3,0.2c-0.467-0.033-0.483-0.1-0.05-0.2l6.35-0.6l0.65-0.2h0.05
		c3.5-1,7.05-1.75,10.65-2.25l2.4-0.6v-0.15l-1.6,0.4l-0.05-0.25l7.65-1.8c2.967-0.667,4.117-1.033,3.45-1.1l-1.6,0.3l-0.05-0.2
		l-5.6,1.05l-1,0.35l-0.75,0.05c-1.633,0.667-4.083,1.45-7.35,2.35c1.8-0.567,3.867-1.3,6.2-2.2l-2,0.45l-0.05-0.2l1.9-0.45l-9,1.65
		l-7.15,0.85l-0.85-0.15l-4.9,0.5c-0.833,0.233-1.7,0.65-2.6,1.25l-1.65,1l1.75-1.15c0.967-0.7,2-1.167,3.1-1.4l5.1-0.5
		c4.2-0.333,7.3-0.767,9.3-1.3l14.95-3.5c7.433-2.8,13.583-4.833,18.45-6.1l2.1-0.7l2.2-0.4c-0.367,0-0.433-0.05-0.2-0.15l0.9-0.2
		l26.55-2.15v-0.15l2.1-0.1v0.15h1.45v0.1l4.15-0.4l0.05,0.1l2.75-0.35V-46l0.7-0.25l12.9-1.6l-0.55,0.35
		c-0.2,0.133-0.017,0.2,0.55,0.2l3.9,0.3c2.9-3.1,5.2-5.017,6.9-5.75l8.65-3.05c5.6-1.4,10.967-2.25,16.1-2.55l13,0.7l7.25,1.05
		c6.633,2.1,12.333,3.567,17.1,4.4c5.6,0.967,11.683,1.417,18.25,1.35h20.1L15-52.55c6.3-0.9,12.45-2.567,18.45-5l5.35-1
		c1.733-0.333,0.9-0.633-2.5-0.9h-1.9l-3.35,0.95c-1.767,0.4-2.883,0.083-3.35-0.95c1.233-0.033,2.7-0.4,4.4-1.1
		c1.833-0.767,3.2-1.217,4.1-1.35l3.85-0.5L43-63.3c-0.5-1.4-1.45-2.35-2.85-2.85l4.8,0.55c0.467,0.067,0.1-0.667-1.1-2.2
		c0.567-0.167,1.1-0.067,1.6,0.3c0.6,0.433,1.083,0.65,1.45,0.65l4.85-0.5l4.65,0.25l-4.75-1.35c-2.067-0.5-3.983-1.65-5.75-3.45
		c1.833,0.667,5.017,1,9.55,1c4.6,0,7.667,0.25,9.2,0.75c0.033-0.7-0.933-1.417-2.9-2.15c-2.167-0.8-3.317-1.3-3.45-1.5l8.65-1.45
		l12.4,1.45c0.5,0,0.767-0.283,0.8-0.85c0.033-0.6-0.233-0.95-0.8-1.05l-4.4,0.1c-1.9,0.133-2.983-0.233-3.25-1.1
		c0.467,0.267,0.9,0.4,1.3,0.4l1.55-0.4c1.533-0.5,3.083-0.817,4.65-0.95l7.6-0.25c-0.1-0.7-0.8-1.183-2.1-1.45
		c-1.433-0.267-2.267-0.65-2.5-1.15c1.267,0.233,2.733-0.017,4.4-0.75l2.3-1.15c0.033-0.5-0.65-0.667-2.05-0.5l-4.65,0.5l-2.7-0.65
		c-0.867-0.4-1.233-1.15-1.1-2.25c1.8,1.233,4,1.317,6.6,0.25c1.433-0.6,3.35-1.583,5.75-2.95c-2.167-1.033-3.417-2.033-3.75-3
		l2.2,0.65l7.6,1c3.033,0.267,4.783,0,5.25-0.8c-0.8-0.1-1.817-1.4-3.05-3.9c2.033,0.9,3.133,0.95,3.3,0.15l-1.1-0.85l2.05-0.1
		l-0.5-1.2c-0.2-0.3-0.033-0.533,0.5-0.7c0.867,0.067,1.933,0.533,3.2,1.4c1.077,0.728,1.802,1.395,2.175,2L107-96.4
		c-0.9-1.333-1.833-2.4-2.8-3.2c1.467-0.567,3.467-0.4,6,0.5c2.2,0.8,4.45,2,6.75,3.6c2.5,1.767,4.05,2.767,4.65,3l1.75,0.55
		c0.4-1,0.217-1.767-0.55-2.3c-0.933-0.667-1.417-1.35-1.45-2.05l3.5,2.3c-0.5-1.267-0.7-3.45-0.6-6.55s0.4-5.017,0.9-5.75
		c1,0.133,2.417,1.45,4.25,3.95l3.55,4.8c-0.133-0.367-0.15-0.733-0.05-1.1c0.6,0.067,1.117,0.367,1.55,0.9l1.05,1.4l2.2,0.3
		l0.05-3.05c0.167-1.033,0.767-1.2,1.8-0.5l1.95,1.9l1.55,2.35L144-95.2c0.467-0.167,1.283,0.317,2.45,1.45
		c0.9,0.867,1.433,0.817,1.6-0.15c0.367,0.467,1.417,1.317,3.15,2.55c1.367,0.967,2.233,2.067,2.6,3.3
		c2.6,2.233,4.717,3.883,6.35,4.95l3.3,2.4l9.3,9.75c3.833,4.633,8.55,9.017,14.15,13.15l7.7,4.7c2.033,1.6,3.767,3.817,5.2,6.65
		l0.85,2.2c0.267,1.033,0.25,1.75-0.05,2.15c-0.433,0.6-0.483,1.6-0.15,3c0.333,1.433,0.367,2.383,0.1,2.85l-1.2,2.55
		c-0.5,0.933-1.167,1.533-2,1.8l-7.4,2.6l-6.65,0.5c-1.033-0.7-1.817-1.45-2.35-2.25l-0.8-0.9l-0.7-0.5l-11.9-4.5
		c-1.6-0.4-3.517-1.05-5.75-1.95c-1.767-0.7-3.25-1.133-4.45-1.3l-12.7-0.95c-3.9-0.033-7.917-0.967-12.05-2.8l-3.3,0.25
		c-0.733,0.2-1.45,0.683-2.15,1.45l-6.9,5.45l-7.3,7.6c-3.7,3.667-6.3,6-7.8,7c-2.3,1.6-4.017,3.233-5.15,4.9
		c-1.467,2.133-2.3,4.65-2.5,7.55L97.35-4.5c-0.067,2.1-0.017,3.85,0.15,5.25c0.6,5,0.8,8.95,0.6,11.85
		c-0.233,4.1-1.233,6.883-3,8.35c2.067,2.133,3.95,5.633,5.65,10.5c1.967,5.733,3.633,9.667,5,11.8l3.2,5.75
		c1.533,2.767,3.133,5.167,4.8,7.2l3.7,4.55c1.567,1.867,2.75,3.8,3.55,5.8l2.25,4.2c0.167,0.433,0.567,1.067,1.2,1.9l1.75,2.65
		c0.9,1.633,2.15,3.483,3.75,5.55l2.15,2.45l10.5,9.35c1.567,1.267,3.65,2.267,6.25,3l3.8,1.3c3,1.167,4.933,2.05,5.8,2.65
		c1.2,0.767,1.667,1.65,1.4,2.65c-0.267,0.833-1.117,1.85-2.55,3.05c-1.5,1.267-2.95,2.167-4.35,2.7c-1.367,0.567-2.9,0.867-4.6,0.9
		c-2.033,0.067-3.467-0.383-4.3-1.35c-0.8-0.967-1.333-2.783-1.6-5.45c-2.233-2.8-4.783-3.433-7.65-1.9
		c-1.5-0.833-2.917-2.1-4.25-3.8l-3.4-4.85L117.4,79.4l-2.25-2.2c-0.3-0.333-1.267-0.983-2.9-1.95c-1.433-0.867-2.517-1.8-3.25-2.8
		c-3.6-4.867-7.15-9.1-10.65-12.7l-9.45-9.3l-13.25-10.9c-1.2-0.833-2.917-2.233-5.15-4.2l-4.55-4H60.2l-4,0.6l-8.3,2.6l-2.95,1.55
		c-2.9,1.733-4.967,3.067-6.2,4l-5.55,4.75c-2.6,2.333-6.017,5.8-10.25,10.4l-4,5.3c-1.533,1.967-2.817,3.833-3.85,5.6l-2.6,3.7
		l-2.95,2.6c-0.733,0.533-1.367,1.167-1.9,1.9L0.4,83.9c-2.633,3.8-4.367,7.633-5.2,11.5c0.467,3.333,2.517,6.55,6.15,9.65
		c4.033,3.4,6.45,6.233,7.25,8.5c-0.533,0.767-1.417,1.3-2.65,1.6l-7.4,0.65c-3.333-0.167-5.4-0.917-6.2-2.25v-6.7
		c-0.2-0.167-0.383-0.217-0.55-0.15l-0.4,0.15c-1.433-2.3-2.567-3.967-3.4-5c-1.5-1.867-3.033-2.667-4.6-2.4
		c-0.533,0.1-1-0.183-1.4-0.85c-0.6-0.933-0.333-2.317,0.8-4.15l7.1-10c3.1-4.167,5.567-7.783,7.4-10.85
		c0.967-1.667,1.9-3.9,2.8-6.7c0.9-2.767,1.683-4.7,2.35-5.8c0.7-1.167,1.567-2.383,2.6-3.65l2.5-3.65l6.1-13l0.7-3.6
		c1.3-4.533,0.333-6.8-2.9-6.8l-14.3-1.9l-14.4-3.4c-4.867-1.2-9.317-2.483-13.35-3.85l-27.5-10c-4.4-0.867-8.617-0.533-12.65,1
		c-3.6,1.333-7.567,3.483-11.9,6.45l-7.7,5.45c-1.133,0.7-3.517,2.083-7.15,4.15c-4.933,2.8-9.567,5.333-13.9,7.6l-6.75,3.7
		c-2.4,1.367-5.083,2.75-8.05,4.15l-14.35,8.65c-2.067,1.4-4.2,3.217-6.4,5.45l-14.4,13.95c-2.9,2.833-5.767,6.183-8.6,10.05
		c-2.2,3.033-3.783,4.817-4.75,5.35l-2.5,1.25c-0.567,0.333-1.333,0.483-2.3,0.45l-3.1-0.2l-4.75,6.15
		c-1.967,2.267-4.2,3.717-6.7,4.35l-1,0.2l-0.95-0.2c-2.733-1.3-3.75-4.483-3.05-9.55c0.733-5.133,2.717-7.683,5.95-7.65
		c0.567,0,1.433,0.25,2.6,0.75l3.1,0.2c1-0.367,1.45-1.117,1.35-2.25c-0.1-1.533,0.1-2.683,0.6-3.45l2.25-0.9
		c1.8-0.633,3.6-1.617,5.4-2.95c3.467-2.6,7.2-6.533,11.2-11.8l6.1-8c2.167-2.933,4.05-5.883,5.65-8.85l1-2.55
		c0.733-1.567,2.083-2.933,4.05-4.1c2.4-1.2,4.217-2.183,5.45-2.95c3.867-2.333,6.883-4.383,9.05-6.15c3.1-2.533,5.5-5.25,7.2-8.15
		c-2.233-0.3-5.583,0.033-10.05,1l-11,2.8c-3.567,1-7.1,2.233-10.6,3.7c-3.867,1.6-6.6,3.067-8.2,4.4l-12.4,10.7l-9.9,9.9
		c-1.167,1.067-4.533,2.35-10.1,3.85c-5.2,1.367-9.8,2.3-13.8,2.8c-2.367,0.433-3.783-0.233-4.25-2
		c-0.267-0.833-0.25-2.25,0.05-4.25c0.133-1.067,0.6-2.533,1.4-4.4c0.6-1.333,1.633-2.583,3.1-3.75
		c0.933-0.733,1.683-1.133,2.25-1.2c0.5-0.067,1.183,0.1,2.05,0.5c0.633,0.3,1.7,1.117,3.2,2.45c1.067,0.967,1.967,1.367,2.7,1.2
		c0.5-0.1,0.833-0.617,1-1.55c0.233-1.1,0.55-1.85,0.95-2.25c0.733-0.733,3.117-2.25,7.15-4.55l7.15-4.1l7.65-5.7l3.7-3.45
		l10.15-12.85c1.4-1.567,2.85-2.833,4.35-3.8l12.6-4.2c7.767-2.5,13.117-4.917,16.05-7.25l2.9-2.9c1.4-1.5,2.383-4.3,2.95-8.4
		c0.733-5.267,1.333-8.517,1.8-9.75c0.967-2.5,2.267-5.3,3.9-8.4c-4.733,2.5-9.25,4.483-13.55,5.95l-2.45,0.75
		c-4.267,2.033-9.933,4.5-17,7.4c-1.6,0.633-3.617,1.083-6.05,1.35l-5.85,0.4c-2.867,0.2-6.55,0.233-11.05,0.1l-16.4-0.8l-1.75-0.25
		l-8.75,0.5l2.6-0.3c0.3-0.033,0.167-0.067-0.4-0.1c-0.6,0-0.75-0.033-0.45-0.1l6.1-0.35v-0.15l-9.65,0.55c-0.5-0.033-0.5-0.1,0-0.2
		l1.4-0.2l0.1-0.1c1.5-0.967,3.2-1.817,5.1-2.55l-3.3,0.2l-0.95-0.15l-2,0.25l-5.85,3.95c1.433-1.367,3.2-2.667,5.3-3.9l-7.35,1.1
		l7.85-1.4l1.15-0.6l-2,0.35c-0.367,0.033-0.367-0.017,0-0.15l3-0.95h-1.9l-1.8-0.25l-2.7-0.05l-3.35,1.95l3-1.95l-5.8,0.55
		l2.65-0.5c0.3-0.067,0.15-0.083-0.45-0.05C-214.5-20.3-214.65-20.333-214.35-20.4z M-209.35-20.6h1.2v-0.15h-0.9L-209.35-20.6z
		 M-209.1-23.35l-0.5,0.15h1.6v-0.15H-209.1z M-202.65-19.75c-0.5,0.267-0.783,0.333-0.85,0.2l-0.05,0.05l-1.55,0.8l0.55-0.05
		l1.9-0.55c0.267-0.1,0.133-0.117-0.4-0.05c-0.5,0.033-0.633,0.017-0.4-0.05l2.05-0.5l-0.45-0.05l-0.65,0.15L-202.65-19.75z
		 M-204.25-22.55l0.25-0.05h-1.7l-1.55-0.25h-1.6l-0.3,0.1l0.25-0.1l-5.6,0.05l-1.25,0.55l-1.25,1.7l8.45-0.65l0.3-0.15
		L-204.25-22.55z M-206.75-21.2l-0.5-0.15l7.3,0.05l3.25-1l-5.35-0.3l-2.1,0.45L-205-22.1l-2.55,0.75l-0.35,0.15H-206.75z
		 M-203.95-26l-3.1,0.8l-1.75,0.2l-3.35,1.15h3.5l0.15-0.05h-1.85l1.9-0.05l7.35-1.95l-0.75,0.05l-0.55,0.15l0.85-0.25L-203.95-26z
		 M-209.2-26l-0.85,0.3l0.8-0.3h-0.9c-1.167,0.4-2.283,0.967-3.35,1.7l4.75-1.7H-209.2z M-207.75-26.45h0.05
		c0.055-0.015,0.113-0.032,0.175-0.05L-207.75-26.45z M-209.75-25.05l-0.05-0.15l-3.7,1.4h0.3L-209.75-25.05z M-209.15-28.15
		L-209.7-28l3.25-0.35v-0.15L-209.15-28.15z M-197.8-29.4l-6.05,1.25l-0.55-0.05l-6.9,0.7l-2.7,1.05l0.5-0.05l4.05,0.05L-197.8-29.4
		z M-216.7-25.3c-0.533,0.267-0.85,0.35-0.95,0.25l-5.95,3.5c2.4-0.9,4.95-1.533,7.65-1.9l1-0.2l0.85-0.35l0.4-0.4
		c0.833-0.667,1.8-1.2,2.9-1.6l-2.65-0.1l-0.95-0.15l-0.25,0.05L-216.7-25.3z"/>
</g>
</svg>
