<?xml version="1.0" encoding="utf-8"?>
<!-- Generator: Adobe Illustrator 17.0.0, SVG Export Plug-In . SVG Version: 6.00 Build 0)  -->
<!DOCTYPE svg PUBLIC "-//W3C//DTD SVG 1.1//EN" "http://www.w3.org/Graphics/SVG/1.1/DTD/svg11.dtd">
<svg version="1.1" id="图层_1" xmlns="http://www.w3.org/2000/svg" xmlns:xlink="http://www.w3.org/1999/xlink" x="0px" y="0px"
	 width="399px" height="230px" viewBox="0 0 399 230" enable-background="new 0 0 399 230" xml:space="preserve">
<g transform="translate(214.65,117.85)">
	<path fill="#FFFC00" d="M-102.7-32.7l-0.4,0.45l1.3-0.8l0.55-0.5L-102.7-32.7z M-97.9-37.5l-0.05-0.05
		c-0.233-0.033-0.5,0.117-0.8,0.45l-0.15-0.1c-0.033,0.067-0.217,0.183-0.55,0.35l0.7-0.8l-1.95,1.25l2.6-0.8L-97.9-37.5z
		 M-175.35-20.05l3.05-0.35l-1.65-0.05v-0.2l-5-0.15l-0.75,0.15l-0.75-0.05l-2.45,0.55L-175.35-20.05z M-187.7-9.6l-2.3,0.2
		l4.3,0.25L-187.7-9.6z M-190.85-10.25l-0.75-0.15l-2,0.6L-190.85-10.25z M-188.95-9.85l-0.4-0.1l-3.95,0.35l2.95,0.2l0.6-0.1
		c0.267-0.033,0.133-0.067-0.4-0.1c-0.567,0-0.717-0.033-0.45-0.1L-188.95-9.85z M-186.05-10.75l0.5,0.15l1.2-0.05v-0.2l0.15,0.05
		l3.65-0.15l-2.75-0.4l-4.05,0.4l1.25,0.2H-186.05z M-196.35-11.85l0.6,0.1l0.05-0.15l-0.2-0.05L-196.35-11.85z M-201-15.6l2.25-0.9
		l-4.6,0.8L-201-15.6z M-202.475-14.65l2.275-0.05c0.267,0,0.15-0.05-0.35-0.15c-0.533-0.1-0.667-0.167-0.4-0.2l2.2,0.1l-1.9-0.2
		h-0.95L-202.475-14.65l-2.425,1.4c1.067-0.8,2.067-1.433,3-1.9l-2.25-0.1c-0.367-0.033-0.367-0.1,0-0.2l0.9-0.05h-0.8l-1.15,0.35
		l1-0.35h-1.75l-1.35,0.4l0.15-0.2c0.133-0.033,0.25-0.083,0.35-0.15l-6.5,0.8l-1.35,1.1l1.1-1.05l-0.6,0.15l0.65-0.2
		c1.2-0.967,2.55-1.833,4.05-2.6l-1.85,0.45l2.2-0.6c2.567-1.233,5.45-2.067,8.65-2.5l-2.75-0.15c2.367-0.4,5.783-0.467,10.25-0.2
		l-0.25-0.15l7.6,0.5l1.6-0.25v-0.05h0.2l3.2-0.7l-4.15-0.3v-0.2l1.9,0.1l-9.3-1.1l-7.85-0.2l-0.85-0.15
		c-4.067,0.333-7.283,0.833-9.65,1.5c3.1-1,6.6-1.583,10.5-1.75l25.25,0.95l24.25-3.55c-0.333,0-0.4-0.05-0.2-0.15l0.85-0.2
		l18.5-2.9l6.6-1.55l-0.05-0.15l0.75-0.15l1.25-0.4l0.05,0.15l1.3-0.35l0.05,0.15c1.733-0.6,3.017-1.1,3.85-1.5l0.05,0.15
		c1.3-0.433,2.15-0.783,2.55-1.05l0.05,0.1l0.6-0.4l11.6-4.75l-0.4,0.5c-0.133,0.167,0.067,0.167,0.6,0l4.7-1.3v-0.1
		c0.267-0.633,0.633-0.95,1.1-0.95l0.55-0.25l-0.1-0.1l0.2-0.05l0.05,0.1h0.15l0.1,0.1l0.1-0.1l0.1-0.15l0.1,0.15l0.1-0.2l0.1,0.1
		L-95.3-41l0.15-0.2l0.75-0.25l0.3,0.45l0.1,0.05c2.033-1.367,4.567-3.35,7.6-5.95l7.35-6.1c6-4.5,12.35-6.933,19.05-7.3
		c3.833-0.2,8.633,0.317,14.4,1.55l13.95,2.9L-5.1-54.1c4.533,0.367,9.1,0.25,13.7-0.35c4.733-0.633,9.033-1.7,12.9-3.2
		c2.6-1,6.317-2.9,11.15-5.7c4.633-2.267,9.483-3.317,14.55-3.15c0.4-0.667,0.267-1.483-0.4-2.45c-0.5-0.667-0.367-1.033,0.4-1.1
		l5.75-0.4c1.733-0.533,2.767-1.583,3.1-3.15c-0.1-0.867-0.9-1.4-2.4-1.6c-1.7-0.2-2.683-0.55-2.95-1.05
		c1.5-0.633,3.433-0.95,5.8-0.95c2.333,0,4.25,0.317,5.75,0.95c0.133-0.5-0.083-1.2-0.65-2.1c-0.267-0.433,0.233-0.617,1.5-0.55
		c2.333,0.9,4.3,1.4,5.9,1.5c2.2,0.167,4.083-0.333,5.65-1.5c0.267-0.933-0.283-1.633-1.65-2.1c-1.8-0.6-2.967-1.267-3.5-2
		c1.067,0.1,2.517,0.117,4.35,0.05l4.35-0.4c0.333-0.833,2.167-1.817,5.5-2.95c2.333-0.8,2.5-2.183,0.5-4.15l-2.3-1.7
		c-1-0.7-1.65-1.3-1.95-1.8l5.7,0.35c0.2,0.033,0.6-0.117,1.2-0.45l7.25-0.8l1.1,0.25l-0.8-0.35c-1.6-0.7-2.633-1.333-3.1-1.9
		l2.15,0.6l3.35-0.35c1.067-0.367,1.817-0.7,2.25-1l1.95-1.6l2.45-1.1c-1.367-0.9-3.35-1.2-5.95-0.9
		c0.767-1.167,2.167-1.783,4.2-1.85c2.033-0.033,3.583,0.483,4.65,1.55l1.25-0.4l-0.6-0.7l-2.35-0.1
		c-0.633-0.067-0.667-0.217-0.1-0.45l1.2-0.15c0.533-0.7,1.217-0.9,2.05-0.6l0.1-0.9c-0.567-0.267-0.783-0.833-0.65-1.7l0.85,0.2
		l0.15-1l1.4,1.35l0.7,0.2c-0.467-1.367-1.05-2.6-1.75-3.7l0.3-1.25c1.7,0.133,3.767,1.067,6.2,2.8c1.2-1.167,2.05-1.633,2.55-1.4
		l0.25,0.15c0.033,0.733,0.517,1.383,1.45,1.95c0.567,0.333,1.5,0.817,2.8,1.45c-0.467-1.933-0.7-4.05-0.7-6.35
		c0-2.6,0.333-4.517,1-5.75c0.8,0.633,1.783,1.967,2.95,4c0.967,1.633,2.05,2.65,3.25,3.05l1.1-0.5c0.467-0.3,0.7-0.133,0.7,0.5
		c0.733,0.067,1.05-0.483,0.95-1.65c-0.133-1.667-0.167-2.583-0.1-2.75c0.433-0.6,0.817,0.133,1.15,2.2c0.4,2.467,0.917,3.8,1.55,4
		c0.8-0.1,1.933,0.917,3.4,3.05c0.3-0.167,0.7-0.017,1.2,0.45c0.533,0.5,1,1.167,1.4,2l1,2.25l0.85,0.25
		c0.4-0.067,1.033,0.483,1.9,1.65c0.667,0.9,1.15,0.933,1.45,0.1c0.233,0.5,1.033,1.4,2.4,2.7c1.033,1.033,1.617,2.133,1.75,3.3
		c2.133,2.467,3.75,4.2,4.85,5.2l2.5,2.6l6.7,9.85c2.567,4.5,6.05,9.033,10.45,13.6c3.1,2.433,5.1,4.167,6,5.2
		c1.533,1.7,2.733,3.9,3.6,6.6l0.45,2.05c0.067,0.933-0.05,1.55-0.35,1.85c-0.467,0.467-0.667,1.333-0.6,2.6
		c0.1,1.267-0.017,2.083-0.35,2.45l-1.45,2.05c-0.567,0.767-1.217,1.2-1.95,1.3l-6.85,1.2l-5.9-0.55
		c-0.833-0.767-1.4-1.517-1.7-2.25l-0.6-0.9l-0.55-0.55l-9.7-5.7c-1.367-0.6-2.933-1.433-4.7-2.5l-3.7-1.8l-11-2.7
		c-1.833-0.333-3.65-0.883-5.45-1.65c-0.967-0.367-3.083-1.433-6.35-3.2l-3.8-0.05c-2.3,0.4-4.367,2.183-6.2,5.35l-3.5,7.05
		l-1.8,5.35l-4.95,9.5c-2.067,3.9-3.367,7.217-3.9,9.95c-0.2,1.1-0.233,2.6-0.1,4.5c0.167,2.067,0.2,3.533,0.1,4.4
		c-0.133,1.033-0.583,2.633-1.35,4.8c-0.733,2.167-1.167,3.8-1.3,4.9l-0.4,3.6c0,0.567,0.25,1,0.75,1.3
		c1.633,0.933,3.017,1.833,4.15,2.7c1.933,1.4,4.833,3.15,8.7,5.25l9.4,5.25l0.05-0.05l2.45,1.65l1.05,0.9
		c1.133,0.9,1.983,1.867,2.55,2.9c1,1.9,1.683,4.233,2.05,7c0.133,1.167-0.317,2.617-1.35,4.35c-1.233,2.033-1.933,3.583-2.1,4.65
		c-0.9,5.5-2.2,11.083-3.9,16.75h-0.1c0,1.667-0.3,2.717-0.9,3.15l-5.75,1.95c-1.333,0.5-3.183,1.567-5.55,3.2l-5.35,5.1
		c-3.033,2.733-4.967,3.717-5.8,2.95c-1.867-1.7-2.683-4.35-2.45-7.95c0.2-3.4,1.183-6.183,2.95-8.35c0.933-1.233,2.7-1.6,5.3-1.1
		l5.8,0.3c0.767-0.567,1.133-1.133,1.1-1.7l-0.3-1.85c-0.033-0.333,0.383-0.683,1.25-1.05l1.9-1.2l2.25-2.8
		c2.567-6.767,2.933-12.467,1.1-17.1l-11.4-0.6l-12.4,0.8l2.1,1.45c1,0.667,2.767,1.467,5.3,2.4c2.4,1.167,4.4,2.85,6,5.05l-0.3,1.4
		c-0.167,0.967-0.183,1.583-0.05,1.85l-0.95,3.65c-0.133,0.9-0.45,1.683-0.95,2.35l-0.45,0.9c-1.033,0.833-2.717,1.717-5.05,2.65
		l-5.4,2.3c-1.533,0.767-4.233,2.583-8.1,5.45L75,62.65c-0.933,0.6-1.733,0.867-2.4,0.8c-1.933-0.2-4.667-0.933-8.2-2.2
		c-3.3-1.167-5.533-1.767-6.7-1.8l-5.25,0.1l-8.8-1.45c0.2-1.233,0.733-2.467,1.6-3.7c1.067-1.533,2.45-3.033,4.15-4.5
		c2.067-1.833,3.95-3,5.65-3.5c1.467,0.5,3.033,1.767,4.7,3.8c1.667,2.067,3.2,3.35,4.6,3.85c1.333,0.267,2.317-0.2,2.95-1.4
		c0.933-1.7,1.5-2.617,1.7-2.75c3.367,0.467,7.3-0.2,11.8-2c4.233-1.667,7.517-3.733,9.85-6.2L76.2,39.45L64.3,36.2
		c-3.033-0.9-5.333-1.433-6.9-1.6c-3.267-0.3-7.017-1.133-11.25-2.5c-3.6-1.167-5.667-2.017-6.2-2.55l-1.4-1.65
		c-10.233,2.4-21.867,2.017-34.9-1.15l-16.35-4.3c-6.533-1.633-12.283-2.7-17.25-3.2l0.05,0.1l-0.4-0.15l-0.85-0.1l-0.05-0.05
		l-6.95,0.4c-0.3,3.633-0.617,6.583-0.95,8.85c-0.567,3.533-1.367,7.017-2.4,10.45l-3.65,8.85l-0.15,2.2
		c4.3,0.9,7.55,1.783,9.75,2.65h0.15c0.567,0.067,1.317,0.483,2.25,1.25l1.5,1.35l7.3,4.45c3.933,2.633,6.917,5.267,8.95,7.9
		c-1.933,2.8-4.95,4.317-9.05,4.55c-3.433,0.2-6.917-0.467-10.45-2c-0.667-0.667-0.967-1.833-0.9-3.5
		c0.067-1.467-0.617-2.633-2.05-3.5c-0.467-0.167-0.9,0.017-1.3,0.55l-1.15,1.55c2.6,4.067,5.95,7.733,10.05,11l3.3,2.95
		c1.7,1.033,3.383,2.05,5.05,3.05c2.267,1.333,3.783,2.45,4.55,3.35c0.667,0.733,1.083,1.917,1.25,3.55
		c0.2,1.567,0.667,2.717,1.4,3.45c4.1,4.067,7.15,7.517,9.15,10.35c2.667,3.833,3.283,6.317,1.85,7.45c-1.6,1.267-4.533,1.5-8.8,0.7
		c-4.2-0.8-7.1-2.1-8.7-3.9l0.7-8.85c-0.467-2.033-1.15-2.833-2.05-2.4c-1.7,0.833-2.75,1.2-3.15,1.1l-2.2-3.8
		c-0.867-1.633-1.667-2.867-2.4-3.7l-7.55-7.2c-1.867-2.067-3.883-3.783-6.05-5.15c-2.667-1.667-4.4-2.85-5.2-3.55l-12.65-9
		c-3.767-3.133-5.85-6.667-6.25-10.6c-1.533-0.6-3.167-1.383-4.9-2.35c-1.9-1.067-3.4-1.833-4.5-2.3l-4.75-2.55
		c-1-0.767-1.667-1.7-2-2.8c-0.433-1.533,0.167-3.733,1.8-6.6c1.867-3.267,2.833-5.15,2.9-5.65c0.233-1.967,0.083-3.85-0.45-5.65
		c-0.467-1.6-1.167-2.95-2.1-4.05c-0.933-1.1-1.9-1.883-2.9-2.35l-4.85-3.15l-3.9-3.2c-1.7-1.567-3.533-4.367-5.5-8.4
		c-1.967-3.967-3.417-7.817-4.35-11.55v0.1c-1-3.367-1.05-7.633-0.15-12.8c-5.267,5.1-10.167,8.767-14.7,11l-2.1,0.85
		c-6.633,4.2-13.333,6.117-20.1,5.75l-12.15-1.9L-163.9-5l-17.05-0.05l-1.85-0.35l-9.3-0.55l2.8,0.1c0.3,0,0.15-0.05-0.45-0.15
		c-0.633-0.133-0.783-0.2-0.45-0.2l6.5,0.4v-0.15l-10.2-0.8c-0.5-0.1-0.5-0.15,0-0.15l11.7,0.6l-0.55-0.15l12.05-0.45l-0.05-0.15
		l-1.85,0.2v-0.3h0.1l-9.35-0.95l-0.7-0.2l-7.7,1l2.4-0.55c0.233-0.067,0.1-0.083-0.4-0.05c-0.567,0.033-0.717,0-0.45-0.1l4.9-0.55
		l-1.05-0.05L-192-7.5c-0.4,0.033-0.417-0.033-0.05-0.2l4.6-1.05l-2.6-0.2c-0.6-0.067-0.9-0.167-0.9-0.3h-0.3l-0.9,0.1l0.7-0.15
		l-3.15-0.15l-4.95,2.65c1.267-1,2.783-1.9,4.55-2.7l-6.3-0.3l6.7,0.15l2.45-0.85l-0.9-0.15c0-0.133-0.6-0.333-1.8-0.6l-2.45-0.4
		l-3.75,1l3.4-1.05l-6.5-0.45l2.8,0.05c0.333,0,0.183-0.067-0.45-0.2c-0.6-0.1-0.75-0.15-0.45-0.15l5.5,0.55l0.35-0.1l-9.6-1
		l10.8,0.75l0.4-0.1h0.05l5-0.65l-3.35-0.6l-1.25-0.45l-1.6,0.4l1.45-0.4l-0.15-0.05l-1-0.15l-2.05,0.4c-0.3,0.033-0.3-0.033,0-0.2
		l1.05-0.35L-202.475-14.65z M-186.4-17.35l0.05-0.3l9.1,0.85l0.8-0.05c-0.133-0.1,0.05-0.267,0.55-0.5l-3.3-0.2l-1.2,0.3l0.95-0.3
		l-0.9,0.05v-0.15l-0.7-0.05c-1.5,0.2-1.8,0.167-0.9-0.1l0.1-0.05L-182.9-18l-8.85,0.4l7.15,0.6l0.05-0.15L-186.4-17.35z
		 M-188.25-14.8l-2.65,0.2l6.85,1.2v-0.15l-1.6-0.25l0.05-0.3l4.75,0.7l3.35-0.15c-3.433-0.133-4.55-0.333-3.35-0.6l0.1-0.05
		l-3.05-0.5l-2.85,0.1L-188.25-14.8z M-190.85-12.45l-0.9-0.15l-2.45,0.35l5.45,1l4.2-0.5l-3.65-0.9L-190.85-12.45z M-189.05-15.1
		v-0.15l-3.45,0.4l0.35,0.05L-189.05-15.1z M-188.3-15.85l0.2-0.05l-8.4-0.7h-1.35l-2.8,1l6.35,0.6h0.05l-0.25-0.15l0.55,0.05
		l6.45-0.65L-188.3-15.85z M-182.35-19.85l-1.65-0.1l-0.9,0.1l2.55,0.15L-182.35-19.85L-182.35-19.85z M-208.5-17.45
		c-1.8,0.833-3.383,1.75-4.75,2.75l6.95-1c2.667-1.133,5.75-1.75,9.25-1.85l-3.85-0.25c-0.567,0-0.85-0.083-0.85-0.25L-208.5-17.45z
		"/>
</g>
</svg>
