<?xml version="1.0"?>
<!DOCTYPE svg PUBLIC "-//W3C//DTD SVG 1.1//EN" "http://www.w3.org/Graphics/SVG/1.1/DTD/svg11.dtd">
<svg version='1.1' width='401px' height='225px' xmlns='http://www.w3.org/2000/svg' xmlns:xlink='http://www.w3.org/1999/xlink'>
	<g transform="translate(216.75,119.35)">
		<path d="M 83.45 28.2 L 91.8 38.5 L 96.75 42.3 Q 98.25 39.45 100.2 37.95 Q 102 36.4 105.6 37.95 Q 109.85 39.8 111.2 39.5 Q 112.5 38.9 112.65 38.1 L 112.75 36.25 Q 112.85 35.7 113.55 34.55 L 114.75 32.65 L 115.25 31.65 Q 115.85 23.65 112.1 18.3 Q 106.45 18.95 98.1 22.15 Z M -74.1 43.7 Q -70.15 44.95 -62.3 44.85 Q -62.55 40 -63.1 36.75 Z M -103 -34.05 L -104.45 -33.15 L -104.8 -32.7 L -103.5 -33.55 L -103.1 -33.9 Z M -101.2 -37.35 L -100.45 -38.15 Q -101.85 -37.45 -102.05 -37.1 L -102.4 -36.9 L -99.3 -37.75 L -99.4 -37.85 L -99.3 -37.95 L -99.5 -37.95 L -99.7 -38 L -100.1 -37.85 L -100.45 -37.55 L -100.65 -37.65 Q -100.7 -37.55 -101.2 -37.35 Z M -175.7 -20.9 L -175.7 -21.1 L -180.7 -21.25 L -181.45 -21.1 L -182.15 -21.15 L -184.65 -20.6 L -177.05 -20.5 Q -172.95 -20.6 -174 -20.9 Z M -190.7 -10.35 L -191.05 -10.4 L -195.05 -10.05 L -192.1 -9.9 L -191.5 -9.95 Q -191.1 -10 -191.9 -10.05 Q -192.7 -10.05 -192.3 -10.15 Z M -187.45 -9.6 L -189.45 -10.05 L -191.75 -9.85 Z M -187.8 -11.2 L -187.25 -11.1 L -186.1 -11.15 L -186.05 -11.25 L -187.8 -11.2 L -185.85 -11.3 L -185.85 -11.25 L -182.3 -11.4 L -185.05 -11.85 L -189.1 -11.45 L -187.85 -11.2 Z M -192.55 -10.7 L -193.35 -10.85 L -195.35 -10.3 Z M -192.6 -12.95 L -193.45 -13.05 L -195.9 -12.7 L -190.5 -11.7 L -186.25 -12.2 L -189.95 -13.15 Z M -188.15 -17.8 L -188.1 -18.1 L -179 -17.3 L -178.2 -17.35 L -177.6 -17.8 L -180.1 -18.05 L -180.95 -18 L -182.1 -17.75 L -181.2 -18 L -182.05 -17.95 L -182.05 -18.1 L -182.75 -18.15 L -183.8 -18.1 Q -184.1 -18.15 -183.65 -18.25 L -183.6 -18.3 L -184.65 -18.5 L -193.45 -18.1 L -186.3 -17.45 L -186.3 -17.6 Z M -187.4 -14.3 L -187.35 -14.55 L -182.6 -13.9 L -179.25 -14.05 Q -184.6 -14.15 -182.6 -14.6 L -182.5 -14.65 L -185.55 -15.15 L -188.4 -15.05 L -190 -15.25 L -192.65 -15.05 L -185.8 -13.85 L -185.75 -14 Z M -190.8 -15.55 L -190.8 -15.7 L -194.25 -15.35 L -193.9 -15.25 Z M -189.5 -16.25 L -190.05 -16.35 L -189.85 -16.35 L -196.4 -16.8 L -198.2 -17.1 L -199.55 -17.05 L -202.35 -16.05 L -196.05 -15.45 L -196 -15.5 L -196.2 -15.65 L -195.65 -15.55 Z M -185.75 -20.4 L -185.75 -20.45 L -186.65 -20.3 L -184.1 -20.15 L -184.05 -20.3 Z M -204.3 -15.1 L -201.9 -15.15 Q -201.5 -15.15 -202.3 -15.3 Q -203.1 -15.45 -202.7 -15.5 L -200.75 -15.4 L -203.35 -15.65 L -204.3 -15.1 L -206.6 -13.75 L -203.6 -15.65 L -205.9 -15.7 Q -206.45 -15.75 -205.9 -15.9 L -204.95 -16 L -205.8 -16 L -206.95 -15.6 L -205.95 -16 L -207.7 -15.95 L -209.05 -15.55 L -208.9 -15.75 L -208.55 -15.9 L -215.05 -15.1 L -216.75 -13.75 L -215.3 -15.05 L -215.85 -14.95 L -215.25 -15.1 Q -213.2 -16.7 -211.2 -17.7 L -213 -17.25 L -210.85 -17.85 Q -207.1 -19.7 -202.2 -20.35 L -204.95 -20.5 Q -201.25 -21.1 -194.35 -20.7 L -194.95 -20.9 L -187.35 -20.35 L -185.75 -20.65 L -185.75 -20.7 L -185.5 -20.65 L -182.3 -21.35 L -186.5 -21.65 L -186.5 -21.9 L -185.05 -21.75 L -193.9 -22.9 L -201.7 -23.05 L -202.6 -23.2 Q -208.65 -22.7 -212.25 -21.7 Q -207.55 -23.2 -201.75 -23.45 L -176.5 -22.5 L -152.25 -26.05 Q -152.75 -26.1 -152.45 -26.2 L -133.05 -29.3 Q -130.05 -29.8 -126.5 -30.85 L -126.5 -31 L -125.75 -31.15 L -124.55 -31.55 L -124.5 -31.45 Q -124.5 -31.35 -123.2 -31.75 L -123.15 -31.65 Q -120.15 -32.7 -119.3 -33.1 L -119.25 -32.95 Q -117.25 -33.6 -116.7 -34.05 L -116.65 -33.9 Q -116.65 -34.05 -116.05 -34.3 L -107.7 -37.75 Q -105.7 -38.45 -104.45 -39.1 L -104.8 -38.6 L -104.2 -38.55 L -103.1 -38.95 L -102.65 -39.05 L -101.85 -39.4 L -99.55 -39.85 L -99.55 -39.95 Q -99.1 -40.9 -98.4 -40.95 L -97.9 -41.15 L -98 -41.25 L -97.9 -41.25 L -97.8 -41.3 L -97.7 -41.2 L -97.6 -41.2 L -97.5 -41.1 L -97.4 -41.2 L -97.3 -41.35 L -97.2 -41.25 L -97.1 -41.35 L -97 -41.4 L -97 -41.45 L -96.9 -41.65 L -96.25 -41.9 Q -96.2 -41.85 -96.15 -41.95 L -96 -41.6 Q -92.55 -43.7 -87.9 -47.65 L -80.3 -54.05 Q -70.95 -61.2 -60.6 -61.8 Q -54.85 -62.1 -46.2 -60.25 L -32.25 -57.35 L -5.75 -55.6 Q 1.05 -55.05 7.95 -55.95 Q 15.05 -56.9 20.85 -59.15 Q 22.8 -59.9 28.95 -63.3 Q 34 -66.05 37.95 -67.1 L 40.35 -67.6 Q 41.55 -68.45 43.55 -68.1 L 46.55 -68.15 Q 47.05 -68.65 46.05 -69.15 Q 45.05 -69.65 45.55 -70.15 Q 45.9 -70.15 46.6 -70.6 Q 47.4 -71.2 47.95 -71.35 L 48.85 -71.45 L 52.55 -71.15 Q 54.85 -72.9 52.65 -73.95 Q 50 -75.25 50.15 -75.65 L 49.75 -76.05 Q 49.65 -76.25 50.05 -76.65 L 50.7 -76.35 Q 52.7 -75.2 55 -76.05 L 57.8 -77.1 L 58.7 -77.3 Q 65.4 -77 69.6 -78.3 L 71.8 -79.1 L 73.55 -79.15 Q 74.15 -81 72.8 -81.3 L 70.55 -81.5 L 68.15 -81.15 L 69.3 -81.45 L 70.2 -81.8 L 77.8 -83.95 L 78.75 -84.45 Q 79.15 -84.6 80.7 -86.45 Q 81.8 -87.75 83.55 -87.15 Q 82.45 -88.25 80.55 -88 L 77.55 -88.15 Q 79.9 -89.85 83.1 -91.1 L 84.1 -91.5 Q 85.5 -92.15 88.35 -92.6 Q 91.15 -93 92.3 -93.6 Q 93.25 -94.05 93.95 -94.85 L 91.5 -94.6 Q 87.35 -93.85 83.55 -95.15 Q 87.25 -94.2 91.7 -95.6 L 92.6 -95.85 Q 95.8 -96.1 98.05 -97.45 L 98.85 -98.05 L 99.9 -99.65 Q 100.45 -100.7 100.5 -101.8 L 103.15 -101.45 Q 104.25 -104.35 106.85 -106.1 Q 109.65 -107.95 112.5 -107.35 L 113.5 -107.35 L 119.6 -108.25 L 121.5 -107.25 Q 120.8 -110.15 120.8 -113.6 Q 120.8 -117.5 121.8 -119.35 Q 123 -118.4 124.75 -115.35 Q 126.2 -112.9 128 -112.3 L 129.1 -112.8 Q 129.8 -113.25 129.8 -112.3 Q 130.9 -112.2 130.75 -113.95 Q 130.55 -116.45 130.65 -116.7 Q 131.3 -117.6 131.8 -114.5 Q 132.4 -110.8 133.35 -110.5 Q 134.55 -110.65 136.75 -107.45 Q 137.2 -107.7 137.95 -107 Q 138.75 -106.25 139.35 -105 L 140.35 -102.75 L 141.2 -102.5 Q 141.8 -102.6 143.1 -100.85 Q 144.1 -99.5 144.55 -100.75 Q 144.9 -100 146.95 -98.05 Q 148.5 -96.5 148.7 -94.75 Q 151.9 -91.05 153.55 -89.55 L 156.05 -86.95 L 162.75 -77.1 Q 166.6 -70.35 173.2 -63.5 Q 177.85 -59.85 179.2 -58.3 Q 181.5 -55.75 182.8 -51.7 L 183.25 -49.65 Q 183.35 -48.25 182.9 -47.8 Q 182.2 -47.1 182.3 -45.2 Q 182.45 -43.3 181.95 -42.75 L 180.5 -40.7 Q 179.65 -39.55 178.55 -39.4 L 171.7 -38.2 L 165.8 -38.75 Q 164.55 -39.9 164.1 -41 L 163.5 -41.9 L 162.95 -42.45 L 161.05 -43.65 Q 159.7 -44.3 159.15 -44.7 L 153.25 -48.15 Q 151.2 -49.05 148.55 -50.65 Q 146.3 -52 144.85 -52.45 L 133.85 -55.15 Q 131.1 -55.65 128.4 -56.8 Q 126.95 -57.35 122.05 -60 L 118.25 -60.05 Q 114.8 -59.45 112.05 -54.7 L 108.55 -47.65 L 106.75 -42.3 L 101.8 -32.8 Q 98.7 -26.95 97.9 -22.85 Q 97.6 -21.2 97.8 -18.35 Q 98.05 -15.25 97.9 -13.95 Q 97.7 -12.4 96.55 -9.15 Q 95.45 -5.9 95.25 -4.25 L 94.45 3 L 103.9 4.75 Q 109.95 5.85 113.6 6.9 L 114.5 7.25 L 114.55 7.15 L 118.7 9.25 Q 120.35 10.2 121.4 11.55 Q 123.35 13.95 124.6 18.1 Q 125.1 19.75 124 22.6 Q 122.75 25.9 122.75 27.5 L 122.4 37.25 L 122.8 41.2 Q 122.65 42.85 122.1 44.2 Q 121.55 45.45 120.95 45.7 L 114.95 46.35 Q 112.85 46.6 108.85 48.25 Q 108.6 48.35 104.65 50.75 Q 100.85 53.1 98.85 53.8 L 98.4 54.7 Q 97.4 57.3 94.4 57.85 Q 92.75 58.55 89.5 59.25 L 84.6 60.45 Q 82.15 61.25 75.7 64.55 L 66.75 69.1 Q 65.3 69.8 64.3 69.55 Q 61.45 68.75 56.5 66.05 Q 51.9 63.5 50.2 63.2 L 45 62.45 L 36.55 59.65 Q 37.1 57.85 38.75 56.2 Q 40.7 54.2 43.55 52.4 Q 47.05 50.2 49.65 49.9 Q 51.75 51 53.7 54.35 Q 55.7 57.85 57.6 58.95 Q 59.5 59.65 60.75 58.05 Q 62.55 55.75 62.9 55.6 Q 68 57.15 75.4 55.35 Q 82.4 53.7 86.2 50.45 Q 84.2 49.35 79.75 47.85 L 73 45.3 L 62.1 39.5 Q 58 37.15 55.7 36.35 Q 52.15 35.25 46.95 32.8 L 41.05 30.1 Q 15.85 28.5 2.6 26.6 Q -18.35 23.6 -31.75 17.6 L -34.9 16.15 Q -34.9 21.5 -35.15 25.05 Q -35.55 30.4 -36.7 35.65 L -38.2 39.95 Q -39.6 44 -39.65 44.8 Q -39.95 52.15 -34.85 59.8 Q -30.2 66.75 -22.55 71.95 L -19 74.6 L -13.75 77.25 Q -10.15 78.95 -8.9 80.2 Q -7.85 81.25 -7.4 83.7 Q -6.95 86 -5.75 87 Q 0.8 92.5 4.2 96.6 Q 8.65 101.95 6.65 103.85 Q 4.4 105.95 -2.05 105.25 Q -8.4 104.55 -11.05 102.05 L -11.05 93.2 Q -12 90.2 -13.3 90.95 Q -15.7 92.4 -16.35 92.3 L -18.85 88.7 Q -20.35 86.35 -21.55 85.2 L -29.6 78.65 Q -32.2 76.1 -34.95 74.6 L -35.25 79.7 Q -40.25 80.75 -45 76.8 Q -48.95 73.45 -51.2 68.2 Q -51.25 66.9 -50.2 65.75 L -56.85 61.3 Q -59.85 58.75 -61.1 55.65 Q -69.1 54 -77.5 53.55 L -87.95 50.95 Q -90.05 50.55 -91.25 49.55 L -91.5 49.55 L -93.85 46.5 Q -94.8 44.8 -94.55 43.1 Q -94.2 40.75 -90.2 37.8 Q -85.65 34.5 -85.25 33.85 Q -83.45 30.85 -82.5 27.75 Q -81.4 24.25 -81.95 22.4 Q -82.7 19.85 -85 18.5 Q -88.15 16.7 -89 15.65 L -90.7 14.35 Q -93.7 12 -98.15 4.5 Q -102.4 -2.7 -104 -7.75 L -104 -8.6 L -104.1 -8.15 Q -105.6 -13.25 -104.25 -21 Q -113.05 -12.4 -120.1 -8.9 L -122.15 -8.05 Q -132.35 -1.75 -142.25 -2.3 L -165.575 -5.45 L -182.65 -5.5 L -184.55 -5.85 L -192.4 -6.35 L -191.05 -6.3 Q -190.55 -6.3 -191.5 -6.45 Q -192.4 -6.65 -191.95 -6.65 L -185.45 -6.25 L -185.45 -6.4 L -192.85 -6.85 Q -197.75 -7.3 -195.6 -7.4 L -183.95 -6.75 L -184.5 -6.9 L -172.45 -7.35 L -172.45 -7.5 L -174.3 -7.3 L -174.35 -7.6 L -174.2 -7.6 L -183.6 -8.55 L -184.3 -8.75 L -191.95 -7.75 L -189.6 -8.3 Q -189.2 -8.4 -190 -8.35 Q -190.85 -8.35 -190.45 -8.45 L -185.5 -9 L -186.55 -9.05 L -193.7 -8 Q -194.25 -7.9 -193.75 -8.15 Q -192.15 -8.8 -189.15 -9.25 L -191.75 -9.45 Q -192.85 -9.5 -192.65 -9.7 L -193 -9.75 L -193.85 -9.6 L -193.2 -9.75 L -196.35 -9.95 Q -199.1 -8.85 -201.3 -7.25 Q -199.2 -8.95 -196.75 -9.95 L -203.05 -10.25 L -196.35 -10.15 L -193.85 -10.95 L -194.8 -11.15 Q -194.75 -11.25 -196.6 -11.75 L -199 -12.1 L -202.75 -11.15 L -199.4 -12.15 L -205.85 -12.6 L -203.1 -12.6 Q -202.65 -12.6 -203.55 -12.75 Q -204.5 -12.9 -204 -12.95 L -198.5 -12.4 L -198.15 -12.5 L -207.75 -13.45 L -196.9 -12.7 L -196.5 -12.8 L -191.5 -13.45 L -194.8 -14.05 L -196.1 -14.5 L -197.7 -14.15 L -196.25 -14.55 L -196.35 -14.55 L -197.4 -14.75 L -199.45 -14.5 L -198.4 -14.85 Z M -205.05 -16.2 L -202.75 -16.05 L -200.5 -17 Z M -204.4 -16.4 Q -203.95 -16.5 -204.85 -16.45 Q -205.75 -16.35 -205.35 -16.5 L -199.25 -17.4 L -199.15 -17.4 L -199.15 -17.55 Q -202.8 -17.35 -206.25 -16.35 L -206.85 -16.2 L -205.25 -16.2 Z M -202.65 -18.3 L -203.5 -18.5 L -210.2 -17.9 Q -212.9 -16.7 -215 -15.15 L -208 -16.15 Q -204.25 -17.8 -198.8 -18 Z" fill="#FAF643"/>
	</g>
</svg>
