<?xml version="1.0"?>
<!DOCTYPE svg PUBLIC "-//W3C//DTD SVG 1.1//EN" "http://www.w3.org/Graphics/SVG/1.1/DTD/svg11.dtd">
<svg version='1.1' width='406px' height='229px' xmlns='http://www.w3.org/2000/svg' xmlns:xlink='http://www.w3.org/1999/xlink'>
	<g transform="translate(213.85,108.077)">
		<path d="M 125.85 48.9 Q 124.45 42.6 121.55 38.35 L 120.4 37.9 Q 119.35 37.5 118.65 36.95 L 107.8 37.5 L 96.6 39.25 L 96.5 39.25 Q 97.55 41.4 100.4 45.4 Q 103.2 49.3 104.25 51.55 Q 107.25 54.05 109.05 56 Q 110 57 112.55 61.2 Q 115.2 65.6 116 66.6 L 120.4 73.35 Q 121.5 71.45 124.85 69.5 Q 128.25 67.55 129.3 65.6 Q 129.95 63.7 128.35 62.45 L 125.9 60.3 Q 127.3 55.65 125.85 48.9 Z M -105.75 -29.25 Q -105.55 -29.25 -103.15 -30.35 L -102.95 -31.2 L -104.5 -30.1 L -104.5 -30.05 L -104.9 -29.85 Z M -161.35 -29.8 L -161.45 -30 L -162.7 -29.35 L -160.3 -30.05 Q -159.6 -30.5 -160.1 -30.45 Z M -185.6 -13.7 L -180.65 -13.45 L -175.95 -13.85 Q -175.3 -14 -175.75 -14.15 L -177.25 -14 L -177.25 -14.25 Z M -182.5 -7.05 L -183.15 -7.2 L -171.95 -7.4 L -171.95 -7.55 L -173.7 -7.5 L -173.7 -7.75 L -165.45 -8.35 Q -160.5 -8.9 -161.8 -9.15 L -163.5 -8.95 L -163.5 -9.15 L -174.6 -8.65 L -174.6 -8.85 L -173.65 -8.875 L -176.9 -8.85 Q -181.55 -8.65 -182.4 -8.85 L -182.85 -8.9 L -189.25 -7.1 Z M -183.8 -9 L -184.2 -9.05 L -191.1 -7.1 L -189.35 -7.1 L -187.6 -7.65 Q -187.25 -7.8 -188 -7.65 Q -188.75 -7.55 -188.4 -7.7 Z M -185.05 -10.85 L -185.05 -11.1 L -181.65 -11.1 L -184.15 -11.3 L -185 -11.5 L -187.45 -10.85 L -183.95 -10.8 Z M -195.75 -11.05 L -195.75 -11.2 L -197.1 -11.45 L -197.3 -11.35 Z M -198.1 -16.6 L -191.2 -16.3 L -196.4 -17.1 Z M -195.3 -14.25 L -195.25 -14.4 L -195.8 -14.45 L -196.2 -14.4 Z M -203.75 -15.35 L -200.8 -15.3 L -200.2 -15.7 L -203.75 -15.35 L -202.35 -15.65 Q -201.95 -15.8 -202.8 -15.75 Q -203.55 -15.7 -203.2 -15.8 L -199.7 -16 L -199.5 -16.15 L -204.05 -15.75 L -205.3 -15.35 Z M -199.85 -15.7 L -200.55 -15.3 L -195.65 -14.85 L -195.25 -14.95 L -194.65 -15 L -194.75 -15 L -195.3 -15.2 Z M -201.85 -14.35 L -199.75 -14.4 L -199.65 -14.45 L -201.3 -14.75 L -201.85 -14.35 L -203.8 -13 L -201.45 -14.8 L -201.55 -14.8 L -202.15 -14.9 Q -204.2 -14.95 -203.45 -15.1 L -204.35 -15.15 L -204.65 -15.05 L -204.4 -15.15 L -206.05 -15.1 L -206.7 -14.95 L -206.6 -15.1 L -212.3 -14.2 L -213.85 -12.7 L -212.45 -14.15 L -209.6 -16.4 L -210.2 -16.2 L -209.5 -16.5 Q -206.55 -18.3 -203.9 -18.9 L -202 -19.15 Q -203.7 -19.45 -202.5 -19.45 L -194.75 -18.8 L -196.15 -18.95 L -193.25 -18.75 L -184.15 -19.1 L -184.2 -19.3 Q -181.5 -19.4 -176.9 -21.3 Q -172.15 -23.25 -173.8 -23.05 L -175.3 -22.4 L -175.4 -22.6 Q -179.1 -20.8 -183.6 -20.25 L -187.55 -19.65 L -185 -20.1 L -185.05 -20.1 L -185.1 -20.3 L -183.6 -20.55 L -185.35 -20.45 L -199.1 -21.3 Q -199.85 -21.4 -199.85 -21.6 L -204.75 -21.95 L -209.05 -20.65 L -207.2 -21.4 L -204.2 -22.2 L -189.7 -21 Q -184.6 -21 -180.8 -22 Q -179.15 -22.4 -176.65 -23.55 L -171.2 -26 L -156.95 -33.95 L -154.85 -34.75 Q -155.35 -34.7 -155.1 -34.85 L -154.25 -35.25 Q -145.7 -37.7 -134.95 -38.15 L -127.9 -38.5 L -127.9 -38.6 L -125.85 -38.7 L -125.85 -38.55 L -124.45 -38.6 L -124.45 -38.45 L -120.35 -38.85 L -120.35 -38.75 L -117.65 -39.1 L -117.6 -38.95 L -116.95 -39.2 L -114.3 -39.7 L -104.35 -40.75 L -104.85 -40.4 Q -105.15 -40.2 -104.3 -40.2 L -98.5 -39.55 L -94.75 -43.75 L -92.35 -45.7 Q -86.9 -48.3 -80.85 -50.15 L -68.75 -53.9 Q -61.55 -55.95 -56.05 -56.35 Q -47.55 -56.95 -36.05 -55.25 L -14.45 -51.9 L 17.3 -49.05 L 25.4 -48.75 L 30.25 -49 Q 38.55 -49.5 48.95 -52.85 Q 63.25 -57.45 66.05 -58.1 Q 65.15 -58.95 62.1 -59.45 Q 59.05 -59.95 58.1 -60.75 L 65.775 -60.75 Q 65.6102 -60.8098 65.55 -61.05 Q 65.4 -61.5 66.05 -61.65 L 68.65 -61.9 Q 70.55 -62.4 70.5 -64.3 Q 66.5 -65.3 64.3 -66.95 Q 66.25 -67.35 70.35 -65.8 Q 73.35 -64.65 74.9 -66.95 Q 74.65 -67.7 72.6 -67.75 Q 70.6 -67.8 70.5 -68.75 Q 71.5 -68.9 77.25 -68.65 Q 81.5 -68.45 82.9 -69.6 Q 80.9 -69.65 80.1 -71.25 Q 79.5 -72.4 79.35 -74.95 Q 80.15 -73.75 81.5 -72.55 Q 82.95 -71.25 84.55 -70.5 L 82 -73.4 L 82.85 -73.25 Q 83.15 -73.95 82.35 -74.55 L 79.9 -75.9 L 79 -77.05 L 84.65 -76.7 Q 84.95 -77.5 87.4 -77.5 Q 89.75 -77.45 89.95 -78.45 Q 89.35 -79.95 86.7 -80 L 83.75 -80.25 Q 85.05 -81.4 86.05 -81.55 L 85.9 -81.6 L 91.2 -82.05 Q 90.35 -83 89.95 -83.8 L 84.95 -84.05 Q 82.65 -84.65 82 -86.45 Q 83.7 -85.15 85.7 -84.85 Q 87.9 -84.5 89.95 -85.55 Q 92.3 -83.8 94 -81.6 L 94.5 -81.5 Q 95.1 -83.45 94.25 -85 L 93.1 -86.45 L 92.4 -86.9 L 92.65 -87.05 L 91.65 -88.15 Q 91.35 -88.7 91.75 -89.1 Q 93.7 -88.95 94.55 -87 L 93.3 -90.55 Q 95.7 -89.15 97.4 -88.9 L 100.2 -88.3 Q 97.75 -90.5 92.6 -91.75 L 95.1 -91.85 L 97.2 -91.1 Q 96.7 -91.65 96.1 -92.7 L 91.75 -93.5 Q 92.3 -94.45 93.4 -94.45 L 95.5 -94.05 L 95.2 -95 L 97.25 -93.75 Q 97.75 -93.85 97.95 -94.4 L 96 -95.25 Q 94.65 -95.9 96.15 -96.15 L 97.85 -95.75 Q 97.95 -96.4 100.8 -94.7 L 100.45 -96 L 99.2 -97.55 Q 100.4 -97.45 102.2 -96.2 Q 103.95 -95 104.4 -94.05 Q 103.75 -95.8 102.5 -97.55 L 99.85 -97.85 Q 98.4 -98.1 97.95 -98.8 L 99.85 -99.2 L 101.35 -99.05 L 100.15 -100.25 L 103.25 -100.4 L 101.35 -101.25 Q 100.2 -101.75 99.7 -102.35 Q 103.6 -102.75 105.5 -99.85 Q 108.95 -98.6 112.2 -96.25 L 112.85 -95.8 Q 113.35 -96.15 112.6 -97.1 Q 111.45 -98.45 111.25 -99.25 L 113.65 -96.85 Q 115.3 -95.1 115.25 -94.35 L 116.15 -93.95 Q 117.3 -94 117.25 -94.7 L 116.5 -95.95 L 119.2 -95.85 Q 117.95 -101.05 117.8 -103.05 Q 117.5 -106.65 119.1 -108.05 Q 119.5 -108.4 123.75 -104.15 Q 128.7 -99.15 129.9 -98.35 L 131.85 -96.65 L 131.95 -99.55 Q 132.2 -101 133.65 -100.05 L 135.45 -98.15 L 136.95 -95.95 L 137.85 -95.8 Q 138.5 -96 140.15 -94.4 Q 141.45 -93.15 141.7 -94.55 Q 142.2 -93.85 144.65 -92.1 Q 146.6 -90.7 147.1 -88.95 Q 150.85 -85.7 153.1 -84.25 L 156.2 -81.9 L 164.95 -72.6 Q 170.15 -66.15 178.25 -60.05 L 185.55 -55.55 Q 188.4 -53.25 190.45 -49.2 L 191.25 -47.1 Q 191.6 -45.6 191.2 -45.05 Q 190.55 -44.2 191 -42.2 Q 191.5 -40.2 191.1 -39.55 L 189.9 -37.1 Q 189.2 -35.8 188.05 -35.45 L 181 -33 L 174.7 -32.6 Q 173.15 -33.6 172.5 -34.7 L 171.7 -35.55 L 171.05 -36.05 L 159.8 -40.4 Q 157.55 -41 154.4 -42.25 Q 151.8 -43.3 150.15 -43.55 L 138.1 -44.5 Q 132.35 -44.7 126.7 -47.3 L 126.4 -47.3 L 126.35 -46.6 Q 116.95 -28.8 112.45 -18.2 Q 111.2 -15.25 107.65 -10.95 L 99.55 -2.35 Q 96.45 0.55 95.25 2.95 Q 95.05 3.35 94.6 7.5 Q 94.2 11.8 91.4 17.9 Q 94.55 18.5 100.05 20.55 Q 106.05 22.75 108.8 23.4 L 122.8 25.6 L 123 25.7 Q 125.9 25.9 127.3 27.55 Q 128.65 29.05 129.4 32.8 L 130.55 38.6 Q 131.35 41.05 134.75 47.45 L 139.35 56.35 Q 140.1 57.8 139.8 58.8 Q 139.05 61.65 136.4 66.6 Q 133.9 71.25 133.6 72.95 Q 133.2 77.9 132.9 78.15 L 131.75 82.55 L 130.15 86.6 L 129.8 86.5 L 130.95 87.6 Q 132.7 89.3 135.75 91.25 L 138.7 93.25 Q 140.6 94.55 142.25 97.05 Q 144.6 100.5 146.75 102.75 L 152.65 107.3 Q 157.35 111.2 156.45 112.6 Q 154.35 115.8 148.95 116.25 Q 143.85 116.65 140.25 114.5 Q 138.2 113.4 138.35 109.5 Q 138.55 104.9 137.75 103.7 Q 136.75 102.7 135.55 103.1 L 133.4 104 Q 132.7 104.15 130.95 102.85 Q 129.1 101.45 127.95 99.75 Q 126.65 97.85 124.65 93.75 Q 119.75 85.8 117.25 82.8 Q 112.4 76.9 106.5 74.35 L 103.15 72.45 Q 101.4 71 99.05 67.9 Q 97.05 65.2 96.15 63.55 L 93.9 59.05 L 93.9 59 Q 90.65 55.7 83.15 50.6 L 71.1 42.15 L 63.25 42.55 L 59.15 42.2 Q 54.7 40 50.5 36.15 L 32.65 35.4 L 19.15 33.95 Q 6.25 32.3 -4.35 27.6 Q -14.2 23.25 -24.2 15.35 Q -26.65 14 -27.55 13.6 Q -28.85 19.95 -39.75 30.55 L -62.1 51.95 Q -65.1 54.95 -65.5 55.95 L -66.05 57.2 Q -65.55 58.8 -65.55 60.15 Q -66.4 65.7 -63.1 73.7 Q -61.2 78.35 -56.45 87.6 Q -54.75 89.65 -53.1 92.35 Q -52.7 93 -50.2 94.5 L -47.45 96.05 Q -42.3 97.25 -36.8 100.45 Q -30.75 103.9 -30.4 106.55 Q -29.95 109.5 -36.9 110.55 Q -43.65 111.6 -48.45 109.7 Q -49.45 108.75 -49.45 106.3 Q -49.45 104.1 -51.6 102.85 Q -52.45 102.6 -53.65 103.55 Q -55.05 104.7 -56.3 104.8 Q -57.95 105 -61.2 101.85 Q -65.35 97.85 -66.9 91.8 L -67.9 87.85 Q -69.6 82.4 -72.8 75.5 L -75.7 69.6 L -77.45 64.25 Q -78.3 60.95 -78.9 59.3 Q -79.75 57 -79.65 52.25 Q -83.05 53.75 -87.6 55.1 L -95.25 56.5 Q -102.85 57.9 -104.3 58.55 L -107.15 59.5 Q -113.4 61.35 -118.35 68.65 Q -121.4 73.15 -125.65 83.05 L -128.1 88.35 L -128.6 89.15 L -130.4 93.65 Q -131.1 95.8 -131.55 96.8 L -134.5 101.55 L -135.8 109.75 Q -137.1 116.55 -139.8 120.6 Q -144.7 119.15 -147 113.45 Q -148.95 108.65 -148.45 102.95 Q -147.8 101.7 -145.45 100.95 Q -143.3 100.35 -142.75 97.9 Q -142.75 97 -144 96.2 Q -145.5 95.15 -146 94 Q -146.4 93.05 -143.3 89.7 L -135.5 80.6 L -134.2 78.45 L -128.4 65.85 Q -124.75 54.65 -122.7 50.45 Q -119.35 43.6 -112.65 41.8 L -107.1 38.4 Q -105.6 37.2 -100.75 31.55 Q -99 27.85 -98.1 25.15 Q -96.45 20.15 -97.6 14.55 Q -98.2 11.25 -98.5 6.5 Q -103.5 -4.65 -104.5 -13.2 Q -105.4 -20.6 -103.55 -28.75 L -105.55 -27.4 Q -109.5 -24.8 -114.65 -22.3 Q -119.6 -19.85 -124.25 -18.25 L -126.8 -17.5 Q -135.25 -13.5 -143.45 -10.35 Q -153 -6.85 -165.05 -5.95 L -171 -5.65 Q -175.45 -6 -181.4 -5.85 L -183.15 -6.15 L -191.75 -6.2 L -189.2 -6.25 Q -188.75 -6.25 -189.6 -6.35 Q -190.45 -6.45 -190.05 -6.5 L -184 -6.5 L -184 -6.65 L -193.5 -6.85 Q -194.2 -6.95 -193.5 -7.05 L -191.65 -7.05 L -191.5 -7.15 Q -189.35 -8.15 -185.4 -9.2 L -190 -9.25 Q -190.9 -9.25 -190.9 -9.45 L -192.35 -9.45 L -198.4 -7 L -192.95 -9.45 L -200.4 -9.6 L -192.35 -9.7 L -191.8 -9.9 L -193.05 -10.05 L -193.85 -10.05 L -193.65 -10.2 L -193.45 -10.2 L -197.85 -11.1 Q -198.75 -10.7 -199.6 -10.65 Q -199.05 -10.7 -198 -11.15 L -203.4 -11.85 L -201 -11.7 Q -200.55 -11.7 -201.4 -11.9 Q -202.25 -12.1 -201.85 -12.1 L -197.5 -11.4 L -197.35 -11.5 L -205.3 -12.7 L -201.05 -12.55 L -196.7 -11.8 L -196.15 -12.1 Q -194.7 -12.95 -191.85 -13.05 L -193.2 -13.25 L -193.6 -13.5 L -197.4 -14.1 L -197.5 -14.1 L -198.55 -14.3 Z M -199.1 -16.1 L -199.35 -16 L -197.35 -15.8 L -197.35 -15.95 Z M -192.35 -14.45 L -189.2 -14.35 L -189.2 -14.5 L -193.1 -14.6 Z M -188.45 -14 L -190 -14.05 L -184.9 -13.2 L -184.75 -13.2 L -184.7 -13.35 L -186.2 -13.55 L -186.2 -13.7 L -186.9 -13.7 Z M -189.1 -16.35 L -188.95 -16.35 L -189.2 -16.4 L -188.9 -16.35 L -185.05 -16.55 L -185.1 -16.7 L -186.8 -16.55 L -186.85 -16.85 L -184.7 -17 L -193.75 -17.2 Z M -189.75 -12.65 L -190.75 -12.65 Q -191.5 -12.6 -191.5 -12.85 L -193.85 -12.6 L -196.2 -11.85 L -195.95 -11.8 L -196.25 -11.85 L -196.4 -11.75 L -194.05 -11.35 L -194.75 -11.6 L -188.7 -10.95 L -185.85 -11.7 Z M -208.9 -16.65 Q -210.45 -15.75 -212.2 -14.25 Q -209.3 -15.15 -206.25 -15.3 Q -203.6 -16.8 -198.75 -16.55 L -198.65 -16.6 L -199.9 -16.75 L -198.6 -16.65 L -197.1 -17.2 L -200.4 -17.45 L -201.2 -17.65 Q -205.7 -17.55 -208.9 -16.65 Z M 88.1 -81.1 L 92.15 -78.1 L 92.6 -79 L 91.2 -79.8 Q 90 -80.6 88.1 -81.1 Z" fill="#FAF643"/>
	</g>
</svg>
