<?xml version="1.0" encoding="utf-8"?>
<!-- Generator: Adobe Illustrator 17.0.0, SVG Export Plug-In . SVG Version: 6.00 Build 0)  -->
<!DOCTYPE svg PUBLIC "-//W3C//DTD SVG 1.1//EN" "http://www.w3.org/Graphics/SVG/1.1/DTD/svg11.dtd">
<svg version="1.1" id="图层_1" xmlns="http://www.w3.org/2000/svg" xmlns:xlink="http://www.w3.org/1999/xlink" x="0px" y="0px"
	 width="407px" height="222px" viewBox="0 0 407 222" enable-background="new 0 0 407 222" xml:space="preserve">
<g transform="translate(225.2,118.6)">
	<path fill="#FFFC00" d="M-110.85-30.3l0.25-1.25l-0.2,0.15l-0.45,1.05l-1.2,1.25L-110.85-30.3z M-113.25-38.2
		c-0.233-0.033-0.55,0.15-0.95,0.55l0.7-0.1l1.2-0.8h-0.2L-113.25-38.2z M-104.75-44.1l0.65-0.6l-8.8,1.05L-104.75-44.1z
		 M-193.25-18.4l-0.2,0.1l-1.6,0.25l-4.25,1.75l4.85-1.1l2.55-1.05L-193.25-18.4z M-200.95-13.25l1.45-0.35l0.7-0.45
		c0.233-0.133,0.1-0.1-0.4,0.1c-0.533,0.233-0.683,0.267-0.45,0.1l5.1-2.75l-0.05-0.15L-200.95-13.25z M-205.9-18.1l4-0.75
		c1.633-0.833,3.25-1.533,4.85-2.1h-0.05l-0.05-0.2l1.05-0.2l0.1-0.05l-6.05,0.55L-205.9-18.1l1.9-1.45
		c0.2-0.167,0.067-0.133-0.4,0.1s-0.6,0.267-0.4,0.1l1.95-1.35l-0.3,0.05l-4.05,2.8h-0.1l-0.4,0.25l2.5-0.5l-0.95,0.05L-205.9-18.1z
		 M-196-19.95l-0.05-0.25l3.5-0.6l2.65-0.95l-5.25,0.55l-5.2,2.05l5.85-0.85l0.35-0.15v-0.05L-196-19.95z M-190.15-17.75L-192-17
		l-1.6,0.4c-1.8,0.7-3.717,1.683-5.75,2.95l6.05-1.35h-0.55c4.5-0.967,8.367-1.5,11.6-1.6v-0.1l-1.8,0.05l-0.05-0.25
		c1.567-0.3,3.967-0.317,7.2-0.05l-4.05-0.9l-4.1,0.1l-0.05-0.2l2-0.15L-190.15-17.75z M-191.05-20.85l1.55-0.05l2.5-0.65l-1-0.1
		L-191.05-20.85z M-189.15-23.5h-0.3L-200-22.05l-1.05,0.6l9.4-1.35h0.15L-189.15-23.5z M-185.7-22.85l-0.75-0.2l-0.8,0.15
		L-185.7-22.85z M-185.65-23.25l-0.5,0.1l1.45,0.1l0.4-0.1L-185.65-23.25z M-189.7-26.3l-2.45,0.85l4.95-0.65L-189.7-26.3z
		 M-188.9-26.5l-0.3,0.05l3.15,0.2c0.6-0.067,0.683-0.1,0.25-0.1l-0.75-0.15l-1.05-0.05l-0.05-0.2l-0.8,0.05L-188.9-26.5z
		 M-187.95-30.05l-0.3,0.1l1.55,0.05c0.267,0,0.267-0.067,0-0.2l-0.3-0.05L-187.95-30.05z M-185.8-31.6l5-0.35l-5.6-0.25l-2.65,0.4
		l0.8-0.1L-185.8-31.6z M-185-35.15l-0.05-0.2l-2.3,0.25l-1.05,0.8l5.1-0.9L-185-35.15z M-206-21.8l6.6-1.75
		c0.933-0.533,2.367-1.267,4.3-2.2l-2.9,0.55l-0.05-0.1l-4.15,1.05L-206-21.8z M-162.95-33.05c0.133-0.033,0.117-0.1-0.05-0.2
		l-1.25-0.1v-0.2l-3.1-0.35L-162.95-33.05z M-175.3-35.5c-0.367-0.167-0.417-0.233-0.15-0.2l2.85,0.65l-0.85-0.3l-7.1-1.7l-3.9,0.4
		l-0.35,0.15l4.35-0.1L-175.3-35.5z M-207.85-17.6l0.1-0.15l0.1-0.05l3.45-2.65l-5.4,1.1l-3.75,3.1L-207.85-17.6z M-211.1-19.5
		l0.8-0.15l1.4-0.5l0.25-0.2L-211.1-19.5z M-208.95-22.95L-209-22.9l-3.25,1.1l-0.8,0.1l-7.05,3l-3.85,3.15l6.65-2.3
		c2.633-2,5.6-3.733,8.9-5.2L-208.95-22.95z M-209.5-21.9l-0.05-0.15c-2.367,1.2-4.483,2.433-6.35,3.7l-0.3,0.2l1.35-0.35l0.7-0.5
		c0.233-0.167,0.083-0.117-0.45,0.15c-0.567,0.267-0.733,0.3-0.5,0.1L-209.5-21.9z M-206-21.05l-0.05-0.15l-2,0.65l-0.25,0.2
		L-206-21.05z M-205.15-20.95l-2.35,0.7l4.2-0.8l0.45-0.3l-0.75,0.2L-205.15-20.95z M-207.3-21.35l0.05-0.05l3.15-2.2l-2.65,1.1
		c-0.067-0.167-0.65,0-1.75,0.5c-1.9,0.833-3.983,1.983-6.25,3.45l0.95-0.25c1.8-0.833,3.883-1.617,6.25-2.35L-207.3-21.35z
		 M-202.65-27.4c-1.5,0.3-3.567,1.05-6.2,2.25c-2.8,1.267-5.367,2.65-7.7,4.15c-0.6,0.4-0.9,0.533-0.9,0.4l-2.45,1.75
		c4.467-2.267,9.3-4.15,14.5-5.65l7.75-2.65l-0.05-0.05l-1.8,0.5l-0.05-0.3l3.9-1.1l4.2-1.9l-9.3,2.45l-0.05-0.2l2.75-0.8
		L-202.65-27.4z M60,41.4c-3.933-2.7-6.8-4.033-8.6-4l-3.1,1.1c-0.3,0.6-0.433,1.467-0.4,2.6c0.033,1.433-0.467,3.7-1.5,6.8
		l-5,13.85c-2.1,6.3-3.117,11.067-3.05,14.3c0.1-0.267,0.533-0.767,1.3-1.5L40.9,73c-0.367-0.533-0.517-0.983-0.45-1.35
		c0.067-0.3,0.317-0.683,0.75-1.15c2.933-1.1,4.983-2.05,6.15-2.85c1-0.7,2.2-1.967,3.6-3.8l3.7-5.2c3.4-3.9,5.667-6.867,6.8-8.9
		C63.417,46.217,62.933,43.433,60,41.4z M88.95-99.2l0.85-0.35c-0.267-0.2-0.05-0.6,0.65-1.2c0.7-0.6,0.867-1.083,0.5-1.45
		c1.133,0,2.15,0.2,3.05,0.6c-0.333-0.733-0.017-1.6,0.95-2.6c1.1-0.567,2.283-1.017,3.55-1.35l4.75-0.7l0.9-0.05l1.15-0.3
		c2.3-0.567,3.95-1.267,4.95-2.1l0.9-0.2l1.8-0.05l-0.35-1.35c-0.533-2.5-0.733-4.483-0.6-5.95c0.133-1.567,0.65-2.35,1.55-2.35
		c1.133,0.033,3.267,1.9,6.4,5.6c0.533,0.067,1.367,0.633,2.5,1.7c0.933,0.3,1.833,0.983,2.7,2.05c1.3,0.567,2.6,0.35,3.9-0.65
		l0.95,2.35c0.333,1.167,0.65,1.95,0.95,2.35c0.267-1.533,0.45-2.4,0.55-2.6c0.333-0.8,0.9-0.833,1.7-0.1
		c0.533,0.5,1.017,1.2,1.45,2.1l1.1,2.4l0.85,0.3c0.467-0.067,1.167,0.517,2.1,1.75c0.667,0.933,1.15,0.967,1.45,0.1
		c0.267,0.467,1.117,1.417,2.55,2.85c1.133,1.1,1.767,2.267,1.9,3.5c2.167,2.567,3.867,4.4,5.1,5.5l4.65,5.35l5.15,7.9
		c2.833,4.867,6.517,9.65,11.05,14.35c3.333,2.633,5.467,4.483,6.4,5.55c1.633,1.8,2.9,4.133,3.8,7l0.45,2.15
		c0.067,1-0.05,1.667-0.35,2c-0.5,0.467-0.717,1.367-0.65,2.7c0.1,1.367-0.017,2.25-0.35,2.65l-1.5,2.2
		c-0.633,0.8-1.333,1.25-2.1,1.35L169-34.9l-6.25-0.6c-0.9-0.833-1.517-1.633-1.85-2.4l-0.6-1l-0.6-0.55l-10.3-6.05
		c-1.433-0.633-3.1-1.517-5-2.65c-1.567-0.933-2.883-1.567-3.95-1.9c-3.433-1.1-7.3-2.05-11.6-2.85c-2.167-0.433-4.1-1.033-5.8-1.8
		c-3.1,0.667-6.1,2.017-9,4.05c-2.7,1.867-4.9,4.033-6.6,6.5l-11.6,18.8c-0.933,1.633-1.767,2.883-2.5,3.75l-9.4,9.4L82.1-8.45
		C81.133-6.483,80-3.733,78.7-0.2l-7.75,20.6c-1.733,3.967-3.65,6.867-5.75,8.7l4.85,4.2c1.867,1.7,3.067,3.433,3.6,5.2
		c0.8,2.7,0.8,6.767,0,12.2l-9.1,10.4c-3.4,4-6.083,7.633-8.05,10.9l-1.15,3c-0.467,1.3-1.25,2.6-2.35,3.9
		c-0.8,0.933-2.05,1.717-3.75,2.35c-2.1,0.8-3.45,1.4-4.05,1.8l-6.1,3.45c-2.2,1.333-4.4,2.85-6.6,4.55
		c-1.767,1.067-4.333,1.717-7.7,1.95c-0.767,0.067-1.933-0.167-3.5-0.7l-4-1.2l-22.55-1.85c-1-1.467-2.65-2.65-4.95-3.55
		c-0.967-0.367-3.167-0.967-6.6-1.8c-5.8-1.467-9.15-3.767-10.05-6.9c0.9-2.8,2.75-5,5.55-6.6s5.333-1.9,7.6-0.9
		c2.533,1.1,4.45,2.333,5.75,3.7c1.433,1.5,2.333,3.4,2.7,5.7c1.033,0.4,1.667,0.083,1.9-0.95c0.233-1,0.85-1.317,1.85-0.95
		c2.333,0.833,5.717,2.15,10.15,3.95c4.1,1.333,8.233,1.9,12.4,1.7c1.667-1.967,2.5-4.833,2.5-8.6L22.9,64.8l0.9-14.75
		c0.233-6.233-0.933-10.35-3.5-12.35l-2.1-0.9c-3.267-1.3-9.1-3.317-17.5-6.05c-7.3-2.367-11.483-3.85-12.55-4.45
		c-7.067-4.067-13.017-7.2-17.85-9.4c-1.233,2.467-2.4,4.333-3.5,5.6l-5.9,5.7c-1.267,1.267-2.817,2.517-4.65,3.75
		c-1.733,1.133-6.117,3.317-13.15,6.55c-0.533,0.2-2.067,1.183-4.6,2.95c-2.733,1.9-4.65,3.117-5.75,3.65
		c-0.5,2.667,0.217,5.017,2.15,7.05c1.067,1.133,2.85,2.533,5.35,4.2c2.967,2.333,6.233,4.55,9.8,6.65l6.1,3.4
		c0.4,0.3,0.633,0.683,0.7,1.15l0.3,1l5.2,4.9c1.6,1.8,2.383,3.933,2.35,6.4c2.5,2.1,4.45,5.85,5.85,11.25
		c1.433,5.533,1.35,9.6-0.25,12.2c-4.767-1.367-8.167-2.817-10.2-4.35c-3.033-2.267-4.617-5.483-4.75-9.65
		c0.033-0.3,0.45-0.633,1.25-1l1.7-0.95c0.533-0.6,0.533-1.033,0-1.3c-0.533-0.233-1.217-0.067-2.05,0.5
		c-0.4,0.433-1.083,1.617-2.05,3.55l-1.85,3.9c-1.233,1.867-2.767,2.783-4.6,2.75c-4.033-2.867-5.9-7.883-5.6-15.05
		c-0.133-0.667,0.65-1.867,2.35-3.6c1.267-1.233,1.1-1.9-0.5-2c-0.533-0.067-0.95-0.483-1.25-1.25c-0.333-0.733-0.467-1.467-0.4-2.2
		l-9.3-6.25c-4.267-3-7.5-5.1-9.7-6.3c-0.933-0.5-4.167-1.9-9.7-4.2c-4-1.667-7.033-3.4-9.1-5.2c-0.433-0.333-0.7-1.35-0.8-3.05
		c-0.133-1.8,0.133-2.967,0.8-3.5l6.75-4.6c1.533-0.967,2.6-1.883,3.2-2.75c1.933-4.767,3.217-9.233,3.85-13.4
		c0.367-2.467,0.467-4.317,0.3-5.55c-0.1-0.867-3.217-3.533-9.35-8c-6.967-5.133-11.75-9.617-14.35-13.45
		c-2.4-3.5-4.117-7.4-5.15-11.7c-1.033-4.167-1.35-8.4-0.95-12.7l-0.75,0.8c-2.533,2.5-5.6,4.817-9.2,6.95
		c-3.633,2.133-7.15,3.7-10.55,4.7l-1.9,0.5c-6.8,3.6-13.3,5.1-19.5,4.5c-2.9-0.267-6.75-0.883-11.55-1.85l-10.95-2.05l-5.8-0.35
		l-12.3,0.75l-8.7,2.15l2.55-0.8c0.3-0.1,0.15-0.1-0.45,0c-0.567,0.067-0.717,0.05-0.45-0.05l6.1-1.45l-0.05-0.1l-5.85,1.4
		l-0.35,0.2l0.3-0.2l-1.8,0.45c-0.467,0.233-0.633,0.283-0.5,0.15c-1.6,0.333-2.083,0.367-1.45,0.1l2.2-0.7
		c1.933-1.433,4.117-2.7,6.55-3.8l-0.45,0.1l-1.1,0.5l1-0.5l-5.05,1.2l-1.15,0.6l0.95-0.55h-0.05l-0.95,0.05l-0.3,0.1l-0.85,0.4
		l-6.15,4.65l5.4-4.4l0.15-0.2l0.05-0.05l-8.05,2.7c2.7-1.167,5.617-2.2,8.75-3.1l0.6-0.35c1.3-0.867,2.667-1.683,4.1-2.45
		l-5.4,0.85l-0.65-0.05l-6.3,3.85l5.8-3.8l-0.7,0.1l-9,2.15l2.65-0.8c0.3-0.1,0.133-0.1-0.5,0c-0.6,0.067-0.767,0.05-0.5-0.05
		l6.35-1.45l-0.05-0.15l-7.1,1.7l-0.1,0.05l-2.75,0.6c-0.5,0.067-0.517,0.017-0.05-0.15l3.55-1.1l3.4-3l-0.8,0.15l-1.8,0.75
		l1.4-0.65l-2.7,0.65l-1,0.05l-0.4,0.15l-1.1,0.75l0.95-0.7l-1.45,0.4l-1.5,0.9c-0.233,0.133-0.217,0.067,0.05-0.2l0.55-0.45l-6.2,2
		l-1.2,1.15l1-1.1l-0.75,0.25l0.8-0.3l3.2-2.8l-0.4,0.15l0.45-0.2c4.133-3.367,8.933-6.15,14.4-8.35
		c3.467-1.333,7.117-2.5,10.95-3.5l5.1-1.45l-5.75,0.5l-5.2,1.75L-203-29c-2.267,0.9-4.367,1.867-6.3,2.9l1.05-0.6
		c0.233-0.133,0.1-0.1-0.4,0.1c-0.533,0.167-0.683,0.183-0.45,0.05l5.2-2.4l-0.05-0.15c-2.1,0.867-4.083,1.8-5.95,2.8
		c-2.567,1.3-3.35,1.583-2.35,0.85c1.633-1.1,4.667-2.583,9.1-4.45h-0.25c4-1.767,7.417-2.833,10.25-3.2l-0.05-0.15l-1.6,0.3
		l-0.1-0.25l6.15-1.05l0.95-0.8l-8.1,1.1v-0.2l1.6-0.3l-3.45,0.5l-5.55,1.85l-7.05,3.15c-0.567,0.267-0.85,0.333-0.85,0.2l-8.1,4.75
		c10.667-7.533,21.867-11.683,33.6-12.45l1.1-0.6c0.733-0.367,1.633-0.55,2.7-0.55l6.1,1.2c5.233,1.067,10.15,1.583,14.75,1.55
		l3.7-0.2c-0.667-0.1-0.45-0.2,0.65-0.3l8.5-0.7l14.2-2.2l-0.05-0.15l0.7-0.1l1.15-0.3v0.15l1.25-0.25v0.15
		c1.633-0.4,2.833-0.767,3.6-1.1l0.05,0.15l1.2-0.35c0.567-0.167,0.967-0.317,1.2-0.45v0.15c0.003-0.101,0.203-0.218,0.6-0.35
		l10.55-3.4l9.85-0.8l10.5-9.4c1.167-0.933,6.433-3.817,15.8-8.65l3.95-1.95c4.2-1.133,8.217-1.733,12.05-1.8l11.25,0.95L-43-63.8
		c3.2,1,5.767,1.6,7.7,1.8c1.9,0.2,4.75,0.233,8.55,0.1c4.267-0.167,7.367-0.2,9.3-0.1l17.9,2l16.85,0.8
		c6.5-0.5,11.817-1.117,15.95-1.85c0.6-0.167,0.733-0.5,0.4-1c-0.3-0.467-0.75-0.767-1.35-0.9c1.667-0.233,3.05-0.217,4.15,0.05
		l2.45-0.05c0.567,0.033,0.75-0.15,0.55-0.55c-0.193-0.386-0.351-0.528-0.475-0.425c0.423-0.385,0.914-0.66,1.475-0.825l0.85-0.1
		c0.2-0.4,0.767-0.55,1.7-0.45c0.933,0.133,1.583-0.167,1.95-0.9l-2.85,0.25c-1,0-1.717-0.417-2.15-1.25
		c1.133-0.567,2.917-0.883,5.35-0.95h1.65l-2-0.05l0.8-0.55l6.2-0.45c-0.9-0.9-1.9-1.483-3-1.75l-3-0.25
		c0.933-0.933,2.6-1.133,5-0.6c2.267,0.467,3.933,0,5-1.4l-4-0.1l-3.85-0.85l4.85-0.2l4.8-1.05l1.8-0.1l9.4,0.25l0.95,0.1
		c0.3-0.367,0.4-0.683,0.3-0.95l-0.75-0.5c-0.7-0.733-2.133-1.15-4.3-1.25c-1.767-0.1-2.833-0.883-3.2-2.35
		c1.6,1.6,3.417,2.117,5.45,1.55L72.55-80l1.8,0.15l4.25-0.55l1.15-0.3l2.15-0.8l1.55-0.8l0.6-0.4c0.267,0.133,0.5-0.017,0.7-0.45
		l0.55-1.05l-2.45-0.25c-0.767,0-1.283,0.317-1.55,0.95l-1.75,0.25l-3.6,0.05l8-5.2c1.467-0.933,2.8-1.2,4-0.8
		c0-1.667-0.617-2.5-1.85-2.5l-4.15,0.5l3.15-2c1.3-0.6,2.583-0.267,3.85,1c0.3-0.567,0.283-0.967-0.05-1.2
		c-0.5-0.2-0.9-0.383-1.2-0.55c-0.5-0.3-0.75-0.7-0.75-1.2l2.55,0.35l4.8-0.05l1-0.3l0.4-0.5l1.45-1.25l0.5-0.55
		c-1.1-1.133-2.167-1.867-3.2-2.2c-1.367-0.467-2.417-0.133-3.15,1l-0.75,0.05C90.017-98.667,89.483-98.867,88.95-99.2z"/>
</g>
</svg>
