<?xml version="1.0"?>
<!DOCTYPE svg PUBLIC "-//W3C//DTD SVG 1.1//EN" "http://www.w3.org/Graphics/SVG/1.1/DTD/svg11.dtd">
<svg version='1.1' width='400px' height='232px' xmlns='http://www.w3.org/2000/svg' xmlns:xlink='http://www.w3.org/1999/xlink'>
	<g transform="translate(207.45,106.784)">
		<path d="M -153.65 -27.85 L -154.9 -27.2 L -155 -27.4 L -156.25 -26.75 L -153.85 -27.45 Q -153.25 -27.9 -153.65 -27.85 Z M -179.2 -11.1 L -174.25 -10.85 L -169.5 -11.25 Q -168.85 -11.4 -169.3 -11.55 L -170.8 -11.4 L -170.8 -11.6 Z M -177.5 -8.2 L -178.65 -8.25 L -178.6 -8.5 L -175.2 -8.45 L -177.7 -8.7 L -178.55 -8.9 L -181.05 -8.25 Z M -178.3 -10.6 L -178.3 -10.7 L -179.8 -10.95 L -179.75 -11.1 L -180.45 -11.1 L -182 -11.4 L -183.55 -11.45 L -178.45 -10.6 Z M -176 -6.2 L -176.4 -6.3 L -182.85 -4.5 L -176.05 -4.45 L -176.75 -4.55 Q -170.2 -4.55 -165.55 -4.8 L -165.55 -4.95 L -167.25 -4.85 L -167.3 -5.15 L -159.05 -5.75 Q -154.1 -6.3 -155.35 -6.55 L -157.05 -6.35 L -157.1 -6.55 L -168.15 -6.05 L -168.15 -6.25 L -166.8 -6.3 L -170.5 -6.25 Q -175.05 -6.05 -176 -6.2 Z M -184.7 -4.45 L -182.9 -4.5 L -181.2 -5.05 Q -180.85 -5.2 -181.6 -5.05 Q -182.35 -4.95 -182 -5.1 L -177.4 -6.4 L -177.8 -6.45 Z M -190.9 -8.85 L -193.4 -9.175 L -191.1 -8.8 Z M -190.65 -8.85 L -190.85 -8.75 L -189.35 -8.45 L -189.3 -8.6 Z M -188.85 -11.75 L -189.4 -11.85 L -189.8 -11.75 L -188.85 -11.65 Z M -184.85 -7.25 L -185.3 -7.1 L -183.4 -7.05 L -183.4 -7.1 Z M -183.3 -10 L -184.35 -10 Q -185.1 -10 -185.1 -10.2 L -187.45 -10 L -189.8 -9.25 L -190 -9.15 L -187.6 -8.75 L -188.35 -9 L -188.6 -9.05 L -182.25 -8.3 L -179.45 -9.1 Z M -182.75 -11.75 L -182.75 -11.9 L -186.7 -12 L -185.95 -11.85 Z M -195.4 -11.75 L -193.3 -11.8 L -193.2 -11.85 L -194.85 -12.15 L -195.4 -11.75 L -197.4 -10.4 L -195.05 -12.2 L -195.15 -12.2 L -195.75 -12.3 Q -198.15 -12.3 -197.05 -12.5 L -199.6 -12.5 Q -200.65 -12.15 -200.15 -12.5 L -205.85 -11.55 L -207.45 -10.1 L -206.05 -11.5 L -206.6 -11.35 L -206 -11.55 L -203.2 -13.8 L -203.75 -13.6 L -203.1 -13.85 Q -200.45 -15.55 -197.45 -16.3 L -195.55 -16.5 Q -197.1 -16.85 -196.1 -16.85 L -186.95 -16.1 L -187.35 -16.15 L -186.45 -16.1 L -177.75 -16.5 L -177.75 -16.7 Q -175.05 -16.8 -170.45 -18.7 Q -165.7 -20.65 -167.4 -20.45 L -168.85 -19.8 L -168.95 -20 Q -172.75 -18.2 -177.2 -17.65 L -181.15 -17.05 L -178.55 -17.5 L -178.65 -17.5 L -178.65 -17.7 L -176.8 -17.95 L -176.75 -18 L -180.2 -17.85 L -192.65 -18.7 Q -193.5 -18.8 -193.4 -19 L -198.35 -19.35 L -202.65 -18.05 L -200.75 -18.8 L -197.75 -19.6 L -183.3 -18.4 Q -178.5 -18.3 -174.4 -19.4 Q -172.75 -19.8 -170.25 -20.95 L -165.8 -22.95 L -165.1 -23.2 L -152.45 -30.3 L -148.45 -32.15 Q -149.75 -32 -147.85 -32.65 Q -139.05 -35.15 -128.5 -35.5 L -121.5 -35.85 L -121.5 -36 L -119.4 -36.1 L -119.4 -35.95 L -118.05 -35.95 L -118 -35.85 L -113.95 -36.25 L -113.9 -36.1 L -111.2 -36.5 L -111.2 -36.35 L -110.55 -36.6 L -97.9 -38.15 L -98.4 -37.8 Q -98.75 -37.6 -97.9 -37.6 L -95 -37.4 Q -93.05 -40.1 -90.55 -42.6 L -85.95 -46.25 Q -83.05 -48.15 -80.6 -48.9 L -68.55 -52.65 Q -61.35 -54.7 -55.85 -55.1 Q -47.35 -55.7 -35.85 -54 L -14.25 -50.65 L 17.55 -47.8 L 25.65 -47.5 L 30.45 -47.75 Q 38.75 -48.25 49.2 -51.6 Q 63.5 -56.2 66.3 -56.85 Q 65.75 -57.4 64.55 -57.75 L 63.85 -57.95 L 60.9 -58.4 Q 59.15 -58.75 57.9 -59.35 L 65.2 -59.35 L 66.15 -59.45 Q 65.85 -59.45 65.75 -59.8 L 66 -60.3 L 67.85 -60.5 Q 70.8 -60.7 70.7 -63.05 L 69.85 -63.3 L 65.45 -63.75 L 62.4 -63.4 Q 63.5779 -63.6023 65.9 -64.7 Q 68.25 -65.8 69.9 -65.1 L 70.6 -64.55 L 71.45 -64.25 L 73.4 -64.2 Q 74.35 -64.5 75.15 -65.7 Q 75 -66.2 74.3 -66.35 L 71.85 -66.55 L 70.6 -66.5 L 70.95 -67.2 L 71.65 -67.35 L 72.4 -67.35 L 73.95 -67.55 L 79.7 -67.35 Q 82.05 -67.45 83.1 -68.35 Q 81.1 -68.4 80.3 -70 L 80 -70.75 L 79.9 -73.35 Q 79.2 -74.75 79.4 -75.2 Q 79.5 -75.6 80.25 -75.45 L 81.2 -75.3 Q 82.5 -74.85 85.45 -75.85 Q 88.35 -76.85 89.9 -76.35 Q 88.75 -78.65 86.3 -77.95 Q 82.85 -77.05 81.9 -77.35 L 90.9 -80.35 Q 89.2 -82.05 85.9 -81.1 L 82.7 -80.35 L 84.05 -80.75 L 87.45 -82.2 Q 91.7 -83.85 94.25 -80.35 L 94.75 -80.25 L 94.95 -81.3 L 94.95 -82.2 Q 94.4 -83.8 93.4 -84.25 L 91.35 -84.45 L 93.25 -86 L 95.95 -85.95 Q 97.75 -85.8 98.9 -86.35 L 91.95 -86.35 L 92.65 -86.6 L 93.35 -87.15 L 92.15 -87.35 L 90.9 -87.35 Q 91.2 -88.85 92.65 -89.4 L 93.55 -89.6 L 94 -89.55 L 94.8 -90.85 L 95.3 -91.5 Q 96.7 -93.55 100.9 -93.7 Q 105.35 -93.85 106.55 -95.05 L 107.65 -95.35 L 109.95 -95.7 L 112.4 -95 L 113.1 -94.55 Q 113.4 -94.8 113.3 -95.1 L 112.3 -96.45 Q 112 -97.1 112.05 -97.2 L 112.5 -96.95 L 113.2 -96.25 Q 115.55 -93.9 115.45 -93.1 L 116.35 -92.7 Q 117.25 -92.75 116.7 -93.65 Q 116.2 -94.6 117 -94.75 L 119.5 -94.5 Q 118.9 -97.15 118.7 -100.6 Q 118.45 -105.6 119.85 -106.75 Q 120.35 -107.15 124.65 -102.8 L 129.7 -97.3 L 132.1 -95.4 L 132.2 -98.3 Q 132.45 -99.75 133.9 -98.8 L 135.7 -96.9 L 137.15 -94.7 L 138.05 -94.55 Q 138.75 -94.75 140.4 -93.15 Q 141.65 -91.9 141.9 -93.3 Q 142.4 -92.6 144.9 -90.85 Q 146.85 -89.5 147.35 -87.7 Q 150.85 -84.6 153.35 -83 L 156.4 -80.65 L 165.2 -71.35 Q 170.4 -64.9 178.5 -58.8 Q 184.1 -55.65 185.75 -54.3 Q 188.65 -52 190.7 -47.95 Q 192.2 -44.8 191.4 -43.8 Q 190.75 -42.95 191.25 -40.95 Q 191.7 -38.95 191.3 -38.3 L 190.15 -35.85 Q 189.4 -34.55 188.25 -34.2 L 181.25 -31.75 L 174.9 -31.35 Q 173.45 -32.3 172.7 -33.45 L 171.9 -34.3 L 171.25 -34.8 L 160 -39.15 Q 157.7 -39.75 154.6 -41 Q 152.05 -42.05 150.4 -42.3 L 138.35 -43.25 Q 132.55 -43.45 126.9 -46.05 L 126.65 -46.05 L 126.55 -45.35 Q 116.65 -26.4 112.7 -16.95 Q 111.45 -14 107.9 -9.7 L 104.1 -5.45 Q 103.45 -4.5 99.8 -1.1 Q 96.7 1.8 95.5 4.2 Q 95.3 4.65 94.85 8.85 Q 94.4 13.2 91.5 19.45 L 91.65 19.55 Q 95.15 20.45 100.7 23.15 Q 107.2 26.35 109.75 27.25 L 123.45 30.85 L 124.8 31.65 L 126.25 33.05 Q 127.3 33.4 127.9 33.95 Q 129.45 35.25 130.85 38.75 L 133 44.3 Q 134.2 46.55 138.6 52.35 L 144.65 60.35 Q 145.6 61.65 145.5 62.65 Q 145.25 65.5 143.45 71 Q 143.55 74.5 144.05 75.9 L 145.95 80.8 L 147.1 85.2 L 147.7 89.5 L 143.65 89.3 Q 140.95 88.6 138 87.05 Q 134.35 85.1 132.75 82.95 Q 132.65 80.6 134.5 77.5 Q 136.45 74.1 136.65 72.25 L 136.65 71.3 Q 136.85 69.3 134.95 68.25 L 132.05 66.5 Q 132.7 61.15 129.55 54.05 Q 126.55 47.3 122.6 44.25 L 119.35 42.6 Q 118.7 42.25 118.15 41.7 L 107.25 41.15 L 88.55 41.65 Q 87.7 45.45 89 50.35 L 91.6 58.7 L 94.8 62.6 Q 95.6 63.7 97.6 68.2 L 104.5 82.4 Q 107.15 86.9 110.75 94.5 L 111.85 95.9 Q 115.1 100.15 119.05 103.65 Q 120.1 104.4 121.9 107.35 Q 123.35 109.75 127.4 111.45 Q 129.45 112.3 133.4 115.8 Q 138.05 119.8 137.05 121.3 Q 134.95 124.5 129.55 124.95 Q 124.45 125.35 120.85 123.2 Q 118.8 122.1 118.95 118.2 Q 119.15 113.6 118.35 112.4 Q 117.35 111.4 116.15 111.8 Q 114.8 112.55 114 112.7 Q 113.3 112.85 111.55 111.55 Q 109.7 110.15 108.55 108.45 Q 107.15 106.5 105.75 102.55 Q 101.75 93.7 99.7 90.45 Q 95.55 83.85 89.95 80.45 Q 87.9 79.25 86.85 78.15 Q 85.25 76.5 83.35 73.15 L 81.2 68.95 L 79.95 65.3 Q 77.75 61.05 71.3 53.1 Q 64.1 44.15 61.8 40.45 L 59.7 36.9 L 58.15 36.15 L 58.1 36.15 Q 48 38.8 32.9 36.65 L 19.4 35.2 Q 6.45 33.55 -4.15 28.85 Q -13.95 24.55 -23.95 16.6 Q -26.6 15.1 -28.95 14.1 L -29.1 14 Q -32.2 19.65 -42.15 29 L -57.95 44 L -62.4 47.75 Q -65.95 50.6 -66.4 51.5 Q -67.65 53.9 -69.3 55.65 Q -70.85 57.75 -71.8 60.1 L -73.45 64.85 Q -75.9 69.2 -76 76.4 Q -76.05 80.05 -75.15 89.65 Q -74.1 94.05 -73.6 100.05 Q -73.55 100.9 -71.3 104.05 Q -65.7 107.25 -62.4 109.95 Q -57.85 113.75 -58.8 116 Q -60.05 119.05 -67.9 118.8 Q -75.9 118.55 -78.8 114.8 Q -79.2 113.45 -77.9 111.35 Q -76.8 109.45 -78.05 107.3 Q -78.5 106.75 -79.25 106.75 L -81.4 107.8 L -84.05 107.6 Q -85.15 107.1 -85.9 102 Q -86.75 96.1 -85.85 90.05 L -85.5 88.25 Q -85.3 82.85 -85.75 75.95 L -86.3 70.05 Q -86.35 67.4 -86 64.4 L -85.6 59.3 Q -85.55 56.25 -83.05 50.75 L -83.05 49.95 Q -83.2 49.25 -82.65 48 Q -84.9 49.05 -87.2 49.7 L -108.35 57.25 L -108.35 57.15 Q -116.05 59.05 -125 65 Q -133.1 70.35 -139 76.8 L -139.65 77.35 L -141.55 79.7 L -141.75 79.9 L -143 82.1 Q -145.75 86.3 -147 89 L -149.9 94.75 Q -150.9 96.25 -152.45 96.85 L -152.55 96.8 Q -153.95 97.45 -154.25 98.1 Q -159.2 109.05 -167.45 113.15 Q -171 109.5 -170.2 103.4 Q -169.5 98.25 -166.25 93.55 Q -165.05 92.75 -163.2 93.2 Q -161.45 93.65 -160.05 92.45 Q -160.15 91.85 -161.25 90.85 Q -162.5 89.8 -162.9 88.65 Q -163.2 87.65 -159.85 84.65 L -151.3 76.4 L -151.45 76.35 L -134.75 58.45 L -127.15 48.5 Q -123.15 43.25 -119.85 41.6 Q -118.1 40.75 -115.3 40.75 Q -110.05 37.85 -108.2 36.45 Q -105.05 34.05 -100.5 28.8 Q -98.75 25.1 -97.85 22.4 Q -96.2 17.4 -97.35 11.8 L -98.15 5.2 Q -103.45 -11.65 -101.05 -23.55 Q -109.1 -18.65 -117.8 -15.65 L -120.4 -14.9 Q -128.3 -11.05 -137 -7.75 Q -146.55 -4.3 -158.6 -3.35 L -164.6 -3 Q -169.5 -3.4 -175 -3.25 L -176.7 -3.55 L -185.35 -3.55 L -182.75 -3.6 Q -182.3 -3.65 -183.2 -3.75 Q -184 -3.9 -183.6 -3.9 L -177.6 -3.9 L -177.6 -4 L -187.05 -4.25 Q -187.75 -4.35 -187.05 -4.4 L -185.25 -4.45 L -185.1 -4.55 Q -182.55 -5.65 -178.95 -6.6 L -183.6 -6.65 L -184.45 -6.85 L -185.95 -6.85 L -191.95 -4.4 L -186.5 -6.85 L -193.95 -7 L -185.9 -7.1 L -185.35 -7.3 L -186.65 -7.45 L -187.4 -7.4 L -187.25 -7.6 L -187.05 -7.6 L -188.5 -8 L -191.4 -8.5 L -192.075 -8.325 Q -191.839 -8.42363 -191.6 -8.55 L -197.15 -9.25 L -194.6 -9.1 Q -194.15 -9.1 -195 -9.3 Q -195.444 -9.41094 -195.525 -9.45 L -198.85 -9.9 Q -199.45 -10 -198.85 -10.1 L -194.65 -9.95 L -190.25 -9.2 L -190.1 -9.3 L -190.55 -9.4 L -190.05 -9.3 L -189.75 -9.45 Q -188.35 -10.35 -185.45 -10.45 L -186.75 -10.65 L -187.2 -10.9 L -190.95 -11.5 L -191.1 -11.5 L -192.15 -11.7 Z M -193.1 -13.55 L -196.375 -13.225 L -193.3 -13.4 Z M -197.35 -12.75 L -195.45 -12.65 L -194.4 -12.7 L -193.8 -13.1 L -197.35 -12.75 L -195.95 -13.05 Q -195.55 -13.15 -196.35 -13.1 Q -197.03 -13.1 -196.875 -13.175 L -197.6 -13.1 L -198.85 -12.75 Z M -182.65 -13.7 L -182.5 -13.7 L -182.8 -13.8 L -182.45 -13.7 L -178.65 -13.95 L -178.65 -14.1 L -180.4 -13.95 L -180.4 -14.25 L -178.3 -14.4 L -187.35 -14.6 Z M -188.85 -12.6 L -193.45 -13.1 Q -193.75 -12.85 -194.1 -12.65 L -189.2 -12.25 L -188.8 -12.35 L -188.3 -12.4 Z M -192.15 -14 L -190.7 -14.6 L -194 -14.85 L -194.8 -15.05 Q -199.3 -14.95 -202.5 -14 L -205.8 -11.6 Q -202.9 -12.55 -199.8 -12.7 Q -197.25 -14.25 -192.35 -13.95 L -192.2 -14 Z M -190 -14.5 L -191.65 -13.95 L -184.75 -13.65 Z M -190.95 -13.2 L -190.9 -13.35 L -192.7 -13.5 L -192.9 -13.4 Z M 83.1 -72 Q 83.3 -72.5 83 -72.9 L 82.55 -73.3 L 80.35 -73.35 L 81.1 -71.9 L 81.6 -71.4 Q 83.15 -70 84.75 -69.25 L 82.2 -72.15 Z M 92.85 -77.75 Q 92.45 -77.85 91.95 -78.2 L 91.1 -78.25 Q 91 -78.15 91.25 -77.55 L 92.35 -76.85 Z M 95.7 -91.05 L 95.05 -90.6 L 94.05 -89.55 L 95 -89.5 L 95.55 -90.1 Q 96.9 -91.35 99.35 -91.2 L 102.9 -91.35 L 99.4 -91.7 Z M 79.9 -75.35 Q 79.3 -74.75 79.9 -74 Z" fill="#FAF643"/>
	</g>
</svg>
