<?xml version="1.0" encoding="utf-8"?>
<!-- Generator: Adobe Illustrator 17.0.0, SVG Export Plug-In . SVG Version: 6.00 Build 0)  -->
<!DOCTYPE svg PUBLIC "-//W3C//DTD SVG 1.1//EN" "http://www.w3.org/Graphics/SVG/1.1/DTD/svg11.dtd">
<svg version="1.1" id="图层_1" xmlns="http://www.w3.org/2000/svg" xmlns:xlink="http://www.w3.org/1999/xlink" x="0px" y="0px"
	 width="404px" height="228px" viewBox="0 0 404 228" enable-background="new 0 0 404 228" xml:space="preserve">
<g transform="translate(213.75,107.851)">
	<path fill="#FFFC00" d="M-199.75-13.3l-0.7,0.4l4.9,0.4l1-0.15h-0.1L-196.4-13L-199.75-13.3z M-199-13.75l-0.25,0.15l2,0.15v-0.1
		L-199-13.75z M-199.4-13.75l-3.125,0.275l2.925-0.175L-199.4-13.75z M-203.65-13l2.95,0.1l0.6-0.4L-203.65-13l1.4-0.3
		c0.267-0.067,0.117-0.083-0.45-0.05c-0.43,0-0.597-0.025-0.5-0.075l-0.75,0.075L-205.2-13H-203.65z M-189-13.95h0.15l-0.25-0.1
		l0.3,0.1l3.85-0.25l-0.05-0.15l-1.7,0.15l-0.05-0.25l2.15-0.2l-9.05-0.15L-189-13.95z M-208.8-14.25l-3.35,2.4
		c1.733-0.567,3.733-0.933,6-1.1c1.8-1.033,4.3-1.433,7.5-1.2l0.1-0.1h0.05l1.5-0.55l-3.3-0.25c-0.533-0.033-0.8-0.117-0.8-0.25
		C-204.2-15.2-206.767-14.85-208.8-14.25z M89.95-80.5l-0.35-0.7l-0.65-0.1c-0.367-0.067-0.567-0.15-0.6-0.25l-1.9,0.25l1.5,0.95
		l1.5,0.55l0.7,0.55l0.75,0.45l0.5-0.9c-0.267-0.067-0.567-0.217-0.9-0.45L89.95-80.5z M78.9-76.45l0.25,1.3
		c0.033,0.5,0,0.733-0.1,0.7l1.2,1.2c1.033,0.9,2.05,1.583,3.05,2.05l-2.55-2.9l1-0.3c0.233-0.167,0.133-0.467-0.3-0.9
		C81.117-75.6,80.267-75.983,78.9-76.45z M-201.75-9.7l-3.4-0.45c-0.4-0.067-0.417-0.117-0.05-0.15l4.25,0.1l4.35,0.75l0.2-0.05
		l-1.8-0.35l1.8,0.3l0.35-0.15c0.967-0.567,2.4-0.883,4.3-0.95l-1.35-0.25l-0.4-0.25l-3.8-0.55l-0.1-0.05l-1.05-0.15l-2.6-0.1
		l1.4-0.05c0.133,0,0.167-0.017,0.1-0.05l-1.65-0.3l-2.5,1.75l2.35-1.75l-0.15-0.05l-0.55-0.05c-1.333-0.033-1.783-0.117-1.35-0.25
		h-2.55c-0.633,0.233-0.817,0.25-0.55,0.05l-5.7,0.9l-1.55,1.45l1.4-1.4l-0.6,0.15l0.6-0.2l2.85-2.25l-0.6,0.2l0.7-0.25
		c1.733-1.167,3.6-1.967,5.6-2.4l1.9-0.25c-0.833-0.2-1-0.3-0.5-0.3l9.1,0.7l-0.5-0.05l1,0.05l8.75-0.35l-0.05-0.25
		c1.8-0.033,4.233-0.683,7.3-1.95c3.167-1.3,4.183-1.883,3.05-1.75L-175.2-20l-0.1-0.2c-2.4,1.133-5.15,1.9-8.25,2.3l-4.5,0.75
		l3.15-0.6h-0.05l-0.05-0.2l1-0.1l-15-0.85c-0.5-0.067-0.75-0.167-0.75-0.3l-2.2-0.3l-2.7-0.05l-4.4,1.25l1.95-0.75l3-0.75
		l14.5,1.15c3.333,0.067,6.3-0.25,8.9-0.95c1.1-0.267,2.483-0.783,4.15-1.55l5.15-2.3l0.3-0.2l12.35-6.85
		c0.367-0.333,1-0.683,1.9-1.05l2.05-0.8c-0.333,0.033-0.4-0.017-0.2-0.15l0.85-0.4c5.833-1.667,12.267-2.617,19.3-2.85l7.05-0.35
		v-0.15l2.05-0.05v0.15l1.4-0.05v0.15l4.1-0.45v0.15l2.7-0.35l0.05,0.15l0.65-0.25l12.6-1.6l-0.5,0.4c-0.2,0.1-0.017,0.167,0.55,0.2
		l3.4,0.2l2.45-3.95l2.9-3.2l1.9-1.65c3.633-1.733,7.467-3.217,11.5-4.45L-70-54.6c4.8-1.367,9.033-2.183,12.7-2.45
		c5.667-0.4,12.333-0.033,20,1.1l21.6,3.35l31.8,2.85l8.1,0.3L29-49.7c5.533-0.333,11.783-1.617,18.75-3.85l17.1-5.25
		c-0.6-0.567-1.917-1.017-3.95-1.35l-1.15-0.2c-0.367,0.3-0.783,0.3-1.25,0l-1.1-0.95l4.3-0.1l0.85,0.05l3.65-0.6
		c1.5-0.433,2.25-0.883,2.25-1.35c0.467-0.9,0.483-1.483,0.05-1.75l-1.9-0.25c-2.433,0-3.817-0.667-4.15-2
		c1.233,0.833,2.733,1.267,4.5,1.3l4.6-0.1c0.267-0.067,0.483-0.167,0.65-0.3c0.433-0.333,0.85-0.967,1.25-1.9l-1.3,0.05
		c-1.1-0.067-2,0.25-2.7,0.95c0-0.9,0.383-1.467,1.15-1.7c0.567-0.2,1.217-0.2,1.95,0l1.1-0.05l1.2-0.3L76-69.3
		c2.833,0.133,4.717-0.2,5.65-1c-1.633-0.033-2.667-0.85-3.1-2.45l-0.2-0.85l0.1-0.7l0.1-2.3c-0.467-0.167-0.833-0.4-1.1-0.7l11-1
		c-0.367-2.167-1.533-2.75-3.5-1.75l-2.1,0.9c-0.7,0.1-1.167-0.283-1.4-1.15L84-80.75l4.5-1.5l-1.3-1.05
		c2.267,0.067,4.35,0.4,6.25,1c0.333-1.367-0.083-2.417-1.25-3.15c-1.567-0.967-2.433-1.617-2.6-1.95l0.45-0.25l1.4,1.35
		c0-0.933-0.217-1.467-0.65-1.6l4.4-0.35c1.867-0.033,3.283-0.383,4.25-1.05L97-89l-2.45-0.2l0.8-0.2l3.1,0.1
		c-0.5-0.967-1.167-1.483-2-1.55c-0.833-0.033-1.533,0.367-2.1,1.2L93.6-89.2c-0.9,0-1.717,0.183-2.45,0.55l-0.8-0.5l-0.5-0.45
		c0.333-0.6,0.817-1.017,1.45-1.25l0.85-0.2l4-0.1l3.95-1L95.4-92c-1.6-0.333-2.583-1.433-2.95-3.3L98.9-95
		c2.733,0.4,4.75,0.133,6.05-0.8l4.45-0.65l2.95,0.05c1.067,0.2,1.917,0.783,2.55,1.75l0.85-0.2c0.133-0.067,0.15-0.2,0.05-0.4
		l-0.3-0.6c-0.033-0.2,0.1-0.333,0.4-0.4l0.15,0.05l2.5,0.3c-0.7-3-1.067-5.3-1.1-6.9c-0.033-2.2,0.467-3.867,1.5-5
		c0.3-0.333,1.9,0.967,4.8,3.9l5.15,5.5l1.75,1.05l0.1-2.9c0.167-0.967,0.733-1.133,1.7-0.5l1.8,1.9l1.45,2.2l0.9,0.15
		c0.467-0.133,1.25,0.333,2.35,1.4c0.833,0.833,1.333,0.783,1.5-0.15c0.333,0.467,1.333,1.283,3,2.45c1.3,0.9,2.117,1.95,2.45,3.15
		c2.333,2.067,4.333,3.633,6,4.7l3.05,2.35l8.8,9.3c3.467,4.3,7.9,8.483,13.3,12.55l7.25,4.5c1.933,1.533,3.583,3.65,4.95,6.35
		c1,2.1,1.233,3.483,0.7,4.15c-0.433,0.567-0.483,1.517-0.15,2.85c0.3,1.333,0.317,2.217,0.05,2.65l-1.15,2.45
		c-0.5,0.867-1.133,1.417-1.9,1.65l-7,2.45l-6.35,0.4c-0.967-0.633-1.7-1.333-2.2-2.1l-0.8-0.85l-0.65-0.5l-11.25-4.35
		c-1.533-0.4-3.333-1.017-5.4-1.85c-1.7-0.7-3.1-1.133-4.2-1.3L136.9-45.2c-3.867-0.133-7.683-1.067-11.45-2.8h-0.25l-0.1,0.7
		c-6.6,12.633-11.217,22.1-13.85,28.4c-0.833,1.967-2.433,4.383-4.8,7.25l-3.8,4.25c-0.433,0.633-1.867,2.083-4.3,4.35
		c-2.067,1.933-3.5,3.7-4.3,5.3C93.917,2.517,93.7,4.033,93.4,6.8c-0.267,2.867-1.333,6.333-3.2,10.4
		c2.067,0.4,4.95,1.283,8.65,2.65c3.967,1.467,6.883,2.417,8.75,2.85l14,2.2l1.9,0.95c1.233,0.133,2.217,0.517,2.95,1.15
		c1.033,0.867,2.017,2.467,2.95,4.8l2.15,5.55c0.8,1.5,2.667,4.183,5.6,8.05l6.05,8c0.633,0.867,0.917,1.633,0.85,2.3
		c-0.167,1.967-0.85,4.733-2.05,8.3c-1.133,3.333-1.7,5.567-1.7,6.7l0.2,2.9c0.1,1.433,0.083,2.217-0.05,2.35l-0.4,4.55l-0.9,4.25
		c-1.167-0.133-2.417-0.633-3.75-1.5c-1.5-1.033-3.017-2.383-4.55-4.05c-1.867-2.067-3.067-3.933-3.6-5.6
		c0.467-1.5,1.717-3.1,3.75-4.8c2.033-1.7,3.3-3.25,3.8-4.65c0.233-1.3-0.233-2.267-1.4-2.9c-1.7-0.9-2.633-1.467-2.8-1.7
		c0.4-3.3-0.3-7.117-2.1-11.45c-1.667-4.1-3.717-7.35-6.15-9.75l-3.15-1.15c-0.567-0.2-1.167-0.517-1.8-0.95l-10.85,0.55L93,38.8
		c-0.033,2.633,0.833,5.75,2.6,9.35c2.3,4.767,3.617,7.717,3.95,8.85l3.6,3.7c0.6,0.7,1.683,2.483,3.25,5.35l8.05,13.6
		c2.267,3.267,4.5,6.833,6.7,10.7c2.033,2.533,4.2,4.833,6.5,6.9l3.7,2.95l4.65,4.85l5.9,4.55c3.133,2.6,4.4,4.367,3.8,5.3
		c-1.4,2.133-3.9,3.35-7.5,3.65c-3.367,0.267-6.267-0.3-8.7-1.7c-1.367-0.733-2-2.417-1.9-5.05c0.1-3.067-0.1-5-0.6-5.8
		c-0.667-0.667-1.4-0.867-2.2-0.6l-2.15,0.9c-0.467,0.1-1.283-0.283-2.45-1.15c-1.233-0.933-2.233-1.967-3-3.1
		c-0.933-1.367-1.817-3.2-2.65-5.5l-1.35-3.4c-0.7-1.133-1.233-2.233-1.6-3.3c-3.533-5.167-7.467-8.817-11.8-10.95
		c-1.4-0.7-2.5-1.383-3.3-2.05c-1.133-1-2.433-2.567-3.9-4.7l-2.7-4.45l-2-4.65v-0.7c-1.867-2.567-5.3-6.15-10.3-10.75
		c-5.533-5.1-9.267-8.783-11.2-11.05l-0.6-0.7l-8.6-2.9l-8.1-1.5L31.45,34.7l-13.5-1.45C9.317,32.15,1.467,30.033-5.6,26.9
		c-6.533-2.867-13.133-6.95-19.8-12.25c-1.767-1-3.433-1.833-5-2.5l-0.15-0.1c-2.067,3.767-6.417,8.767-13.05,15L-63.4,46
		c-2.033,2-3.183,3.333-3.45,4c-0.6,1.433-1.7,2.733-3.3,3.9c-0.8,1.3-1.45,2.7-1.95,4.2l-1.35,4.6
		c-1.367,2.8-2.017,6.333-1.95,10.6c0.033,2.767,0.45,6.783,1.25,12.05c1.033,2.6,1.617,6.333,1.75,11.2
		c0.033,0.5,0.5,1.617,1.4,3.35l1.6,2.7c1.5,1.5,4.267,3.7,8.3,6.6c3.133,2.5,4.417,4.45,3.85,5.85
		c-0.833,2.033-3.867,2.967-9.1,2.8c-5.333-0.167-8.967-1.5-10.9-4c-0.267-0.9,0.033-2.05,0.9-3.45
		c0.733-1.267,0.683-2.617-0.15-4.05c-0.4-0.433-1.083-0.583-2.05-0.45l-2.95-0.25c-0.933-0.433-1.8-2-2.6-4.7
		c-1.033-3.4-1.1-6.967-0.2-10.7l0.05-1.9c0.067-3.8-0.2-8.217-0.8-13.25L-86,68.6c-0.133-1.733-0.133-3.617,0-5.65l0.15-5.15
		c-0.033-1.233,0.233-2.867,0.8-4.9l0.4-2.6c-1.067,0.5-2.4,0.983-4,1.45l-7.75,2.7c-5.067,1.8-8.117,2.933-9.15,3.4l-2.75,0.9
		l-0.05,0.05c-5.067,1.6-10.217,4.433-15.45,8.5c-4.667,3.6-8.85,7.733-12.55,12.4l-0.6,0.65l-3.35,5.05
		c-1.4,2.733-2.417,5.017-3.05,6.85l-1.45,3.85l-2.95,4.75l-1.25,8.2c-0.867,4.533-2.2,8.15-4,10.85
		c-3.267-0.967-5.667-3.35-7.2-7.15c-1.3-3.2-1.783-6.7-1.45-10.5c0.433-0.833,1.433-1.5,3-2c1.4-0.4,2.283-1.417,2.65-3.05
		c0-0.6-0.4-1.167-1.2-1.7c-1-0.7-1.667-1.433-2-2.2c-0.267-0.633,0.617-2.067,2.65-4.3l4.9-5.35l5.4-6.95
		c1-1.467,1.917-2.633,2.75-3.5l10.1-12.1c3.7-5.5,6.383-9.333,8.05-11.5c2.8-3.633,5.717-5.917,8.75-6.85
		c3.4-1.9,5.733-3.333,7-4.3c2.067-1.567,4.617-4.1,7.65-7.6c1.167-2.467,2.05-4.6,2.65-6.4c1.1-3.333,1.267-6.867,0.5-10.6
		c-0.533-2.633-0.917-6.65-1.15-12.05c-1.833-5.333-3.117-10-3.85-14c-0.9-4.867-1.117-9.35-0.65-13.45l-1,0.65
		c-2.633,1.767-5.667,3.467-9.1,5.1c-3.333,1.633-6.533,2.967-9.6,4l-2.6,0.8c-5.5,2.6-11.033,4.983-16.6,7.15
		c-6.433,2.333-13.633,3.783-21.6,4.35l-5.95,0.35c-3.333-0.233-6.817-0.317-10.45-0.25l-1.7-0.25l-8.6-0.05l2.55-0.05
		c0.3,0,0.167-0.05-0.4-0.15c-0.567-0.067-0.717-0.117-0.45-0.15l6.05,0.05v-0.15l-9.5-0.25c-0.467-0.067-0.467-0.117,0-0.15
		l1.85-0.05l0.15-0.1c1.467-0.667,3.5-1.333,6.1-2l-0.1-0.05l-4.55-0.05l-0.85-0.2h-1.45l-6.05,2.45l5.45-2.45l-7.45-0.1l8.05-0.1
		l0.55-0.2l-1.25-0.15h-0.8l0.2-0.15l0.2-0.05l-4.4-0.9c-0.567,0.3-1.15,0.467-1.75,0.5l1.6-0.5l-5.25-0.7l2.25,0.1
		c0.3,0.033,0.167-0.017-0.4-0.15C-201.867-9.633-202.017-9.7-201.75-9.7l4.35,0.7l0.15-0.1L-201.75-9.7z M-198-14.2l6.9,0.3
		l-5.2-0.85L-198-14.2z M-105.65-26.9c0.233,0,0.717-0.183,1.45-0.55l0.1-0.5l-0.3,0.2v0.1l-0.4,0.2L-105.65-26.9z M-160.2-27.65
		c0.5-0.367,0.567-0.5,0.2-0.4l-1.25,0.65l-0.1-0.2l-1.25,0.6L-160.2-27.65z M-185.5-11.35l4.95,0.25l4.7-0.4
		c0.467-0.133,0.533-0.217,0.2-0.25l-1.5,0.1v-0.2L-185.5-11.35z M-191.2-7.45l-0.45,0.15h1.9L-191.2-7.45z M-183.7-6.65h-0.4
		L-191-4.7h1.75l1.75-0.6c0.233-0.1,0.1-0.1-0.4,0c-0.5,0.067-0.633,0.05-0.4-0.05L-183.7-6.65z M-182.3-6.45l-0.45-0.05
		c-1.667,0.333-3.8,0.933-6.4,1.8l6.75,0.05l-0.65-0.15c4.667-0.033,8.4-0.117,11.2-0.25v-0.1l-1.75,0.05v-0.3l8.25-0.6
		c3.3-0.367,4.517-0.617,3.65-0.75l-1.7,0.15v-0.2l-11.1,0.55v-0.2l1.95-0.1l-4.25,0.05C-179.8-6.3-181.633-6.283-182.3-6.45z
		 M-187.35-8.45h2.4v-0.3l3.4,0.05l-2.5-0.2l-0.85-0.2L-187.35-8.45z M-184.65-10.85l0.05-0.1l-1.5-0.2v-0.15h-0.7l-1.55-0.3
		l-1.55-0.05l5.1,0.8H-184.65z M-193.75-10.25l-2.35,0.75l7.5,0.95l2.85-0.8l-3.9-0.9h-1l-0.75-0.2L-193.75-10.25z M-197-9.05
		l-0.2,0.1l1.55,0.25v-0.1L-197-9.05z M-195.2-12l-0.5-0.1l-0.4,0.1l0.9,0.15V-12z"/>
</g>
</svg>
