<?xml version="1.0"?>
<!DOCTYPE svg PUBLIC "-//W3C//DTD SVG 1.1//EN" "http://www.w3.org/Graphics/SVG/1.1/DTD/svg11.dtd">
<svg version='1.1' width='431px' height='226px' xmlns='http://www.w3.org/2000/svg' xmlns:xlink='http://www.w3.org/1999/xlink'>
	<g transform="translate(229.4,104.686)">
		<path d="M -142.35 29.45 L -148.9 33.35 Q -150.45 37 -150.85 39.5 L -150.9 40.15 L -143.85 36.1 Q -138.3 32.65 -135.25 30.2 Q -130.75 26.6 -128.2 22.65 Q -132.8 24.4 -142.35 29.45 Z M -200.9 -14.1 L -202.85 -13.275 Q -201.838 -13.6787 -200.45 -14.1 Z M -200.1 -14.95 L -201.45 -14.5 L -201.05 -14.55 L -199.8 -14.95 Z M -200.55 -16.65 L -200.9 -16.6 L -200.5 -16.55 L -200.55 -16.65 L -200.05 -16.7 L -200.3 -16.7 L -200.3 -17 L -190.5 -17.55 L -190.5 -17.6 L -191.25 -17.65 L -191.75 -17.6 L -192.05 -17.6 L -192.05 -17.65 L -198.4 -17.6 L -201.8 -16.6 L -200.95 -16.6 Z M -181.15 -33.45 L -176.3 -34.2 Q -173.7 -35 -174.5 -35.05 L -175.9 -34.65 L -175.95 -34.9 Z M -217.5 -18.15 L -215.75 -18.3 Q -215.4 -18.35 -215.95 -18.4 L -216.6 -18.55 L -217.5 -18.15 L -217.55 -18.15 L -218.75 -17.55 L -219.75 -16.25 L -218.95 -17.45 L -219.9 -16.95 L -218.85 -17.55 L -218.5 -18 Q -218.85 -17.85 -218.5 -18.1 L -218.35 -18.15 L -218.1 -18.45 L -219.35 -17.85 Q -223.35 -15.85 -221.85 -16.85 L -218.9 -18.55 L -219.1 -18.5 Q -224.2 -17.65 -226.9 -16.65 L -229.4 -14.8 L -227.3 -16.5 L -229.05 -15.75 L -227.1 -16.65 Q -223.6 -19.3 -219.45 -21.2 Q -222.6 -20.5 -226.35 -18.4 Q -222.2 -21 -218.5 -21.65 L -215.95 -22.65 L -216.8 -22.6 L -215.8 -22.75 L -215.1 -23 Q -215.8 -23 -215.2 -23.1 L -214.7 -23.15 L -214.15 -23.3 L -216.05 -23.15 Q -220.2 -23 -218.5 -23.3 L -212.2 -23.95 L -211.5 -24.15 Q -206.85 -25.45 -200.8 -26.4 L -198.4 -26.95 L -198.45 -27.1 L -200.05 -26.7 L -200.1 -27 L -192.45 -28.8 Q -188 -29.75 -189 -29.85 L -190.6 -29.55 L -190.65 -29.75 L -196.25 -28.75 L -197.2 -28.4 L -197.95 -28.35 Q -199.85 -27.6 -205.3 -25.95 L -199.1 -28.15 L -201.1 -27.7 L -201.15 -27.9 L -199.35 -28.35 L -208.25 -26.7 L -215.45 -25.9 Q -216.25 -25.8 -216.25 -26.05 L -221.15 -25.5 Q -222.45 -25.1 -223.8 -24.25 L -225.35 -23.25 L -223.7 -24.4 Q -222.25 -25.45 -220.6 -25.85 L -206.15 -27.6 L -191.25 -31.1 Q -179.35 -35.55 -172.8 -37.25 L -168.45 -38.3 Q -169 -38.35 -168.7 -38.5 L -167.8 -38.7 L -141.25 -40.85 L -141.25 -41 L -139.1 -41.05 L -139.1 -40.9 L -137.7 -40.95 L -137.7 -40.8 L -133.5 -41.25 L -133.5 -41.1 L -130.75 -41.5 L -130.7 -41.35 L -130.05 -41.6 L -117.15 -43.2 Q -117.15 -43.15 -117.7 -42.8 Q -118 -42.6 -117.1 -42.6 L -115.3 -42.55 Q -111.55 -47.3 -106.9 -50.2 Q -104.25 -51.9 -100.45 -53.15 L -94.15 -54.9 Q -85.75 -57 -78 -57.45 L -65.05 -56.75 L -57.8 -55.7 Q -47.85 -52.55 -40.7 -51.3 Q -32.3 -49.85 -22.4 -49.95 L -2.35 -49.95 L 15.55 -51.65 Q 25 -53 34 -56.65 L 39.35 -57.65 Q 41.95 -58.15 36.85 -58.55 L 34.95 -58.55 L 31.6 -57.6 Q 28.95 -57 28.25 -58.55 Q 30.1 -58.6 32.65 -59.65 Q 35.4 -60.8 36.75 -61 L 40.6 -61.5 L 43.55 -62.4 Q 42.75 -64.4 40.7 -65.25 L 45.5 -64.7 Q 46.2 -64.6 44.4 -66.9 Q 45.2 -67.15 46 -66.6 Q 46.9 -65.95 47.45 -65.95 L 52.3 -66.45 L 56.95 -66.2 L 52.15 -67.55 Q 49.1 -68.3 46.4 -71 Q 49.15 -69.95 55.95 -69.95 L 65.15 -69.25 Q 65.25 -70.25 62.3 -71.35 Q 59.05 -72.6 58.85 -72.9 L 67.5 -74.3 L 79.85 -72.9 Q 80.65 -72.9 80.7 -73.75 Q 80.75 -74.65 79.85 -74.8 L 75.45 -74.7 Q 72.65 -74.5 72.25 -75.75 Q 72.95 -75.4 73.55 -75.4 L 75.1 -75.75 Q 77.35 -76.55 79.7 -76.75 L 87.35 -77 Q 87.2 -78.05 85.25 -78.45 Q 83.1 -78.85 82.75 -79.6 Q 84.65 -79.25 87.15 -80.35 Q 88.4 -80.9 89.45 -81.5 Q 89.5 -82.25 87.4 -82 L 82.75 -81.5 L 80.05 -82.15 Q 78.75 -82.75 78.9 -84.4 Q 81.65 -82.55 85.55 -84.15 L 91.3 -87.1 Q 88.05 -88.65 87.5 -90.1 L 89.7 -89.45 L 97.35 -88.45 Q 101.9 -88.05 102.6 -89.25 Q 101.45 -89.4 99.55 -93.15 Q 102.6 -91.8 102.8 -93 L 101.75 -93.85 L 103.75 -93.95 L 103.3 -95.15 Q 103 -95.6 103.75 -95.85 Q 105.05 -95.75 106.95 -94.45 Q 108.717 -93.2559 109.25 -92.3 L 107.55 -95.5 Q 106.2 -97.5 104.75 -98.7 Q 106.95 -99.55 110.75 -98.2 Q 114.1 -97 117.5 -94.55 L 121.1 -92 Q 121.5 -91.75 123.35 -90.85 Q 122.15 -91.95 121.85 -92.55 Q 121.35 -93.4 121.3 -95.1 L 126.35 -90.05 Q 125.45 -92.35 124.95 -98 Q 124.4 -104.1 125.5 -104.6 Q 126.9 -105.2 129.75 -101.6 L 133.5 -96.65 L 133.4 -97.75 Q 134.3 -97.65 134.95 -96.8 L 136.05 -95.45 L 138.2 -95.15 L 138.3 -98.2 Q 138.6 -99.75 140.1 -98.7 L 142 -96.8 L 143.55 -94.45 L 144.5 -94.3 Q 145.25 -94.55 147 -92.85 Q 148.35 -91.55 148.6 -93 Q 149.15 -92.25 151.75 -90.4 Q 153.8 -89 154.35 -87.1 Q 158.5 -83.6 160.7 -82.2 L 164 -79.8 L 173.3 -70.05 Q 179.15 -63 187.4 -56.9 Q 193.4 -53.6 195.15 -52.2 Q 198.2 -49.8 200.35 -45.55 L 201.2 -43.3 Q 201.6 -41.75 201.15 -41.2 Q 200.5 -40.3 201 -38.2 Q 201.5 -36.05 201.1 -35.35 L 199.9 -32.8 Q 199.15 -31.35 197.9 -31 L 190.5 -28.4 L 183.85 -27.9 Q 182.2 -29 181.5 -30.1 L 180.65 -31 L 179.95 -31.55 L 168.1 -36.05 Q 165.65 -36.65 162.35 -37.95 Q 159.65 -39.05 157.9 -39.3 L 145.2 -40.25 Q 139.25 -40.3 133.15 -43.05 L 129.8 -42.8 Q 128.7 -42.5 127.65 -41.35 L 120.75 -35.85 L 113.5 -28.3 Q 107.95 -22.75 105.7 -21.3 Q 102.25 -18.9 100.55 -16.4 Q 98.3 -13.2 98.05 -8.85 L 97.9 -3.6 Q 97.8 -0.4 98.05 1.65 Q 98.85 8.25 98.7 12.4 Q 98.5 18.05 96.65 20.7 L 94 24.7 Q 96.45 28.45 97.45 36.05 Q 98.7 45.15 100 48.65 L 102 54.9 Q 103.5 59.5 105.3 62.95 L 108.05 68.15 Q 109.75 71.3 110.35 74.5 L 111.7 79.05 Q 111.8 79.75 112.55 81.2 L 115.25 88.15 L 116.3 90.3 Q 118.2 93.75 119.3 95.05 L 126.2 104.05 Q 128.1 106.25 130.85 107.35 L 134.15 108.35 Q 136 108.9 137.3 109.6 Q 140 111 142.5 113.35 Q 144 114.85 143.3 116.2 Q 142.7 117.35 140.2 118.7 Q 137.6 120.1 135.4 120.5 Q 133.25 120.9 130.7 120.45 Q 127.75 119.95 126.8 118.3 Q 125.9 116.65 126.3 112.7 Q 124.75 111.4 121.95 110.55 L 117.15 110.2 Q 115.2 108.55 113.75 105.65 L 108.65 94.85 Q 106.65 91.2 105.8 89.35 L 102.5 83.8 L 100.05 81.3 Q 98.2 79.65 97.4 77.9 Q 93.6 69.7 89.5 63.35 L 82.1 52.35 L 71.25 39.05 Q 69.4 37.1 65.8 32.25 L 60.75 32.25 L 56.75 32.85 L 48.45 35.45 L 45.45 37.05 Q 41.15 39.6 39.3 41 L 33.75 45.75 Q 30.35 48.75 23.45 56.15 L 19.45 61.45 Q 17.2 64.45 15.6 67.05 L 13 70.75 Q 11.85 72.15 10.1 73.35 Q 8.8 74.3 8.2 75.25 L 0.9 84.8 Q -3.05 90.5 -4.25 96.3 Q -3.55 101.3 1.9 105.95 Q 7.95 111.05 9.15 114.45 Q 8.25 115.75 6.5 116.05 L -0.9 116.7 Q -5.95 116.45 -7.1 114.45 L -7.1 107.8 Q -7.4 107.5 -7.65 107.6 L -8.1 107.8 Q -10.25 104.35 -11.5 102.75 Q -13.7 100 -16.05 100.35 Q -16.85 100.5 -17.5 99.5 Q -18.4 98.15 -16.7 95.35 L -9.6 85.35 Q -4.95 79.1 -2.2 74.5 Q -0.7 72 0.65 67.8 Q 2 63.6 3 62 Q 4.05 60.3 5.55 58.35 L 8.05 54.7 L 14.2 41.7 L 14.9 38.15 Q 16.85 31.3 12 31.3 L -2.35 29.4 L -16.7 26 L -30.05 22.15 L -57.55 12.2 Q -64.2 10.85 -70.2 13.15 Q -75.65 15.2 -82.1 19.65 L -89.8 25.1 L -125.65 44.7 Q -127.9 45.75 -132.85 48.8 L -140 53.3 Q -143.2 55.4 -146.45 58.75 L -153.2 65.35 L -153.5 69.7 Q -153.75 72.1 -158.4 79.35 Q -162.8 86.2 -166.7 90.75 Q -168.9 93.6 -171.2 92.15 Q -172.3 91.45 -174 88.95 L -174.45 88.25 L -176.65 89.35 Q -177.55 89.85 -179 89.85 L -182.05 89.6 L -186.8 95.75 Q -189.8 99.15 -193.55 100.15 L -194.5 100.3 L -195.45 100.15 Q -199.55 98.2 -198.5 90.55 Q -197.45 82.85 -192.6 82.9 Q -191.75 82.9 -189.95 83.65 L -186.85 83.9 Q -185.35 83.35 -185.5 81.6 Q -185.7 79.25 -184.95 78.15 L -182.65 77.25 Q -180 76.3 -177.3 74.3 Q -172.25 70.65 -166.05 62.55 L -164.85 60.95 L -161.9 50.75 Q -161.4 48.45 -161.15 45.65 Q -160.8 43.05 -160.75 40.65 Q -160.7 37.85 -161.05 34.65 L -161.5 30.1 L -161.35 25.7 Q -161 22.9 -160 21.25 L -160.05 21.25 Q -158.85 19.45 -157.55 18.15 L -146.15 11.35 Q -135.55 5.15 -132 0.75 L -129.8 -2.65 Q -127.85 -5.8 -127.05 -7.6 L -127.1 -7.65 Q -126.35 -9.95 -125.75 -14.3 L -124.7 -21.3 L -123.2 -26.6 Q -130.55 -22.5 -137.95 -19.95 L -140.35 -19.25 Q -146.05 -16.5 -157.4 -11.85 Q -159.75 -10.9 -163.45 -10.5 L -169.3 -10.05 Q -174.25 -9.8 -180.3 -9.95 L -196.75 -10.75 L -198.5 -11 L -207.2 -10.5 L -204.6 -10.8 Q -204.15 -10.85 -205.05 -10.9 Q -205.9 -10.95 -205.5 -11.05 L -199.35 -11.35 L -199.4 -11.5 L -209 -11 Q -209.75 -11 -209.05 -11.15 L -207.65 -11.4 L -207.55 -11.5 Q -205.6 -12.75 -202.45 -14.05 L -205.75 -13.85 L -206.65 -13.95 L -208.65 -13.75 L -214.5 -9.8 Q -212.2 -11.9 -209.25 -13.65 L -216.55 -12.55 Q -212.85 -13.5 -208.75 -13.95 L -207.6 -14.6 L -209.6 -14.2 Q -210.15 -14.15 -209.6 -14.4 L -206.6 -15.3 L -208.45 -15.3 L -210.25 -15.6 L -213 -15.6 L -216.3 -13.7 L -213.3 -15.6 L -219.1 -15.1 L -216.45 -15.55 Q -216 -15.65 -216.9 -15.6 Q -217.85 -15.6 -217.4 -15.7 L -212.75 -15.95 L -212.5 -16.05 L -215.35 -16.05 L -220.3 -15.5 Q -222 -15.35 -221.05 -15.65 L -220.05 -15.85 L -211.55 -16.55 L -211.3 -16.65 L -211.25 -16.65 L -207.3 -17.9 L -207.05 -17.95 L -208.7 -17.9 L -210.25 -18.2 L -211.9 -18.15 L -212.2 -18.1 L -211.95 -18.15 Z M -218.3 -18.05 L -218.65 -17.7 L -217.75 -18.1 L -217.6 -18.2 Z M -213.15 -18.65 L -214.15 -18.7 L -216.2 -18.6 L -213.45 -18.55 Z M -216.55 -19.15 L -216.2 -19.15 L -212.8 -20.4 L -212.85 -20.55 Z M -217.15 -19.35 L -216.75 -19.7 Q -215.65 -20.65 -213.85 -21.3 L -216.5 -21.4 L -217.4 -21.55 L -217.7 -21.5 L -219.7 -20.6 Q -220.65 -20.15 -220.65 -20.4 Q -224.35 -18.4 -226.6 -16.85 Q -223 -18.3 -218.95 -18.75 L -217.95 -19 Z M -212.5 -21.75 L -199.25 -25.05 L -199.3 -25.1 L -206.85 -23.5 L -208.6 -23.45 L -214.3 -22.8 L -217 -21.8 L -216.5 -21.85 Z M -202.95 -15.2 L -207.5 -14.1 L -201.5 -14.5 L -200.15 -14.95 Z M -204.05 -12.55 L -204.5 -12.5 Q -204.186 -12.6881 -203.775 -12.875 L -207.2 -11.45 L -198.1 -12 L -198.5 -12.1 L -187.05 -12.05 L -187 -12.15 L -188.8 -12.2 L -188.8 -12.5 L -176.45 -12.85 L -178.2 -12.85 L -178.2 -13.05 L -189.65 -13.45 L -189.65 -13.65 L -187.3 -13.6 L -191.4 -14 Q -193.9 -14.3 -199.15 -14.15 Q -201.9 -13.45 -205.05 -11.85 L -203.65 -12.6 Q -203.3 -12.8 -204.05 -12.55 Z M -205.55 -15.1 L -205.65 -15.05 Q -206.4 -14.7 -206.55 -14.85 L -206.6 -14.85 L -208.15 -14.05 L -207.55 -14.1 L -205.7 -14.65 Q -205.35 -14.75 -206.1 -14.7 Q -206.85 -14.6 -206.5 -14.75 L -204.4 -15.25 L -204.9 -15.25 Z M -208 -17.45 L -210.6 -16.65 L -203 -16.6 L -199.75 -17.65 L -205.05 -17.95 L -207.2 -17.45 Q -208 -17.25 -208 -17.45 Z M -212.1 -16.05 L -212.35 -15.95 L -211.2 -15.95 L -211.2 -16.1 Z M -212.25 -21.3 L -212.65 -21.15 L -212.3 -21.3 L -213.15 -21.3 Q -214.85 -20.85 -216.55 -19.6 Q -214.55 -20.45 -211.8 -21.3 Z M -211.05 -18.7 L -212.15 -18.65 L -212.65 -18.55 L -211.05 -18.55 Z M -210.75 -21.75 Q -210.594 -21.7967 -210.425 -21.85 L -210.8 -21.75 Z M -209.45 -23.7 L -209.5 -23.8 L -212.2 -23.5 L -212.75 -23.3 Z M -202.6 -23.7 L -202.65 -23.85 L -207.375 -22.625 Q -204.471 -23.2977 -200.85 -23.85 L -200.85 -24 Z M -205.45 -20.3 L -205.5 -20.45 L -209.9 -19.25 L -209.5 -19.25 Z M -204.4 -21.15 L -204.85 -21.15 L -204.6 -21.25 L -207 -21.35 L -210.1 -20.55 L -211.85 -20.3 L -215.2 -19.15 L -211.65 -19.2 L -211.5 -19.25 Z M -203.05 -20.25 L -204.6 -20.15 L -208.05 -19.3 L -200.25 -19.45 L -200.25 -19.6 L -201.8 -19.55 L -201.8 -19.85 Q -189.2 -20.35 -191.05 -20.8 L -192.6 -20.7 L -192.6 -20.95 L -198.9 -20.75 L -198.8 -20.8 L -200.85 -20.75 Z" fill="#FAF643"/>
	</g>
</svg>
