<?xml version="1.0" encoding="utf-8"?>
<!-- Generator: Adobe Illustrator 17.0.0, SVG Export Plug-In . SVG Version: 6.00 Build 0)  -->
<!DOCTYPE svg PUBLIC "-//W3C//DTD SVG 1.1//EN" "http://www.w3.org/Graphics/SVG/1.1/DTD/svg11.dtd">
<svg version="1.1" id="图层_1" xmlns="http://www.w3.org/2000/svg" xmlns:xlink="http://www.w3.org/1999/xlink" x="0px" y="0px"
	 width="417px" height="228px" viewBox="0 0 417 228" enable-background="new 0 0 417 228" xml:space="preserve">
<g transform="translate(226.6,107.367)">
	<path fill="#BDF109" d="M-204.75-9.7l9.05-0.55c-0.233,0-0.35-0.033-0.35-0.1l11.45,0.05v-0.15h-1.75v-0.3L-174-11.1h-1.75v-0.25
		l-11.45-0.35v-0.25l2.35,0.05l-4.1-0.35c-1.667-0.2-4.25-0.25-7.75-0.15c-1.6,0.4-3.417,1.083-5.45,2.05l0.95-0.5
		c0.233-0.133,0.1-0.117-0.4,0.05l-0.45,0.05c0.7-0.433,2.05-0.983,4.05-1.65l-0.5,0.05L-204.75-9.7z M-199-12.8h0.4l1.25-0.4h-0.3
		L-199-12.8z M-199.05-12.8l1.35-0.45l-2.8-0.2l-4.55,1.1L-199.05-12.8z M-200.2-22.1l-4.5,1.15c2.021-0.455,4.121-0.839,6.3-1.15
		v-0.15l-1.75,0.25L-200.2-22.1z M-199.45-20.15l0.75-0.2l-1.7,0.1l0.55,0.1H-199.45z M-190.15-19v-0.2l-6.3,0.2l0.1-0.05h-2.05
		l-2.2,0.55l-1.55,0.1l-3.45,0.85l7.8-0.15v-0.15l-1.55,0.05v-0.3c8.4-0.333,11.983-0.65,10.75-0.95L-190.15-19z M-189.6-15.9
		l-6.35,0.05l-3.4,1l1.75-0.1l-0.25-0.05v-0.25l9.8-0.55v-0.05l-0.75-0.05l-0.5,0.05v-0.05l-0.3,0.05V-15.9z M-173.5-33.15
		l-5.25,1.45l4.9-0.75c1.7-0.567,2.3-0.85,1.8-0.85l-1.4,0.35L-173.5-33.15z M-180.6-31.1l1.05-0.15l-0.35-0.1L-180.6-31.1z
		 M-216.2-15.95l0.9-0.45l0.15-0.05l-0.7,0.15L-216.2-15.95z M-213.5-16.7l-0.65-0.15l-0.9,0.4l1.75-0.1
		C-213.067-16.583-213.133-16.633-213.5-16.7z M-215.25-19.8l-2,0.95c-0.633,0.3-0.95,0.367-0.95,0.2l-5.95,3.55
		c2.3-0.933,4.85-1.583,7.65-1.95l1-0.2l0.8-0.35l0.4-0.35c0.667-0.6,1.633-1.15,2.9-1.65l-2.65-0.05
		c-0.567,0.033-0.883-0.033-0.95-0.2L-215.25-19.8z M-204.1-13.15l-0.05,0.05l-1.55,0.8l0.6-0.05l1.85-0.55
		c0.267-0.067,0.133-0.083-0.4-0.05c-0.5,0.067-0.633,0.05-0.4-0.05l2.1-0.5l-0.5-0.05l-0.65,0.15l-0.15,0.1L-204.1-13.15z
		 M-207.45-17.5l0.4-0.05l4.05-1l-0.05-0.15L-207.45-17.5z M-210.05-14.35l-4.4,0.325l4.15-0.175
		C-210.2-14.233-210.117-14.283-210.05-14.35z M-209.65-14.35l-0.25,0.15h1.15v-0.15H-209.65z M-208.5-14.8h1.1
		c-0.267-0.006-0.4-0.056-0.4-0.15l7.25,0.1l3.25-1.05l-5.3-0.3l-2.15,0.5c-0.533,0.133-0.8,0.133-0.8,0l-2.6,0.75L-208.5-14.8z
		 M-208.6-16.8v-0.15h-1.1l-0.5,0.15H-208.6z M-208.35-20.05h0.05c0.178-0.05,0.353-0.1,0.525-0.15L-208.35-20.05z M-207.65-18.8
		l-1.75,0.2l-3.35,1.2l3.55-0.05l7.5-2.05l-0.75,0.05l-0.75,0.2l1.05-0.3l-2.4-0.05L-207.65-18.8z M-209.35-19.55h-0.45l-0.85,0.3
		l0.8-0.3l-0.85-0.05c-1.133,0.367-2.267,0.95-3.4,1.75L-209.35-19.55z M-210.35-18.65l-0.05-0.15l-3.7,1.4h0.35L-210.35-18.65z
		 M-204.4-21.75l-1.75,0.05l-5.7,0.65l-2.75,1l0.55-0.05l4,0.1l13.25-3.35h-0.05L-204.4-21.75z M-207-21.95l-0.05-0.15l-2.7,0.35
		l-0.55,0.15L-207-21.95z M123.85-100.45v-3.95c0.133-1.633,0.533-2.617,1.2-2.95c0.4-0.2,1.667,1.317,3.8,4.55
		c2.2,3.367,3.65,5.067,4.35,5.1c0.933,0.067,1.35-0.617,1.25-2.05c-0.2-2.067-0.25-3.217-0.15-3.45l3.7,3.95
		c1.2,1.467,1.8,2.4,1.8,2.8l1.05,0.5l1.5,2l1.15,2.3l0.85,0.25c0.467-0.1,1.167,0.45,2.1,1.65l1.5,0.05
		c0.267,0.467,1.133,1.367,2.6,2.7c1.133,1.033,1.783,2.15,1.95,3.35c2.3,2.5,4.05,4.233,5.25,5.2l4.75,5.1l5.35,7.55
		c3,4.767,6.8,9.317,11.4,13.65c3.333,2.433,5.5,4.167,6.5,5.2c1.667,1.733,3,3.983,4,6.75l0.5,2.1
		c0.133,0.967,0.033,1.617-0.3,1.95c-0.467,0.5-0.633,1.4-0.5,2.7c0.167,1.367,0.1,2.233-0.2,2.6l-1.4,2.2
		c-0.6,0.833-1.283,1.317-2.05,1.45l-7.05,1.5L172.6-26c-0.933-0.867-1.567-1.633-1.9-2.3l-0.65-0.95c-0.3-0.267-0.5-0.45-0.6-0.55
		l-4.05-2.15c-3.567-2.033-5.667-3.15-6.3-3.35c-1.433-0.567-3.1-1.383-5-2.45c-1.567-0.867-2.883-1.45-3.95-1.75
		c-3.433-0.933-7.267-1.7-11.5-2.3c-3.7-0.6-7.267-1.933-10.7-4c-0.9-0.667-1.6-0.95-2.1-0.85l-0.9,0.6
		c-3.333,2.567-6.083,5.183-8.25,7.85c-3.3,4-6.4,8.933-9.3,14.8c-1.233,2.467-2.667,4.767-4.3,6.9c-1.1,1.467-1.717,2.667-1.85,3.6
		c-0.267,1.933,0.1,4.883,1.1,8.85c0.633,2.333,1.833,5.467,3.6,9.4c1.067,3.5,0.6,6.967-1.4,10.4
		C112.25,25.817,120.7,35,129.9,43.3l3.15,3l6.75,4.85c1.633,1.333,2.867,2.517,3.7,3.55L154.9,65l4.4,2.55l4.85,2.15
		c1.3,0.633,2.883,1.45,4.75,2.45c1.667,0.7,3.733,1.05,6.2,1.05l9.35,1.05c1.267,0.4,1.817,1.217,1.65,2.45
		c-0.2,1.133-0.917,2.25-2.15,3.35l-3.65,2.55c-1.5,0.833-2.75,1.3-3.75,1.4l-4.45-0.35c-0.8-0.467-1.65-1.817-2.55-4.05
		c-1.167-0.567-2.067-0.817-2.7-0.75c-0.8,0.1-1.767,0.7-2.9,1.8c-1.533-0.367-3.083-1.117-4.65-2.25l-4.2-3.35
		c-1-0.833-2.483-1.9-4.45-3.2l-9.6-6.4l-3.55-0.95c-1.8-0.4-3.15-0.95-4.05-1.65c-2.9-2.233-5.95-4.95-9.15-8.15
		c-3.433-2.567-8.133-5.633-14.1-9.2l-14.45-8.8c-3.467,8.1-4.583,19.067-3.35,32.9c0.067,0.7,0.4,1.767,1,3.2
		c0.6,1.5,1.017,3.05,1.25,4.65c0.133,0.933,0.15,2.233,0.05,3.9c-0.133,1.733-0.15,3-0.05,3.8c1.067,9.133,2.9,15.75,5.5,19.85
		c0.433,0.667,1.3,1.217,2.6,1.65c1.8,0.633,3,1.133,3.6,1.5c5.567,0.7,9.283,1.467,11.15,2.3c3.167,1.433,5.1,4.017,5.8,7.75
		c-4.7,1.967-9.833,2.7-15.4,2.2c-1.067-1.4-1.45-3.233-1.15-5.5l-1.25-0.55l-1.25,0.1c-1.267,0.633-2.933,1-5,1.1
		c-2.033,0.1-3.217-0.083-3.55-0.55c-2.733-3.467-4.717-8.833-5.95-16.1c-1.5-8.867-2.8-14.6-3.9-17.2l-2.2-3.55
		c-1.1-1.733-1.833-3.433-2.2-5.1c-0.333-1.467-0.7-3.85-1.1-7.15c-0.367-3.2-0.733-5.583-1.1-7.15l-1.7-5.05
		c-0.833-2.1-1.367-3.733-1.6-4.9l-1.9-8.7l-2.55-8.9L44.3,31l-23.45-0.9c-9.9-1.2-18.35-2.667-25.35-4.4
		c-1.933-0.467-6.25-2.1-12.95-4.9c-6.767-2.8-11.267-4.483-13.5-5.05c-2.067-0.533-4.933-0.833-8.6-0.9
		c-3.5-0.033-7.633,1.233-12.4,3.8c-2.833,1.5-7.583,4.217-14.25,8.15l-6.55,4.15c-3.767,2.467-6.35,4.017-7.75,4.65
		c-2.367,1.1-5.217,2.667-8.55,4.7l-8.6,5.25c-2.633,1.567-7.15,3.817-13.55,6.75c-5.233,2.7-8.217,5.217-8.95,7.55
		c-0.6,1.9-1,5.033-1.2,9.4L-121.6,90c0.067,3.933,0.25,6.033,0.55,6.3l3.45,2.55c1.3,0.733,2.833,1.333,4.6,1.8
		c3.6,0.967,6.15,2,7.65,3.1c2.233,1.633,3.9,4.25,5,7.85c-1.533,1.4-4.217,2.467-8.05,3.2l-8.95-0.25
		c-1.8-0.8-2.517-2.383-2.15-4.75c0.367-2.3,0.1-3.583-0.8-3.85l-6.4-0.3c-2.8,0-4.533-0.567-5.2-1.7
		c-1.267-2.2-1.833-6.617-1.7-13.25c0.4-7.3,0.55-12.167,0.45-14.6l-1.1-10.8c-0.5-5.7-0.583-12.3-0.25-19.8
		c0.067-0.933,1.1-1.783,3.1-2.55c3.533-1.333,6-2.4,7.4-3.2l4.95-3.05c1.333-0.767,3-2.033,5-3.8l4.55-4.1l-18.1,9.1
		c-2.433,1.367-4.983,3.117-7.65,5.25c-2.567,2.033-5.1,3.717-7.6,5.05c-1.667,0.9-3.717,2.15-6.15,3.75
		c-3.4,2.233-5.9,4.133-7.5,5.7l-9.1,9.55c-4.1,4.3-6.583,6.617-7.45,6.95c-3.067,1.167-7.017,2.133-11.85,2.9
		c-6.9,1.1-13.233,1.233-19,0.4c0.833-6.067,3.783-10.467,8.85-13.2c0.633-0.367,1.517-0.483,2.65-0.35l2.85,0.35
		c1.367-0.367,2.167,0.3,2.4,2c0.2,1.767,0.867,2.567,2,2.4c0.633-0.367,1.083-1.083,1.35-2.15l0.85-3.35
		c0.3-0.7,2.15-2.233,5.55-4.6l11.1-8.05c3.267-2.6,6.45-5.55,9.55-8.85c3.133-3.333,5.683-6.467,7.65-9.4l0.7-2.15
		c0.233-0.833,0.833-1.567,1.8-2.2l15.45-8.85c4.333-2.633,7.483-4.983,9.45-7.05c3.267-3.467,4.883-7.35,4.85-11.65
		c0-1.3-0.2-3.183-0.6-5.65l-0.6-8.05c-0.133-3-0.1-5.733,0.1-8.2c0.133-1.8,0.433-3.633,0.9-5.5c-5.867,3.7-12.017,6.65-18.45,8.85
		l-2.45,0.7c-4.267,2.033-9.933,4.5-17,7.4c-1.567,0.633-3.583,1.083-6.05,1.35l-5.85,0.45c-3.533,0.2-7.2,0.217-11,0.05L-194.3-9
		l-1.75-0.3l-8.7,0.5l2.6-0.3c0.267-0.033,0.117-0.067-0.45-0.1c-0.6,0-0.75-0.033-0.45-0.1l6.1-0.3v-0.15l-9.6,0.5
		c-0.5-0.033-0.517-0.1-0.05-0.2l1.4-0.2l0.1-0.1c1.5-0.967,3.2-1.817,5.1-2.55l-3.3,0.2l-0.9-0.15l-2,0.25l-5.85,3.95
		c1.667-1.5,3.417-2.8,5.25-3.9l-7.35,1.1l7.85-1.35l1.15-0.65l-2,0.35c-0.367,0.033-0.367-0.017,0-0.15l3-0.9H-206l-1.8-0.3h-2.75
		l-3.3,1.9l3-1.9l-5.15,0.4l2-0.35c0.3-0.067,0.133-0.1-0.5-0.1c-0.477,0-0.668-0.025-0.575-0.075l-2.775,0.225
		c-1.133,0.1-1.383,0.05-0.75-0.15l1-0.2l0.05-0.05l8.45-0.65l0.25-0.1h-2.6l2.65-0.05l3.95-1.2l0.25-0.05l-1.65,0.05l-1.6-0.3h-1.6
		l-0.3,0.1l0.25-0.1l-5.6,0.05l-1.2,0.6l-0.95,1.2l0.75-1.15l-0.95,0.5l1.05-0.6l0.35-0.4c-0.233,0.1-0.233,0.067,0-0.1l0.15-0.05
		l0.25-0.3l-1.25,0.6c-2.533,1.267-3.367,1.583-2.5,0.95l2.95-1.65l-0.2,0.05c-3.4,0.567-6,1.183-7.8,1.85l-2.15,1.6l1.75-1.45
		L-226.6-14l1.95-0.9c2.2-1.667,4.75-3.183,7.65-4.55c-2.1,0.467-4.4,1.4-6.9,2.8c2.767-1.733,5.383-2.817,7.85-3.25l2.55-1.05
		l-0.85,0.1l1-0.15l0.7-0.25c-0.467,0-0.5-0.033-0.1-0.1l0.5-0.05l0.55-0.2l-1.9,0.2c-2.6,0.1-3.417,0.033-2.45-0.2l6.3-0.6l0.7-0.2
		c3.1-0.867,6.667-1.617,10.7-2.25l2.4-0.55l-0.05-0.15l-1.6,0.35l-0.05-0.25l7.65-1.8c2.967-0.667,4.117-1.033,3.45-1.1l-1.6,0.35
		l-0.05-0.25l-5.6,1.05l-0.95,0.35l-0.75,0.05c-1.267,0.5-3.717,1.3-7.35,2.4l6.2-2.2l-2,0.45l-0.05-0.25l1.6-0.35l-8.7,1.6
		l-7.2,0.8l-0.8-0.15l-4.9,0.5c-0.867,0.267-1.75,0.7-2.65,1.3l-1.6,1l1.7-1.2c0.967-0.667,2-1.133,3.1-1.4l5.1-0.45
		c4.433-0.4,7.533-0.833,9.3-1.3l14.95-3.5c7.933-2.967,14.083-5.017,18.45-6.15l4.35-1.05c-0.367-0.033-0.45-0.1-0.25-0.2l0.9-0.2
		l26.55-2.15v-0.15l2.1-0.05l0.05,0.1h1.4v0.15l4.2-0.45v0.15l2.75-0.4l0.05,0.15l0.65-0.25l12.9-1.6c0,0.067-0.183,0.183-0.55,0.35
		c-0.2,0.133,0,0.217,0.6,0.25l3.85,0.3c2-2.6,4.233-4.717,6.7-6.35l4.6-2.15c2.867-1.233,7.833-2.7,14.9-4.4l6.8-1.9
		c3.033-0.833,5.7-1.367,8-1.6c3.467-0.3,8.35-0.3,14.65,0c4.467,0.233,13.483,1.933,27.05,5.1C-15.8-48.983-6.683-47.7-0.75-48
		c2.033-0.1,5.783-0.733,11.25-1.9c7.167-1.5,12.45-3.117,15.85-4.85c3.4-1.7,6.183-2.967,8.35-3.8c3.333-1.267,6.8-2.2,10.4-2.8
		c-1.2-1.133-2.467-1.5-3.8-1.1c-1.6,0.5-2.917,0.5-3.95,0l1.5-0.2c0.833-0.267,1.467-0.583,1.9-0.95c1.233-1.033,0.1-1.75-3.4-2.15
		c2.433-0.633,4.383-0.867,5.85-0.7c1.933,0.167,3.6,0.167,5,0l2.2-0.65l5.7,0.25l-1.5-1.25c-0.6-0.5-0.833-1.183-0.7-2.05L57-70.9
		c1.033-0.433,1.467-1.283,1.3-2.55c4.233-0.167,8.2-0.617,11.9-1.35c3.267-0.667,7.017-1.683,11.25-3.05
		c1.033-0.367,2.867-1.6,5.5-3.7c2.2-1.8,4.4-2.783,6.6-2.95c-0.333-1-1.483-1.467-3.45-1.4l-5.35,0.3c0-0.433,1-0.983,3-1.65
		c1.533-0.5,1.633-1.05,0.3-1.65l3.2-0.25c2.133,0.167,3.633-0.117,4.5-0.85c0.167-0.567-1.267-1-4.3-1.3
		c-2.267-0.233-2.667-0.533-1.2-0.9c1.267-0.3,1.833-0.6,1.7-0.9l-1.7-0.2c1.467-0.533,2.833-0.7,4.1-0.5l2.25,0.5l2.95,0.25
		c0.733-0.233,0.567-1.05-0.5-2.45l2.55,1.35c0.933,0.633,1.917,0.917,2.95,0.85c0.733-0.433,0.883-0.783,0.45-1.05
		c-1.867-1.1-2.933-1.75-3.2-1.95c-1.833-1.4-1.017-1.267,2.45,0.4c0.8,0.433,2.033,0.817,3.7,1.15l5.45,0.35l-1.45-1.2
		c-1.433-0.867-2.783-1.933-4.05-3.2l4.45,1.6c0.8,0.3,2,0.3,3.6,0l2.4-0.6l2.8,0.1c1.033,0.2,1.783,0.5,2.25,0.9
		c0.033-0.667-0.2-1.217-0.7-1.65c-0.433-0.4-0.983-0.65-1.65-0.75c0.233-0.333,0.783-0.267,1.65,0.2l1.5,1.05
		C123.933-99.15,123.817-99.983,123.85-100.45z"/>
</g>
</svg>
