<?xml version="1.0" encoding="utf-8"?>
<!-- Generator: Adobe Illustrator 17.0.0, SVG Export Plug-In . SVG Version: 6.00 Build 0)  -->
<!DOCTYPE svg PUBLIC "-//W3C//DTD SVG 1.1//EN" "http://www.w3.org/Graphics/SVG/1.1/DTD/svg11.dtd">
<svg version="1.1" id="图层_1" xmlns="http://www.w3.org/2000/svg" xmlns:xlink="http://www.w3.org/1999/xlink" x="0px" y="0px"
	 width="431px" height="226px" viewBox="0 0 431 226" enable-background="new 0 0 431 226" xml:space="preserve">
<g transform="translate(229.4,104.686)">
	<path fill="#BDF109" d="M-142.35,29.45l-6.55,3.9c-1.033,2.433-1.683,4.483-1.95,6.15l-0.05,0.65l7.05-4.05
		c3.7-2.3,6.567-4.267,8.6-5.9c3-2.4,5.35-4.917,7.05-7.55C-131.267,23.817-135.983,26.083-142.35,29.45z M-200.9-14.1l-1.95,0.825
		c0.675-0.269,1.475-0.544,2.4-0.825H-200.9z M-200.1-14.95l-1.35,0.45l0.4-0.05l1.25-0.4H-200.1z M-200.55-16.65l-0.35,0.05
		l0.4,0.05L-200.55-16.65l0.5-0.05h-0.25V-17l9.8-0.55v-0.05l-0.75-0.05l-0.5,0.05h-0.3v-0.05l-6.35,0.05l-3.4,1h0.85L-200.55-16.65
		z M-181.15-33.45l4.85-0.75c1.733-0.533,2.333-0.817,1.8-0.85l-1.4,0.4l-0.05-0.25L-181.15-33.45z M-217.5-18.15l1.75-0.15
		c0.233-0.033,0.167-0.067-0.2-0.1l-0.65-0.15L-217.5-18.15h-0.05l-1.2,0.6l-1,1.3l0.8-1.2l-0.95,0.5l1.05-0.6l0.35-0.45
		c-0.233,0.1-0.233,0.067,0-0.1l0.15-0.05l0.25-0.3l-1.25,0.6c-2.667,1.333-3.5,1.667-2.5,1l2.95-1.7l-0.2,0.05
		c-3.4,0.567-6,1.183-7.8,1.85l-2.5,1.85l2.1-1.7l-1.75,0.75l1.95-0.9c2.333-1.767,4.883-3.283,7.65-4.55
		c-2.1,0.467-4.4,1.4-6.9,2.8c2.767-1.733,5.383-2.817,7.85-3.25l2.55-1l-0.85,0.05l1-0.15l0.7-0.25c-0.467,0-0.5-0.033-0.1-0.1
		l0.5-0.05l0.55-0.15l-1.9,0.15c-2.767,0.1-3.583,0.05-2.45-0.15l6.3-0.65l0.7-0.2c3.1-0.867,6.667-1.617,10.7-2.25l2.4-0.55
		l-0.05-0.15l-1.6,0.4l-0.05-0.3l7.65-1.8c2.967-0.633,4.117-0.983,3.45-1.05l-1.6,0.3l-0.05-0.2l-5.6,1l-0.95,0.35l-0.75,0.05
		c-1.267,0.5-3.717,1.3-7.35,2.4l6.2-2.2l-2,0.45l-0.05-0.2l1.8-0.45l-8.9,1.65l-7.2,0.8c-0.533,0.067-0.8,0.017-0.8-0.15l-4.9,0.55
		c-0.867,0.267-1.75,0.683-2.65,1.25l-1.55,1l1.65-1.15c0.967-0.7,2-1.183,3.1-1.45l14.45-1.75l14.9-3.5
		c7.933-2.967,14.083-5.017,18.45-6.15l4.35-1.05c-0.367-0.033-0.45-0.1-0.25-0.2l0.9-0.2l26.55-2.15V-41l2.15-0.05v0.15l1.4-0.05
		v0.15l4.2-0.45v0.15l2.75-0.4l0.05,0.15l0.65-0.25l12.9-1.6c0,0.033-0.183,0.167-0.55,0.4c-0.2,0.133,0,0.2,0.6,0.2l1.8,0.05
		c2.5-3.167,5.3-5.717,8.4-7.65c1.767-1.133,3.917-2.117,6.45-2.95l6.3-1.75c5.6-1.4,10.983-2.25,16.15-2.55l12.95,0.7l7.25,1.05
		c6.633,2.1,12.333,3.567,17.1,4.4c5.6,0.967,11.7,1.417,18.3,1.35h20.05l17.9-1.7c6.3-0.9,12.45-2.567,18.45-5l5.35-1
		c1.733-0.333,0.9-0.633-2.5-0.9h-1.9L31.6-57.6c-1.767,0.4-2.883,0.083-3.35-0.95c1.233-0.033,2.7-0.4,4.4-1.1
		c1.833-0.767,3.2-1.217,4.1-1.35l3.85-0.5l2.95-0.9c-0.533-1.333-1.483-2.283-2.85-2.85l4.8,0.55c0.467,0.067,0.1-0.667-1.1-2.2
		c0.533-0.167,1.067-0.067,1.6,0.3c0.6,0.433,1.083,0.65,1.45,0.65l4.85-0.5l4.65,0.25l-4.8-1.35c-2.033-0.5-3.95-1.65-5.75-3.45
		c1.833,0.7,5.017,1.05,9.55,1.05l9.2,0.7c0.067-0.667-0.883-1.367-2.85-2.1c-2.167-0.833-3.317-1.35-3.45-1.55l8.65-1.4l12.35,1.4
		c0.533,0,0.817-0.283,0.85-0.85c0.033-0.6-0.25-0.95-0.85-1.05l-4.4,0.1c-1.867,0.133-2.933-0.217-3.2-1.05
		c0.467,0.233,0.9,0.35,1.3,0.35l1.55-0.35c1.5-0.533,3.033-0.867,4.6-1L87.35-77c-0.1-0.7-0.8-1.183-2.1-1.45
		c-1.433-0.267-2.267-0.65-2.5-1.15c1.267,0.233,2.733-0.017,4.4-0.75c0.833-0.367,1.6-0.75,2.3-1.15c0.033-0.5-0.65-0.667-2.05-0.5
		l-4.65,0.5l-2.7-0.65c-0.867-0.4-1.25-1.15-1.15-2.25c1.833,1.233,4.05,1.317,6.65,0.25l5.75-2.95c-2.167-1.033-3.433-2.033-3.8-3
		l2.2,0.65l7.65,1c3.033,0.267,4.783,0,5.25-0.8c-0.767-0.1-1.783-1.4-3.05-3.9c2.033,0.9,3.117,0.95,3.25,0.15l-1.05-0.85l2-0.1
		l-0.45-1.2c-0.2-0.3-0.05-0.533,0.45-0.7c0.867,0.067,1.933,0.533,3.2,1.4c1.178,0.796,1.945,1.513,2.3,2.15l-1.7-3.2
		c-0.9-1.333-1.833-2.4-2.8-3.2c1.467-0.567,3.467-0.4,6,0.5c2.233,0.8,4.483,2.017,6.75,3.65l3.6,2.55
		c0.267,0.167,1.017,0.55,2.25,1.15c-0.8-0.733-1.3-1.3-1.5-1.7c-0.333-0.567-0.517-1.417-0.55-2.55l5.05,5.05
		c-0.6-1.533-1.067-4.183-1.4-7.95c-0.367-4.067-0.183-6.267,0.55-6.6c0.933-0.4,2.35,0.6,4.25,3l3.75,4.95l-0.1-1.1
		c0.6,0.067,1.117,0.383,1.55,0.95l1.1,1.35l2.15,0.3l0.1-3.05c0.2-1.033,0.8-1.2,1.8-0.5l1.9,1.9l1.55,2.35l0.95,0.15
		c0.5-0.167,1.333,0.317,2.5,1.45c0.9,0.867,1.433,0.817,1.6-0.15c0.367,0.5,1.417,1.367,3.15,2.6c1.367,0.933,2.233,2.033,2.6,3.3
		c2.767,2.333,4.883,3.967,6.35,4.9l3.3,2.4l9.3,9.75c3.9,4.7,8.6,9.083,14.1,13.15c4,2.2,6.583,3.767,7.75,4.7
		c2.033,1.6,3.767,3.817,5.2,6.65l0.85,2.25c0.267,1.033,0.25,1.733-0.05,2.1c-0.433,0.6-0.483,1.6-0.15,3
		c0.333,1.433,0.367,2.383,0.1,2.85l-1.2,2.55c-0.5,0.967-1.167,1.567-2,1.8l-7.4,2.6l-6.65,0.5c-1.1-0.733-1.883-1.467-2.35-2.2
		l-0.85-0.9l-0.7-0.55l-11.85-4.5c-1.633-0.4-3.55-1.033-5.75-1.9c-1.8-0.733-3.283-1.183-4.45-1.35l-12.7-0.95
		c-3.967-0.033-7.983-0.967-12.05-2.8l-3.35,0.25c-0.733,0.2-1.45,0.683-2.15,1.45l-6.9,5.5l-7.25,7.55c-3.7,3.7-6.3,6.033-7.8,7
		c-2.3,1.6-4.017,3.233-5.15,4.9c-1.5,2.133-2.333,4.65-2.5,7.55L97.9-3.6c-0.067,2.133-0.017,3.883,0.15,5.25
		c0.533,4.4,0.75,7.983,0.65,10.75c-0.133,3.767-0.817,6.533-2.05,8.3l-2.65,4c1.633,2.5,2.783,6.283,3.45,11.35
		c0.833,6.067,1.683,10.267,2.55,12.6l2,6.25c1,3.067,2.1,5.75,3.3,8.05l2.75,5.2c1.133,2.1,1.9,4.217,2.3,6.35l1.35,4.55
		c0.067,0.467,0.35,1.183,0.85,2.15l2.7,6.95l1.05,2.15c1.267,2.3,2.267,3.883,3,4.75l6.9,9c1.267,1.467,2.817,2.567,4.65,3.3l3.3,1
		c1.233,0.367,2.283,0.783,3.15,1.25c1.8,0.933,3.533,2.183,5.2,3.75c1,1,1.267,1.95,0.8,2.85c-0.4,0.767-1.433,1.6-3.1,2.5
		c-1.733,0.933-3.333,1.533-4.8,1.8c-1.433,0.267-3,0.25-4.7-0.05c-1.967-0.333-3.267-1.05-3.9-2.15c-0.6-1.1-0.767-2.967-0.5-5.6
		c-1.033-0.867-2.483-1.583-4.35-2.15l-4.8-0.35c-1.3-1.1-2.433-2.617-3.4-4.55l-5.1-10.8c-1.333-2.433-2.283-4.267-2.85-5.5
		l-3.3-5.55l-2.45-2.5c-1.233-1.1-2.117-2.233-2.65-3.4c-2.533-5.467-5.167-10.317-7.9-14.55l-7.4-11l-10.85-13.3
		c-1.233-1.3-3.05-3.567-5.45-6.8h-5.05l-4,0.6l-8.3,2.6l-3,1.6c-2.867,1.7-4.917,3.017-6.15,3.95l-5.55,4.75
		c-2.267,2-5.7,5.467-10.3,10.4l-4,5.3c-1.5,2-2.783,3.867-3.85,5.6l-2.6,3.7c-0.767,0.933-1.733,1.8-2.9,2.6
		c-0.867,0.633-1.5,1.267-1.9,1.9L0.9,84.8c-2.633,3.8-4.35,7.633-5.15,11.5c0.467,3.333,2.517,6.55,6.15,9.65
		c4.033,3.4,6.45,6.233,7.25,8.5c-0.6,0.867-1.483,1.4-2.65,1.6l-7.4,0.65c-3.367-0.167-5.433-0.917-6.2-2.25v-6.65
		c-0.2-0.2-0.383-0.267-0.55-0.2l-0.45,0.2c-1.433-2.3-2.567-3.983-3.4-5.05c-1.467-1.833-2.983-2.633-4.55-2.4
		c-0.533,0.1-1.017-0.183-1.45-0.85c-0.6-0.9-0.333-2.283,0.8-4.15l7.1-10c3.1-4.167,5.567-7.783,7.4-10.85
		c1-1.667,1.95-3.9,2.85-6.7C1.55,65,2.333,63.067,3,62c0.7-1.133,1.55-2.35,2.55-3.65l2.5-3.65l6.15-13l0.7-3.55
		c1.3-4.567,0.333-6.85-2.9-6.85l-14.35-1.9L-16.7,26l-13.35-3.85l-27.5-9.95c-4.433-0.9-8.65-0.583-12.65,0.95
		c-3.633,1.367-7.6,3.533-11.9,6.5l-7.7,5.45l-35.85,19.6c-1.5,0.7-3.9,2.067-7.2,4.1l-7.15,4.5c-2.133,1.4-4.283,3.217-6.45,5.45
		l-6.75,6.6l-0.3,4.35c-0.167,1.6-1.8,4.817-4.9,9.65c-2.933,4.567-5.7,8.367-8.3,11.4c-1.467,1.9-2.967,2.367-4.5,1.4
		c-0.733-0.467-1.667-1.533-2.8-3.2l-0.45-0.7l-2.2,1.1c-0.6,0.333-1.383,0.5-2.35,0.5l-3.05-0.25l-4.75,6.15
		c-2,2.267-4.25,3.733-6.75,4.4l-0.95,0.15l-0.95-0.15c-2.733-1.3-3.75-4.5-3.05-9.6c0.7-5.133,2.667-7.683,5.9-7.65
		c0.567,0,1.45,0.25,2.65,0.75l3.1,0.25c1-0.367,1.45-1.133,1.35-2.3c-0.133-1.567,0.05-2.717,0.55-3.45l2.3-0.9
		c1.767-0.633,3.55-1.617,5.35-2.95c3.367-2.433,7.117-6.35,11.25-11.75l1.2-1.6l2.95-10.2c0.333-1.533,0.583-3.233,0.75-5.1
		c0.233-1.733,0.367-3.4,0.4-5c0.033-1.867-0.067-3.867-0.3-6l-0.45-4.55l0.15-4.4c0.233-1.867,0.683-3.35,1.35-4.45h-0.05
		c0.8-1.2,1.633-2.233,2.5-3.1l11.4-6.8c7.067-4.133,11.783-7.667,14.15-10.6l2.2-3.4c1.3-2.1,2.217-3.75,2.75-4.95l-0.05-0.05
		c0.5-1.533,0.95-3.75,1.35-6.65l1.05-7l1.5-5.3c-4.9,2.733-9.817,4.95-14.75,6.65l-2.4,0.7c-3.8,1.833-9.483,4.3-17.05,7.4
		c-1.567,0.633-3.583,1.083-6.05,1.35l-5.85,0.45c-3.3,0.167-6.967,0.2-11,0.1l-16.45-0.8L-198.5-11l-8.7,0.5l2.6-0.3
		c0.3-0.033,0.15-0.067-0.45-0.1c-0.567-0.033-0.717-0.083-0.45-0.15l6.15-0.3l-0.05-0.15L-209-11c-0.5,0-0.517-0.05-0.05-0.15
		l1.4-0.25l0.1-0.1c1.3-0.833,3-1.683,5.1-2.55l-3.3,0.2l-0.9-0.1l-2,0.2l-5.85,3.95c1.533-1.4,3.283-2.683,5.25-3.85l-7.3,1.1
		c2.467-0.633,5.067-1.1,7.8-1.4l1.15-0.65l-2,0.4c-0.367,0.033-0.367-0.033,0-0.2l3-0.9h-1.85l-1.8-0.3H-213l-3.3,1.9l3-1.9
		l-5.8,0.5l2.65-0.45c0.3-0.067,0.15-0.083-0.45-0.05c-0.633,0-0.8-0.033-0.5-0.1l4.65-0.25l0.25-0.1h-2.85l-4.95,0.55
		c-1.133,0.1-1.383,0.05-0.75-0.15l1-0.2l8.5-0.7l0.25-0.1h0.05l3.95-1.25l0.25-0.05l-1.65,0.05l-1.55-0.3l-1.65,0.05l-0.3,0.05
		l0.25-0.05H-217.5z M-218.3-18.05l-0.35,0.35l0.9-0.4l0.15-0.1L-218.3-18.05z M-213.15-18.65l-1-0.05l-2.05,0.1l2.75,0.05
		L-213.15-18.65z M-216.55-19.15h0.35l3.4-1.25l-0.05-0.15L-216.55-19.15z M-217.15-19.35l0.4-0.35c0.733-0.633,1.7-1.167,2.9-1.6
		l-2.65-0.1l-0.9-0.15l-0.3,0.05l-2,0.9c-0.633,0.3-0.95,0.367-0.95,0.2c-2.467,1.333-4.45,2.517-5.95,3.55
		c2.4-0.967,4.95-1.6,7.65-1.9l1-0.25L-217.15-19.35z M-212.5-21.75l13.25-3.3l-0.05-0.05l-7.55,1.6l-1.75,0.05l-5.7,0.65l-2.7,1
		l0.5-0.05L-212.5-21.75z M-202.95-15.2l-4.55,1.1l6-0.4l1.35-0.45L-202.95-15.2z M-204.05-12.55l-0.45,0.05
		c0.209-0.125,0.451-0.25,0.725-0.375l-3.425,1.425l9.1-0.55l-0.4-0.1l11.45,0.05l0.05-0.1l-1.8-0.05v-0.3l12.35-0.35h-1.75v-0.2
		l-11.45-0.4v-0.2l2.35,0.05l-4.1-0.4c-1.667-0.2-4.25-0.25-7.75-0.15c-1.833,0.467-3.8,1.233-5.9,2.3l1.4-0.75
		C-203.417-12.733-203.55-12.717-204.05-12.55z M-205.55-15.1l-0.1,0.05c-0.5,0.233-0.8,0.3-0.9,0.2h-0.05l-1.55,0.8l0.6-0.05
		l1.85-0.55c0.233-0.067,0.1-0.083-0.4-0.05c-0.5,0.067-0.633,0.05-0.4-0.05l2.1-0.5h-0.5L-205.55-15.1z M-208-17.45l-2.6,0.8
		l7.6,0.05l3.25-1.05l-5.3-0.3l-2.15,0.5C-207.733-17.317-208-17.317-208-17.45z M-212.1-16.05l-0.25,0.1h1.15v-0.15L-212.1-16.05z
		 M-212.25-21.3l-0.4,0.15l0.35-0.15h-0.85c-1.133,0.3-2.267,0.867-3.4,1.7c1.333-0.567,2.917-1.133,4.75-1.7H-212.25z
		 M-211.05-18.7l-1.1,0.05l-0.5,0.1h1.6V-18.7z M-210.75-21.75c0.104-0.031,0.212-0.064,0.325-0.1l-0.375,0.1H-210.75z
		 M-209.45-23.7l-0.05-0.1l-2.7,0.3l-0.55,0.2L-209.45-23.7z M-202.6-23.7l-0.05-0.15l-4.725,1.225
		c1.936-0.448,4.111-0.857,6.525-1.225V-24L-202.6-23.7z M-205.45-20.3l-0.05-0.15l-4.4,1.2h0.4L-205.45-20.3z M-204.4-21.15h-0.45
		l0.25-0.1l-2.4-0.1l-3.1,0.8l-1.75,0.25l-3.35,1.15l3.55-0.05l0.15-0.05L-204.4-21.15z M-203.05-20.25l-1.55,0.1l-3.45,0.85
		l7.8-0.15v-0.15l-1.55,0.05v-0.3c8.4-0.333,11.983-0.65,10.75-0.95l-1.55,0.1v-0.25l-6.3,0.2l0.1-0.05l-2.05,0.05L-203.05-20.25z"
		/>
</g>
</svg>
