<?xml version="1.0"?>
<!DOCTYPE svg PUBLIC "-//W3C//DTD SVG 1.1//EN" "http://www.w3.org/Graphics/SVG/1.1/DTD/svg11.dtd">
<svg version='1.1' width='402px' height='233px' xmlns='http://www.w3.org/2000/svg' xmlns:xlink='http://www.w3.org/1999/xlink'>
	<g transform="translate(210.55,110.337)">
		<path d="M -162.95 -4 L -158.75 -3.8 Q -155.75 -3.7 -156.7 -4.05 Z M -181.6 -8.45 L -181.2 -8.45 L -181.2 -8.55 L -182.4 -8.65 Z M -173.4 -14.45 L -172.45 -14.8 L -175.8 -14.85 Z M -180.45 -15.65 L -176.6 -15 L -176.6 -15.1 L -174.3 -15.1 L -176.4 -15.15 L -177 -15.1 L -176.55 -15.2 Z M -169.05 -18.3 L -170.7 -18.25 L -170.7 -18.5 L -174.9 -18.45 L -175.95 -18.35 L -176.65 -18.5 L -183.4 -18.15 L -180.4 -17.7 L -180.4 -17.75 Q -177 -17.6 -172.6 -17.8 Q -167.9 -18 -169.05 -18.3 Z M -190.85 -10.85 L -191.35 -10.95 L -190.85 -10.75 L -190.85 -10.85 L -187.15 -9.8 L -183.35 -10.25 L -187.7 -11.55 L -191.35 -11 Z M -185.2 -9.65 L -186.05 -9.75 L -186.55 -9.65 L -184.8 -9.2 L -179.8 -8.9 L -180.35 -9.1 L -179.5 -9.05 L -180.4 -9.25 L -182.25 -9.9 Z M -192.75 -10.85 L -196.825 -11.25 L -193 -10.8 Z M -192.45 -10.75 L -192.7 -10.7 L -192 -10.45 L -191.95 -10.6 Z M -196.7 -14.75 L -195.75 -15.2 L -199.15 -14.6 Z M -193.3 -15.65 L -193.3 -15.75 L -193.7 -15.65 Z M -198.225 -13.7 L -196.05 -13.9 Q -195.65 -13.95 -196.25 -14 L -197.55 -14.15 L -198.225 -13.7 L -200.6 -12.15 L -197.8 -14.15 L -198.75 -14.2 Q -200.95 -14.1 -199.95 -14.35 L -199.9 -14.4 L -200 -14.4 L -200.7 -14.15 L -200.05 -14.4 L -201.6 -14.4 L -202.85 -14.2 L -202.55 -14.35 L -208.9 -13.55 L -210.55 -12.25 L -209.15 -13.5 L -209.65 -13.4 L -209.05 -13.55 L -205.15 -16.1 L -206.85 -15.7 L -204.9 -16.25 Q -201.75 -17.7 -198.5 -18.3 Q -200.15 -18.65 -199.05 -18.65 L -197.5 -18.5 L -188.7 -18.75 L -183.55 -18.15 L -178.25 -18.55 L -181.2 -18.7 L -181.15 -18.9 L -179.8 -18.85 L -195.6 -20.5 Q -196.35 -20.6 -196.35 -20.8 L -198.55 -21.1 L -201.4 -21.1 L -206.05 -20.15 L -201 -21.35 L -185.95 -20.05 Q -176.4 -19.4 -167.95 -20.05 Q -160.15 -21.65 -152.2 -24.6 Q -151.55 -24.8 -151.25 -25.05 L -150.35 -25.5 L -148.4 -26.2 Q -148.9 -26.15 -148.65 -26.3 L -147.85 -26.7 Q -135.7 -31.6 -130.35 -33.35 L -123.75 -35.7 L -123.8 -35.85 L -123 -36.05 L -121.8 -36.5 L -121.75 -36.35 L -120.25 -36.75 L -120.2 -36.6 L -116.15 -37.8 L -116.1 -37.7 L -113.35 -38.45 L -113.3 -38.35 L -112.65 -38.6 L -105.9 -39.95 L -100.35 -40.35 Q -99.15 -42.9 -97.65 -44.05 Q -94.6 -46.2 -92.7 -47.1 Q -87.25 -49.7 -81.2 -51.55 L -69.1 -55.3 Q -61.9 -57.35 -56.4 -57.75 Q -47.9 -58.35 -36.4 -56.65 L -14.8 -53.3 L 16.95 -50.45 L 25.05 -50.15 L 29.9 -50.4 Q 38.2 -50.9 48.6 -54.25 Q 62.9 -58.85 65.7 -59.5 Q 64.8 -60.35 61.75 -60.85 Q 58.7 -61.35 57.75 -62.15 L 65.425 -62.15 Q 65.2602 -62.2098 65.2 -62.45 Q 65.05 -62.9 65.7 -63.05 L 68.3 -63.3 Q 70.2 -63.8 70.15 -65.7 Q 66.15 -66.7 63.95 -68.35 Q 65.9 -68.75 70 -67.2 Q 73 -66.05 74.55 -68.35 Q 74.3 -69.1 72.25 -69.15 Q 70.25 -69.2 70.15 -70.15 Q 71.15 -70.3 76.9 -70.05 Q 81.15 -69.85 82.55 -71 Q 80.55 -71.05 79.75 -72.65 Q 79.15 -73.8 79 -76.35 Q 79.8 -75.15 81.15 -73.95 Q 82.6 -72.65 84.2 -71.9 L 81.65 -74.8 L 82.5 -74.65 Q 82.8 -75.35 82 -75.95 L 79.55 -77.3 L 78.65 -78.45 L 84.3 -78.1 Q 84.6 -78.9 87.05 -78.9 Q 89.4 -78.85 89.6 -79.85 Q 89 -81.35 86.35 -81.4 L 83.4 -81.65 Q 84.7 -82.8 85.7 -82.95 L 85.55 -83 L 90.85 -83.45 L 89.6 -85.2 L 84.6 -85.45 Q 82.3 -86.05 81.65 -87.85 Q 83.35 -86.55 85.35 -86.25 Q 87.55 -85.9 89.6 -86.95 Q 91.95 -85.2 93.65 -83 L 94.15 -82.9 Q 94.75 -84.85 93.9 -86.4 L 92.75 -87.85 Q 92.25 -88.4 92.05 -88.3 Q 92.1 -88.45 92.3 -88.45 L 91.3 -89.55 Q 91 -90.1 91.4 -90.5 Q 93.35 -90.35 94.2 -88.4 L 92.95 -91.95 Q 95.35 -90.55 97.05 -90.3 L 99.85 -89.7 Q 97.4 -91.9 92.25 -93.15 L 94.75 -93.25 L 96.85 -92.5 L 95.75 -94.1 L 91.4 -94.9 Q 91.95 -95.85 93.05 -95.85 L 95.15 -95.45 L 94.85 -96.4 Q 95.9 -95.75 96.9 -95.15 L 97.6 -95.8 L 95.65 -96.65 Q 94.3 -97.3 95.8 -97.55 L 97.5 -97.15 Q 97.6 -97.8 100.45 -96.1 L 100.1 -97.4 L 98.85 -98.95 Q 100.05 -98.85 101.85 -97.6 Q 103.6 -96.4 104.05 -95.45 Q 103.4 -97.2 102.15 -98.95 L 99.5 -99.25 Q 98.05 -99.5 97.6 -100.2 L 99.5 -100.6 L 101 -100.45 L 99.8 -101.65 L 102.9 -101.8 L 101 -102.65 Q 99.85 -103.15 99.35 -103.75 Q 103.25 -104.15 105.15 -101.25 Q 108.6 -100 111.85 -97.65 L 112.5 -97.2 Q 113 -97.55 112.25 -98.5 Q 111.1 -99.85 110.9 -100.65 L 113.3 -98.25 Q 114.618 -96.8523 114.85 -96.1 L 114.8 -96.45 Q 114.5 -97.25 114.65 -97.2 L 115.4 -96.75 L 117.6 -97.3 L 119 -97.35 L 117.35 -104.7 Q 116.85 -108.55 118.25 -110.3 Q 118.6 -110.8 125 -104.55 L 131.35 -98.2 L 131.5 -101 Q 131.85 -102.4 133.3 -101.45 L 135.1 -99.55 L 136.6 -97.35 L 137.5 -97.2 Q 138.15 -97.4 139.8 -95.8 Q 141.1 -94.55 141.35 -95.95 Q 141.85 -95.25 144.3 -93.5 Q 146.25 -92.1 146.75 -90.35 Q 150.5 -87.1 152.75 -85.65 L 155.85 -83.3 L 164.6 -74 Q 169.8 -67.55 177.9 -61.45 Q 183.5 -58.3 185.2 -56.95 Q 188.05 -54.65 190.1 -50.6 L 190.9 -48.5 Q 191.25 -47 190.85 -46.45 Q 190.2 -45.6 190.65 -43.6 Q 191.15 -41.6 190.75 -40.95 L 189.55 -38.5 Q 188.85 -37.2 187.7 -36.85 L 180.65 -34.4 L 174.35 -34 Q 172.8 -35 172.15 -36.1 L 171.35 -36.95 L 170.7 -37.45 L 159.45 -41.8 Q 157.2 -42.4 154.05 -43.65 Q 151.45 -44.7 149.8 -44.95 L 137.75 -45.9 Q 132 -46.1 126.35 -48.7 L 126.05 -48.7 L 126 -48 Q 116.6 -30.2 112.1 -19.6 Q 110.85 -16.65 107.3 -12.35 L 99.2 -3.75 Q 96.1 -0.85 94.9 1.55 Q 94.8 1.7 94.25 6.5 Q 93.65 11.3 90.15 18.45 L 95.95 21 Q 99.4 22.5 101.9 23.25 L 115.75 26.3 L 118.1 27.75 Q 119.6 29.1 120.55 31.85 Q 120.85 32.75 119.6 36.9 L 118.8 39.4 L 120.6 39.9 Q 124.2 40.75 127.85 43.35 L 142.1 55.25 L 147.95 59.25 L 150.45 61.4 Q 152.2 62.9 153.65 65.5 Q 155.65 69.1 157.6 71.6 L 163.05 76.65 Q 167.4 81 166.35 82.3 Q 163.95 85.25 158.55 85.2 Q 153.45 85.15 150.05 82.7 Q 148.1 81.4 148.6 77.55 Q 149.2 73 148.55 71.75 Q 147.65 70.65 146.4 70.95 L 144.2 71.6 Q 143.45 71.7 141.85 70.25 Q 140.1 68.7 139.15 66.9 L 135.25 60.2 Q 128.5 54.4 120.85 53.35 L 115.45 51.75 L 113.9 65.25 Q 113.65 66.9 112.9 67.55 Q 110.7 69.5 105.7 72.1 Q 101 74.55 99.8 75.8 Q 96.75 79.65 96.35 79.7 L 89.3 85.15 Q 88.2 83.85 87.65 81.45 Q 87.05 78.75 87.15 75.35 Q 87.25 71.25 88.45 68.85 Q 90.5 67.75 94.4 68 Q 98.4 68.25 100.35 67.25 Q 101.95 66.05 101.35 64.15 Q 100.45 61.4 100.5 61 Q 102.95 59 105 55.35 Q 106.9 52 108.05 48 L 107.9 47.7 Q 102.3 46.2 92.75 45.7 L 76.55 45.2 L 70.35 38.7 L 69.3 38.85 L 57.85 39.6 L 51.2 38.9 Q 47.75 36.9 47.25 34.95 L 18.8 32.55 Q 5.9 30.9 -4.7 26.2 Q -14.55 21.85 -24.55 13.95 Q -27.3 12.4 -29.55 11.45 Q -31.45 10.6 -33.15 10.2 Q -35.75 15.3 -41.1 21.2 L -43.55 24.75 L -46.55 35.55 Q -48.3 41.8 -49.1 45.75 L -50.5 51.2 Q -51.5 55.3 -51.3 56.4 Q -50.9 58.75 -51.1 59.5 Q -50.85 60.4 -50.95 61.2 Q -51.1 67.25 -44.65 76.35 L -39.05 83.8 Q -35.75 88.2 -34.15 91.15 L -33.75 92.7 L -27.1 99.85 Q -22.4 105.2 -20.55 109.75 Q -24.5 113 -30.5 111.75 Q -35.55 110.65 -40 107.05 Q -40.7 105.85 -39.95 103.45 Q -39.3 101.4 -41 99.55 L -43.1 99.6 Q -44.8 100.25 -46.05 100 Q -47.2 99.8 -48.5 95.75 Q -49.65 92.15 -50.05 88.7 Q -52.4 83.6 -56.35 77.2 L -59.85 71.8 L -64.3 62 Q -65.5 59.65 -65.7 57.6 Q -67.15 55.75 -66.35 51.6 Q -65.45 46.8 -65.65 46.05 L -72.25 50.3 Q -75.9 52.45 -80.95 54.5 L -87.95 57.2 Q -94.85 59.85 -96.25 60.7 Q -102.2 64.2 -104.3 73.25 Q -105.65 79.15 -105.65 90.55 L -105.85 94.95 L -105.8 95.5 Q -103.25 100.85 -103.05 102.7 Q -102.9 103.9 -103.35 105.8 Q -103.6 106.95 -102.75 108.05 Q -97.55 114.7 -96.55 117.3 Q -94.8 121.75 -100.05 122.3 Q -104.15 122.75 -108.75 121.5 Q -114.4 119.95 -114.8 116.8 L -114.3 113.9 Q -114.05 112.9 -112.9 111.45 Q -111.75 108.55 -113.25 108.3 Q -116 107.9 -116.45 107.4 L -115.15 88.45 Q -114.45 84.3 -114.9 80.5 Q -115.5 75.8 -115.4 74.2 Q -116.55 62.15 -116.25 57.4 Q -115.75 49.6 -109.65 45.25 Q -103.85 41.5 -102.35 40.15 Q -100.85 38.75 -96.15 32.25 Q -94.8 28.4 -94.15 25.6 Q -92.95 20.45 -94.6 15 Q -95.5 12.05 -96.45 5.75 L -101.8 -10.1 Q -103.6 -16.95 -102.9 -25.85 L -118.65 -14.85 L -120.85 -13.6 L -120.95 -13.45 L -126.55 -8.5 Q -131.45 -4.95 -137.5 -3.1 Q -142.85 -1.45 -149.2 -1.1 Q -154.4 -0.85 -160.8 -1.4 L -177.45 -3.8 L -179.15 -4.25 L -188.05 -5.1 L -185.4 -5 Q -184.95 -5 -185.8 -5.15 Q -186.7 -5.35 -186.25 -5.35 L -180 -4.75 L -180 -4.85 L -189.75 -5.9 Q -190.45 -6.05 -189.75 -6.1 L -178.35 -5.1 L -179.05 -5.35 L -167.45 -3.95 L -167.45 -4.1 L -169.25 -4.3 L -169.2 -4.55 L -178.6 -6 L -181.55 -6.85 L -186.4 -6.3 L -184.05 -6.7 Q -183.65 -6.75 -184.45 -6.8 Q -185.25 -6.8 -184.85 -6.9 L -182.55 -7.15 L -182.85 -7.25 L -188 -6.6 Q -188.45 -6.55 -188.05 -6.75 L -184.05 -7.6 L -185.9 -8.1 L -186 -8.1 L -186.9 -8.3 L -188.1 -8.2 L -186.9 -8.35 L -187.05 -8.4 L -190.25 -8.55 Q -191.9 -7.9 -195.05 -6 Q -192.7 -7.65 -190.65 -8.6 L -197 -8.75 L -190.25 -8.75 L -189.5 -9.1 L -193.35 -10.55 L -196.55 -9.7 L -193.6 -10.6 L -198.7 -11.05 L -197.2 -11.1 Q -196.75 -11.1 -197.65 -11.25 Q -198.462 -11.3402 -198.175 -11.4 L -201.8 -11.75 Q -202.65 -11.9 -201.8 -11.95 Q -195.65 -12.15 -192.25 -11.2 L -194.4 -11.85 L -191.75 -11.15 L -188.35 -11.75 L -189.6 -12.1 L -190.95 -12.9 L -191.95 -12.7 L -191 -12.95 L -191.05 -12.95 L -191.8 -13.25 L -193.65 -12.95 Q -194 -12.85 -193.6 -13.1 L -192.6 -13.45 Z M -200.25 -14.8 L -200.85 -14.6 L -199.3 -14.6 L -198.45 -14.85 Q -198.05 -15 -198.9 -14.85 Q -199.8 -14.75 -199.4 -14.9 L -194.65 -15.6 L -194.2 -15.75 Z M -183 -12.5 L -184.55 -12.85 L -188.05 -13.1 L -183.2 -11.75 L -182.3 -11.7 L -182.25 -12 L -180.25 -11.55 L -175.6 -11.2 Q -178.85 -11.85 -178.75 -12.1 L -179.55 -12.3 Z M -182.55 -15.7 L -182.55 -15.85 L -187.1 -16.1 L -180.8 -15.25 L -180.8 -15.4 Z M -190.8 -13.85 L -190.65 -13.85 L -190.7 -13.9 L -190.55 -13.9 Q -188.25 -14.15 -183.95 -13.75 L -184.45 -13.95 L -184.25 -13.9 L -186.5 -14.7 L -190.7 -15 L -192.45 -15.3 L -195 -15.25 L -196.3 -14.75 Q -193 -14.75 -190.8 -13.85 Z M -190.2 -17.15 L -190.2 -17.3 L -197.3 -18.1 L -200.1 -17.55 L -201.1 -17.5 L -203.75 -16.5 L -196.9 -17.35 L -195.55 -17.35 L -197.55 -17.6 L -195.1 -17.35 Q -194.75 -17.35 -195.5 -17.55 Q -196.3 -17.75 -195.9 -17.75 Z M -188.7 -16.6 L -189.45 -16.75 L -192.65 -17.05 L -191.55 -16.85 L -190.45 -16.5 Z M -189 -17.6 Q -189.35 -17.65 -189.35 -17.8 L -183.75 -17.45 L -185.05 -17.75 L -189.4 -18.3 Q -192.5 -18.55 -195.5 -18.3 Z M -204.2 -16.3 Q -206.65 -15.25 -208.8 -13.65 L -202.05 -14.55 Q -198.3 -16.25 -192.35 -16.25 L -192.25 -16.25 L -192.45 -16.35 L -191.6 -16.35 L -196.9 -16.9 L -197.75 -17.1 Z M 90.85 -81.2 Q 89.65 -82 87.75 -82.5 L 91.8 -79.5 L 92.25 -80.4 Z" fill="#FAF643"/>
	</g>
</svg>
