<?xml version="1.0"?>
<!DOCTYPE svg PUBLIC "-//W3C//DTD SVG 1.1//EN" "http://www.w3.org/Graphics/SVG/1.1/DTD/svg11.dtd">
<svg version='1.1' width='398px' height='247px' xmlns='http://www.w3.org/2000/svg' xmlns:xlink='http://www.w3.org/1999/xlink'>
	<g transform="translate(212.65,116.85)">
		<path d="M -102.5 -26.9 L -103.75 -26.05 L -102.55 -26.5 L -102.45 -26.95 Z M -175.5 -11.9 L -174.55 -12.2 L -177.9 -12.3 Z M -179.1 -12.55 L -178.65 -12.6 L -182.55 -13.05 L -178.7 -12.45 L -178.7 -12.55 L -177.45 -12.5 L -178.5 -12.6 Z M -183.3 -5.85 L -183.3 -6 L -184.5 -6.05 Z M -187.4 -10.7 L -187.4 -10.85 L -191.6 -11 L -191.3 -10.9 Z M -184.4 -9.15 L -184.35 -9.4 L -182.35 -9 L -177.7 -8.65 Q -181 -9.2 -180.85 -9.55 L -181.65 -9.7 L -185.1 -9.9 L -186.65 -10.3 L -190.15 -10.55 L -185.3 -9.15 L -184.3 -9.1 Z M -184.35 -7.35 L -187.3 -7.1 L -188.15 -7.15 L -188.65 -7.1 L -186.9 -6.65 L -181.7 -6.35 L -182.45 -6.5 L -181.6 -6.45 Z M -201.25 -12.05 L -200.6 -12 L -198.8 -12.15 L -197.85 -12.6 Z M -192.95 -8.25 L -193.45 -8.4 L -192.95 -8.2 L -192.95 -8.25 L -189.25 -7.25 L -185.45 -7.7 L -189.8 -9 L -193.45 -8.45 Z M -194.8 -8.15 L -194.1 -7.9 L -194.05 -8.05 L -194.55 -8.2 Z M -194.55 -12.75 L -197.1 -12.65 L -198.4 -12.15 Q -195.35 -12.25 -192.9 -11.3 L -192.75 -11.3 L -192.8 -11.35 L -192.65 -11.3 Q -190.65 -11.55 -186.05 -11.2 L -186.55 -11.35 L -186.35 -11.35 L -188.6 -12.1 Z M -194.75 -14.5 L -192.55 -13.95 L -190.8 -14.05 Z M -195.4 -13.1 L -195.4 -13.2 L -195.8 -13.1 Z M -196.75 -13 L -196.3 -13.2 L -202.35 -12.2 L -202.95 -12.05 L -201.4 -12.05 L -200.55 -12.3 Q -200.15 -12.45 -201 -12.3 Q -201.9 -12.15 -201.5 -12.3 Z M -184.65 -13.1 L -184.65 -13.3 L -189.2 -13.55 L -182.9 -12.7 L -182.9 -12.85 Z M -185.45 -15.6 L -182.5 -15.1 L -182.5 -15.15 Q -179 -15.05 -174.7 -15.25 Q -170 -15.45 -171.15 -15.75 L -172.8 -15.7 L -172.8 -15.9 L -177 -15.9 L -178.05 -15.8 L -178.75 -15.9 L -185.45 -15.6 L -180.35 -16 L -183.25 -16.1 L -183.25 -16.35 L -182.2 -16.3 L -197.7 -17.9 Q -198.45 -18 -198.45 -18.2 L -200.65 -18.5 Q -201.9 -18.7 -203.5 -18.5 L -208.15 -17.55 L -203.1 -18.75 L -188.05 -17.45 Q -178.4 -16.8 -170.05 -17.5 Q -161.8 -19.2 -154.3 -22.05 Q -153.65 -22.25 -153.35 -22.5 L -152.45 -22.95 L -150.5 -23.6 Q -151 -23.55 -150.75 -23.7 L -149.95 -24.1 L -125.85 -33.15 L -125.9 -33.25 L -123.9 -33.9 L -123.85 -33.8 L -122.35 -34.2 L -122.3 -34.05 L -118.25 -35.25 L -118.2 -35.1 L -115.45 -35.9 L -115.4 -35.75 Q -115.445 -35.9012 -114.75 -36.05 L -111.95 -36.75 L -102 -37.85 Q -102 -37.8 -102.5 -37.5 Q -102.8 -37.3 -101.95 -37.3 L -97.45 -36.9 L -96.25 -38.75 Q -83.9 -48 -80 -50.1 Q -70.8 -55.05 -59 -55.7 L -30.9 -54.85 L -4.3 -53.1 Q 2.45 -52.55 9.35 -53.45 Q 16.5 -54.4 22.25 -56.65 Q 26.15 -58.15 33.4 -62.35 Q 40.35 -65.75 47.95 -65.5 Q 48.55 -66.5 47.55 -67.95 Q 46.8 -68.95 47.95 -69.05 L 53.7 -69.45 Q 56.3 -70.25 56.8 -72.6 Q 56.7 -73.9 54.45 -74.2 Q 51.9 -74.5 51.5 -75.25 Q 53.7 -76.2 57.25 -76.2 Q 60.8 -76.2 63 -75.25 Q 63.2 -75.95 62.4 -77.35 Q 62 -78 63.9 -77.9 Q 67.35 -76.55 69.75 -76.4 Q 73.05 -76.15 75.4 -77.9 Q 75.8 -79.3 73.8 -80 Q 71.05 -80.9 70.25 -82 L 78.95 -82.3 Q 79.45 -83.55 84.5 -85.3 Q 88 -86.5 84.95 -89.45 L 82.7 -91.15 Q 81.15 -92.2 80.7 -92.95 L 86.45 -92.6 Q 86.7 -92.55 87.65 -93.05 L 94.9 -93.85 L 96 -93.6 L 95.15 -93.95 Q 92.8 -95 92.05 -95.85 L 94.2 -95.25 L 97.55 -95.6 Q 99.15 -96.15 99.85 -96.6 L 101.75 -98.2 L 104.2 -99.3 Q 102.15 -100.65 98.3 -100.2 Q 99.45 -101.95 102.5 -102.05 Q 105.5 -102.1 107.1 -100.45 L 108.35 -100.9 L 107.75 -101.6 L 105.45 -101.7 Q 104.5 -101.8 105.35 -102.15 L 106.5 -102.3 Q 107.35 -103.35 108.55 -102.9 L 108.7 -103.8 Q 107.8 -104.2 108.05 -105.5 L 108.85 -105.3 L 109 -106.3 L 110.4 -104.95 L 111.1 -104.75 Q 110.5 -106.75 109.35 -108.45 L 109.65 -109.7 Q 112.3 -109.5 115.85 -106.85 Q 117.65 -108.65 118.4 -108.3 L 118.65 -108.15 Q 118.7 -107.05 120.15 -106.2 Q 120.95 -105.7 122.9 -104.75 Q 122.2 -107.65 122.2 -111.1 Q 122.2 -115 123.25 -116.85 Q 124.4 -115.9 126.2 -112.85 Q 127.65 -110.4 129.45 -109.8 L 130.55 -110.3 Q 131.2 -110.75 131.2 -109.8 Q 132.3 -109.7 132.2 -111.45 Q 132 -113.9 132.1 -114.2 Q 132.7 -115.1 133.2 -112 Q 133.85 -108.3 134.75 -108 Q 136 -108.1 138.15 -104.95 Q 138.65 -105.2 139.4 -104.5 Q 140.15 -103.75 140.75 -102.5 L 141.8 -100.25 L 142.6 -100 Q 143.25 -100.1 144.55 -98.35 Q 145.5 -97 145.95 -98.25 Q 146.3 -97.55 148.35 -95.55 Q 149.95 -94 150.1 -92.25 Q 153.15 -88.7 154.95 -87.05 L 157.45 -84.45 L 164.2 -74.6 Q 168.15 -67.7 174.6 -61 Q 179.3 -57.35 180.65 -55.8 Q 182.95 -53.25 184.25 -49.2 L 184.65 -47.15 Q 184.75 -45.75 184.3 -45.3 Q 183.6 -44.6 183.7 -42.7 Q 183.85 -40.75 183.4 -40.2 L 181.95 -38.15 Q 181.1 -37.05 179.95 -36.9 L 173.15 -35.7 L 167.25 -36.25 Q 166 -37.4 165.5 -38.5 Q 165.2 -39.3 164.4 -39.95 L 154.65 -45.65 Q 152.6 -46.55 149.95 -48.15 Q 147.7 -49.5 146.25 -49.95 L 135.25 -52.65 Q 132.45 -53.15 129.8 -54.3 Q 128 -55 123.5 -57.5 Q 121.05 -57.75 119.7 -57.5 Q 116.15 -56.95 113.5 -52.2 L 109.95 -45.1 Q 109.55 -44.3 109.05 -42.5 L 108.15 -39.8 L 103.2 -30.25 Q 100.1 -24.4 99.3 -20.3 Q 99 -18.65 99.2 -15.85 Q 99.45 -12.75 99.3 -11.45 Q 99.15 -9.9 98 -6.65 Q 96.85 -3.4 96.65 -1.7 L 96.3 1.85 Q 96.25 2.7 97.05 3.15 L 101.2 5.85 Q 104.2 8.05 110.95 11.65 Q 118.2 15.55 121.3 17.65 Q 122.4 18 124.55 19.65 L 127.7 21.85 Q 131.2 23.6 132.75 26.95 L 134.25 31 Q 135.1 34 135.9 35.8 Q 138.65 42.1 141.35 50.6 L 143.4 56.25 Q 144.45 59.5 143.8 60.8 Q 143.3 62.95 141.3 65.3 Q 138.75 68.3 137.3 71.4 L 135.2 78.5 Q 133.3 84.3 131.65 83.95 Q 127.9 83.15 125.55 78.35 Q 123.3 73.75 123.95 69.6 Q 124.25 67.3 127.95 66 Q 132.25 64.5 133.1 63.35 Q 133.65 62 133.25 61.3 L 132.05 59.9 Q 131.85 59.6 132.4 57 Q 133.05 54.1 132.7 52.45 L 132.55 51.4 Q 131.3 45.45 129.1 41.1 Q 126.3 35.7 121.7 32.15 L 119.95 30.05 Q 119 28.9 115.95 28.15 L 108.25 27.45 Q 115.2 30.45 115.4 30.95 Q 116.4 31.8 116.85 33.1 Q 117.95 36.2 116.8 39.35 Q 115.4 40.8 112.15 42.7 Q 107.8 45.25 107.2 45.7 Q 105.1 47.2 99.95 52.3 L 92.8 59.35 Q 91.55 60.4 90.55 60.45 Q 87.6 60.6 82.1 59.5 Q 76.9 58.45 75.2 58.65 L 70.05 59.5 L 65.5 59.7 L 61.15 59.35 Q 61.1 57.65 62.15 55.45 Q 63.45 52.95 65.6 50.4 Q 68.3 47.2 70.7 46.1 Q 73 46.5 75.9 49.15 Q 78.85 51.9 81 52.35 Q 83 52.45 83.7 50.55 Q 84.75 47.9 85.05 47.6 Q 89.35 47.55 94.75 44.8 Q 99.7 42.3 103.25 38.7 Q 100.75 37.4 95.35 37.05 L 86.35 36.25 L 74.35 33.5 Q 69.75 32.35 67.35 32.2 Q 62.45 32 56 30.25 Q 50.5 28.75 49.7 28 L 47.85 25.9 Q 47.15 26.45 45.45 27.15 Q 29.7 32.45 9.95 28.55 L -7.3 24.4 Q -18.45 21.6 -25.9 20.5 Q -26.45 24.55 -29.2 30.65 L -35.35 43.2 Q -35.95 44.4 -36.75 48.15 L -37.55 53 Q -37.6 54.1 -38 55.1 L -37.9 56.2 Q -37.6 61.9 -31.4 69.55 L -20.5 82.3 L -19.95 82.85 L -8.9 89.9 Q -3 93.85 0 97.75 Q -2.9 101.95 -9.05 102.3 Q -14.25 102.6 -19.5 100.3 Q -20.45 99.3 -20.35 96.85 Q -20.3 94.65 -22.4 93.3 Q -23.25 93 -24.45 93.9 Q -25.9 95 -27.15 95.1 Q -28.15 95.2 -30.1 92.4 Q -31.8 90 -33.3 86.85 L -33.35 86.85 L -34.7 83.85 Q -37.45 78.85 -41.95 72.7 L -45.95 67.5 L -51.15 58.05 Q -52.85 55.2 -52.95 53.25 L -53 53.15 Q -53.95 50.95 -52.05 46.4 Q -49.9 41.15 -49.9 40.45 Q -49.9 39.25 -50.15 38 L -52.35 40.05 L -57 46.35 Q -59.7 49.75 -63.65 53.4 L -69.2 58.4 Q -74.65 63.35 -75.7 64.65 Q -80.05 70 -78.75 79.2 Q -77.95 85.25 -73.85 95.85 L -72.5 100.05 L -69.7 105.25 Q -67.7 108.7 -67.4 110.45 Q -67.2 111.6 -67.5 113.55 Q -67.65 114.7 -66.7 115.75 Q -61 122 -59.85 124.5 Q -57.75 128.8 -62.95 129.75 Q -67.05 130.5 -71.7 129.6 Q -77.45 128.5 -78.1 125.4 L -77.8 122.4 Q -77.65 121.4 -76.6 119.9 Q -75.65 116.9 -77.15 116.75 Q -79.95 116.55 -80.45 116.1 L -80.4 111.75 Q -80.25 109 -80.6 107.35 Q -80.85 106.15 -82.05 102.35 L -83.5 97.3 Q -84.35 93.2 -86.1 89.8 Q -88.35 85.55 -88.85 84.1 Q -94.2 73.25 -95.65 68.65 Q -97.95 61.2 -93.75 54.95 L -88.8 47.6 Q -87.85 45.8 -85.8 38 Q -85.85 33.95 -86.25 31.1 Q -86.95 25.9 -90.45 21.35 Q -92.8 18.3 -96.45 11.55 Q -99.9 5.25 -100.55 3.25 Q -101 1.65 -102 -1.25 Q -102.7 -3.75 -102.75 -5.8 Q -105.15 -14.3 -103 -24.55 L -120.75 -12.3 L -122.95 -11 L -128.65 -5.95 Q -133.3 -2.5 -139.6 -0.5 Q -144.95 1.15 -151.3 1.45 Q -156.55 1.75 -162.9 1.15 L -168.85 0.55 Q -173.6 -0.6 -179.5 -1.2 Q -179.5 -1.4 -181.25 -1.7 L -190.15 -2.55 L -187.5 -2.4 Q -187.05 -2.4 -187.9 -2.55 Q -188.8 -2.75 -188.35 -2.75 L -182.1 -2.15 L -182.1 -2.3 L -189.2 -3 Q -193.55 -3.4 -191.85 -3.5 L -180.5 -2.5 Q -181.15 -2.6 -181.15 -2.75 L -169.55 -1.4 L -169.55 -1.55 L -171.35 -1.75 L -171.3 -1.95 L -180.7 -3.45 L -183.65 -4.3 L -188.5 -3.75 L -186.15 -4.15 Q -185.8 -4.2 -186.55 -4.25 Q -187.35 -4.25 -186.95 -4.35 L -184.65 -4.6 L -184.95 -4.7 L -190.1 -4.05 Q -190.55 -4 -190.15 -4.2 L -186.15 -5 L -188 -5.5 L -188.1 -5.5 L -189 -5.7 L -190.2 -5.6 L -189 -5.8 L -189.15 -5.8 L -192.35 -6 L -194.95 -4.7 L -192.75 -6 L -199.1 -6.2 L -192.35 -6.2 L -191.6 -6.5 L -195.45 -8 L -198.65 -7.15 L -195.7 -8.05 L -202.05 -8.5 L -199.3 -8.5 Q -198.85 -8.5 -199.75 -8.65 Q -200.65 -8.75 -200.2 -8.8 L -195.1 -8.25 L -194.85 -8.3 L -203.9 -9.2 Q -204.8 -9.35 -203.9 -9.35 Q -198.2 -9.65 -194.5 -8.65 L -196.5 -9.25 L -193.85 -8.55 L -190.45 -9.15 L -191.7 -9.55 L -193 -10.35 L -194.05 -10.1 L -193.1 -10.35 L -193.15 -10.4 L -193.9 -10.7 L -195.75 -10.4 Q -196.1 -10.3 -195.7 -10.55 L -194.7 -10.9 L -200.4 -11.15 L -198.15 -11.3 Q -197.8 -11.35 -198.35 -11.4 L -199.05 -11.55 L -199.65 -11.55 Q -200.262 -11.2633 -200.85 -10.9 L -199.9 -11.6 L -200.85 -11.65 Q -203.05 -11.55 -202.05 -11.8 L -202.1 -11.8 L -202.8 -11.55 L -202.15 -11.8 L -203.7 -11.8 L -205.1 -11.4 L -204.95 -11.6 L -204.65 -11.75 L -211 -11 L -212.65 -9.65 L -211.25 -10.95 L -211.75 -10.85 L -211.2 -11 Q -209.3 -12.55 -207.25 -13.55 L -208.95 -13.15 L -207 -13.65 Q -204.2 -15 -200.6 -15.75 Q -202.5 -16.15 -201.15 -16.05 L -199.6 -15.9 L -190.8 -16.15 L -185.65 -15.6 Z M -190.9 -15.05 L -191.45 -15.2 L -192.85 -15.35 L -185.85 -14.85 L -187.15 -15.2 L -191.5 -15.75 Q -194.65 -15.95 -197.6 -15.7 Z M -210.9 -11.05 L -204.15 -12 Q -200.2 -13.75 -194.45 -13.65 L -194.35 -13.7 Q -194.55 -13.7 -194.55 -13.8 L -193.7 -13.8 L -199.85 -14.5 L -206.3 -13.75 Z M -203.2 -14.95 L -205.85 -13.9 L -199 -14.75 L -197.65 -14.8 L -199.65 -15 L -197.2 -14.8 Q -196.8 -14.75 -197.6 -14.95 Q -198.4 -15.15 -198 -15.15 L -192.3 -14.6 L -192.3 -14.75 L -199.4 -15.5 L -202.2 -15 Z" fill="#FAF643"/>
	</g>
</svg>
