<?xml version="1.0"?>
<!DOCTYPE svg PUBLIC "-//W3C//DTD SVG 1.1//EN" "http://www.w3.org/Graphics/SVG/1.1/DTD/svg11.dtd">
<svg version='1.1' width='417px' height='228px' xmlns='http://www.w3.org/2000/svg' xmlns:xlink='http://www.w3.org/1999/xlink'>
	<g transform="translate(226.6,107.367)">
		<path d="M -204.75 -9.7 L -195.7 -10.25 Q -196.05 -10.25 -196.05 -10.35 L -184.6 -10.3 L -184.6 -10.45 L -186.35 -10.45 L -186.35 -10.75 L -174 -11.1 L -175.75 -11.1 L -175.75 -11.35 L -187.2 -11.7 L -187.2 -11.95 L -184.85 -11.9 L -188.95 -12.25 Q -191.45 -12.55 -196.7 -12.4 Q -199.1 -11.8 -202.15 -10.35 L -201.2 -10.85 Q -200.85 -11.05 -201.6 -10.8 L -202.05 -10.75 Q -201 -11.4 -198 -12.4 L -198.5 -12.35 Z M -199 -12.8 L -198.6 -12.8 L -197.35 -13.2 L -197.65 -13.2 Z M -199.05 -12.8 L -197.7 -13.25 L -200.5 -13.45 L -205.05 -12.35 Z M -200.2 -22.1 L -204.7 -20.95 Q -201.669 -21.633 -198.4 -22.1 L -198.4 -22.25 L -200.15 -22 Z M -199.45 -20.15 L -198.7 -20.35 L -200.4 -20.25 L -199.85 -20.15 Z M -190.15 -19 L -190.15 -19.2 L -196.45 -19 L -196.35 -19.05 L -198.4 -19.05 L -200.6 -18.5 L -202.15 -18.4 L -205.6 -17.55 L -197.8 -17.7 L -197.8 -17.85 L -199.35 -17.8 L -199.35 -18.1 Q -186.75 -18.6 -188.6 -19.05 Z M -189.6 -15.9 L -195.95 -15.85 L -199.35 -14.85 L -197.6 -14.95 L -197.85 -15 L -197.85 -15.25 L -188.05 -15.8 L -188.05 -15.85 L -188.8 -15.9 L -189.3 -15.85 L -189.3 -15.9 L -189.6 -15.85 Z M -173.5 -33.15 L -178.75 -31.7 L -173.85 -32.45 Q -171.3 -33.3 -172.05 -33.3 L -173.45 -32.95 Z M -180.6 -31.1 L -179.55 -31.25 L -179.9 -31.35 Z M -216.2 -15.95 L -215.3 -16.4 L -215.15 -16.45 L -215.85 -16.3 Z M -213.5 -16.7 L -214.15 -16.85 L -215.05 -16.45 L -213.3 -16.55 Q -212.95 -16.6 -213.5 -16.7 Z M -215.25 -19.8 L -217.25 -18.85 Q -218.2 -18.4 -218.2 -18.65 L -224.15 -15.1 Q -220.7 -16.5 -216.5 -17.05 L -215.5 -17.25 L -214.7 -17.6 L -214.3 -17.95 Q -213.3 -18.85 -211.4 -19.6 L -214.05 -19.65 Q -214.9 -19.6 -215 -19.85 Z M -204.1 -13.15 L -204.15 -13.1 L -205.7 -12.3 L -205.1 -12.35 L -203.25 -12.9 Q -202.85 -13 -203.65 -12.95 Q -204.4 -12.85 -204.05 -13 L -201.95 -13.5 L -202.45 -13.55 L -203.1 -13.4 L -203.25 -13.3 Z M -207.45 -17.5 L -207.05 -17.55 L -203 -18.55 L -203.05 -18.7 Z M -210.05 -14.35 L -214.45 -14.025 L -210.3 -14.2 Q -210.15 -14.25 -210.05 -14.35 Z M -209.65 -14.35 L -209.9 -14.2 L -208.75 -14.2 L -208.75 -14.35 Z M -208.5 -14.8 L -207.4 -14.8 Q -207.8 -14.8094 -207.8 -14.95 L -200.55 -14.85 L -197.3 -15.9 L -202.6 -16.2 L -204.75 -15.7 Q -205.55 -15.5 -205.55 -15.7 L -208.15 -14.95 Z M -208.6 -16.8 L -208.6 -16.95 L -209.7 -16.95 L -210.2 -16.8 Z M -208.35 -20.05 L -208.3 -20.05 Q -208.033 -20.1246 -207.775 -20.2 Z M -207.65 -18.8 L -209.4 -18.6 L -212.75 -17.4 L -209.2 -17.45 L -201.7 -19.5 L -202.45 -19.45 L -203.2 -19.25 L -202.15 -19.55 L -204.55 -19.6 Z M -209.35 -19.55 L -209.8 -19.55 L -210.65 -19.25 L -209.85 -19.55 L -210.7 -19.6 Q -212.4 -19.05 -214.1 -17.85 Z M -210.35 -18.65 L -210.4 -18.8 L -214.1 -17.4 L -213.75 -17.4 Z M -204.4 -21.75 L -206.15 -21.7 L -211.85 -21.05 L -214.6 -20.05 L -214.05 -20.1 L -210.05 -20 L -196.8 -23.35 L -196.85 -23.35 Z M -207 -21.95 L -207.05 -22.1 L -209.75 -21.75 L -210.3 -21.6 Z M 123.85 -100.45 L 123.85 -104.4 Q 124.05 -106.85 125.05 -107.35 Q 125.65 -107.65 128.85 -102.8 Q 132.15 -97.75 133.2 -97.7 Q 134.6 -97.6 134.45 -99.75 Q 134.15 -102.85 134.3 -103.2 L 138 -99.25 Q 139.8 -97.05 139.8 -96.45 L 140.85 -95.95 L 142.35 -93.95 L 143.5 -91.65 L 144.35 -91.4 Q 145.05 -91.55 146.45 -89.75 L 147.95 -89.7 Q 148.35 -89 150.55 -87 Q 152.25 -85.45 152.5 -83.65 Q 155.95 -79.9 157.75 -78.45 L 162.5 -73.35 L 167.85 -65.8 Q 172.35 -58.65 179.25 -52.15 Q 184.25 -48.5 185.75 -46.95 Q 188.25 -44.35 189.75 -40.2 L 190.25 -38.1 Q 190.45 -36.65 189.95 -36.15 Q 189.25 -35.4 189.45 -33.45 Q 189.7 -31.4 189.25 -30.85 L 187.85 -28.65 Q 186.95 -27.4 185.8 -27.2 L 178.75 -25.7 L 172.6 -26 Q 171.2 -27.3 170.7 -28.3 L 170.05 -29.25 Q 169.6 -29.65 169.45 -29.8 L 165.4 -31.95 Q 160.05 -35 159.1 -35.3 Q 156.95 -36.15 154.1 -37.75 Q 151.75 -39.05 150.15 -39.5 Q 145 -40.9 138.65 -41.8 Q 133.1 -42.7 127.95 -45.8 Q 126.6 -46.8 125.85 -46.65 L 124.95 -46.05 Q 119.95 -42.2 116.7 -38.2 Q 111.75 -32.2 107.4 -23.4 Q 105.55 -19.7 103.1 -16.5 Q 101.45 -14.3 101.25 -12.9 Q 100.85 -10 102.35 -4.05 Q 103.3 -0.55 105.95 5.35 Q 107.55 10.6 104.55 15.75 Q 116.1 30.85 129.9 43.3 L 133.05 46.3 L 139.8 51.15 Q 142.25 53.15 143.5 54.7 L 154.9 65 L 159.3 67.55 L 164.15 69.7 Q 166.1 70.65 168.9 72.15 Q 171.4 73.2 175.1 73.2 L 184.45 74.25 Q 186.35 74.85 186.1 76.7 Q 185.8 78.4 183.95 80.05 L 180.3 82.6 Q 178.05 83.85 176.55 84 L 172.1 83.65 Q 170.9 82.95 169.55 79.6 Q 167.8 78.75 166.85 78.85 Q 165.65 79 163.95 80.65 Q 161.65 80.1 159.3 78.4 L 155.1 75.05 Q 153.6 73.8 150.65 71.85 L 141.05 65.45 L 137.5 64.5 Q 134.8 63.9 133.45 62.85 Q 129.1 59.5 124.3 54.7 Q 119.15 50.85 110.2 45.5 L 95.75 36.7 Q 90.55 48.85 92.4 69.6 Q 92.5 70.65 93.4 72.8 Q 94.3 75.05 94.65 77.45 Q 94.85 78.85 94.7 81.35 Q 94.5 83.95 94.65 85.15 Q 96.25 98.85 100.15 105 Q 100.8 106 102.75 106.65 Q 105.45 107.6 106.35 108.15 Q 114.7 109.2 117.5 110.45 Q 122.25 112.6 123.3 118.2 Q 116.25 121.15 107.9 120.4 Q 106.3 118.3 106.75 114.9 L 105.5 114.35 L 104.25 114.45 Q 102.35 115.4 99.25 115.55 Q 96.2 115.7 95.7 115 Q 91.6 109.8 89.75 98.9 Q 87.5 85.6 85.85 81.7 L 83.65 78.15 Q 82 75.55 81.45 73.05 Q 80.95 70.85 80.35 65.9 Q 79.8 61.1 79.25 58.75 L 77.55 53.7 Q 76.3 50.55 75.95 48.8 L 74.05 40.1 L 71.5 31.2 L 44.3 31 L 20.85 30.1 Q 6 28.3 -4.5 25.7 Q -7.4 25 -17.45 20.8 Q -27.6 16.6 -30.95 15.75 Q -34.05 14.95 -39.55 14.85 Q -44.8 14.8 -51.95 18.65 Q -56.2 20.9 -66.2 26.8 L -72.75 30.95 Q -78.4 34.65 -80.5 35.6 Q -84.05 37.25 -89.05 40.3 L -97.65 45.55 Q -101.6 47.9 -111.2 52.3 Q -119.05 56.35 -120.15 59.85 Q -121.05 62.7 -121.35 69.25 L -121.6 90 Q -121.5 95.9 -121.05 96.3 L -117.6 98.85 Q -115.65 99.95 -113 100.65 Q -107.6 102.1 -105.35 103.75 Q -102 106.2 -100.35 111.6 Q -102.65 113.7 -108.4 114.8 L -117.35 114.55 Q -120.05 113.35 -119.5 109.8 Q -118.95 106.35 -120.3 105.95 L -126.7 105.65 Q -130.9 105.65 -131.9 103.95 Q -133.8 100.65 -133.6 90.7 Q -133 79.75 -133.15 76.1 L -134.25 65.3 Q -135 56.75 -134.5 45.5 Q -134.4 44.1 -131.4 42.95 Q -126.1 40.95 -124 39.75 L -119.05 36.7 Q -117.05 35.55 -114.05 32.9 L -109.5 28.8 L -127.6 37.9 Q -131.25 39.95 -135.25 43.15 Q -139.1 46.2 -142.85 48.2 Q -145.35 49.55 -149 51.95 Q -154.1 55.3 -156.5 57.65 L -165.6 67.2 Q -171.75 73.65 -173.05 74.15 Q -177.65 75.9 -184.9 77.05 Q -195.25 78.7 -203.9 77.45 Q -202.65 68.35 -195.05 64.25 Q -194.1 63.7 -192.4 63.9 L -189.55 64.25 Q -187.5 63.7 -187.15 66.25 Q -186.85 68.9 -185.15 68.65 Q -184.2 68.1 -183.8 66.5 L -182.95 63.15 Q -182.5 62.1 -177.4 58.55 L -166.3 50.5 Q -161.4 46.6 -156.75 41.65 Q -152.05 36.65 -149.1 32.25 L -148.4 30.1 Q -148.05 28.85 -146.6 27.9 L -131.15 19.05 Q -124.65 15.1 -121.7 12 Q -116.8 6.8 -116.85 0.35 Q -116.85 -1.6 -117.45 -5.3 L -118.05 -13.35 Q -118.25 -17.85 -117.95 -21.55 Q -117.75 -24.25 -117.05 -27.05 Q -125.85 -21.5 -135.5 -18.2 L -137.95 -17.5 Q -144.35 -14.45 -154.95 -10.1 Q -157.3 -9.15 -161 -8.75 L -166.85 -8.3 Q -172.15 -8 -177.85 -8.25 L -194.3 -9 L -196.05 -9.3 L -204.75 -8.8 L -202.15 -9.1 Q -201.75 -9.15 -202.6 -9.2 Q -203.5 -9.2 -203.05 -9.3 L -196.95 -9.6 L -196.95 -9.75 L -206.55 -9.25 Q -207.3 -9.3 -206.6 -9.45 L -205.2 -9.65 L -205.1 -9.75 Q -202.85 -11.2 -200 -12.3 L -203.3 -12.1 L -204.2 -12.25 L -206.2 -12 L -212.05 -8.05 Q -209.55 -10.3 -206.8 -11.95 L -214.15 -10.85 L -206.3 -12.2 L -205.15 -12.85 L -207.15 -12.5 Q -207.7 -12.45 -207.15 -12.65 L -204.15 -13.55 L -206 -13.55 L -207.8 -13.85 L -210.55 -13.85 L -213.85 -11.95 L -210.85 -13.85 L -216 -13.45 L -214 -13.8 Q -213.55 -13.9 -214.5 -13.9 Q -215.215 -13.9 -215.075 -13.975 L -217.85 -13.75 Q -219.55 -13.6 -218.6 -13.9 L -217.6 -14.1 L -217.55 -14.15 L -209.1 -14.8 L -208.85 -14.9 L -211.45 -14.9 L -208.8 -14.95 L -204.85 -16.15 L -204.6 -16.2 L -206.25 -16.15 L -207.85 -16.45 L -209.45 -16.45 L -209.75 -16.35 L -209.5 -16.45 L -215.1 -16.4 L -216.3 -15.8 L -217.25 -14.6 L -216.5 -15.75 L -217.45 -15.25 L -216.4 -15.85 L -216.05 -16.25 Q -216.4 -16.1 -216.05 -16.35 L -215.9 -16.4 L -215.65 -16.7 L -216.9 -16.1 Q -220.7 -14.2 -219.4 -15.15 L -216.45 -16.8 L -216.65 -16.75 Q -221.75 -15.9 -224.45 -14.9 L -226.6 -13.3 L -224.85 -14.75 L -226.6 -14 L -224.65 -14.9 Q -221.35 -17.4 -217 -19.45 Q -220.15 -18.75 -223.9 -16.65 Q -219.75 -19.25 -216.05 -19.9 L -213.5 -20.95 L -214.35 -20.85 L -213.35 -21 L -212.65 -21.25 Q -213.35 -21.25 -212.75 -21.35 L -212.25 -21.4 L -211.7 -21.6 L -213.6 -21.4 Q -217.5 -21.25 -216.05 -21.6 L -209.75 -22.2 L -209.05 -22.4 Q -204.4 -23.7 -198.35 -24.65 L -195.95 -25.2 L -196 -25.35 L -197.6 -25 L -197.65 -25.25 L -190 -27.05 Q -185.55 -28.05 -186.55 -28.15 L -188.15 -27.8 L -188.2 -28.05 L -193.8 -27 L -194.75 -26.65 L -195.5 -26.6 Q -197.4 -25.85 -202.85 -24.2 L -196.65 -26.4 L -198.65 -25.95 L -198.7 -26.2 L -197.1 -26.55 L -205.8 -24.95 L -213 -24.15 L -213.8 -24.3 L -218.7 -23.8 Q -220 -23.4 -221.35 -22.5 L -222.95 -21.5 L -221.25 -22.7 Q -219.8 -23.7 -218.15 -24.1 L -213.05 -24.55 Q -206.4 -25.15 -203.75 -25.85 L -188.8 -29.35 Q -176.9 -33.8 -170.35 -35.5 L -166 -36.55 Q -166.55 -36.6 -166.25 -36.75 L -165.35 -36.95 L -138.8 -39.1 L -138.8 -39.25 L -136.7 -39.3 L -136.65 -39.2 L -135.25 -39.2 L -135.25 -39.05 L -131.05 -39.5 L -131.05 -39.35 L -128.3 -39.75 L -128.25 -39.6 L -127.6 -39.85 L -114.7 -41.45 Q -114.7 -41.35 -115.25 -41.1 Q -115.55 -40.9 -114.65 -40.85 L -110.8 -40.55 Q -107.8 -44.45 -104.1 -46.9 L -99.5 -49.05 Q -95.2 -50.9 -84.6 -53.45 L -77.8 -55.35 Q -73.25 -56.6 -69.8 -56.95 Q -64.6 -57.4 -55.15 -56.95 Q -48.45 -56.6 -28.1 -51.85 Q -9.65 -47.55 -0.75 -48 Q 2.3 -48.15 10.5 -49.9 Q 21.25 -52.15 26.35 -54.75 Q 31.45 -57.3 34.7 -58.55 Q 39.7 -60.45 45.1 -61.35 Q 43.3 -63.05 41.3 -62.45 Q 38.9 -61.7 37.35 -62.45 L 38.85 -62.65 Q 40.1 -63.05 40.75 -63.6 Q 42.6 -65.15 37.35 -65.75 Q 41 -66.7 43.2 -66.45 Q 46.1 -66.2 48.2 -66.45 L 50.4 -67.1 L 56.1 -66.85 L 54.6 -68.1 Q 53.7 -68.85 53.9 -70.15 L 57 -70.9 Q 58.55 -71.55 58.3 -73.45 Q 64.65 -73.7 70.2 -74.8 Q 75.1 -75.8 81.45 -77.85 Q 83 -78.4 86.95 -81.55 Q 90.25 -84.25 93.55 -84.5 Q 93.05 -86 90.1 -85.9 L 84.75 -85.6 Q 84.75 -86.25 87.75 -87.25 Q 90.05 -88 88.05 -88.9 L 91.25 -89.15 Q 94.45 -88.9 95.75 -90 Q 96 -90.85 91.45 -91.3 Q 88.05 -91.65 90.25 -92.2 Q 92.15 -92.65 91.95 -93.1 L 90.25 -93.3 Q 92.45 -94.1 94.35 -93.8 L 96.6 -93.3 L 99.55 -93.05 Q 100.65 -93.4 99.05 -95.5 L 101.6 -94.15 Q 103 -93.2 104.55 -93.3 Q 105.65 -93.95 105 -94.35 Q 102.2 -96 101.8 -96.3 Q 99.05 -98.4 104.25 -95.9 Q 105.45 -95.25 107.95 -94.75 L 113.4 -94.4 L 111.95 -95.6 Q 109.8 -96.9 107.9 -98.8 L 112.35 -97.2 Q 113.55 -96.75 115.95 -97.2 L 118.35 -97.8 L 121.15 -97.7 Q 122.7 -97.4 123.4 -96.8 Q 123.45 -97.8 122.7 -98.45 Q 122.05 -99.05 121.05 -99.2 Q 121.4 -99.7 122.7 -99 L 124.2 -97.95 Q 123.8 -99.75 123.85 -100.45 Z" fill="#FAF643"/>
	</g>
</svg>
