<?xml version="1.0"?>
<!DOCTYPE svg PUBLIC "-//W3C//DTD SVG 1.1//EN" "http://www.w3.org/Graphics/SVG/1.1/DTD/svg11.dtd">
<svg version='1.1' width='394px' height='240px' xmlns='http://www.w3.org/2000/svg' xmlns:xlink='http://www.w3.org/1999/xlink'>
	<g transform="translate(209.2,117.1)">
		<path d="M -162.35 -4.25 L -157.45 -3.95 Q -154.4 -3.9 -155.35 -4.25 Z M -181.05 -8.8 L -179.85 -8.6 L -179.85 -8.75 Z M -175.05 -15.35 L -175.65 -15.3 L -175.2 -15.35 L -179.15 -15.8 L -175.3 -15.15 L -175.3 -15.25 L -173.5 -15.25 Z M -181.25 -15.85 L -181.2 -16.05 L -185.75 -16.3 L -179.5 -15.45 L -179.45 -15.6 Z M -171.25 -18 Q -166.6 -18.2 -167.75 -18.5 L -169.35 -18.45 L -169.35 -18.65 L -173.55 -18.65 L -174.65 -18.5 Q -175.35 -18.45 -175.35 -18.65 L -182.05 -18.3 L -179.05 -17.85 L -179.05 -17.9 Q -175.55 -17.8 -171.25 -18 Z M -172.1 -14.65 L -171.1 -14.95 L -174.45 -15.05 Z M -191.15 -10.95 L -191.35 -10.9 L -190.65 -10.65 L -190.6 -10.75 Z M -189.55 -11 L -190 -11.15 L -189.5 -10.95 L -189.55 -11 L -185.8 -10 L -182.05 -10.45 L -186.25 -11.7 L -186.35 -11.75 L -190.05 -11.2 Z M -183.85 -9.8 L -184.75 -9.9 L -185.2 -9.8 L -183.5 -9.4 L -178.25 -9.05 L -179 -9.25 L -178.15 -9.2 L -180.95 -10.1 Z M -197.15 -14.75 L -195.35 -14.9 L -194.4 -15.35 L -197.8 -14.8 Z M -183.2 -13.05 L -186.7 -13.3 L -181.9 -11.9 L -180.85 -11.85 L -181 -11.9 L -180.9 -12.15 L -178.9 -11.75 L -174.25 -11.35 Q -177.55 -12 -177.4 -12.3 L -178.2 -12.45 L -181.65 -12.65 Z M -188.15 -13.7 L -187.9 -13.65 L -183.95 -13.45 L -183.95 -13.6 Z M -189.45 -14 L -189.3 -14.05 L -189.35 -14.1 L -189.25 -14.05 Q -187.2 -14.3 -182.65 -13.95 L -183.1 -14.1 L -182.95 -14.1 L -185.15 -14.85 L -191.1 -15.5 L -193.65 -15.4 L -194.95 -14.9 Q -191.95 -15 -189.45 -14 Z M -189.15 -16.7 L -187.35 -16.8 L -191.35 -17.25 Z M -187.55 -17.8 L -188 -17.95 L -189.45 -18.1 L -182.45 -17.6 L -183.7 -17.95 L -194.2 -18.45 Z M -188.9 -17.35 L -188.85 -17.45 L -195.95 -18.25 L -199.75 -17.65 L -202.4 -16.65 L -195.55 -17.5 L -194.25 -17.55 L -196.25 -17.75 L -193.8 -17.55 Q -193.35 -17.5 -194.15 -17.7 Q -194.95 -17.9 -194.55 -17.9 Z M -202.85 -16.45 Q -205.35 -15.4 -207.45 -13.8 L -200.7 -14.75 Q -196.95 -16.4 -191 -16.4 L -190.9 -16.45 Q -191.1 -16.45 -191.1 -16.55 L -190.25 -16.55 L -196.4 -17.25 Z M 108.45 -105.55 L 108.6 -106.55 L 110 -105.2 L 110.7 -105 Q 110 -107.05 108.95 -108.7 L 109.25 -109.95 Q 111.8 -109.75 115.45 -107.15 Q 117.25 -108.9 118 -108.55 L 118.25 -108.4 Q 118.3 -107.3 119.7 -106.45 Q 120.55 -105.95 122.5 -105 Q 121.8 -107.9 121.8 -111.35 Q 121.8 -115.25 122.8 -117.1 Q 124 -116.15 125.75 -113.1 Q 127.2 -110.65 129 -110.05 L 130.1 -110.55 Q 130.8 -111 130.8 -110.05 Q 131.9 -109.95 131.75 -111.7 Q 131.55 -114.2 131.65 -114.45 Q 132.3 -115.35 132.8 -112.25 Q 133.4 -108.55 134.35 -108.25 Q 135.55 -108.4 137.75 -105.2 Q 138.2 -105.45 138.95 -104.75 Q 139.75 -104 140.35 -102.75 L 141.35 -100.5 L 142.2 -100.25 Q 142.8 -100.35 144.1 -98.6 Q 145.1 -97.25 145.55 -98.5 Q 145.9 -97.75 147.95 -95.8 Q 149.5 -94.25 149.7 -92.5 Q 152.9 -88.8 154.55 -87.3 L 157.05 -84.7 L 163.75 -74.85 Q 167.6 -68.1 174.2 -61.25 L 180.2 -56.05 Q 182.5 -53.5 183.8 -49.45 L 184.25 -47.4 Q 184.35 -46 183.9 -45.55 Q 183.2 -44.85 183.3 -42.95 Q 183.45 -41.05 182.95 -40.5 L 181.5 -38.45 Q 180.65 -37.3 179.55 -37.15 L 172.7 -35.95 L 166.8 -36.5 Q 165.55 -37.65 165.1 -38.75 L 164.5 -39.65 L 163.95 -40.2 L 162.05 -41.4 Q 160.7 -42.05 160.15 -42.45 L 154.25 -45.9 Q 152.2 -46.8 149.55 -48.4 Q 147.3 -49.75 145.85 -50.2 L 134.85 -52.9 Q 132.1 -53.4 129.4 -54.55 Q 127.95 -55.1 123.05 -57.75 L 119.25 -57.8 Q 115.8 -57.2 113.05 -52.45 L 109.55 -45.4 L 107.75 -40.05 L 102.8 -30.55 Q 99.7 -24.7 98.9 -20.6 Q 98.6 -18.95 98.8 -16.1 Q 99.05 -13 98.9 -11.7 Q 98.7 -10.15 97.55 -6.9 Q 96.45 -3.65 96.25 -2 L 95.85 1.6 Q 95.85 2.45 96.6 2.9 Q 99.05 4.3 100.75 5.6 Q 103.8 7.8 110.75 11.55 Q 118.1 15.45 121.35 17.7 L 127.05 22.1 Q 128.85 23.55 129.65 24.55 Q 130.8 25.95 131.25 27.75 Q 131.65 29.2 131.9 32.05 Q 132.2 35.05 132.6 37.05 Q 134.2 44.65 135.1 53.4 L 135.8 56.95 Q 136.25 58.55 136.15 60 Q 136.1 61.4 135.6 61.8 L 130.2 64.5 Q 128.35 65.5 125.15 68.45 L 120.55 74.25 Q 116.6 78.9 115.2 77.95 Q 112.05 75.85 111.65 70.45 Q 111.3 65.4 113.5 61.8 Q 114.6 59.75 118.55 59.95 Q 123.1 60.15 124.3 59.4 Q 125.35 58.4 125.25 57.6 L 124.65 55.8 Q 124.55 55.35 125.15 53.65 L 126.25 49.95 L 126.25 49.8 Q 126.15 43.95 124.85 39.75 Q 123.2 34.35 119.35 30.7 L 118.6 29.9 Q 117.6 29.15 114.5 27.7 L 103.15 27.25 L 90.9 28.05 Q 93.8 31.25 95.45 32.7 Q 96.8 33.9 100.35 35.8 Q 103.7 38.05 105.6 41.7 L 105.8 43 L 105.95 46.25 L 105.85 46.3 Q 105.85 47.65 105.3 49.15 Q 103.9 50.6 100.65 52.5 L 95.7 55.5 Q 93.55 57 88.45 62.1 L 81.3 69.15 Q 80.05 70.25 79.05 70.3 L 63.7 68.5 L 58.55 69.35 L 49.65 69.2 Q 49.6 67.35 50.65 65.25 Q 51.85 62.8 54.1 60.2 Q 56.8 57.1 59.2 55.95 Q 61.5 56.35 64.4 59 Q 67.35 61.75 69.5 62.2 Q 71.5 62.3 72.2 60.4 L 73.55 57.4 Q 78.5 57.4 84.6 53.9 Q 90.35 50.65 93.45 46.55 Q 91.25 44.8 85.95 43.35 L 77.25 40.9 L 65.95 35.95 Q 61.65 33.95 59.35 33.35 Q 55.6 32.45 50.95 30.4 Q 47.2 28.75 44.45 27.05 Q 27.85 32.45 5.6 27.45 L -13.65 22.75 Q -25.55 19.95 -35 19.25 L -38.95 23.85 Q -40.7 25.9 -43.2 30.15 L -45.25 35.05 L -45.4 35.5 Q -45.7 36.9 -45.35 40.6 L -44.35 47.05 Q -42.3 52.65 -32.9 58.45 L -24.95 63.15 Q -20.35 65.95 -17.75 68.15 L -17.1 69.1 L -14.65 71.15 L -7.35 75.65 Q -1.4 79.6 1.6 83.5 Q -1.35 87.7 -7.45 88.05 Q -12.65 88.35 -17.9 86.05 Q -18.85 85.05 -18.75 82.6 Q -18.7 80.4 -20.8 79.05 Q -21.65 78.75 -22.85 79.65 Q -24.3 80.75 -25.55 80.85 Q -26.4 80.95 -28.1 78.7 L -31.15 74.25 L -31.2 74.3 Q -32.1 72.95 -33.3 71.75 Q -37.3 67.75 -43.4 63.1 L -48.7 59.25 L -56.05 51.95 L -58.35 54.9 Q -61.4 61.6 -59.55 70.65 Q -57.85 78.8 -52.7 86.5 L -50.4 90.3 L -46.55 94.75 Q -43.85 97.65 -43.15 99.3 Q -42.6 100.55 -43.4 103.35 Q -44.05 105.75 -42.75 106.8 Q -35.9 112.3 -33.85 116.85 Q -31.9 121.05 -34.9 122.2 Q -38.2 123.45 -44.1 122.35 Q -50.5 121.15 -51.85 118.15 Q -51.3 116.8 -50.9 114.35 Q -50.55 111.9 -50 110.55 Q -49.75 107.4 -51.25 107.6 L -54.6 107.7 L -55.55 103.45 Q -56.05 100.75 -56.75 99.2 L -61.75 90.05 Q -63.45 86.25 -65.95 83.3 L -69.9 78.35 Q -77.55 68.95 -79.95 64.8 Q -83.85 58.05 -81.15 51.05 L -77.95 42.75 Q -77.45 40.8 -77.15 32.75 Q -78.55 29.45 -79.05 28.8 Q -80.5 26.75 -85.2 22.85 L -92.8 15.9 Q -97.25 11.5 -98.15 9.9 Q -100.2 6.3 -101.8 1.05 Q -103.8 -5.25 -103.85 -10.2 Q -104.3 -16.25 -101.75 -25.95 L -109.55 -20.55 Q -115.55 -16.25 -117.3 -15.05 L -119.5 -13.75 L -125.2 -8.7 Q -129.95 -5.25 -136.15 -3.25 Q -141.55 -1.6 -147.9 -1.3 Q -153.1 -1 -159.5 -1.6 L -165.45 -2.2 Q -170.1 -3.35 -176.1 -3.95 L -177.85 -4.45 L -186.7 -5.3 L -184.05 -5.15 Q -183.6 -5.15 -184.45 -5.3 Q -185.35 -5.5 -184.9 -5.5 L -178.7 -4.9 L -178.65 -5.05 L -185.8 -5.75 Q -190.1 -6.15 -188.45 -6.25 L -177.15 -5.3 L -177.7 -5.5 L -166.15 -4.15 L -166.1 -4.25 L -167.9 -4.5 L -167.9 -4.7 L -177.25 -6.15 L -180.2 -7.05 L -185.05 -6.5 L -182.7 -6.9 Q -182.35 -6.95 -183.1 -7 Q -183.95 -7 -183.55 -7.1 L -181.2 -7.35 L -181.5 -7.4 L -186.65 -6.8 Q -187.1 -6.75 -186.7 -6.95 L -182.75 -7.75 L -184.55 -8.25 L -184.7 -8.25 L -185.55 -8.45 L -186.8 -8.35 L -185.6 -8.55 L -185.7 -8.55 L -188.9 -8.75 Q -190.55 -8.05 -193.7 -6.15 Q -191.75 -7.6 -189.3 -8.75 L -195.7 -8.95 L -188.95 -8.95 L -188.15 -9.25 L -192 -10.75 L -195.25 -9.85 L -192.3 -10.8 L -198.6 -11.25 L -195.85 -11.25 Q -195.4 -11.25 -196.3 -11.4 Q -197.2 -11.5 -196.75 -11.55 L -191.65 -11 L -191.45 -11.05 L -200.45 -11.95 Q -201.35 -12.1 -200.45 -12.1 Q -194.8 -12.4 -191.05 -11.4 L -193.05 -12 L -190.4 -11.3 L -187 -11.9 L -188.25 -12.3 L -189.6 -13.05 L -190.6 -12.85 L -189.65 -13.1 L -190.45 -13.45 L -192.3 -13.15 Q -192.7 -13.05 -192.3 -13.3 L -191.25 -13.65 L -195.65 -13.95 L -194.7 -14.05 Q -194.35 -14.1 -194.9 -14.15 L -195.6 -14.3 L -196.25 -14.3 L -198.55 -12.9 L -196.45 -14.3 L -196.7 -14.35 L -197.4 -14.4 Q -199.6 -14.3 -198.6 -14.55 L -200.25 -14.55 L -201.65 -14.15 Q -201.95 -14.1 -201.5 -14.35 L -201.2 -14.5 L -207.6 -13.75 L -209.2 -12.4 L -207.8 -13.7 L -208.35 -13.6 L -207.75 -13.75 Q -205.85 -15.3 -203.8 -16.3 L -205.5 -15.9 L -203.55 -16.4 Q -200.75 -17.75 -197.15 -18.5 Q -199.2 -18.95 -197.75 -18.8 L -196.15 -18.65 L -187.35 -18.9 L -182.25 -18.35 L -176.9 -18.7 L -179.85 -18.85 L -179.85 -19.05 L -177.7 -19 L -194.25 -20.65 Q -195.2 -20.75 -195 -20.95 L -197.2 -21.25 Q -198.45 -21.45 -200.05 -21.25 L -204.75 -20.3 L -199.65 -21.5 L -184.6 -20.2 Q -174.9 -19.55 -166.65 -20.25 Q -158.5 -21.95 -150.9 -24.8 L -147.05 -26.35 Q -147.55 -26.3 -147.3 -26.45 L -146.5 -26.85 L -122.4 -35.9 L -122.45 -36 L -120.45 -36.65 L -120.4 -36.55 L -118.9 -36.9 L -118.9 -36.8 L -114.8 -38 L -114.75 -37.85 L -112 -38.65 L -112 -38.5 Q -111.997 -38.6506 -111.3 -38.8 L -104.55 -40.1 L -98.55 -40.6 L -99.05 -40.25 Q -99.35 -40.05 -98.5 -40.05 L -94.45 -39.7 Q -91.15 -41.8 -86.6 -45.7 L -79.05 -51.95 Q -69.85 -58.95 -59.65 -59.55 Q -53.9 -59.85 -45.25 -58 L -31.3 -55.1 L -4.75 -53.35 Q 2.05 -52.8 8.95 -53.7 Q 16.05 -54.65 21.85 -56.9 Q 25.75 -58.4 33 -62.6 Q 39.95 -66 47.55 -65.75 Q 48.15 -66.75 47.15 -68.2 Q 46.4 -69.2 47.55 -69.3 L 53.3 -69.7 Q 55.9 -70.5 56.4 -72.85 Q 56.25 -74.15 54 -74.45 Q 51.45 -74.75 51.05 -75.5 Q 53.3 -76.45 56.85 -76.45 Q 60.35 -76.45 62.6 -75.5 Q 62.8 -76.25 61.95 -77.6 Q 61.55 -78.25 63.45 -78.15 Q 66.95 -76.8 69.35 -76.65 Q 72.65 -76.4 75 -78.15 Q 75.4 -79.55 73.35 -80.25 Q 70.65 -81.15 69.85 -82.25 Q 71.45 -82.1 74.2 -82.2 L 78.55 -82.6 Q 79.05 -83.85 84.05 -85.55 Q 87.55 -86.75 84.55 -89.7 L 82.25 -91.4 Q 80.75 -92.45 80.3 -93.2 L 86 -92.85 Q 86.3 -92.8 87.2 -93.3 L 94.45 -94.1 L 95.55 -93.85 L 94.75 -94.2 Q 92.35 -95.25 91.65 -96.1 L 93.8 -95.5 L 97.15 -95.85 Q 98.75 -96.4 99.4 -96.85 L 101.35 -98.45 L 103.8 -99.55 Q 101.75 -100.9 97.85 -100.45 Q 99 -102.2 102.05 -102.3 Q 105.1 -102.35 106.7 -100.75 L 107.95 -101.15 L 107.35 -101.85 L 105 -101.95 Q 104.05 -102.05 104.9 -102.4 L 106.1 -102.55 Q 106.9 -103.6 108.15 -103.15 L 108.25 -104.05 Q 107.4 -104.45 107.6 -105.75 Z" fill="#FAF643"/>
	</g>
</svg>
