<?xml version="1.0"?>
<!DOCTYPE svg PUBLIC "-//W3C//DTD SVG 1.1//EN" "http://www.w3.org/Graphics/SVG/1.1/DTD/svg11.dtd">
<svg version='1.1' width='404px' height='228px' xmlns='http://www.w3.org/2000/svg' xmlns:xlink='http://www.w3.org/1999/xlink'>
	<g transform="translate(213.75,107.851)">
		<path d="M -199.75 -13.3 L -200.45 -12.9 L -195.55 -12.5 L -194.55 -12.65 L -194.65 -12.65 L -196.4 -13 Z M -199 -13.75 L -199.25 -13.6 L -197.25 -13.45 L -197.25 -13.55 Z M -199.4 -13.75 L -202.525 -13.475 L -199.6 -13.65 Z M -203.65 -13 L -200.7 -12.9 L -200.1 -13.3 L -203.65 -13 L -202.25 -13.3 Q -201.85 -13.4 -202.7 -13.35 Q -203.345 -13.35 -203.2 -13.425 L -203.95 -13.35 L -205.2 -13 Z M -189 -13.95 L -188.85 -13.95 L -189.1 -14.05 L -188.8 -13.95 L -184.95 -14.2 L -185 -14.35 L -186.7 -14.2 L -186.75 -14.45 L -184.6 -14.65 L -193.65 -14.8 Z M -208.8 -14.25 L -212.15 -11.85 Q -209.55 -12.7 -206.15 -12.95 Q -203.45 -14.5 -198.65 -14.15 L -198.55 -14.25 L -198.5 -14.25 L -197 -14.8 L -200.3 -15.05 Q -201.1 -15.1 -201.1 -15.3 Q -205.75 -15.15 -208.8 -14.25 Z M 89.95 -80.5 L 89.6 -81.2 L 88.95 -81.3 Q 88.4 -81.4 88.35 -81.55 L 86.45 -81.3 L 87.95 -80.35 L 89.45 -79.8 L 90.15 -79.25 L 90.9 -78.8 L 91.4 -79.7 Q 91 -79.8 90.5 -80.15 Z M 78.9 -76.45 L 79.15 -75.15 Q 79.2 -74.4 79.05 -74.45 L 80.25 -73.25 Q 81.8 -71.9 83.3 -71.2 L 80.75 -74.1 L 81.75 -74.4 Q 82.1 -74.65 81.45 -75.3 Q 80.95 -75.75 78.9 -76.45 Z M -201.75 -9.7 L -205.15 -10.15 Q -205.75 -10.25 -205.2 -10.3 L -200.95 -10.2 L -196.6 -9.45 L -196.4 -9.5 L -198.2 -9.85 L -196.4 -9.55 L -196.05 -9.7 Q -194.6 -10.55 -191.75 -10.65 L -193.1 -10.9 L -193.5 -11.15 L -197.3 -11.7 L -197.4 -11.75 L -198.45 -11.9 L -201.05 -12 L -199.65 -12.05 Q -199.45 -12.05 -199.55 -12.1 L -201.2 -12.4 L -203.7 -10.65 L -201.35 -12.4 L -201.5 -12.45 L -202.05 -12.5 Q -204.05 -12.55 -203.4 -12.75 L -205.95 -12.75 Q -206.9 -12.4 -206.5 -12.7 L -212.2 -11.8 L -213.75 -10.35 L -212.35 -11.75 L -212.95 -11.6 L -212.35 -11.8 L -209.5 -14.05 L -210.1 -13.85 L -209.4 -14.1 Q -206.8 -15.85 -203.8 -16.5 L -201.9 -16.75 Q -203.15 -17.05 -202.4 -17.05 L -193.3 -16.35 L -193.8 -16.4 L -192.8 -16.35 L -184.05 -16.7 L -184.1 -16.95 Q -181.4 -17 -176.8 -18.9 Q -172.05 -20.85 -173.75 -20.65 L -175.2 -20 L -175.3 -20.2 Q -178.9 -18.5 -183.55 -17.9 L -188.05 -17.15 L -184.9 -17.75 L -184.95 -17.75 L -185 -17.95 L -184 -18.05 L -199 -18.9 Q -199.75 -19 -199.75 -19.2 L -201.95 -19.5 L -204.65 -19.55 L -209.05 -18.3 L -207.1 -19.05 L -204.1 -19.8 L -189.6 -18.65 Q -184.6 -18.55 -180.7 -19.6 Q -179.05 -20 -176.55 -21.15 L -171.4 -23.45 L -171.1 -23.65 L -158.75 -30.5 Q -158.2 -31 -156.85 -31.55 L -154.8 -32.35 Q -155.3 -32.3 -155 -32.5 L -154.15 -32.9 Q -145.4 -35.4 -134.85 -35.75 L -127.8 -36.1 L -127.8 -36.25 L -125.75 -36.3 L -125.75 -36.15 L -124.35 -36.2 L -124.35 -36.05 L -120.25 -36.5 L -120.25 -36.35 L -117.55 -36.7 L -117.5 -36.55 L -116.85 -36.8 L -104.25 -38.4 L -104.75 -38 Q -105.05 -37.85 -104.2 -37.8 L -100.8 -37.6 L -98.35 -41.55 L -95.45 -44.75 L -93.55 -46.4 Q -88.1 -49 -82.05 -50.85 L -70 -54.6 Q -62.8 -56.65 -57.3 -57.05 Q -48.8 -57.65 -37.3 -55.95 L -15.7 -52.6 L 16.1 -49.75 L 24.2 -49.45 L 29 -49.7 Q 37.3 -50.2 47.75 -53.55 L 64.85 -58.8 Q 63.95 -59.65 60.9 -60.15 L 59.75 -60.35 Q 59.2 -59.9 58.5 -60.35 L 57.4 -61.3 L 61.7 -61.4 L 62.55 -61.35 L 66.2 -61.95 Q 68.45 -62.6 68.45 -63.3 Q 69.15 -64.65 68.5 -65.05 L 66.6 -65.3 Q 62.95 -65.3 62.45 -67.3 Q 64.3 -66.05 66.95 -66 L 71.55 -66.1 Q 71.95 -66.2 72.2 -66.4 Q 72.85 -66.9 73.45 -68.3 L 72.15 -68.25 Q 70.5 -68.35 69.45 -67.3 Q 69.45 -68.65 70.6 -69 Q 71.45 -69.3 72.55 -69 L 73.65 -69.05 L 74.85 -69.35 L 76 -69.3 Q 80.25 -69.1 81.65 -70.3 Q 79.2 -70.35 78.55 -72.75 L 78.35 -73.6 L 78.45 -74.3 L 78.55 -76.6 Q 77.85 -76.85 77.45 -77.3 L 88.45 -78.3 Q 87.9 -81.55 84.95 -80.05 L 82.85 -79.15 Q 81.8 -79 81.45 -80.3 L 84 -80.75 L 88.5 -82.25 L 87.2 -83.3 Q 90.6 -83.2 93.45 -82.3 Q 93.95 -84.35 92.2 -85.45 Q 89.85 -86.9 89.6 -87.4 L 90.05 -87.65 L 91.45 -86.3 Q 91.45 -87.7 90.8 -87.9 L 95.2 -88.25 Q 98 -88.3 99.45 -89.3 L 97 -89 L 94.55 -89.2 L 95.35 -89.4 L 98.45 -89.3 Q 97.7 -90.75 96.45 -90.85 Q 95.2 -90.9 94.35 -89.65 L 93.6 -89.2 Q 92.25 -89.2 91.15 -88.65 L 90.35 -89.15 L 89.85 -89.6 Q 90.35 -90.5 91.3 -90.85 L 92.15 -91.05 L 96.15 -91.15 L 100.1 -92.15 L 95.4 -92 Q 93 -92.5 92.45 -95.3 L 98.9 -95 Q 103 -94.4 104.95 -95.8 L 109.4 -96.45 L 112.35 -96.4 Q 113.95 -96.1 114.9 -94.65 L 115.75 -94.85 Q 115.95 -94.95 115.8 -95.25 L 115.5 -95.85 Q 115.45 -96.15 115.9 -96.25 L 116.05 -96.2 L 118.55 -95.9 Q 117.5 -100.4 117.45 -102.8 Q 117.4 -106.1 118.95 -107.8 Q 119.4 -108.3 123.75 -103.9 L 128.9 -98.4 L 130.65 -97.35 L 130.75 -100.25 Q 131 -101.7 132.45 -100.75 L 134.25 -98.85 L 135.7 -96.65 L 136.6 -96.5 Q 137.3 -96.7 138.95 -95.1 Q 140.2 -93.85 140.45 -95.25 Q 140.95 -94.55 143.45 -92.8 Q 145.4 -91.45 145.9 -89.65 Q 149.4 -86.55 151.9 -84.95 L 154.95 -82.6 L 163.75 -73.3 Q 168.95 -66.85 177.05 -60.75 L 184.3 -56.25 Q 187.2 -53.95 189.25 -49.9 Q 190.75 -46.75 189.95 -45.75 Q 189.3 -44.9 189.8 -42.9 Q 190.25 -40.9 189.85 -40.25 L 188.7 -37.8 Q 187.95 -36.5 186.8 -36.15 L 179.8 -33.7 L 173.45 -33.3 Q 172 -34.25 171.25 -35.4 L 170.45 -36.25 L 169.8 -36.75 L 158.55 -41.1 Q 156.25 -41.7 153.15 -42.95 Q 150.6 -44 148.95 -44.25 L 136.9 -45.2 Q 131.1 -45.4 125.45 -48 L 125.2 -48 L 125.1 -47.3 Q 115.2 -28.35 111.25 -18.9 Q 110 -15.95 106.45 -11.65 L 102.65 -7.4 Q 102 -6.45 98.35 -3.05 Q 95.25 -0.15 94.05 2.25 Q 93.85 2.65 93.4 6.8 Q 93 11.1 90.2 17.2 Q 93.3 17.8 98.85 19.85 Q 104.8 22.05 107.6 22.7 L 121.6 24.9 L 123.5 25.85 Q 125.35 26.05 126.45 27 Q 128 28.3 129.4 31.8 L 131.55 37.35 Q 132.75 39.6 137.15 45.4 L 143.2 53.4 Q 144.15 54.7 144.05 55.7 Q 143.8 58.65 142 64 Q 140.3 69 140.3 70.7 L 140.5 73.6 Q 140.65 75.75 140.45 75.95 L 140.05 80.5 L 139.15 84.75 Q 137.4 84.55 135.4 83.25 Q 133.15 81.7 130.85 79.2 Q 128.05 76.1 127.25 73.6 Q 127.95 71.35 131 68.8 Q 134.05 66.25 134.8 64.15 Q 135.15 62.2 133.4 61.25 Q 130.85 59.9 130.6 59.55 Q 131.2 54.6 128.5 48.1 Q 126 41.95 122.35 38.35 L 119.2 37.2 Q 118.35 36.9 117.4 36.25 L 106.55 36.8 L 93 38.8 Q 92.95 42.75 95.6 48.15 Q 99.05 55.3 99.55 57 L 103.15 60.7 Q 104.05 61.75 106.4 66.05 L 114.45 79.65 Q 117.85 84.55 121.15 90.35 Q 124.2 94.15 127.65 97.25 L 131.35 100.2 L 136 105.05 L 141.9 109.6 Q 146.6 113.5 145.7 114.9 Q 143.6 118.1 138.2 118.55 Q 133.15 118.95 129.5 116.85 Q 127.45 115.75 127.6 111.8 Q 127.75 107.2 127 106 Q 126 105 124.8 105.4 L 122.65 106.3 Q 121.95 106.45 120.2 105.15 Q 118.35 103.75 117.2 102.05 Q 115.8 100 114.55 96.55 L 113.2 93.15 Q 112.15 91.45 111.6 89.85 Q 106.3 82.1 99.8 78.9 Q 97.7 77.85 96.5 76.85 Q 94.8 75.35 92.6 72.15 L 89.9 67.7 L 87.9 63.05 L 87.9 62.35 Q 85.1 58.5 77.6 51.6 Q 69.3 43.95 66.4 40.55 L 65.8 39.85 L 57.2 36.95 L 49.1 35.45 L 31.45 34.7 L 17.95 33.25 Q 5 31.6 -5.6 26.9 Q -15.4 22.6 -25.4 14.65 Q -28.05 13.15 -30.4 12.15 L -30.55 12.05 Q -33.65 17.7 -43.6 27.05 L -63.4 46 Q -66.45 49 -66.85 50 Q -67.75 52.15 -70.15 53.9 Q -71.35 55.85 -72.1 58.1 L -73.45 62.7 Q -75.5 66.9 -75.4 73.3 Q -75.35 77.45 -74.15 85.35 Q -72.6 89.25 -72.4 96.55 Q -72.35 97.3 -71 99.9 L -69.4 102.6 Q -67.15 104.85 -61.1 109.2 Q -56.4 112.95 -57.25 115.05 Q -58.5 118.1 -66.35 117.85 Q -74.35 117.6 -77.25 113.85 Q -77.65 112.5 -76.35 110.4 Q -75.25 108.5 -76.5 106.35 Q -77.1 105.7 -78.55 105.9 L -81.5 105.65 Q -82.9 105 -84.1 100.95 Q -85.65 95.85 -84.3 90.25 L -84.25 88.35 Q -84.15 82.65 -85.05 75.1 L -86 68.6 Q -86.2 66 -86 62.95 L -85.85 57.8 Q -85.9 55.95 -85.05 52.9 L -84.65 50.3 Q -86.25 51.05 -88.65 51.75 L -96.4 54.45 Q -104 57.15 -105.55 57.85 L -108.3 58.75 L -108.35 58.8 Q -115.95 61.2 -123.8 67.3 Q -130.8 72.7 -136.35 79.7 L -136.95 80.35 L -140.3 85.4 Q -142.4 89.5 -143.35 92.25 L -144.8 96.1 L -147.75 100.85 L -149 109.05 Q -150.3 115.85 -153 119.9 Q -157.9 118.45 -160.2 112.75 Q -162.15 107.95 -161.65 102.25 Q -161 101 -158.65 100.25 Q -156.55 99.65 -156 97.2 Q -156 96.3 -157.2 95.5 Q -158.7 94.45 -159.2 93.3 Q -159.6 92.35 -156.55 89 L -151.65 83.65 L -146.25 76.7 Q -144.75 74.5 -143.5 73.2 L -133.4 61.1 Q -127.85 52.85 -125.35 49.6 Q -121.15 44.15 -116.6 42.75 Q -111.5 39.9 -109.6 38.45 Q -106.5 36.1 -101.95 30.85 Q -100.2 27.15 -99.3 24.45 Q -97.65 19.45 -98.8 13.85 Q -99.6 9.9 -99.95 1.8 Q -102.7 -6.2 -103.8 -12.2 Q -105.15 -19.5 -104.45 -25.65 L -105.45 -25 Q -109.4 -22.35 -114.55 -19.9 Q -119.55 -17.45 -124.15 -15.9 L -126.75 -15.1 Q -135 -11.2 -143.35 -7.95 Q -153 -4.45 -164.95 -3.6 L -170.9 -3.25 Q -175.9 -3.6 -181.35 -3.5 L -183.05 -3.75 L -191.65 -3.8 L -189.1 -3.85 Q -188.65 -3.85 -189.5 -4 Q -190.35 -4.1 -189.95 -4.15 L -183.9 -4.1 L -183.9 -4.25 L -193.4 -4.5 Q -194.1 -4.6 -193.4 -4.65 L -191.55 -4.7 L -191.4 -4.8 Q -189.2 -5.8 -185.3 -6.8 L -185.4 -6.85 L -189.95 -6.9 L -190.8 -7.1 L -192.25 -7.1 L -198.3 -4.65 L -192.85 -7.1 L -200.3 -7.2 L -192.25 -7.3 L -191.7 -7.5 L -192.95 -7.65 L -193.75 -7.65 L -193.55 -7.8 L -193.35 -7.85 L -197.75 -8.75 Q -198.6 -8.3 -199.5 -8.25 L -197.9 -8.75 L -203.15 -9.45 L -200.9 -9.35 Q -200.45 -9.3 -201.3 -9.5 Q -202.15 -9.7 -201.75 -9.7 L -197.4 -9 L -197.25 -9.1 Z M -198 -14.2 L -191.1 -13.9 L -196.3 -14.75 Z M -105.65 -26.9 Q -105.3 -26.9 -104.2 -27.45 L -104.1 -27.95 L -104.4 -27.75 L -104.4 -27.65 L -104.8 -27.45 Z M -160.2 -27.65 Q -159.45 -28.2 -160 -28.05 L -161.25 -27.4 L -161.35 -27.6 L -162.6 -27 Z M -185.5 -11.35 L -180.55 -11.1 L -175.85 -11.5 Q -175.15 -11.7 -175.65 -11.75 L -177.15 -11.65 L -177.15 -11.85 Z M -191.2 -7.45 L -191.65 -7.3 L -189.75 -7.3 Z M -183.7 -6.65 L -184.1 -6.65 L -191 -4.7 L -189.25 -4.7 L -187.5 -5.3 Q -187.15 -5.45 -187.9 -5.3 Q -188.65 -5.2 -188.3 -5.35 Z M -182.3 -6.45 L -182.75 -6.5 Q -185.25 -6 -189.15 -4.7 L -182.4 -4.65 L -183.05 -4.8 Q -176.05 -4.85 -171.85 -5.05 L -171.85 -5.15 L -173.6 -5.1 L -173.6 -5.4 L -165.35 -6 Q -160.4 -6.55 -161.7 -6.75 L -163.4 -6.6 L -163.4 -6.8 L -174.5 -6.25 L -174.5 -6.45 L -172.55 -6.55 L -176.8 -6.5 Q -181.3 -6.2 -182.3 -6.45 Z M -187.35 -8.45 L -184.95 -8.45 L -184.95 -8.75 L -181.55 -8.7 L -184.05 -8.9 L -184.9 -9.1 Z M -184.65 -10.85 L -184.6 -10.95 L -186.1 -11.15 L -186.1 -11.3 L -186.8 -11.3 L -188.35 -11.6 L -189.9 -11.65 L -184.8 -10.85 Z M -193.75 -10.25 L -196.1 -9.5 L -188.6 -8.55 L -185.75 -9.35 L -189.65 -10.25 L -190.65 -10.25 L -191.4 -10.45 Z M -197 -9.05 L -197.2 -8.95 L -195.65 -8.7 L -195.65 -8.8 Z M -195.2 -12 L -195.7 -12.1 L -196.1 -12 L -195.2 -11.85 Z" fill="#FAF643"/>
	</g>
</svg>
