<?xml version="1.0"?>
<!DOCTYPE svg PUBLIC "-//W3C//DTD SVG 1.1//EN" "http://www.w3.org/Graphics/SVG/1.1/DTD/svg11.dtd">
<svg version='1.1' width='399px' height='230px' xmlns='http://www.w3.org/2000/svg' xmlns:xlink='http://www.w3.org/1999/xlink'>
	<g transform="translate(214.65,117.85)">
		<path d="M -102.7 -32.7 L -103.1 -32.25 L -101.8 -33.05 L -101.25 -33.55 Z M -97.9 -37.5 L -97.95 -37.55 Q -98.3 -37.6 -98.75 -37.1 L -98.9 -37.2 Q -98.95 -37.1 -99.45 -36.85 L -98.75 -37.65 L -100.7 -36.4 L -98.1 -37.2 Z M -175.35 -20.05 L -172.3 -20.4 L -173.95 -20.45 L -173.95 -20.65 L -178.95 -20.8 L -179.7 -20.65 L -180.45 -20.7 L -182.9 -20.15 Z M -187.7 -9.6 L -190 -9.4 L -185.7 -9.15 Z M -190.85 -10.25 L -191.6 -10.4 L -193.6 -9.8 Z M -188.95 -9.85 L -189.35 -9.95 L -193.3 -9.6 L -190.35 -9.4 L -189.75 -9.5 Q -189.35 -9.55 -190.15 -9.6 Q -191 -9.6 -190.6 -9.7 Z M -186.05 -10.75 L -185.55 -10.6 L -184.35 -10.65 L -184.35 -10.85 L -184.2 -10.8 L -180.55 -10.95 L -183.3 -11.35 L -187.35 -10.95 L -186.1 -10.75 Z M -196.35 -11.85 L -195.75 -11.75 L -195.7 -11.9 L -195.9 -11.95 Z M -201 -15.6 L -198.75 -16.5 L -203.35 -15.7 Z M -202.475 -14.65 L -200.2 -14.7 Q -199.8 -14.7 -200.55 -14.85 Q -201.35 -15 -200.95 -15.05 L -198.75 -14.95 L -200.65 -15.15 L -201.6 -15.15 L -202.475 -14.65 L -204.9 -13.25 Q -203.3 -14.45 -201.9 -15.15 L -204.15 -15.25 Q -204.7 -15.3 -204.15 -15.45 L -203.25 -15.5 L -204.05 -15.5 L -205.2 -15.15 L -204.2 -15.5 L -205.95 -15.5 L -207.3 -15.1 L -207.15 -15.3 Q -206.95 -15.35 -206.8 -15.45 L -213.3 -14.65 L -214.65 -13.55 L -213.55 -14.6 L -214.15 -14.45 L -213.5 -14.65 Q -211.7 -16.1 -209.45 -17.25 L -211.3 -16.8 L -209.1 -17.4 Q -205.25 -19.25 -200.45 -19.9 L -203.2 -20.05 Q -199.65 -20.65 -192.95 -20.25 L -193.2 -20.4 L -185.6 -19.9 L -184 -20.15 L -184 -20.2 L -183.8 -20.2 L -180.6 -20.9 L -184.75 -21.2 L -184.75 -21.4 L -182.85 -21.3 L -192.15 -22.4 L -200 -22.6 L -200.85 -22.75 Q -206.95 -22.25 -210.5 -21.25 Q -205.85 -22.75 -200 -23 L -174.75 -22.05 L -150.5 -25.6 Q -151 -25.6 -150.7 -25.75 L -149.85 -25.95 L -131.35 -28.85 L -124.75 -30.4 L -124.8 -30.55 L -124.05 -30.7 L -122.8 -31.1 L -122.75 -30.95 L -121.45 -31.3 L -121.4 -31.15 Q -118.8 -32.05 -117.55 -32.65 L -117.5 -32.5 Q -115.55 -33.15 -114.95 -33.55 L -114.9 -33.45 L -114.3 -33.85 L -102.7 -38.6 L -103.1 -38.1 Q -103.3 -37.85 -102.5 -38.1 L -97.8 -39.4 L -97.8 -39.5 Q -97.4 -40.45 -96.7 -40.45 L -96.15 -40.7 L -96.25 -40.8 L -96.05 -40.85 L -96 -40.75 L -95.85 -40.75 L -95.75 -40.65 L -95.65 -40.75 L -95.55 -40.9 L -95.45 -40.75 L -95.35 -40.95 L -95.25 -40.85 L -95.3 -41 L -95.15 -41.2 L -94.4 -41.45 L -94.1 -41 L -94 -40.95 Q -90.95 -43 -86.4 -46.9 L -79.05 -53 Q -70.05 -59.75 -60 -60.3 Q -54.25 -60.6 -45.6 -58.75 L -31.65 -55.85 L -5.1 -54.1 Q 1.7 -53.55 8.6 -54.45 Q 15.7 -55.4 21.5 -57.65 Q 25.4 -59.15 32.65 -63.35 Q 39.6 -66.75 47.2 -66.5 Q 47.8 -67.5 46.8 -68.95 Q 46.05 -69.95 47.2 -70.05 L 52.95 -70.45 Q 55.55 -71.25 56.05 -73.6 Q 55.9 -74.9 53.65 -75.2 Q 51.1 -75.5 50.7 -76.25 Q 52.95 -77.2 56.5 -77.2 Q 60 -77.2 62.25 -76.25 Q 62.45 -77 61.6 -78.35 Q 61.2 -79 63.1 -78.9 Q 66.6 -77.55 69 -77.4 Q 72.3 -77.15 74.65 -78.9 Q 75.05 -80.3 73 -81 Q 70.3 -81.9 69.5 -83 Q 71.1 -82.85 73.85 -82.95 L 78.2 -83.35 Q 78.7 -84.6 83.7 -86.3 Q 87.2 -87.5 84.2 -90.45 L 81.9 -92.15 Q 80.4 -93.2 79.95 -93.95 L 85.65 -93.6 Q 85.95 -93.55 86.85 -94.05 L 94.1 -94.85 L 95.2 -94.6 L 94.4 -94.95 Q 92 -96 91.3 -96.85 L 93.45 -96.25 L 96.8 -96.6 Q 98.4 -97.15 99.05 -97.6 L 101 -99.2 L 103.45 -100.3 Q 101.4 -101.65 97.5 -101.2 Q 98.65 -102.95 101.7 -103.05 Q 104.75 -103.1 106.35 -101.5 L 107.6 -101.9 L 107 -102.6 L 104.65 -102.7 Q 103.7 -102.8 104.55 -103.15 L 105.75 -103.3 Q 106.55 -104.35 107.8 -103.9 L 107.9 -104.8 Q 107.05 -105.2 107.25 -106.5 L 108.1 -106.3 L 108.25 -107.3 L 109.65 -105.95 L 110.35 -105.75 Q 109.65 -107.8 108.6 -109.45 L 108.9 -110.7 Q 111.45 -110.5 115.1 -107.9 Q 116.9 -109.65 117.65 -109.3 L 117.9 -109.15 Q 117.95 -108.05 119.35 -107.2 Q 120.2 -106.7 122.15 -105.75 Q 121.45 -108.65 121.45 -112.1 Q 121.45 -116 122.45 -117.85 Q 123.65 -116.9 125.4 -113.85 Q 126.85 -111.4 128.65 -110.8 L 129.75 -111.3 Q 130.45 -111.75 130.45 -110.8 Q 131.55 -110.7 131.4 -112.45 Q 131.2 -114.95 131.3 -115.2 Q 131.95 -116.1 132.45 -113 Q 133.05 -109.3 134 -109 Q 135.2 -109.15 137.4 -105.95 Q 137.85 -106.2 138.6 -105.5 Q 139.4 -104.75 140 -103.5 L 141 -101.25 L 141.85 -101 Q 142.45 -101.1 143.75 -99.35 Q 144.75 -98 145.2 -99.25 Q 145.55 -98.5 147.6 -96.55 Q 149.15 -95 149.35 -93.25 Q 152.55 -89.55 154.2 -88.05 L 156.7 -85.45 L 163.4 -75.6 Q 167.25 -68.85 173.85 -62 Q 178.5 -58.35 179.85 -56.8 Q 182.15 -54.25 183.45 -50.2 L 183.9 -48.15 Q 184 -46.75 183.55 -46.3 Q 182.85 -45.6 182.95 -43.7 Q 183.1 -41.8 182.6 -41.25 L 181.15 -39.2 Q 180.3 -38.05 179.2 -37.9 L 172.35 -36.7 L 166.45 -37.25 Q 165.2 -38.4 164.75 -39.5 L 164.15 -40.4 L 163.6 -40.95 L 153.9 -46.65 Q 151.85 -47.55 149.2 -49.15 L 145.5 -50.95 L 134.5 -53.65 Q 131.75 -54.15 129.05 -55.3 Q 127.6 -55.85 122.7 -58.5 L 118.9 -58.55 Q 115.45 -57.95 112.7 -53.2 L 109.2 -46.15 L 107.4 -40.8 L 102.45 -31.3 Q 99.35 -25.45 98.55 -21.35 Q 98.25 -19.7 98.45 -16.85 Q 98.7 -13.75 98.55 -12.45 Q 98.35 -10.9 97.2 -7.65 Q 96.1 -4.4 95.9 -2.75 L 95.5 0.85 Q 95.5 1.7 96.25 2.15 Q 98.7 3.55 100.4 4.85 Q 103.3 6.95 109.1 10.1 L 118.5 15.35 L 118.55 15.3 L 121 16.95 L 122.05 17.85 Q 123.75 19.2 124.6 20.75 Q 126.1 23.6 126.65 27.75 Q 126.85 29.5 125.3 32.1 Q 123.45 35.15 123.2 36.75 Q 121.85 45 119.3 53.5 L 119.2 53.5 Q 119.2 56 118.3 56.65 L 112.55 58.6 Q 110.55 59.35 107 61.8 L 101.65 66.9 Q 97.1 71 95.85 69.85 Q 93.05 67.3 93.4 61.9 Q 93.7 56.8 96.35 53.55 Q 97.75 51.7 101.65 52.45 L 107.45 52.75 Q 108.6 51.9 108.55 51.05 L 108.25 49.2 Q 108.2 48.7 109.5 48.15 L 111.4 46.95 L 113.65 44.15 Q 117.5 34 114.75 27.05 L 103.35 26.45 L 90.95 27.25 L 93.05 28.7 Q 94.55 29.7 98.35 31.1 Q 101.95 32.85 104.35 36.15 L 104.05 37.55 Q 103.8 39 104 39.4 L 103.05 43.05 Q 102.85 44.4 102.1 45.4 L 101.65 46.3 Q 100.1 47.55 96.6 48.95 L 91.2 51.25 Q 88.9 52.4 83.1 56.7 L 75 62.65 Q 73.6 63.55 72.6 63.45 Q 69.7 63.15 64.4 61.25 Q 59.45 59.5 57.7 59.45 L 52.45 59.55 L 43.65 58.1 Q 43.95 56.25 45.25 54.4 Q 46.85 52.1 49.4 49.9 Q 52.5 47.15 55.05 46.4 Q 57.25 47.15 59.75 50.2 Q 62.25 53.3 64.35 54.05 Q 66.35 54.45 67.3 52.65 Q 68.7 50.1 69 49.9 Q 74.05 50.6 80.8 47.9 Q 87.15 45.4 90.65 41.7 L 76.2 39.45 L 64.3 36.2 Q 59.75 34.85 57.4 34.6 Q 52.5 34.15 46.15 32.1 Q 40.75 30.35 39.95 29.55 L 38.55 27.9 Q 23.2 31.5 3.65 26.75 L -12.7 22.45 Q -22.5 20 -29.95 19.25 L -29.9 19.35 L -30.3 19.2 L -31.15 19.1 L -31.2 19.05 L -38.15 19.45 Q -38.6 24.9 -39.1 28.3 Q -39.95 33.6 -41.5 38.75 L -45.15 47.6 L -45.3 49.8 Q -38.85 51.15 -35.55 52.45 L -35.4 52.45 Q -34.55 52.55 -33.15 53.7 L -31.65 55.05 L -24.35 59.5 Q -18.45 63.45 -15.4 67.4 Q -18.3 71.6 -24.45 71.95 Q -29.6 72.25 -34.9 69.95 Q -35.9 68.95 -35.8 66.45 Q -35.7 64.25 -37.85 62.95 Q -38.55 62.7 -39.15 63.5 L -40.3 65.05 Q -36.4 71.15 -30.25 76.05 L -26.95 79 Q -24.4 80.55 -21.9 82.05 Q -18.5 84.05 -17.35 85.4 Q -16.35 86.5 -16.1 88.95 Q -15.8 91.3 -14.7 92.4 Q -8.55 98.5 -5.55 102.75 Q -1.55 108.5 -3.7 110.2 Q -6.1 112.1 -12.5 110.9 Q -18.8 109.7 -21.2 107 L -20.5 98.15 Q -21.2 95.1 -22.55 95.75 Q -25.1 97 -25.7 96.85 L -27.9 93.05 Q -29.2 90.6 -30.3 89.35 L -37.85 82.15 Q -40.65 79.05 -43.9 77 Q -47.9 74.5 -49.1 73.45 L -61.75 64.45 Q -67.4 59.75 -68 53.85 Q -70.3 52.95 -72.9 51.5 Q -75.75 49.9 -77.4 49.2 L -82.15 46.65 Q -83.65 45.5 -84.15 43.85 Q -84.8 41.55 -82.35 37.25 Q -79.55 32.35 -79.45 31.6 Q -79.1 28.65 -79.9 25.95 Q -80.6 23.55 -82 21.9 Q -83.4 20.25 -84.9 19.55 L -89.75 16.4 L -93.65 13.2 Q -96.2 10.85 -99.15 4.8 Q -102.1 -1.15 -103.5 -6.75 L -103.5 -6.65 Q -105 -11.7 -103.65 -19.45 Q -111.55 -11.8 -118.35 -8.45 L -120.45 -7.6 Q -130.4 -1.3 -140.55 -1.85 L -152.7 -3.75 L -163.9 -5 L -180.95 -5.05 L -182.8 -5.4 L -192.1 -5.95 L -189.3 -5.85 Q -188.85 -5.85 -189.75 -6 Q -190.7 -6.2 -190.2 -6.2 L -183.7 -5.8 L -183.7 -5.95 L -193.9 -6.75 Q -194.65 -6.9 -193.9 -6.9 L -182.2 -6.3 L -182.75 -6.45 L -170.7 -6.9 L -170.75 -7.05 L -172.6 -6.85 L -172.6 -7.15 L -172.5 -7.15 L -181.85 -8.1 L -182.55 -8.3 L -190.25 -7.3 L -187.85 -7.85 Q -187.5 -7.95 -188.25 -7.9 Q -189.1 -7.85 -188.7 -8 L -183.8 -8.55 L -184.85 -8.6 L -192 -7.5 Q -192.6 -7.45 -192.05 -7.7 L -187.45 -8.75 L -190.05 -8.95 Q -190.95 -9.05 -190.95 -9.25 L -191.25 -9.25 L -192.15 -9.15 L -191.45 -9.3 L -194.6 -9.45 L -199.55 -6.8 Q -197.65 -8.3 -195 -9.5 L -201.3 -9.8 L -194.6 -9.65 L -192.15 -10.5 L -193.05 -10.65 Q -193.05 -10.85 -194.85 -11.25 L -197.3 -11.65 L -201.05 -10.65 L -197.65 -11.7 L -204.15 -12.15 L -201.35 -12.1 Q -200.85 -12.1 -201.8 -12.3 Q -202.7 -12.45 -202.25 -12.45 L -196.75 -11.9 L -196.4 -12 L -206 -13 L -195.2 -12.25 L -194.8 -12.35 L -194.75 -12.35 L -189.75 -13 L -193.1 -13.6 L -194.35 -14.05 L -195.95 -13.65 L -194.5 -14.05 L -194.65 -14.1 L -195.65 -14.25 L -197.7 -13.85 Q -198.15 -13.8 -197.7 -14.05 L -196.65 -14.4 Z M -186.4 -17.35 L -186.35 -17.65 L -177.25 -16.8 L -176.45 -16.85 Q -176.65 -17 -175.9 -17.35 L -179.2 -17.55 L -180.4 -17.25 L -179.45 -17.55 L -180.35 -17.5 L -180.35 -17.65 L -181.05 -17.7 Q -183.3 -17.4 -181.95 -17.8 L -181.85 -17.85 L -182.9 -18 L -191.75 -17.6 L -184.6 -17 L -184.55 -17.15 Z M -188.25 -14.8 L -190.9 -14.6 L -184.05 -13.4 L -184.05 -13.55 L -185.65 -13.8 L -185.6 -14.1 L -180.85 -13.4 L -177.5 -13.55 Q -182.65 -13.75 -180.85 -14.15 L -180.75 -14.2 L -183.8 -14.7 L -186.65 -14.6 Z M -190.85 -12.45 L -191.75 -12.6 L -194.2 -12.25 L -188.75 -11.25 L -184.55 -11.75 L -188.2 -12.65 Z M -189.05 -15.1 L -189.05 -15.25 L -192.5 -14.85 L -192.15 -14.8 Z M -188.3 -15.85 L -188.1 -15.9 L -196.5 -16.6 L -197.85 -16.6 L -200.65 -15.6 L -194.3 -15 L -194.25 -15 L -194.5 -15.15 L -193.95 -15.1 L -187.5 -15.75 Z M -182.35 -19.85 L -184 -19.95 L -184.9 -19.85 L -182.35 -19.7 Z M -208.5 -17.45 Q -211.2 -16.2 -213.25 -14.7 L -206.3 -15.7 Q -202.3 -17.4 -197.05 -17.55 L -200.9 -17.8 Q -201.75 -17.8 -201.75 -18.05 Z" fill="#FAF643"/>
	</g>
</svg>
