<?xml version="1.0"?>
<!DOCTYPE svg PUBLIC "-//W3C//DTD SVG 1.1//EN" "http://www.w3.org/Graphics/SVG/1.1/DTD/svg11.dtd">
<svg version='1.1' width='408px' height='245px' xmlns='http://www.w3.org/2000/svg' xmlns:xlink='http://www.w3.org/1999/xlink'>
	<g transform="translate(219.3,125.089)">
		<path d="M -61.45 41.6 Q -61.35 35.2 -62 32.3 Q -62.85 28.35 -65.45 26.6 Q -66.8 27.55 -67.8 28.45 Q -69.4 30.15 -73.15 33.05 L -78.3 37.35 Q -78.05 40.25 -72.5 45.35 Q -68.6 48.9 -63.05 52.75 L -61.9 48.55 Q -61.5 46.25 -61.45 41.6 Z M -106 -34.7 L -104.75 -35.6 L -104.35 -37.05 L -104.85 -35.95 Z M -106.05 -44.2 L -106.8 -43.85 Q -107.2 -43.85 -107.8 -43.25 L -107.05 -43.4 L -105.85 -44.2 Z M -156.5 -38.7 Q -156.35 -38.75 -156.55 -38.9 L -157.8 -38.95 L -157.8 -39.15 L -160.9 -39.5 Z M -98.35 -49.75 L -97.85 -50.3 L -106.45 -49.25 Z M -199.7 -23.7 L -199.45 -23.75 L -195.5 -24.5 Q -193.05 -25.75 -190.65 -26.6 L -190.7 -26.6 L -190.75 -26.8 L -189.7 -26.95 L -189.55 -27 L -195.6 -26.45 L -199.45 -23.75 L -197.6 -25.2 L -198 -25.05 Q -198.7 -24.7 -198.4 -24.95 L -196.45 -26.35 L -196.75 -26.3 L -199.1 -24.65 Q -200.3 -23.8 -200.85 -23.5 L -199.7 -23.7 L -200.9 -23.45 L -201.3 -23.25 L -199.1 -23.65 Z M -188.1 -22.25 L -188.15 -22.35 Q -191.25 -20.9 -194 -19.2 L -194.55 -18.85 L -193.1 -19.25 L -192.35 -19.7 Q -192 -19.9 -192.8 -19.6 Q -193.55 -19.25 -193.25 -19.5 Q -190.65 -20.85 -188.1 -22.25 Z M -189.5 -23.7 L -189.55 -23.85 L -195.2 -21.35 L -194.5 -21.5 Z M -186.85 -24 L -187.05 -23.95 L -188.6 -23.7 Q -190.15 -23.2 -192.9 -21.95 L -188.05 -23.05 L -185.45 -24.1 L -186.55 -24 Z M -185.6 -22.65 L -187.2 -22.25 Q -189.6 -21.3 -192.9 -19.3 L -186.85 -20.65 L -187.45 -20.65 Q -180.6 -22.1 -175.85 -22.2 L -175.85 -22.35 L -177.65 -22.3 L -177.65 -22.55 Q -175.5 -22.9 -170.5 -22.6 L -174.5 -23.5 L -178.65 -23.35 L -178.65 -23.6 L -177.25 -23.7 L -183.7 -23.4 Z M -187.75 -25.8 L -187.75 -25.85 L -189.6 -25.6 L -189.65 -25.85 L -186.15 -26.4 L -183.45 -27.35 L -188.7 -26.85 L -193.95 -24.75 L -188.05 -25.65 Z M -183.3 -31.9 L -185.75 -31.1 L -180.75 -31.75 Z M -193.6 -27.7 L -194.65 -27.05 L -185.25 -28.45 L -185.05 -28.45 L -182.7 -29.15 Z M -198.75 -26.6 L -201.1 -25.9 L -196.85 -26.7 L -196.45 -27 L -197.15 -26.75 Z M -199.05 -27.6 L -199.65 -27.4 L -199.95 -27.2 L -198.65 -27.55 L -199.05 -27.6 L -193 -29.2 L -188.65 -31.35 L -191.6 -30.85 L -191.6 -30.95 L -195.75 -29.85 L -199.6 -27.45 Z M -201.6 -26.2 L -201.9 -26 L -199.6 -26.7 L -199.65 -26.85 Z M -180.6 -27.2 L -181.6 -27.3 L -184.65 -26.5 L -183.05 -26.55 Z M -179.3 -28.5 L -180.05 -28.7 L -180.8 -28.55 Z M -180.1 -32.15 L -181.2 -32.2 L -181.2 -32.4 L -182 -32.3 L -182.8 -32.05 L -179.65 -31.9 L -179.2 -31.95 L -179.35 -31.95 Z M -180.25 -35.75 L -180.6 -35.8 L -181.85 -35.6 L -180.3 -35.55 Q -179.9 -35.55 -180.25 -35.75 Z M -181.8 -37.55 L -179.35 -37.25 L -174.35 -37.6 L -180 -37.85 L -182.65 -37.45 Z M -180.95 -40.75 L -182 -39.95 L -176.85 -40.8 L -178.6 -40.75 L -178.6 -41 Z M -171.2 -41.8 L -168.85 -41.1 Q -169.4 -41.35 -169 -41.35 L -166.2 -40.7 L -167.05 -41 L -174.1 -42.7 L -178 -42.3 L -178.4 -42.15 L -174 -42.2 Z M -203.15 -25 L -206.9 -21.9 L -201.45 -23.2 L -201.3 -23.35 L -203.35 -22.9 L -201.3 -23.4 L -201.25 -23.45 L -197.8 -26.1 Z M -208.3 -24.2 L -207.4 -24.45 L -201.15 -26.8 L -200.85 -27 L -202.1 -26.6 L -200.85 -27.05 L -197.65 -29.2 L -202.1 -27.65 Q -205.05 -26.35 -208.3 -24.2 Z M -203.1 -27.55 L -203.15 -27.65 Q -206.7 -25.85 -209.5 -23.95 L -209.75 -23.8 L -208.45 -24.15 L -207.75 -24.6 Q -207.35 -24.85 -208.2 -24.45 Q -209 -24.05 -208.65 -24.35 Z M -202.95 -28.35 L -202.6 -28.55 L -205.8 -27.45 L -206.65 -27.35 L -213.7 -24.3 L -217.5 -21.15 L -210.9 -23.45 Q -207.1 -26.35 -202.15 -28.6 L -202.55 -28.55 Z M -204.7 -25.1 L -203.85 -25.3 L -202.5 -25.8 L -202.25 -26 Z M -210.15 -26.65 Q -210.9 -26.1 -211.05 -26.25 L -213.45 -24.5 Q -206.8 -27.9 -199 -30.1 Q -196.05 -31.3 -191.7 -32.55 L -191.6 -32.65 L -191.25 -32.8 L -191.25 -32.85 L -193.05 -32.35 L -193.15 -32.6 L -189.25 -33.75 L -185 -35.65 L -194.3 -33.2 L -194.35 -33.4 L -191.65 -34.2 L -196.25 -33.05 Q -198.5 -32.55 -202.4 -30.8 Q -206.65 -28.9 -210.15 -26.65 Z M 73.65 67.6 Q 80.85 64.55 80.55 59.6 Q 73.4 52.8 63.55 48.6 Q 58.3 54.5 55.8 58.35 Q 52 64.2 50.55 70.6 Q 53.4 70.4 55.75 69.5 Q 57.15 68.9 61.25 69.5 Q 67.15 70.35 73.65 67.6 Z M 42.4 43.4 Q 44.75 34.45 43.55 26.6 Q 38.65 24.65 30.85 23.55 L 10.25 22.45 Q 1.5 21.65 -11.3 16.5 Q -27.8 9.85 -32.45 8.6 Q -34.1 12.7 -35.55 19.65 L -37.45 29.6 L -39.2 36.3 Q -41.5 49.7 -40.65 53.5 Q -39.45 59.15 -30.7 65.55 Q -22.35 71.7 -14.45 76.55 Q -10.1 79.25 -7.45 82.1 L 1.65 92.8 Q 3.4 96.4 3.9 99 L 4.55 104.6 Q 12 102.95 7.1 97.2 Q 7.5 95.9 8.05 95.5 Q 8.3 95.3 10.25 94.45 Q 16.35 90.5 20.1 86.7 L 27.75 78 Q 28.5 74.05 30.1 71.95 Q 31.7 69.8 36 67 Z M 76.3 -84.5 Q 76.9 -84.65 77.2 -84.95 Q 76.3 -84.95 75.2 -84.25 Z M 107.8 -124.2 Q 107.65 -125.5 109.5 -124.9 L 111.75 -123.8 L 118.65 -118.75 Q 121.15 -116.95 122.2 -115.65 L 122.85 -115.8 L 122.65 -118.65 Q 122.8 -120.1 124.3 -119.3 Q 125.3 -118.8 126.3 -117.65 L 128 -115.6 L 128.9 -115.55 Q 129.55 -115.85 131.35 -114.4 Q 132.75 -113.3 132.85 -114.7 Q 133.45 -114.05 136.05 -112.55 Q 138.15 -111.4 138.8 -109.7 Q 142.9 -106.85 145.3 -105.65 L 151.2 -101.65 L 158.3 -95.3 Q 164.4 -89.2 172.85 -84.2 Q 178.7 -81.7 180.55 -80.45 Q 183.6 -78.45 186.1 -74.65 L 187.05 -72.65 Q 187.6 -71.25 187.25 -70.65 Q 186.7 -69.7 187.35 -67.8 Q 188.05 -65.85 187.7 -65.15 L 186.8 -62.6 Q 186.2 -61.2 185.1 -60.7 L 178.4 -57.55 Q 176.4 -56.75 172.1 -56.5 Q 170.5 -57.4 169.7 -58.4 L 168.85 -59.15 L 168.15 -59.6 L 156.5 -62.75 L 146.6 -64.85 Q 141.6 -65.1 134.5 -64.6 Q 128.8 -64.15 122.85 -66.15 L 122.55 -66.1 L 122.55 -65.4 Q 120.3 -59.8 118.85 -50.55 Q 117.4 -41.2 115.55 -36.4 Q 113.85 -31.95 108.15 -25.2 Q 102.2 -18.25 100.55 -14.4 Q 99.35 -11.6 99.15 -6.5 Q 98.9 -0.2 98.55 1.6 Q 96.95 9.6 92.4 15.9 Q 87.6 22.5 80.55 25.6 Q 80.65 32.2 86.05 42.15 Q 93.1 55 93.8 57.05 Q 95.05 60.8 93.35 65.95 Q 91.75 70.8 89.7 71.35 Q 88.65 71.65 76.95 76.65 Q 66.75 80.95 61.55 81.6 Q 57.5 82.1 53.4 80.85 Q 49.9 79.75 44.5 81 Q 33.1 83.75 19.55 103.6 Q 18.4 105.4 18.35 106.4 L 19.5 113.2 Q 20 116.35 18.55 119.6 Q 11.55 119 7.85 117.4 Q 4.5 115.95 1.55 112.6 Q 0.35 111.35 1.6 109.25 L 3.55 105.6 Q -2.65 104.8 -6.7 103.35 Q -11.6 101.6 -14.45 98.6 Q -15.3 96.05 -14.05 93.95 Q -12.9 91.9 -13.45 90.6 Q -14.05 89.25 -14.9 90.05 L -16.45 91.6 Q -18.05 92.45 -18.8 91.8 L -21.9 88.25 Q -29.9 79.5 -49.45 68.6 L -48.5 75.75 Q -47.9 80.2 -48.55 82.05 Q -49.45 86.25 -51.1 88.9 Q -53.25 92.15 -57.45 94.6 Q -61.75 91.85 -63.7 84.9 Q -65.8 77.3 -61.45 73.6 Q -59.7 72.2 -60 70.95 Q -60.5 69.2 -66.2 69.95 Q -66.85 70.05 -68.55 67.75 L -70.5 65.05 Q -75.15 60.05 -85.65 52.55 Q -95.45 45.5 -100.45 39.6 Q -101.75 38.05 -101.55 36.45 Q -101.35 34.95 -99.6 31.9 L -93.7 26.4 Q -86.4 19.7 -82.45 13.6 L -90.7 6.35 Q -94.45 3.15 -99.3 -3.85 L -101.9 -7.95 Q -103.25 -10.35 -103.45 -11.4 Q -103.75 -12.95 -105.2 -16.95 Q -106.1 -19.6 -106.4 -22.3 L -106.45 -25.4 Q -106.45 -28.75 -105.55 -32.8 Q -109.35 -29.05 -114.75 -25.85 Q -120.15 -22.7 -125.25 -21.2 L -127.1 -20.7 Q -137.35 -15.3 -146.6 -16.15 Q -151 -16.55 -158.15 -18.05 L -169.15 -20.1 L -174.9 -20.45 Q -179.25 -21.05 -185.4 -19.75 L -187.25 -19.65 L -195.95 -17.55 L -193.35 -18.3 Q -192.9 -18.45 -193.8 -18.3 Q -194.7 -18.2 -194.3 -18.35 L -188.2 -19.8 L -188.2 -19.95 L -194.1 -18.55 L -194.45 -18.3 L -194.15 -18.55 L -195.95 -18.05 Q -196.85 -17.55 -196.45 -17.95 Q -198.8 -17.45 -197.9 -17.85 L -195.7 -18.55 Q -193.1 -20.4 -189.15 -22.35 L -189.6 -22.25 L -190.65 -21.75 L -189.65 -22.25 L -194.7 -21.05 L -195.85 -20.45 L -195.05 -20.9 Q -195.8 -20.75 -195.95 -20.9 L -196.25 -20.85 L -197.1 -20.45 L -203.25 -15.8 L -197.8 -20.2 Q -198.2 -20.05 -197.7 -20.35 L -205.65 -17.7 Q -201.35 -19.55 -196.95 -20.85 L -192.2 -23.65 L -197.6 -22.75 L -198.25 -22.8 L -204.55 -19 Q -201.45 -21.25 -198.75 -22.75 L -199.5 -22.7 L -207.15 -20.9 L -205.85 -21.35 Q -205.4 -21.45 -206.3 -21.35 Q -207.25 -21.2 -206.8 -21.35 L -200.5 -22.85 L -200.5 -23 L -207.6 -21.3 L -207.85 -21.05 L -207.65 -21.3 L -207.75 -21.25 L -210.45 -20.65 Q -211.25 -20.55 -210.5 -20.8 L -207 -21.9 L -203.6 -24.9 L -204.4 -24.7 L -206.2 -24 L -204.8 -24.6 L -207.5 -24 L -208.45 -23.9 L -208.9 -23.8 L -209.95 -23.05 L -209.05 -23.75 L -210.5 -23.35 Q -212.75 -21.85 -211.95 -22.65 L -211.35 -23.05 L -217.6 -21.1 L -219.3 -19.5 L -217.75 -21.05 L -218.5 -20.8 L -217.7 -21.1 L -214.55 -23.9 L -214.95 -23.7 L -214.5 -23.95 Q -208.1 -29.1 -200.05 -32.3 Q -194.85 -34.3 -189.1 -35.8 L -184.05 -37.25 L -189.75 -36.75 L -196.6 -34.6 Q -199.95 -33.3 -202.75 -31.85 L -201.85 -32.35 L -202.25 -32.25 Q -203.05 -31.95 -202.7 -32.2 L -197.5 -34.6 L -197.55 -34.75 L -203.5 -31.95 Q -205.05 -31.15 -205.75 -30.9 Q -206.4 -30.65 -205.85 -31.05 Q -203.45 -32.6 -196.85 -35.5 L -196.95 -35.55 Q -190.8 -38.15 -186.75 -38.75 L -186.75 -38.9 L -188.4 -38.55 L -188.45 -38.85 L -182.3 -39.9 L -181.35 -40.7 L -189.45 -39.55 L -189.5 -39.75 L -187.9 -40.1 L -191.35 -39.6 L -196.9 -37.75 L -203.95 -34.6 Q -204.65 -34.25 -204.8 -34.4 L -212.9 -29.65 Q -196.8 -40.95 -179.3 -42.1 L -178.15 -42.7 L -175.5 -43.25 L -169.35 -42.05 Q -161.95 -40.45 -154.6 -40.5 L -150.9 -40.65 Q -151.35 -40.75 -151.05 -40.85 L -133.7 -42.75 L -127.6 -43.9 L -127.65 -44 L -125.8 -44.4 L -125.75 -44.3 L -124.55 -44.5 L -124.5 -44.4 L -120.9 -45.45 L -120.85 -45.35 L -118.5 -46.1 L -118.45 -46 L -117.9 -46.3 L -107.35 -49.7 L -97.65 -50.5 L -97.4 -50.85 Q -92.6 -56.3 -81.15 -61.6 Q -64.75 -69.15 -48.45 -67.4 Q -39.45 -66.45 -20.35 -60.8 Q -2.6 -55.55 5.45 -55.25 Q 10.7 -54.95 12.45 -55.1 L 27.05 -57.3 L 42.15 -60.6 Q 44.35 -60.25 48.15 -61.5 Q 52.3 -62.9 53.9 -62.85 L 59.55 -63.4 L 58.15 -64 Q 57.4 -64.25 56.6 -64.95 L 54.6 -67.2 Q 54.4 -68.05 52.75 -68 Q 51.2 -67.9 51.2 -68.95 Q 52.15 -68 55.6 -67.9 L 56.55 -67.8 Q 58.05 -67.7 59.2 -68.95 L 57.2 -68.75 L 56.2 -69.05 Q 55.75 -68.55 54.7 -69.35 Q 53.75 -70.05 53.2 -68.95 Q 53.2 -71.3 56.65 -70.7 L 57.2 -69.95 L 57.15 -70.85 L 56.95 -71.65 Q 55.15 -73.15 56.2 -73.6 Q 57.05 -74 58.25 -73.6 L 59.05 -73.75 Q 61.05 -73.85 63.65 -75.05 L 69 -77.8 L 68.6 -77.7 L 67.95 -77.65 L 63.2 -77.95 Q 66.1 -80.8 69 -81.15 L 70 -81.15 Q 72.05 -80.55 73.35 -81.55 L 74.05 -82.2 Q 73.75 -83.25 74.15 -83.7 L 72.55 -83.75 L 71.75 -83.65 L 71 -83.7 L 70.2 -83.9 L 70.75 -84.55 L 71.45 -84.95 L 73.35 -84.85 L 75.2 -85.75 Q 74.5 -85.85 73.4 -86.95 Q 72.3 -88.05 71.7 -88.15 L 71.3 -88.95 L 71.2 -89.75 L 71.75 -89.2 Q 74.35 -86.7 77.5 -88.4 Q 81.45 -90.55 82.15 -90.4 L 82.9 -90.85 L 84.15 -92.1 L 84.7 -92.95 Q 85.2 -93.45 85.2 -93.95 L 83.65 -93.9 Q 82.4 -94.3 79.15 -91.45 Q 76.45 -89.1 74.2 -91.95 Q 77 -89.7 79.55 -92.35 Q 82.45 -95.4 83.8 -95.05 L 88.2 -96.9 L 89.2 -96.95 Q 88.05 -98.1 86.05 -97.75 L 84.5 -97.3 Q 79.95 -97.05 78.1 -97.45 Q 76.2 -97.85 82.45 -97.9 L 81.2 -97.95 Q 81.2 -99 82.7 -98.9 Q 84.3 -98.8 84.35 -99.6 L 85.25 -100.05 Q 86.65 -101.4 88.35 -101.8 L 91.4 -102.05 L 88.3 -102.85 Q 86.5 -102.9 85.15 -101.25 L 84.65 -100.65 L 84.2 -99.9 Q 84.2 -100.5 84.35 -100.95 L 84.7 -101.85 L 85.2 -102.6 L 87.85 -105.15 L 88.55 -105.65 L 89.95 -105.9 L 89.05 -106.55 Q 90.75 -105.95 94.05 -105.95 Q 92.8 -106 91.85 -106.55 Q 91.2 -106.95 90.2 -107.95 Q 92.4 -107.4 94.25 -108.3 L 95.15 -108.8 L 100.65 -110.75 Q 103.7 -111.85 105.95 -111.65 L 106.8 -111.45 L 109.35 -111.75 L 110.2 -112 L 110.25 -112.85 Q 110.3 -113.7 110 -114.45 L 108.55 -118.35 Q 108.3 -119.25 107.8 -124.2 Z" fill="#FAF643"/>
	</g>
</svg>
