<?xml version="1.0"?>
<!DOCTYPE svg PUBLIC "-//W3C//DTD SVG 1.1//EN" "http://www.w3.org/Graphics/SVG/1.1/DTD/svg11.dtd">
<svg version='1.1' width='434px' height='245px' xmlns='http://www.w3.org/2000/svg' xmlns:xlink='http://www.w3.org/1999/xlink'>
	<g transform="translate(225.4,105.392)">
		<path d="M -117.25 -28.35 L -118.6 -27.55 Q -118.45 -27.25 -115.25 -29.15 L -114.95 -30.15 L -117.05 -28.7 Z M -117.5 -36.35 L -117.05 -36.3 L -115.4 -37.15 Z M -119.55 -35.05 L -118.9 -35.35 L -119.55 -35.25 L -119.85 -35.1 Z M -110.75 -39.85 L -110.7 -39.95 L -117.1 -38.75 L -119.1 -38.05 Z M -201.65 -20.05 L -202.55 -19.55 L -193.35 -20.85 L -190.65 -21.55 Z M -196.9 -14.65 L -196.95 -14.75 L -202.4 -11.75 L -201.1 -12.05 L -200.8 -12.25 Q -200.45 -12.5 -201.15 -12.2 Q -201.85 -11.9 -201.55 -12.1 Q -199.2 -13.35 -196.9 -14.65 Z M -197.45 -16.05 L -200.95 -14.6 L -196.1 -15.7 L -193.85 -16.65 L -195.5 -16.5 L -196 -16.3 Z M -198.7 -17.95 L -198.75 -18.2 L -194.6 -18.8 L -191.75 -19.85 L -197 -19.25 L -201.95 -17.3 L -197 -18.05 L -197 -18.2 Z M -200.65 -22.9 L -200.7 -23.1 L -199.4 -23.35 L -202.2 -23 L -202.25 -23 L -207.35 -19.85 L -201.05 -21.5 L -196.95 -23.6 Z M -188.4 -16.1 L -188.45 -16.3 L -187.2 -16.5 L -191.95 -16.05 L -194.55 -15.05 L -196.05 -14.65 Q -198.4 -13.7 -200.9 -12.1 L -195.95 -13.25 L -196.35 -13.3 L -185.75 -15.3 L -185.75 -15.4 L -187.4 -15.15 L -187.45 -15.4 L -179.55 -16.75 Q -175 -17.55 -176 -17.65 L -177.65 -17.4 L -177.65 -17.6 Z M -189.7 -24.45 L -190.2 -24.4 L -193.25 -23.5 Q -188.9 -24.3 -189.7 -24.45 Z M -190.05 -19.5 L -190.1 -19.65 L -192.65 -19.05 L -189.7 -19.45 L -189.6 -19.5 L -189.6 -19.6 Z M -186.7 -33.8 L -187.1 -33.7 Q -187.45 -33.5 -187.55 -33.6 L -187.65 -33.6 L -188.4 -33.1 Q -186.05 -33.75 -186.7 -33.8 Z M -185.75 -31.15 L -187.05 -30.95 L -187.7 -30.6 L -186.3 -30.85 Z M -180.85 -31.8 L -181.2 -31.8 L -185.65 -31.2 L -186.25 -30.85 L -186.05 -30.85 Z M -168.6 -39.3 L -168.65 -39.5 Q -172.2 -39.05 -176.45 -37.8 L -176.55 -38 L -174.75 -38.55 L -177.8 -37.85 L -181.85 -36.4 L -180 -36.6 Q -180.55 -36.65 -180.2 -36.8 L -179.25 -37 L -174.45 -37.55 L -169.35 -38.8 Q -166.8 -39.4 -167.4 -39.5 Z M -215.9 -19.9 Q -216.6 -19.4 -216.75 -19.55 L -219.35 -17.65 Q -214.45 -20.05 -208.7 -21.8 Q -204.25 -24 -198.35 -25.7 L -198.4 -25.85 L -200.05 -25.35 L -200.15 -25.6 L -190.15 -28.75 Q -196.3 -27.7 -201.25 -26.15 L -201.3 -26.3 L -199.95 -26.75 L -203.05 -26 Q -205.15 -25.5 -208.75 -23.85 Q -212.7 -22 -215.9 -19.9 Z M -207.2 -16.35 L -203.4 -17.05 L -198.7 -19.05 L -199.75 -18.95 L -199.75 -19.15 L -198.3 -19.35 L -203.6 -18.9 Q -205.2 -17.9 -207.2 -16.35 Z M -203.15 -14.05 L -202.6 -14.15 L -198.25 -16.1 L -198.3 -16.2 Z M -209.15 -15.8 L -209.1 -15.9 L -209 -16 L -205.6 -18.6 L -210.7 -17.55 L -214.3 -14.6 Z M -207.95 -19.1 L -209.3 -18.65 L -209.55 -18.45 L -207.95 -18.95 Z M -214.5 -17.8 L -209.3 -20.75 L -209.4 -20.85 L -214.5 -17.8 L -216.75 -16.45 L -215.25 -16.85 L -215.2 -16.9 L -214.85 -16.95 L -208.9 -19.2 L -208.6 -19.45 L -203.85 -22.55 L -206.75 -21.3 L -208.4 -20.85 Q -211.45 -19.45 -214.4 -17.45 L -213.65 -18 Q -213.3 -18.25 -214.05 -17.9 Q -214.85 -17.5 -214.5 -17.8 Z M -211.2 -20.55 L -210.9 -20.7 L -213.65 -19.7 L -214.4 -19.6 L -219.8 -17.3 L -223.3 -14.3 L -217.45 -16.25 Q -214.55 -18.6 -210.1 -20.95 Z M -204.35 -18.8 L -204.6 -18.75 L -208.8 -15.9 L -207.45 -16.15 L -208.05 -16.2 L -207.25 -16.35 L -205.7 -17.55 Q -205.4 -17.75 -206.05 -17.4 L -206.45 -17.3 Z M -203.4 -19.4 L -202.65 -19.85 L -203.05 -19.75 L -203.7 -19.35 Z M -205.7 -19 L -207.15 -18.85 L -208.7 -18.4 L -204.75 -19.15 L -204.35 -19.4 Z M 59.35 -65.85 Q 56.25 -66.6 53.6 -69.3 Q 56.35 -68.25 63.15 -68.25 L 72.35 -67.55 Q 72.4 -68.55 69.45 -69.65 Q 66.25 -70.85 66.05 -71.2 L 74.65 -72.6 L 87.05 -71.2 Q 87.85 -71.2 87.9 -72.05 Q 87.95 -72.9 87.05 -73.1 L 82.65 -73 Q 79.85 -72.8 79.4 -74.05 Q 80.15 -73.7 80.7 -73.7 L 82.3 -74.05 Q 84.55 -74.85 86.9 -75.05 L 91.85 -75 L 94.55 -75.3 Q 94.4 -76.3 92.45 -76.7 Q 90.3 -77.15 89.95 -77.9 Q 91.85 -77.55 94.3 -78.65 L 96.6 -79.8 Q 96.65 -80.5 94.55 -80.3 L 89.95 -79.8 L 87.2 -80.45 Q 85.9 -81.05 86.1 -82.65 Q 88.85 -80.85 92.7 -82.45 Q 94.85 -83.35 98.5 -85.35 Q 95.25 -86.9 94.7 -88.4 L 96.9 -87.7 L 104.5 -86.75 Q 109.05 -86.35 109.75 -87.5 Q 108.65 -87.65 106.75 -91.4 Q 109.75 -90.1 110 -91.25 L 108.9 -92.15 L 110.95 -92.2 Q 111 -92.6 110.45 -93.4 Q 110.15 -93.9 110.95 -94.15 Q 112.25 -94.05 114.15 -92.75 Q 115.917 -91.5559 116.45 -90.6 L 114.75 -93.8 Q 113.35 -95.8 111.9 -97 Q 114.15 -97.8 117.9 -96.45 Q 121.3 -95.25 124.65 -92.85 Q 127.4 -90.9 129.8 -90.1 Q 126.55 -95.15 125.1 -98.95 Q 123.05 -104.2 125.2 -105.35 Q 126.3 -105.95 134.9 -97.9 L 135.25 -98.75 Q 136.85 -98.5 138.3 -97.3 L 140.7 -94.95 L 140.6 -96.05 Q 141.5 -95.95 142.15 -95.1 L 143.2 -93.75 L 145.4 -93.45 L 145.5 -96.45 Q 145.8 -98 147.3 -97 L 149.2 -95.05 L 150.75 -92.75 L 151.7 -92.6 Q 152.4 -92.8 154.2 -91.1 Q 155.55 -89.85 155.8 -91.3 Q 156.35 -90.5 158.95 -88.7 Q 161 -87.3 161.55 -85.4 L 164.85 -82.65 Q 166.25 -81.55 167.9 -80.5 Q 169.15 -79.55 171.15 -78.1 L 180.5 -68.35 Q 185.9 -61.65 194.6 -55.2 L 202.3 -50.5 Q 205.35 -48.05 207.55 -43.8 L 208.4 -41.6 Q 208.8 -40.05 208.35 -39.45 Q 207.65 -38.55 208.15 -36.45 Q 208.7 -34.35 208.25 -33.65 L 207.05 -31.1 Q 206.3 -29.65 205.05 -29.3 L 197.7 -26.7 L 191 -26.2 Q 189.35 -27.35 188.7 -28.4 L 187.85 -29.3 L 187.15 -29.8 L 175.25 -34.35 Q 172.85 -34.95 169.55 -36.25 L 165.1 -37.6 L 152.35 -38.5 Q 146.4 -38.65 140.3 -41.35 L 137 -41.1 Q 135.9 -40.8 134.85 -39.65 L 127.95 -34.15 Q 124.2 -29.95 120.7 -26.6 Q 115.15 -21.05 112.85 -19.55 Q 109.45 -17.2 107.7 -14.7 Q 105.5 -11.5 105.25 -7.15 L 105.1 -1.9 Q 105 1.3 105.25 3.35 Q 105.95 9.3 104.55 14.8 Q 103.15 20.3 100.3 22.85 Q 96.7 32.95 95.1 35.65 Q 93.55 38.25 90 40.5 Q 88.7 41.95 83 44.25 L 74.95 47.5 Q 72.6 54.55 72.25 58.5 L 71.3 65 Q 70.65 69.7 70.75 73.65 Q 70.65 74.6 70.9 79.5 Q 71.05 83.15 70.2 86.25 L 69 96.35 Q 68.6 99.15 68.6 103.05 Q 68.85 107.1 69.25 108.6 L 71.5 120.1 Q 72.2 123.05 74.6 126.3 L 75.5 127.05 L 77.35 129.15 Q 80.6 133.45 81 134.75 Q 81.75 136.75 79.9 137.95 Q 78.35 139 75.5 139.1 Q 71.75 139.25 70.35 139.05 Q 68 138.75 66.15 137.4 Q 63.7 135.65 63.6 133.3 Q 63.5 130.95 65.65 127.5 Q 65.45 122.1 60.7 121.35 Q 59.7 119 59.65 115.75 L 59.5 94.25 L 59.1 91.15 L 56.65 82.7 Q 51.95 86.5 45.05 89.3 Q 36.25 92.85 33.25 94.6 L 28.45 97.2 Q 24.2 100.6 21.9 101.95 Q 17.85 104.3 14.3 104.35 Q 13.25 104.35 10.6 103.35 Q 8 102.35 6.5 102.45 Q 4.45 102.6 -1.15 104.65 Q -5.95 106.4 -9.1 105.85 Q -9.05 101.75 -8.45 99.2 Q -7.7 96.15 -5.7 92.9 Q -4.15 90.45 0.9 90.15 Q 2.45 90.05 4.2 92.6 Q 6.1 95.3 8.25 95.55 Q 10 96.3 10.15 94.65 Q 10.3 92.6 11.05 92.45 L 22.5 89.4 L 31.25 86.15 Q 39.95 82.55 42.65 79.45 L 43.35 78.65 L 45.75 67.2 L 45.6 60 Q 45.35 55.95 45.9 52.45 L 46.7 42.55 Q 46.75 40.7 46.2 39.15 L 33.55 36.15 L 33.5 36.15 L 26.5 34.05 L 4.85 31.1 L -9.55 27.75 Q -16.8 25.95 -22.9 23.85 L -50.35 13.9 L -50.6 13.85 Q -59.95 22.15 -63.9 24.8 L -69.05 29.05 Q -74.45 33.25 -78.75 35.1 Q -82.65 36.75 -90.05 38.8 L -106.9 43.45 L -115.25 46.65 L -112.3 51.15 Q -109.25 55.1 -106.8 58.75 L -102 65.7 Q -101.1 67 -100.8 68.9 Q -100.55 70.4 -100.45 75.05 L -100.15 77.75 Q -99.95 80 -100.25 81.05 Q -101.25 84.75 -102.9 87.3 Q -108.55 98.55 -112.85 96.7 Q -113.7 96.35 -114.55 93.5 Q -115.5 90.55 -115.75 87.15 Q -116.35 77.95 -111.4 75.35 Q -109.4 74.3 -109.4 73.15 Q -109.4 71.35 -115.15 70.6 Q -115.75 70.55 -116.85 67.9 L -118.05 64.8 Q -121.1 59.25 -125.1 54.3 Q -127.05 57.95 -127.8 65.55 Q -128.9 76 -129.1 85.15 Q -129.2 90.25 -130.3 93.95 L -134.15 105.25 Q -134.6 106.85 -134.9 107.25 Q -136.55 109.7 -137.95 111.2 L -140.65 113.55 Q -142.55 114.95 -144 114.7 Q -145.3 114.4 -146.2 112.35 Q -149.95 102.6 -148.05 96.35 Q -146.3 94.35 -143.85 94.3 Q -141.5 94.3 -140.65 93.15 Q -139.75 91.95 -140.9 91.6 L -143.05 91.05 Q -144.8 90 -144.65 88.95 Q -144.55 88.2 -142.5 84.35 Q -141.4 82.2 -140.85 80.05 Q -140.5 78.5 -140.5 75.9 L -140.15 62.3 Q -139.85 55.95 -139.95 50.95 L -140.8 43.6 Q -141.15 40.75 -140.95 39.45 Q -140.45 36.6 -139.6 34.5 L -140.55 32.6 Q -141.45 30.8 -140.85 29.3 Q -140.3 27.9 -137.8 25.4 L -130.75 21.5 Q -126.9 19.5 -123.9 17.3 L -117.85 12.25 Q -116.5 9.15 -117.05 2.65 Q -118.75 -1.15 -118.6 -9.65 L -118.55 -11.5 Q -118.65 -15.9 -117.65 -18.7 L -117.5 -19.55 Q -117.1 -22.8 -115.7 -27.6 Q -117.05 -26.55 -118.6 -25.75 Q -122.7 -23.45 -128.5 -21.95 Q -133.75 -20.55 -138.85 -20.1 L -142.45 -20.05 Q -155.15 -17.55 -179.4 -14.45 L -184.65 -13.7 Q -189.05 -13.6 -194.5 -12.4 L -196.15 -12.35 L -204.15 -10.35 L -201.8 -11.05 L -202.65 -11 Q -202.9 -11 -202.65 -11.1 L -197.05 -12.45 L -197.05 -12.6 L -202.1 -11.4 L -202.15 -11.35 L -203.5 -11 L -203.8 -10.95 L -204.5 -10.55 L -204.4 -10.8 L -206.05 -10.45 Q -206.5 -10.4 -205.95 -10.6 L -203.55 -11.4 Q -200.6 -13.5 -197.4 -15 L -197.85 -14.9 L -198.9 -14.35 L -197.9 -14.9 L -202.7 -13.75 L -204.05 -13.05 L -202.95 -13.7 L -203.35 -13.6 L -204.2 -13.5 L -205 -13.15 L -210.85 -8.75 L -205.9 -12.8 L -205.7 -13 L -205.5 -13.15 L -212.45 -10.85 L -204.85 -13.55 L -200.3 -16.2 L -206.1 -15.3 L -206.25 -15.35 L -212.1 -11.8 Q -209.65 -13.7 -206.7 -15.35 L -207.85 -15.2 L -216.15 -13.2 L -213.7 -13.95 Q -213.3 -14.05 -214.1 -13.95 Q -215 -13.85 -214.55 -14 L -208.75 -15.35 L -208.75 -15.5 L -215 -14 L -215.45 -13.85 Q -219.3 -12.9 -218 -13.5 L -214.4 -14.55 L -211.2 -17.45 L -211.8 -17.3 L -213.95 -16.45 L -212.2 -17.2 L -215.25 -16.45 L -216.15 -16.4 L -223.45 -14.15 L -224.45 -13.25 L -223.6 -14.15 L -225.4 -13.5 L -223.45 -14.25 L -220.55 -17 L -222 -16.3 L -220.25 -17.2 Q -213.6 -22.7 -204.1 -26.25 Q -197.2 -28.75 -188.1 -30.5 L -187.9 -30.7 L -187.75 -30.8 L -194.45 -29.4 Q -199.3 -28.65 -203.25 -26.95 L -204.75 -26.6 Q -207.55 -25.55 -211.65 -23.3 L -209.65 -24.45 Q -209.3 -24.65 -210.05 -24.35 Q -210.75 -24.1 -210.45 -24.3 Q -208.1 -25.65 -205.6 -26.6 L -205.65 -26.75 L -211.2 -24.05 Q -214.55 -22.45 -213.4 -23.25 Q -210 -25.4 -204.9 -27.5 L -205.15 -27.5 Q -200.7 -29.35 -195.65 -30.85 L -195.65 -30.95 L -197.15 -30.5 L -197.25 -30.8 L -189.1 -32.95 L -188.2 -33.5 L -188.25 -33.5 L -188.3 -33.7 L -198.25 -31.4 L -198.3 -31.55 L -196 -32.25 L -199.85 -31.3 Q -201.65 -30.95 -205.05 -29.6 L -211.65 -26.6 Q -212.3 -26.25 -212.45 -26.4 L -220.05 -21.95 Q -206.35 -31.7 -184.65 -35.75 L -183.8 -35.9 Q -175.5 -40 -165.75 -41.35 L -163.95 -41.75 L -162.05 -41.9 Q -163.1 -42.05 -161.45 -42.2 Q -153.1 -42.95 -144.8 -42 L -138.75 -41.55 L -138.75 -41.65 L -136.95 -41.5 L -136.95 -41.35 L -135.75 -41.25 L -135.75 -41.1 L -132.2 -41.05 L -132.2 -40.9 Q -130.4 -40.75 -129.8 -40.9 L -129.8 -40.75 L -129.2 -40.9 L -127.35 -40.9 L -126.85 -40.95 L -118.6 -41.2 L -119 -40.85 Q -119.25 -40.7 -118.55 -40.65 L -110.25 -40.7 Q -107.95 -44.4 -105.65 -46.4 Q -104.4 -47.3 -103.2 -48.25 Q -101.85 -48.85 -101.25 -49.2 L -97.25 -50.85 L -86.95 -53.2 Q -78.45 -55.3 -70.8 -55.7 L -57.85 -55 Q -52.55 -54.6 -50.6 -54 Q -40.65 -50.85 -33.5 -49.6 Q -25.1 -48.15 -15.25 -48.25 L 4.85 -48.25 L 22.7 -49.95 Q 32.1 -51.3 41.15 -54.95 Q 42.15 -55.35 46.5 -55.95 Q 49.15 -56.45 44.05 -56.85 L 42.15 -56.85 L 38.8 -55.9 Q 36.1 -55.3 35.45 -56.85 Q 37.3 -56.9 39.8 -57.95 Q 42.6 -59.1 43.9 -59.3 L 47.75 -59.8 L 50.75 -60.7 Q 49.9 -62.75 47.85 -63.55 L 52.65 -63 Q 53.4 -62.9 51.55 -65.2 Q 52.4 -65.4 53.2 -64.9 Q 54.1 -64.25 54.65 -64.25 L 59.45 -64.75 L 64.1 -64.5 Z" fill="#FAF643"/>
	</g>
</svg>
