<?xml version="1.0" encoding="utf-8"?>
<!-- Generator: Adobe Illustrator 17.0.0, SVG Export Plug-In . SVG Version: 6.00 Build 0)  -->
<!DOCTYPE svg PUBLIC "-//W3C//DTD SVG 1.1//EN" "http://www.w3.org/Graphics/SVG/1.1/DTD/svg11.dtd">
<svg version="1.1" id="图层_1" xmlns="http://www.w3.org/2000/svg" xmlns:xlink="http://www.w3.org/1999/xlink" x="0px" y="0px"
	 width="434px" height="245px" viewBox="0 0 434 245" enable-background="new 0 0 434 245" xml:space="preserve">
<g transform="translate(225.4,105.392)">
	<path fill="#FFFC00" d="M-117.25-28.35l-1.35,0.8c0.1,0.2,1.217-0.333,3.35-1.6l0.3-1l-2.1,1.45L-117.25-28.35z M-117.5-36.35
		l0.45,0.05l1.65-0.85L-117.5-36.35z M-119.55-35.05l0.65-0.3l-0.65,0.1l-0.3,0.15L-119.55-35.05z M-110.75-39.85l0.05-0.1l-6.4,1.2
		l-2,0.7L-110.75-39.85z M-201.65-20.05l-0.9,0.5l9.2-1.3l2.7-0.7L-201.65-20.05z M-196.9-14.65l-0.05-0.1l-5.45,3l1.3-0.3l0.3-0.2
		c0.233-0.167,0.117-0.15-0.35,0.05c-0.467,0.2-0.6,0.233-0.4,0.1C-199.983-12.933-198.433-13.783-196.9-14.65z M-197.45-16.05
		l-3.5,1.45l4.85-1.1l2.25-0.95l-1.65,0.15l-0.5,0.2L-197.45-16.05z M-198.7-17.95l-0.05-0.25l4.15-0.6l2.85-1.05l-5.25,0.6
		l-4.95,1.95l4.95-0.75v-0.15L-198.7-17.95z M-200.65-22.9l-0.05-0.2l1.3-0.25l-2.8,0.35h-0.05l-5.1,3.15l6.3-1.65l4.1-2.1
		L-200.65-22.9z M-188.4-16.1l-0.05-0.2l1.25-0.2l-4.75,0.45l-2.6,1l-1.5,0.4c-1.567,0.633-3.183,1.483-4.85,2.55l4.95-1.15
		l-0.4-0.05l10.6-2v-0.1l-1.65,0.25l-0.05-0.25l7.9-1.35c3.033-0.533,4.217-0.833,3.55-0.9l-1.65,0.25v-0.2L-188.4-16.1z
		 M-189.7-24.45l-0.5,0.05l-3.05,0.9C-190.35-24.033-189.167-24.35-189.7-24.45z M-190.05-19.5l-0.05-0.15l-2.55,0.6l2.95-0.4
		l0.1-0.05v-0.1L-190.05-19.5z M-186.7-33.8l-0.4,0.1c-0.233,0.133-0.383,0.167-0.45,0.1h-0.1l-0.75,0.5
		C-186.833-33.533-186.267-33.767-186.7-33.8z M-185.75-31.15l-1.3,0.2l-0.65,0.35l1.4-0.25L-185.75-31.15z M-180.85-31.8h-0.35
		l-4.45,0.6l-0.6,0.35h0.2L-180.85-31.8z M-168.6-39.3l-0.05-0.2c-2.367,0.3-4.967,0.867-7.8,1.7l-0.1-0.2l1.8-0.55l-3.05,0.7
		l-4.05,1.45l1.85-0.2c-0.367-0.033-0.433-0.1-0.2-0.2l0.95-0.2l4.8-0.55l5.1-1.25c1.7-0.4,2.35-0.633,1.95-0.7L-168.6-39.3z
		 M-215.9-19.9c-0.467,0.333-0.75,0.45-0.85,0.35l-2.6,1.9c3.267-1.6,6.817-2.983,10.65-4.15c2.967-1.467,6.417-2.767,10.35-3.9
		l-0.05-0.15l-1.65,0.5l-0.1-0.25l10-3.15c-4.1,0.7-7.8,1.567-11.1,2.6l-0.05-0.15l1.35-0.45l-3.1,0.75
		c-1.4,0.333-3.3,1.05-5.7,2.15C-211.383-22.617-213.767-21.3-215.9-19.9z M-207.2-16.35l3.8-0.7l4.7-2l-1.05,0.1v-0.2l1.45-0.2
		l-5.3,0.45C-204.667-18.233-205.867-17.383-207.2-16.35z M-203.15-14.05l0.55-0.1l4.35-1.95l-0.05-0.1L-203.15-14.05z
		 M-209.15-15.8l0.05-0.1l0.1-0.1l3.4-2.6l-5.1,1.05l-3.6,2.95L-209.15-15.8z M-207.95-19.1l-1.35,0.45l-0.25,0.2l1.6-0.5V-19.1z
		 M-214.5-17.8l5.2-2.95l-0.1-0.1L-214.5-17.8l-2.25,1.35l1.5-0.4l0.05-0.05l0.35-0.05l5.95-2.25l0.3-0.25l4.75-3.1l-2.9,1.25
		l-1.65,0.45c-2.033,0.933-4.033,2.067-6,3.4l0.75-0.55c0.233-0.167,0.1-0.133-0.4,0.1C-214.583-17.633-214.733-17.6-214.5-17.8z
		 M-211.2-20.55l0.3-0.15l-2.75,1l-0.75,0.1l-5.4,2.3l-3.5,3l5.85-1.95c1.933-1.567,4.383-3.133,7.35-4.7L-211.2-20.55z
		 M-204.35-18.8l-0.25,0.05l-4.2,2.85l1.35-0.25l-0.6-0.05l0.8-0.15l1.55-1.2c0.2-0.133,0.083-0.083-0.35,0.15l-0.4,0.1
		L-204.35-18.8z M-203.4-19.4l0.75-0.45l-0.4,0.1l-0.65,0.4L-203.4-19.4z M-205.7-19l-1.45,0.15l-1.55,0.45l3.95-0.75l0.4-0.25
		L-205.7-19z M59.35-65.85c-2.067-0.5-3.983-1.65-5.75-3.45c1.833,0.7,5.017,1.05,9.55,1.05l9.2,0.7
		c0.033-0.667-0.933-1.367-2.9-2.1c-2.133-0.8-3.267-1.317-3.4-1.55l8.6-1.4l12.4,1.4c0.533,0,0.817-0.283,0.85-0.85
		s-0.25-0.917-0.85-1.05l-4.4,0.1c-1.867,0.133-2.95-0.217-3.25-1.05c0.5,0.233,0.933,0.35,1.3,0.35l1.6-0.35
		c1.5-0.533,3.033-0.867,4.6-1L91.85-75l2.7-0.3c-0.1-0.667-0.8-1.133-2.1-1.4c-1.433-0.3-2.267-0.7-2.5-1.2
		c1.267,0.233,2.717-0.017,4.35-0.75l2.3-1.15c0.033-0.467-0.65-0.633-2.05-0.5l-4.6,0.5l-2.75-0.65c-0.867-0.4-1.233-1.133-1.1-2.2
		c1.833,1.2,4.033,1.267,6.6,0.2c1.433-0.6,3.367-1.567,5.8-2.9c-2.167-1.033-3.433-2.05-3.8-3.05l2.2,0.7l7.6,0.95
		c3.033,0.267,4.783,0.017,5.25-0.75c-0.733-0.1-1.733-1.4-3-3.9c2,0.867,3.083,0.917,3.25,0.15l-1.1-0.9l2.05-0.05
		c0.033-0.267-0.133-0.667-0.5-1.2c-0.2-0.333-0.033-0.583,0.5-0.75c0.867,0.067,1.933,0.533,3.2,1.4
		c1.178,0.796,1.945,1.513,2.3,2.15l-1.7-3.2c-0.933-1.333-1.883-2.4-2.85-3.2c1.5-0.533,3.5-0.35,6,0.55
		c2.267,0.8,4.517,2,6.75,3.6c1.833,1.3,3.55,2.217,5.15,2.75c-2.167-3.367-3.733-6.317-4.7-8.85c-1.367-3.5-1.333-5.633,0.1-6.4
		c0.733-0.4,3.967,2.083,9.7,7.45l0.35-0.85c1.067,0.167,2.083,0.65,3.05,1.45l2.4,2.35l-0.1-1.1c0.6,0.067,1.117,0.383,1.55,0.95
		l1.05,1.35l2.2,0.3l0.1-3c0.2-1.033,0.8-1.217,1.8-0.55l1.9,1.95l1.55,2.3l0.95,0.15c0.467-0.133,1.3,0.367,2.5,1.5
		c0.9,0.833,1.433,0.767,1.6-0.2c0.367,0.533,1.417,1.4,3.15,2.6c1.367,0.933,2.233,2.033,2.6,3.3l3.3,2.75
		c0.933,0.733,1.95,1.45,3.05,2.15c0.833,0.633,1.917,1.433,3.25,2.4l9.35,9.75c3.6,4.467,8.3,8.85,14.1,13.15l7.7,4.7
		c2.033,1.633,3.783,3.867,5.25,6.7l0.85,2.2c0.267,1.033,0.25,1.75-0.05,2.15c-0.467,0.6-0.533,1.6-0.2,3
		c0.367,1.4,0.4,2.333,0.1,2.8l-1.2,2.55c-0.5,0.967-1.167,1.567-2,1.8l-7.35,2.6l-6.7,0.5c-1.1-0.767-1.867-1.5-2.3-2.2l-0.85-0.9
		l-0.7-0.5l-11.9-4.55c-1.6-0.4-3.5-1.033-5.7-1.9l-4.45-1.35l-12.75-0.9c-3.967-0.1-7.983-1.05-12.05-2.85L137-41.1
		c-0.733,0.2-1.45,0.683-2.15,1.45l-6.9,5.5c-2.5,2.8-4.917,5.317-7.25,7.55c-3.7,3.7-6.317,6.05-7.85,7.05
		c-2.267,1.567-3.983,3.183-5.15,4.85c-1.467,2.133-2.283,4.65-2.45,7.55L105.1-1.9c-0.067,2.133-0.017,3.883,0.15,5.25
		c0.467,3.967,0.233,7.783-0.7,11.45s-2.35,6.35-4.25,8.05c-2.4,6.733-4.133,11-5.2,12.8C94.067,37.383,92.367,39,90,40.5
		c-0.867,0.967-3.2,2.217-7,3.75l-8.05,3.25c-1.567,4.7-2.467,8.367-2.7,11L71.3,65c-0.433,3.133-0.617,6.017-0.55,8.65
		c-0.067,0.633-0.017,2.583,0.15,5.85c0.1,2.433-0.133,4.683-0.7,6.75L69,96.35c-0.267,1.867-0.4,4.1-0.4,6.7
		c0.167,2.7,0.383,4.55,0.65,5.55l2.25,11.5c0.467,1.967,1.5,4.033,3.1,6.2l0.9,0.75l1.85,2.1c2.167,2.867,3.383,4.733,3.65,5.6
		c0.5,1.333,0.133,2.4-1.1,3.2c-1.033,0.7-2.5,1.083-4.4,1.15c-2.5,0.1-4.217,0.083-5.15-0.05c-1.567-0.2-2.967-0.75-4.2-1.65
		c-1.633-1.167-2.483-2.533-2.55-4.1c-0.067-1.567,0.617-3.5,2.05-5.8c-0.133-3.6-1.783-5.65-4.95-6.15
		c-0.667-1.567-1.017-3.433-1.05-5.6l-0.15-21.5l-0.4-3.1l-2.45-8.45c-3.133,2.533-7,4.733-11.6,6.6
		c-5.867,2.367-9.8,4.133-11.8,5.3l-4.8,2.6c-2.833,2.267-5.017,3.85-6.55,4.75c-2.7,1.567-5.233,2.367-7.6,2.4
		c-0.7,0-1.933-0.333-3.7-1c-1.733-0.667-3.1-0.967-4.1-0.9c-1.367,0.1-3.917,0.833-7.65,2.2c-3.2,1.167-5.85,1.567-7.95,1.2
		c0.033-2.733,0.25-4.95,0.65-6.65c0.5-2.033,1.417-4.133,2.75-6.3c1.033-1.633,3.233-2.55,6.6-2.75
		c1.033-0.067,2.133,0.75,3.3,2.45c1.267,1.8,2.617,2.783,4.05,2.95c1.167,0.5,1.8,0.2,1.9-0.9c0.1-1.367,0.4-2.1,0.9-2.2L22.5,89.4
		l8.75-3.25c5.8-2.4,9.6-4.633,11.4-6.7l0.7-0.8l2.4-11.45L45.6,60c-0.167-2.7-0.067-5.217,0.3-7.55l0.8-9.9
		c0.033-1.233-0.133-2.367-0.5-3.4l-12.65-3H33.5l-7-2.1L4.85,31.1l-14.4-3.35c-4.833-1.2-9.283-2.5-13.35-3.9l-27.45-9.95
		l-0.25-0.05c-6.233,5.533-10.667,9.183-13.3,10.95l-5.15,4.25c-3.6,2.8-6.833,4.817-9.7,6.05c-2.6,1.1-6.367,2.333-11.3,3.7
		l-16.85,4.65l-8.35,3.2l2.95,4.5c2.033,2.633,3.867,5.167,5.5,7.6l4.8,6.95c0.6,0.867,1,1.933,1.2,3.2
		c0.167,1,0.283,3.05,0.35,6.15l0.3,2.7c0.133,1.5,0.1,2.6-0.1,3.3c-0.667,2.467-1.55,4.55-2.65,6.25
		c-3.767,7.5-7.083,10.633-9.95,9.4c-0.567-0.233-1.133-1.3-1.7-3.2c-0.633-1.967-1.033-4.083-1.2-6.35
		c-0.4-6.133,1.05-10.067,4.35-11.8c1.333-0.7,2-1.433,2-2.2c0-1.2-1.917-2.05-5.75-2.55c-0.4-0.033-0.967-0.933-1.7-2.7l-1.2-3.1
		c-2.033-3.7-4.383-7.2-7.05-10.5c-1.3,2.433-2.2,6.183-2.7,11.25c-0.733,6.967-1.167,13.5-1.3,19.6c-0.067,3.4-0.467,6.333-1.2,8.8
		l-3.85,11.3c-0.3,1.067-0.55,1.733-0.75,2c-1.1,1.633-2.117,2.95-3.05,3.95l-2.7,2.35c-1.267,0.933-2.383,1.317-3.35,1.15
		c-0.867-0.2-1.6-0.983-2.2-2.35c-2.5-6.5-3.117-11.833-1.85-16c1.167-1.333,2.567-2.017,4.2-2.05c1.567,0,2.633-0.383,3.2-1.15
		c0.6-0.8,0.517-1.317-0.25-1.55l-2.15-0.55c-1.167-0.7-1.7-1.4-1.6-2.1c0.067-0.5,0.783-2.033,2.15-4.6
		c0.733-1.433,1.283-2.867,1.65-4.3c0.233-1.033,0.35-2.417,0.35-4.15l0.35-13.6c0.2-4.233,0.267-8.017,0.2-11.35l-0.85-7.35
		c-0.233-1.9-0.283-3.283-0.15-4.15c0.333-1.9,0.783-3.55,1.35-4.95l-0.95-1.9c-0.6-1.2-0.7-2.3-0.3-3.3
		c0.367-0.933,1.383-2.233,3.05-3.9l7.05-3.9c2.567-1.333,4.85-2.733,6.85-4.2l6.05-5.05c0.9-2.067,1.167-5.267,0.8-9.6
		c-1.133-2.533-1.65-6.633-1.55-12.3l0.05-1.85c-0.067-2.933,0.233-5.333,0.9-7.2l0.15-0.85c0.267-2.167,0.867-4.85,1.8-8.05
		c-0.9,0.7-1.867,1.317-2.9,1.85c-2.733,1.533-6.033,2.8-9.9,3.8c-3.5,0.933-6.95,1.55-10.35,1.85l-3.6,0.05
		c-8.467,1.667-20.783,3.533-36.95,5.6l-5.25,0.75c-2.933,0.067-6.217,0.5-9.85,1.3l-1.65,0.05l-8,2l2.35-0.7l-0.85,0.05
		c-0.167,0-0.167-0.033,0-0.1l5.6-1.35v-0.15l-5.05,1.2l-0.05,0.05L-203.5-11l-0.3,0.05l-0.7,0.4l0.1-0.25l-1.65,0.35
		c-0.3,0.033-0.267-0.017,0.1-0.15l2.4-0.8c1.967-1.4,4.017-2.6,6.15-3.6l-0.45,0.1l-1.05,0.55l1-0.55l-4.8,1.15l-1.35,0.7l1.1-0.65
		l-0.4,0.1l-0.85,0.1l-0.8,0.35l-5.85,4.4l4.95-4.05l0.2-0.2l0.2-0.15l-6.95,2.3l7.6-2.7l4.55-2.65l-5.8,0.9l-0.15-0.05l-5.85,3.55
		c1.633-1.267,3.433-2.45,5.4-3.55l-1.15,0.15l-8.3,2l2.45-0.75c0.267-0.067,0.133-0.067-0.4,0c-0.6,0.067-0.75,0.05-0.45-0.05
		l5.8-1.35v-0.15L-215-14l-0.45,0.15c-2.567,0.633-3.417,0.75-2.55,0.35l3.6-1.05l3.2-2.9l-0.6,0.15l-2.15,0.85l1.75-0.75
		l-3.05,0.75l-0.9,0.05l-7.3,2.25l-1,0.9l0.85-0.9l-1.8,0.65l1.95-0.75l2.9-2.75l-1.45,0.7l1.75-0.9
		c4.433-3.667,9.817-6.683,16.15-9.05c4.6-1.667,9.933-3.083,16-4.25l0.2-0.2l0.15-0.1l-6.7,1.4c-3.233,0.5-6.167,1.317-8.8,2.45
		l-1.5,0.35c-1.867,0.7-4.167,1.8-6.9,3.3l2-1.15c0.233-0.133,0.1-0.1-0.4,0.1c-0.467,0.167-0.6,0.183-0.4,0.05
		c1.567-0.9,3.183-1.667,4.85-2.3l-0.05-0.15l-5.55,2.7c-2.233,1.067-2.967,1.333-2.2,0.8c2.267-1.433,5.1-2.85,8.5-4.25h-0.25
		c2.967-1.233,6.133-2.35,9.5-3.35v-0.1l-1.5,0.45l-0.1-0.3l8.15-2.15l0.9-0.55h-0.05l-0.05-0.2l-9.95,2.3l-0.05-0.15l2.3-0.7
		l-3.85,0.95c-1.2,0.233-2.933,0.8-5.2,1.7l-6.6,3c-0.433,0.233-0.7,0.3-0.8,0.2l-7.6,4.45c9.133-6.5,20.933-11.1,35.4-13.8
		l0.85-0.15c5.533-2.733,11.55-4.55,18.05-5.45l1.8-0.4l1.9-0.15c-0.7-0.1-0.5-0.2,0.6-0.3c5.567-0.5,11.117-0.433,16.65,0.2
		l6.05,0.45v-0.1l1.8,0.15v0.15l1.2,0.1v0.15l3.55,0.05v0.15c1.2,0.1,2,0.1,2.4,0v0.15l0.6-0.15h1.85l0.5-0.05l8.25-0.25l-0.4,0.35
		c-0.167,0.1-0.017,0.167,0.45,0.2l8.3-0.05c1.533-2.467,3.067-4.367,4.6-5.7c0.833-0.6,1.65-1.217,2.45-1.85
		c0.9-0.4,1.55-0.717,1.95-0.95l4-1.65l10.3-2.35c5.667-1.4,11.05-2.233,16.15-2.5l12.95,0.7c3.533,0.267,5.95,0.6,7.25,1
		c6.633,2.1,12.333,3.567,17.1,4.4c5.6,0.967,11.683,1.417,18.25,1.35h20.1l17.85-1.7c6.267-0.9,12.417-2.567,18.45-5
		c0.667-0.267,2.45-0.6,5.35-1c1.767-0.333,0.95-0.633-2.45-0.9h-1.9L38.8-55.9c-1.8,0.4-2.917,0.083-3.35-0.95
		c1.233-0.033,2.683-0.4,4.35-1.1c1.867-0.767,3.233-1.217,4.1-1.35l3.85-0.5l3-0.9c-0.567-1.367-1.533-2.317-2.9-2.85l4.8,0.55
		c0.5,0.067,0.133-0.667-1.1-2.2c0.567-0.133,1.117-0.033,1.65,0.3c0.6,0.433,1.083,0.65,1.45,0.65l4.8-0.5l4.65,0.25L59.35-65.85z"
		/>
</g>
</svg>
