<?xml version="1.0"?>
<!DOCTYPE svg PUBLIC "-//W3C//DTD SVG 1.1//EN" "http://www.w3.org/Graphics/SVG/1.1/DTD/svg11.dtd">
<svg version='1.1' width='407px' height='222px' xmlns='http://www.w3.org/2000/svg' xmlns:xlink='http://www.w3.org/1999/xlink'>
	<g transform="translate(225.2,118.6)">
		<path d="M -110.85 -30.3 L -110.6 -31.55 L -110.8 -31.4 L -111.25 -30.35 L -112.45 -29.1 Z M -113.25 -38.2 Q -113.6 -38.25 -114.2 -37.65 L -113.5 -37.75 L -112.3 -38.55 L -112.5 -38.55 Z M -104.75 -44.1 L -104.1 -44.7 L -112.9 -43.65 Z M -193.25 -18.4 L -193.45 -18.3 L -195.05 -18.05 L -199.3 -16.3 L -194.45 -17.4 L -191.9 -18.45 Z M -200.95 -13.25 L -199.5 -13.6 L -198.8 -14.05 Q -198.45 -14.25 -199.2 -13.95 Q -200 -13.6 -199.65 -13.85 L -194.55 -16.6 L -194.6 -16.75 Z M -205.9 -18.1 L -201.9 -18.85 Q -199.45 -20.1 -197.05 -20.95 L -197.1 -20.95 L -197.15 -21.15 L -196.1 -21.35 L -196 -21.4 L -202.05 -20.85 L -205.9 -18.1 L -204 -19.55 Q -203.7 -19.8 -204.4 -19.45 Q -205.1 -19.1 -204.8 -19.35 L -202.85 -20.7 L -203.15 -20.65 L -207.2 -17.85 L -207.3 -17.85 L -207.7 -17.6 L -205.2 -18.1 L -206.15 -18.05 Z M -196 -19.95 L -196.05 -20.2 L -192.55 -20.8 L -189.9 -21.75 L -195.15 -21.2 L -200.35 -19.15 L -194.5 -20 L -194.15 -20.15 L -194.15 -20.2 Z M -190.15 -17.75 L -192 -17 L -193.6 -16.6 Q -196.3 -15.55 -199.35 -13.65 L -193.3 -15 L -193.85 -15 Q -187.1 -16.45 -182.25 -16.6 L -182.25 -16.7 L -184.05 -16.65 L -184.1 -16.9 Q -181.75 -17.35 -176.9 -16.95 L -180.95 -17.85 L -185.05 -17.75 L -185.1 -17.95 L -183.1 -18.1 Z M -191.05 -20.85 L -189.5 -20.9 L -187 -21.55 L -188 -21.65 Z M -189.15 -23.5 L -189.45 -23.5 L -200 -22.05 L -201.05 -21.45 L -191.65 -22.8 L -191.5 -22.8 Z M -185.7 -22.85 L -186.45 -23.05 L -187.25 -22.9 Z M -185.65 -23.25 L -186.15 -23.15 L -184.7 -23.05 L -184.3 -23.15 Z M -189.7 -26.3 L -192.15 -25.45 L -187.2 -26.1 Z M -188.9 -26.5 L -189.2 -26.45 L -186.05 -26.25 Q -185.15 -26.35 -185.8 -26.35 L -186.55 -26.5 L -187.6 -26.55 L -187.65 -26.75 L -188.45 -26.7 Z M -187.95 -30.05 L -188.25 -29.95 L -186.7 -29.9 Q -186.3 -29.9 -186.7 -30.1 L -187 -30.15 Z M -185.8 -31.6 L -180.8 -31.95 L -186.4 -32.2 L -189.05 -31.8 L -188.25 -31.9 Z M -185 -35.15 L -185.05 -35.35 L -187.35 -35.1 L -188.4 -34.3 L -183.3 -35.2 Z M -206 -21.8 L -199.4 -23.55 Q -198 -24.35 -195.1 -25.75 L -198 -25.2 L -198.05 -25.3 L -202.2 -24.25 Z M -162.95 -33.05 Q -162.75 -33.1 -163 -33.25 L -164.25 -33.35 L -164.25 -33.55 L -167.35 -33.9 Z M -175.3 -35.5 Q -175.85 -35.75 -175.45 -35.7 L -172.6 -35.05 L -173.45 -35.35 L -180.55 -37.05 L -184.45 -36.65 L -184.8 -36.5 L -180.45 -36.6 Z M -207.85 -17.6 L -207.75 -17.75 L -207.65 -17.8 L -204.2 -20.45 L -209.6 -19.35 L -213.35 -16.25 Z M -211.1 -19.5 L -210.3 -19.65 L -208.9 -20.15 L -208.65 -20.35 Z M -208.95 -22.95 L -209 -22.9 L -212.25 -21.8 L -213.05 -21.7 L -220.1 -18.7 L -223.95 -15.55 L -217.3 -17.85 Q -213.35 -20.85 -208.4 -23.05 Z M -209.5 -21.9 L -209.55 -22.05 Q -213.1 -20.25 -215.9 -18.35 L -216.2 -18.15 L -214.85 -18.5 L -214.15 -19 Q -213.8 -19.25 -214.6 -18.85 Q -215.45 -18.45 -215.1 -18.75 Z M -206 -21.05 L -206.05 -21.2 L -208.05 -20.55 L -208.3 -20.35 Z M -205.15 -20.95 L -207.5 -20.25 L -203.3 -21.05 L -202.85 -21.35 L -203.6 -21.15 Z M -207.3 -21.35 L -207.25 -21.4 L -204.1 -23.6 L -206.75 -22.5 Q -206.85 -22.75 -208.5 -22 Q -211.35 -20.75 -214.75 -18.55 L -213.8 -18.8 Q -211.1 -20.05 -207.55 -21.15 Z M -202.65 -27.4 Q -204.9 -26.95 -208.85 -25.15 Q -213.05 -23.25 -216.55 -21 Q -217.45 -20.4 -217.45 -20.6 L -219.9 -18.85 Q -213.2 -22.25 -205.4 -24.5 L -197.65 -27.15 L -197.7 -27.2 L -199.5 -26.7 L -199.55 -27 L -195.65 -28.1 L -191.45 -30 L -200.75 -27.55 L -200.8 -27.75 L -198.05 -28.55 Z M 60 41.4 Q 54.1 37.35 51.4 37.4 L 48.3 38.5 Q 47.85 39.4 47.9 41.1 Q 47.95 43.25 46.4 47.9 L 41.4 61.75 Q 38.25 71.2 38.35 76.05 Q 38.5 75.65 39.65 74.55 L 40.9 73 Q 40.35 72.2 40.45 71.65 Q 40.55 71.2 41.2 70.5 Q 45.6 68.85 47.35 67.65 Q 48.85 66.6 50.95 63.85 L 54.65 58.65 Q 59.75 52.8 61.45 49.75 Q 64.4 44.45 60 41.4 Z M 88.95 -99.2 L 89.8 -99.55 Q 89.4 -99.85 90.45 -100.75 Q 91.5 -101.65 90.95 -102.2 Q 92.65 -102.2 94 -101.6 Q 93.5 -102.7 94.95 -104.2 Q 96.6 -105.05 98.5 -105.55 L 103.25 -106.25 L 104.15 -106.3 L 105.3 -106.6 Q 108.75 -107.45 110.25 -108.7 L 111.15 -108.9 L 112.95 -108.95 L 112.6 -110.3 Q 111.8 -114.05 112 -116.25 Q 112.2 -118.6 113.55 -118.6 Q 115.25 -118.55 119.95 -113 Q 120.75 -112.9 122.45 -111.3 Q 123.85 -110.85 125.15 -109.25 Q 127.1 -108.4 129.05 -109.9 L 130 -107.55 Q 130.5 -105.8 130.95 -105.2 Q 131.35 -107.5 131.5 -107.8 Q 132 -109 133.2 -107.9 Q 134 -107.15 134.65 -105.8 L 135.75 -103.4 L 136.6 -103.1 Q 137.3 -103.2 138.7 -101.35 Q 139.7 -99.95 140.15 -101.25 Q 140.55 -100.55 142.7 -98.4 Q 144.4 -96.75 144.6 -94.9 Q 147.85 -91.05 149.7 -89.4 L 154.35 -84.05 L 159.5 -76.15 Q 163.75 -68.85 170.55 -61.8 Q 175.55 -57.85 176.95 -56.25 Q 179.4 -53.55 180.75 -49.25 L 181.2 -47.1 Q 181.3 -45.6 180.85 -45.1 Q 180.1 -44.4 180.2 -42.4 Q 180.35 -40.35 179.85 -39.75 L 178.35 -37.55 Q 177.4 -36.35 176.25 -36.2 L 169 -34.9 L 162.75 -35.5 Q 161.4 -36.75 160.9 -37.9 L 160.3 -38.9 L 159.7 -39.45 L 149.4 -45.5 Q 147.25 -46.45 144.4 -48.15 Q 142.05 -49.55 140.45 -50.05 Q 135.3 -51.7 128.85 -52.9 Q 125.6 -53.55 123.05 -54.7 Q 118.4 -53.7 114.05 -50.65 Q 110 -47.85 107.45 -44.15 L 95.85 -25.35 Q 94.45 -22.9 93.35 -21.6 L 83.95 -12.2 L 82.1 -8.45 Q 80.65 -5.5 78.7 -0.2 L 70.95 20.4 Q 68.35 26.35 65.2 29.1 L 70.05 33.3 Q 72.85 35.85 73.65 38.5 Q 74.85 42.55 73.65 50.7 L 64.55 61.1 Q 59.45 67.1 56.5 72 L 55.35 75 Q 54.65 76.95 53 78.9 Q 51.8 80.3 49.25 81.25 Q 46.1 82.45 45.2 83.05 L 39.1 86.5 Q 35.8 88.5 32.5 91.05 Q 29.85 92.65 24.8 93 Q 23.65 93.1 21.3 92.3 L 17.3 91.1 L -5.25 89.25 Q -6.75 87.05 -10.2 85.7 Q -11.65 85.15 -16.8 83.9 Q -25.5 81.7 -26.85 77 Q -25.5 72.8 -21.3 70.4 Q -17.1 68 -13.7 69.5 Q -9.9 71.15 -7.95 73.2 Q -5.8 75.45 -5.25 78.9 Q -3.7 79.5 -3.35 77.95 Q -3 76.45 -1.5 77 Q 2 78.25 8.65 80.95 Q 14.8 82.95 21.05 82.65 Q 23.55 79.7 23.55 74.05 L 22.9 64.8 L 23.8 50.05 Q 24.15 40.7 20.3 37.7 L 18.2 36.8 Q 13.3 34.85 0.7 30.75 Q -10.25 27.2 -11.85 26.3 Q -22.45 20.2 -29.7 16.9 Q -31.55 20.6 -33.2 22.5 L -39.1 28.2 Q -41 30.1 -43.75 31.95 Q -46.35 33.65 -56.9 38.5 Q -57.7 38.8 -61.5 41.45 Q -65.6 44.3 -67.25 45.1 Q -68 49.1 -65.1 52.15 Q -63.5 53.85 -59.75 56.35 Q -55.3 59.85 -49.95 63 L -43.85 66.4 Q -43.25 66.85 -43.15 67.55 L -42.85 68.55 L -37.65 73.45 Q -35.25 76.15 -35.3 79.85 Q -31.55 83 -29.45 91.1 Q -27.3 99.4 -29.7 103.3 Q -36.85 101.25 -39.9 98.95 Q -44.45 95.55 -44.65 89.3 Q -44.6 88.85 -43.4 88.3 L -41.7 87.35 Q -40.9 86.45 -41.7 86.05 Q -42.5 85.7 -43.75 86.55 Q -44.35 87.2 -45.8 90.1 L -47.65 94 Q -49.5 96.8 -52.25 96.75 Q -58.3 92.45 -57.85 81.7 Q -58.05 80.7 -55.5 78.1 Q -53.6 76.25 -56 76.1 Q -56.8 76 -57.25 74.85 Q -57.75 73.75 -57.65 72.65 L -66.95 66.4 Q -73.35 61.9 -76.65 60.1 Q -78.05 59.35 -86.35 55.9 Q -92.35 53.4 -95.45 50.7 Q -96.1 50.2 -96.25 47.65 Q -96.45 44.95 -95.45 44.15 L -88.7 39.55 Q -86.4 38.1 -85.5 36.8 Q -82.6 29.65 -81.65 23.4 Q -81.1 19.7 -81.35 17.85 Q -81.5 16.55 -90.7 9.85 Q -101.15 2.15 -105.05 -3.6 Q -108.65 -8.85 -110.2 -15.3 Q -111.75 -21.55 -111.15 -28 L -111.9 -27.2 Q -115.7 -23.45 -121.1 -20.25 Q -126.55 -17.05 -131.65 -15.55 L -133.55 -15.05 Q -143.75 -9.65 -153.05 -10.55 Q -157.4 -10.95 -164.6 -12.4 L -175.55 -14.45 L -181.35 -14.8 L -193.65 -14.05 L -202.35 -11.9 L -199.8 -12.7 Q -199.35 -12.85 -200.25 -12.7 Q -201.1 -12.6 -200.7 -12.75 L -194.6 -14.2 L -194.65 -14.3 L -200.5 -12.9 L -200.85 -12.7 L -200.55 -12.9 L -202.35 -12.45 Q -203.05 -12.1 -202.85 -12.3 Q -205.25 -11.8 -204.3 -12.2 L -202.1 -12.9 Q -199.2 -15.05 -195.55 -16.7 L -196 -16.6 L -197.1 -16.1 L -196.1 -16.6 L -201.15 -15.4 L -202.3 -14.8 L -201.35 -15.35 L -201.4 -15.35 L -202.35 -15.3 L -202.65 -15.2 L -203.5 -14.8 L -209.65 -10.15 L -204.25 -14.55 L -204.1 -14.75 L -204.05 -14.8 L -212.1 -12.1 Q -208.05 -13.85 -203.35 -15.2 L -202.75 -15.55 Q -200.8 -16.85 -198.65 -18 L -204.05 -17.15 L -204.7 -17.2 L -211 -13.35 L -205.2 -17.15 L -205.9 -17.05 L -214.9 -14.9 L -212.25 -15.7 Q -211.8 -15.85 -212.75 -15.7 Q -213.65 -15.6 -213.25 -15.75 L -206.9 -17.2 L -206.95 -17.35 L -214.05 -15.65 L -214.15 -15.6 L -216.9 -15 Q -217.65 -14.9 -216.95 -15.15 L -213.4 -16.25 L -210 -19.25 L -210.8 -19.1 L -212.6 -18.35 L -211.2 -19 L -213.9 -18.35 L -214.9 -18.3 L -215.3 -18.15 L -216.4 -17.4 L -215.45 -18.1 L -216.9 -17.7 L -218.4 -16.8 Q -218.75 -16.6 -218.35 -17 L -217.8 -17.45 L -224 -15.45 L -225.2 -14.3 L -224.2 -15.4 L -224.95 -15.15 L -224.15 -15.45 L -220.95 -18.25 L -221.35 -18.1 L -220.9 -18.3 Q -214.7 -23.35 -206.5 -26.65 Q -201.3 -28.65 -195.55 -30.15 L -190.45 -31.6 L -196.2 -31.1 L -201.4 -29.35 L -203 -29 Q -206.4 -27.65 -209.3 -26.1 L -208.25 -26.7 Q -207.9 -26.9 -208.65 -26.6 Q -209.45 -26.35 -209.1 -26.55 L -203.9 -28.95 L -203.95 -29.1 Q -207.1 -27.8 -209.9 -26.3 Q -213.75 -24.35 -212.25 -25.45 Q -209.8 -27.1 -203.15 -29.9 L -203.4 -29.9 Q -197.4 -32.55 -193.15 -33.1 L -193.2 -33.25 L -194.8 -32.95 L -194.9 -33.2 L -188.75 -34.25 L -187.8 -35.05 L -195.9 -33.95 L -195.9 -34.15 L -194.3 -34.45 L -197.75 -33.95 L -203.3 -32.1 L -210.35 -28.95 Q -211.2 -28.55 -211.2 -28.75 L -219.3 -24 Q -203.3 -35.3 -185.7 -36.45 L -184.6 -37.05 Q -183.5 -37.6 -181.9 -37.6 L -175.8 -36.4 Q -167.95 -34.8 -161.05 -34.85 L -157.35 -35.05 Q -158.35 -35.2 -156.7 -35.35 L -148.2 -36.05 L -134 -38.25 L -134.05 -38.4 L -133.35 -38.5 L -132.2 -38.8 L -132.2 -38.65 L -130.95 -38.9 L -130.95 -38.75 Q -128.5 -39.35 -127.35 -39.85 L -127.3 -39.7 L -126.1 -40.05 Q -125.25 -40.3 -124.9 -40.5 L -124.9 -40.35 Q -124.895 -40.5016 -124.3 -40.7 L -113.75 -44.1 L -103.9 -44.9 L -93.4 -54.3 Q -91.65 -55.7 -77.6 -62.95 L -73.65 -64.9 Q -67.35 -66.6 -61.6 -66.7 L -50.35 -65.75 L -43 -63.8 Q -38.2 -62.3 -35.3 -62 Q -32.45 -61.7 -26.75 -61.9 Q -20.35 -62.15 -17.45 -62 L 0.45 -60 L 17.3 -59.2 Q 27.05 -59.95 33.25 -61.05 Q 34.15 -61.3 33.65 -62.05 Q 33.2 -62.75 32.3 -62.95 Q 34.8 -63.3 36.45 -62.9 L 38.9 -62.95 Q 39.75 -62.9 39.45 -63.5 Q 39.1604 -64.0793 38.975 -63.925 Q 39.609 -64.5027 40.45 -64.75 L 41.3 -64.85 Q 41.6 -65.45 43 -65.3 Q 44.4 -65.1 44.95 -66.2 L 42.1 -65.95 Q 40.6 -65.95 39.95 -67.2 Q 41.65 -68.05 45.3 -68.15 L 46.95 -68.15 L 44.95 -68.2 L 45.75 -68.75 L 51.95 -69.2 Q 50.6 -70.55 48.95 -70.95 L 45.95 -71.2 Q 47.35 -72.6 50.95 -71.8 Q 54.35 -71.1 55.95 -73.2 L 51.95 -73.3 L 48.1 -74.15 L 52.95 -74.35 L 57.75 -75.4 L 59.55 -75.5 L 68.95 -75.25 L 69.9 -75.15 Q 70.35 -75.7 70.2 -76.1 L 69.45 -76.6 Q 68.4 -77.7 65.15 -77.85 Q 62.5 -78 61.95 -80.2 Q 64.35 -77.8 67.4 -78.65 L 72.55 -80 L 74.35 -79.85 L 78.6 -80.4 L 79.75 -80.7 L 81.9 -81.5 L 83.45 -82.3 L 84.05 -82.7 Q 84.45 -82.5 84.75 -83.15 L 85.3 -84.2 L 82.85 -84.45 Q 81.7 -84.45 81.3 -83.5 L 79.55 -83.25 L 75.95 -83.2 L 83.95 -88.4 Q 86.15 -89.8 87.95 -89.2 Q 87.95 -91.7 86.1 -91.7 L 81.95 -91.2 L 85.1 -93.2 Q 87.05 -94.1 88.95 -92.2 Q 89.4 -93.05 88.9 -93.4 Q 88.15 -93.7 87.7 -93.95 Q 86.95 -94.4 86.95 -95.15 L 89.5 -94.8 L 94.3 -94.85 L 95.3 -95.15 L 95.7 -95.65 L 97.15 -96.9 L 97.65 -97.45 Q 96 -99.15 94.45 -99.65 Q 92.4 -100.35 91.3 -98.65 L 90.55 -98.6 Q 89.75 -98.7 88.95 -99.2 Z" fill="#FAF643"/>
	</g>
</svg>
