<?xml version="1.0" encoding="utf-8"?>
<!-- Generator: Adobe Illustrator 17.0.0, SVG Export Plug-In . SVG Version: 6.00 Build 0)  -->
<!DOCTYPE svg PUBLIC "-//W3C//DTD SVG 1.1//EN" "http://www.w3.org/Graphics/SVG/1.1/DTD/svg11.dtd">
<svg version="1.1" id="图层_1" xmlns="http://www.w3.org/2000/svg" xmlns:xlink="http://www.w3.org/1999/xlink" x="0px" y="0px"
	 width="399px" height="228px" viewBox="0 0 399 228" enable-background="new 0 0 399 228" xml:space="preserve">
<g transform="translate(214.55,122.405)">
	<path fill="#FFFC00" d="M-100.85-34.35l0.1-0.15l-1.45,0.9l-0.35,0.45c0.433-0.267,0.85-0.55,1.25-0.85L-100.85-34.35z
		 M-99.3-37.65l0.25-0.5l-0.75,0.6l-0.4,0.2L-99.3-37.65z M-173.45-21.35v-0.2l-5-0.15l-0.75,0.15l-0.75-0.05l-2.45,0.55l7.55,0.1
		c2.767-0.067,3.783-0.2,3.05-0.4H-173.45z M-190.35-11.15l-0.75-0.15l-2,0.55L-190.35-11.15z M-189.25-10.4
		c0.267-0.033,0.133-0.067-0.4-0.1c-0.533,0-0.667-0.033-0.4-0.1l1.6-0.2l-0.4-0.05l-3.95,0.35l2.95,0.15L-189.25-10.4z
		 M-185.2-10.05l-2-0.45l-2.3,0.2L-185.2-10.05z M-185.55-11.65l0.55,0.1l1.15-0.05v-0.1L-185.55-11.65l1.9-0.1v0.05l3.6-0.15
		l-2.75-0.45l-4.05,0.4l1.25,0.25H-185.55z M-200.5-16.5l2.25-0.95l-4.6,0.8L-200.5-16.5z M-202.05-15.55l2.4-0.05
		c0.267,0,0.133-0.05-0.4-0.15c-0.533-0.1-0.667-0.167-0.4-0.2l1.95,0.1l-2.6-0.25L-202.05-15.55l-2.35,1.35l3-1.9l-2.25-0.05
		c-0.367-0.033-0.367-0.1,0-0.2l0.9-0.1h-0.8l-1.15,0.4l1-0.4l-1.75,0.05l-1.35,0.4l0.15-0.2l0.35-0.15l-6.5,0.8l-1.75,1.35l1.5-1.3
		l-0.6,0.1l0.65-0.15c1.367-1.067,2.717-1.933,4.05-2.6l-1.8,0.45l2.15-0.65c2.467-1.2,5.35-2.017,8.65-2.45l-2.75-0.15
		c2.467-0.433,6-0.5,10.6-0.2l-0.6-0.2l7.6,0.55l1.6-0.3v-0.05l0.2,0.05l3.25-0.7l-4.2-0.3v-0.25l2,0.15l-9.4-1.15l-7.85-0.15
		l-0.85-0.15c-4.033,0.333-7.25,0.833-9.65,1.5c3.1-1,6.6-1.583,10.5-1.75l25.25,0.95L-150-26.5c-0.333-0.033-0.4-0.083-0.2-0.15
		l10.65-2l8.75-1.1l6.55-1.55l-0.05-0.15l0.75-0.15l1.25-0.4l0.05,0.1l1.3-0.3l0.05,0.1c2-0.7,3.283-1.183,3.85-1.45l0.05,0.15
		c1.3-0.433,2.15-0.8,2.55-1.1l0.05,0.15l0.6-0.4l8.35-3.45c1.333-0.467,2.417-0.917,3.25-1.35l-0.35,0.5L-102-39l1.15-0.4l0.45-0.1
		l0.8-0.35l1.45-0.35l0.05-0.05l0.75-0.3l0.15-0.1c0.333-0.467,0.667-0.717,1-0.75l0.55-0.2l-0.1-0.1l0.2-0.05l0.05,0.1h0.05
		c2.267-1.4,4.95-3.417,8.05-6.05l7.6-6.35c6.233-4.767,12.783-7.35,19.65-7.75c3.833-0.2,8.633,0.317,14.4,1.55l13.95,2.9
		l26.55,1.75c4.533,0.367,9.1,0.25,13.7-0.35c4.733-0.633,9.033-1.7,12.9-3.2c1.3-0.5,4.067-1.917,8.3-4.25
		c3.433-1.9,6.517-3.167,9.25-3.8l1.2-0.25l3.4-0.25c1.633,0.067,2.8-0.083,3.5-0.45c0.3-0.3,0.017-0.8-0.85-1.5
		c-0.833-0.633-0.883-1.133-0.15-1.5l4.95,0.05c1.667,0,2.933-0.617,3.8-1.85L55.4-74l0.9-0.25c0.233-0.167,0.133-0.467-0.3-0.9
		c-1.333,0-2.267,0.25-2.8,0.75l-0.7,0.35l-0.65,0.15L51.1-74c-0.833-0.833-1.217-1.383-1.15-1.65c0.067-0.267,0.467-0.367,1.2-0.3
		l0.95,0.1l4.6-0.4l1.05-0.2c0.967-0.767,2-1.283,3.1-1.55l1.1-0.2c0.9-0.267,2.583-0.267,5.05,0c2.3,0.233,4.033,0.067,5.2-0.5
		l0.8-0.45c0-0.233,0.317-0.483,0.95-0.75l0.7-0.35c0.133-0.8-0.117-1.367-0.75-1.7l-1.4-0.45l-1.15,0.3l-1.8-0.15
		c-0.6-0.167-1.117-0.467-1.55-0.9l3-0.15l0.7-0.15c3.233-0.5,6.033-1.35,8.4-2.55l0.9-0.5c0-0.267,0.2-0.467,0.6-0.6l1.25-0.5
		l0.65-0.15l0.85-0.35l0.75-0.65l-0.15-1.2l-0.65-0.2l-1.2,0.1l-3.55,1.5c-1.333,0.633-2.517,0.767-3.55,0.4
		c1.5,0,2.85-0.283,4.05-0.85c0.933-0.433,2.017-1.183,3.25-2.25L84.1-92c3.167-1.733,6.8-3.117,10.9-4.15l-2.5-0.35l-2,0.3
		c0.567-0.1,1.233-0.417,2-0.95c1-0.667,1.833-1,2.5-1l0.6-0.15l1,0.25l1.1-0.15l2.75-1.05c0.367-0.167,0.55-0.467,0.55-0.9
		c0-1.2-0.383-1.883-1.15-2.05c1.867-0.6,3.15-0.9,3.85-0.9l2.8-0.05l0.75,0.4l0.75,0.6l-1.15-1.2c-0.367,0.1-0.617-0.05-0.75-0.45
		l-0.2-1.25l2.4-0.8c2.133-0.767,4.617-2.183,7.45-4.25l1-0.65c0.333-0.133,0.6-0.133,0.8,0l0.2,0.25l0.2,2.1
		c0.1,0.6,0.35,1.15,0.75,1.65c-0.567-2.267-0.75-5.217-0.55-8.85c0.233-4.233,1-6.5,2.3-6.8c0.467-0.1,1.5,1.3,3.1,4.2
		c1.9,3.467,3.4,5.7,4.5,6.7l0.15-2.25c0.1-1.933,0.5-3.25,1.2-3.95c0.467-0.6,1.133,0.3,2,2.7c1.033,2.8,1.85,4.3,2.45,4.5
		c0.8-0.1,1.933,0.917,3.4,3.05c0.3-0.167,0.7-0.017,1.2,0.45l1.4,2l1,2.25l0.85,0.25c0.4-0.067,1.033,0.483,1.9,1.65
		c0.667,0.9,1.15,0.933,1.45,0.1c0.233,0.5,1.033,1.4,2.4,2.7c1.033,1.033,1.617,2.133,1.75,3.3l7.35,7.8l6.7,9.85
		c2.567,4.5,6.05,9.033,10.45,13.6l6,5.2c1.533,1.7,2.733,3.9,3.6,6.6l0.45,2.05c0.067,0.933-0.05,1.55-0.35,1.85
		c-0.467,0.467-0.667,1.333-0.6,2.6c0.1,1.267-0.017,2.083-0.35,2.45L181-40.7c-0.567,0.767-1.217,1.2-1.95,1.3l-6.85,1.2l-5.9-0.55
		c-0.833-0.767-1.4-1.517-1.7-2.25l-0.6-0.9l-0.55-0.55l-1.9-1.2c-0.9-0.433-1.533-0.783-1.9-1.05l-3.4-2
		c-1.533-0.9-2.367-1.383-2.5-1.45c-1.367-0.6-2.933-1.433-4.7-2.5c-1.5-0.9-2.733-1.5-3.7-1.8l-11-2.7
		c-1.833-0.333-3.65-0.883-5.45-1.65c-0.967-0.367-3.083-1.433-6.35-3.2l-3.8-0.05c-2.3,0.4-4.367,2.183-6.2,5.35l-3.5,7.05
		l-1.8,5.35l-4.95,9.5c-2.067,3.9-3.367,7.217-3.9,9.95c-0.2,1.1-0.233,2.6-0.1,4.5c0.167,2.067,0.2,3.533,0.1,4.4
		c-0.133,1.033-0.583,2.633-1.35,4.8c-0.733,2.167-1.167,3.8-1.3,4.9l-1,8.9c-0.467,3.267-1.017,5.917-1.65,7.95
		c2.2,2.267,5.15,4.933,8.85,8l12.85,10.45c0.967,0.867,1.7,1.8,2.2,2.8c0.967,1.933,1.55,4.3,1.75,7.1
		c0.1,1.2-0.367,2.617-1.4,4.25c-1.3,2.1-2.083,3.617-2.35,4.55c-0.767,2.8-1.317,6.583-1.65,11.35l-0.8,12.6
		c-2.4,1.833-3.9,3.1-4.5,3.8c-0.667,0.733-1.883,2.583-3.65,5.55c-0.3,0.5-1.233,2.783-2.8,6.85c-1.633,3.7-3,5.383-4.1,5.05
		c-2.4-0.767-4.233-2.833-5.5-6.2c-1.167-3.2-1.4-6.15-0.7-8.85c0.367-1.533,1.817-2.6,4.35-3.2c3-0.7,4.8-1.4,5.4-2.1
		c0.633-1.133,0.633-2.317,0-3.55c-0.8-1.533-1.1-3-0.9-4.4c3.533-6.833,5.617-11.2,6.25-13.1c1.967-5.8,1.95-10.883-0.05-15.25
		c-3.8-1.867-9.183-3.267-16.15-4.2l-18.35-2c0.667,2.267,1.167,5.467,1.5,9.6c0.367,4.7,0.75,7.983,1.15,9.85
		c0.233,1.167,0.9,2.983,2,5.45c0.867,2.533,1.083,5.15,0.65,7.85l-1.8,5.3c-0.8,1.267-2.5,2.567-5.1,3.9c-3,1.4-5.1,2.45-6.3,3.15
		c-1.5,0.867-4.1,2.85-7.8,5.95l-7.7,6.45c-0.867,0.667-1.633,0.983-2.3,0.95c-2-0.1-4.783-0.667-8.35-1.7
		c-3.4-0.967-5.667-1.433-6.8-1.4l-5.25,0.45l-4.5-0.2L16.9,87c0.1-1.2,0.55-2.467,1.35-3.8c0.967-1.6,2.25-3.183,3.85-4.75
		c1.967-1.967,3.783-3.25,5.45-3.85c1.5,0.4,3.15,1.567,4.95,3.5c1.8,1.967,3.4,3.167,4.8,3.6c1.3,0.167,2.25-0.367,2.85-1.6
		c0.833-1.733,1.35-2.683,1.55-2.85c4.333,0.333,9.2-1.1,14.6-4.3c5.3-3.133,8.117-6.117,8.45-8.95c0.233-2.233-0.867-5-3.3-8.3
		c-3.1-3.767-5.25-6.617-6.45-8.55L48.95,36.4c-1.467-2.8-2.7-4.833-3.7-6.1c-19.267-1.167-33.367-2.4-42.3-3.7
		c-15.5-2.233-27.967-5.717-37.4-10.45c0,3.567-0.083,6.533-0.25,8.9c-0.267,3.567-0.783,7.1-1.55,10.6l-1.5,4.3
		c-0.933,2.7-1.417,4.317-1.45,4.85c-0.2,4.9,1.4,9.9,4.8,15c3.1,4.633,7.217,8.683,12.35,12.15l3.55,2.65l5.25,2.65
		c2.4,1.133,4.017,2.117,4.85,2.95c0.7,0.7,1.2,1.867,1.5,3.5c0.3,1.533,0.85,2.633,1.65,3.3c4.367,3.667,7.683,6.867,9.95,9.6
		c2.967,3.567,3.783,5.983,2.45,7.25c-1.5,1.4-4.4,1.867-8.7,1.4c-4.233-0.467-7.233-1.533-9-3.2V93.2
		c-0.633-2-1.383-2.75-2.25-2.25c-1.6,0.967-2.617,1.417-3.05,1.35l-2.8-4.15c-1.133-1.7-2.267-2.967-3.4-3.8
		c1.467,3.633,2.383,6.983,2.75,10.05c0.333,2.8,0.3,6.233-0.1,10.3c-3.333,0.7-6.567-0.267-9.7-2.9c-2.667-2.233-4.75-5.1-6.25-8.6
		c0-0.9,0.583-1.933,1.75-3.1c1.033-1.033,1.333-2.367,0.9-4c-0.267-0.5-0.9-0.617-1.9-0.35c-1.167,0.333-2.1,0.217-2.8-0.35
		l-3.2-3.5c-1.6-1.867-3.033-3.267-4.3-4.2c-3.033-2.267-6.767-4.633-11.2-7.1l-5.8-3.1c-1.4-0.833-3.1-1.767-5.1-2.8
		c-1.967-0.967-3.517-1.8-4.65-2.5l-5.1-3c-1.667-1.167-2.633-2.533-2.9-4.1c-0.233-1.533,0.65-3.617,2.65-6.25
		c2.233-3,3.417-4.75,3.55-5.25c0.9-3.533,1.517-6.283,1.85-8.25c0.6-3.567,0.583-5.833-0.05-6.8c-1.167-1.767-2.533-3.317-4.1-4.65
		l-14.5-9.55c-2-1.567-4.483-4.85-7.45-9.85c-2.833-4.8-4.783-8.883-5.85-12.25c-1-3.167-1.167-7.083-0.5-11.75
		c-5,4.667-9.6,8.05-13.8,10.15l-2.1,0.85c-6.733,4.2-13.417,6.117-20.05,5.75l-12.2-1.9l-11.2-1.25l-17.05-0.05l-1.85-0.35
		l-9.3-0.55l2.8,0.1c0.3,0,0.15-0.05-0.45-0.15c-0.633-0.133-0.783-0.2-0.45-0.2l6.5,0.4v-0.15l-7.45-0.45
		c-3.2-0.3-4.1-0.483-2.7-0.55l11.65,0.65l-0.55-0.15l12.05-0.45l-0.05-0.15l-1.8,0.2l-0.05-0.3h0.15l-9.4-0.95l-0.7-0.2l-7.7,1
		l2.4-0.55c0.267-0.067,0.133-0.083-0.4-0.05c-0.567,0-0.717-0.033-0.45-0.1l4.9-0.55l-1.05-0.05l-7.15,1.05
		c-0.367,0.033-0.383-0.033-0.05-0.2l4.65-1.05l-2.6-0.2c-0.633-0.033-0.95-0.117-0.95-0.25l-0.3-0.05l-0.9,0.15l0.7-0.15l-3.15-0.2
		c-1.833,0.733-3.483,1.633-4.95,2.7c1.4-1.133,2.917-2.033,4.55-2.7l-6.3-0.3l6.7,0.1l2.5-0.8l-0.95-0.2
		c0.033-0.067-0.567-0.267-1.8-0.6l-2.45-0.35l-3.7,0.95l3.35-1l-6.5-0.45h2.8c0.3,0,0.15-0.05-0.45-0.15
		c-0.633-0.1-0.783-0.167-0.45-0.2l5.5,0.55l0.35-0.1l-9.6-0.95l10.8,0.7l0.4-0.05h0.05l5-0.65l-3.35-0.6
		c0.033-0.1-0.383-0.25-1.25-0.45l-1.6,0.35L-194-15h-0.15l-1-0.2l-2.05,0.45c-0.3,0.033-0.3-0.033,0-0.2l1.05-0.35L-202.05-15.55z
		 M-199.6-20.4l1.05-0.05l0.1-0.05L-199.6-20.4z M-184.05-17.9v-0.15l-1.85-0.2l0.05-0.3l9.1,0.8l0.8-0.05l0.6-0.45l-2.5-0.25
		l-0.85,0.05l-1.15,0.25l0.9-0.25l-0.85,0.05l-0.05-0.15l-0.7-0.05c-1.5,0.2-1.8,0.167-0.9-0.1l0.1-0.05l-1.05-0.2l-8.8,0.4
		L-184.05-17.9z M-190.35-13.4l-0.85-0.1l-2.45,0.35l5.4,1l4.25-0.5l-3.7-0.95L-190.35-13.4z M-187.75-15.7l-2.65,0.2l6.85,1.2
		v-0.15l-1.6-0.3l0.05-0.25l4.75,0.65l3.35-0.15c-3.567-0.067-4.683-0.25-3.35-0.55l0.1-0.05l-3.05-0.5l-2.85,0.1L-187.75-15.7z
		 M-191.65-15.7l3.1-0.3v-0.15L-192-15.8L-191.65-15.7z M-187.8-16.8h0.2l-6.6-0.45l-1.8-0.3l-1.35,0.05l-2.8,1l6.35,0.6l0.05-0.05
		L-194-16.1l0.55,0.1l6.2-0.7L-187.8-16.8z M-183.5-20.85v-0.05l-0.9,0.15l2.55,0.15v-0.15L-183.5-20.85z M-208-18.35
		c-1.8,0.833-3.383,1.75-4.75,2.75l6.95-1c2.567-1.1,5.65-1.717,9.25-1.85l-3.85-0.3l-0.85-0.2L-208-18.35z M-202.6-16.9
		c-0.6,0.067-0.767,0.05-0.5-0.05l6.05-0.9l0.15-0.05V-18c-2.433,0.133-4.8,0.533-7.1,1.2l-0.6,0.15h1.6l0.85-0.2
		C-201.85-16.917-202-16.933-202.6-16.9z"/>
</g>
</svg>
