<?xml version="1.0" encoding="utf-8"?>
<!-- Generator: Adobe Illustrator 17.0.0, SVG Export Plug-In . SVG Version: 6.00 Build 0)  -->
<!DOCTYPE svg PUBLIC "-//W3C//DTD SVG 1.1//EN" "http://www.w3.org/Graphics/SVG/1.1/DTD/svg11.dtd">
<svg version="1.1" id="图层_1" xmlns="http://www.w3.org/2000/svg" xmlns:xlink="http://www.w3.org/1999/xlink" x="0px" y="0px"
	 width="401px" height="225px" viewBox="0 0 401 225" enable-background="new 0 0 401 225" xml:space="preserve">
<g transform="translate(217.05,119.1)">
	<path fill="#BDF109" d="M-38.75,51.85l-0.3-0.4l0.5,1.7L-38.75,51.85z M-64.35,32.3l-1.8,2.65c-0.467,0.733-0.717,1.7-0.75,2.9
		c-0.033,1.1,0.133,2.1,0.5,3l3.7,1.1C-62.967,38.583-63.517,35.367-64.35,32.3z M-99.85-36.85l0.1-0.2L-100-37.1l-0.35,0.1
		l-0.4,0.35l-0.2-0.15l-0.5,0.35l0.7-0.8c-0.9,0.433-1.417,0.783-1.55,1.05l-0.4,0.2L-99.85-36.85z M-187.75-8.7l-2-0.5l-2.3,0.2
		L-187.75-8.7z M-190.95-9.45l-0.4-0.1l-4,0.35l3,0.2l0.6-0.05c0.267-0.033,0.133-0.067-0.4-0.1c-0.567-0.033-0.717-0.083-0.45-0.15
		L-190.95-9.45z M-186.35-10.25v-0.2l0.15,0.05l3.65-0.15l-2.75-0.4l-4.05,0.4l1.8,0.35L-186.35-10.25z M-197.75-11.35l0.05-0.15
		l-0.2-0.05l-0.45,0.1L-197.75-11.35z M-192.85-9.85L-193.6-10l-2,0.6L-192.85-9.85z M-192.85-12.05l-0.9-0.15l-2.45,0.4l5.45,1
		l4.2-0.5l-3.65-0.95L-192.85-12.05z M-188.4-16.95v-0.25l9.15,0.8l0.8-0.05l0.55-0.45l-2.45-0.25l-0.85,0.05l-1.2,0.25l0.95-0.25
		h-0.9v-0.15l-0.7-0.05c-1.5,0.2-1.8,0.167-0.9-0.1h0.1l-1.05-0.2l-8.85,0.4l7.15,0.6l0.05-0.15L-188.4-16.95z M-187.65-13.4
		l0.05-0.3l4.75,0.7l3.35-0.15c-3.5-0.067-4.633-0.267-3.4-0.6l0.15-0.05l-3.1-0.5l-2.8,0.1l-1.6-0.2l-2.65,0.2l6.85,1.2v-0.15
		L-187.65-13.4z M-191.05-14.7l-0.05-0.15l-3.45,0.4l0.4,0.05L-191.05-14.7z M-189.85-15.35l-0.45-0.1h0.2l-8.4-0.75h-1.35l-2.8,1
		l6.3,0.6h0.05c-0.133-0.033-0.2-0.083-0.2-0.15l0.55,0.1L-189.85-15.35z M-182.45-20.3l-2.45,0.55c2.333,0.133,4.85,0.167,7.55,0.1
		c2.767-0.033,3.783-0.15,3.05-0.35h-1.65v-0.25l-5-0.15l-0.75,0.15L-182.45-20.3z M-186-19.55l-0.9,0.1l2.55,0.15v-0.1l-1.65-0.1
		V-19.55z M-205.35-15.3l2.35,0.1l2.2-0.9L-205.35-15.3z M-205.15-15.55c-0.6,0.033-0.767,0.017-0.5-0.05l6.1-0.9l0.15-0.05v-0.1
		c-2.6,0.133-4.967,0.517-7.1,1.15l-0.6,0.2h1.6l0.8-0.2C-204.4-15.6-204.55-15.617-205.15-15.55z M-202.9-17.4l-0.9-0.2l-6.7,0.6
		c-1.5,0.633-3.083,1.533-4.75,2.7l6.95-1c2.533-1.067,5.617-1.683,9.25-1.85L-202.9-17.4z M113.6,19.15
		c-3,0.633-6.583,1.75-10.75,3.35L91.7,27.1l0.55,0.35c1,0.667,2.767,1.467,5.3,2.4c2.4,1.167,4.4,2.85,6,5.05l0.3,0.85l0.15,1.5
		c1.733-0.667,3.017-1.567,3.85-2.7C111.883,29.017,113.8,23.883,113.6,19.15z M100.25-101.55l0.45-0.6L99.8-102
		c-2.1,0.733-3.567,1.1-4.4,1.1c1-0.333,2.467-0.9,4.4-1.7l0.9-0.25h4.7l-0.1-0.95l-0.9-0.45l-0.65-0.65l0.35,0.05l3.05-0.05
		l-1.25-0.1c-0.567-0.167-1.067-0.467-1.5-0.9l5.05-0.2l6-1.45l4.45-0.2l1.45,0.75c-0.467-1.933-0.7-4.05-0.7-6.35
		c0-2.6,0.333-4.517,1-5.75c0.8,0.633,1.783,1.967,2.95,4c0.967,1.633,2.05,2.65,3.25,3.05l1.1-0.5c0.467-0.3,0.7-0.133,0.7,0.5
		c0.733,0.067,1.05-0.483,0.95-1.65c-0.133-1.667-0.167-2.583-0.1-2.75c0.433-0.6,0.817,0.133,1.15,2.2c0.4,2.467,0.917,3.8,1.55,4
		c0.8-0.1,1.933,0.917,3.4,3.05c0.3-0.167,0.7-0.017,1.2,0.45c0.533,0.5,1,1.167,1.4,2l1,2.25l0.85,0.25
		c0.4-0.067,1.033,0.483,1.9,1.65c0.667,0.9,1.15,0.933,1.45,0.1c0.233,0.5,1.033,1.4,2.4,2.7c1.033,1.033,1.617,2.133,1.75,3.3
		l7.35,7.8l6.7,9.85c2.567,4.5,6.05,9.033,10.45,13.6l6,5.2c1.533,1.7,2.733,3.9,3.6,6.6l0.45,2.05c0.067,0.933-0.05,1.55-0.35,1.85
		c-0.467,0.467-0.667,1.333-0.6,2.6c0.1,1.267-0.017,2.083-0.35,2.45l-1.45,2.05c-0.567,0.767-1.217,1.2-1.95,1.3l-6.85,1.2
		l-5.9-0.55c-0.833-0.767-1.4-1.517-1.7-2.25l-0.6-0.9l-0.55-0.55l-9.7-5.7c-1.367-0.6-2.933-1.433-4.7-2.5
		c-1.5-0.9-2.733-1.5-3.7-1.8l-11-2.7c-1.833-0.333-3.65-0.883-5.45-1.65c-0.967-0.367-3.083-1.433-6.35-3.2l-3.8-0.05
		c-2.3,0.4-4.367,2.183-6.2,5.35c-0.733,1.3-1.9,3.65-3.5,7.05l-1.8,5.35l-4.95,9.5c-2.067,3.9-3.367,7.217-3.9,9.95
		c-0.2,1.1-0.233,2.6-0.1,4.5c0.167,2.067,0.2,3.533,0.1,4.4c-0.133,1.033-0.583,2.633-1.35,4.8c-0.733,2.167-1.167,3.8-1.3,4.9
		l-0.4,3.85l0.55,2.35c2.367,0.733,6.15,1.55,11.35,2.45c5.433,0.933,9.433,1.767,12,2.5c0.8,0.267,1.4,0.567,1.8,0.9
		c2.1,1.5,3.483,3.55,4.15,6.15c0.533,2.033,0.617,4.467,0.25,7.3c-0.133,1.167-0.917,2.45-2.35,3.85c-1.7,1.7-2.767,3.033-3.2,4
		c-2.233,5.1-4.867,10.183-7.9,15.25h-0.05l-0.2,0.2l-5.7,1.95c-1.333,0.5-3.183,1.567-5.55,3.2l-5.4,5.1
		c-3.033,2.733-4.967,3.717-5.8,2.95c-1.1-0.967-1.833-2.333-2.2-4.1c-0.367-1.6-0.4-3.35-0.1-5.25l-13.25,6.7
		c-0.967,0.467-1.783,0.617-2.45,0.45c-1.9-0.533-4.5-1.7-7.8-3.5c-3.067-1.7-5.167-2.65-6.3-2.85l-5.2-0.75l-8.45-2.8
		c0.367-1.2,1.1-2.35,2.2-3.45c1.3-1.333,2.9-2.6,4.8-3.8c2.333-1.467,4.367-2.3,6.1-2.5c1.4,0.733,2.75,2.217,4.05,4.45
		c1.333,2.333,2.633,3.867,3.9,4.6c1.267,0.467,2.317,0.167,3.15-0.9c1.2-1.533,1.917-2.35,2.15-2.45l8.85,0.45
		c3.167-0.4,6.217-1.217,9.15-2.45L75.4,38.2l-11.9-3.25c-3.033-0.9-5.333-1.433-6.9-1.6c-2.633-0.233-6.217-0.867-10.75-1.9
		c-3.6-0.833-5.517-1.15-5.75-0.95l-0.2-0.25c-16.367-1-29.017-2.15-37.95-3.45c-13.733-2-25.033-4.983-33.9-8.95l-3.15-1.45
		c0,3.567-0.083,6.533-0.25,8.9c-0.267,3.567-0.783,7.1-1.55,10.6l-2.35,6.8l1.25,0.15c3.767,0.1,6.5,1.1,8.2,3
		c0.6,0.7,0.917,2.2,0.95,4.5l2.25,8.15c1.067,4.567,1.45,8.467,1.15,11.7l6.3,4.65l5.25,2.65c2.4,1.133,4.017,2.117,4.85,2.95
		c0.7,0.7,1.2,1.867,1.5,3.5c0.3,1.533,0.85,2.633,1.65,3.3c4.367,3.667,7.683,6.867,9.95,9.6c2.967,3.567,3.783,5.983,2.45,7.25
		c-1.5,1.4-4.4,1.867-8.7,1.4c-4.233-0.467-7.233-1.533-9-3.2v-8.85c-0.633-2-1.383-2.75-2.25-2.25
		c-1.6,0.967-2.617,1.417-3.05,1.35l-2.5-3.6c-1-1.567-1.9-2.733-2.7-3.5l-8.1-6.55c-2-1.933-4.133-3.483-6.4-4.65l-5.5-3.15
		c-3.467-2.2-8.05-4.967-13.75-8.3c-4.067-3-6.333-6.667-6.8-11l-5.95-0.5l-10.45-2.6c-1.933-0.367-3.283-1.083-4.05-2.15
		c-0.733-1.033-1.15-1.55-1.25-1.55l0.35-0.15c-0.667-0.667-1.117-1.417-1.35-2.25c-0.433-1.533,0.167-3.733,1.8-6.6
		c1.867-3.267,2.833-5.15,2.9-5.65c0.233-1.967,0.083-3.85-0.45-5.65c-0.467-1.6-1.167-2.95-2.1-4.05
		c-0.633-0.767-1.35-1.483-2.15-2.15L-85,18.6l-5.9-4c-2-1.567-4.483-4.85-7.45-9.85c-2.833-4.8-4.783-8.883-5.85-12.25v-0.85
		l-0.1,0.45c-0.933-3.233-1.017-7.3-0.25-12.2c-5.767,5.633-11.033,9.667-15.8,12.1l-2.1,0.8c-6.7,4.233-13.4,6.15-20.1,5.75
		l-12.15-1.9l-11.175-1.2l-17.075-0.1l-1.85-0.3l-9.3-0.6l2.8,0.1c0.3,0,0.15-0.05-0.45-0.15c-0.633-0.1-0.8-0.15-0.5-0.15l6.5,0.35
		l0.05-0.1l-10.2-0.85c-0.5-0.1-0.5-0.15,0-0.15l11.45,0.6c-0.2-0.033-0.3-0.083-0.3-0.15l12.05-0.45l-0.05-0.15l-1.85,0.2v-0.3
		l-9.3-0.95l-0.65-0.2c-2.083,0.095-3.975,0.286-5.675,0.575l0.375-0.075c0.267-0.067,0.133-0.083-0.4-0.05
		c-0.567,0-0.717-0.033-0.45-0.1l4.9-0.6l-1.05-0.05L-194-7.1c-0.4,0.033-0.417-0.033-0.05-0.2l4.6-1.05l-2.6-0.2
		c-0.6-0.033-0.9-0.133-0.9-0.3h-0.3l-0.9,0.1l0.7-0.1l-3.15-0.2c-1.633,0.6-3.283,1.483-4.95,2.65c1.333-1.067,2.85-1.967,4.55-2.7
		l-6.3-0.25l6.7,0.1l2.45-0.85l-0.9-0.15l-1.8-0.6l-2.45-0.4l-2.8,0.7l2.45-0.75l-6.5-0.45l2.8,0.05c0.333,0,0.183-0.067-0.45-0.2
		c-0.6-0.1-0.75-0.15-0.45-0.15l5.45,0.55l0.4-0.1l-9.6-1l10.8,0.75l0.4-0.05l-2.75-0.4l2.75,0.35l5.05-0.65l-3.35-0.55
		c0-0.133-0.433-0.3-1.3-0.5l-1.15,0.3l1.05-0.3l-0.15-0.05l-1-0.15l-2.05,0.25l1-0.4l-5.85-0.25l2.35-0.05
		c0.3-0.033,0.183-0.083-0.35-0.15l-0.4-0.15l2.85,0.1l-2.55-0.25h-0.95c-0.525,0.238-1.05,0.505-1.575,0.8l1.275-0.8l-2.3-0.1
		c-0.333-0.033-0.333-0.083,0-0.15l0.95-0.1h-0.8l-1.15,0.35l0.95-0.35h-1.7l-1.4,0.4l0.15-0.2l0.4-0.15l-6.5,0.8l-1.75,1.4l1.5-1.3
		l0.05-0.05c1.2-1,2.55-1.867,4.05-2.6l-1.85,0.45l2.2-0.65c2.467-1.2,5.217-2.017,8.25-2.45l-2.4-0.2
		c2.767-0.433,6.3-0.483,10.6-0.15l-0.6-0.2l7.65,0.5l1.6-0.25v-0.05h0.2l3.2-0.65l-4.2-0.35l0.05-0.2l1.9,0.1l-9.3-1.1l-7.85-0.15
		c-0.6,0.033-0.9-0.033-0.9-0.2c-4.033,0.367-7.233,0.867-9.6,1.5c3.1-1,6.6-1.583,10.5-1.75l25.25,0.95l24.25-3.5
		c-0.333-0.033-0.4-0.1-0.2-0.2l10.65-2l8.7-1.1l6.6-1.55l-0.05-0.15l0.75-0.15l1.2-0.4l0.05,0.15l1.35-0.35l0.05,0.15
		c1.733-0.6,3.017-1.1,3.85-1.5l0.05,0.15c1.3-0.433,2.15-0.783,2.55-1.05l0.05,0.15l0.6-0.4l11.6-4.8l-0.4,0.5
		c-0.133,0.167,0.067,0.167,0.6,0l2.4-0.8l2.3-0.45l-0.05-0.15c0.333-0.6,0.717-0.917,1.15-0.95l0.55-0.25l-0.1-0.1l0.15-0.05
		l0.1,0.15h0.05l1.1-0.65c2.433-1.4,5.2-3.433,8.3-6.1l7.8-6.5c6.333-4.967,12.983-7.633,19.95-8c3.833-0.2,8.633,0.317,14.4,1.55
		l13.95,2.9l26.55,1.75c4.533,0.367,9.1,0.25,13.7-0.35c4.733-0.633,9.033-1.7,12.9-3.2c2.6-1,6.317-2.9,11.15-5.7
		c4.633-2.267,9.483-3.317,14.55-3.15l0.25-0.95l-0.35-1.55c0.033,0.133-0.1,0.067-0.4-0.2l-0.5-0.45l7.2-0.35l0.8-0.65v-0.9
		l-0.55-0.55c-0.033-0.433-0.267-0.717-0.7-0.85c0.733-0.233,1.5-0.633,2.3-1.2l5.3-1.7c-0.233-0.133-0.35-0.4-0.35-0.8
		c0.933-0.467,2.083-0.75,3.45-0.85l3.15,0.2l0.95,0.3c1.9,0.467,3.65,0.317,5.25-0.45l0.65-0.45l0.4-0.7l0.1-2L70.4-81l-0.9,0.025
		c0.476-0.17,0.976-0.445,1.5-0.825c1.967-1.4,3.15-2.167,3.55-2.3l0.9-0.2c2.433-0.733,4.55-1.55,6.35-2.45l0.9-0.5
		c0.467-0.433,0.7-1.317,0.7-2.65l-2,0.1l-2.05,0.7L78.4-89c-1.033,0.067-2.033-0.233-3-0.9l3.1,0.2l3.7-1.25l0.9-0.5
		c0.933-0.1,1.933-0.383,3-0.85c0.567-0.267,1.483-0.767,2.75-1.5l0.9-0.55c0.4-0.333,1-0.667,1.8-1l2.85-0.55l-2.95-0.25
		c-1.067,0.033-1.917,0.5-2.55,1.4l-1.5,0.85l0.75-0.95l0.9-0.75c0.967-0.667,2.35-1.083,4.15-1.25c1.9-0.2,3.133-0.45,3.7-0.75
		l0.75-0.5c0.4-0.933,1.317-1.85,2.75-2.75l1-0.5c1.133-1.333,1.1-1.633-0.1-0.9L100.25-101.55z"/>
</g>
</svg>
