<?xml version="1.0" encoding="utf-8"?>
<!-- Generator: Adobe Illustrator 17.0.0, SVG Export Plug-In . SVG Version: 6.00 Build 0)  -->
<!DOCTYPE svg PUBLIC "-//W3C//DTD SVG 1.1//EN" "http://www.w3.org/Graphics/SVG/1.1/DTD/svg11.dtd">
<svg version="1.1" id="图层_1" xmlns="http://www.w3.org/2000/svg" xmlns:xlink="http://www.w3.org/1999/xlink" x="0px" y="0px"
	 width="394px" height="240px" viewBox="0 0 394 240" enable-background="new 0 0 394 240" xml:space="preserve">
<g transform="translate(209.2,117.1)">
	<path fill="#BDF109" d="M-162.35-4.25l4.9,0.3c2.033,0.033,2.733-0.067,2.1-0.3H-162.35z M-181.05-8.8l1.2,0.2v-0.15L-181.05-8.8z
		 M-175.05-15.35l-0.6,0.05l0.45-0.05l-3.95-0.45l3.85,0.65v-0.1h1.8L-175.05-15.35z M-181.25-15.85l0.05-0.2l-4.55-0.25l6.25,0.85
		l0.05-0.15L-181.25-15.85z M-171.25-18c3.1-0.133,4.267-0.3,3.5-0.5l-1.6,0.05v-0.2h-4.2l-1.1,0.15
		c-0.467,0.033-0.7-0.017-0.7-0.15l-6.7,0.35l3,0.45v-0.05C-176.717-17.833-174.117-17.867-171.25-18z M-172.1-14.65l1-0.3
		l-3.35-0.1L-172.1-14.65z M-191.15-10.95l-0.2,0.05l0.7,0.25l0.05-0.1L-191.15-10.95z M-189.55-11l-0.45-0.15l0.5,0.2L-189.55-11
		l3.75,1l3.75-0.45l-4.2-1.25l-0.1-0.05l-3.7,0.55L-189.55-11z M-183.85-9.8l-0.9-0.1l-0.45,0.1l1.7,0.4l5.25,0.35l-0.75-0.2
		l0.85,0.05l-2.8-0.9L-183.85-9.8z M-197.15-14.75l1.8-0.15l0.95-0.45l-3.4,0.55L-197.15-14.75z M-183.2-13.05l-3.5-0.25l4.8,1.4
		l1.05,0.05L-181-11.9l0.1-0.25l2,0.4l4.65,0.4c-2.2-0.433-3.25-0.75-3.15-0.95l-0.8-0.15l-3.45-0.2L-183.2-13.05z M-188.15-13.7
		l0.25,0.05l3.95,0.2v-0.15L-188.15-13.7z M-189.45-14l0.15-0.05l-0.05-0.05l0.1,0.05c1.367-0.167,3.567-0.133,6.6,0.1l-0.45-0.15
		h0.15l-2.2-0.75l-5.95-0.65l-2.55,0.1l-1.3,0.5C-192.95-14.967-191.117-14.667-189.45-14z M-189.15-16.7l1.8-0.1l-4-0.45
		L-189.15-16.7z M-187.55-17.8l-0.45-0.15l-1.45-0.15l7,0.5l-1.25-0.35l-10.5-0.5L-187.55-17.8z M-188.9-17.35l0.05-0.1l-7.1-0.8
		l-3.8,0.6l-2.65,1l6.85-0.85l1.3-0.05l-2-0.2l2.45,0.2c0.3,0.033,0.183-0.017-0.35-0.15s-0.667-0.2-0.4-0.2L-188.9-17.35z
		 M-202.85-16.45c-1.667,0.7-3.2,1.583-4.6,2.65l6.75-0.95c2.5-1.1,5.733-1.65,9.7-1.65l0.1-0.05c-0.133,0-0.2-0.033-0.2-0.1h0.85
		l-6.15-0.7L-202.85-16.45z M108.45-105.55l0.15-1l1.4,1.35l0.7,0.2c-0.467-1.367-1.05-2.6-1.75-3.7l0.3-1.25
		c1.7,0.133,3.767,1.067,6.2,2.8c1.2-1.167,2.05-1.633,2.55-1.4l0.25,0.15c0.033,0.733,0.517,1.383,1.45,1.95
		c0.567,0.333,1.5,0.817,2.8,1.45c-0.467-1.933-0.7-4.05-0.7-6.35c0-2.6,0.333-4.517,1-5.75c0.8,0.633,1.783,1.967,2.95,4
		c0.967,1.633,2.05,2.65,3.25,3.05l1.1-0.5c0.467-0.3,0.7-0.133,0.7,0.5c0.733,0.067,1.05-0.483,0.95-1.65
		c-0.133-1.667-0.167-2.583-0.1-2.75c0.433-0.6,0.817,0.133,1.15,2.2c0.4,2.467,0.917,3.8,1.55,4c0.8-0.1,1.933,0.917,3.4,3.05
		c0.3-0.167,0.7-0.017,1.2,0.45c0.533,0.5,1,1.167,1.4,2l1,2.25l0.85,0.25c0.4-0.067,1.033,0.483,1.9,1.65
		c0.667,0.9,1.15,0.933,1.45,0.1c0.233,0.5,1.033,1.4,2.4,2.7c1.033,1.033,1.617,2.133,1.75,3.3c2.133,2.467,3.75,4.2,4.85,5.2
		l2.5,2.6l6.7,9.85c2.567,4.5,6.05,9.033,10.45,13.6l6,5.2c1.533,1.7,2.733,3.9,3.6,6.6l0.45,2.05c0.067,0.933-0.05,1.55-0.35,1.85
		c-0.467,0.467-0.667,1.333-0.6,2.6c0.1,1.267-0.017,2.083-0.35,2.45l-1.45,2.05c-0.567,0.767-1.217,1.2-1.95,1.3l-6.85,1.2
		l-5.9-0.55c-0.833-0.767-1.4-1.517-1.7-2.25l-0.6-0.9l-0.55-0.55l-1.9-1.2c-0.9-0.433-1.533-0.783-1.9-1.05l-5.9-3.45
		c-1.367-0.6-2.933-1.433-4.7-2.5c-1.5-0.9-2.733-1.5-3.7-1.8l-11-2.7c-1.833-0.333-3.65-0.883-5.45-1.65
		c-0.967-0.367-3.083-1.433-6.35-3.2l-3.8-0.05c-2.3,0.4-4.367,2.183-6.2,5.35l-3.5,7.05l-1.8,5.35l-4.95,9.5
		c-2.067,3.9-3.367,7.217-3.9,9.95c-0.2,1.1-0.233,2.6-0.1,4.5c0.167,2.067,0.2,3.533,0.1,4.4c-0.133,1.033-0.583,2.633-1.35,4.8
		c-0.733,2.167-1.167,3.8-1.3,4.9l-0.4,3.6c0,0.567,0.25,1,0.75,1.3c1.633,0.933,3.017,1.833,4.15,2.7
		c2.033,1.467,5.367,3.45,10,5.95c4.9,2.6,8.433,4.65,10.6,6.15l5.7,4.4c1.2,0.967,2.067,1.783,2.6,2.45c0.767,0.933,1.3,2,1.6,3.2
		c0.267,0.967,0.483,2.4,0.65,4.3c0.2,2,0.433,3.667,0.7,5c1.067,5.067,1.9,10.517,2.5,16.35l0.7,3.55
		c0.3,1.067,0.417,2.083,0.35,3.05c-0.033,0.933-0.217,1.533-0.55,1.8l-5.4,2.7c-1.233,0.667-2.917,1.983-5.05,3.95l-4.6,5.8
		c-2.633,3.1-4.417,4.333-5.35,3.7c-2.1-1.4-3.283-3.9-3.55-7.5c-0.233-3.367,0.383-6.25,1.85-8.65
		c0.733-1.367,2.417-1.983,5.05-1.85c3.033,0.133,4.95-0.05,5.75-0.55c0.7-0.667,1.017-1.267,0.95-1.8l-0.6-1.8
		c-0.067-0.3,0.1-1.017,0.5-2.15l1.1-3.7V49.8c-0.067-3.9-0.533-7.25-1.4-10.05c-1.1-3.6-2.933-6.617-5.5-9.05l-0.75-0.8
		c-0.667-0.5-2.033-1.233-4.1-2.2l-11.35-0.45l-12.25,0.8c1.933,2.133,3.45,3.683,4.55,4.65c0.9,0.8,2.533,1.833,4.9,3.1
		c2.233,1.5,3.983,3.467,5.25,5.9l0.2,1.3l0.15,3.25l-0.1,0.05c0,0.9-0.183,1.85-0.55,2.85c-0.933,0.967-2.483,2.083-4.65,3.35
		l-4.95,3c-1.433,1-3.85,3.2-7.25,6.6l-7.15,7.05c-0.833,0.733-1.583,1.117-2.25,1.15L63.7,68.5l-5.15,0.85l-8.9-0.15
		c-0.033-1.233,0.3-2.55,1-3.95c0.8-1.633,1.95-3.317,3.45-5.05c1.8-2.067,3.5-3.483,5.1-4.25c1.533,0.267,3.267,1.283,5.2,3.05
		c1.967,1.833,3.667,2.9,5.1,3.2c1.333,0.067,2.233-0.533,2.7-1.8l1.35-3c3.3,0,6.983-1.167,11.05-3.5
		c3.833-2.167,6.783-4.617,8.85-7.35c-1.467-1.167-3.967-2.233-7.5-3.2l-8.7-2.45l-11.3-4.95c-2.867-1.333-5.067-2.2-6.6-2.6
		c-2.5-0.6-5.3-1.583-8.4-2.95c-2.5-1.1-4.667-2.217-6.5-3.35c-11.067,3.6-24.017,3.733-38.85,0.4l-19.25-4.7
		c-7.933-1.867-15.05-3.033-21.35-3.5l-3.95,4.6c-1.167,1.367-2.583,3.467-4.25,6.3l-2.05,4.9l-0.15,0.45
		c-0.2,0.933-0.183,2.633,0.05,5.1l1,6.45c1.367,3.733,5.183,7.533,11.45,11.4l7.95,4.7c3.067,1.867,5.467,3.533,7.2,5l0.65,0.95
		l2.45,2.05l7.3,4.5c3.967,2.633,6.95,5.25,8.95,7.85c-1.967,2.8-4.983,4.317-9.05,4.55c-3.467,0.2-6.95-0.467-10.45-2
		c-0.633-0.667-0.917-1.817-0.85-3.45c0.033-1.467-0.65-2.65-2.05-3.55c-0.567-0.2-1.25,0-2.05,0.6
		c-0.967,0.733-1.867,1.133-2.7,1.2c-0.567,0.067-1.417-0.65-2.55-2.15l-3.05-4.45l-0.05,0.05c-0.6-0.9-1.3-1.75-2.1-2.55
		c-2.667-2.667-6.033-5.55-10.1-8.65l-5.3-3.85l-7.35-7.3l-2.3,2.95c-2.033,4.467-2.433,9.717-1.2,15.75
		c1.133,5.433,3.417,10.717,6.85,15.85l2.3,3.8l3.85,4.45c1.8,1.933,2.933,3.45,3.4,4.55c0.367,0.833,0.283,2.183-0.25,4.05
		c-0.433,1.6-0.217,2.75,0.65,3.45c4.567,3.667,7.533,7.017,8.9,10.05c1.3,2.8,0.95,4.583-1.05,5.35
		c-2.2,0.833-5.267,0.883-9.2,0.15c-4.267-0.8-6.85-2.2-7.75-4.2c0.367-0.9,0.683-2.167,0.95-3.8c0.233-1.633,0.533-2.9,0.9-3.8
		c0.167-2.1-0.25-3.083-1.25-2.95l-3.35,0.1l-0.95-4.25c-0.333-1.8-0.733-3.217-1.2-4.25l-5-9.15c-1.133-2.533-2.533-4.783-4.2-6.75
		l-3.95-4.95c-5.1-6.267-8.45-10.783-10.05-13.55c-2.6-4.5-3-9.083-1.2-13.75l3.2-8.3c0.333-1.3,0.6-4.633,0.8-10
		c-0.933-2.2-1.567-3.517-1.9-3.95c-0.967-1.367-3.017-3.35-6.15-5.95l-7.6-6.95c-2.967-2.933-4.75-4.933-5.35-6
		c-1.367-2.4-2.583-5.35-3.65-8.85c-1.333-4.2-2.017-7.95-2.05-11.25c-0.3-4.033,0.4-9.283,2.1-15.75l-7.8,5.4
		c-4,2.867-6.583,4.7-7.75,5.5l-2.2,1.3l-5.7,5.05c-3.167,2.3-6.817,4.117-10.95,5.45c-3.6,1.1-7.517,1.75-11.75,1.95
		c-3.467,0.2-7.333,0.1-11.6-0.3l-5.95-0.6c-3.1-0.767-6.65-1.35-10.65-1.75l-1.75-0.5l-8.85-0.85l2.65,0.15
		c0.3,0,0.167-0.05-0.4-0.15c-0.6-0.133-0.75-0.2-0.45-0.2l6.2,0.6l0.05-0.15l-7.15-0.7c-2.867-0.267-3.75-0.433-2.65-0.5l11.3,0.95
		l-0.55-0.2l11.55,1.35l0.05-0.1l-1.8-0.25v-0.2l-9.35-1.45l-2.95-0.9l-4.85,0.55l2.35-0.4c0.233-0.033,0.1-0.067-0.4-0.1
		c-0.567,0-0.717-0.033-0.45-0.1l2.35-0.25l-0.3-0.05l-5.15,0.6c-0.3,0.033-0.317-0.017-0.05-0.15l3.95-0.8l-1.8-0.5h-0.15
		l-0.85-0.2l-1.25,0.1l1.2-0.2h-0.1l-3.2-0.2c-1.1,0.467-2.7,1.333-4.8,2.6c1.3-0.967,2.767-1.833,4.4-2.6l-6.4-0.2h6.75l0.8-0.3
		l-3.85-1.5l-3.25,0.9l2.95-0.95l-6.3-0.45h2.75c0.3,0,0.15-0.05-0.45-0.15c-0.6-0.067-0.75-0.117-0.45-0.15l5.1,0.55l0.2-0.05
		l-9-0.9c-0.6-0.1-0.6-0.15,0-0.15c3.767-0.2,6.9,0.033,9.4,0.7l-2-0.6l2.65,0.7l3.4-0.6l-1.25-0.4l-1.35-0.75l-1,0.2l0.95-0.25
		l-0.8-0.35l-1.85,0.3c-0.267,0.067-0.267,0.017,0-0.15l1.05-0.35l-4.4-0.3l0.95-0.1c0.233-0.033,0.167-0.067-0.2-0.1l-0.7-0.15
		h-0.65l-2.3,1.4l2.1-1.4l-0.25-0.05l-0.7-0.05c-1.467,0.067-1.867,0.017-1.2-0.15h-1.65l-1.4,0.4c-0.2,0.033-0.15-0.033,0.15-0.2
		l0.3-0.15l-6.4,0.75l-1.6,1.35l1.4-1.3l-0.55,0.1l0.6-0.15c1.267-1.033,2.583-1.883,3.95-2.55l-1.7,0.4l1.95-0.5
		c1.867-0.9,4-1.6,6.4-2.1c-1.367-0.3-1.567-0.4-0.6-0.3l1.6,0.15l8.8-0.25l5.1,0.55l5.35-0.35l-2.95-0.15v-0.2l2.15,0.05
		l-16.55-1.65c-0.633-0.067-0.883-0.167-0.75-0.3l-2.2-0.3c-0.833-0.133-1.783-0.133-2.85,0l-4.7,0.95l5.1-1.2l15.05,1.3
		c6.467,0.433,12.45,0.417,17.95-0.05c5.433-1.133,10.683-2.65,15.75-4.55l3.85-1.55c-0.333,0.033-0.417,0-0.25-0.1l0.8-0.4
		l24.1-9.05l-0.05-0.1l2-0.65l0.05,0.1l1.5-0.35v0.1l4.1-1.2l0.05,0.15l2.75-0.8v0.15c0.002-0.1,0.235-0.2,0.7-0.3l6.75-1.3l6-0.5
		l-0.5,0.35c-0.2,0.133-0.017,0.2,0.55,0.2l4.05,0.35c2.2-1.4,4.817-3.4,7.85-6l7.55-6.25c6.133-4.667,12.6-7.2,19.4-7.6
		c3.833-0.2,8.633,0.317,14.4,1.55l13.95,2.9l26.55,1.75c4.533,0.367,9.1,0.25,13.7-0.35c4.733-0.633,9.033-1.7,12.9-3.2
		c2.6-1,6.317-2.9,11.15-5.7c4.633-2.267,9.483-3.317,14.55-3.15c0.4-0.667,0.267-1.483-0.4-2.45c-0.5-0.667-0.367-1.033,0.4-1.1
		l5.75-0.4c1.733-0.533,2.767-1.583,3.1-3.15c-0.1-0.867-0.9-1.4-2.4-1.6c-1.7-0.2-2.683-0.55-2.95-1.05
		c1.5-0.633,3.433-0.95,5.8-0.95c2.333,0,4.25,0.317,5.75,0.95c0.133-0.5-0.083-1.2-0.65-2.1c-0.267-0.433,0.233-0.617,1.5-0.55
		c2.333,0.9,4.3,1.4,5.9,1.5c2.2,0.167,4.083-0.333,5.65-1.5c0.267-0.933-0.283-1.633-1.65-2.1c-1.8-0.6-2.967-1.267-3.5-2
		c1.067,0.1,2.517,0.117,4.35,0.05l4.35-0.4c0.333-0.833,2.167-1.817,5.5-2.95c2.333-0.8,2.5-2.183,0.5-4.15l-2.3-1.7
		c-1-0.7-1.65-1.3-1.95-1.8l5.7,0.35c0.2,0.033,0.6-0.117,1.2-0.45l7.25-0.8l1.1,0.25l-0.8-0.35c-1.6-0.7-2.633-1.333-3.1-1.9
		l2.15,0.6l3.35-0.35c1.067-0.367,1.817-0.7,2.25-1l1.95-1.6l2.45-1.1c-1.367-0.9-3.35-1.2-5.95-0.9
		c0.767-1.167,2.167-1.783,4.2-1.85c2.033-0.033,3.583,0.483,4.65,1.55l1.25-0.4l-0.6-0.7l-2.35-0.1
		c-0.633-0.067-0.667-0.217-0.1-0.45l1.2-0.15c0.533-0.7,1.217-0.9,2.05-0.6l0.1-0.9c-0.567-0.267-0.783-0.833-0.65-1.7
		L108.45-105.55z"/>
</g>
</svg>
