<?xml version="1.0" encoding="utf-8"?>
<!-- Generator: Adobe Illustrator 17.0.0, SVG Export Plug-In . SVG Version: 6.00 Build 0)  -->
<!DOCTYPE svg PUBLIC "-//W3C//DTD SVG 1.1//EN" "http://www.w3.org/Graphics/SVG/1.1/DTD/svg11.dtd">
<svg version="1.1" id="图层_1" xmlns="http://www.w3.org/2000/svg" xmlns:xlink="http://www.w3.org/1999/xlink" x="0px" y="0px"
	 width="406px" height="229px" viewBox="0 0 406 229" enable-background="new 0 0 406 229" xml:space="preserve">
<g transform="translate(213.85,108.077)">
	<path fill="#BDF109" d="M125.85,48.9c-0.933-4.2-2.367-7.717-4.3-10.55l-1.15-0.45c-0.7-0.267-1.283-0.583-1.75-0.95L107.8,37.5
		l-11.2,1.75h-0.1c0.7,1.433,2,3.483,3.9,6.15c1.867,2.6,3.15,4.65,3.85,6.15c2,1.667,3.6,3.15,4.8,4.45
		c0.633,0.667,1.8,2.4,3.5,5.2c1.767,2.933,2.917,4.733,3.45,5.4l4.4,6.75c0.733-1.267,2.217-2.55,4.45-3.85
		c2.267-1.3,3.75-2.6,4.45-3.9c0.433-1.267,0.117-2.317-0.95-3.15l-2.45-2.15C126.833,57.2,126.817,53.4,125.85,48.9z
		 M-105.75-29.25c0.133,0,1-0.367,2.6-1.1l0.2-0.85l-1.55,1.1v0.05l-0.4,0.2L-105.75-29.25z M-161.35-29.8l-0.1-0.2l-1.25,0.65
		l2.4-0.7c0.467-0.3,0.533-0.433,0.2-0.4L-161.35-29.8z M-185.6-13.7l4.95,0.25l4.7-0.4c0.433-0.1,0.5-0.2,0.2-0.3l-1.5,0.15v-0.25
		L-185.6-13.7z M-182.5-7.05l-0.65-0.15l11.2-0.2v-0.15l-1.75,0.05v-0.25l8.25-0.6c3.3-0.367,4.517-0.633,3.65-0.8l-1.7,0.2v-0.2
		l-11.1,0.5v-0.2l0.95-0.025l-3.25,0.025c-3.1,0.133-4.933,0.133-5.5,0l-0.45-0.05l-6.4,1.8L-182.5-7.05z M-183.8-9l-0.4-0.05
		l-6.9,1.95h1.75l1.75-0.55c0.233-0.1,0.1-0.1-0.4,0c-0.5,0.067-0.633,0.05-0.4-0.05L-183.8-9z M-185.05-10.85v-0.25h3.4l-2.5-0.2
		l-0.85-0.2l-2.45,0.65l3.5,0.05L-185.05-10.85z M-195.75-11.05v-0.15l-1.35-0.25l-0.2,0.1L-195.75-11.05z M-198.1-16.6l6.9,0.3
		l-5.2-0.8L-198.1-16.6z M-195.3-14.25l0.05-0.15l-0.55-0.05l-0.4,0.05L-195.3-14.25z M-203.75-15.35l2.95,0.05l0.6-0.4
		L-203.75-15.35l1.4-0.3c0.267-0.1,0.117-0.133-0.45-0.1c-0.5,0.033-0.633,0.017-0.4-0.05l3.5-0.2l0.2-0.15l-4.55,0.4l-1.25,0.4
		H-203.75z M-199.85-15.7l-0.7,0.4l4.9,0.45l0.4-0.1l0.6-0.05h-0.1l-0.55-0.2L-199.85-15.7z M-201.85-14.35l2.1-0.05l0.1-0.05
		l-1.65-0.3L-201.85-14.35L-203.8-13l2.35-1.8h-0.1l-0.6-0.1c-1.367-0.033-1.8-0.1-1.3-0.2l-0.9-0.05l-0.3,0.1l0.25-0.1l-1.65,0.05
		l-0.65,0.15l0.1-0.15l-5.7,0.9l-1.55,1.5l1.4-1.45l2.85-2.25l-0.6,0.2l0.7-0.3c1.967-1.2,3.833-2,5.6-2.4l1.9-0.25
		c-1.133-0.2-1.3-0.3-0.5-0.3l7.75,0.65l-1.4-0.15l2.9,0.2l9.1-0.35l-0.05-0.2c1.8-0.067,4.233-0.733,7.3-2
		c3.167-1.3,4.2-1.883,3.1-1.75l-1.5,0.65l-0.1-0.2c-2.467,1.2-5.2,1.983-8.2,2.35l-3.95,0.6l2.55-0.45h-0.05l-0.05-0.2l1.5-0.25
		l-1.75,0.1l-13.75-0.85c-0.5-0.067-0.75-0.167-0.75-0.3l-4.9-0.35l-4.3,1.3l1.85-0.75l3-0.8l14.5,1.2c3.4,0,6.367-0.333,8.9-1
		c1.1-0.267,2.483-0.783,4.15-1.55l5.45-2.45l14.25-7.95l2.1-0.8c-0.333,0.033-0.417,0-0.25-0.1l0.85-0.4
		c5.7-1.633,12.133-2.6,19.3-2.9l7.05-0.35v-0.1l2.05-0.1v0.15l1.4-0.05v0.15l4.1-0.4v0.1l2.7-0.35l0.05,0.15l0.65-0.25l2.65-0.5
		l9.95-1.05l-0.5,0.35c-0.2,0.133-0.017,0.2,0.55,0.2l5.8,0.65l3.75-4.2l2.4-1.95c3.633-1.733,7.467-3.217,11.5-4.45l12.1-3.75
		c4.8-1.367,9.033-2.183,12.7-2.45c5.667-0.4,12.333-0.033,20,1.1l21.6,3.35l31.75,2.85l8.1,0.3L30.25-49
		c5.533-0.333,11.767-1.617,18.7-3.85c9.533-3.067,15.233-4.817,17.1-5.25c-0.6-0.567-1.917-1.017-3.95-1.35
		c-2.033-0.333-3.367-0.767-4-1.3h7.675c-0.11-0.04-0.185-0.14-0.225-0.3c-0.1-0.3,0.067-0.5,0.5-0.6l2.6-0.25
		c1.267-0.333,1.883-1.133,1.85-2.4c-2.667-0.667-4.733-1.55-6.2-2.65c1.3-0.267,3.317,0.117,6.05,1.15
		c2,0.767,3.517,0.383,4.55-1.15c-0.167-0.5-0.933-0.767-2.3-0.8c-1.333-0.033-2.033-0.367-2.1-1c0.667-0.1,2.917-0.067,6.75,0.1
		c2.833,0.133,4.717-0.183,5.65-0.95c-1.333-0.033-2.267-0.583-2.8-1.65c-0.4-0.767-0.65-2-0.75-3.7c0.533,0.8,1.25,1.6,2.15,2.4
		c0.967,0.867,1.983,1.55,3.05,2.05L82-73.4l0.85,0.15c0.2-0.467,0.033-0.9-0.5-1.3L79.9-75.9L79-77.05l5.65,0.35
		c0.2-0.533,1.117-0.8,2.75-0.8c1.567,0.033,2.417-0.283,2.55-0.95c-0.4-1-1.483-1.517-3.25-1.55l-2.95-0.25
		c0.867-0.767,1.633-1.2,2.3-1.3L85.9-81.6l5.3-0.45c-0.567-0.633-0.983-1.217-1.25-1.75l-5-0.25c-1.533-0.4-2.517-1.2-2.95-2.4
		c1.133,0.867,2.367,1.4,3.7,1.6c1.467,0.233,2.883,0,4.25-0.7c1.567,1.167,2.917,2.483,4.05,3.95l0.5,0.1
		c0.4-1.3,0.317-2.467-0.25-3.5l-1.15-1.45l-0.7-0.45l0.25-0.15l-1-1.1c-0.2-0.367-0.167-0.683,0.1-0.95c1.3,0.1,2.233,0.8,2.8,2.1
		l-1.25-3.55c1.6,0.933,2.967,1.483,4.1,1.65l2.8,0.6c-1.633-1.467-4.167-2.617-7.6-3.45l2.5-0.1l2.1,0.75
		c-0.333-0.367-0.7-0.9-1.1-1.6l-4.35-0.8c0.367-0.633,0.917-0.95,1.65-0.95l2.1,0.4L95.2-95l2.05,1.25
		c0.333-0.067,0.567-0.283,0.7-0.65L96-95.25c-0.9-0.433-0.85-0.733,0.15-0.9l1.7,0.4c0.067-0.433,1.05-0.083,2.95,1.05l-0.35-1.3
		l-1.25-1.55c0.8,0.067,1.8,0.517,3,1.35c1.167,0.8,1.9,1.517,2.2,2.15c-0.433-1.167-1.067-2.333-1.9-3.5l-2.65-0.3
		c-0.967-0.167-1.6-0.483-1.9-0.95l1.9-0.4l1.5,0.15l-1.2-1.2l3.1-0.15l-1.9-0.85c-0.767-0.333-1.317-0.7-1.65-1.1
		c2.6-0.267,4.533,0.567,5.8,2.5c2.3,0.833,4.533,2.033,6.7,3.6l0.65,0.45c0.333-0.233,0.25-0.667-0.25-1.3
		c-0.767-0.9-1.217-1.617-1.35-2.15l2.4,2.4c1.1,1.167,1.633,2,1.6,2.5l0.9,0.4c0.767-0.033,1.133-0.283,1.1-0.75l-0.75-1.25
		l2.7,0.1c-0.833-3.467-1.3-5.867-1.4-7.2c-0.2-2.4,0.233-4.067,1.3-5c0.267-0.233,1.817,1.067,4.65,3.9
		c3.3,3.333,5.35,5.267,6.15,5.8l1.95,1.7l0.1-2.9c0.167-0.967,0.733-1.133,1.7-0.5l1.8,1.9l1.5,2.2l0.9,0.15
		c0.433-0.133,1.2,0.333,2.3,1.4c0.867,0.833,1.383,0.783,1.55-0.15c0.333,0.467,1.317,1.283,2.95,2.45
		c1.3,0.933,2.117,1.983,2.45,3.15c2.5,2.167,4.5,3.733,6,4.7l3.1,2.35l8.75,9.3c3.467,4.3,7.9,8.483,13.3,12.55l7.3,4.5
		c1.9,1.533,3.533,3.65,4.9,6.35l0.8,2.1c0.233,1,0.217,1.683-0.05,2.05c-0.433,0.567-0.5,1.517-0.2,2.85
		c0.333,1.333,0.367,2.217,0.1,2.65l-1.2,2.45c-0.467,0.867-1.083,1.417-1.85,1.65L181-33l-6.3,0.4
		c-1.033-0.667-1.767-1.367-2.2-2.1l-0.8-0.85l-0.65-0.5L159.8-40.4c-1.5-0.4-3.3-1.017-5.4-1.85c-1.733-0.7-3.15-1.133-4.25-1.3
		L138.1-44.5c-3.833-0.133-7.633-1.067-11.4-2.8h-0.3l-0.05,0.7c-6.267,11.867-10.9,21.333-13.9,28.4
		c-0.833,1.967-2.433,4.383-4.8,7.25l-8.1,8.6c-2.067,1.933-3.5,3.7-4.3,5.3C95.117,3.217,94.9,4.733,94.6,7.5
		c-0.267,2.867-1.333,6.333-3.2,10.4c2.1,0.4,4.983,1.283,8.65,2.65c4,1.467,6.917,2.417,8.75,2.85l14,2.2l0.2,0.1
		c1.933,0.133,3.367,0.75,4.3,1.85c0.9,1,1.6,2.75,2.1,5.25l1.15,5.8c0.533,1.633,1.933,4.583,4.2,8.85l4.6,8.9
		c0.5,0.967,0.65,1.783,0.45,2.45c-0.5,1.9-1.633,4.5-3.4,7.8c-1.667,3.1-2.6,5.217-2.8,6.35c-0.267,3.3-0.5,5.033-0.7,5.2
		l-1.15,4.4l-1.6,4.05l-0.35-0.1l1.15,1.1c1.167,1.133,2.767,2.35,4.8,3.65l2.95,2c1.267,0.867,2.45,2.133,3.55,3.8
		c1.567,2.3,3.067,4.2,4.5,5.7l5.9,4.55c3.133,2.6,4.4,4.367,3.8,5.3c-1.4,2.133-3.9,3.35-7.5,3.65c-3.4,0.267-6.3-0.317-8.7-1.75
		c-1.367-0.733-2-2.4-1.9-5c0.133-3.067-0.067-5-0.6-5.8c-0.667-0.667-1.4-0.867-2.2-0.6l-2.15,0.9
		c-0.467,0.1-1.283-0.283-2.45-1.15c-1.233-0.933-2.233-1.967-3-3.1c-0.867-1.267-1.967-3.267-3.3-6
		c-3.267-5.3-5.733-8.95-7.4-10.95c-3.233-3.933-6.817-6.75-10.75-8.45l-3.35-1.9c-1.167-0.967-2.533-2.483-4.1-4.55
		c-1.333-1.8-2.3-3.25-2.9-4.35l-2.25-4.5V59c-2.167-2.2-5.75-5-10.75-8.4L71.1,42.15l-7.85,0.4l-4.1-0.35
		c-2.967-1.467-5.85-3.483-8.65-6.05L32.65,35.4l-13.5-1.45c-8.6-1.1-16.433-3.217-23.5-6.35c-6.567-2.9-13.183-6.983-19.85-12.25
		c-1.633-0.9-2.75-1.483-3.35-1.75c-0.867,4.233-4.933,9.883-12.2,16.95l-22.35,21.4c-2,2-3.133,3.333-3.4,4l-0.55,1.25
		c0.333,1.067,0.5,2.05,0.5,2.95c-0.567,3.7,0.25,8.217,2.45,13.55c1.267,3.1,3.483,7.733,6.65,13.9
		c1.133,1.367,2.25,2.95,3.35,4.75c0.267,0.433,1.233,1.15,2.9,2.15l2.75,1.55c3.433,0.8,6.983,2.267,10.65,4.4
		c4.033,2.3,6.167,4.333,6.4,6.1c0.3,1.967-1.867,3.3-6.5,4c-4.5,0.7-8.35,0.417-11.55-0.85c-0.667-0.633-1-1.767-1-3.4
		c0-1.467-0.717-2.617-2.15-3.45c-0.567-0.167-1.25,0.067-2.05,0.7c-0.933,0.767-1.817,1.183-2.65,1.25
		c-1.1,0.133-2.733-0.85-4.9-2.95c-2.767-2.667-4.667-6.017-5.7-10.05l-1-3.95c-1.133-3.633-2.767-7.75-4.9-12.35l-2.9-5.9
		l-1.75-5.35c-0.567-2.2-1.05-3.85-1.45-4.95c-0.567-1.533-0.817-3.883-0.75-7.05c-2.267,1-4.917,1.95-7.95,2.85l-7.65,1.4
		c-5.067,0.933-8.083,1.617-9.05,2.05l-2.85,0.95c-4.167,1.233-7.9,4.283-11.2,9.15c-2.033,3-4.467,7.8-7.3,14.4l-2.45,5.3l-0.5,0.8
		l-1.8,4.5c-0.467,1.433-0.85,2.483-1.15,3.15l-2.95,4.75l-1.3,8.2c-0.867,4.533-2.2,8.15-4,10.85c-3.267-0.967-5.667-3.35-7.2-7.15
		c-1.3-3.2-1.783-6.7-1.45-10.5c0.433-0.833,1.433-1.5,3-2c1.433-0.4,2.333-1.417,2.7-3.05c0-0.6-0.417-1.167-1.25-1.7
		c-1-0.7-1.667-1.433-2-2.2c-0.267-0.633,0.633-2.067,2.7-4.3l7.8-9.1l1.3-2.15l5.8-12.6c2.433-7.467,4.333-12.6,5.7-15.4
		c2.233-4.567,5.583-7.45,10.05-8.65l5.55-3.4c1-0.8,3.117-3.083,6.35-6.85c1.167-2.467,2.05-4.6,2.65-6.4
		c1.1-3.333,1.267-6.867,0.5-10.6c-0.4-2.2-0.7-4.883-0.9-8.05c-3.333-7.433-5.333-14-6-19.7c-0.6-4.933-0.283-10.117,0.95-15.55
		l-2,1.35c-2.633,1.733-5.667,3.433-9.1,5.1c-3.3,1.633-6.5,2.983-9.6,4.05l-2.55,0.75c-5.633,2.667-11.183,5.05-16.65,7.15
		c-6.367,2.333-13.567,3.8-21.6,4.4l-5.95,0.3c-2.967-0.233-6.433-0.3-10.4-0.2l-1.75-0.3l-8.6-0.05l2.55-0.05
		c0.3,0,0.167-0.033-0.4-0.1c-0.567-0.067-0.717-0.117-0.45-0.15h6.05v-0.15l-9.5-0.2c-0.467-0.067-0.467-0.133,0-0.2h1.85l0.15-0.1
		c1.433-0.667,3.467-1.35,6.1-2.05l-4.6-0.05c-0.6,0-0.9-0.067-0.9-0.2h-1.45L-198.4-7l5.45-2.45l-7.45-0.15l8.05-0.1l0.55-0.2
		l-1.25-0.15h-0.8l0.2-0.15h0.2l-4.4-0.9c-0.6,0.267-1.183,0.417-1.75,0.45c0.367-0.033,0.9-0.2,1.6-0.5l-5.4-0.7l2.4,0.15
		c0.3,0,0.167-0.067-0.4-0.2c-0.567-0.133-0.717-0.2-0.45-0.2l4.35,0.7l0.15-0.1l-7.95-1.2l4.25,0.15l4.35,0.75l0.55-0.3
		c0.967-0.567,2.4-0.883,4.3-0.95l-1.35-0.2l-0.4-0.25l-3.8-0.6h-0.1l-1.05-0.2L-201.85-14.35z M-199.1-16.1l-0.25,0.1l2,0.2v-0.15
		L-199.1-16.1z M-192.35-14.45l3.15,0.1v-0.15l-3.9-0.1L-192.35-14.45z M-188.45-14l-1.55-0.05l5.1,0.85h0.15l0.05-0.15l-1.5-0.2
		v-0.15h-0.7L-188.45-14z M-189.1-16.35h0.15l-0.25-0.05l0.3,0.05l3.85-0.2l-0.05-0.15l-1.7,0.15l-0.05-0.3l2.15-0.15l-9.05-0.2
		L-189.1-16.35z M-189.75-12.65h-1c-0.5,0.033-0.75-0.033-0.75-0.2l-2.35,0.25l-2.35,0.75l0.25,0.05l-0.3-0.05l-0.15,0.1l2.35,0.4
		l-0.7-0.25l6.05,0.65l2.85-0.75L-189.75-12.65z M-208.9-16.65c-1.033,0.6-2.133,1.4-3.3,2.4c1.933-0.6,3.917-0.95,5.95-1.05
		c1.767-1,4.267-1.417,7.5-1.25l0.1-0.05l-1.25-0.15l1.3,0.1l1.5-0.55l-3.3-0.25l-0.8-0.2C-204.2-17.583-206.767-17.25-208.9-16.65z
		 M88.1-81.1l4.05,3L92.6-79l-1.4-0.8C90.4-80.333,89.367-80.767,88.1-81.1z"/>
</g>
</svg>
