<?xml version="1.0" encoding="utf-8"?>
<!-- Generator: Adobe Illustrator 17.0.0, SVG Export Plug-In . SVG Version: 6.00 Build 0)  -->
<!DOCTYPE svg PUBLIC "-//W3C//DTD SVG 1.1//EN" "http://www.w3.org/Graphics/SVG/1.1/DTD/svg11.dtd">
<svg version="1.1" id="图层_1" xmlns="http://www.w3.org/2000/svg" xmlns:xlink="http://www.w3.org/1999/xlink" x="0px" y="0px"
	 width="400px" height="232px" viewBox="0 0 400 232" enable-background="new 0 0 400 232" xml:space="preserve">
<g transform="translate(207.45,106.784)">
	<path fill="#BDF109" d="M-153.65-27.85l-1.25,0.65l-0.1-0.2l-1.25,0.65l2.4-0.7C-153.45-27.75-153.383-27.883-153.65-27.85z
		 M-179.2-11.1l4.95,0.25l4.75-0.4c0.433-0.1,0.5-0.2,0.2-0.3l-1.5,0.15v-0.2L-179.2-11.1z M-177.5-8.2l-1.15-0.05l0.05-0.25
		l3.4,0.05l-2.5-0.25l-0.85-0.2l-2.5,0.65L-177.5-8.2z M-178.3-10.6v-0.1l-1.5-0.25l0.05-0.15h-0.7l-1.55-0.3l-1.55-0.05l5.1,0.85
		H-178.3z M-176-6.2l-0.4-0.1l-6.45,1.8l6.8,0.05l-0.7-0.1c4.367,0,8.1-0.083,11.2-0.25v-0.15l-1.7,0.1l-0.05-0.3l8.25-0.6
		c3.3-0.367,4.533-0.633,3.7-0.8l-1.7,0.2l-0.05-0.2l-11.05,0.5v-0.2l1.35-0.05l-3.7,0.05C-173.533-6.117-175.367-6.1-176-6.2z
		 M-184.7-4.45l1.8-0.05l1.7-0.55c0.233-0.1,0.1-0.1-0.4,0c-0.5,0.067-0.633,0.05-0.4-0.05l4.6-1.3l-0.4-0.05L-184.7-4.45z
		 M-190.9-8.85l-2.5-0.325l2.3,0.375L-190.9-8.85z M-190.65-8.85l-0.2,0.1l1.5,0.3l0.05-0.15L-190.65-8.85z M-188.85-11.75
		l-0.55-0.1l-0.4,0.1l0.95,0.1V-11.75z M-184.85-7.25l-0.45,0.15l1.9,0.05V-7.1L-184.85-7.25z M-183.3-10h-1.05
		c-0.5,0-0.75-0.067-0.75-0.2l-2.35,0.2l-2.35,0.75l-0.2,0.1l2.4,0.4L-188.35-9l-0.25-0.05l6.35,0.75l2.8-0.8L-183.3-10z
		 M-182.75-11.75v-0.15l-3.95-0.1l0.75,0.15L-182.75-11.75z M-195.4-11.75l2.1-0.05l0.1-0.05l-1.65-0.3L-195.4-11.75l-2,1.35
		l2.35-1.8h-0.1l-0.6-0.1c-1.6,0-2.033-0.067-1.3-0.2h-2.55c-0.7,0.233-0.883,0.233-0.55,0l-5.7,0.95l-1.6,1.45l1.4-1.4l-0.55,0.15
		l0.6-0.2l2.8-2.25l-0.55,0.2l0.65-0.25c1.767-1.133,3.65-1.95,5.65-2.45l1.9-0.2c-1.033-0.233-1.217-0.35-0.55-0.35l9.15,0.75
		l-0.4-0.05l0.9,0.05l8.7-0.4v-0.2c1.8-0.067,4.233-0.733,7.3-2c3.167-1.3,4.183-1.883,3.05-1.75l-1.45,0.65l-0.1-0.2
		c-2.533,1.2-5.283,1.983-8.25,2.35l-3.95,0.6l2.6-0.45h-0.1v-0.2l1.85-0.25l0.05-0.05l-3.45,0.15l-12.45-0.85
		c-0.567-0.067-0.817-0.167-0.75-0.3l-4.95-0.35l-4.3,1.3l1.9-0.75l3-0.8l14.45,1.2c3.2,0.067,6.167-0.267,8.9-1
		c1.1-0.267,2.483-0.783,4.15-1.55l4.45-2l0.7-0.25l12.65-7.1l4-1.85c-0.867,0.1-0.667-0.067,0.6-0.5
		c5.867-1.667,12.317-2.617,19.35-2.85l7-0.35V-36l2.1-0.1v0.15h1.35l0.05,0.1l4.05-0.4l0.05,0.15l2.7-0.4v0.15l0.65-0.25
		l12.65-1.55l-0.5,0.35c-0.233,0.133-0.067,0.2,0.5,0.2l2.9,0.2c1.3-1.8,2.783-3.533,4.45-5.2l4.6-3.65
		c1.933-1.267,3.717-2.15,5.35-2.65l12.05-3.75c4.8-1.367,9.033-2.183,12.7-2.45c5.667-0.4,12.333-0.033,20,1.1l21.6,3.35l31.8,2.85
		l8.1,0.3l4.8-0.25c5.533-0.333,11.783-1.617,18.75-3.85c9.533-3.067,15.233-4.817,17.1-5.25c-0.367-0.367-0.95-0.667-1.75-0.9
		l-0.7-0.2L60.9-58.4c-1.167-0.233-2.167-0.55-3-0.95h7.3l0.95-0.1c-0.2,0-0.333-0.117-0.4-0.35L66-60.3l1.85-0.2
		c1.967-0.133,2.917-0.983,2.85-2.55l-0.85-0.25l-4.4-0.45L62.4-63.4c0.785-0.135,1.952-0.568,3.5-1.3c1.567-0.733,2.9-0.867,4-0.4
		l0.7,0.55l0.85,0.3l1.95,0.05c0.633-0.2,1.217-0.7,1.75-1.5c-0.1-0.333-0.383-0.55-0.85-0.65l-2.45-0.2L70.6-66.5l0.35-0.7
		l0.7-0.15h0.75l1.55-0.2l5.75,0.2c1.567-0.067,2.7-0.4,3.4-1c-1.333-0.033-2.267-0.583-2.8-1.65L80-70.75l-0.1-2.6
		c-0.467-0.933-0.633-1.55-0.5-1.85c0.067-0.267,0.35-0.35,0.85-0.25l0.95,0.15c0.867,0.3,2.283,0.117,4.25-0.55
		c1.933-0.667,3.417-0.833,4.45-0.5c-0.767-1.533-1.967-2.067-3.6-1.6c-2.3,0.6-3.767,0.8-4.4,0.6l9-3
		c-1.133-1.133-2.8-1.383-5-0.75l-3.2,0.75l1.35-0.4l3.4-1.45c2.833-1.1,5.1-0.483,6.8,1.85l0.5,0.1l0.2-1.05v-0.9
		c-0.367-1.067-0.883-1.75-1.55-2.05l-2.05-0.2l1.9-1.55l2.7,0.05c1.2,0.1,2.183-0.033,2.95-0.4h-6.95l0.7-0.25l0.7-0.55l-1.2-0.2
		H90.9c0.2-1,0.783-1.683,1.75-2.05l0.9-0.2L94-89.55l0.8-1.3l0.5-0.65c0.933-1.367,2.8-2.1,5.6-2.2c2.967-0.1,4.85-0.55,5.65-1.35
		l1.1-0.3l2.3-0.35l2.45,0.7l0.7,0.45c0.2-0.167,0.267-0.35,0.2-0.55l-1-1.35c-0.2-0.433-0.283-0.683-0.25-0.75l0.45,0.25l0.7,0.7
		c1.567,1.567,2.317,2.617,2.25,3.15l0.9,0.4c0.6-0.033,0.717-0.35,0.35-0.95c-0.333-0.633-0.233-1,0.3-1.1l2.5,0.25
		c-0.4-1.767-0.667-3.8-0.8-6.1c-0.167-3.333,0.217-5.383,1.15-6.15c0.333-0.267,1.933,1.05,4.8,3.95l5.05,5.5l2.4,1.9l0.1-2.9
		c0.167-0.967,0.733-1.133,1.7-0.5l1.8,1.9l1.45,2.2l0.9,0.15c0.467-0.133,1.25,0.333,2.35,1.4c0.833,0.833,1.333,0.783,1.5-0.15
		c0.333,0.467,1.333,1.283,3,2.45c1.3,0.9,2.117,1.95,2.45,3.15c2.333,2.067,4.333,3.633,6,4.7l3.05,2.35l8.8,9.3
		c3.467,4.3,7.9,8.483,13.3,12.55c3.733,2.1,6.15,3.6,7.25,4.5c1.933,1.533,3.583,3.65,4.95,6.35c1,2.1,1.233,3.483,0.7,4.15
		c-0.433,0.567-0.483,1.517-0.15,2.85c0.3,1.333,0.317,2.217,0.05,2.65l-1.15,2.45c-0.5,0.867-1.133,1.417-1.9,1.65l-7,2.45
		l-6.35,0.4c-0.967-0.633-1.7-1.333-2.2-2.1l-0.8-0.85l-0.65-0.5L160-39.15c-1.533-0.4-3.333-1.017-5.4-1.85
		c-1.7-0.7-3.1-1.133-4.2-1.3l-12.05-0.95c-3.867-0.133-7.683-1.067-11.45-2.8h-0.25l-0.1,0.7c-6.6,12.633-11.217,22.1-13.85,28.4
		c-0.833,1.967-2.433,4.383-4.8,7.25l-3.8,4.25c-0.433,0.633-1.867,2.083-4.3,4.35c-2.067,1.933-3.5,3.7-4.3,5.3
		c-0.133,0.3-0.35,1.85-0.65,4.65c-0.3,2.9-1.417,6.433-3.35,10.6l0.15,0.1c2.333,0.6,5.35,1.8,9.05,3.6
		c4.333,2.133,7.35,3.5,9.05,4.1l13.7,3.6l1.35,0.8l1.45,1.4c0.7,0.233,1.25,0.533,1.65,0.9c1.033,0.867,2.017,2.467,2.95,4.8
		L133,44.3c0.8,1.5,2.667,4.183,5.6,8.05l6.05,8c0.633,0.867,0.917,1.633,0.85,2.3c-0.167,1.9-0.85,4.683-2.05,8.35
		c0.067,2.333,0.267,3.967,0.6,4.9l1.9,4.9l1.15,4.4l0.6,4.3l-4.05-0.2c-1.8-0.467-3.683-1.217-5.65-2.25
		c-2.433-1.3-4.183-2.667-5.25-4.1c-0.067-1.567,0.517-3.383,1.75-5.45c1.3-2.267,2.017-4.017,2.15-5.25V71.3
		c0.133-1.333-0.433-2.35-1.7-3.05l-2.9-1.75c0.433-3.567-0.4-7.717-2.5-12.45c-2-4.5-4.317-7.767-6.95-9.8l-3.25-1.65
		c-0.433-0.233-0.833-0.533-1.2-0.9l-10.9-0.55l-18.7,0.5c-0.567,2.533-0.417,5.433,0.45,8.7l2.6,8.35l3.2,3.9
		c0.533,0.733,1.467,2.6,2.8,5.6l6.9,14.2c1.767,3,3.85,7.033,6.25,12.1l1.1,1.4c2.167,2.833,4.567,5.417,7.2,7.75
		c0.7,0.5,1.65,1.733,2.85,3.7c0.967,1.6,2.8,2.967,5.5,4.1c1.367,0.567,3.367,2.017,6,4.35c3.1,2.667,4.317,4.5,3.65,5.5
		c-1.4,2.133-3.9,3.35-7.5,3.65c-3.4,0.267-6.3-0.317-8.7-1.75c-1.367-0.733-2-2.4-1.9-5c0.133-3.067-0.067-5-0.6-5.8
		c-0.667-0.667-1.4-0.867-2.2-0.6c-0.9,0.5-1.617,0.8-2.15,0.9c-0.467,0.1-1.283-0.283-2.45-1.15c-1.233-0.933-2.233-1.967-3-3.1
		c-0.933-1.3-1.867-3.267-2.8-5.9c-2.667-5.9-4.683-9.933-6.05-12.1c-2.767-4.4-6.017-7.733-9.75-10c-1.367-0.8-2.4-1.567-3.1-2.3
		c-1.067-1.1-2.233-2.767-3.5-5l-2.15-4.2l-1.25-3.65c-1.467-2.833-4.35-6.9-8.65-12.2c-4.8-5.967-7.967-10.183-9.5-12.65l-2.1-3.55
		l-1.55-0.75H58.1c-6.733,1.767-15.133,1.933-25.2,0.5L19.4,35.2c-8.633-1.1-16.483-3.217-23.55-6.35
		c-6.533-2.867-13.133-6.95-19.8-12.25c-1.767-1-3.433-1.833-5-2.5L-29.1,14c-2.067,3.767-6.417,8.767-13.05,15l-15.8,15l-4.45,3.75
		c-2.367,1.9-3.7,3.15-4,3.75c-0.833,1.6-1.8,2.983-2.9,4.15c-1.033,1.4-1.867,2.883-2.5,4.45l-1.65,4.75
		c-1.633,2.9-2.483,6.75-2.55,11.55c-0.033,2.433,0.25,6.85,0.85,13.25c0.7,2.933,1.217,6.4,1.55,10.4c0.033,0.567,0.8,1.9,2.3,4
		c3.733,2.133,6.7,4.1,8.9,5.9c3.033,2.533,4.233,4.55,3.6,6.05c-0.833,2.033-3.867,2.967-9.1,2.8c-5.333-0.167-8.967-1.5-10.9-4
		c-0.267-0.9,0.033-2.05,0.9-3.45c0.733-1.267,0.683-2.617-0.15-4.05c-0.3-0.367-0.7-0.55-1.2-0.55l-2.15,1.05l-2.65-0.2
		c-0.733-0.333-1.35-2.2-1.85-5.6c-0.567-3.933-0.55-7.917,0.05-11.95l0.35-1.8c0.133-3.6,0.05-7.7-0.25-12.3l-0.55-5.9
		c-0.033-1.767,0.067-3.65,0.3-5.65l0.4-5.1c0.033-2.033,0.883-4.883,2.55-8.55v-0.8c-0.1-0.467,0.033-1.117,0.4-1.95
		c-1.5,0.7-3.017,1.267-4.55,1.7l-21.15,7.55v-0.1c-5.133,1.267-10.683,3.883-16.65,7.85c-5.4,3.567-10.067,7.5-14,11.8l-0.65,0.55
		l-1.9,2.35l-0.2,0.2l-1.25,2.2c-1.833,2.8-3.167,5.1-4,6.9l-2.9,5.75c-0.667,1-1.517,1.7-2.55,2.1l-0.1-0.05
		c-0.933,0.433-1.5,0.867-1.7,1.3c-3.3,7.3-7.7,12.317-13.2,15.05c-2.367-2.433-3.283-5.683-2.75-9.75
		c0.467-3.433,1.783-6.717,3.95-9.85c0.8-0.533,1.817-0.65,3.05-0.35c1.167,0.3,2.217,0.05,3.15-0.75
		c-0.067-0.4-0.467-0.933-1.2-1.6c-0.833-0.7-1.383-1.433-1.65-2.2c-0.2-0.667,0.817-2,3.05-4l8.55-8.25l-0.15-0.05l16.7-17.9
		l7.6-9.95c2.667-3.5,5.1-5.8,7.3-6.9c1.167-0.567,2.683-0.85,4.55-0.85c3.5-1.933,5.867-3.367,7.1-4.3c2.1-1.6,4.667-4.15,7.7-7.65
		c1.167-2.467,2.05-4.6,2.65-6.4c1.1-3.333,1.267-6.867,0.5-10.6l-0.8-6.6c-3.533-11.233-4.5-20.817-2.9-28.75
		c-5.367,3.267-10.95,5.9-16.75,7.9l-2.6,0.75c-5.267,2.567-10.8,4.95-16.6,7.15c-6.367,2.3-13.567,3.767-21.6,4.4l-6,0.35
		c-3.267-0.267-6.733-0.35-10.4-0.25l-1.7-0.3h-8.65l2.6-0.05c0.3-0.033,0.15-0.083-0.45-0.15c-0.533-0.1-0.667-0.15-0.4-0.15h6V-4
		l-9.45-0.25c-0.467-0.067-0.467-0.117,0-0.15l1.8-0.05l0.15-0.1c1.7-0.733,3.75-1.417,6.15-2.05l-4.65-0.05l-0.85-0.2h-1.5l-6,2.45
		l5.45-2.45L-193.95-7l8.05-0.1l0.55-0.2l-1.3-0.15l-0.75,0.05l0.15-0.2h0.2L-188.5-8l-2.9-0.5l-0.675,0.175
		c0.157-0.066,0.316-0.141,0.475-0.225l-5.55-0.7l2.55,0.15c0.3,0,0.167-0.067-0.4-0.2c-0.296-0.074-0.471-0.124-0.525-0.15
		l-3.325-0.45c-0.4-0.067-0.4-0.133,0-0.2l4.2,0.15l4.4,0.75l0.15-0.1l-0.45-0.1l0.5,0.1l0.3-0.15c0.933-0.6,2.367-0.933,4.3-1
		l-1.3-0.2l-0.45-0.25l-3.75-0.6h-0.15l-1.05-0.2L-195.4-11.75z M-193.1-13.55l-3.275,0.325l3.075-0.175L-193.1-13.55z
		 M-197.35-12.75l1.9,0.1l1.05-0.05l0.6-0.4L-197.35-12.75l1.4-0.3c0.267-0.067,0.133-0.083-0.4-0.05
		c-0.453,0-0.628-0.025-0.525-0.075L-197.6-13.1l-1.25,0.35H-197.35z M-182.65-13.7h0.15l-0.3-0.1l0.35,0.1l3.8-0.25v-0.15
		l-1.75,0.15v-0.3l2.1-0.15l-9.05-0.2L-182.65-13.7z M-188.85-12.6l-4.6-0.5c-0.2,0.167-0.417,0.317-0.65,0.45l4.9,0.4l0.4-0.1
		l0.5-0.05L-188.85-12.6z M-192.15-14l1.45-0.6l-3.3-0.25l-0.8-0.2c-3,0.067-5.567,0.417-7.7,1.05l-3.3,2.4
		c1.933-0.633,3.933-1,6-1.1c1.7-1.033,4.183-1.45,7.45-1.25l0.15-0.05H-192.15z M-190-14.5l-1.65,0.55l6.9,0.3L-190-14.5z
		 M-190.95-13.2l0.05-0.15l-1.8-0.15l-0.2,0.1L-190.95-13.2z M83.1-72c0.133-0.333,0.1-0.633-0.1-0.9l-0.45-0.4l-2.2-0.05l0.75,1.45
		l0.5,0.5c1.033,0.933,2.083,1.65,3.15,2.15l-2.55-2.9L83.1-72z M92.85-77.75c-0.267-0.067-0.567-0.217-0.9-0.45l-0.85-0.05
		c-0.067,0.067-0.017,0.3,0.15,0.7l1.1,0.7L92.85-77.75z M95.7-91.05l-0.65,0.45l-1,1.05L95-89.5l0.55-0.6
		c0.9-0.833,2.167-1.2,3.8-1.1l3.55-0.15l-3.5-0.35L95.7-91.05z M79.9-75.35c-0.4,0.4-0.4,0.85,0,1.35V-75.35z"/>
</g>
</svg>
