<?xml version="1.0"?>
<!DOCTYPE svg PUBLIC "-//W3C//DTD SVG 1.1//EN" "http://www.w3.org/Graphics/SVG/1.1/DTD/svg11.dtd">
<svg version='1.1' width='408px' height='239px' xmlns='http://www.w3.org/2000/svg' xmlns:xlink='http://www.w3.org/1999/xlink'>
	<g transform="translate(216.1,107.979)">
		<path d="M -169.25 -5.5 L -164.3 -5.2 Q -161.3 -5.15 -162.25 -5.45 L -162.6 -5.5 Z M -178.95 -15.9 L -178 -16.2 L -181.35 -16.25 Z M -182.15 -16.4 L -182.15 -16.5 L -180.35 -16.5 L -181.95 -16.6 L -182.55 -16.55 L -182.1 -16.6 L -186 -17.05 Z M -185.35 -10.3 Q -185.9 -10.35 -185.9 -10.5 L -185.05 -10.45 L -185.95 -10.65 L -187.8 -11.3 L -190.75 -11.05 L -191.6 -11.15 L -192.1 -11.05 L -190.35 -10.6 Z M -186.75 -9.85 L -186.75 -10 L -187.95 -10.05 L -187.15 -9.85 Z M -196 -17.9 L -194.25 -18.05 L -198.2 -18.5 Z M -193.1 -12.95 L -193.25 -12.95 L -196.9 -12.4 L -192.7 -11.2 L -188.9 -11.65 Z M -198.85 -17.15 L -199.25 -17.05 L -198.85 -17.1 Z M -190 -15.35 L -189.8 -15.35 L -192.05 -16.1 L -198 -16.75 L -200.55 -16.65 L -201.85 -16.15 Q -198.75 -16.25 -196.35 -15.25 L -196.2 -15.3 L -196.1 -15.3 Q -194.1 -15.55 -189.5 -15.2 Z M -187.85 -13.15 L -187.8 -13.4 L -185.8 -12.95 L -181.15 -12.6 Q -184.45 -13.25 -184.3 -13.5 L -185.1 -13.7 L -188.55 -13.9 L -190.1 -14.3 L -193.6 -14.5 L -188.75 -13.15 L -187.75 -13.1 Z M -190.85 -14.7 L -190.85 -14.85 L -195.05 -14.95 L -194.75 -14.9 Z M -188.1 -17.1 L -188.1 -17.25 L -192.65 -17.55 L -186.35 -16.7 L -186.35 -16.8 Z M -189.3 -18.85 L -190.6 -19.15 L -194.95 -19.7 Q -198.05 -19.95 -201.05 -19.7 L -194.35 -19.05 L -194.9 -19.2 L -195.3 -19.25 Z M -185.95 -19.1 L -185.95 -19.15 Q -182.45 -19.05 -178.15 -19.25 Q -173.45 -19.45 -174.6 -19.75 L -176.25 -19.7 L -176.25 -19.9 L -180.45 -19.9 L -181.5 -19.75 L -182.2 -19.9 L -188.95 -19.55 Z M -203.3 -18.5 L -209.75 -17.7 L -214.35 -15.05 Q -211.25 -15.85 -207.6 -16 Q -203.85 -17.65 -197.9 -17.65 L -197.8 -17.7 Q -198 -17.7 -198 -17.8 L -197.15 -17.8 Z M -203.8 -15.1 L -201.6 -15.3 Q -201.25 -15.35 -201.8 -15.4 L -202.5 -15.55 L -203.1 -15.55 L -203.8 -15.1 L -206.15 -13.55 L -203.35 -15.55 L -204.3 -15.6 Q -206.35 -15.6 -205.5 -15.8 L -205.55 -15.8 L -206.25 -15.55 L -205.6 -15.8 L -207.15 -15.8 L -208.4 -15.6 L -208.1 -15.75 L -214.45 -15 L -216.1 -13.65 L -214.7 -14.95 L -215.2 -14.85 L -214.6 -15 L -210.7 -17.55 L -212.4 -17.15 L -210.45 -17.65 Q -207.55 -19.05 -204.05 -19.7 Q -205.3 -20.05 -204.6 -20.05 L -203.05 -19.9 L -194.25 -20.15 L -189.1 -19.6 L -183.8 -19.95 L -186.7 -20.1 L -186.7 -20.3 L -184.6 -20.25 L -201.15 -21.9 Q -201.9 -22 -201.9 -22.2 L -204.1 -22.5 Q -205.35 -22.7 -206.95 -22.5 L -211.6 -21.55 L -206.55 -22.75 L -191.5 -21.45 Q -181.85 -20.8 -173.5 -21.5 Q -165.25 -23.2 -157.75 -26.05 L -153.95 -27.6 Q -154.45 -27.55 -154.2 -27.7 L -153.4 -28.1 L -129.3 -37.1 L -129.35 -37.25 L -128.55 -37.45 L -127.35 -37.9 L -127.3 -37.75 L -125.8 -38.15 L -125.75 -38 L -121.7 -39.25 L -121.65 -39.1 L -118.9 -39.9 L -118.85 -39.8 L -118.2 -40.05 L -115.4 -40.7 L -105.45 -41.85 L -105.95 -41.5 Q -106.25 -41.3 -105.4 -41.25 L -102.65 -41.1 L -102.6 -41.2 Q -101.1 -43.65 -97.9 -44.8 Q -96.8 -45.25 -95.25 -46.1 L -92.6 -47.45 Q -87.15 -50.05 -81.1 -51.9 L -69 -55.65 Q -61.8 -57.7 -56.3 -58.1 Q -47.8 -58.7 -36.3 -57 L -14.7 -53.65 L 17.05 -50.8 L 25.15 -50.5 L 30 -50.75 Q 38.3 -51.25 48.7 -54.6 Q 63 -59.2 65.8 -59.85 Q 64.9 -60.7 61.85 -61.2 Q 58.8 -61.7 57.85 -62.5 L 65.525 -62.5 Q 65.3602 -62.5598 65.3 -62.8 Q 65.15 -63.25 65.8 -63.4 L 68.4 -63.65 Q 70.3 -64.15 70.25 -66.05 Q 66.25 -67.05 64.05 -68.7 Q 66 -69.1 70.1 -67.55 Q 73.1 -66.4 74.65 -68.7 Q 74.4 -69.45 72.35 -69.5 Q 70.35 -69.55 70.25 -70.5 Q 71.25 -70.65 77 -70.4 Q 81.25 -70.2 82.65 -71.35 Q 80.65 -71.4 79.85 -73 Q 79.25 -74.15 79.1 -76.7 Q 80.95 -73.85 84.3 -72.25 L 81.75 -75.15 L 82.6 -75 Q 82.9 -75.7 82.1 -76.3 L 79.65 -77.65 L 78.75 -78.8 L 84.4 -78.45 Q 84.7 -79.25 87.15 -79.25 Q 89.5 -79.2 89.7 -80.2 Q 89.1 -81.7 86.45 -81.75 L 83.5 -82 Q 84.8 -83.15 85.8 -83.3 L 85.65 -83.35 L 90.95 -83.8 Q 90.1 -84.75 89.7 -85.55 L 84.7 -85.8 Q 82.4 -86.4 81.75 -88.2 Q 83.45 -86.9 85.45 -86.6 Q 87.65 -86.25 89.7 -87.3 Q 92.05 -85.55 93.75 -83.35 L 94.25 -83.25 Q 94.85 -85.2 94 -86.75 L 92.85 -88.2 L 92.15 -88.65 Q 92.2 -88.8 92.4 -88.8 L 91.4 -89.9 Q 91.1 -90.45 91.5 -90.85 Q 93.45 -90.7 94.3 -88.75 L 93.05 -92.3 Q 95.45 -90.9 97.2 -90.65 L 99.95 -90.05 Q 97.5 -92.25 92.35 -93.5 L 94.85 -93.6 L 96.95 -92.85 L 95.85 -94.45 L 91.5 -95.25 Q 92.05 -96.2 93.15 -96.2 L 95.25 -95.8 L 94.95 -96.75 L 97 -95.5 Q 97.5 -95.6 97.7 -96.15 L 95.75 -97 Q 94.4 -97.65 95.9 -97.9 L 97.6 -97.5 Q 97.7 -98.15 100.55 -96.45 L 100.2 -97.75 L 98.95 -99.3 Q 100.15 -99.2 101.95 -97.95 Q 103.7 -96.75 104.15 -95.8 Q 103.5 -97.55 102.25 -99.3 L 99.6 -99.6 Q 98.15 -99.85 97.7 -100.55 L 99.6 -100.95 L 101.1 -100.8 L 99.9 -102 L 103.05 -102.15 L 101.1 -103 Q 99.95 -103.5 99.45 -104.1 Q 103.35 -104.5 105.25 -101.6 Q 108.7 -100.35 111.95 -98 L 112.6 -97.55 Q 113.1 -97.9 112.35 -98.85 Q 111.2 -100.2 111 -101 L 113.4 -98.6 Q 114.718 -97.2023 114.95 -96.45 L 114.9 -96.8 Q 114.6 -97.55 114.75 -97.5 Q 115.25 -97.45 115.6 -97.05 L 116.7 -96.9 L 117.85 -97 Q 119.05 -97.05 118.95 -97.55 Q 118.15 -103.25 118.1 -104.9 Q 118 -107.6 119 -107.95 Q 120 -108.3 124.05 -104.4 Q 127.8 -100.75 128.95 -98.9 Q 129.85 -97.45 131.7 -97.85 L 131.75 -101 Q 132 -102.75 133.4 -101.8 L 135.2 -99.9 L 136.7 -97.7 L 137.6 -97.55 Q 138.25 -97.75 139.9 -96.15 Q 141.2 -94.9 141.45 -96.3 Q 141.95 -95.6 144.4 -93.85 Q 146.35 -92.45 146.85 -90.7 Q 150.6 -87.45 152.85 -86 L 155.95 -83.65 L 164.7 -74.35 Q 169.9 -67.9 178 -61.8 L 185.3 -57.3 Q 188.15 -55 190.2 -50.95 L 191 -48.85 Q 191.35 -47.35 190.95 -46.8 Q 190.3 -45.95 190.75 -43.95 Q 191.25 -41.95 190.85 -41.3 L 189.65 -38.85 Q 188.95 -37.55 187.8 -37.2 Q 182.3 -35.2 180.75 -34.75 L 174.45 -34.35 Q 172.9 -35.35 172.25 -36.45 L 171.45 -37.3 L 170.8 -37.8 L 154.15 -44 Q 151.55 -45.05 149.9 -45.3 L 137.85 -46.25 Q 132.1 -46.45 126.45 -49.05 L 126.15 -49.05 L 126.1 -48.35 Q 116.7 -30.55 112.2 -19.95 Q 110.95 -17 107.4 -12.7 L 99.3 -4.1 Q 96.2 -1.2 95.05 1.2 L 94.25 6.75 Q 93.4 12.25 88.75 21 Q 87.8 22.8 85.85 24.65 L 94.55 29.6 Q 100.5 32.8 103.5 34.8 Q 104.55 35 107 36.35 L 110.6 38.4 Q 113.95 40.2 116.8 43.5 L 122.2 51.15 Q 126 55.85 130.8 62.95 L 137.85 71.2 Q 139.2 72.6 139.2 73.1 Q 139.7 75.2 139 78.25 Q 138.15 82.05 138.25 85.5 Q 138.3 86.4 139.65 92.75 Q 140.6 98.8 138.95 99.25 Q 135.3 100.25 130.95 97.05 Q 126.85 94 125.55 90 Q 124.75 87.85 127.45 85 Q 130.65 81.65 130.85 80.25 Q 130.75 78.8 129.6 78.35 L 127.4 77.6 Q 126.95 77.35 126.4 75.15 L 125.1 71.1 L 124.8 70.4 Q 121.7 63.75 118.35 59.6 Q 113.75 54 107.55 51.5 Q 106.35 51 105.05 50.1 L 97.85 45.45 L 96.5 45.25 L 97.6 46.3 Q 99.65 48.85 99.65 52.15 Q 98.65 54.25 95.25 58.25 L 92.75 61.4 Q 91.25 63.5 88.15 70.05 L 83.8 79.1 Q 83 80.55 82.1 80.9 Q 79.35 82 73.8 82.85 Q 68.55 83.65 67 84.4 Q 62.8 87.05 62.45 86.95 L 58.25 88.65 L 54 89.8 Q 53.4 88.1 53.65 85.8 Q 54 83 55.2 79.85 Q 56.65 76 58.55 74.15 Q 60.85 73.75 64.45 75.25 Q 68.2 76.8 70.35 76.55 Q 72.25 75.95 72.3 73.9 Q 72.35 71.05 72.55 70.65 Q 76.55 69.2 80.6 64.95 Q 84.35 61 86.55 56.45 Q 84.05 54.9 78.45 54.45 L 69.05 53.65 L 57 50.95 Q 52.45 49.8 50 49.65 Q 45.1 49.45 38.7 47.7 Q 33.2 46.2 32.4 45.45 Q 28.9 42.1 29.65 39.55 Q 31.3 36.9 31.6 35.25 Q 31.65 34.65 32.05 33.55 Q 29.85 32.85 25.85 32.65 L 18.9 32.2 Q 6 30.55 -4.6 25.85 Q -14.45 21.5 -24.45 13.6 Q -27.2 12.05 -29.45 11.1 Q -33.15 9.45 -36.05 9.45 Q -35.65 16.55 -37.4 23.1 Q -37.05 27.8 -39.85 34.65 Q -40.95 37.4 -46.95 49.4 L -49.65 54.3 Q -51.7 58 -51.8 59.1 L -52.25 62.2 Q -53.15 67.55 -49.35 75.5 Q -47.2 80.05 -42 89.2 Q -40.1 91.65 -37.75 96.15 L -30.7 107.25 Q -27 113.35 -25.95 118.15 Q -30.35 120.75 -36.1 118.45 Q -40.9 116.5 -44.7 112.2 Q -45.15 110.9 -44 108.7 Q -43 106.75 -44.4 104.65 Q -45.05 104.05 -46.5 104.35 L -49.45 104.3 Q -50.85 103.8 -52.4 100.3 Q -54.2 96.3 -54.85 90.9 L -55.1 89.9 Q -56.7 84.4 -59.75 77.45 L -62.55 71.5 L -65.55 61.15 Q -66.65 58.05 -66.25 55.8 L -66.25 54.55 L -66.3 54.45 L -66.25 54.5 Q -65.95 53 -63.65 50.3 Q -61.5 47.75 -61.5 46.65 L -61.8 44 L -64.45 45.55 L -70.3 50.75 Q -73.6 53.45 -78.25 56.2 L -84.8 59.95 Q -91.2 63.65 -92.45 64.65 Q -97.85 68.95 -98.55 78.25 Q -99 84.3 -97.3 95.55 L -96.85 99.95 L -95.2 105.6 Q -94 109.4 -94.05 111.15 Q -94.1 112.35 -94.8 114.2 Q -95.2 115.3 -94.5 116.5 Q -90.3 123.75 -89.65 126.45 Q -88.55 131.15 -93.85 131 Q -97.95 130.85 -102.35 129 Q -107.75 126.65 -107.7 123.5 L -106.75 120.65 Q -106.4 119.7 -105.05 118.45 Q -103.5 115.7 -104.95 115.25 Q -107.65 114.45 -108 113.95 L -107.05 109.7 Q -106.35 107 -106.3 105.35 Q -106.25 104.15 -106.65 100.15 L -107 94.95 Q -106.95 90.75 -107.95 87.05 Q -109.25 82.5 -109.4 80.9 Q -112.35 69.15 -112.75 64.35 Q -113.45 56.6 -108 51.35 L -101.6 45.2 Q -100.3 43.65 -96.65 36.5 Q -95.85 32.5 -95.65 29.65 Q -95.2 24.4 -97.65 19.2 L -102.6 9.05 Q -105.9 2.2 -106.3 -0.05 Q -107.1 -4.2 -107.65 -12 Q -108.3 -21.6 -107.7 -27.75 L -124.2 -16.3 L -126.4 -15 L -126.5 -14.85 L -127.55 -13.8 Q -129.4 -11.95 -132.1 -9.9 Q -137 -6.35 -143.05 -4.5 Q -148.4 -2.85 -154.75 -2.55 Q -160 -2.25 -166.35 -2.85 L -172.3 -3.45 Q -177.1 -4.6 -182.95 -5.2 L -184.7 -5.7 L -193.15 -6.5 L -190.95 -6.4 Q -190.5 -6.4 -191.35 -6.55 Q -192.25 -6.75 -191.8 -6.75 L -185.55 -6.15 L -185.55 -6.3 L -195.3 -7.3 Q -196 -7.45 -195.3 -7.5 L -183.9 -6.5 L -184.6 -6.75 L -173 -5.35 L -173 -5.5 L -174.8 -5.7 L -174.75 -5.95 L -184.15 -7.4 L -187.1 -8.3 L -191.15 -7.85 L -189.6 -8.1 Q -189.2 -8.15 -190 -8.2 Q -190.8 -8.2 -190.4 -8.3 L -188.1 -8.55 L -188.4 -8.65 L -193.55 -8.05 Q -194 -7.95 -193.6 -8.2 L -189.6 -9 L -191.45 -9.5 L -191.55 -9.5 L -192.45 -9.7 L -193.65 -9.6 L -192.45 -9.75 L -192.6 -9.8 L -195.8 -10 L -200.6 -7.4 Q -198.25 -9.05 -196.2 -10 L -202.55 -10.2 L -195.8 -10.15 L -195.05 -10.5 L -198.9 -12 L -202.1 -11.1 L -199.15 -12.05 L -205.5 -12.45 L -202.75 -12.5 Q -202.3 -12.5 -203.2 -12.65 Q -204.1 -12.75 -203.65 -12.8 L -198.55 -12.2 L -198.3 -12.3 L -207.35 -13.2 Q -208.2 -13.35 -207.35 -13.35 L -197.85 -12.65 L -199.95 -13.25 L -197.3 -12.55 L -193.9 -13.15 L -195.15 -13.55 Q -195.2 -13.7 -195.75 -13.9 L -196.45 -14.3 L -197.5 -14.1 L -196.55 -14.35 L -196.6 -14.4 L -197.35 -14.65 L -199.2 -14.35 Q -199.6 -14.3 -199.15 -14.55 L -198.15 -14.9 Z M -204.7 -16.05 L -204.05 -16 L -202.25 -16.15 L -201.3 -16.6 Z M -205.65 -18.95 L -206.65 -18.9 L -209.3 -17.9 L -202.45 -18.75 L -201.1 -18.75 L -203.1 -19 L -200.65 -18.75 Q -200.2 -18.75 -201.05 -18.95 Q -201.8 -19.15 -201.45 -19.15 L -195.75 -18.55 L -195.75 -18.7 L -202.85 -19.5 Z M 90.85 -81.6 Q 89.65 -82.4 87.75 -82.9 L 91.8 -79.9 L 92.25 -80.8 Z" fill="#FAF643"/>
	</g>
</svg>
