<?xml version="1.0" encoding="utf-8"?>
<!-- Generator: Adobe Illustrator 17.0.0, SVG Export Plug-In . SVG Version: 6.00 Build 0)  -->
<!DOCTYPE svg PUBLIC "-//W3C//DTD SVG 1.1//EN" "http://www.w3.org/Graphics/SVG/1.1/DTD/svg11.dtd">
<svg version="1.1" id="图层_1" xmlns="http://www.w3.org/2000/svg" xmlns:xlink="http://www.w3.org/1999/xlink" x="0px" y="0px"
	 width="100px" height="100px" viewBox="0 0 100 100" enable-background="new 0 0 100 100" xml:space="preserve">
<g>
	<radialGradient id="SVGID_1_" cx="38.5304" cy="46.565" r="31.6303" gradientUnits="userSpaceOnUse">
		<stop  offset="0" style="stop-color:#DDE11E"/>
		<stop  offset="1" style="stop-color:#8EC63E"/>
	</radialGradient>
	<path fill="url(#SVGID_1_)" d="M84.334,48.377l0.026,0.094c3.996,2.001,8.988,13.234,3.496,16.23
		c-5.976,3.105-12.41-5.455-14.479-10.352c-1.87,3.824-12.426,12.176-14.729,13.848c-1.907,1.245-3.965,2.454-6.127,3.574
		c-3.892,2.006-8.128,3.71-12.452,4.788c-9.644,2.418-19.715,1.735-27.364-5.617c-2.496-2.245-7.237-7.492-5.492-11.233
		c1.23-2.277,3.934-2.345,6.471-2.178l0.021-0.323c-3.997-1.745-4.742-8.988-4.497-12.728c0.75-7.492,4.497-14.984,10.989-18.976
		c5.846-3.532,12.103-4.512,18.173-3.626c4.418,0.641,8.732,2.266,12.712,4.611c1.761,1.037,3.454,2.214,5.065,3.506
		c5.997,4.746,10.988,9.738,15.479,15.729l0.281,0.01c0.651-4.996,11.087-8.753,15.198-8.998
		C98.595,36.248,91.426,46.757,84.334,48.377z"/>
	<path fill="#FFD900" d="M55.648,13.521c4.965,4.252-7.07,8.508-4.565,12.968c-3.98-2.345-8.295-3.97-12.712-4.611l0.052-0.37
		C39.673,15.767,50.156,9.025,55.648,13.521z"/>
	<path fill="#FFD900" d="M52.521,71.771c3.73,2.537,8.795,8.419,0.88,9.41c-4.491,0.75-8.988-3.246-13.234-4.246l-0.099-0.375
		C44.393,75.48,48.629,73.777,52.521,71.771z"/>
	<radialGradient id="SVGID_2_" cx="24.7074" cy="42.904" r="9.7675" gradientUnits="userSpaceOnUse">
		<stop  offset="0.4049" style="stop-color:#F4F5F5"/>
		<stop  offset="1" style="stop-color:#ABC9D7"/>
	</radialGradient>
	<path fill="url(#SVGID_2_)" d="M32.181,36.737c4.527,5.669,1.474,15.172-6.013,16.027c-5.919,0.672-10.879-3.074-11.051-9.196
		c-0.167-6.07,4.251-10.259,9.07-10.582C26.992,32.799,29.93,33.919,32.181,36.737z"/>
	<path fill="#7FBA42" d="M37.994,31.483l-0.1,0.111c2.792,3.171,4.685,7.696,0.284,11.404c2.356,2.182,3.504,9.688,0.406,12.063
		l0.014,0.029c4.271-2.668,5.816-9.668,1.782-12.723l-0.065-0.124C44.451,39.074,42.485,31.525,37.994,31.483z"/>
	<path fill="#7FBA42" d="M47.546,34.609c0,0-0.1,0.11-0.1,0.111c0.394-0.436,2.871,5.39,2.894,6.1
		c0.061,1.929-1.031,4.594-2.697,5.671c1.396-0.902,2.53-0.415,3.514-2.146c0.633-1.115,0.996-2.698,0.977-3.978
		C52.098,37.769,50.48,34.637,47.546,34.609z"/>
	<g>
		<linearGradient id="SVGID_3_" gradientUnits="userSpaceOnUse" x1="9.1673" y1="39.2892" x2="93.1426" y2="39.2892">
			<stop  offset="0" style="stop-color:#FFF100"/>
			<stop  offset="1" style="stop-color:#E1E319"/>
		</linearGradient>
		<path fill="url(#SVGID_3_)" d="M87.106,36.737c-4.111,0.245-14.547,4.001-15.198,8.998l-0.281-0.01
			c-4.491-5.992-9.483-10.983-15.479-15.729c-1.61-1.292-3.304-2.47-5.065-3.506c-3.98-2.345-8.295-3.97-12.712-4.611
			c-6.07-0.886-12.327,0.094-18.173,3.626C13.706,29.495,9.96,36.988,9.209,44.48c-0.236,3.612,0.451,10.486,4.096,12.527
			c0.168-1.074-1.133-3.15-1.287-3.925c-0.298-1.5-0.525-3.003-0.734-4.515c-0.825-5.961,2.509-13.087,6.388-17.541
			c2.062-2.368,4.771-3.869,7.677-4.989c13.081-5.044,25.908,3.026,35.135,11.639c3.049,2.845,6.046,5.83,9.285,8.46
			c0.945,0.767,1.905,1.518,2.648,2.452c2.15-2.333,3.726-4.276,6.599-5.791c2.496-1.315,5.556-2.781,8.336-3.092
			c1.352-0.151,2.95-0.098,4.169,0.352c0.632,0.234,1.06,0.608,1.423,1.019C93.709,38.597,92.367,36.513,87.106,36.737z"/>
		<linearGradient id="SVGID_4_" gradientUnits="userSpaceOnUse" x1="11.3852" y1="57.6102" x2="13.0454" y2="57.6102">
			<stop  offset="0" style="stop-color:#FFF100"/>
			<stop  offset="1" style="stop-color:#E1E319"/>
		</linearGradient>
		<path fill="url(#SVGID_4_)" d="M11.385,57.5c0.61,0.269,1.247,0.378,1.66-0.004C12.488,57.472,11.929,57.466,11.385,57.5z"/>
	</g>
	<g>
		<path fill="#559B46" d="M87.856,64.7c0.498-0.272,0.908-0.613,1.242-1.008c-0.877-0.01-1.783-0.195-2.575-0.493
			c-3.073-1.156-5.706-3.32-7.759-5.849c-0.57-0.702-5.138-6.154-3.83-7.166c-6.626,5.129-12.119,10.993-19.711,15.141
			c-11.079,6.053-25.612,10.793-37.589,4.399c-0.924-0.494-1.818-1.058-2.675-1.699c-2.385-1.784-5.138-5.088-8.001-7.588
			c-0.898,3.666,3.409,8.402,5.747,10.505c7.649,7.352,17.72,8.034,27.364,5.617c4.324-1.078,8.56-2.782,12.452-4.788
			c2.162-1.12,4.22-2.329,6.127-3.574c2.303-1.672,12.858-10.024,14.729-13.848C75.446,59.245,81.88,67.806,87.856,64.7z"/>
		<path fill="#559B46" d="M81.427,46.487c0.529,0.203,1.702,0.903,2.404,1.433c0.2,0.151,0.412,0.287,0.622,0.426
			c4.831-1.171,9.648-6.411,8.532-9.442C90.877,42.659,84.21,45.812,81.427,46.487z"/>
	</g>
	<path fill="#FFF692" d="M52.792,13.128c0.799-0.112,1.765,0.143,2.61,0.212c-5.552-4.112-15.747,2.51-16.979,8.168l-0.052,0.37
		c0.919,0.133,1.832,0.319,2.739,0.535C43.063,17.845,48.065,13.792,52.792,13.128z"/>
	<path fill="#FBB017" d="M55.648,13.521c-0.103-0.084-0.212-0.157-0.319-0.234c0.14,0.353,0.238,0.672,0.238,0.928
		c0,1.951-2.345,3.366-3.817,4.35c-1.346,0.9-2.812,1.527-3.309,3.074c-0.374,1.163-0.413,2.269-0.205,3.33
		c0.965,0.466,1.916,0.972,2.847,1.52C48.577,22.029,60.612,17.773,55.648,13.521z"/>
	<path fill="#FBB017" d="M52.521,71.771c-3.892,2.006-8.128,3.71-12.452,4.788l0.099,0.375c1.174,0.277,2.368,0.785,3.576,1.356
		c4.483-0.29,8.925-3.834,11.962,1.715c0.098,0.179,0.191,0.343,0.283,0.494C59.92,78.61,55.73,73.954,52.521,71.771z"/>
	<path fill="#559B46" d="M58.263,59.204c0.762-3.069-0.78-7.649-2.875-9.98c-0.004-0.008,0.078,0.304,0.111,0.241
		c-0.282,0.554,0.326,2.446,0.39,3.097c0.115,1.16-0.157,2.042-0.496,3.126c-0.605,1.936-1.498,4.192-3.644,4.949
		c-4.051,1.43-8.219-3.249-9.652-6.459c0.372,0.917,0.223,2.064,0.455,3.031c0.216,0.903,0.601,1.692,0.962,2.546
		c1.18,2.792,4.597,5.076,7.715,4.797C54.667,64.243,57.386,62.735,58.263,59.204z"/>
	<linearGradient id="SVGID_5_" gradientUnits="userSpaceOnUse" x1="46.3944" y1="50.4187" x2="63.0669" y2="58.6247">
		<stop  offset="0" style="stop-color:#FFF100"/>
		<stop  offset="1" style="stop-color:#E1E319"/>
	</linearGradient>
	<path fill="url(#SVGID_5_)" d="M52.433,50.057c2.18,3.486,1.944,6.839,0.411,10.461c3.89-2.109,4.078-9.66,1.479-12.615
		c-2.498-2.84-7.576-2.935-10.213-0.417C46.474,46.79,51.054,47.851,52.433,50.057z"/>
	<linearGradient id="SVGID_6_" gradientUnits="userSpaceOnUse" x1="6.7043" y1="59.9247" x2="32.8506" y2="59.9247">
		<stop  offset="0" style="stop-color:#E6E414"/>
		<stop  offset="1" style="stop-color:#BBD531"/>
	</linearGradient>
	<path fill="url(#SVGID_6_)" d="M25.96,58.455c2.926-1.032,4.788-1.811,6.891-4.152c-2.427,2.314-7.127,2.898-10.277,3.208
		c-1.94,0.191-3.966,0.354-5.991,0.26c-2.357-0.11-5.488-1.018-7.686,0.262c-2.324,1.352-2.727,5.302-1.556,7.515
		c0.244-1.857,1.213-4.298,3.056-5.073c1.238-0.521,2.997-0.3,4.319-0.414c1.536-0.132,3.067-0.312,4.601-0.465
		C21.544,59.373,23.819,59.21,25.96,58.455z"/>
	<path fill="#7FBA42" d="M34.133,41.09c0.939,5.219-2.193,11.016-7.964,11.674c-5.333,0.606-9.876-2.383-10.85-7.458
		c-0.857,3.819,3.445,8.773,6.599,10.098c4.965,2.086,10.471-1.017,12.842-5.507c0.672-1.271,0.815-2.71,0.84-4.11
		C35.622,44.506,35.066,42.544,34.133,41.09z"/>
	<linearGradient id="SVGID_7_" gradientUnits="userSpaceOnUse" x1="81.331" y1="55.548" x2="90.2805" y2="55.548">
		<stop  offset="0" style="stop-color:#FFF100"/>
		<stop  offset="1" style="stop-color:#E1E319"/>
	</linearGradient>
	<path fill="url(#SVGID_7_)" d="M84.36,48.471l-0.026-0.094c0.072-0.017,0.145-0.039,0.217-0.058l-0.368-0.187
		c-0.824-1.123-1.724-1.178-2.852-1.674c2.084,2.856,4.237,5.532,5.819,8.708c0.858,1.722,1.463,3.555,1.589,5.47
		c0.09,1.366-0.41,2.681-0.784,4.002C93.279,61.557,88.331,50.459,84.36,48.471z"/>
	<path fill="#559B46" d="M55.577,55.716c-0.316,2.014-1.236,3.299-2.872,4.486c-1.531,1.111-2.424,0.782-3.995,0.261
		c-1.286-0.427-2.665-0.69-3.626-1.737c-1.204-1.313-2.237-2.933-2.77-4.641c1.442,2.173,4.1,3.791,6.744,3.951
		c1.234,0.075,2.432-0.057,3.561-0.439C53.712,57.227,54.894,56.682,55.577,55.716z"/>
	<path fill="#7FBA42" d="M44.548,51.634c1.55-0.776,5.472-1.597,6.184-0.246c0.16,0.304-3.385,0.211-3.613,0.201
		c-1.034-0.044-1.971,0.45-3.022,0.323C44.204,51.822,44.358,51.729,44.548,51.634z"/>
	<path fill="#7FBA42" d="M50.274,54.471c-1.387-1.526-4.125-1.134-5.961-1.309c1.055,1.371,3.831,1.014,5.353,1.482L50.274,54.471z"
		/>
	<g>
		<g>
			<path fill="#231F20" d="M24.188,33.009c-0.331-0.149,4.723-1.335,8.686,3.746c1.932,2.38,2.733,6.289,1.505,9.95
				c-1.079,3.673-4.878,6.939-9.11,6.846c-4.106,0.319-8.329-2.112-9.9-5.734c-1.498-3.618-0.94-7.461,0.584-10.083
				C19.363,32.24,24.501,32.909,24.188,33.009c0.256,0.381-4.459,0.251-7.229,5.285c-1.257,2.376-1.618,5.853-0.284,8.92
				c1.406,3.037,4.92,5.067,8.541,4.804c3.63,0.066,6.752-2.578,7.805-5.783c1.129-3.187,0.537-6.636-1.075-8.804
				C28.63,32.704,24.001,33.341,24.188,33.009z"/>
		</g>
		<circle fill="#231F20" cx="27.167" cy="42.527" r="2.622"/>
		<g>
			<path fill="#231F20" d="M73.363,52.734c-0.041-0.056,0.574,0.278,0.345,1.223c-0.252,0.843-0.935,1.903-1.923,3.119
				c-2.013,2.404-5.248,5.472-9.348,8.877c-8.138,6.609-21.766,14.012-36.483,12.27c-7.33-0.962-13.668-5.593-17.628-11.093
				c-0.955-1.422-1.835-2.946-2.099-4.723c-0.414-1.734,0.475-3.84,2.049-4.69c3.222-1.618,6.249-0.489,8.769-0.584
				c5.299,0.163,9.688-0.16,12.536-1.244c2.844-1.076,3.941-2.587,4.115-2.408c0.033-0.034-0.927,1.702-3.861,3.031
				c-2.913,1.324-7.492,1.81-12.789,1.773c-2.668,0.083-5.76-0.745-8.08,0.557c-2.486,1.34-1.316,5.056,0.538,7.462
				c3.806,5.155,9.802,9.52,16.683,10.403c13.905,1.702,27.472-5.375,35.528-11.647C70.067,58.674,74.94,52.993,73.363,52.734z"/>
		</g>
		<g>
			<path fill="#231F20" d="M71.646,45.713c-0.28,0.223-3.875-4.763-10.666-10.839c-6.481-6.105-17.221-13.711-29.461-12.389
				c-5.899,0.576-11.613,3.274-15.336,7.345c-3.721,4.154-5.601,9.254-6.241,13.676c-0.633,4.39,0.174,8.256,1.201,10.588
				c1.079,2.413,2.667,2.97,2.554,3.135c0.05,0.086-1.8-0.314-3.153-2.83c-1.276-2.44-2.276-6.346-1.743-11.05
				c0.541-4.618,2.394-10.003,6.312-14.48c3.971-4.429,10.005-7.295,16.251-7.909c12.952-1.399,24.1,6.787,30.392,13.068
				C68.47,40.383,71.779,45.64,71.646,45.713z"/>
		</g>
		<g>
			<path fill="#231F20" d="M83.867,48.494c-0.072-0.297,2.463-0.746,5.206-3.186c1.301-1.177,2.862-2.87,3.273-4.853
				c0.6-2.116-1.896-2.987-4.265-2.933c-4.676,0.102-9.5,2.252-12.476,4.166c-3.238,1.965-3.525,4.543-3.748,4.537
				c-0.346,0.143-0.309-3.137,3.071-5.468c3.135-2.276,7.82-4.611,13.191-4.768c1.302-0.028,2.684,0.208,3.984,0.857
				c1.389,0.701,2.058,2.57,1.656,3.872c-0.67,2.652-2.469,4.258-3.958,5.478C86.657,48.625,83.839,48.702,83.867,48.494z"/>
		</g>
		<g>
			<path fill="#231F20" d="M84.352,48.492c0.079-0.297,2.624,0.91,4.476,4.299c0.931,1.649,1.846,3.719,2.113,6.163
				c0.362,2.267-0.477,5.796-3.44,6.712c-2.675,1.131-5.618-0.072-7.452-1.503c-1.947-1.458-3.357-3.195-4.414-4.75
				c-2.114-3.138-2.728-5.639-2.488-5.705c0.246-0.093,1.19,2.168,3.42,5.029c2.059,2.584,6.075,7.018,10.386,5.497
				c2.114-0.632,2.75-3.044,2.557-5.153c-0.169-2.157-0.929-4.152-1.695-5.75C86.278,50.025,84.252,48.692,84.352,48.492z"/>
		</g>
		<g>
			<path fill="#231F20" d="M43.678,47.741c-0.105,0.035,1.631-2.4,5.74-2.437c4.236-0.35,8.778,5.441,6.9,10.729
				c-0.784,2.431-2.283,5.019-5.059,5.732c-2.83,0.503-4.862-1.271-6.158-2.548c-2.653-2.833-3.139-5.475-2.914-5.508
				c0.255-0.117,1.1,2.26,3.717,4.683c1.262,1.124,3.147,2.422,5.041,1.969c1.848-0.449,3.247-2.65,3.898-4.75
				c1.54-4.449-2.011-9.196-5.497-9.16C45.886,46.186,43.847,48.15,43.678,47.741z"/>
		</g>
		<g>
			<path fill="#231F20" d="M51.671,27.236c-0.018,0.044-0.69-0.217-1.115-1.31c-0.5-1.139,0.179-2.918,1.354-4.294
				c1.111-1.436,2.787-2.848,3.792-4.569c1.249-1.716-0.511-3.359-2.558-3.994c-4.272-1.014-8.756,1.677-11.206,3.885
				c-2.655,2.287-3.236,4.631-3.535,4.551c-0.222,0.034,0.055-2.716,2.731-5.375c2.491-2.516,7.086-5.715,12.428-4.536
				c1.235,0.442,2.489,1.016,3.335,2.173c0.985,1.158,0.768,3.022,0.056,4.002c-1.337,2.097-3.025,3.305-4.172,4.613
				C49.93,24.97,51.894,27.13,51.671,27.236z"/>
		</g>
		<g>
			<path fill="#231F20" d="M52.393,71.709c0.11-0.187,1.811,0.543,3.75,2.515c0.878,1.004,2.176,2.267,2.112,4.465
				c-0.425,2.476-3.041,3-4.683,3.238c-3.991,0.496-7.291-1.702-9.545-2.857c-2.294-1.294-3.903-1.87-3.852-2.156
				c0.03-0.225,1.892,0.024,4.348,1.116c2.443,0.999,5.614,2.834,8.85,2.376c1.623-0.184,3.356-0.801,3.458-1.905
				c0.142-1.182-0.792-2.571-1.551-3.521C53.671,72.989,52.227,71.945,52.393,71.709z"/>
		</g>
	</g>
</g>
</svg>
