<?xml version="1.0" encoding="utf-8"?>
<!-- Generator: Adobe Illustrator 17.0.0, SVG Export Plug-In . SVG Version: 6.00 Build 0)  -->
<!DOCTYPE svg PUBLIC "-//W3C//DTD SVG 1.1//EN" "http://www.w3.org/Graphics/SVG/1.1/DTD/svg11.dtd">
<svg version="1.1" id="图层_1" xmlns="http://www.w3.org/2000/svg" xmlns:xlink="http://www.w3.org/1999/xlink" x="0px" y="0px"
	 width="200px" height="200px" viewBox="0 0 200 200" enable-background="new 0 0 200 200" xml:space="preserve">
<g>
	<radialGradient id="SVGID_1_" cx="181.6196" cy="83.7139" r="14.4564" gradientUnits="userSpaceOnUse">
		<stop  offset="0.4049" style="stop-color:#F4F5F5"/>
		<stop  offset="1" style="stop-color:#ABC9D7"/>
	</radialGradient>
	<path fill="url(#SVGID_1_)" d="M184.281,98.765c-4.753,1.789-10.254,1.268-14.192-2.897l-1.168-0.445
		c3.485-3.972,5.391-9.431,4.434-14.982c-0.604-3.519-1.99-6.408-3.888-8.65c1.411-1.512,2.956-2.57,4.552-3.233
		c10.027-4.149,22.179,7.331,20.054,18.904C193.242,92.693,189.152,96.942,184.281,98.765z"/>
	<radialGradient id="SVGID_2_" cx="156.1233" cy="83.8383" r="17.6074" gradientUnits="userSpaceOnUse">
		<stop  offset="0.4049" style="stop-color:#F4F5F5"/>
		<stop  offset="1" style="stop-color:#ABC9D7"/>
	</radialGradient>
	<path fill="url(#SVGID_2_)" d="M169.468,71.791c1.898,2.242,3.284,5.131,3.888,8.65c0.957,5.551-0.949,11.01-4.434,14.982
		c-4.543,5.19-11.765,7.86-18.828,4.955c-9.859-4.048-14.411-14.218-9.388-23.959c4.971-9.666,15.519-12.42,23.354-8.759
		C166.091,68.608,167.947,69.993,169.468,71.791z"/>
	<path fill="#EC1848" d="M120.39,46.597c-3.149,0-6.273,0.193-9.363,0.588c-8.087,1.033-15.855,3.317-23.203,6.5
		c-6.508-10.631-18.661-30.467-0.403-28.914c14.377,0.873,34.817,8.616,42.787,22.33l-0.017,0.109
		C126.916,46.79,123.64,46.589,120.39,46.597z"/>
	<path fill="#EC1848" d="M89.831,181.954c-20.079-2.058,0.823-26.092-0.344-35.019l0.008-0.034
		c11.824,3.813,24.371,5.425,36.632,4.762c0.823-0.042,1.671-0.092,2.537-0.151c-0.294,7.079-8.843,17.677-13.832,21.817
		C108.239,178.805,98.514,182.835,89.831,181.954z"/>
	<radialGradient id="SVGID_3_" cx="112.0457" cy="87.0253" r="66.264" gradientUnits="userSpaceOnUse">
		<stop  offset="0" style="stop-color:#FFCA05"/>
		<stop  offset="0.26" style="stop-color:#FEC209"/>
		<stop  offset="0.6693" style="stop-color:#FAAB13"/>
		<stop  offset="1" style="stop-color:#F7941D"/>
	</radialGradient>
	<path fill="url(#SVGID_3_)" d="M185.315,108.154c0.353-3.09-0.344-6.366-1.033-9.389c-4.753,1.789-10.254,1.268-14.192-2.897
		l-1.168-0.445c-4.543,5.19-11.765,7.86-18.828,4.955c-9.859-4.048-14.411-14.218-9.388-23.959
		c4.971-9.666,15.519-12.42,23.354-8.759c2.032,0.949,3.888,2.334,5.409,4.132c1.411-1.512,2.956-2.57,4.552-3.233
		c-4.779-5.391-9.725-9.38-15.175-12.437c-5.895-3.317-12.379-5.551-19.894-7.331c-2.066-0.495-4.141-0.898-6.223-1.226
		c-0.848-0.134-1.688-0.252-2.537-0.353c-3.275-0.42-6.55-0.621-9.8-0.613c-3.149,0-6.273,0.193-9.363,0.588
		c-8.087,1.033-15.855,3.317-23.203,6.5c-9.271,4.014-17.871,9.456-25.547,15.578c-2.981,2.376-6.079,5.29-8.935,8.591
		c-10.077,11.681-17.047,28.166-4.678,42.594c0.958,1.117,1.949,2.209,2.965,3.266c10.346,10.817,23.573,18.602,37.866,23.187
		c11.824,3.813,24.371,5.425,36.632,4.762c0.823-0.042,1.671-0.092,2.537-0.151c22.54-1.554,57.139-8.188,67.342-30.317
		C199.692,113.209,194.099,109.455,185.315,108.154z"/>
	<path fill="#EC1848" d="M19.305,110.933c-18.543,1.495-15.41-32.147,0.37-28.51l0.176-0.168c-5.979-6.458-6.693-13.613,1.68-17.829
		c12.622-5.979,23.203,4.972,31.526,13.185l0.285,0.244c-10.077,11.681-17.047,28.166-4.678,42.594
		c0.958,1.117,1.949,2.209,2.965,3.266c-8.331,7.256-18.802,17.787-31.047,11.774C10.009,130.181,11.79,117.576,19.305,110.933z"/>
	<path fill="#9F032C" d="M130.19,47.21l0.017-0.109c-7.97-13.714-28.41-21.456-42.787-22.33c-4.951-0.421-7.652,0.739-8.85,2.853
		c4.015-1.172,10.928,0.857,14.272,1.73c4.205,1.097,8.624,2.479,12.582,4.557c5.634,2.957,10.079,6.595,14.291,11.407
		c0.376,0.43,0.743,0.859,1.109,1.285C123.932,46.613,127.062,46.809,130.19,47.21z"/>
	<path fill="#FFF46B" d="M21.531,64.426c-7.764,3.909-7.711,10.346-2.895,16.41c0.449,0.365,0.765,0.662,0.831,0.822
		c-4.079-9.966,7.055-16.175,15.151-11.988c4.469,2.31,8.236,4.221,12.302,7.349c1.277,0.983,2.849,2.216,4.493,3.182
		c0.627-0.802,1.27-1.585,1.928-2.348l-0.285-0.244C44.734,69.397,34.153,58.446,21.531,64.426z"/>
	<path fill="#FFF46B" d="M19.243,111.405c-3.038,2.508-5.162,6.871-5.724,10.078c-0.882,5.02,0.872,7.798,4.262,11.346
		c-2.637-2.76-1.008-10.895,0.465-13.954c2.012-4.176,5.83-7.846,9.835-10.238C25.131,108.95,21.553,109.498,19.243,111.405z"/>
	<path fill="#FFF46B" d="M12.652,109.108c-3.936-6.459-3.89-11.728,0.586-18.154c3.431-4.927,6.837-4.39,11.764-6.509
		c-0.322,0.136-4.454-2-5.266-2.156c-2.311-0.444-4.245-0.265-6.371,0.816c-3.028,1.539-4.885,4.72-5.87,7.857
		c-1.998,6.364-1.005,15.669,5.679,18.936C13.004,109.66,12.832,109.404,12.652,109.108z"/>
	<path fill="#9F032C" d="M51.629,123.714c-1.016-1.058-2.007-2.149-2.965-3.266c-1.703-1.986-3.028-4.013-4.04-6.059
		c-0.516,1.522-1.12,3.031-2.169,4.481c-2.802,3.873-8.439,9.42-12.876,11.196c-2.97,1.189-7.157,2.136-10.357,1.205
		c-1.38-0.402-3.323-1.736-5.271-2.865c1.047,2.831,3.175,5.348,6.631,7.082C32.826,141.501,43.298,130.971,51.629,123.714z"/>
	<path fill="#9F032C" d="M42.091,93.032c-1.457,0.065-3.079,0.68-4.389,0.807c-2.21,0.214-4.32,0.458-6.508,0.677
		c-3.149,0.315-11.289-0.295-12.74,3.303c2.415,0.355,4.708,0.009,7.123-0.155c3.458-0.234,6.943-0.301,10.398-0.63
		c1.722-0.164,4.735-0.077,6.244-0.955c0.374-0.218,2.573-2.325,1.529-2.788C43.245,93.069,42.681,93.005,42.091,93.032z"/>
	<path fill="#9F032C" d="M42.106,109.002c-3.48,2.535-7.808,3.593-11.29,6.345c-1.821,1.44-7.454,5.03-2.567,4.829
		c5.231-0.216,11.595-5.165,15.536-8.445L42.106,109.002z"/>
	<path fill="#9F032C" d="M48.614,84.018c-1.342-1.278-4.904-2.724-6.766-3.778c-2.398-1.358-6.366-3.076-9.158-2.909
		c-0.604,4.132,10.483,9.759,14.034,9.206L48.614,84.018z"/>
	<path fill="#FFF100" d="M162.539,63.997c2.498,1.563,5.369,3.619,7.298,5.892c0.23,0.271,0.463,0.563,0.7,0.865
		c1.108-0.972,2.281-1.697,3.483-2.197c-4.779-5.391-9.725-9.38-15.175-12.437c-5.895-3.317-12.379-5.551-19.894-7.331
		c-2.066-0.495-4.141-0.898-6.223-1.226c-0.848-0.134-1.688-0.252-2.537-0.353c-3.275-0.42-6.55-0.621-9.8-0.613
		c-3.149,0-6.273,0.193-9.363,0.588c-8.087,1.033-15.855,3.317-23.203,6.5c-9.271,4.014-17.871,9.456-25.547,15.578
		c-2.981,2.376-6.079,5.29-8.935,8.591c-7.923,9.184-13.92,21.338-10.111,33.126c0.801-3.464,1.208-7.119,2.148-9.956
		c3.002-9.06,9.851-17.087,16.734-23.515c10.823-10.105,22.796-15.632,36.545-20.722C118.957,49.273,144.501,52.716,162.539,63.997z
		"/>
	<path fill="#FFF100" d="M84.707,113.202c-0.237-4.022,1.949-7.848,5.272-10.078c2.529-1.698,5.554-3.177,8.603-3.365
		c3.62-0.223,7.22-0.227,10.712,0.431c3.095,0.583,5.983,2.081,8.99,2.902c-2.915-5.37-12.374-7.311-17.813-7.317
		c-7.164-0.007-14.967,2.403-16.801,10.077c-0.828,3.468,0.54,5.73,1.263,8.965C84.813,114.277,84.738,113.738,84.707,113.202z"/>
	<path fill="#FFF100" d="M185.319,108.121c-3.273-0.426-6.642-0.329-9.897-0.169c-3.876,0.191-7.925-0.376-11.757,0.205
		c-7.295,1.105-14.62,1.746-20.977,5.847c7.764-1.416,15.401-2.425,23.287-2.902c6.953-0.421,14.483-0.009,20.989,1.685
		c4.255,1.108,7.687,3.062,9.733,6.614c-0.208-0.36,0.486-2.534,0.444-3.151c-0.062-0.911-0.284-1.78-0.709-2.59
		c-0.961-1.829-2.789-2.983-4.624-3.797C189.733,108.943,187.549,108.411,185.319,108.121z"/>
	<path fill="#FFF46B" d="M95.234,151.725c0.298-1.001,0.513-2.008,0.655-2.997c-2.15-0.54-4.284-1.147-6.394-1.827l-0.008,0.034
		c1.011,7.736-14.546,26.817-5.646,33.108C83.375,171.45,93.362,158.004,95.234,151.725z"/>
	<path fill="#9F032C" d="M89.495,146.901l-0.008,0.034c0.029,0.221,0.041,0.454,0.044,0.692c0.147,0.266,0.234,0.424,0.234,0.425
		c1.228,2.232,9.167,4.418,11.467,5.848c3.459,2.154,7.64,5.168,7.894,9.649c0.394,6.956-6.258,9.917-11.905,11.454
		c-1.249,0.34-10.289,1.77-15.742,1.886c0.888,2.671,3.346,4.551,8.353,5.064c8.683,0.882,18.408-3.149,25-8.625
		c4.989-4.14,13.537-14.738,13.832-21.817c-0.865,0.059-1.713,0.109-2.537,0.151C113.866,152.326,101.319,150.714,89.495,146.901z"
		/>
	<path fill="#AA5710" d="M196.777,114.427c-0.567,0.905-1.22,1.797-1.972,2.692c-5.736,6.825-14.053,11.289-21.805,15.415
		c-20.22,10.763-49.729,13.665-72.015,8.903c-13.373-2.858-26.218-8.988-37.436-16.727c-5.898-4.069-11.461-8.706-16.251-14.049
		c-1.224-1.365-3.112-4.27-5.247-6.949c0.055,5.627,1.974,11.326,6.613,16.735c0.958,1.117,1.949,2.209,2.965,3.266
		c10.346,10.817,23.573,18.602,37.866,23.187c11.824,3.813,24.371,5.425,36.632,4.762c0.823-0.042,1.671-0.092,2.537-0.151
		c22.54-1.554,57.139-8.188,67.342-30.317C197.263,118.469,197.439,116.237,196.777,114.427z"/>
	<path fill="#AA5710" d="M170.089,95.867l-1.168-0.445c-4.543,5.19-11.765,7.86-18.828,4.955c-4.702-1.931-8.193-5.255-10.018-9.26
		c0.318,2.109,1.26,4.303,2.053,6.011c2.049,4.412,6.588,7.045,11.178,8.102c3.07,0.707,6.483,0.159,9.518-0.294
		c3.48-0.518,4.96-2.045,7.761-4.164c1.179,1.859,5.868,2.252,7.916,2.554c2.679,0.394,4.679,0.823,6.636-0.22
		c-0.217-1.472-0.536-2.934-0.856-4.341C179.528,100.553,174.027,100.032,170.089,95.867z"/>
	<path fill="#FFF100" d="M185.315,108.154c0.353-3.09-0.344-6.366-1.033-9.389c-0.91,0.342-1.849,0.599-2.797,0.762
		c0.305,3.499,0.934,9.407,2.336,9.635c0.645,0.105,1.365-0.287,2.065-0.918C185.695,108.213,185.507,108.182,185.315,108.154z"/>
	<path fill="#AA5710" d="M102.081,132.64c5.192-1.509,9.656-5.647,12.909-9.817c1.718-2.201,3.253-4.628,4.252-7.246
		c0.682-1.786,0.737-5.16,1.885-6.617c-4.432,5.623-10.796,11.722-17.647,14.194c-7.362,2.656-16.586-1.013-19.09-8.665
		c-3.016,2.655,2.47,11.957,4.183,14.31C92.1,133.64,96.506,134.261,102.081,132.64z"/>
	<path fill="#D98918" d="M120.307,65.65l0.234,0.258c-6.507,7.391-10.917,17.936-0.663,26.577c-0.511-0.431-4.142,6.68-4.054,7.747
		c-1.531-0.88-3.809-2.797-5.605-2.739c0.677-2.523,2.466-4.917,4.527-6.478l0.151-0.289
		C105.259,83.341,109.841,65.749,120.307,65.65z"/>
	<path fill="#D98918" d="M95.048,73.769c0,0,0.225,0.249,0.234,0.258c-0.59-0.652-6.112,10.282-6.37,11.451
		c-1.007,4.578,0.458,7.78,2.374,11.742c-1.181,0.874-2.256,1.863-3.519,0.612c-0.818-0.814-1.711-3.12-2.192-4.23
		c-1.192-2.752-1.479-5.866-1.009-8.815c0.458-2.877,1.648-5.757,3.669-7.891C89.011,76.076,93.802,72.391,95.048,73.769z"/>
	<path fill="#D98918" d="M72.627,88.215l0.154,0.17c-4.282,4.864-7.183,11.802-0.436,17.487c-3.613,3.345-5.373,14.856-0.622,18.498
		l-0.021,0.044c-6.549-4.091-8.918-14.825-2.733-19.51l0.099-0.19C62.726,99.856,65.742,88.28,72.627,88.215z"/>
	<path fill="#FFF46B" d="M87.824,53.685c1.069-0.463,2.148-0.901,3.234-1.324c-0.318-0.514-0.652-1.046-0.985-1.611
		c-2.012-3.425-3.276-7.195-5.006-10.756c-2.295-4.724-3.353-11.081-0.337-15.279C70.48,25.353,81.668,43.63,87.824,53.685z"/>
	<path fill="#D98918" d="M112.438,105.642c-2.117-1.78-6.814-0.629-9.3-0.367c-3.944,0.415-7.785,1.173-11.426,2.734
		c6.184,1.463,13.847-1.402,19.886-2.577L112.438,105.642z"/>
	<path fill="#D98918" d="M111.372,109.673c-2.827-0.314-5.717,1.112-8.144,2.374c-1.154,0.6-7.488,5.317-8.361,4.988
		C99.337,118.72,108.249,112.486,111.372,109.673z"/>
	<g>
		<path fill="#231F20" d="M164.044,67.688c-0.399-0.476,8.497,2.057,10.286,13.398c0.955,5.373-1.163,12.153-6.229,16.797
			c-4.862,4.82-13.52,6.535-20.09,2.892c-6.607-3.114-11.224-10.449-10.474-17.471c0.646-6.965,5.02-12.395,9.562-15.223
			C157.122,62.414,164.596,67.839,164.044,67.688c0.098,0.786-7.198-3.55-15.96,1.966c-3.971,2.681-7.789,7.765-8.234,13.816
			c-0.529,6.065,3.4,12.286,9.275,15.099c5.752,3.14,12.963,1.773,17.425-2.406c4.557-4.054,6.612-10.02,5.943-14.845
			C171.345,70.982,163.474,68.004,164.044,67.688z"/>
	</g>
	<circle fill="#231F20" cx="160.495" cy="85.188" r="4.694"/>
	<circle fill="#231F20" cx="185.089" cy="85.466" r="4.694"/>
	<g>
		<path fill="#231F20" d="M20.173,82.55c-0.077,0.178-3.677-1.844-5.527-7.618c-0.956-2.861,0.131-7.105,3.184-9.46
			c2.864-2.412,6.735-3.863,10.697-3.986c8.225-0.014,14.554,5.373,18.493,9.07c3.998,3.908,6.293,6.791,6.011,7.084
			c-0.29,0.303-3.059-2.175-7.242-5.694c-4.133-3.377-10.259-8.068-17.216-7.989c-6.803,0.057-13.757,5.274-12.116,10.588
			C17.606,79.55,20.667,82.224,20.173,82.55z"/>
	</g>
	<g>
		<path fill="#231F20" d="M21.419,110.598c0.119,0.224-2.776,1.812-7.441,0.604c-4.921-1.119-8.736-7.56-8.608-13.658
			c-0.185-6.074,2.476-12.451,6.847-14.832c4.438-2.404,7.695-0.418,7.454-0.257c-0.011,0.565-3.166-0.486-6.466,1.828
			c-3.325,2.174-5.53,7.773-5.364,13.206c-0.028,5.5,2.889,10.695,6.749,11.966C18.349,110.868,21.374,110.064,21.419,110.598z"/>
	</g>
	<g>
		<path fill="#231F20" d="M51.95,123.392c0.226,0.279-2.565,3.373-7.365,7.543c-4.502,3.91-12.94,9.735-22.077,6.68
			c-4.214-1.391-8.115-4.521-9.587-8.664c-1.489-4.105-0.773-8.242,0.548-11.231c2.738-6.165,7.132-8.108,7.179-7.822
			c0.383,0.388-3.384,2.793-5.451,8.5c-2.693,5.522-0.053,14.724,8.089,16.87c7.663,2.657,15.384-2.178,20.152-5.788
			C48.379,125.729,51.657,123.034,51.95,123.392z"/>
	</g>
	<g>
		<path fill="#231F20" d="M130.241,47.086c-0.435,0.29-3.196-4.691-9.959-9.447c-6.614-4.836-16.923-9.319-27.742-11.047
			c-5.072-0.702-11.939-1.787-13.322,2.495c-0.943,4.388,1.475,9.238,3.008,12.877c3.585,7.452,6.502,12.267,6.056,12.524
			c-0.267,0.157-3.676-4.262-7.72-11.702c-1.685-3.798-4.616-8.247-3.568-14.359c0.85-3.318,4.558-4.8,7.378-4.91
			c2.962-0.044,5.718,0.182,8.556,0.633c11.241,1.798,21.825,6.637,28.472,12.013C128.207,41.479,130.542,47.016,130.241,47.086z"/>
	</g>
	<g>
		<path fill="#231F20" d="M143.251,113.928c-0.289-0.401,5.65-3.554,16.875-5.403c5.589-0.941,12.461-1.833,20.42-1.552
			c3.951,0.235,8.282,0.568,12.515,2.585c2.058,0.985,4.213,2.817,4.752,5.49c0.564,2.615-0.316,5.214-1.461,7.389
			c-9.567,18.552-34.153,26.157-57.671,29.239c-23.992,3.792-51.603-0.35-73.478-15.071c-5.442-3.635-10.496-7.866-14.969-12.622
			c-4.553-4.583-8.382-10.625-9.182-17.308c-1.343-13.693,6.892-25.341,15.385-33.8c18.116-16.512,40.135-26.17,59.822-27.041
			c19.673-0.69,35.654,5.197,45.194,11.276c9.569,6.33,13.041,12.156,13.056,12.06c-0.321,0.361-4.089-5.208-13.633-11.144
			c-9.461-5.687-25.35-11.229-44.514-10.339c-19.134,1.019-40.718,10.684-58.304,26.846c-8.238,8.213-15.898,19.509-14.59,31.841
			c1.776,12.228,13.136,20.915,23.106,28.173c21.329,14.321,48.129,18.462,71.82,14.831c23.288-2.902,47.239-10.415,56.301-27.767
			c2.587-4.048,1.774-8.895-2.405-10.553c-3.744-1.861-7.987-2.308-11.821-2.584c-7.776-0.404-14.615,0.334-20.17,1.116
			C149.099,111.133,143.211,113.866,143.251,113.928z"/>
	</g>
	<g>
		<path fill="#231F20" d="M128.64,150.852c0.693-0.125,0.463,6.622-5.043,14.102c-4.775,7.661-14.925,16.436-27.495,18.069
			c-3.101,0.37-6.268,0.381-9.362-0.397c-3.063-0.588-6.367-3.243-6.684-6.636c-0.518-6.386,2.348-11.151,4.037-15.28
			c4.224-8.076,5.487-13.639,5.425-13.782c0.942-0.05,0.119,6.409-3.722,14.522c-1.538,4.073-4.023,9.147-3.453,14.148
			c0.721,5.169,8.108,5.604,13.436,4.975c11.695-1.555,21.307-9.453,26.317-16.701C127.735,156.835,128.469,150.865,128.64,150.852z
			"/>
	</g>
	<g>
		<path fill="#231F20" d="M169.296,72.026c-0.281,0.159,2.234-4.983,9.645-5.175c7.106-0.148,15.828,7.079,16.515,16.684
			c1.161,10.091-8.675,17.365-15.491,17.079c-7.369,0.111-10.217-4.869-9.853-4.774c0.291-0.537,3.412,3.483,9.744,2.921
			c6.019-0.216,14.175-6.58,13.135-15.044c-0.527-8.205-8.104-14.835-14.125-15.016C172.616,68.372,169.631,72.613,169.296,72.026z"
			/>
	</g>
	<g>
		<path fill="#231F20" d="M185.231,108.864c0.18-0.123-1.29-10.771-1.12-10.922c0.244-0.055,1.028,2.596,1.474,5.359
			C185.994,106.098,185.466,108.928,185.231,108.864z"/>
	</g>
	<g>
		<path fill="#231F20" d="M121.375,108.852c0.172-0.085-2.06,6.19-9.956,11.162c-3.815,2.467-9.001,4.584-14.898,4.445
			c-6.078-0.037-11.774-4.986-13.298-11.103c-2.439-5.835,0.281-13.595,6.029-15.891c5.316-2.632,10.946-2.632,15.429-1.968
			c9.287,1.366,13.665,6.594,13.339,6.663c-0.109,0.274-4.56-4.401-13.511-5.438c-4.316-0.518-9.73-0.359-14.54,2.113
			c-5.117,2.255-7.302,8.543-5.169,14.04c1.498,5.671,6.306,9.87,11.818,10.043c5.393,0.195,10.417-1.683,14.154-3.955
			C118.519,114.416,121.039,108.569,121.375,108.852z"/>
	</g>
</g>
</svg>
