<?xml version="1.0" encoding="utf-8"?>
<!-- Generator: Adobe Illustrator 17.0.0, SVG Export Plug-In . SVG Version: 6.00 Build 0)  -->
<!DOCTYPE svg PUBLIC "-//W3C//DTD SVG 1.1//EN" "http://www.w3.org/Graphics/SVG/1.1/DTD/svg11.dtd">
<svg version="1.1" id="图层_1" xmlns="http://www.w3.org/2000/svg" xmlns:xlink="http://www.w3.org/1999/xlink" x="0px" y="0px"
	 width="200px" height="200px" viewBox="0 0 200 200" enable-background="new 0 0 200 200" xml:space="preserve">
<g>
	<linearGradient id="SVGID_1_" gradientUnits="userSpaceOnUse" x1="162.7755" y1="32.9105" x2="170.8462" y2="161.1938">
		<stop  offset="0.0061" style="stop-color:#0064B0"/>
		<stop  offset="0.5153" style="stop-color:#009CE0"/>
		<stop  offset="1" style="stop-color:#0064B0"/>
	</linearGradient>
	<path fill="url(#SVGID_1_)" d="M191.582,94.128l0.064,0.077c6.384,8.838-9.819,13.75-14.731,18.172
		c-9.334,9.329-13.266,21.606-19.65,33.394c-3.95,7.315-9.296,13.323-15.527,18.3c9.239-18.198,16.375-47.303,14.056-69.375
		l0.051-0.592c9.112,0.981,16.076-8.767,11.023-17.528c-2.912-5.04-7.423-6.015-11.507-4.817c-0.694,0.204-1.37,0.465-2.026,0.79
		c-2.459-12.285-6.391-33.853-16.694-41.703l0.58-1.159c11.456,7.601,21.008,17.605,26.844,30.119
		c2.912,6.257,5.206,12.686,9.105,18.427c4.836,7.136,9.207,5.486,17.019,6.665C198.464,86.144,195.723,90.776,191.582,94.128z"/>
	<linearGradient id="SVGID_2_" gradientUnits="userSpaceOnUse" x1="145.7693" y1="82.7329" x2="168.566" y2="82.7329">
		<stop  offset="0.0061" style="stop-color:#FFDF32"/>
		<stop  offset="1" style="stop-color:#FDBF0F"/>
	</linearGradient>
	<path fill="url(#SVGID_2_)" d="M153.333,72.547c0.656-0.325,1.332-0.586,2.026-0.79c4.084-1.198,8.595-0.223,11.507,4.817
		c5.053,8.761-1.911,18.51-11.023,17.528c-0.484-0.051-0.968-0.134-1.459-0.248c-7.264-1.676-10.15-8.181-7.831-14.292
		C147.643,76.695,150.243,74.031,153.333,72.547z M155.378,89.782c6.219,1.434,11.291-5.11,7.914-10.953
		c-1.841-3.199-4.702-3.811-7.296-3.052c-2.498,0.732-4.74,2.74-5.575,4.944C148.949,84.596,150.778,88.718,155.378,89.782z"/>
	<linearGradient id="SVGID_3_" gradientUnits="userSpaceOnUse" x1="148.6435" y1="83.1306" x2="166.6416" y2="83.1306">
		<stop  offset="0.0061" style="stop-color:#F89E1C"/>
		<stop  offset="1" style="stop-color:#F26E21"/>
	</linearGradient>
	<circle fill="url(#SVGID_3_)" cx="157.643" cy="83.131" r="8.999"/>
	<radialGradient id="SVGID_4_" cx="157.1474" cy="82.7332" r="7.2367" gradientUnits="userSpaceOnUse">
		<stop  offset="0.4049" style="stop-color:#F4F5F5"/>
		<stop  offset="1" style="stop-color:#ABC9D7"/>
	</radialGradient>
	<path fill="url(#SVGID_4_)" d="M163.292,78.829c3.377,5.843-1.695,12.386-7.914,10.953c-4.6-1.064-6.429-5.186-4.957-9.06
		c0.835-2.205,3.078-4.212,5.575-4.944C158.59,75.019,161.451,75.631,163.292,78.829z"/>
	<path fill="#FDBF0F" d="M155.793,94.695c2.319,22.072-4.817,51.177-14.056,69.375c-4.881,3.893-10.309,7.155-16.044,9.914
		l-0.35-1.198c4.912-8.347,5.894-20.625,7.856-29.96c2.95-15.719,4.422-31.922,4.913-47.641c0.491-13.75-1.963-27.506-4.913-40.766
		c-2.453-11.297-7.856-21.122-11.297-31.922l0.414-0.943c5.206,2.307,10.214,5.015,14.903,8.131l-0.58,1.159
		c10.303,7.85,14.234,29.418,16.694,41.703c-3.09,1.485-5.69,4.148-6.779,7.015c-2.319,6.111,0.567,12.616,7.831,14.292
		c0.491,0.115,0.975,0.197,1.459,0.248L155.793,94.695z"/>
	<linearGradient id="SVGID_5_" gradientUnits="userSpaceOnUse" x1="108.2736" y1="36.3397" x2="116.3443" y2="164.623">
		<stop  offset="0.0061" style="stop-color:#0064B0"/>
		<stop  offset="0.5153" style="stop-color:#009CE0"/>
		<stop  offset="1" style="stop-color:#0064B0"/>
	</linearGradient>
	<path fill="url(#SVGID_5_)" d="M133.198,54.419c2.95,13.26,5.403,27.016,4.913,40.766c-0.491,15.719-1.963,31.922-4.913,47.641
		c-1.962,9.335-2.944,21.613-7.856,29.96l0.35,1.198c-10.991,5.288-23.097,8.723-34.592,11.227l-0.14-0.637
		c20.007-43.092,25.053-98.015,7.984-142.91c-2.179-5.722-5.142-11.303-7.149-16.796c-1.586-4.352-2.931-9.806-6.728-12.195
		l0.083-0.829c12.431,1.23,25.308,4.441,37.166,9.71l-0.414,0.943C125.342,33.297,130.746,43.123,133.198,54.419z"/>
	<path fill="#FDBF0F" d="M98.944,41.663c17.07,44.895,12.023,99.819-7.984,142.91l0.14,0.637c-0.535,0.115-1.077,0.229-1.612,0.344
		c-3.231,0.745-6.455,1.363-9.685,1.867l-0.14-0.879c5.894-6.881,7.863-19.65,9.334-27.997c2.944-19.643,4.422-39.784,3.434-59.919
		c-0.981-18.669-4.906-38.313-9.328-56.975c-1.472-8.353-5.894-22.594-12.278-28.978l-0.025-1.395
		c1.918-0.038,3.823-0.032,5.702,0.019c2.848,0.077,5.734,0.255,8.647,0.548l-0.083,0.829c3.798,2.389,5.142,7.844,6.728,12.195
		C93.803,30.36,96.765,35.941,98.944,41.663z"/>
	<linearGradient id="SVGID_6_" gradientUnits="userSpaceOnUse" x1="53.8022" y1="39.7669" x2="61.8729" y2="168.0502">
		<stop  offset="0.0061" style="stop-color:#0064B0"/>
		<stop  offset="0.5153" style="stop-color:#009CE0"/>
		<stop  offset="1" style="stop-color:#0064B0"/>
	</linearGradient>
	<path fill="url(#SVGID_6_)" d="M73.77,146.757c1.472-11.788-3.434-26.034-17.681-25.544l-0.351-0.095
		c-1.268,4.766-2.377,9.627-4.753,14.107c-1.58,2.995-3.791,5.683-5.881,8.398c-3.555,4.633-8.328,9.526-13.718,13.056
		c1.249-5.263,3.613-10.309,4.568-15.815c1.963-8.595,3.192-17.681,2.453-26.525C37.426,99.85,35.464,86.348,26.62,74.312
		l0.261-0.631c4.747,2.007,9.131,4.862,13.247,8.245c4.913,4.174,11.539,9.819,13.508,16.7l0.108,0.261
		c13.151-5.505,13.087-32.84,8.729-43.487c-6.875-18.663-25.537-23.575-44.2-25.047c8.245-8.442,15.566-12.852,27.245-15.84
		c8.047-2.058,16.815-3.077,25.283-3.237l0.025,1.395c6.384,6.384,10.806,20.625,12.278,28.978
		c4.422,18.663,8.347,38.307,9.328,56.975c0.988,20.135-0.491,40.276-3.434,59.919c-1.472,8.347-3.441,21.116-9.334,27.997
		l0.14,0.879c-9.538,1.485-19.083,1.943-28.628,1.574l-0.248-0.242C62.129,177.482,72.311,162.362,73.77,146.757z"/>
	<path fill="#FDBF0F" d="M38.407,114.338c0.739,8.844-0.491,17.93-2.453,26.525c-0.956,5.506-3.32,10.552-4.568,15.815
		c-3.727,2.44-7.761,4.224-11.883,4.81c-3.441,0.491-9.334,0.981-9.334-3.192c0.312-3.734,4.492-7.365,6.327-10.533
		c2.103-3.638,3.683-7.563,4.868-11.583c2.37-8.054,3.332-16.828,1.924-25.143c-1.65-9.711-6.69-18.523-10.175-27.64
		c-2.205-5.155-5.155-13.998,3.689-12.527c3.549,0.491,6.894,1.459,10.08,2.81l-0.261,0.631
		C35.464,86.348,37.426,99.85,38.407,114.338z"/>
	<linearGradient id="SVGID_7_" gradientUnits="userSpaceOnUse" x1="162.7755" y1="32.9105" x2="170.8462" y2="161.1938">
		<stop  offset="0.0061" style="stop-color:#0064B0"/>
		<stop  offset="0.5153" style="stop-color:#009CE0"/>
		<stop  offset="1" style="stop-color:#0064B0"/>
	</linearGradient>
	<path fill="url(#SVGID_7_)" d="M191.582,94.128l0.064,0.077c6.384,8.838-9.819,13.75-14.731,18.172
		c-9.334,9.329-13.266,21.606-19.65,33.394c-3.95,7.315-9.296,13.323-15.527,18.3c9.239-18.198,16.375-47.303,14.056-69.375
		l0.051-0.592c9.112,0.981,16.076-8.767,11.023-17.528c-2.912-5.04-7.423-6.015-11.507-4.817c-0.694,0.204-1.37,0.465-2.026,0.79
		c-2.459-12.285-6.391-33.853-16.694-41.703l0.58-1.159c11.456,7.601,21.008,17.605,26.844,30.119
		c2.912,6.257,5.206,12.686,9.105,18.427c4.836,7.136,9.207,5.486,17.019,6.665C198.464,86.144,195.723,90.776,191.582,94.128z"/>
	<path fill="#FDBF0F" d="M155.793,94.695c2.319,22.072-4.817,51.177-14.056,69.375c-4.881,3.893-10.309,7.155-16.044,9.914
		l-0.35-1.198c4.912-8.347,5.894-20.625,7.856-29.96c2.95-15.719,4.422-31.922,4.913-47.641c0.491-13.75-1.963-27.506-4.913-40.766
		c-2.453-11.297-7.856-21.122-11.297-31.922l0.414-0.943c5.206,2.307,10.214,5.015,14.903,8.131l-0.58,1.159
		c10.303,7.85,14.234,29.418,16.694,41.703c-3.09,1.485-5.69,4.148-6.779,7.015c-2.319,6.111,0.567,12.616,7.831,14.292
		c0.491,0.115,0.975,0.197,1.459,0.248L155.793,94.695z"/>
	<linearGradient id="SVGID_8_" gradientUnits="userSpaceOnUse" x1="108.2736" y1="36.3397" x2="116.3443" y2="164.623">
		<stop  offset="0.0061" style="stop-color:#0064B0"/>
		<stop  offset="0.5153" style="stop-color:#009CE0"/>
		<stop  offset="1" style="stop-color:#0064B0"/>
	</linearGradient>
	<path fill="url(#SVGID_8_)" d="M133.198,54.419c2.95,13.26,5.403,27.016,4.913,40.766c-0.491,15.719-1.963,31.922-4.913,47.641
		c-1.962,9.335-2.944,21.613-7.856,29.96l0.35,1.198c-10.991,5.288-23.097,8.723-34.592,11.227l-0.14-0.637
		c20.007-43.092,25.053-98.015,7.984-142.91c-2.179-5.722-5.142-11.303-7.149-16.796c-1.586-4.352-2.931-9.806-6.728-12.195
		l0.083-0.829c12.431,1.23,25.308,4.441,37.166,9.71l-0.414,0.943C125.342,33.297,130.746,43.123,133.198,54.419z"/>
	<path fill="#FDBF0F" d="M98.944,41.663c17.07,44.895,12.023,99.819-7.984,142.91l0.14,0.637c-0.535,0.115-1.077,0.229-1.612,0.344
		c-3.231,0.745-6.455,1.363-9.685,1.867l-0.14-0.879c5.894-6.881,7.863-19.65,9.334-27.997c2.944-19.643,4.422-39.784,3.434-59.919
		c-0.981-18.669-4.906-38.313-9.328-56.975c-1.472-8.353-5.894-22.594-12.278-28.978l-0.025-1.395
		c1.918-0.038,3.823-0.032,5.702,0.019c2.848,0.077,5.734,0.255,8.647,0.548l-0.083,0.829c3.798,2.389,5.142,7.844,6.728,12.195
		C93.803,30.36,96.765,35.941,98.944,41.663z"/>
	<linearGradient id="SVGID_9_" gradientUnits="userSpaceOnUse" x1="53.8022" y1="39.7669" x2="61.8729" y2="168.0502">
		<stop  offset="0.0061" style="stop-color:#0064B0"/>
		<stop  offset="0.5153" style="stop-color:#009CE0"/>
		<stop  offset="1" style="stop-color:#0064B0"/>
	</linearGradient>
	<path fill="url(#SVGID_9_)" d="M73.77,146.757c1.472-11.788-3.434-26.034-17.681-25.544l-0.351-0.095
		c-1.268,4.766-2.377,9.627-4.753,14.107c-1.58,2.995-3.791,5.683-5.881,8.398c-3.555,4.633-8.328,9.526-13.718,13.056
		c1.249-5.263,3.613-10.309,4.568-15.815c1.963-8.595,3.192-17.681,2.453-26.525C37.426,99.85,35.464,86.348,26.62,74.312
		l0.261-0.631c4.747,2.007,9.131,4.862,13.247,8.245c4.913,4.174,11.539,9.819,13.508,16.7l0.108,0.261
		c13.151-5.505,13.087-32.84,8.729-43.487c-6.875-18.663-25.537-23.575-44.2-25.047c8.245-8.442,15.566-12.852,27.245-15.84
		c8.047-2.058,16.815-3.077,25.283-3.237l0.025,1.395c6.384,6.384,10.806,20.625,12.278,28.978
		c4.422,18.663,8.347,38.307,9.328,56.975c0.988,20.135-0.491,40.276-3.434,59.919c-1.472,8.347-3.441,21.116-9.334,27.997
		l0.14,0.879c-9.538,1.485-19.083,1.943-28.628,1.574l-0.248-0.242C62.129,177.482,72.311,162.362,73.77,146.757z"/>
	<linearGradient id="SVGID_10_" gradientUnits="userSpaceOnUse" x1="103.1817" y1="107.8971" x2="103.1817" y2="36.0727">
		<stop  offset="0" style="stop-color:#00AAE8"/>
		<stop  offset="0.9939" style="stop-color:#0064B0"/>
	</linearGradient>
	<path fill="url(#SVGID_10_)" d="M190.187,84.895c-7.812-1.178-12.183,0.472-17.019-6.665c-3.9-5.741-6.193-12.17-9.105-18.427
		c-5.837-12.514-15.388-22.517-26.844-30.119c-4.689-3.116-9.697-5.824-14.903-8.131c-11.858-5.269-24.735-8.48-37.166-9.71
		c-2.912-0.293-5.798-0.471-8.647-0.548c-1.879-0.051-3.785-0.057-5.702-0.019c-8.468,0.159-17.236,1.179-25.283,3.237
		c-11.679,2.989-19,7.398-27.245,15.84c18.663,1.472,37.325,6.384,44.2,25.047c4.358,10.647,4.422,37.982-8.729,43.487l-0.108-0.261
		c-1.969-6.881-8.596-12.526-13.508-16.7c-4.116-3.383-8.5-6.238-13.247-8.245c-3.186-1.351-6.531-2.319-10.08-2.81
		c-8.844-1.472-5.894,7.372-3.689,12.527c3.485,9.118,8.525,17.93,10.175,27.64c0.2,1.18,0.347,2.37,0.454,3.565
		c10.4,2.985,21.891,2.374,32.443,0.907c14.18-1.973,27.152-5.389,40.202-11.056c21.078-9.154,44.586-18.241,65.917-4.612
		c7.505,4.795,13.274,8.992,22.775,6.131c1.82-0.548,3.577-1.413,5.225-2.515c2.736-2.569,4.006-5.569,1.344-9.254l-0.064-0.077
		C195.723,90.776,198.464,86.144,190.187,84.895z M155.843,94.102c-0.484-0.051-0.968-0.134-1.459-0.248
		c-7.264-1.676-10.15-8.181-7.831-14.292c1.09-2.867,3.689-5.53,6.779-7.015c0.656-0.325,1.332-0.586,2.026-0.79
		c4.084-1.198,8.595-0.223,11.507,4.817C171.919,85.335,164.955,95.083,155.843,94.102z"/>
	<linearGradient id="SVGID_11_" gradientUnits="userSpaceOnUse" x1="138.9276" y1="90.1952" x2="138.9276" y2="39.1823">
		<stop  offset="0.0061" style="stop-color:#FFDF32"/>
		<stop  offset="1" style="stop-color:#FDBF0F"/>
	</linearGradient>
	<path fill="url(#SVGID_11_)" d="M133.198,54.419c2.787,12.526,5.127,25.496,4.964,38.485c5.995,0.001,11.956,1.042,17.791,3.563
		c-0.048-0.595-0.1-1.188-0.161-1.773l0.051-0.592c-0.484-0.051-0.968-0.134-1.459-0.248c-7.264-1.676-10.15-8.181-7.831-14.292
		c1.09-2.867,3.689-5.53,6.779-7.015c-2.459-12.285-6.391-33.853-16.694-41.703l0.58-1.159c-4.689-3.116-9.697-5.824-14.903-8.131
		l-0.414,0.943C125.342,33.297,130.746,43.123,133.198,54.419z"/>
	<linearGradient id="SVGID_12_" gradientUnits="userSpaceOnUse" x1="95.4822" y1="108.6306" x2="87.4115" y2="24.9496">
		<stop  offset="0.0061" style="stop-color:#FFDF32"/>
		<stop  offset="1" style="stop-color:#FDBF0F"/>
	</linearGradient>
	<path fill="url(#SVGID_12_)" d="M83.105,41.65c4.422,18.663,8.347,38.307,9.328,56.975c0.12,2.457,0.203,4.914,0.252,7.37
		c1.234-0.497,2.467-1.006,3.701-1.542c4.208-1.828,8.514-3.649,12.879-5.291c-0.188-19.84-3.469-39.478-10.321-57.5
		c-2.179-5.722-5.142-11.303-7.149-16.796c-1.586-4.352-2.931-9.806-6.728-12.195l0.083-0.829c-2.912-0.293-5.798-0.471-8.647-0.548
		c-1.879-0.051-3.785-0.057-5.702-0.019l0.025,1.395C77.211,19.057,81.633,33.297,83.105,41.65z"/>
	<path fill="#FDBF0F" d="M38.407,114.338c0.739,8.844-0.491,17.93-2.453,26.525c-0.956,5.506-3.32,10.552-4.568,15.815
		c-3.727,2.44-7.761,4.224-11.883,4.81c-3.441,0.491-9.334,0.981-9.334-3.192c0.312-3.734,4.492-7.365,6.327-10.533
		c2.103-3.638,3.683-7.563,4.868-11.583c2.37-8.054,3.332-16.828,1.924-25.143c-1.65-9.711-6.69-18.523-10.175-27.64
		c-2.205-5.155-5.155-13.998,3.689-12.527c3.549,0.491,6.894,1.459,10.08,2.81l-0.261,0.631
		C35.464,86.348,37.426,99.85,38.407,114.338z"/>
	<path fill="#00AEE9" d="M190.187,84.895c-7.812-1.178-12.183,0.472-17.019-6.665c-3.9-5.741-6.193-12.17-9.105-18.427
		c-5.837-12.514-15.388-22.517-26.844-30.119c-4.689-3.116-9.697-5.824-14.903-8.131c-11.858-5.269-24.735-8.48-37.166-9.71
		c-2.912-0.293-5.798-0.471-8.647-0.548c-1.879-0.051-3.785-0.057-5.702-0.019c-8.468,0.159-17.236,1.179-25.283,3.237
		c-11.679,2.989-19,7.398-27.245,15.84c4.03,0.318,8.059,0.797,11.97,1.539c5.689-3.72,13.893-6.271,18.684-7.627
		c7.898-2.236,15.815-3.387,24.232-3.387c26.234,0,56.884,6.703,75.212,26.961c6.022,6.656,9.418,15.924,14.706,23.257
		c0.698,0.968,1.345,1.99,1.971,3.034c0.654,0.677,1.265,1.485,1.818,2.442c0.499,0.866,0.877,1.742,1.151,2.615
		c1.616,2.641,3.41,5.133,5.877,7.001c5.989,4.534,12.493,0.7,18.596,3.09c0.879,0.344,1.637,0.877,2.33,1.371
		C196.344,88.146,195.801,85.742,190.187,84.895z"/>
	<path fill="#FFF100" d="M125.047,31.141c7.955,3.677,15.259,8.482,21.369,14.644c-2.417-6.225-5.564-11.73-9.777-14.94l0.58-1.159
		c-4.689-3.116-9.697-5.824-14.903-8.131l-0.414,0.943C122.837,25.434,123.92,28.299,125.047,31.141z"/>
	<path fill="#FFF100" d="M76.394,20.918c4.704,0.098,9.524,0.413,14.369,0.987c-1.258-3.623-2.727-7.364-5.696-9.233l0.083-0.829
		c-2.912-0.293-5.798-0.471-8.647-0.548c-1.879-0.051-3.785-0.057-5.702-0.019l0.025,1.395
		C72.901,14.747,74.767,17.655,76.394,20.918z"/>
	<path fill="#0064B0" d="M182.733,103.4c2.392-0.234,5.924-0.773,7.901-2.159c0.916-0.642,1.88-1.827,2.113-2.915
		c0.125-0.587-0.992-4.285-1.135-4.147c-3.245,3.158-8.69,4.799-13.021,5.387c-2.6,0.353-5.175,0.824-7.805,0.959
		c-1.262,0.065-2.569-0.141-3.823,0c-0.475,0.053-1.403-0.076-1.604,0.474C164.325,103.825,180.937,103.576,182.733,103.4z"/>
	<linearGradient id="SVGID_13_" gradientUnits="userSpaceOnUse" x1="50.9276" y1="145.7781" x2="191.282" y2="145.7781">
		<stop  offset="0.0061" style="stop-color:#003E83"/>
		<stop  offset="1" style="stop-color:#0064B0"/>
	</linearGradient>
	<path fill="url(#SVGID_13_)" d="M191.282,102.439c-0.247,0.035-0.509,0.086-0.788,0.156c-2.341,0.59-5.659,3.037-8.207,3.986
		c-3.556,1.323-7.115,2.533-10.291,4.67c-5.899,3.969-10.976,9.841-14.635,15.916c-7.368,12.234-13.752,25.115-25.67,33.661
		c-10.634,7.625-23.914,11.437-36.69,13.496c-10.777,1.737-22.109,2.763-32.988,1.277c-3.348,4.761-7.153,9.195-11.087,13.152
		l0.248,0.242c9.545,0.37,19.09-0.089,28.628-1.574c3.23-0.503,6.454-1.121,9.685-1.867c0.535-0.115,1.077-0.23,1.612-0.344
		c11.495-2.504,23.601-5.939,34.592-11.227c5.734-2.759,11.163-6.021,16.044-9.914c6.231-4.977,11.577-10.985,15.527-18.3
		c6.384-11.788,10.316-24.066,19.65-33.394C180.044,109.56,187.746,106.542,191.282,102.439z"/>
	<linearGradient id="SVGID_14_" gradientUnits="userSpaceOnUse" x1="125.3424" y1="155.3639" x2="151.7039" y2="155.3639">
		<stop  offset="0.0061" style="stop-color:#F89E1C"/>
		<stop  offset="1" style="stop-color:#F26E21"/>
	</linearGradient>
	<path fill="url(#SVGID_14_)" d="M131.692,160.829c-0.753,0.54-1.522,1.056-2.301,1.558c-0.985,3.768-2.253,7.347-4.049,10.399
		l0.35,1.198c5.734-2.759,11.163-6.021,16.044-9.914c3.874-7.631,7.375-17.182,9.967-27.326
		C146.303,145.8,140.515,154.502,131.692,160.829z"/>
	<linearGradient id="SVGID_15_" gradientUnits="userSpaceOnUse" x1="79.6639" y1="180.8424" x2="95.3601" y2="180.8424">
		<stop  offset="0.0061" style="stop-color:#F89E1C"/>
		<stop  offset="1" style="stop-color:#F26E21"/>
	</linearGradient>
	<path fill="url(#SVGID_15_)" d="M95.36,174.263c-0.119,0.02-0.239,0.042-0.358,0.061c-3.22,0.519-6.49,0.972-9.782,1.316
		c-1.34,4.156-3.106,8.04-5.557,10.902l0.14,0.879c3.23-0.503,6.454-1.121,9.685-1.867c0.535-0.115,1.077-0.23,1.612-0.344
		l-0.14-0.637C92.524,181.208,93.983,177.763,95.36,174.263z"/>
	<linearGradient id="SVGID_16_" gradientUnits="userSpaceOnUse" x1="10.168" y1="139.6641" x2="74.5698" y2="139.6641">
		<stop  offset="0.0061" style="stop-color:#003E83"/>
		<stop  offset="1" style="stop-color:#0064B0"/>
	</linearGradient>
	<path fill="url(#SVGID_16_)" d="M45.104,143.623c2.09-2.714,4.301-5.403,5.881-8.398c2.377-4.479,3.485-9.341,4.753-14.107
		l0.351,0.095c11.057-0.38,16.484,8.115,17.674,17.448c1.535-5.097,0.966-9.668-2.457-14.252
		c-3.015-4.038-13.752-9.872-18.247-5.095c-1.12,1.191-1.491,4.272-2.204,5.759c-5.489,11.456-15.685,23.14-28.371,26.495
		c-0.81,0.214-1.626,0.482-2.444,0.763c-1.771,0.61-3.548,1.289-5.273,1.645c-0.949,0.196-2.013,0.355-3.145,0.508
		c-0.773,1.249-1.346,2.524-1.454,3.812c0,4.173,5.894,3.683,9.334,3.192c4.123-0.586,8.156-2.37,11.883-4.81
		C36.776,153.148,41.548,148.255,45.104,143.623z"/>
	<linearGradient id="SVGID_17_" gradientUnits="userSpaceOnUse" x1="10.168" y1="153.5325" x2="34.9107" y2="153.5325">
		<stop  offset="0.0061" style="stop-color:#F89E1C"/>
		<stop  offset="1" style="stop-color:#F26E21"/>
	</linearGradient>
	<path fill="url(#SVGID_17_)" d="M22.484,151.568c-0.81,0.214-1.626,0.482-2.444,0.763c-1.771,0.61-3.548,1.289-5.273,1.645
		c-0.949,0.196-2.013,0.355-3.145,0.508l0,0c-0.261,0.421-0.496,0.845-0.701,1.272c-0.042,0.087-0.083,0.175-0.122,0.263
		c-0.044,0.098-0.087,0.197-0.128,0.296c-0.074,0.182-0.143,0.365-0.203,0.548c-0.017,0.052-0.03,0.104-0.045,0.156
		c-0.048,0.159-0.09,0.318-0.126,0.477c-0.014,0.061-0.027,0.122-0.039,0.183c-0.04,0.206-0.073,0.412-0.091,0.618
		c0,4.173,5.894,3.683,9.334,3.192c4.123-0.586,8.156-2.37,11.883-4.81c0.91-3.834,2.407-7.555,3.525-11.42
		C31.145,148.149,26.971,150.381,22.484,151.568z"/>
	<path fill="#FFF100" d="M53.744,98.887l-0.108-0.261c-1.969-6.881-8.596-12.526-13.508-16.7c-4.116-3.383-8.5-6.238-13.247-8.245
		c-3.186-1.351-6.531-2.319-10.08-2.81c-8.844-1.472-5.894,7.372-3.689,12.527c3.485,9.118,8.525,17.93,10.175,27.64
		c0.099,0.585,0.185,1.172,0.259,1.761c0.003,0.025,0.006,0.051,0.009,0.077c0.072,0.574,0.134,1.151,0.186,1.728
		c0.648,7.226-0.344,14.667-2.378,21.577c-1.185,4.02-2.765,7.945-4.868,11.583c-2.144,3.7-8.617,8.925-5.374,13.842
		c1.05-5.616,7.244-8.527,10.272-13.001c7.866-11.623,9.081-25.966,6.499-39.471c-1.093-5.72-2.081-11.279-3.196-16.891
		c-0.63-3.174-2.801-8.113-1.663-11.3c1.818-5.092,11.684,2.907,13.849,4.529c2.019,1.513,4.008,3.099,5.991,4.61
		c3.863,2.943,7.647,5.217,10.577,9.444c0.583-0.342,1.077-0.758,1.503-1.228C54.563,98.516,54.161,98.713,53.744,98.887z"/>
	<path fill="#00AEE9" d="M53.451,99.527c0.583-0.342,1.077-0.758,1.503-1.228L54.952,98.3c-0.39,0.217-0.792,0.413-1.208,0.587
		l-0.108-0.261c-1.969-6.881-8.596-12.526-13.508-16.7c-4.116-3.383-8.5-6.238-13.247-8.245l-0.261,0.631
		c1.678,2.284,3.107,4.621,4.33,7.007c2.572,1.52,4.987,3.445,5.933,4.153c2.019,1.513,4.008,3.099,5.991,4.61
		C46.737,93.026,50.52,95.3,53.451,99.527z"/>
	<linearGradient id="SVGID_18_" gradientUnits="userSpaceOnUse" x1="41.5036" y1="66.59" x2="71.563" y2="66.59">
		<stop  offset="0.0061" style="stop-color:#003E83"/>
		<stop  offset="1" style="stop-color:#0064B0"/>
	</linearGradient>
	<path fill="url(#SVGID_18_)" d="M55.757,97.796c3.669,1.908,8.377-4.217,10.064-6.51c3.502-4.762,5.725-10.391,5.742-16.264
		c0.03-10.096-3.123-23.339-11.238-29.931c-4.952-4.023-11.919-9.658-18.821-10.071c9.352,3.617,17.064,9.778,20.969,20.38
		C66.596,65.471,66.868,90.461,55.757,97.796z"/>
	<g>
		<path fill="#231F20" d="M164.156,103.546c-0.307-0.341,0.943-1.934,1.553-3.832c0.559-1.916,0.418-3.94,0.907-4.042
			c0.325-0.1,0.944,2.17,0.287,4.412C166.189,102.307,164.388,103.845,164.156,103.546z"/>
	</g>
	<g>
		<path fill="#231F20" d="M18.29,30.371c-0.05-0.037,2.383-3.147,7.784-7.406c5.318-4.398,14.571-8.533,26.159-10.591
			c22.912-4.471,56.149-1.737,83.147,15.071c13.489,8.112,24.563,20.369,30.398,33.999c2.954,6.663,5.511,13.371,9.643,18.355
			c4.257,5.188,11.577,2.999,17.294,4.967c1.401,0.411,3.178,1.383,3.489,3.281c0.105,1.816-0.862,3.124-1.731,4.173
			c-1.852,2.097-3.974,3.605-6.115,4.768c-4.419,2.149-8.587,2.837-11.994,3.25c-6.859,0.684-10.769-0.078-10.745-0.168
			c0.006-0.22,3.921,0.26,10.641-0.647c3.312-0.507,7.451-1.336,11.547-3.438c2-1.133,4.036-2.657,5.677-4.585
			c0.805-0.945,1.483-2.146,1.383-3.185c-0.165-0.985-1.271-1.752-2.595-2.113c-5.004-1.846-12.815,0.679-18.044-5.218
			c-4.512-5.364-7.059-12.107-10.056-18.72c-5.779-13.283-16.544-25.151-29.784-33.127C107.901,12.538,75.153,9.642,52.48,13.757
			C28.807,17.003,18.548,31.224,18.29,30.371z"/>
	</g>
	<g>
		<path fill="#231F20" d="M53.152,99.138c-0.277-0.221,6.557-2.685,9.097-12.181c2.577-8.864,3.316-22.384-1.747-33.793
			C55.406,41.388,42.934,35.508,33.883,33.42c-9.221-2.31-15.66-2.658-15.61-3.093c0.003-0.186,6.468-0.319,15.944,1.725
			c9.222,1.778,22.558,7.808,27.987,20.326c5.33,12.145,4.34,25.822,1.379,35.019C60.609,97.274,52.947,99.595,53.152,99.138z"/>
	</g>
	<g>
		<path fill="#231F20" d="M50.706,189.013c-0.825-0.412,15.765-15.311,21.016-35.9c2.684-10.028,1.412-21.254-4.122-26.856
			c-5.53-5.602-11.743-4.437-11.511-5.067c-0.32,0.059,6.117-1.814,12.517,4.082c6.299,5.894,7.715,17.999,4.937,28.287
			C68.02,174.953,50.703,189.494,50.706,189.013z"/>
	</g>
	<g>
		<path fill="#231F20" d="M51.177,189.02c-0.011-0.472,11.649,0.418,28.746-2.313c16.784-3.311,40.156-8.103,58.883-21.626
			c20.086-12.906,23.323-38.78,35.993-51.413c2.885-3.591,6.927-4.964,9.811-6.841c3.03-1.739,5.531-3.522,6.991-5.469
			c2.87-4.318-0.525-7.219,0.067-7.172c-0.441-0.269,3.558,2.523,0.612,7.636c-2.787,4.765-10.722,6.794-16.436,12.789
			c-5.85,6.328-10.011,15.604-14.671,25.407c-4.351,9.968-11.631,19.821-21.258,26.574c-19.243,13.857-42.821,18.462-59.775,21.503
			C62.813,190.541,51.135,189.168,51.177,189.02z"/>
	</g>
	<g>
		<path fill="#231F20" d="M156.003,75.793c-0.334,0.041,3.306-2.059,6.755,1.508c1.491,1.63,2.614,4.346,1.977,7.198
			c-0.585,2.818-3.042,5.384-6.108,5.949c-3.008,0.551-6.315-0.627-7.982-3.045c-1.75-2.426-1.443-5.491-0.361-7.418
			C152.592,75.883,156.144,75.71,156.003,75.793c0.22,0.289-3.048,0.867-4.873,4.601c-0.876,1.753-1.018,4.373,0.468,6.326
			c1.367,1.96,4.283,2.976,6.788,2.501c2.565-0.47,4.666-2.608,5.21-4.992c0.59-2.391-0.288-4.794-1.547-6.317
			C159.309,74.675,155.873,76.163,156.003,75.793z"/>
	</g>
	<g>
		<path fill="#231F20" d="M155.362,71.775c-0.469,0.159,5.224-2.978,10.462,2.562c2.284,2.544,3.984,6.741,2.988,11.11
			c-0.914,4.321-4.693,8.243-9.387,9.103c-4.6,0.841-9.709-0.97-12.244-4.661c-2.705-3.708-2.177-8.368-0.64-11.42
			C150.14,72.21,155.564,71.666,155.362,71.775c0.281,0.265-4.859,1.207-7.979,7.11c-1.325,2.866-1.692,7.092,0.752,10.322
			c2.235,3.233,6.952,4.88,11.049,4.117c4.193-0.765,7.615-4.26,8.488-8.147c0.949-3.908-0.507-7.791-2.559-10.229
			C160.586,69.738,155.097,72.263,155.362,71.775z"/>
	</g>
	<circle fill="#231F20" cx="159.6" cy="82.845" r="3.039"/>
	<g>
		<path fill="#231F20" d="M55.819,120.718c-0.149-0.455-0.5,14.756-15.376,29.313c-3.533,3.619-7.799,7.241-13.103,9.834
			c-2.638,1.29-5.61,2.208-8.694,2.576c-2.722,0.101-7.128,1.208-9.122-2.9c-0.643-4.145,2.26-6.608,4.003-9.186
			c2.068-2.444,3.427-5.245,4.742-8.247c2.483-5.973,4.062-12.479,4.569-19.035c1.552-13.407-4.792-25.627-9.663-37.153
			c-1.134-2.939-2.482-5.73-3.019-8.905c-0.242-1.546-0.408-3.271,0.468-4.922c0.901-1.737,2.981-2.292,4.465-2.179
			c6.001,0.515,11.222,2.442,15.708,4.881c8.881,5.028,14.923,11.065,18.673,15.609c3.778,4.652,4.184,8.284,4.138,8.227
			c-0.262,0.116-0.912-3.325-4.776-7.708c-3.816-4.275-10.011-10.157-18.695-14.884c-4.333-2.299-9.576-4.092-15.058-4.512
			c-2.923-0.325-3.951,2.294-3.255,5.199c0.479,2.814,1.838,5.644,2.98,8.533c4.831,11.229,11.513,24.039,9.903,37.954
			c-0.529,6.784-2.153,13.438-4.741,19.618c-1.313,3.016-2.883,6.148-5.015,8.638c-1.868,2.402-4.25,5.266-3.75,7.555
			c0.697,2.178,4.55,2.048,7.245,1.74c2.914-0.327,5.663-1.147,8.202-2.353c5.077-2.414,9.285-5.878,12.791-9.363
			C54.299,134.971,55.009,120.277,55.819,120.718z"/>
	</g>
	<g>
		<path fill="#231F20" d="M31.304,157.075c-1.151-0.175,8.019-20.492,6.517-42.054c-0.588-10.71-2.216-21.343-5.173-28.804
			c-2.866-7.49-6.29-11.74-6.013-11.916c0.051-0.079,3.769,4.02,6.886,11.57c3.206,7.512,4.962,18.336,5.547,29.06
			C40.563,136.973,30.925,157.159,31.304,157.075z"/>
	</g>
	<g>
		<path fill="#231F20" d="M79.679,186.55c-0.171-0.127,1.78-2.218,3.689-6.721c1.919-4.499,3.536-11.325,4.874-19.625
			c2.538-16.587,4.669-39.02,3.574-61.406c-1.204-22.385-6.383-44.32-9.938-60.746C78.36,21.46,70.891,12.514,70.837,12.66
			c0.332-0.472,8.211,8.484,11.955,25.179c3.756,16.38,9.059,38.353,10.272,60.899c1.098,22.511-1.144,44.997-3.9,61.63
			c-1.442,8.294-3.206,15.182-5.296,19.681C81.782,184.562,79.656,186.567,79.679,186.55z"/>
	</g>
	<g>
		<path fill="#231F20" d="M90.978,184.583c-0.326-0.134,4.702-10.211,9.408-26.32c4.658-16.069,8.785-38.27,8.197-60.643
			c-0.335-22.334-5.159-44.492-11.761-59.877c-3.506-7.602-5.93-14.283-7.498-18.861c-1.729-4.638-4.379-6.105-4.246-6.223
			c-0.051-0.083,2.833,1.32,4.75,6.008c1.76,4.638,4.229,11.079,7.856,18.703c6.852,15.433,11.813,37.74,12.15,60.228
			c0.59,22.522-3.669,44.851-8.55,60.933C96.353,174.66,91.026,184.628,90.978,184.583z"/>
	</g>
	<g>
		<path fill="#231F20" d="M125.357,172.797c1.684,0.656,10.737-37.124,12.036-75.639c0.771-19.155-3.224-38.344-7.38-51.999
			c-5.111-13.461-8.475-22.556-8.093-22.668c0.029,0.017,3.639,8.878,8.979,22.358c4.409,13.784,8.507,32.937,7.743,52.354
			C137.358,135.805,127.806,173.794,125.357,172.797z"/>
	</g>
	<g>
		<path fill="#231F20" d="M153.355,72.59c-0.513,0.111-2.504-11.206-5.929-22.059c-1.757-5.399-3.979-10.661-6.356-14.168
			c-2.304-3.566-4.596-5.312-4.421-5.532c0.058-0.126,2.633,1.431,5.193,4.998c2.627,3.5,4.995,8.849,6.774,14.318
			C152.084,61.155,153.656,72.54,153.355,72.59z"/>
	</g>
	<g>
		<path fill="#231F20" d="M141.566,164.446c-0.238-0.102,7.526-16.432,10.994-34.112c4.185-17.567,3.022-35.638,3.252-35.641
			c0.602-0.133,2.195,18.187-2.029,35.901C150.285,148.421,142.054,164.755,141.566,164.446z"/>
	</g>
</g>
</svg>
