<?xml version="1.0" encoding="utf-8"?>
<!-- Generator: Adobe Illustrator 17.0.0, SVG Export Plug-In . SVG Version: 6.00 Build 0)  -->
<!DOCTYPE svg PUBLIC "-//W3C//DTD SVG 1.1//EN" "http://www.w3.org/Graphics/SVG/1.1/DTD/svg11.dtd">
<svg version="1.1" id="图层_1" xmlns="http://www.w3.org/2000/svg" xmlns:xlink="http://www.w3.org/1999/xlink" x="0px" y="0px"
	 width="30px" height="30px" viewBox="0 0 30 30" enable-background="new 0 0 30 30" xml:space="preserve">
<g>
	<radialGradient id="SVGID_1_" cx="8.8075" cy="7.588" r="2.954" gradientUnits="userSpaceOnUse">
		<stop  offset="0" style="stop-color:#F7941D"/>
		<stop  offset="0.0227" style="stop-color:#F7921E"/>
		<stop  offset="0.4436" style="stop-color:#F36D2B"/>
		<stop  offset="0.7843" style="stop-color:#F05634"/>
		<stop  offset="1" style="stop-color:#EF4E37"/>
	</radialGradient>
	<path fill="url(#SVGID_1_)" d="M7.898,10.671c-2.065-0.817-2.59-5.02,0.006-6.053c0.129,0.886,0.419,1.887,0.753,2.698l0.03-0.012
		c0-1.008,0.745-1.884,0.79-2.937c1.114,0.044,1.799,1.722,1.929,2.674c0.263,1.535-0.306,2.938-1.797,3.551
		c-0.084,0.036-0.167,0.067-0.249,0.093C8.816,10.864,8.324,10.84,7.898,10.671z"/>
	<path fill="#FDC567" d="M8.995,13.355c-0.865-0.475-1.214-1.683-1.097-2.684c0.427,0.169,0.918,0.193,1.462,0.014v0.001h0.001
		l0.028,0.082c0,0.614,0.131,1.403,0.527,1.885l0.006,0.007c-0.289,0.235-0.573,0.505-0.832,0.801L8.995,13.355z"/>
	<path fill="#FDC567" d="M17.162,11.874c0.154-0.41,0.218-1.129,0.161-1.607c0.296,0.138,0.643,0.192,1.011,0.151
		c0.114-0.013,0.222-0.037,0.325-0.072l0.026,0.072c0.087,0.737-0.041,1.43,0.084,2.124C18.249,12.265,17.705,12.041,17.162,11.874z
		"/>
	<radialGradient id="SVGID_2_" cx="18.0775" cy="8.6861" r="1.7151" gradientUnits="userSpaceOnUse">
		<stop  offset="0.4049" style="stop-color:#F4F5F5"/>
		<stop  offset="1" style="stop-color:#ABC9D7"/>
	</radialGradient>
	<path fill="url(#SVGID_2_)" d="M17.323,10.267c-0.54-0.249-0.91-0.769-0.929-1.464c-0.03-1.067,0.746-1.802,1.592-1.858
		c0.492-0.033,1.008,0.163,1.404,0.658c0.726,0.91,0.342,2.38-0.732,2.743c-0.102,0.034-0.21,0.059-0.325,0.072
		C17.966,10.459,17.619,10.404,17.323,10.267z"/>
	<path fill="#FDC567" d="M24.615,16.082c-0.778,0.185-1.555,0.831-2.203,1.264l-0.087,0.004c-0.038-0.664-0.211-1.28-0.487-1.844
		l0.004-0.002c0.745-0.658,2.938-1.578,3.771-0.833c0.351,0.351,1.578,2.411,0.964,2.85C26.099,17.912,25.018,16.365,24.615,16.082z
		"/>
	<radialGradient id="SVGID_3_" cx="23.5614" cy="7.9342" r="3.0391" gradientUnits="userSpaceOnUse">
		<stop  offset="0" style="stop-color:#F7941D"/>
		<stop  offset="0.0227" style="stop-color:#F7921E"/>
		<stop  offset="0.4436" style="stop-color:#F36D2B"/>
		<stop  offset="0.7843" style="stop-color:#F05634"/>
		<stop  offset="1" style="stop-color:#EF4E37"/>
	</radialGradient>
	<path fill="url(#SVGID_3_)" d="M24.152,7.033c0.521-0.371,1.035-0.849,1.408-1.403c1.571,1.607,1.066,4.883-1.351,5.402
		c-0.247,0.048-0.48,0.073-0.702,0.076c-0.6,0.007-1.106-0.146-1.517-0.408c-2.164-1.38-1.709-5.79,1.561-5.894l0.219-0.043
		C23.942,5.533,23.946,6.303,24.152,7.033z"/>
	<path fill="#FDC567" d="M23.636,19.5c-0.628,0.041-1.253,0.088-1.838,0.213l-0.203-0.057c0.502-0.447,0.713-1.056,0.736-1.874
		l0.036,0.001c1.315-0.351,2.5-0.043,2.763,1.36c0.043,0.439,0.175,2.499-0.746,2.28c-0.394-0.131-0.657-1.535-0.745-1.885
		L23.636,19.5z"/>
	<radialGradient id="SVGID_4_" cx="15.1212" cy="16.109" r="6.1039" gradientUnits="userSpaceOnUse">
		<stop  offset="0" style="stop-color:#F7941D"/>
		<stop  offset="0.0227" style="stop-color:#F7921E"/>
		<stop  offset="0.4436" style="stop-color:#F36D2B"/>
		<stop  offset="0.7843" style="stop-color:#F05634"/>
		<stop  offset="1" style="stop-color:#EF4E37"/>
	</radialGradient>
	<path fill="url(#SVGID_4_)" d="M14.957,11.422c0.642,0.069,1.273,0.194,1.866,0.353c0.112,0.03,0.225,0.063,0.339,0.099
		c0.543,0.167,1.087,0.391,1.606,0.667c0.623,0.329,1.211,0.732,1.724,1.205c0.327,0.299,0.623,0.628,0.877,0.982
		c0.177,0.247,0.335,0.506,0.468,0.777c0.276,0.564,0.449,1.18,0.487,1.844c0.005,0.087,0.008,0.174,0.008,0.262
		c0,0.058-0.001,0.115-0.002,0.171c-0.023,0.818-0.233,1.427-0.736,1.874c-0.221,0.199-0.501,0.365-0.846,0.503
		c-0.088,0.036-0.181,0.07-0.278,0.102c-0.498,0.165-1.017,0.294-1.545,0.389c-0.791,0.143-1.6,0.209-2.388,0.201
		c-1.348-0.012-2.706-0.073-4.042-0.269c-0.679-0.099-1.404-0.24-2.074-0.494c-0.579-0.22-1.118-0.526-1.55-0.962
		c-0.063-0.064-0.122-0.129-0.178-0.199c-0.207-0.258-0.37-0.556-0.493-0.876c-0.176-0.458-0.268-0.962-0.288-1.457
		c-0.011-0.303,0.005-0.604,0.048-0.887c0.007-0.055,0.015-0.108,0.025-0.161c0.065-0.366,0.204-0.731,0.396-1.084
		c0.192-0.352,0.436-0.69,0.708-1.002c0.259-0.295,0.543-0.566,0.832-0.801c0.186-0.151,0.374-0.286,0.559-0.403
		c0.907-0.576,1.958-0.834,3.033-0.883C13.994,11.352,14.479,11.371,14.957,11.422z"/>
	<path fill="#FDC567" d="M19.6,21.547c-0.174-0.304-0.349-0.609-0.653-0.782l-0.021-0.114c0.528-0.095,1.046-0.224,1.545-0.389
		c0.097-0.032,0.19-0.066,0.278-0.102c0.613,1.133,1.003,1.616-0.004,2.754c-0.438,0.482-1.578,1.403-2.06,0.57
		C18.302,22.803,19.075,21.957,19.6,21.547z"/>
	<path fill="#FDC567" d="M20.57,13.662c1.184-0.657,1.666-1.622,1.403-2.938l0.017-0.025c0.411,0.263,0.918,0.415,1.517,0.408
		c-0.008,1.439-0.537,3.041-2.017,3.607l-0.121,0.014c-0.255-0.354-0.55-0.682-0.877-0.982L20.57,13.662z"/>
	<radialGradient id="SVGID_5_" cx="14.131" cy="8.5104" r="1.7152" gradientUnits="userSpaceOnUse">
		<stop  offset="0.4049" style="stop-color:#F4F5F5"/>
		<stop  offset="1" style="stop-color:#ABC9D7"/>
	</radialGradient>
	<path fill="url(#SVGID_5_)" d="M13.53,10.153c-0.622-0.216-1.061-0.767-1.083-1.525c-0.029-1.067,0.746-1.802,1.592-1.858
		c0.492-0.032,1.009,0.164,1.404,0.658c0.646,0.809,0.413,2.063-0.401,2.585c-0.188,0.12-0.407,0.201-0.654,0.229
		C14.082,10.277,13.79,10.244,13.53,10.153z"/>
	<path fill="#FDC567" d="M15.042,10.012c-0.042,0.472-0.085,0.984-0.085,1.41c-0.478-0.052-0.963-0.071-1.444-0.047
		c0.166-0.337,0.172-0.871,0.016-1.222c0.26,0.091,0.552,0.124,0.858,0.089C14.635,10.213,14.854,10.132,15.042,10.012z"/>
	<path fill="#FDC567" d="M10.422,20.089l-0.024,0.063c-0.395,0.526-0.921,1.139-1.535,1.403v0.043
		c0.657,0.964,0.964,3.814-0.57,2.017c-1.447-1.666-1.14-2.894,0.306-4.604l0.095-0.084c0.056,0.07,0.115,0.135,0.178,0.199
		C9.304,19.563,9.843,19.869,10.422,20.089z"/>
	<path fill="#FDC567" d="M5.928,13.919c-0.303,0.585-1.479,2.312-2.02,1.979c-0.746-0.483,0.218-2.588,0.438-3.07
		c1.052-1.929,3.376,0.088,3.859,1.535l0.177,0.1c-0.192,0.353-0.332,0.718-0.396,1.084c-0.01,0.053-0.018,0.106-0.025,0.161
		l-0.194-0.028C7.012,15.176,6.578,14.513,5.928,13.919z"/>
	<path fill="#FDC567" d="M5.773,18.919c-0.143,0.802-0.451,1.698-1.076,2.24c-0.876,0.833-1.227,0.307-1.096-0.702
		c0.175-1.227,0.219-2.981,1.535-3.552c0.702-0.307,1.929-0.394,2.675-0.307l0.102-0.005c0.02,0.494,0.112,0.999,0.288,1.457
		C7.688,18.602,6.559,18.865,5.773,18.919z"/>
	<path fill="#FFD265" d="M7.946,4.875c-0.015-0.086-0.03-0.173-0.043-0.257c-2.596,1.033-2.071,5.237-0.006,6.053
		c0.048,0.019,0.097,0.035,0.147,0.051c-0.169-0.226-0.366-0.441-0.488-0.667c-0.322-0.601-0.47-1.287-0.505-1.963
		C7.005,7.182,7.076,6.425,7.498,5.6C7.625,5.354,7.783,5.108,7.946,4.875z"/>
	<path fill="#FFD265" d="M10.119,5.161c0.076-0.124,0.155-0.259,0.218-0.399c-0.248-0.231-0.536-0.382-0.86-0.395
		c-0.045,1.052-0.79,1.929-0.79,2.937l-0.03,0.012C8.639,7.273,8.622,7.228,8.605,7.184C8.611,7.253,8.623,7.319,8.644,7.38
		C9.233,6.768,9.673,5.885,10.119,5.161z"/>
	<path fill="#FFD265" d="M23.77,4.761l-0.219,0.043c-3.225,0.103-3.712,4.391-1.65,5.834c-0.083-0.154-0.17-0.308-0.217-0.481
		c-0.102-0.376-0.149-0.774-0.202-1.156c-0.079-0.574-0.071-1.208,0.102-1.76c0.361-1.149,1.229-1.844,2.205-2.385
		C23.783,4.825,23.778,4.793,23.77,4.761z"/>
	<path fill="#FFD265" d="M26.035,6.273C25.906,6.04,25.748,5.822,25.56,5.63c-0.36,0.535-0.853,0.999-1.356,1.364
		c-0.042,0.102-0.078,0.199-0.094,0.287C24.828,6.944,25.455,6.826,26.035,6.273z"/>
	<path fill="#9F032C" d="M11.406,7.041c-0.074-0.545-0.33-1.327-0.745-1.905c0.39,1.228,0.494,2.55-0.263,3.672
		c-0.681,1.009-1.825,1.623-3.029,1.558c0.162,0.127,0.339,0.231,0.528,0.306c0.427,0.169,0.918,0.193,1.462,0.014
		c0.082-0.026,0.165-0.057,0.249-0.093C11.099,9.979,11.669,8.576,11.406,7.041z"/>
	<path fill="#9F032C" d="M26.224,6.677c0.001,0.032,0.003,0.064,0.002,0.095c-0.001,0.554-0.205,1.111-0.414,1.618
		c-0.72,1.749-2.529,2.333-4.222,1.992c0.122,0.118,0.255,0.224,0.4,0.317c0.411,0.263,0.918,0.415,1.517,0.408
		c0.221-0.003,0.455-0.027,0.702-0.076C26.174,10.609,26.875,8.366,26.224,6.677z"/>
	<g>
		<path fill="#FFD265" d="M21.565,15.021c0.103,0.194,0.198,0.395,0.311,0.585c0.013,0.022,0.026,0.045,0.039,0.069
			c-0.025-0.057-0.051-0.114-0.078-0.17C21.756,15.34,21.664,15.179,21.565,15.021z"/>
		<path fill="#FFD265" d="M10.51,13.176c2.012-1.299,4.596-1.531,6.886-0.944c0.873,0.224,1.851,0.639,2.572,1.19
			c0.343,0.262,0.709,0.526,1.021,0.832c-0.156-0.177-0.322-0.347-0.497-0.507c-0.513-0.473-1.101-0.876-1.724-1.205
			c-0.52-0.276-1.064-0.5-1.606-0.667c-0.113-0.036-0.226-0.069-0.339-0.099c-0.593-0.159-1.224-0.284-1.866-0.353
			c-0.478-0.052-0.963-0.071-1.444-0.047c-1.075,0.049-2.126,0.306-3.033,0.883c-0.185,0.117-0.373,0.253-0.559,0.403
			c-0.289,0.235-0.573,0.505-0.832,0.801c-0.272,0.311-0.516,0.65-0.708,1.002c-0.192,0.353-0.332,0.718-0.396,1.084
			c-0.01,0.053-0.018,0.106-0.025,0.161c-0.034,0.224-0.05,0.458-0.05,0.696c0.059-0.231,0.133-0.45,0.243-0.644
			C8.741,14.724,9.5,13.828,10.51,13.176z"/>
	</g>
	<path fill="#CB7825" d="M23.508,11.107c-0.575,0.007-1.063-0.134-1.465-0.377c0.002,0.006,0.004,0.012,0.006,0.018
		c0.167,0.431,0.629,0.597,0.654,1.104c0.022,0.45-0.289,0.921-0.562,1.263c-0.207,0.259-0.452,0.525-0.708,0.734
		c-0.156,0.127-0.357,0.203-0.535,0.305c0.169,0.183,0.327,0.374,0.471,0.575l0.121-0.014C22.971,14.148,23.5,12.545,23.508,11.107z
		"/>
	<path fill="#CB7825" d="M26.56,17.222c-0.383-0.072-0.707-0.504-0.914-0.804c-0.607-0.877-1.276-1.249-2.276-0.751
		c-0.331,0.165-0.829,0.365-1.223,0.642c0.096,0.332,0.158,0.679,0.179,1.04l0.087-0.004c0.648-0.433,1.425-1.079,2.203-1.264
		c0.403,0.283,1.484,1.83,1.962,1.439c0.09-0.064,0.139-0.164,0.159-0.288C26.673,17.234,26.612,17.232,26.56,17.222z"/>
	<path fill="#FFE36D" d="M25.612,14.67c-0.833-0.745-3.026,0.175-3.771,0.833l-0.004,0.002c0.026,0.053,0.05,0.107,0.074,0.16
		c0.488-0.31,1.256-0.507,1.786-0.667c0.498-0.15,1.034-0.249,1.52-0.032c0.434,0.194,0.729,0.685,0.91,1.112
		c0.104,0.245,0.263,1.093,0.492,1.404C27.128,16.978,25.954,15.012,25.612,14.67z"/>
	<path fill="#CB7825" d="M24.992,21.035c-0.031-0.005-0.06-0.011-0.088-0.017c-0.617-0.142-0.597-0.744-0.624-1.273
		c-0.021-0.415-0.071-0.785-0.48-0.852c-0.427-0.069-0.782,0.168-1.184,0.173c0.05-0.368,0.21-1.01-0.092-1.322
		c-0.052,0.012-0.104,0.024-0.156,0.038l-0.036-0.001c-0.023,0.818-0.233,1.427-0.736,1.874l0.203,0.057
		c0.585-0.125,1.21-0.172,1.838-0.213l0.003,0.037c0.088,0.351,0.351,1.754,0.745,1.885C24.688,21.495,24.877,21.318,24.992,21.035z
		"/>
	<path fill="#FFE36D" d="M25.13,19.143c-0.263-1.403-1.448-1.71-2.763-1.36l-0.036-0.001c-0.001,0.026-0.002,0.052-0.003,0.077
		c0.336,0.03,0.67-0.026,0.992,0.043c0.37,0.079,0.731,0.137,0.992,0.455c0.483,0.59,0.573,1.56,0.575,2.306
		c0,0.155-0.052,0.411-0.076,0.657C25.257,20.901,25.165,19.496,25.13,19.143z"/>
	<path fill="#CB7825" d="M18.658,10.346c-0.102,0.034-0.21,0.059-0.325,0.072c-0.368,0.041-0.715-0.013-1.011-0.151
		c0.022,0.178,0.026,0.39,0.015,0.607c0.103,0.071,0.211,0.134,0.332,0.164c0.376,0.093,0.713,0.047,1.045-0.132
		c-0.003-0.161-0.011-0.324-0.031-0.489L18.658,10.346z"/>
	<path fill="#CB7825" d="M18.712,11.921c-0.096-0.072-0.199-0.132-0.304-0.177c-0.111-0.048-0.233-0.08-0.353-0.095
		c-0.072-0.009-0.219,0.035-0.272,0.02c-0.316-0.088-0.112-0.515-0.099-0.696c0.011-0.159-0.091-0.367-0.253-0.244
		c-0.114,0.087-0.135,0.349-0.159,0.479c-0.008,0.046-0.103,0.667-0.11,0.665c0.543,0.167,1.087,0.391,1.606,0.667
		C18.731,12.335,18.717,12.129,18.712,11.921z"/>
	<path fill="#CB7825" d="M14.957,11.422c0-0.427,0.042-0.938,0.085-1.41c-0.188,0.12-0.407,0.201-0.654,0.229
		c-0.292,0.034-0.571,0.004-0.822-0.077c0,0.005,0,0.009,0,0.013c0.031,0.503,0.496,0.316,0.836,0.422
		c0.119,0.037,0.171,0.156,0.148,0.29c-0.026,0.152-0.124,0.155-0.283,0.148c-0.183-0.008-0.448-0.067-0.651,0
		c-0.021,0.122-0.054,0.238-0.103,0.337C13.994,11.352,14.479,11.371,14.957,11.422z"/>
	<path fill="#9F032C" d="M22.332,17.679c-0.077,0.432-0.304,0.813-0.74,1.125c-1.361,0.978-3.333,0.87-4.922,1.047
		c-1.756,0.195-3.476,0.158-5.153-0.238c-1.066-0.252-1.978-0.789-2.704-1.615c-0.102-0.116-0.554-0.726-0.895-1.315
		c0.027,0.466,0.118,0.937,0.283,1.368c0.123,0.32,0.286,0.619,0.493,0.876c0.056,0.07,0.115,0.135,0.178,0.199
		c0.432,0.437,0.971,0.742,1.55,0.962c0.67,0.255,1.395,0.395,2.074,0.494c1.335,0.196,2.694,0.257,4.042,0.269
		c0.788,0.008,1.597-0.059,2.388-0.201c0.528-0.095,1.046-0.224,1.545-0.389c0.097-0.032,0.19-0.066,0.278-0.102
		c0.345-0.139,0.625-0.304,0.846-0.503c0.502-0.447,0.713-1.056,0.736-1.874C22.332,17.749,22.332,17.714,22.332,17.679z"/>
	<path fill="#9F032C" d="M10.394,16.76c-0.21,0.114-0.428,0.2-0.673,0.14c-0.198-0.048-0.488-0.277-0.578-0.46
		c0.168,0.342,0.231,0.799,0.643,0.949c0.415,0.151,0.606-0.198,0.97-0.265c0.776-0.142,1.225,0.782,2.113,0.442
		c0.391-0.149,0.466-0.369,0.91-0.177c0.302,0.131,0.525,0.491,0.834,0.633c0.897,0.412,1.296-0.366,2.06-0.444
		c0.881-0.09,1.247,0.869,2.236,0.418c0.359-0.164,0.551-0.45,0.938-0.531c0.429-0.089,0.738,0.095,1.116,0.296
		c-0.149-0.838-0.96-0.781-1.545-0.473c-0.811,0.427-1.136,0.351-1.87-0.128c-1.004-0.654-1.08,0.241-1.988,0.414
		c-0.863,0.164-1.152-1.027-1.917-0.855c-0.445,0.1-0.621,0.478-1.115,0.404c-0.441-0.065-0.684-0.443-1.046-0.622
		C11.075,16.303,10.744,16.57,10.394,16.76z"/>
	<path fill="#CB7825" d="M20.841,20.329c-0.03-0.055-0.061-0.111-0.092-0.169c-0.088,0.036-0.181,0.07-0.278,0.102
		c-0.498,0.165-1.017,0.294-1.545,0.389l0.021,0.114c0.304,0.173,0.479,0.477,0.653,0.782c-0.526,0.41-1.298,1.257-0.916,1.937
		c0.115,0.199,0.268,0.297,0.439,0.326c-0.016-0.209,0.007-0.411,0.136-0.646c0.193-0.351,0.504-0.657,0.741-0.984
		c0.297-0.41-0.024-0.706,0.152-1.08C20.306,20.772,20.687,20.648,20.841,20.329z"/>
	<path fill="#FFE36D" d="M20.749,20.16c-0.061,0.025-0.126,0.049-0.192,0.072l0.008,0.093c0.105,0.467,0.372,0.868,0.337,1.382
		c-0.056,0.826-0.893,1.408-1.551,1.778c-0.129,0.073-0.281,0.16-0.408,0.263c0.552,0.301,1.43-0.425,1.802-0.834
		C21.752,21.776,21.361,21.293,20.749,20.16z"/>
	<path fill="#CB7825" d="M8.694,18.927l-0.095,0.084c-0.007,0.008-0.013,0.016-0.02,0.024c0.062,0.424,0.395,0.951,0.65,1.162
		c-0.2,0.48-0.566,0.871-0.77,1.342c-0.36,0.832,0.538,1.8,0.741,2.578c0.004,0.014,0.007,0.028,0.01,0.041
		c0.404-0.269,0.115-1.882-0.347-2.561v-0.043c0.614-0.264,1.139-0.877,1.535-1.403l0.024-0.063c-0.579-0.22-1.118-0.526-1.55-0.962
		C8.81,19.063,8.75,18.997,8.694,18.927z"/>
	<path fill="#FFE36D" d="M9.041,24.194c-0.477-0.801-1.027-1.55-1.154-2.487c-0.085-0.624,0.144-1.16,0.33-1.738
		c0.112-0.346,0.348-0.688,0.474-1.039l-0.092,0.081c-1.447,1.71-1.753,2.938-0.306,4.604C8.622,24.001,8.867,24.172,9.041,24.194z"
		/>
	<path fill="#CB7825" d="M8.201,18.051c-0.176-0.458-0.268-0.962-0.288-1.457l-0.102,0.005c-0.075-0.009-0.157-0.015-0.241-0.02
		c-0.085,0.551,0.046,1.109-0.619,1.379c-0.625,0.254-1.358,0.146-2.016,0.318c-0.322,1.123-0.546,2.215-1.217,3.167
		c0.17,0.223,0.494,0.179,0.979-0.282c0.625-0.542,0.933-1.439,1.076-2.24C6.559,18.865,7.688,18.602,8.201,18.051z"/>
	<path fill="#FFE36D" d="M7.913,16.594l-0.102,0.005c-0.746-0.087-1.973,0-2.675,0.307c-1.315,0.57-1.36,2.324-1.535,3.552
		c-0.061,0.468-0.018,0.831,0.133,1.004c0.015-0.227,0.037-0.45,0.082-0.665c0.123-0.591,0.224-1.172,0.373-1.752
		c0.301-1.17,0.891-1.916,2.087-2.09c0.44-0.064,0.867-0.123,1.314-0.167c0.051-0.005,0.189-0.014,0.332-0.033
		C7.918,16.701,7.915,16.648,7.913,16.594z"/>
	<path fill="#CB7825" d="M7.87,15.001c-0.48-0.986-1.115-1.693-2.131-2.086c-0.453,0.497-0.744,1.208-1.115,1.775
		c-0.249,0.382-0.523,0.761-0.808,1.13c0.028,0.029,0.058,0.056,0.093,0.079c0.541,0.333,1.717-1.394,2.02-1.979
		c0.65,0.593,1.084,1.257,1.838,1.76l0.194,0.028c0.007-0.055,0.015-0.108,0.025-0.161c0.013-0.074,0.03-0.147,0.049-0.22
		C7.976,15.208,7.916,15.097,7.87,15.001z"/>
	<path fill="#FFE36D" d="M4.346,12.828c-0.186,0.409-0.907,1.984-0.668,2.748c0.128-0.303,0.255-0.604,0.348-0.913
		c0.159-0.53,0.365-1.057,0.675-1.516c0.324-0.481,0.671-0.895,1.281-0.615c1.054,0.484,1.566,1.216,2.242,2.105
		c0.014,0.018,0.028,0.037,0.042,0.056c0.036-0.077,0.075-0.154,0.116-0.231l-0.177-0.1C7.723,12.916,5.399,10.9,4.346,12.828z"/>
	<path fill="#CB7825" d="M8.703,12.17c-0.127-0.266-0.22-0.441-0.061-0.706c0.139-0.231,0.599-0.441,0.6-0.709l0.033-0.046
		c-0.51,0.15-0.973,0.122-1.378-0.038c-0.117,1.001,0.232,2.209,1.097,2.684l0.095,0.106c0.103-0.117,0.21-0.229,0.319-0.338
		C9.191,12.781,8.805,12.385,8.703,12.17z"/>
	<g>
		<g>
			<path fill="#231F20" d="M8.691,7.39C8.604,7.43,8.271,6.764,8.065,6.053C7.863,5.34,7.802,4.596,7.902,4.585
				C8,4.573,8.155,5.277,8.351,5.972C8.552,6.665,8.784,7.349,8.691,7.39z"/>
		</g>
		<g>
			<path fill="#231F20" d="M8.692,7.304C8.573,7.316,8.6,6.48,8.935,5.778C9.258,5.08,9.386,4.374,9.481,4.367
				c0.11-0.006,0.06,0.82-0.27,1.523C8.884,6.588,8.777,7.292,8.692,7.304z"/>
		</g>
		<g>
			<path fill="#231F20" d="M9.433,4.371c-0.012-0.005,0.293-0.095,0.709,0.163c0.417,0.242,0.843,0.804,1.128,1.551
				c0.278,0.742,0.459,1.717,0.179,2.711c-0.273,1.013-1.2,1.824-2.26,2.092c-1.11,0.353-2.289-0.384-2.713-1.303
				c-0.481-0.907-0.557-1.895-0.42-2.686c0.284-1.681,1.534-2.16,1.494-2.09C7.617,4.836,6.488,5.35,6.276,6.934
				c-0.107,0.75-0.012,1.685,0.444,2.517c0.422,0.843,1.413,1.453,2.397,1.149c0.975-0.253,1.805-0.969,2.066-1.886
				c0.269-0.9,0.123-1.836-0.122-2.552c-0.251-0.726-0.629-1.27-0.99-1.52C9.712,4.374,9.426,4.413,9.433,4.371z"/>
		</g>
		<g>
			<path fill="#231F20" d="M16.822,11.78c0.001-0.012,0.61,0.083,1.588,0.515c0.945,0.444,2.363,1.227,3.339,2.828
				c0.478,0.793,0.769,1.804,0.692,2.874c-0.036,0.528-0.179,1.106-0.566,1.551c-0.381,0.447-0.933,0.703-1.48,0.879
				c-2.207,0.736-4.704,0.622-7.11,0.403c-1.203-0.136-2.443-0.311-3.537-0.89c-1.131-0.537-1.838-1.734-1.935-2.893
				c-0.155-1.15,0.134-2.347,0.803-3.185c0.624-0.862,1.412-1.517,2.237-1.943c1.696-0.813,3.313-0.667,4.346-0.532
				C16.254,11.55,16.828,11.763,16.822,11.78c-0.007,0.031-0.592-0.139-1.639-0.263c-1.026-0.099-2.616-0.202-4.228,0.602
				c-1.496,0.817-3.243,2.607-2.865,4.894c0.111,1.108,0.736,2.16,1.796,2.67c1.027,0.543,2.241,0.72,3.431,0.853
				c2.39,0.217,4.849,0.333,6.994-0.373c0.526-0.165,1.026-0.4,1.361-0.788c0.339-0.384,0.475-0.895,0.515-1.395
				c0.082-1.015-0.183-1.976-0.63-2.743c-0.914-1.55-2.285-2.353-3.202-2.822C17.406,11.953,16.811,11.815,16.822,11.78z"/>
		</g>
		<g>
			<path fill="#231F20" d="M13.513,11.383c-0.061-0.037,0.027-0.326,0.03-0.637c-0.005-0.311-0.094-0.598-0.03-0.637
				c0.05-0.033,0.225,0.286,0.228,0.637C13.74,11.097,13.566,11.418,13.513,11.383z"/>
		</g>
		<g>
			<path fill="#231F20" d="M14.96,11.426c-0.154-0.001-0.063-1.464,0.088-1.447C15.161,9.994,15.071,11.425,14.96,11.426z"/>
		</g>
		<g>
			<path fill="#231F20" d="M17.986,6.949C17.927,6.918,18.818,6.705,19.52,7.6c0.342,0.42,0.485,1.111,0.268,1.758
				c-0.19,0.649-0.863,1.229-1.612,1.212c-0.726,0.057-1.474-0.374-1.751-1.015c-0.264-0.641-0.165-1.319,0.105-1.781
				C17.135,6.804,18.041,6.926,17.986,6.949c0.045,0.071-0.78,0.053-1.26,0.933c-0.218,0.415-0.28,1.022-0.047,1.556
				c0.245,0.528,0.856,0.881,1.487,0.835c0.632,0.011,1.174-0.447,1.359-1.006c0.197-0.555,0.095-1.157-0.185-1.535
				C18.763,6.904,17.955,7.011,17.986,6.949z"/>
		</g>
		<g>
			<path fill="#231F20" d="M14.04,6.773c-0.059-0.031,0.832-0.244,1.534,0.651c0.342,0.42,0.485,1.111,0.268,1.758
				c-0.19,0.649-0.863,1.229-1.612,1.212c-0.726,0.057-1.474-0.374-1.751-1.016c-0.264-0.641-0.165-1.319,0.106-1.781
				C13.189,6.628,14.095,6.751,14.04,6.773c0.045,0.071-0.78,0.053-1.26,0.933c-0.218,0.415-0.28,1.022-0.047,1.556
				c0.245,0.528,0.856,0.881,1.488,0.835c0.632,0.011,1.174-0.447,1.359-1.006c0.197-0.555,0.095-1.157-0.185-1.535
				C14.817,6.729,14.008,6.836,14.04,6.773z"/>
		</g>
		<circle fill="#231F20" cx="14.563" cy="8.444" r="0.46"/>
		<circle fill="#231F20" cx="17.457" cy="8.795" r="0.46"/>
		<g>
			<path fill="#231F20" d="M17.152,11.909c-0.064-0.029,0.031-0.371,0.063-0.724c0.026-0.353-0.005-0.709,0.069-0.725
				c0.056-0.014,0.158,0.358,0.129,0.742C17.378,11.586,17.208,11.936,17.152,11.909z"/>
		</g>
		<g>
			<path fill="#231F20" d="M18.775,12.565c-0.223,0.015-0.174-2.153-0.088-2.148C18.867,10.417,18.815,12.563,18.775,12.565z"/>
		</g>
		<g>
			<path fill="#231F20" d="M24.169,7.084c-0.254,0.051-0.582-2.301-0.394-2.323C23.983,4.736,24.302,7.056,24.169,7.084z"/>
		</g>
		<g>
			<path fill="#231F20" d="M25.609,5.548c0.081,0.046-0.185,0.551-0.586,0.949c-0.403,0.392-0.892,0.669-0.948,0.584
				C24.022,7,24.433,6.655,24.814,6.285C25.191,5.911,25.518,5.494,25.609,5.548z"/>
		</g>
		<g>
			<path fill="#231F20" d="M25.478,5.553c-0.026-0.051,1.037,0.689,1.087,2.396c0.013,0.805-0.228,1.836-1.023,2.551
				c-0.787,0.716-2.014,0.937-3.078,0.588c-1.103-0.365-1.762-1.47-1.894-2.481c-0.147-1.027,0.119-2.022,0.614-2.688
				c1.082-1.381,2.445-1.111,2.368-1.11c0.064,0.09-1.241-0.067-2.186,1.239c-0.439,0.63-0.669,1.564-0.52,2.517
				c0.138,0.943,0.741,1.923,1.717,2.243c0.953,0.314,2.095,0.118,2.793-0.514c0.725-0.632,0.976-1.584,0.986-2.343
				C26.349,6.346,25.396,5.582,25.478,5.553z"/>
		</g>
		<g>
			<path fill="#231F20" d="M8.996,13.353c-0.015,0.07-0.758-0.305-1.027-1.059c-0.289-0.727-0.129-1.502-0.067-1.482
				c0.068,0.006-0.015,0.743,0.252,1.409C8.396,12.909,9.03,13.296,8.996,13.353z"/>
		</g>
		<g>
			<path fill="#231F20" d="M9.917,12.652c-0.05,0.052-0.402-0.362-0.511-0.873c-0.124-0.501-0.083-1.014-0.015-1.011
				c0.064,0.001,0.091,0.493,0.208,0.964C9.702,12.21,9.963,12.609,9.917,12.652z"/>
		</g>
		<g>
			<path fill="#231F20" d="M21.97,10.725c0.043-0.032,0.342,0.899-0.072,1.766c-0.429,0.854-1.322,1.223-1.33,1.169
				c-0.047-0.064,0.77-0.482,1.152-1.256C22.099,11.626,21.889,10.73,21.97,10.725z"/>
		</g>
		<g>
			<path fill="#231F20" d="M23.505,11.075c0.057-0.014,0.149,1.152-0.358,2.193c-0.467,1.107-1.659,1.537-1.657,1.443
				c-0.03-0.041,1.043-0.492,1.478-1.53C23.45,12.2,23.431,11.067,23.505,11.075z"/>
		</g>
		<g>
			<path fill="#231F20" d="M19.608,21.553c-0.058,0.034-0.214-0.178-0.358-0.378c-0.148-0.196-0.334-0.344-0.301-0.412
				c0.023-0.054,0.29,0.067,0.459,0.292C19.567,21.277,19.663,21.521,19.608,21.553z"/>
		</g>
		<g>
			<path fill="#231F20" d="M20.743,20.153c0.014-0.005,0.323,0.38,0.618,1.087c0.346,0.814-0.435,1.793-1.232,2.337
				c-0.37,0.271-1.052,0.558-1.439,0.075c-0.35-0.436-0.153-0.988,0.052-1.281c0.436-0.637,0.901-0.876,0.909-0.857
				c0.031,0.032-0.399,0.317-0.782,0.935c-0.184,0.295-0.316,0.756-0.036,1.085c0.266,0.35,0.81,0.146,1.184-0.121
				c0.768-0.533,1.488-1.42,1.201-2.128C20.972,20.607,20.696,20.172,20.743,20.153z"/>
		</g>
		<g>
			<path fill="#231F20" d="M23.727,19.491c-0.001,0.106-1.907,0.309-1.93,0.219C21.765,19.54,23.722,19.332,23.727,19.491z"/>
		</g>
		<g>
			<path fill="#231F20" d="M22.368,17.786c-0.009-0.009,0.488-0.255,1.297-0.181c0.396,0.034,0.88,0.232,1.195,0.65
				c0.322,0.41,0.412,0.988,0.401,1.505c-0.011,0.521-0.003,1.074-0.307,1.536c-0.167,0.228-0.521,0.327-0.744,0.11
				c-0.175-0.192-0.236-0.401-0.306-0.587c-0.235-0.757-0.283-1.276-0.262-1.282c0.042-0.012,0.142,0.507,0.402,1.231
				c0.07,0.173,0.151,0.38,0.285,0.515c0.104,0.115,0.373,0.072,0.476-0.099c0.241-0.367,0.254-0.922,0.257-1.423
				c0.01-0.517-0.07-1.016-0.352-1.396c-0.273-0.373-0.694-0.564-1.066-0.613C22.889,17.649,22.375,17.839,22.368,17.786z"/>
		</g>
		<g>
			<path fill="#231F20" d="M24.647,16.071c0.008,0.059-0.585,0.26-1.116,0.625c-0.532,0.353-1.08,0.711-1.121,0.647
				c-0.03-0.048,0.468-0.452,1.014-0.814C23.969,16.152,24.637,15.996,24.647,16.071z"/>
		</g>
		<g>
			<path fill="#231F20" d="M21.843,15.505c-0.026-0.022,0.434-0.47,1.302-0.83c0.431-0.173,0.955-0.359,1.556-0.372
				c0.295-0.002,0.627,0.042,0.901,0.241c0.27,0.222,0.401,0.495,0.572,0.76c0.304,0.541,0.598,1.102,0.659,1.716
				c0.067,0.283-0.175,0.749-0.548,0.631c-0.298-0.084-0.474-0.277-0.65-0.431c-0.65-0.674-1.022-1.148-1.03-1.149
				c0.045-0.055,0.476,0.408,1.131,1.04c0.169,0.142,0.365,0.322,0.586,0.374c0.219,0.068,0.366-0.19,0.325-0.453
				c-0.059-0.541-0.347-1.105-0.644-1.627c-0.461-1.358-2.046-0.879-2.803-0.591C22.34,15.135,21.863,15.531,21.843,15.505z"/>
		</g>
		<g>
			<path fill="#231F20" d="M20.968,17.649c-0.03,0.026-0.15-0.161-0.434-0.376c-0.287-0.274-0.78-0.217-1.318,0.16
				c-0.272,0.157-0.642,0.317-1.049,0.252c-0.412-0.028-0.747-0.409-1.011-0.593c-0.279-0.168-0.665-0.05-0.92,0.239
				c-0.219,0.3-0.817,0.681-1.272,0.338c-0.404-0.247-0.63-0.658-0.959-0.729c-0.323-0.092-0.615,0.251-1.058,0.385
				c-1.022,0.143-1.384-0.954-1.966-0.735c-0.281,0.056-0.516,0.233-0.759,0.348c-0.24,0.136-0.554,0.111-0.706-0.029
				c-0.298-0.264-0.354-0.482-0.343-0.487C9.2,16.398,9.31,16.601,9.59,16.801c0.321,0.268,0.69-0.208,1.342-0.428
				c0.827-0.2,1.256,0.882,1.947,0.682c0.307-0.063,0.643-0.507,1.194-0.4c0.508,0.141,0.718,0.586,1.044,0.758
				c0.311,0.22,0.635,0.025,0.914-0.291c0.285-0.323,0.849-0.544,1.272-0.268c0.369,0.272,0.558,0.538,0.907,0.578
				c0.319,0.059,0.627-0.052,0.902-0.197c0.276-0.139,0.548-0.298,0.84-0.317c0.298-0.024,0.519,0.134,0.663,0.253
				C20.899,17.437,20.975,17.644,20.968,17.649z"/>
		</g>
		<g>
			<path fill="#231F20" d="M5.836,13.839c0.129-0.115,1.921,1.84,1.929,1.842C7.59,15.885,5.761,13.895,5.836,13.839z"/>
		</g>
		<g>
			<path fill="#231F20" d="M5.966,13.836C5.999,13.849,5.706,14.528,5,15.371c-0.184,0.204-0.384,0.43-0.685,0.589
				c-0.358,0.239-0.789-0.209-0.763-0.556c-0.06-0.726,0.216-1.424,0.479-2.099c0.186-0.655,0.779-1.452,1.567-1.359
				c0.731,0.064,1.268,0.504,1.659,0.877c0.792,0.786,0.981,1.543,0.945,1.542c-0.028,0.017-0.259-0.698-1.049-1.435
				c-0.386-0.351-0.92-0.754-1.565-0.799c-0.681-0.052-1.159,0.561-1.374,1.249c-0.261,0.658-0.527,1.361-0.478,2
				c0.02,0.318,0.248,0.58,0.507,0.425c0.255-0.126,0.464-0.341,0.645-0.533C5.604,14.469,5.94,13.82,5.966,13.836z"/>
		</g>
		<g>
			<path fill="#231F20" d="M8.203,18.045c0.067,0.049-0.46,0.564-1.141,0.738C6.4,18.988,5.706,18.99,5.706,18.921
				c-0.003-0.064,0.664-0.131,1.298-0.327C7.657,18.423,8.16,18.012,8.203,18.045z"/>
		</g>
		<g>
			<path fill="#231F20" d="M5.791,18.792c0.006-0.007,0.02,0.758-0.502,1.747c-0.126,0.247-0.329,0.485-0.556,0.703
				c-0.231,0.181-0.504,0.525-0.955,0.372c-0.37-0.282-0.294-0.714-0.284-1.061c0.043-0.361,0.086-0.713,0.135-1.077
				c0.102-0.715,0.255-1.469,0.694-2.039c0.438-0.595,1.146-0.759,1.671-0.841c1.092-0.163,1.825-0.017,1.817,0.008
				c-0.001,0.04-0.73-0.054-1.792,0.139c-0.52,0.099-1.162,0.264-1.548,0.807c-0.396,0.524-0.545,1.247-0.645,1.954
				c-0.043,0.672-0.349,1.546,0.042,1.948c0.226,0.105,0.54-0.148,0.749-0.334c0.225-0.208,0.414-0.418,0.544-0.653
				C5.691,19.532,5.734,18.773,5.791,18.792z"/>
		</g>
		<g>
			<path fill="#231F20" d="M8.864,21.557c-0.021-0.059,0.423-0.306,0.782-0.679c0.365-0.362,0.696-0.769,0.754-0.725
				c0.048,0.035-0.233,0.487-0.615,0.867C9.408,21.413,8.886,21.625,8.864,21.557z"/>
		</g>
		<g>
			<path fill="#231F20" d="M8.861,21.6c0.028-0.027,0.386,0.455,0.553,1.307c0.041,0.212,0.075,0.444,0.071,0.697
				c-0.021,0.204,0.005,0.644-0.429,0.683c-0.622-0.18-0.901-0.712-1.259-1.156c-0.329-0.47-0.554-1.048-0.537-1.605
				c0.012-0.559,0.229-1.04,0.449-1.407c0.453-0.735,0.877-1.122,0.893-1.108c0.035,0.027-0.353,0.45-0.764,1.181
				c-0.472,0.703-0.589,1.92,0.123,2.827c0.316,0.422,0.687,0.964,1.106,1.081c0.179,0.025,0.241-0.29,0.248-0.504
				c0.01-0.233-0.015-0.46-0.047-0.665C9.138,22.101,8.836,21.613,8.861,21.6z"/>
		</g>
	</g>
</g>
</svg>
