<?xml version="1.0" encoding="utf-8"?>
<!-- Generator: Adobe Illustrator 17.0.0, SVG Export Plug-In . SVG Version: 6.00 Build 0)  -->
<!DOCTYPE svg PUBLIC "-//W3C//DTD SVG 1.1//EN" "http://www.w3.org/Graphics/SVG/1.1/DTD/svg11.dtd">
<svg version="1.1" id="图层_1" xmlns="http://www.w3.org/2000/svg" xmlns:xlink="http://www.w3.org/1999/xlink" x="0px" y="0px"
	 width="100px" height="100px" viewBox="0 0 100 100" enable-background="new 0 0 100 100" xml:space="preserve">
<g>
	<path fill="#A2C3E6" d="M96.301,24.946c0.685,3.353,0.256,7.221-1.696,10.089c-1.276,1.877-3.604,2.61-5.515,3.633
		c-0.876,0.468-1.928,1.035-2.586,1.778c-0.866,0.982-1.081,2.456-1.508,3.667c-0.005-1.218-0.104-2.475-0.297-3.78
		c-0.287-1.923-1.768-6.692-4.569-4.987c-1.209,0.736-0.895,3.549-1.037,4.962c-0.13,1.281-0.113,3.242-0.76,4.651l-0.046-0.022
		c-0.42-3.349-5.44-2.511-7.254-4.046c-2.434-1.894-3.558-6.147-2.987-9.073l0.058,0.01c3.349,3.206,9.623-6.417,12.832-0.14h0.14
		c-0.28-2.511,3.346-5.16,5.44-5.72c2.294-0.54,8.386-0.294,8.639-3.826C95.597,23.028,96.103,23.979,96.301,24.946z"/>
	<radialGradient id="SVGID_1_" cx="35.3547" cy="46.5395" r="35.5817" gradientUnits="userSpaceOnUse">
		<stop  offset="0" style="stop-color:#00BEF2"/>
		<stop  offset="1" style="stop-color:#0071BB"/>
	</radialGradient>
	<path fill="url(#SVGID_1_)" d="M65.298,69.743l0.017,0.159c0.492,0.606,1.025,1.428,1.445,2.302
		c1.122,2.343,1.414,5.054-2.142,4.953c-1.848-0.075-3.776-0.854-5.573-1.884c-0.852-0.485-1.672-1.028-2.439-1.573
		c-0.253-0.181-0.499-0.362-0.738-0.54c-0.403-0.302-0.789-0.598-1.153-0.885l-0.063-0.183c-5.428,1.872-13.869-1.267-16.844-6.215
		c-2.166,1.858-4.989,3.061-7.734,3.633c-0.2,0.041-0.403,0.08-0.603,0.116c-3.667,0.678-7.204,0.963-10.864,0.458
		c-0.099-0.012-0.195-0.027-0.294-0.041c-2.61-0.386-5.498-0.504-7.838-1.875c-0.104-0.06-0.205-0.125-0.302-0.198
		c-2.198-1.561-2.856-5.257-3.611-7.684c-0.893-2.878-1.45-5.831-1.947-8.76c-0.979-5.771-2.222-12.48,0.164-18.079
		c0.917-2.154,2.815-4.396,4.716-5.734c5.592-3.944,14.371-3.8,20.829-2.919c7.047,0.96,13.937,3.838,19.565,8.181
		c3.361,2.593,6.781,5.105,10.091,7.766c3.146,2.526,6.371,5.088,10.217,6.456c2.451,0.873,5.944,0.709,7.708-1.527
		c0.169-0.212,0.309-0.451,0.427-0.709c0.647-1.409,0.63-3.37,0.76-4.651c0.142-1.414-0.171-4.227,1.037-4.962
		c2.801-1.706,4.282,3.064,4.569,4.987c0.193,1.305,0.292,2.562,0.297,3.78c0.017,4.707-1.351,8.854-3.906,13.247
		c-0.76,1.308-1.561,2.48-2.439,3.566c-1.513,1.875-3.243,3.484-5.332,5.052c-1.279,0.96-2.589,1.942-4.041,2.627
		C68.292,69.07,66.488,69.613,65.298,69.743z"/>
	<path fill="#A2C3E6" d="M78.794,61.039c-1.623,2.063-2.924,4.369-4.784,6.246c-2.048,2.068-4.54,3.737-7.206,4.897l-0.043,0.022
		c-0.42-0.873-0.953-1.696-1.445-2.302l-0.017-0.159c1.189-0.13,2.994-0.673,3.981-1.139c1.452-0.685,2.762-1.667,4.041-2.627
		c2.089-1.568,3.819-3.177,5.332-5.052L78.794,61.039z"/>
	<path fill="#A2C3E6" d="M56.606,73.7l-0.077,0.108c-11.715,4.463-27.198,1.954-37.936-3.626l0.014-0.099
		c3.66,0.504,7.196,0.22,10.864-0.458c0.2-0.036,0.403-0.075,0.603-0.116c2.618,2.304,6.092,3.344,9.479,3.872
		c2.859,0.444,5.751,1.037,8.658,0.893c2.516-0.125,5.329-0.039,7.657-1.115C56.107,73.338,56.353,73.519,56.606,73.7z"/>
	<path fill="#A2C3E6" d="M54.715,72.274c0.364,0.287,0.75,0.584,1.153,0.885c-2.328,1.076-5.141,0.989-7.657,1.115
		c-2.907,0.145-5.8-0.449-8.658-0.893c-3.387-0.528-6.861-1.568-9.479-3.872c2.745-0.572,5.568-1.776,7.734-3.633
		c2.975,4.948,11.416,8.087,16.844,6.215L54.715,72.274z"/>
	<radialGradient id="SVGID_2_" cx="40.2852" cy="48.182" r="5.5983" gradientUnits="userSpaceOnUse">
		<stop  offset="0.4049" style="stop-color:#F4F5F5"/>
		<stop  offset="1" style="stop-color:#ABC9D7"/>
	</radialGradient>
	<path fill="url(#SVGID_2_)" d="M41.27,43.85c2.881-0.113,5.932,2.613,4.174,6.482c-1.969,4.323-8.675,3.175-8.241-1.889
		C37.475,45.288,39.335,43.927,41.27,43.85z"/>
	<path fill="#A2C3E6" d="M18.593,70.183c10.738,5.58,26.221,8.089,37.936,3.626l0.077-0.108c0.767,0.545,1.587,1.088,2.439,1.573
		c-11.175,2.958-22.125,3.486-33.493,1.035c-5.496-1.185-12.28-3.158-15.469-8.217l0.089-0.121c0.096,0.072,0.198,0.137,0.302,0.198
		c2.34,1.37,5.228,1.488,7.838,1.875c0.099,0.014,0.195,0.029,0.294,0.041L18.593,70.183z"/>
	<linearGradient id="SVGID_3_" gradientUnits="userSpaceOnUse" x1="3.404" y1="46.4128" x2="82.2141" y2="46.4128">
		<stop  offset="0" style="stop-color:#96D9F7"/>
		<stop  offset="1" style="stop-color:#00A6E1"/>
	</linearGradient>
	<path fill="url(#SVGID_3_)" d="M82.214,35.295c-4.669-0.994-2.608,6.517-3.627,9.078c-3.32,8.346-14.941-0.687-18.606-3.633
		c-3.31-2.661-6.731-5.172-10.091-7.766c-5.628-4.342-12.518-7.221-19.565-8.181c-6.458-0.881-15.237-1.025-20.829,2.919
		c-1.901,1.339-3.8,3.58-4.716,5.734c-2.386,5.599-1.144,12.309-0.164,18.079c0.497,2.929,1.054,5.882,1.947,8.76
		c0.755,2.427,1.414,6.123,3.611,7.684c0.096,0.072,0.198,0.137,0.302,0.198c0.236,0.138,0.479,0.26,0.725,0.375
		c-0.428-0.962-0.804-1.969-1.081-3.069C8.624,59.542,7.417,53.502,7.13,47.378c-0.241-5.159-0.212-11.456,3.673-15.382
		c3.452-3.489,9.287-3.766,13.832-3.714c8.617,0.099,16.235,3.77,23.206,8.559c5.011,3.442,9.541,7.608,14.918,10.505
		c4.513,2.431,11.624,4.497,16.023,0.512c1.64-1.486,2.131-3.85,2.343-5.956C81.196,41.199,81.783,35.204,82.214,35.295z"/>
	<linearGradient id="SVGID_4_" gradientUnits="userSpaceOnUse" x1="54.6959" y1="74.2018" x2="67.5151" y2="74.2018">
		<stop  offset="0" style="stop-color:#96D9F7"/>
		<stop  offset="1" style="stop-color:#00A6E1"/>
	</linearGradient>
	<path fill="url(#SVGID_4_)" d="M59.045,75.273c1.797,1.03,3.725,1.809,5.573,1.884c2.671,0.076,3.171-1.435,2.779-3.185
		c-0.96,2.762-4.467,1.546-6.547,0.344c-0.013-0.007-0.026-0.015-0.038-0.022c-0.348-0.203-3.781-3.014-3.739-3.049
		c-0.668,0.556-1.558,0.713-2.377,0.975l0.019,0.055c0.364,0.287,0.75,0.584,1.153,0.885c0.239,0.179,0.485,0.36,0.738,0.54
		C57.373,74.245,58.194,74.788,59.045,75.273z"/>
	<linearGradient id="SVGID_5_" gradientUnits="userSpaceOnUse" x1="32.0068" y1="68.3028" x2="50.8242" y2="81.5715">
		<stop  offset="0" style="stop-color:#0074BB"/>
		<stop  offset="1" style="stop-color:#17479D"/>
	</linearGradient>
	<path fill="url(#SVGID_5_)" d="M46.334,69.961c-1.546-0.549-3.152-1.387-4.235-2.651c-0.529-0.618-0.938-1.352-1.011-2.175
		c-0.005-0.06,0.019-0.473,0.04-0.93c0.792-1.826,1.347-4.006,0.261-5.631c-0.024,5.244-4.707,9.125-9.503,10.298
		c-3.705,0.906-7.293,1.506-11.366,1.3c-1.916-0.097-3.71-0.544-5.576-0.818c-1.742-0.256-3.42-1.133-5.179-1.196
		c0.93,0.838,1.763,2.116,2.837,2.798c1.066,0.677,2.207,1.193,3.137,1.465c7.382,2.165,18.272,1.711,23.41-4.8
		c3.639,3.859,10.595,6.059,15.349,4.516c0.401-0.224,0.784-0.443,1.141-0.638C52.514,71.496,49.185,70.973,46.334,69.961z"/>
	<path fill="#6892B3" d="M39.148,67.624c-0.52-0.551-0.972-1.135-1.34-1.748c-2.166,1.858-4.989,3.061-7.734,3.633
		c-0.2,0.041-0.403,0.08-0.603,0.116c-3.667,0.678-7.204,0.963-10.864,0.458c-0.099-0.012-0.195-0.027-0.294-0.041
		c-2.555-0.378-5.373-0.502-7.686-1.791c-0.159-0.027-0.319-0.049-0.48-0.065c0.677,1.051,1.51,1.968,2.455,2.772
		c1.066,0.677,2.207,1.192,3.137,1.465C23.12,74.587,34.009,74.134,39.148,67.624z"/>
	<path fill="#D9F0FC" d="M94.825,24.697c0.362-0.525,0.63-1.149,0.703-1.806c-0.124-0.254-0.251-0.504-0.373-0.748
		c-0.253,3.532-6.345,3.286-8.639,3.826c-2.094,0.56-5.72,3.209-5.44,5.72h-0.14c-3.209-6.277-9.483,3.346-12.832,0.14l-0.058-0.01
		c-0.572,2.926,0.552,7.18,2.987,9.073c1.814,1.534,6.835,0.697,7.254,4.046l0.046,0.022c0.237-0.517,0.385-1.109,0.484-1.715
		c-0.103-0.23-0.227-0.446-0.367-0.635c-0.986-1.336-3.012-1.795-4.466-2.382c-2.869-1.158-3.955-3.577-4.255-6.441
		c0.157,1.5,4.604-0.279,5.072-0.555c0.751-0.444,1.282-1.19,2.045-1.572c1.436-0.719,3.607,0.16,4.44,1.462
		c0.802-1.781,1.63-3.092,3.408-4.204c1.804-1.128,3.484-0.824,5.428-1.233C91.851,27.322,93.782,26.212,94.825,24.697z"/>
	<path fill="#6C96C1" d="M95.155,22.143c-0.015,0.203-0.05,0.392-0.102,0.57c0.118,0.334,0.214,0.679,0.249,1.044
		c0.1,1.031,0.082,2.078,0.031,3.112c-0.192,3.863-1.558,6.472-4.945,8.353c-1.763,0.979-5.278,1.835-5.902,4.077
		c0.098,0.388,0.169,0.744,0.213,1.034c0.193,1.305,0.292,2.562,0.297,3.78c0.427-1.211,0.642-2.685,1.508-3.667
		c0.659-0.743,1.71-1.31,2.586-1.778c1.911-1.023,4.239-1.756,5.515-3.633c1.952-2.868,2.381-6.736,1.696-10.089
		C96.103,23.979,95.597,23.028,95.155,22.143z"/>
	<linearGradient id="SVGID_6_" gradientUnits="userSpaceOnUse" x1="36.7585" y1="51.0388" x2="46.3396" y2="51.0388">
		<stop  offset="0" style="stop-color:#4170B6"/>
		<stop  offset="1" style="stop-color:#0062AF"/>
	</linearGradient>
	<path fill="url(#SVGID_6_)" d="M44.808,52.938c1.306-1.338,2.029-3.646,1.137-5.169c0.063,0.773-0.08,1.635-0.502,2.563
		c-0.46,1.013-1.263,1.842-2.286,2.289c-1.407,0.615-3.135,0.481-4.385-0.43c-0.634-0.462-1.11-1.109-1.363-1.851
		c-0.143-0.419-0.213-0.86-0.225-1.302c-0.012-0.438,0.015-1.17,0.188-1.566c-0.292,0.461-0.435,1.022-0.488,1.551
		c-0.085,0.851-0.247,1.601,0.028,2.436c0.277,0.839,0.742,1.636,1.438,2.195C40.366,55.275,43.103,54.686,44.808,52.938z"/>
	<path fill="#6B93B3" d="M67.547,69.939c-0.152-0.171-0.309-0.366-0.471-0.558c-0.63,0.172-1.262,0.306-1.778,0.362l0.017,0.159
		c0.492,0.606,1.025,1.428,1.445,2.302l0.043-0.022c0.638-0.278,1.265-0.586,1.879-0.921C68.305,70.728,67.817,70.241,67.547,69.939
		z"/>
	<path fill="#6892B3" d="M55.868,73.159c-2.328,1.076-5.141,0.989-7.657,1.115c-2.907,0.145-5.8-0.449-8.658-0.893
		c-3.387-0.528-6.861-1.568-9.479-3.872c-0.2,0.041-0.403,0.08-0.603,0.116c-0.221,0.041-0.44,0.08-0.66,0.118
		c4.345,5.415,13.637,5.496,19.815,5.496c1.296,0,3.046-0.078,4.728-0.415c0.888-0.236,1.759-0.508,2.612-0.814
		c0.216-0.1,0.423-0.208,0.622-0.324C56.341,73.51,56.101,73.333,55.868,73.159z"/>
	<g>
		<path fill="#6892B3" d="M18.6,70.132l0.007-0.048c-0.028-0.003-0.055-0.008-0.082-0.011C18.55,70.092,18.575,70.112,18.6,70.132z"
			/>
		<path fill="#6892B3" d="M18.785,70.279c2.852,2.259,5.745,4.064,9.214,4.843c4.052,0.909,8.244,1.69,12.424,1.685
			c4.228-0.004,8.181-0.298,12.176-1.092c1.034-0.206,3.669-0.456,4.853-1.433c-0.288-0.192-0.572-0.386-0.847-0.582l-0.077,0.108
			C44.883,78.245,29.515,75.79,18.785,70.279z"/>
	</g>
	<linearGradient id="SVGID_7_" gradientUnits="userSpaceOnUse" x1="82.4565" y1="44.5896" x2="62.4902" y2="72.2513">
		<stop  offset="0" style="stop-color:#004485"/>
		<stop  offset="1" style="stop-color:#17479D"/>
	</linearGradient>
	<path fill="url(#SVGID_7_)" d="M84.7,40.333c-0.242-1.621-1.332-5.263-3.346-5.347c1.805,1.038,2.448,4.333,2.42,6.112
		c-0.127,8.346-3.992,17.759-10.886,22.753c-3.074,2.227-7.159,4.561-11.072,4.627c1.453,0.999,3.041,3.065,4.051,4.489
		c0.926,1.305,0.9,2.398,0.867,3.704c1.216-0.872,0.84-2.767,0.026-4.467c-0.42-0.873-0.953-1.696-1.445-2.302l-0.017-0.159
		c1.189-0.13,2.994-0.673,3.981-1.139c1.452-0.685,2.762-1.667,4.041-2.627c2.089-1.568,3.819-3.177,5.332-5.052
		c0.878-1.086,1.679-2.258,2.439-3.566c2.555-4.393,3.923-8.54,3.906-13.247C84.992,42.895,84.893,41.638,84.7,40.333z"/>
	<g>
		<path fill="#231F20" d="M45.336,40.841c-0.311,0.082-0.734-0.263-1.523-0.293c-0.756-0.078-1.516,0.031-1.655-0.271
			c-0.137-0.272,0.762-0.775,1.747-0.671C44.965,39.584,45.731,40.728,45.336,40.841z"/>
	</g>
	<g>
		<path fill="#231F20" d="M41.27,43.861c-0.129-0.043,2.117-0.591,4.066,1.628c2.065,2.105,0.594,7.519-3.569,7.839
			c-1.897,0.23-3.906-0.895-4.554-2.61c-0.674-1.715-0.228-3.406,0.339-4.639C38.977,43.416,41.443,43.801,41.27,43.861
			c0.125,0.165-2.112,0.036-3.237,2.449c-0.467,1.125-0.812,2.75-0.205,4.149c0.563,1.416,2.239,2.354,3.878,2.161
			c3.517-0.226,4.917-4.932,3.208-6.809C43.298,43.763,41.18,44.031,41.27,43.861z"/>
	</g>
	<g>
		<path fill="#231F20" d="M41.595,58.606c-0.009-0.006,0.058,0.855-0.365,2.385c-0.44,1.503-1.579,3.676-3.95,5.489
			c-2.327,1.84-5.797,3.211-9.871,3.689c-4.07,0.745-8.754,0.34-13.719-0.557c-1.246-0.27-2.506-0.673-3.664-1.42
			c-1.145-0.819-1.842-2.083-2.351-3.352c-0.92-2.602-1.648-5.272-2.354-8.096c-1.068-5.659-2.564-11.634-2.141-18.032
			c0.264-3.146,1.305-6.457,3.559-8.919c2.119-2.57,5.27-4.189,8.5-4.971c6.541-1.495,13.439-1.004,19.987,0.6
			c6.575,1.652,12.557,5.198,17.636,9.383c5.385,3.79,10.064,8.519,15.609,11.301c2.685,1.436,6.075,1.818,8.438,0.092
			c1.203-0.841,1.528-2.297,1.689-3.733c0.147-1.47,0.239-2.9,0.27-4.35c0.036-0.727,0.112-1.48,0.435-2.207
			c0.347-0.777,1.184-1.202,1.971-1.209c1.777,0.136,2.474,1.797,2.991,2.979c1.009,2.618,0.993,5.33,0.939,7.848
			c-0.932,10.293-7.143,17.277-11.816,20.592c-4.65,3.8-8.46,3.65-8.354,3.637c-0.094-0.111,3.616-0.05,8.167-3.886
			c2.312-1.768,4.978-4.187,7.109-7.654c2.083-3.441,4.153-7.715,4.361-12.718c0.041-2.457,0.03-5.142-0.941-7.606
			c-0.469-1.157-1.241-2.571-2.456-2.598c-1.405-0.022-1.779,1.441-1.798,2.855c-0.026,1.43-0.113,2.915-0.257,4.386
			c-0.134,1.432-0.541,3.208-1.916,4.17c-2.661,1.971-6.365,1.463-9.119,0.005c-2.896-1.358-5.469-3.346-7.992-5.361
			c-2.526-2.014-5.12-3.997-7.755-5.986c-5.099-4.184-10.906-7.61-17.394-9.253c-6.413-1.578-13.293-2.061-19.635-0.609
			c-6.477,1.275-11.36,6.983-11.568,13.274c-0.435,6.195,1.032,12.231,2.073,17.835c0.677,2.761,1.419,5.514,2.292,8.019
			c0.482,1.227,1.14,2.396,2.138,3.112c1.038,0.678,2.256,1.089,3.457,1.352c4.909,0.914,9.517,1.351,13.545,0.649
			c4.05-0.44,7.429-1.74,9.744-3.508C41.882,62.568,41.399,58.392,41.595,58.606z"/>
	</g>
	<g>
		<path fill="#231F20" d="M43.01,60.559c-0.219-0.038-0.462-0.93-1.41-1.336c-0.893-0.473-1.832-0.277-1.952-0.486
			c-0.155-0.215,1.138-0.763,2.267-0.15C43.158,59.089,43.323,60.636,43.01,60.559z"/>
	</g>
	<g>
		<path fill="#231F20" d="M55.828,71.572c0.035,0.03-1.096,0.822-3.079,1.122c-1.967,0.351-4.665,0.048-7.163-0.805
			c-2.495-0.875-4.788-2.305-6.161-3.749c-1.411-1.417-1.909-2.689-1.858-2.701c0.092-0.054,0.683,1.129,2.106,2.446
			c1.387,1.347,3.635,2.702,6.069,3.557c2.437,0.832,5.048,1.165,6.961,0.901C54.628,72.131,55.78,71.468,55.828,71.572z"/>
	</g>
	<g>
		<path fill="#231F20" d="M65.308,69.91c0.066-0.066,1.064,0.866,1.915,2.702c0.362,0.909,0.893,2.105,0.391,3.493
			c-0.715,1.464-2.502,1.478-3.763,1.337c-5.458-1.049-9.232-5.171-9.128-5.176c0.169-0.354,4.17,3.534,9.222,4.472
			c1.196,0.146,2.629,0.043,3.065-0.911c0.402-0.97,0.034-2.145-0.277-3.012C66.031,71.024,65.195,69.994,65.308,69.91z"/>
	</g>
	<g>
		<path fill="#231F20" d="M68.095,31.547c0.136,0.029-0.131,1.198,0.123,2.935c0.235,1.7,0.935,4.059,2.532,5.682
			c1.531,1.625,4.285,1.336,5.898,2.303c1.856,0.886,1.721,2.588,1.628,2.473c-0.153,0.076-0.196-1.348-1.856-1.991
			c-1.476-0.829-4.203-0.359-6.172-2.283C66.635,36.79,67.791,31.292,68.095,31.547z"/>
	</g>
	<g>
		<path fill="#231F20" d="M80.945,31.684c-0.132,0.093-0.519-0.825-1.587-1.503c-1.082-0.747-2.866-0.189-4.429,0.646
			c-1.592,0.8-3.213,1.783-4.696,1.912c-1.565,0.135-2.237-0.909-2.121-0.918c0.08-0.123,0.772,0.628,2.056,0.389
			c1.268-0.211,2.809-1.189,4.444-2.018c1.544-0.846,3.73-1.497,5.036-0.457C80.838,30.666,81.007,31.672,80.945,31.684z"/>
	</g>
	<g>
		<path fill="#231F20" d="M95.061,21.976c-0.012-0.021,1.282,1.343,1.672,4.028c0.39,2.573,0.182,6.357-1.932,9.353
			c-2.419,2.934-6.274,3.324-7.989,5.168c-0.849,0.864-1.095,1.976-1.369,2.669c-0.253,0.719-0.462,1.112-0.517,1.089
			c-0.055-0.023,0.052-0.437,0.218-1.176c0.198-0.712,0.341-1.877,1.281-2.949c1.86-2.083,5.75-2.626,7.8-5.217
			c1.959-2.765,2.246-6.371,1.98-8.87C95.969,23.54,94.844,22.059,95.061,21.976z"/>
	</g>
	<g>
		<path fill="#231F20" d="M95.152,21.786c0.048-0.124,0.503,1.506-1.17,2.702c-1.568,1.125-4.059,1.366-6.367,1.655
			c-2.255,0.214-4.208,1.776-5.329,3.008c-1.183,1.302-1.093,2.536-1.22,2.538c-0.112,0.072-0.394-1.37,0.804-2.871
			c1.122-1.406,3.117-3.11,5.651-3.379c2.346-0.285,4.732-0.486,6.164-1.392C95.179,23.152,94.975,21.73,95.152,21.786z"/>
	</g>
	<g>
		<path fill="#231F20" d="M59.315,75.194c0.146,0.188-12.663,4.167-25.83,2.704c-6.495-0.682-12.972-2.098-17.392-4.367
			c-4.521-2.239-6.119-5.46-6.001-5.446c0.098-0.118,1.787,2.899,6.24,4.969c4.353,2.109,10.796,3.463,17.221,4.137
			C46.557,78.644,59.314,74.935,59.315,75.194z"/>
	</g>
	<g>
		<path fill="#231F20" d="M79.118,60.625c-0.033-0.008-2.114,3.736-5.074,6.95c-3.087,3.126-7.213,4.749-7.243,4.602
			c-0.08-0.15,3.899-1.885,6.909-4.938C76.571,64.141,78.855,60.402,79.118,60.625z"/>
	</g>
	<circle fill="#231F20" cx="39.746" cy="48.1" r="1.477"/>
	<g>
		<path fill="#231F20" d="M55.968,73.106c0.216,0.498-6.663,2.21-13.489,0.983c-3.351-0.497-6.788-1.083-9.107-2.274
			c-2.357-1.103-3.516-2.459-3.478-2.474c0.074-0.096,1.292,1.147,3.627,2.151c2.304,1.094,5.659,1.628,9.03,2.129
			C49.286,74.825,56.061,73.315,55.968,73.106z"/>
	</g>
	<g>
		<path fill="#231F20" d="M56.526,73.803c0.021,0.033-2.233,1.073-5.858,1.782c-3.612,0.759-8.572,0.969-13.457,0.416
			c-9.887-0.959-18.768-5.657-18.617-5.824c0.01-0.106,8.877,4.406,18.67,5.354c4.843,0.548,9.748,0.38,13.339-0.294
			C54.207,74.612,56.488,73.69,56.526,73.803z"/>
	</g>
</g>
</svg>
