<?xml version="1.0" encoding="utf-8"?>
<!-- Generator: Adobe Illustrator 17.0.0, SVG Export Plug-In . SVG Version: 6.00 Build 0)  -->
<!DOCTYPE svg PUBLIC "-//W3C//DTD SVG 1.1//EN" "http://www.w3.org/Graphics/SVG/1.1/DTD/svg11.dtd">
<svg version="1.1" id="图层_1" xmlns="http://www.w3.org/2000/svg" xmlns:xlink="http://www.w3.org/1999/xlink" x="0px" y="0px"
	 width="50px" height="20px" viewBox="0 0 50 20" enable-background="new 0 0 50 20" xml:space="preserve">
<path opacity="0.6" fill="#EFF9FE" stroke="#FFFFFF" stroke-width="0.2454" d="M33.526,3.077c3.816-3.249,9.565-2.812,12.84,0.976
	c3.273,3.787,2.833,9.491-0.983,12.741c-3.818,3.249-9.567,2.813-12.84-0.975C29.27,12.032,29.707,6.327,33.526,3.077z"/>
<path opacity="0.6" fill="#FFFFFF" d="M40.31,6.55c-1.021,1.057-2.707,1.089-3.771,0.077c-1.063-1.012-1.096-2.688-0.077-3.74
	c1.022-1.055,2.709-1.089,3.771-0.078C41.296,3.823,41.331,5.496,40.31,6.55z"/>
<path opacity="0.6" fill="#FFFFFF" d="M34.749,10.913c-0.581,0.6-1.543,0.62-2.15,0.044c-0.603-0.576-0.623-1.531-0.042-2.13
	c0.58-0.6,1.541-0.619,2.146-0.044C35.307,9.36,35.328,10.314,34.749,10.913z"/>
</svg>
