<?xml version="1.0" encoding="utf-8"?>
<!-- Generator: Adobe Illustrator 16.0.4, SVG Export Plug-In . SVG Version: 6.00 Build 0)  -->
<!DOCTYPE svg PUBLIC "-//W3C//DTD SVG 1.1//EN" "http://www.w3.org/Graphics/SVG/1.1/DTD/svg11.dtd">
<svg version="1.1" id="Layer_1" xmlns="http://www.w3.org/2000/svg" xmlns:xlink="http://www.w3.org/1999/xlink" x="0px" y="0px"
	 width="56.693px" height="56.693px" viewBox="0 0 56.693 56.693" enable-background="new 0 0 56.693 56.693" xml:space="preserve">
<g>
	<circle fill="#DCDCDC" cx="24.479" cy="18.758" r="0.97"/>
	<path fill="#DCDCDC" d="M28.348,5.158c-13.601,0-24.625,11.023-24.625,24.623s11.024,24.625,24.625,24.625
		c13.598,0,24.623-11.025,24.623-24.625S41.945,5.158,28.348,5.158z M18.014,33.841c0,1.072-0.869,1.939-1.94,1.939
		s-1.938-0.867-1.938-1.939v-8.295c0-1.071,0.867-1.938,1.938-1.938s1.94,0.867,1.94,1.938V33.841z M37.406,25.22v1.313v11.295
		c0,1.129-0.916,2.047-2.047,2.047h-1.478c0.05,0.172,0.076,0.353,0.076,0.537v0.109v0.646v3.34c0,1.07-0.867,1.939-1.938,1.939
		c-1.07,0-1.939-0.869-1.939-1.939v-3.34v-0.646v-0.109c0-0.186,0.027-0.365,0.078-0.537h-3.602
		c0.049,0.172,0.075,0.353,0.075,0.537v0.109v0.646v3.34c0,1.07-0.868,1.939-1.938,1.939s-1.939-0.869-1.939-1.939v-3.34v-0.646
		v-0.109c0-0.186,0.027-0.365,0.078-0.537h-1.479c-1.129,0-2.046-0.918-2.046-2.047V26.534V25.22v-1.613h0.14h17.821h0.139
		L37.406,25.22L37.406,25.22z M19.307,22.313c0-2.771,1.854-5.191,4.599-6.468l-0.363-0.548l-0.36-0.539l-0.806-1.209
		c-0.098-0.148-0.059-0.35,0.09-0.447c0.149-0.099,0.351-0.06,0.449,0.09l0.865,1.297l0.361,0.545l0.368,0.553
		c1.169-0.453,2.472-0.707,3.845-0.707c1.375,0,2.68,0.254,3.846,0.707l0.369-0.553l0.363-0.545l0.864-1.297
		c0.099-0.149,0.3-0.19,0.449-0.09c0.146,0.099,0.188,0.299,0.088,0.447l-0.805,1.209l-0.359,0.539l-0.364,0.548
		c2.743,1.275,4.6,3.696,4.6,6.468H19.307z M42.578,33.841c0,1.072-0.867,1.939-1.938,1.939c-1.072,0-1.941-0.867-1.941-1.939
		v-8.295c0-1.071,0.869-1.938,1.941-1.938c1.069,0,1.938,0.867,1.938,1.938V33.841z"/>
	<circle fill="#DCDCDC" cx="32.236" cy="18.758" r="0.97"/>
</g>
</svg>
