<?xml version="1.0" encoding="utf-8"?>
<!-- Generator: Adobe Illustrator 16.0.4, SVG Export Plug-In . SVG Version: 6.00 Build 0)  -->
<!DOCTYPE svg PUBLIC "-//W3C//DTD SVG 1.1//EN" "http://www.w3.org/Graphics/SVG/1.1/DTD/svg11.dtd">
<svg version="1.1" id="Layer_1" xmlns="http://www.w3.org/2000/svg" xmlns:xlink="http://www.w3.org/1999/xlink" x="0px" y="0px"
	 width="56.693px" height="56.693px" viewBox="0 0 56.693 56.693" enable-background="new 0 0 56.693 56.693" xml:space="preserve">
<path fill="#DCDCDC" d="M28.347,5.155C14.747,5.155,3.722,16.18,3.722,29.78c0,13.602,11.024,24.625,24.625,24.625
	c13.6,0,24.625-11.023,24.625-24.625C52.972,16.18,41.946,5.155,28.347,5.155z M29.759,15.141c1.117-1.312,3.007-2.283,4.564-2.347
	c0.199,1.816-0.533,3.638-1.613,4.947c-1.084,1.309-2.856,2.328-4.598,2.193C27.878,18.157,28.755,16.301,29.759,15.141z
	 M38.626,39.94c-1.293,1.889-2.633,3.771-4.744,3.809c-2.075,0.039-2.743-1.229-5.114-1.229c-2.373,0-3.115,1.192-5.08,1.27
	c-2.037,0.076-3.589-2.037-4.893-3.92c-2.665-3.848-4.697-10.875-1.964-15.619c1.354-2.357,3.78-3.846,6.411-3.887
	c2.004-0.037,3.893,1.35,5.115,1.35c1.225,0,3.521-1.666,5.936-1.42c1.011,0.041,3.847,0.406,5.668,3.071
	c-0.146,0.092-3.387,1.977-3.348,5.902c0.043,4.688,4.113,6.246,4.16,6.27C40.735,35.642,40.12,37.757,38.626,39.94z"/>
</svg>
