<?xml version="1.0"?>
<!DOCTYPE svg PUBLIC "-//W3C//DTD SVG 1.1//EN" "http://www.w3.org/Graphics/SVG/1.1/DTD/svg11.dtd">
<svg version='1.1' width='428px' height='223px' xmlns='http://www.w3.org/2000/svg' xmlns:xlink='http://www.w3.org/1999/xlink'>
	<g transform="translate(226.35,106.3)">
		<path d="M -197.9 -18.75 L -199.425 -18.1 Q -198.544 -18.4389 -197.4 -18.8 Z M -197.15 -19.65 L -199.95 -19.85 L -204.45 -18.75 L -198.45 -19.2 Z M -202.5 -16.3 L -200.65 -17.25 Q -200.3 -17.45 -201.05 -17.2 Q -201.8 -17 -201.45 -17.2 Q -201.25 -17.3168 -201 -17.45 L -204.2 -16.1 L -202.5 -16.3 L -194.8 -16.65 L -195.5 -16.8 L -184 -16.7 L -184 -16.85 L -185.75 -16.9 L -185.75 -17.15 L -175.15 -17.5 L -175.15 -17.75 L -186.6 -18.1 L -186.6 -18.35 L -184.25 -18.3 L -196.15 -18.85 Q -198.55 -18.2 -202.5 -16.3 Z M -196.8 -19.6 L -197.05 -19.65 L -198.4 -19.2 L -198.05 -19.2 Z M -197.25 -21.7 L -198.75 -21.25 L -197.9 -21.25 L -197 -21.4 L -197.25 -21.4 L -197.25 -21.7 L -194.9 -21.65 L -187.45 -22.2 L -187.45 -22.3 L -189 -22.3 L -189 -22.35 L -195.35 -22.25 Z M -200 -24.9 L -201.6 -24.8 L -205 -23.95 L -197.2 -24.15 L -197.2 -24.25 L -198.75 -24.25 L -198.75 -24.5 Q -186.25 -25 -188 -25.5 L -189.55 -25.4 L -189.55 -25.6 L -195.85 -25.4 L -195.75 -25.45 L -197.8 -25.45 Z M -199.6 -28.5 L -204.075 -27.35 Q -201.109 -28.0291 -197.8 -28.55 L -197.8 -28.7 L -199.6 -28.4 Z M -172.85 -39.35 L -172.95 -39.55 L -178.15 -38.1 L -173.25 -38.85 Q -170.8 -39.7 -171.5 -39.75 Z M -214.7 -22.8 L -214.55 -22.85 Q -214.15 -23.1 -215.25 -22.75 L -215.6 -22.35 Z M -212.95 -23.1 L -213.55 -23.25 L -214.45 -22.85 L -212.7 -22.95 Q -212.35 -23 -212.95 -23.1 Z M -214.35 -20.4 L -209.7 -20.6 L -209.5 -20.75 L -214.35 -20.4 L -218.25 -20.15 L -218 -20.3 L -217.05 -20.55 L -215.9 -22.15 L -216.85 -21.65 L -215.85 -22.25 L -215.45 -22.65 Q -215.75 -22.6 -215.45 -22.75 L -215.3 -22.85 L -215.1 -23.1 L -216.35 -22.5 Q -219.75 -20.8 -218.85 -21.55 L -215.85 -23.2 L -216.05 -23.2 L -223.85 -21.35 L -226.35 -19.45 L -224.25 -21.2 L -224.05 -21.3 Q -220.55 -24 -216.45 -25.85 Q -219.75 -25.15 -223.3 -23.05 Q -219 -25.75 -215.45 -26.3 L -212.95 -27.35 L -213.8 -27.25 L -212.75 -27.4 L -212.05 -27.65 L -212.35 -27.7 L -212.2 -27.75 L -211.7 -27.8 L -211.15 -28 L -215.45 -27.8 Q -216.15 -27.85 -215.5 -28 L -209.15 -28.6 L -208.5 -28.8 L -208.45 -28.8 Q -203.2 -30.3 -197.8 -31.05 L -195.4 -31.65 L -195.4 -31.8 L -197 -31.4 L -197.05 -31.65 L -189.4 -33.45 Q -184.95 -34.45 -185.95 -34.55 L -187.55 -34.25 L -187.6 -34.45 L -193.2 -33.4 L -194.2 -33.05 L -194.95 -33 Q -197.4 -32 -202.3 -30.65 Q -199.6 -31.5 -196.1 -32.85 L -198.1 -32.4 L -198.15 -32.6 L -196.25 -33.05 L -205.25 -31.4 L -212.4 -30.55 L -213.25 -30.7 L -218.15 -30.2 Q -219.4 -29.85 -220.75 -28.95 L -222.4 -27.95 L -220.65 -29.1 Q -219.2 -30.15 -217.55 -30.5 L -212.45 -31 Q -206.15 -31.5 -203.15 -32.3 L -188.2 -35.8 Q -177.05 -40 -169.75 -41.9 L -167.65 -42.6 L -165.45 -43 Q -166 -43 -165.65 -43.15 L -164.75 -43.35 L -138.2 -45.5 L -138.2 -45.65 L -136.1 -45.75 L -136.1 -45.6 L -134.65 -45.6 L -134.65 -45.5 L -130.5 -45.9 L -130.45 -45.8 L -127.7 -46.15 L -127.7 -46 L -127 -46.25 L -114.1 -47.85 L -114.65 -47.5 Q -114.95 -47.3 -114.1 -47.3 L -110.2 -47 Q -105.85 -51.65 -103.3 -52.75 L -94.65 -55.8 Q -86.25 -57.9 -78.55 -58.35 L -65.55 -57.65 L -58.3 -56.6 Q -48.35 -53.45 -41.2 -52.2 Q -32.8 -50.75 -22.95 -50.85 L -2.85 -50.85 L 15 -52.55 Q 24.45 -53.9 33.45 -57.55 L 38.8 -58.55 Q 41.4 -59.05 36.3 -59.45 L 34.4 -59.45 L 31.05 -58.5 Q 28.4 -57.9 27.7 -59.45 Q 29.55 -59.5 32.1 -60.55 Q 34.85 -61.7 36.2 -61.9 L 40.05 -62.4 L 43 -63.3 Q 42.25 -65.4 40.15 -66.15 L 44.95 -65.6 Q 45.65 -65.5 43.85 -67.8 Q 44.7 -68.05 45.45 -67.5 Q 46.35 -66.85 46.9 -66.85 L 51.75 -67.35 L 56.4 -67.1 L 51.65 -68.45 Q 48.55 -69.2 45.9 -71.9 Q 48.65 -70.9 55.45 -70.9 Q 62.35 -70.9 64.65 -70.15 Q 64.7 -71.2 61.75 -72.3 Q 58.5 -73.5 58.3 -73.8 L 66.95 -75.25 L 79.35 -73.8 Q 80.1 -73.8 80.15 -74.65 Q 80.2 -75.55 79.35 -75.7 L 74.95 -75.6 Q 72.1 -75.4 71.7 -76.7 Q 72.4 -76.3 73 -76.3 L 74.55 -76.7 Q 76.85 -77.45 79.2 -77.65 L 86.8 -77.9 Q 86.65 -78.95 84.7 -79.35 Q 82.55 -79.75 82.2 -80.5 Q 84.1 -80.15 86.6 -81.25 L 88.9 -82.4 Q 88.95 -83.15 86.85 -82.9 L 82.2 -82.4 L 79.5 -83.05 Q 78.2 -83.65 78.4 -85.3 Q 81.1 -83.45 85 -85.05 Q 87.15 -85.95 90.75 -88 Q 87.5 -89.55 87 -91 L 89.2 -90.35 L 96.8 -89.35 Q 101.35 -88.95 102.05 -90.15 Q 100.85 -90.3 99 -94.05 Q 102.05 -92.7 102.3 -93.9 L 101.2 -94.75 L 103.25 -94.85 L 102.75 -96.05 Q 102.45 -96.5 103.25 -96.75 Q 104.55 -96.65 106.45 -95.35 Q 108.066 -94.2582 108.625 -93.35 L 107 -96.4 Q 105.65 -98.4 104.2 -99.6 Q 106.4 -100.45 110.2 -99.1 Q 113.5 -97.9 116.95 -95.5 Q 120.7 -92.85 121.6 -92.5 L 123.35 -91.95 Q 123.95 -93.45 122.8 -94.25 Q 121.4 -95.25 121.35 -96.3 L 124.85 -94 Q 124.1 -95.9 124.25 -100.55 Q 124.4 -105.2 125.15 -106.3 Q 126.65 -106.1 129.4 -102.35 L 132.95 -97.55 Q 132.75 -98.1 132.9 -98.65 Q 133.8 -98.55 134.45 -97.75 L 135.5 -96.35 L 137.7 -96.05 L 137.75 -99.1 Q 138 -100.65 139.55 -99.6 L 141.5 -97.7 L 143.05 -95.35 L 144 -95.2 Q 144.7 -95.45 146.45 -93.75 Q 147.8 -92.45 148.05 -93.9 Q 148.6 -93.2 151.2 -91.35 Q 153.25 -89.9 153.8 -88.05 Q 157.7 -84.7 160.15 -83.1 L 163.45 -80.7 L 172.75 -70.95 Q 178.5 -64 186.9 -57.8 L 194.6 -53.1 Q 197.65 -50.7 199.8 -46.45 L 200.65 -44.25 Q 201.05 -42.7 200.6 -42.1 Q 199.95 -41.2 200.45 -39.1 Q 200.95 -36.95 200.55 -36.25 L 199.35 -33.7 Q 198.6 -32.3 197.35 -31.9 L 189.95 -29.3 L 183.3 -28.8 Q 181.75 -29.85 180.95 -31.05 L 180.15 -31.95 L 179.45 -32.45 L 167.55 -36.95 Q 165.15 -37.55 161.8 -38.9 Q 159.15 -39.95 157.35 -40.2 L 144.65 -41.15 Q 138.8 -41.2 132.6 -43.95 L 129.3 -43.7 Q 128.2 -43.4 127.15 -42.25 L 120.25 -36.8 L 112.95 -29.2 Q 107.4 -23.7 105.15 -22.2 Q 101.7 -19.8 100 -17.3 Q 97.8 -14.1 97.5 -9.75 L 97.35 -4.5 Q 97.25 -1.35 97.5 0.75 Q 98.4 8.25 98.1 12.6 Q 97.75 18.75 95.1 20.95 Q 98.2 24.15 100.75 31.45 Q 103.7 40.05 105.75 43.25 L 108.95 49 Q 111.25 53.15 113.75 56.2 L 117.45 60.75 Q 119.8 63.55 121 66.55 L 123.25 70.75 Q 123.5 71.4 124.45 72.65 L 126.2 75.3 Q 127.55 77.75 129.95 80.85 L 132.1 83.3 L 142.6 92.65 Q 144.95 94.55 148.85 95.65 L 152.65 96.95 Q 157.15 98.7 158.45 99.6 Q 160.25 100.75 159.85 102.25 Q 159.45 103.5 157.3 105.3 Q 155.05 107.2 152.95 108 Q 150.9 108.85 148.35 108.9 Q 145.3 109 144.05 107.55 Q 142.85 106.1 142.45 102.1 Q 139.1 97.9 134.8 100.2 Q 132.55 98.95 130.55 96.4 L 127.15 91.55 L 117.4 79.4 L 115.15 77.2 Q 114.7 76.7 112.25 75.25 Q 110.1 73.95 109 72.45 Q 103.6 65.15 98.35 59.75 L 88.9 50.45 L 75.65 39.55 Q 73.85 38.3 70.5 35.35 L 65.95 31.35 L 60.2 31.35 L 56.2 31.95 L 47.9 34.55 L 44.95 36.1 Q 40.6 38.7 38.75 40.1 L 33.2 44.85 Q 29.3 48.35 22.95 55.25 L 18.95 60.55 Q 16.65 63.5 15.1 66.15 L 12.5 69.85 L 9.55 72.45 Q 8.45 73.25 7.65 74.35 L 0.4 83.9 Q -3.55 89.6 -4.8 95.4 Q -4.1 100.4 1.35 105.05 Q 7.4 110.15 8.6 113.55 Q 7.8 114.7 5.95 115.15 L -1.45 115.8 Q -6.45 115.55 -7.65 113.55 L -7.65 106.85 Q -7.95 106.6 -8.2 106.7 L -8.6 106.85 Q -10.75 103.4 -12 101.85 Q -14.25 99.05 -16.6 99.45 Q -17.4 99.6 -18 98.6 Q -18.9 97.2 -17.2 94.45 L -10.1 84.45 Q -5.45 78.2 -2.7 73.6 Q -1.25 71.1 0.1 66.9 Q 1.45 62.75 2.45 61.1 Q 3.5 59.35 5.05 57.45 L 7.55 53.8 L 13.65 40.8 L 14.35 37.2 Q 16.3 30.4 11.45 30.4 L -2.85 28.5 L -17.25 25.1 Q -24.55 23.3 -30.6 21.25 L -58.1 11.25 Q -64.7 9.95 -70.75 12.25 Q -76.15 14.25 -82.65 18.7 L -90.35 24.15 Q -92.05 25.2 -97.5 28.3 Q -104.9 32.5 -111.4 35.9 L -118.15 39.6 Q -121.75 41.65 -126.2 43.75 L -140.55 52.4 Q -143.65 54.5 -146.95 57.85 L -161.35 71.8 Q -165.7 76.05 -169.95 81.85 Q -173.25 86.4 -174.7 87.2 L -177.2 88.45 Q -178.05 88.95 -179.5 88.9 L -182.6 88.7 L -187.35 94.85 Q -190.3 98.25 -194.05 99.2 L -195.05 99.4 L -196 99.2 Q -200.1 97.25 -199.05 89.65 Q -197.95 81.95 -193.1 82 Q -192.25 82 -190.5 82.75 L -187.4 82.95 Q -185.9 82.4 -186.05 80.7 Q -186.2 78.4 -185.45 77.25 L -183.2 76.35 Q -180.5 75.4 -177.8 73.4 Q -172.6 69.5 -166.6 61.6 L -160.5 53.6 Q -157.25 49.2 -154.85 44.75 L -153.85 42.2 Q -152.75 39.85 -149.8 38.1 Q -146.2 36.3 -144.35 35.15 Q -138.55 31.65 -135.3 29 Q -130.65 25.2 -128.1 20.85 Q -131.45 20.4 -138.15 21.85 L -149.15 24.65 Q -154.5 26.15 -159.75 28.35 Q -165.55 30.75 -167.95 32.75 L -180.35 43.45 L -190.25 53.35 Q -192 54.95 -200.35 57.2 Q -208.15 59.25 -214.15 60 Q -217.7 60.65 -218.4 58 Q -218.8 56.75 -218.35 53.75 Q -218.15 52.15 -216.95 49.35 Q -216.05 47.35 -213.85 45.6 Q -212.45 44.5 -211.6 44.4 Q -210.85 44.3 -209.55 44.9 Q -208.6 45.35 -206.35 47.35 Q -204.75 48.8 -203.65 48.55 Q -202.9 48.4 -202.65 47 Q -202.3 45.35 -201.7 44.75 Q -200.6 43.65 -194.55 40.2 L -187.4 36.1 L -179.75 30.4 L -176.05 26.95 L -165.9 14.1 Q -163.8 11.75 -161.55 10.3 L -148.95 6.1 Q -137.3 2.35 -132.9 -1.15 L -130 -4.05 Q -127.9 -6.3 -127.05 -12.45 Q -125.95 -20.35 -125.25 -22.2 Q -123.8 -25.95 -121.35 -30.6 Q -128.45 -26.85 -134.9 -24.65 L -137.35 -23.9 Q -143.75 -20.85 -154.35 -16.5 Q -156.75 -15.55 -160.4 -15.15 L -166.25 -14.75 Q -170.55 -14.45 -177.3 -14.65 L -193.7 -15.45 L -195.45 -15.7 L -204.2 -15.2 L -201.6 -15.5 Q -201.15 -15.55 -202 -15.6 Q -202.9 -15.6 -202.45 -15.7 L -196.35 -16.05 L -196.35 -16.2 L -206 -15.65 Q -206.75 -15.7 -206 -15.85 L -204.6 -16.05 L -204.5 -16.15 Q -202.25 -17.6 -199.4 -18.7 L -202.7 -18.5 L -203.65 -18.65 L -205.65 -18.4 L -211.5 -14.45 Q -209.35 -16.5 -206.2 -18.35 L -213.55 -17.25 L -205.7 -18.65 L -204.55 -19.25 L -206.55 -18.9 Q -207.1 -18.85 -206.55 -19.05 L -203.55 -20 L -205.45 -20 L -207.25 -20.25 L -209.95 -20.3 L -213.3 -18.35 L -210.3 -20.3 L -216.1 -19.75 L -213.45 -20.25 Q -213 -20.35 -213.9 -20.3 Q -214.8 -20.3 -214.35 -20.4 Z M -209.35 -20.6 L -208.15 -20.6 L -208.15 -20.75 L -209.05 -20.75 Z M -209.1 -23.35 L -209.6 -23.2 L -208 -23.2 L -208 -23.35 Z M -202.65 -19.75 Q -203.4 -19.35 -203.5 -19.55 L -203.55 -19.5 L -205.1 -18.7 L -204.55 -18.75 L -202.65 -19.3 Q -202.25 -19.45 -203.05 -19.35 Q -203.8 -19.3 -203.45 -19.4 L -201.4 -19.9 L -201.85 -19.95 L -202.5 -19.8 Z M -204.25 -22.55 L -204 -22.6 L -205.7 -22.6 L -207.25 -22.85 L -208.85 -22.85 L -209.15 -22.75 L -208.9 -22.85 L -214.5 -22.8 L -215.75 -22.25 L -217 -20.55 L -208.55 -21.2 L -208.25 -21.35 Z M -206.75 -21.2 L -207.25 -21.35 L -199.95 -21.3 L -196.7 -22.3 L -202.05 -22.6 L -204.15 -22.15 L -205 -22.1 L -207.55 -21.35 L -207.9 -21.2 Z M -203.95 -26 L -207.05 -25.2 L -208.8 -25 L -212.15 -23.85 L -208.65 -23.85 L -208.5 -23.9 L -210.35 -23.9 L -208.45 -23.95 L -201.1 -25.9 L -201.85 -25.85 L -202.4 -25.7 L -201.55 -25.95 Z M -209.2 -26 L -210.05 -25.7 L -209.25 -26 L -210.15 -26 Q -211.9 -25.4 -213.5 -24.3 L -208.75 -26 Z M -207.75 -26.45 L -207.7 -26.45 Q -207.618 -26.4725 -207.525 -26.5 Z M -209.75 -25.05 L -209.8 -25.2 L -213.5 -23.8 L -213.2 -23.8 Z M -209.15 -28.15 L -209.7 -28 L -206.45 -28.35 L -206.45 -28.5 Z M -197.8 -29.4 L -203.85 -28.15 L -204.4 -28.2 L -211.3 -27.5 L -214 -26.45 L -213.5 -26.5 L -209.45 -26.45 Z M -216.7 -25.3 Q -217.5 -24.9 -217.65 -25.05 L -223.6 -21.55 Q -220 -22.9 -215.95 -23.45 L -214.95 -23.65 L -214.1 -24 L -213.7 -24.4 Q -212.45 -25.4 -210.8 -26 L -213.45 -26.1 L -214.4 -26.25 L -214.65 -26.2 Z" fill="#FAF643"/>
	</g>
</svg>
